<?xml version="1.0" encoding="UTF-8"?>
<svg xmlns="http://www.w3.org/2000/svg" width="500" height="500" version="1.1" viewBox="0 0 500 500">
  <defs>
    <style>
      .cls-1, .cls-2 {
        fill: none;
      }

      .cls-3 {
        fill: #dfdfdf;
      }

      .cls-2 {
        stroke: #fff;
        stroke-miterlimit: 10;
        stroke-width: 22.7px;
      }
    </style>
  </defs>
  <!-- Generator: Adobe Illustrator 28.6.0, SVG Export Plug-In . SVG Version: 1.2.0 Build 709)  -->
  <g>
    <g id="Layer_1">
      <rect class="cls-1" width="500" height="500"/>
      <path class="cls-3" d="M324.3,173c-5-3.1-10.7-4.7-17.2-4.7s-8.9.9-12.8,2.6c-3.9,1.7-7.3,4.3-10.1,7.6-2.8,3.3-5,7.5-6.7,12.7-1.6,5.1-2.4,10.9-2.4,17.3s.8,12.3,2.4,17.5c1.6,5.2,3.9,9.6,6.9,13,3,3.4,6.4,6,10.2,7.7,3.9,1.7,8.1,2.6,12.7,2.6s11.3-1.5,16.2-4.4c4.9-2.9,8.9-7.5,11.8-13.7,2.9-6.2,4.4-13.7,4.4-22.7s-1.3-15.5-4-21.6c-2.7-6.1-6.5-10.7-11.5-13.8Z"/>
      <path class="cls-3" d="M342.7,302.4c-2.5-1.6-5.4-2.4-8.6-2.4s-4.5.4-6.4,1.3c-2,.9-3.7,2.1-5.1,3.8-1.4,1.7-2.5,3.8-3.4,6.4s-1.2,5.5-1.2,8.7.4,6.2,1.2,8.8,2,4.8,3.5,6.5c1.5,1.7,3.2,3,5.2,3.9,1.9.9,4.1,1.3,6.4,1.3s5.7-.7,8.2-2.2c2.5-1.5,4.5-3.8,5.9-6.9,1.5-3.1,2.2-6.9,2.2-11.4s-.7-7.8-2-10.9-3.3-5.4-5.8-7Z"/>
      <path class="cls-3" d="M250,21.6C124,21.6,21.6,124,21.6,250s102.5,228.4,228.4,228.4,228.4-102.5,228.4-228.4S376,21.6,250,21.6Z"/>
      <path class="cls-2" d="M250,71.6c-98.4,0-178.4,80-178.4,178.4s80,178.4,178.4,178.4,178.4-80,178.4-178.4-80-178.4-178.4-178.4Z"/>
      <line class="cls-2" x1="123.9" y1="124" x2="368.9" y2="382.9"/>
    </g>
  </g>
</svg>