<?xml version="1.0" encoding="UTF-8"?>
<svg id="Layer_1" data-name="Layer 1" xmlns="http://www.w3.org/2000/svg" width="500" height="500" viewBox="0 0 500 500">
  <rect width="500" height="500" fill="none"/>
  <g>
    <path d="m250,36.63c-117.84,0-213.37,95.53-213.37,213.37s95.53,213.37,213.37,213.37,213.37-95.53,213.37-213.37S367.85,36.63,250,36.63Zm180.88,289.79c-9.88,23.38-24.03,44.37-42.05,62.4-18.02,18.03-39.01,32.19-62.39,42.08-24.2,10.24-49.91,15.44-76.41,15.44h-.04c-26.48,0-52.18-5.19-76.37-15.41-23.38-9.88-44.37-24.03-62.4-42.05-18.03-18.02-32.19-39.01-42.08-62.39-10.24-24.2-15.44-49.91-15.44-76.41v-.08c0-26.5,5.18-52.21,15.41-76.41,9.88-23.38,24.03-44.37,42.05-62.4,18.02-18.03,39.01-32.19,62.39-42.08,24.2-10.24,49.91-15.44,76.41-15.44h.04c26.48,0,52.18,5.19,76.37,15.41,23.38,9.88,44.37,24.03,62.4,42.05,18.03,18.02,32.19,39.01,42.08,62.39,10.24,24.2,15.44,49.91,15.44,76.4v.08c0,26.5-5.18,52.21-15.41,76.41h0Z"/>
    <polygon points="112.6 241.63 105.44 260.57 119.81 260.57 112.6 241.63"/>
    <polygon points="124.04 271.97 127.24 280.67 150.76 280.67 123.82 227.97 98.71 227.97 69.34 280.67 97.92 280.67 101.08 271.97 124.04 271.97" fill="none"/>
    <rect x="156.28" y="227.97" width="25.06" height="52.7" fill="none"/>
    <polygon points="210 280.67 220 267.17 228.83 280.67 254.25 280.67 232.05 253.49 252.34 227.97 227.58 227.97 220 239.55 211.74 227.97 187.45 227.97 207.92 253.2 185.4 280.67 210 280.67" fill="none"/>
    <path d="m258.28,280.67h24.42l3.16-6.62h19.14l3.2,6.62h25.6l-26.95-52.7h-26.5l-22.09,52.7h0Zm36.83-34.99l5.66,14.89h-11.6l5.93-14.89h0Z" fill="none"/>
    <path d="m251.95,150.77l17,61.76h87.78l-44.41-109.29h-119.01s-43.37,107.21-44.41,109.29h86.05l17-61.76h0Z" fill="none"/>
    <polygon points="385.5 227.97 377.39 258.65 364.38 227.97 337.51 227.97 337.51 280.67 357.14 280.67 357.14 250.19 373.34 280.67 388.94 280.67 398.59 249.5 405.53 280.67 430.67 280.67 408.46 227.97 385.5 227.97" fill="none"/>
    <path d="m114.69,295.88s-13.74,35.82-16.19,42.2h103.04l6.87-26.01h87.83l7.85,26.01h101.08l-17.18-42.2H114.69Z" fill="none"/>
    <path d="m385.52,114.4c-36.2-36.19-84.33-56.12-135.52-56.12h-.04c-105.7.02-191.67,86.03-191.65,191.73v.08c.02,105.68,86.01,191.65,191.69,191.65h.04c51.2-.01,99.33-19.96,135.53-56.17,36.2-36.22,56.13-84.35,56.12-135.56h0v-.08c-.01-51.2-19.96-99.33-56.17-135.53h0Zm-192.2-11.16h119.01l44.41,109.29h-87.78l-17-61.76-17,61.76h-86.04c1.04-2.08,44.41-109.29,44.41-109.29h0Zm140.49,177.44h-25.6l-3.2-6.62h-19.14l-3.16,6.62h-24.42l22.09-52.7h26.5l26.95,52.7h0Zm-146.36-52.7h24.29l8.27,11.58,7.58-11.58h24.76l-20.29,25.52,22.21,27.18h-25.43l-8.82-13.49-10,13.49h-24.6l22.51-27.47-20.47-25.24h.01Zm-6.1,0v52.7h-25.06v-52.7h25.06Zm-112,52.7l29.37-52.7h25.11l26.95,52.7h-23.52l-3.2-8.7h-22.96l-3.16,8.7h-28.58Zm234.77,57.41l-7.85-26.01h-87.83l-6.87,26.01h-103.05c2.45-6.38,16.19-42.2,16.19-42.2h273.32l17.18,42.2h-101.08Zm101.43-57.41l-6.94-31.17-9.65,31.17h-15.6l-16.19-30.48v30.48h-19.63v-52.7h26.87l13.01,30.68,8.11-30.68h22.96l22.21,52.7h-25.14Z"/>
    <polygon points="295.11 245.68 289.18 260.57 300.78 260.57 295.11 245.68"/>
  </g>
</svg>