<?xml version="1.0" encoding="UTF-8"?>
<svg id="Layer_1" data-name="Layer 1" xmlns="http://www.w3.org/2000/svg" width="500" height="500" viewBox="0 0 500 500">
  <rect width="500" height="500" fill="none"/>
  <g>
    <path d="m434.7,143.55c-18.51-32.44-45.92-59.63-78.13-78.13-32.21-18.74-69.22-28.56-106.45-28.56s-74.25,9.82-106.69,28.55c-31.98,18.51-59.39,45.69-78.13,78.13-18.51,32.21-28.56,69.22-28.56,106.46s10.05,74.25,28.55,106.68c18.73,31.98,46.15,59.4,78.13,77.9,32.44,18.51,69.68,28.55,106.69,28.55s74.25-10.05,106.45-28.55c32.21-18.27,59.63-45.92,78.13-77.9,18.73-32.44,28.33-69.44,28.55-106.68,0-37.24-9.82-74.25-28.55-106.46h0Zm-295.84,248.33h0l-5.71-4.34c-15.99-13.25-28.33-29.93-39.07-47.52-11.65-18.51-18.73-40.44-22.16-62.36-.23-2.52-.68-4.8-.92-7.31h67.85v121.54h0Zm0-175.45h-66.02l3.2-12.79c3.65-15.54,10.28-29.93,18.05-43.63,9.6-18.05,23.3-34.49,39.07-47.29,2.05-1.6,3.88-3.2,5.71-4.34v108.05h0Zm107.6,213.6h-4.34c-13.93-.69-28.1-3.89-41.81-6.63l-7.77-2.52v-150.55h53.92v159.69h0Zm0-213.6h-53.92V79.12l7.77-2.29c13.71-3.2,27.87-5.94,41.81-6.63,1.37-.23,2.97-.23,4.34-.23v146.44h0Zm158.77,124.5c-15.31,27.19-38.15,50.72-65.11,64.88-25.13,13.48-52.77,23.53-82.01,24.22h-6.17V69.98c2.06,0,4.34,0,6.17.23,28.55.92,56.88,9.6,82.01,23.99,26.96,15.76,49.8,38.15,65.11,64.88,16.22,27.42,24.67,59.17,24.67,90.92s-8.45,63.51-24.67,90.92h0Z"/>
    <path d="m299,161.59h25.13c1.14-1.6,2.51-3.2,3.88-5.26l5.49-5.02h31.3c1.6,0,3.65,0,5.48-.46,2.29,0,4.57,0,6.4-.92,1.37-.68,2.28-1.6,3.65-2.05.92-1.14,1.83-1.83,3.2-2.29,1.6.68,3.2,1.83,4.8,2.74,4.34,2.51,8.68,6.17,12.1,10.28,3.2,3.65,5.94,7.54,8.45,11.42,2.75,5.71,4.34,12.11,5.02,18.27.92,5.9.92,11.92,0,17.82-1.37,7.99-4.11,15.76-8.68,22.39-4.11,6.13-9.58,11.21-15.99,14.85-5.26,2.97-10.96,4.8-16.68,5.71-4.57.68-8.91.68-13.48.68l-37.7.46c-2.05,0-3.88,0-6.39.23-1.6,0-2.74.68-3.43,1.6-.68.68-.68,1.6-.23,2.51.23,1.15,1.6,1.37,2.52,1.83,1.6.23,2.97.46,4.57.23l32.9-.91c3.88,0,7.76,0,11.88.68,4.8.23,9.59,1.37,13.93,4.12,4.34,2.28,7.99,5.71,11.2,9.59,3.2,4.34,5.25,9.14,6.63,14.39,1.37,4.68,1.6,9.61.68,14.4-.91,5.02-3.43,9.82-7.08,13.94-3.88,4.11-8.23,7.31-13.7,9.59-3.65,1.14-7.54,2.51-11.2,2.74-2.97.23-6.17,0-8.91,0l-34.73.23c-1.6,0-3.65,0-5.26.46-1.37.46-2.51.68-3.2,1.6-.23.68-.23,2.29,0,2.74.69,1.37,2.29,1.6,3.43,2.05,1.83.23,3.43.23,5.02.23h23.53c2.29,0,4.8.46,6.85.68,3.2.46,6.85.92,9.59,2.29,2.97,1.14,5.49,3.43,7.31,5.94,2.05,2.74,2.97,5.71,3.2,9.36.46,2.74,0,5.94-1.14,8.91-1.6,2.51-3.89,4.8-6.39,6.17-2.29,1.6-5.26,2.74-8,3.2-2.28.46-4.8.46-7.31.69l-13.02.23c-1.15,0-2.29,0-3.2.45-.45.23-1.37.69-1.6,1.6-.5.71-.4,1.69.23,2.29.46.91,1.37,1.37,2.29,1.6,2.29.69,4.11.46,6.17.46s4.8-.46,6.85.23c2.52.45,4.8,1.37,5.94,2.97,1.6,1.83,2.28,4.11,2.51,6.39,0,1.6,0,2.97-.23,5.02-.23,1.37-.91,2.97-2.28,3.43-.92.69-2.29.91-2.97.46-1.14-.69-1.83-1.6-2.28-2.97-.69-.92-.92-1.83-1.83-2.52-1.37-1.6-3.65-1.83-5.71-2.29-2.97-.45-5.71,0-8.45,0-3.2,0-5.94-.68-9.13-1.37-3.2-1.14-6.17-2.74-8.45-5.26-1.83-2.28-3.43-4.8-3.89-7.76-.23-2.74-.23-5.26,1.14-7.54,1.15-2.51,3.2-4.34,5.71-5.48,3.2-1.83,6.85-1.83,10.28-1.83l18.27-.23c1.14,0,2.97.23,4.34-.23.46-.69,1.15-2.05,1.15-2.97-.46-.92-.92-1.83-1.83-2.52-1.6-.68-2.97-.45-4.34-.45-1.14,0-2.74,0-3.88.45l-31.76.23c-2.52,0-5.26,0-7.54-.23-3.89-.91-7.08-2.74-10.28-4.8-3.43-2.97-6.85-6.85-8.45-10.96-1.59-4.23-2.29-8.74-2.05-13.25.46-5.26,2.05-10.51,5.49-14.86,2.05-2.97,5.26-5.25,8.91-6.84,2.83-.93,5.73-1.62,8.68-2.05h8.45l39.06-.46c1.38,0,2.97,0,4.34-.69.68-.22,1.6-1.14,1.6-1.82s-.69-1.83-1.6-2.29c-.92-.69-1.83-.69-3.2-1.14h-4.12l-42.03.45c-3.65,0-7.08-.45-10.73-.91-2.97-.69-6.4-1.37-9.14-2.52-3.2-1.83-5.94-4.11-8.45-6.63-3.43-3.88-6.39-8.91-7.99-14.39-2.29-7.08-2.97-14.62-1.83-21.93.69-5.26,1.83-10.96,4.8-15.31,2.52-4.11,6.39-7.31,10.28-10.28,4.57-2.97,9.36-5.48,14.17-6.85,3.65-.92,7.54-1.14,11.65-1.6,3.2,0,6.17-.23,9.36-.23l33.35-.46c1.6,0,3.2-.23,4.8-.46,1.37-.46,2.97-1.14,3.65-2.29.46-1.37.23-3.2-.46-4.11-.68-.92-2.28-1.6-3.43-2.05-1.6-.23-3.2-.23-4.8-.23-1.6-.23-2.97,0-4.8,0l-44.09.23c-.68-.92-.91-2.29-.91-3.2-.23-1.83.23-4.11,1.6-5.71,1.14-2.29,3.65-3.43,5.94-4.8,2.97-1.37,6.17-1.6,9.6-2.05,4.11-.23,7.76,0,11.65,0,2.51,0,4.8-.23,7.08-.92,1.37-.46,2.51-.68,2.97-1.6.23-.68,0-1.6-.46-2.51-.69-1.14-1.37-1.6-2.74-1.83-2.05-.46-4.34,0-6.17.23-3.65.46-7.31.23-10.73.23s-6.17.23-9.14-.46c-2.51-.68-4.8-2.29-7.08-4.34-1.82-1.83-3.2-4.11-4.11-6.63-.23-1.37-.69-2.51-.23-3.88l.46-4.11h0Z" fill-rule="evenodd"/>
    <path d="m304.26,185.35c-1.15.46-1.83,1.14-2.97,1.83-2.28,1.14-3.88,3.65-5.25,5.94-1.38,2.29-2.75,4.34-2.75,6.63.46,2.05.46,4.11,1.6,5.48l2.29,1.83-19.19,12.11c-2.28,1.83-4.34,3.65-6.85,4.34-1.6.68-3.43.68-4.8,0-1.14-.92-2.28-2.29-2.51-3.88-.46-1.6.23-3.2,1.14-4.8.69-1.6,2.05-3.2,3.2-4.57,1.83-1.58,3.82-2.95,5.94-4.11,1.83-1.37,3.43-2.51,4.8-4.34.91-1.37,1.83-2.97,1.6-4.34-.46-1.37-1.15-2.05-1.83-2.97-1.14-.23-2.74-.23-4.12.46-1.14.68-1.83,1.83-2.74,2.51-1.83,2.05-4.8,2.51-7.76,2.29-2.61-.27-5-1.59-6.63-3.65-1.6-1.83-2.29-4.57-2.52-7.08-.46-3.43-.46-6.63.69-9.6.68-2.74,2.05-5.71,4.34-7.31s5.02-2.05,7.54-1.6c2.05,0,3.65,1.14,5.71,1.83,1.14.68,2.05,1.37,3.2,1.14,1.15-.46,2.29-1.6,2.29-2.51.23-1.37-.69-2.29-1.83-3.43-1.6-.68-3.2-1.37-4.8-1.83-1.83-.68-3.43-1.14-5.02-2.51-1.6-1.6-2.52-3.43-2.52-5.94,0-2.29,1.15-4.34,2.97-5.26,1.82-1.37,4.11-1.14,6.63-.68,2.74.68,5.71,1.14,7.76,2.74,2.97.92,4.8,2.97,7.08,4.57,1.14,1.14,2.28,2.29,3.43,3.65-.46,1.14-.69,2.51-.92,3.88-.23,2.51.23,5.48,1.6,7.99.92,2.51,1.6,5.71,4.12,6.85l7.08,4.34h0Zm24.9-62.36l26.27-.23c2.05,0,4.34-.46,6.63,0,.92.23,2.05.68,2.75,1.6.68.92.68,2.05.22,3.2-.22.92-1.37,2.05-2.74,2.29-1.14.68-3.2,0-4.8,0l-53.91.23c-.91,0-2.29,0-3.2-.46-.69-.23-1.37-1.37-1.37-2.29-.23-1.37.45-2.97,1.6-3.65.68-.23,1.83-.68,2.51-.68h26.05,0Zm0,12.34l26.27-.46c2.05,0,4.34-.46,6.63,0,.92,0,2.05.68,2.75,1.83.68.92.68,1.83.22,2.74-.22,1.37-1.37,1.83-2.74,2.51-1.14.46-3.2,0-4.8,0h-53.91c-.91,0-2.29,0-3.2-.68-.69-.23-1.37-1.14-1.37-1.83-.23-1.37.68-2.74,1.6-3.43.68-.68,1.83-.68,2.51-.68h26.05,0Z" fill-rule="evenodd"/>
  </g>
</svg>