<?xml version="1.0" encoding="UTF-8"?>
<svg id="Layer_1" data-name="Layer 1" xmlns="http://www.w3.org/2000/svg" width="500" height="500" viewBox="0 0 500 500">
  <rect width="500" height="500" fill="none"/>
  <g>
    <path id="path3807" d="m41.9,113.51c-26.02-1.22-22.52,5.85-10.77,19.72l209.99,247.82c3.19,3.76,5.92,5.58,8.88,5.58s5.7-1.82,8.88-5.58l209.99-247.82c11.75-13.87,15.25-20.94-10.77-19.72,0,0-416.21,0-416.21,0Z"/>
    <path id="path3768" d="m167.99,162.09l-20.36,73.68,6.89,1.95,3.18-11.49h25.17l7.99,34.55,6.89-1.65-22.36-97.03h-7.41Zm37.83,0v141.05h28.13v-7.21h-21.03v-133.84h-7.11Zm15.1,0l26.21,166.35c.28,1.97,2.09,3.34,4.03,3.05,1.56-.23,2.77-1.47,3-3.05l26.87-166.35h-7.11l-23.24,143.14-22.58-143.14h-7.19Zm68.25,0v141.19h7.11v-141.19h-7.11Zm37.54.15c-6.32,0-11.43,2.35-14.73,6.08s-4.81,8.58-4.81,13.37c0,12.31,8.22,21.01,15.47,29.22,7.25,8.21,13.7,15.9,13.7,26.44,0,5.79-2.39,9.87-5.4,12.7-3.02,2.82-6.92,4.06-8.51,4.06-3.41,0-11.2-4.31-13.62-6.23l-4.44,5.71c3.41,2.71,10.6,7.73,18.06,7.73,4.27,0,9.08-2.04,13.33-6.01s7.7-10.09,7.7-17.95c0-13.5-8.15-22.96-15.47-31.24-7.32-8.28-13.7-15.44-13.7-24.41,0-3.27,1.02-6.37,2.96-8.56,1.94-2.19,4.83-3.68,9.47-3.68,5.56,0,7.91,1.43,11.32,3.68l3.85-6.01c-3.64-2.4-8.16-4.88-15.18-4.88h0Zm-155.24,14.34l9.77,42.43h-21.54l11.77-42.43h0Z" fill="#fff"/>
    <path id="path3805" d="m32.14,121.84h435.71l-217.44,256.63L32.14,121.84Z" fill="none" stroke="#fff" stroke-linejoin="round" stroke-width="12.06"/>
    <path id="path3827" d="m56.46,147.37h386.74" fill="none" stroke="#fff" stroke-width="8.04"/>
  </g>
</svg>