<?xml version="1.0" encoding="UTF-8"?>
<svg id="Layer_1" data-name="Layer 1" xmlns="http://www.w3.org/2000/svg" width="500" height="500" viewBox="0 0 500 500">
  <rect width="500" height="500" fill="none"/>
  <g>
    <path d="m139.39,289.28c-.13,1.88-.13,3.76,0,5.77v34.91h-24.84c-.27-1.07-.4-119.51,0-121.26,1.07-.27,22.29-.4,23.9,0l1.07,7.79c.4-.4.81-.4.94-.67,4.7-6.98,12.22-11.41,20.68-12.09,10.34-1.61,20.95,1.07,29.27,7.52,4.97,4.16,8.86,9.53,11.28,15.58,2.28,5.37,3.76,11.15,4.43,16.92.54,4.7.81,9.4.54,14.1-.13,9.8-2.82,19.34-7.52,27.8-5.37,9.4-14.64,15.85-25.38,17.59-4.97.94-10.07.94-15.17,0-5.64-.94-10.74-3.76-14.37-8.19-1.34-1.61-2.55-3.22-3.89-4.83l-.81-1.07-.13.13h0Zm42.43-35.72c0-2.28-.27-4.57-.54-6.85-.4-4.03-1.48-8.06-3.22-11.68-2.28-5.24-6.71-9-12.22-10.47-2.55-.54-5.24-.67-7.79-.4-6.04.4-11.55,3.76-14.77,8.86-2.15,3.63-3.36,7.52-3.89,11.68-.81,5.1-.81,10.34-.27,15.58.27,3.36,1.07,6.71,2.42,9.94,2.01,5.77,6.85,10.21,12.76,11.68,2.42.54,4.83.81,7.39.81,4.57,0,8.86-1.75,12.09-4.97,2.15-2.15,3.76-4.7,4.83-7.39,2.15-5.37,3.22-11.01,3.22-16.79Zm271.79,49.15h-22.96c-1.21-3.36-1.48-6.85-2.82-10.34-.4.27-.81.4-.94.54-4.43,5.64-10.88,9.53-17.99,10.61-4.83,1.21-9.8,1.48-14.77.94-7.79-.81-15.04-4.3-20.55-9.94-4.43-4.57-6.98-10.47-7.39-16.92-.27-3.49,0-6.98.81-10.34,1.61-6.71,5.91-12.49,12.09-15.85,4.16-2.42,8.73-4.03,13.43-4.97,3.09-.54,6.31-.94,9.4-1.48l10.74-1.61,7.79-1.34c.81-.13,1.48-.4,2.28-.67,3.76-1.07,5.91-4.83,4.83-8.59-.4-3.22-2.42-5.91-5.37-7.12-1.88-.94-3.89-1.48-6.04-1.75-4.03-.67-8.19-.67-12.22,0-4.57.67-8.33,3.89-9.8,8.19-.54,1.34-.94,2.82-1.48,4.3h-23.1v-1.61c.4-3.89,1.34-7.79,2.82-11.41,2.82-7.25,8.86-12.76,16.25-15.04,4.16-1.34,8.33-2.15,12.62-2.42,5.64-.4,11.28-.4,16.92,0,6.04.4,11.95,1.75,17.46,3.89,3.89,1.61,7.52,4.03,10.21,7.25,2.69,3.09,4.3,6.85,4.7,10.88.13,1.61.27,3.22.27,4.7v50.63c0,3.22,0,6.45.27,9.67.13,2.82.81,5.51,2.01,8.06.27.81.4,1.34.54,1.75h0Zm-26.05-47.13l-1.75.4c-4.43,1.07-8.86,2.15-13.29,3.09-4.57.94-9,2.28-13.16,4.16-2.55,1.07-4.7,2.69-6.71,4.7-4.03,4.57-3.49,11.41.94,15.31.54.54,1.21.94,2.01,1.34,1.88.94,4.03,1.61,6.18,1.61,3.76.13,7.39-.4,11.01-1.48,4.57-1.21,8.59-3.76,11.68-7.25,1.88-2.01,3.09-4.7,3.09-7.52,0-4.43,0-8.86.27-13.29-.13-.27-.27-.67-.27-1.07h0Zm-317.72,47.13h-22.96c-1.21-3.36-1.48-6.85-2.82-10.34-.4.13-.67.4-1.07.81-3.89,4.97-9.4,8.46-15.58,9.94-5.64,1.75-11.41,2.28-17.32,1.48-8.33-.81-15.98-4.7-21.49-11.01-4.03-4.57-6.18-10.47-6.31-16.52-.27-3.63.13-7.12,1.07-10.61,1.75-6.45,6.04-11.95,12.09-15.04,4.16-2.28,8.59-3.89,13.29-4.7,3.89-.67,7.79-1.21,11.68-1.75s8.46-1.34,12.62-2.01c1.88-.27,3.76-.67,5.64-1.21.94-.27,1.88-.81,2.82-1.34,1.48-.94,2.42-2.55,2.55-4.16.81-4.16-1.34-8.33-5.24-10.21-2.01-.94-4.03-1.61-6.18-1.88-4.03-.67-8.19-.67-12.35,0-4.3.67-7.92,3.63-9.4,7.65-.67,1.48-1.07,3.09-1.75,4.83h-23.37v-1.34c.4-4.3,1.48-8.46,3.09-12.35,2.82-6.85,8.59-12.09,15.58-14.37,4.16-1.34,8.59-2.15,13.03-2.42,5.64-.4,11.28-.4,16.79,0,6.71.4,13.29,1.88,19.47,4.7,2.69,1.21,4.97,2.82,7.12,4.83,3.89,3.89,6.18,9.13,6.31,14.64v57.88c-.13,2.82.13,5.77.81,8.59.4,1.48.94,2.82,1.34,4.16.13.67.4,1.07.54,1.75h0Zm-25.92-47.13l-2.01.4c-4.3,1.07-8.73,2.15-13.16,3.09-4.43.81-8.86,2.15-13.03,3.89-2.42,1.21-4.7,2.69-6.58,4.7-4.16,4.43-3.89,11.28.54,15.31.54.54,1.21.94,1.75,1.34,2.01,1.21,4.3,1.75,6.71,1.88,2.95.13,5.91-.27,8.86-.94,4.57-.94,8.73-3.22,12.22-6.31,2.69-2.28,4.3-5.37,4.57-8.86,0-3.49.27-7.12.4-10.61-.13-1.21-.27-2.42-.27-3.89h0Zm242.11-84.46v131.46c-1.07.27-20.55.4-22.69,0v-131.46c1.07-.27,20.68-.27,22.69,0Zm-89.97,131.6h-24.17v-93.46c1.07-.27,20.28-.4,22.83,0l1.88,11.28c.27-.27.54-.67.67-.94.54-1.07,1.07-2.15,1.75-3.09,3.09-5.1,8.46-8.59,14.5-9.13,2.28-.27,4.7-.27,7.12-.27.81.13,1.48.27,2.28.54v23.77c-1.21,0-2.42-.27-3.63-.27-4.97,0-9.94,1.88-13.56,5.37-4.03,3.76-6.85,8.46-8.46,13.7-.94,3.22-1.48,6.45-1.34,9.8v42.7h.13Zm59.09,0h-23.37v-93.86h23.37c.27.94.4,91.98,0,93.86Zm63.11,0h-23.37v-93.86h23.1c.54.94.67,91.72.27,93.86h0Zm-24.17-109.58v-22.16h23.37v22.02c-1.21.4-21.22.4-23.37.13Zm-61.77-22.16h23.1c.4,1.07.4,18.4,0,22.02h-23.1c-.27-.81-.27-20.28,0-22.02Zm205.45,12.49c0,7.39-6.04,13.29-13.43,13.29s-13.29-6.04-13.29-13.43,6.04-13.29,13.29-13.29,13.43,5.91,13.43,13.43Zm-1.75,0c0-6.45-5.24-11.68-11.68-11.68s-11.68,5.24-11.68,11.68,5.24,11.68,11.68,11.68c6.31.13,11.55-4.83,11.68-11.28v-.4Z"/>
    <path d="m468.39,183.87c3.22,1.21,2.82,3.89,2.82,6.58h-2.01c0-.4,0-.94-.13-1.34v-1.75c-.13-1.21-1.07-2.15-2.28-2.28-1.21,0-2.55,0-3.89-.27v5.77h-2.28c-.4-4.83-.4-9.67,0-14.5,2.69-.13,5.51,0,8.19.4,1.61.27,2.82,1.75,2.82,3.36.4,1.61-.54,3.36-2.15,3.89,0,0-1.07.13-1.07.13Zm-5.77-.81h3.49c.54-.13,1.21-.27,1.75-.54.81-.4,1.21-1.34,1.07-2.28.13-.81-.4-1.75-1.21-2.01-1.61-.54-3.36-.67-5.1-.4,0,0,0,5.24,0,5.24Z"/>
  </g>
</svg>