<?xml version="1.0" encoding="UTF-8"?>
<svg id="Layer_1" data-name="Layer 1" xmlns="http://www.w3.org/2000/svg" width="500" height="500" viewBox="0 0 500 500">
  <rect width="500" height="500" fill="none"/>
  <g>
    <path d="m252.71,30.81l146.7,375.66c39.44-39.8,63.95-95.19,63.95-156.46-.03-120.17-94.1-217.67-210.66-219.19Z"/>
    <path d="m250,30.74c-117.85,0-213.37,98.17-213.37,219.26,0,63.09,25.97,119.9,67.46,159.94L252.45,30.81c-.83,0-1.62-.07-2.45-.07Z"/>
    <path d="m249.8,406.33c-22.53,0-41.16-17.2-44.53-39.67l-19.22,92.57c20.18,6.52,41.65,10.02,63.95,10.02s43.01-3.41,62.9-9.69l-18.73-91.78c-3.8,21.9-22.2,38.54-44.33,38.54h-.03Z"/>
    <path d="m249.8,312.5c15.48,0,29.12,8.11,37.25,20.45l-37.06-181.54-37.85,182.2c8.07-12.7,21.9-21.11,37.65-21.11Z"/>
  </g>
</svg>