<?xml version="1.0" encoding="UTF-8"?>
<svg id="Layer_1" data-name="Layer 1" xmlns="http://www.w3.org/2000/svg" width="500" height="500" viewBox="0 0 500 500">
  <rect width="500" height="500" fill="none"/>
  <g>
    <path d="m94,177.18l48.73,124.79c13.1-13.22,21.25-31.62,21.25-51.98-.01-39.92-31.26-72.31-69.98-72.82Z"/>
    <path d="m93.1,177.16c-39.15,0-70.88,32.61-70.88,72.84,0,20.96,8.63,39.83,22.41,53.13l49.28-125.95c-.27,0-.54-.02-.81-.02Z"/>
    <path d="m93.03,301.93c-7.49,0-13.67-5.72-14.79-13.18l-6.39,30.75c6.7,2.17,13.84,3.33,21.25,3.33s14.29-1.13,20.89-3.22l-6.22-30.49c-1.26,7.28-7.38,12.8-14.73,12.8h-.01Z"/>
    <path d="m93.03,270.76c5.14,0,9.67,2.69,12.38,6.79l-12.31-60.31-12.57,60.53c2.68-4.22,7.28-7.01,12.51-7.01Z"/>
    <path d="m324.14,239.7c2.19-10.29-1.1-24.73-12.91-27.36-14.22-2.63-28.68-1.1-43.12-1.1.22,25.83,0,51.85.23,77.67.03.03,13.1.03,13.56.03.22-10.51.22-21.23,0-31.74,3.73.44,7.66.22,11.17,1.53,9.63,7.88,21.22,29.96,21.23,29.98-.03.02,15-.08,14.99-.04-5.25-11.83-11.71-22.72-20.03-32.79,6.35-3.93,13.79-8.32,14.88-16.19h-.01Zm-19.92,3.72c-7.22,1.53-14.44.87-21.67,1.1-.22-6.56-.22-13.35-.22-19.92,6.78,0,13.57-.44,20.36.44,9.63,0,10.07,16.42,1.53,18.39h.01Z"/>
    <path d="m218.04,211.03c-8.1,25.83-18.06,51.92-25.72,77.97,4.81,0,8.76.14,14.27.18,2.19-5.69,4.15-11.39,6.35-16.85,8.76-.22,17.73,0,26.49,0,2.19,5.69,4.04,11.18,6.23,16.87-.03.03,14.48-.04,14.48-.04-8.1-26.27-17.61-52.31-26.8-78.14,0,0-15.29.03-15.29,0h-.01Zm-.95,47.5c2.41-9.19,5.25-18.17,8.32-27.14,3.73,8.76,6.78,17.95,9.41,27.14h-17.73Z"/>
    <polygon points="378.26 255.17 414.24 255.17 414.24 241.83 378.26 241.83 378.26 224.67 416.25 224.67 416.25 210.97 364.56 210.97 364.56 288.6 378.26 288.6 378.26 288.58 417.35 288.58 417.35 276.36 378.26 276.36 378.26 255.17"/>
    <polygon points="443.43 275.82 443.43 211.48 429 211.48 429 275.82 428.84 275.82 428.84 288.78 429 288.78 443.43 288.78 477.79 288.78 477.79 275.82 443.43 275.82"/>
    <rect x="337.64" y="211.19" width="14.13" height="77.38"/>
  </g>
</svg>