<?xml version="1.0" encoding="UTF-8"?>
<svg id="Layer_1" data-name="Layer 1" xmlns="http://www.w3.org/2000/svg" width="500" height="500" viewBox="0 0 500 500">
  <rect width="500" height="500" fill="none"/>
  <path d="m473.31,206.23l-4.24,7.15c-1.19,2.78-4.24,2.38-4.24,2.38h-104.39c4.05-7,5.85-11.66,5.85-11.66l106.22-.27c2.38,0,.8,2.38.8,2.38h0Zm-18.54,21.72s-.53.8-2.38.53l-96.93-4.75c1.02-1.51,1.96-2.96,2.82-4.35l101.78.1-5.3,8.48Zm-11.26,9.53c-.93,2.38-2.65,2.51-2.65,2.51l-91.09-8.46c1.12-1.42,2.17-2.83,3.17-4.21l93.35,4.33-2.78,5.82h0Zm-40.49,12.95l-58-13.17c.77-.89,1.53-1.77,2.25-2.64l83.53,8.15-27.78,7.66h0Zm-25.81,7.12l-36.5-15.6c.63-.66,1.25-1.31,1.85-1.97l53.42,12.39-18.78,5.17h0Zm-18.46,5.09l-23.93-14.94c1.1-1,2.16-2.01,3.19-3.02l33.88,14.34s-13.14,3.62-13.14,3.62Zm-6.61,10.34l-24.94-18.85c1.71-1.33,3.35-2.68,4.94-4.06l24.36,15.34-4.35,7.56h0Zm-2.33,3.12c-.5.35-.86.45-.86.45l-11.88,3.07-17.81-19.77c1.8-1.19,3.53-2.41,5.21-3.64l25.64,19.66-.31.24h0Zm-27.45,7.31l-12.11-18.15c2.11-1.15,4.15-2.33,6.12-3.56l17.22,18.81-11.23,2.9h0Zm-15.25,3.94l-7.43-17c2.54-1.07,5-2.21,7.36-3.42l11.85,17.37-11.79,3.04h0Zm-16.02,4.13l-3.07-16.89c2.95-.91,5.82-1.91,8.58-2.99l7.32,16.57-12.85,3.31h0Zm-16.05,4.14l-.11-17.75c3.42-.67,6.72-1.45,9.92-2.34l3.07,16.78s-12.88,3.32-12.88,3.32Zm-9.28-19.25l-2.45-32.33h6.35l6.07,30.61c-3.61.77-6.96,1.33-9.97,1.72h0Zm-10.32,3.85c5.69-.28,11.1-.89,16.28-1.77l.02,15.58s-16.3-13.81-16.3-13.81Zm-3.72-2.95l-.03-33.23h8.25l2.65,32.7c-4.99.51-8.77.56-10.86.54h0Zm74.16-33.23h8.16c-1.61,1.53-3.24,2.99-4.87,4.38l-3.29-4.38Zm-10.62,0h6.46l4.82,6.57c-1.59,1.29-3.2,2.51-4.8,3.67l-6.48-10.24h0Zm-9.84,0h5.66l8,12.11c-1.88,1.28-3.75,2.49-5.62,3.62l-8.04-15.73h0Zm-10.73,0h6.75l9.14,17.4c-2.22,1.25-4.43,2.41-6.61,3.48l-9.28-20.88h0Zm-5.5,26.89c-3.44,1.14-6.76,2.07-9.92,2.82l-6.13-29.72h6.75l9.3,26.89h0Zm-5.62-26.89h7.65l9.86,22.25c-2.99,1.36-5.93,2.55-8.8,3.6l-8.7-25.85h0Zm-120.19-3.38v-21.46h172.24v21.46h-172.24Zm73.73,35.78l2.85-32.4h8.25l.07,33.14c-3.84-.11-7.56-.36-11.16-.74Zm-9.23,17.6l.02-15.58c5.17.88,10.59,1.48,16.27,1.77l-16.3,13.81h0Zm-3.99-19.64l6.25-30.35h6.45l-2.64,32.03c-3.47-.44-6.82-1-10.06-1.67h0Zm.68,21.23l-12.88-3.32,3.08-16.78c3.2.89,6.5,1.68,9.92,2.34l-.11,17.75h0Zm-16.05-4.14l-12.85-3.31,7.32-16.57c2.77,1.08,5.62,2.08,8.58,2.99l-3.07,16.89h0Zm-27.81-7.18l11.85-17.37c2.38,1.2,4.82,2.34,7.36,3.42l-7.43,17-11.79-3.04h0Zm-14.68-3.79l17.22-18.81c1.97,1.22,4.01,2.41,6.12,3.56l-12.11,18.15-11.23-2.9h0Zm-15.36-3.96s-.37-.1-.86-.45l-.31-.24,25.63-19.66c1.68,1.24,3.42,2.46,5.21,3.64l-17.81,19.77-11.87-3.07h0Zm20.11-28.17c-3.12-2.58-5.01-4.34-5.01-4.34h8.25s-3.24,4.34-3.24,4.34Zm7.32,5.68c-1.72-1.25-3.31-2.47-4.73-3.6l5.02-6.41h6.26l-6.54,10.01h0Zm8.39,5.65c-1.99-1.22-3.91-2.49-5.72-3.75l8.05-11.91h5.66l-7.99,15.66h0Zm9.18,5c-2.09-.98-4.17-2.07-6.2-3.22l8.88-17.43h6.16l-8.84,20.66h0Zm24.24-20.66h6.75l-5.97,29.65c-3.56-.83-6.99-1.78-10.28-2.86l9.49-26.8h0Zm-12.52,25.78c-3.07-1.08-6.01-2.26-8.84-3.51l9.54-22.26h8.14l-8.85,25.78h0Zm-64.26-4.39l24.36-15.34c1.58,1.37,3.23,2.73,4.94,4.06l-24.94,18.85-4.35-7.56h0Zm-15.38-6.4l33.88-14.34c1.03,1.01,2.09,2.02,3.19,3.02l-23.93,14.94-13.14-3.62h0Zm-24.1-6.65l53.43-12.39c.6.66,1.23,1.31,1.85,1.97l-36.5,15.6-18.78-5.17h0Zm-34.81-9.6l83.53-8.15c.72.88,1.48,1.76,2.25,2.64l-58.01,13.17-27.77-7.66h0Zm-12.72-5.3l-2.78-5.82,93.35-4.33c.99,1.37,2.05,2.78,3.17,4.21l-91.1,8.46s-1.72-.13-2.65-2.51h0Zm-8.88-9.01c-1.85.27-2.38-.53-2.38-.53l-5.3-8.48,101.78-.1c.87,1.39,1.81,2.84,2.82,4.35,0,0-96.93,4.75-96.93,4.75Zm-12.45-12.72s-3.05.4-4.24-2.38l-4.24-7.17s-1.59-2.38.8-2.38l106.22.27s1.8,4.65,5.85,11.65H34.79v.02Zm125.57,18.24l.06,5.28c-1.6-1.68-3.11-3.36-4.52-5.01l4.47-.27h0Zm-12.76-10.54c-.97-1.42-1.87-2.79-2.7-4.11h15.3l.04,3.82-12.65.28h0Zm12.67,3.1l.04,4.17-6.97.47c-1.13-1.41-2.2-2.79-3.2-4.15l10.12-.49h0Zm48.27-22.73c17.75,0,16.16,11.92,16.16,11.92l-82.01-.06c-4.13-7.1-5.92-11.86-5.92-11.86h71.79,0Zm130.83,19.34l.04-3.82h15.31c-.83,1.32-1.72,2.69-2.7,4.11l-12.65-.28h0Zm4.36,11.09c-1.42,1.66-2.92,3.34-4.52,5.01l.05-5.28,4.47.27h0Zm-4.43-3.54l.04-4.17,10.13.49c-1,1.36-2.07,2.75-3.2,4.15l-6.97-.47h0Zm-48.23-26.89h71.78s-1.8,4.77-5.92,11.86l-82.02.06s-1.59-11.92,16.16-11.92h0Zm181.56-3.17h-182.24c-19.6,0-18.54,15.1-18.54,15.1h-43.7s1.07-15.1-18.54-15.1H27.38s-8.48,0-3.71,7.68l4.24,7.15s2.12,3.97,6.62,3.97h1.33l6.62,10.33s1.85,2.91,4.77,2.38l2.38-.26,3.7,7.68s1.59,2.65,3.71,3.18l82.64,23.31,4.77,9.01s2.12,4.24,6.09,5.04l74.16,19.08s1.59.53,3.44-.8l20.79-18.03,1.59.04,21.32,17.99c1.85,1.33,3.44.8,3.44.8l74.17-19.08c3.97-.8,6.09-5.04,6.09-5.04l4.77-9.01,82.63-23.31c2.12-.53,3.71-3.18,3.71-3.18l3.71-7.68,2.38.26c2.91.53,4.77-2.38,4.77-2.38l6.62-10.33h1.33c4.5,0,6.62-3.97,6.62-3.97l4.24-7.15c4.78-7.68-3.69-7.68-3.69-7.68h0Zm-302.2,30.36l2.44-5.8,2.74,5.8h-5.18Zm3.35-8.85h-.61l-7.01,16.17h1.52l2.44-6.1h5.79l2.44,6.1h2.44s-7.01-16.17-7.01-16.17Zm16.16,14.95c-.91.91-2.44,1.52-3.96,1.52l-2.13-.3-1.52-1.22.3-1.83h.31c.91,1.52,2.13,2.44,3.66,2.44.91,0,1.53-.31,2.13-1.22.61-.61.91-1.53.91-2.44s-.31-1.53-.91-2.13l-2.44-1.22c-1.22-.3-2.13-.91-2.44-1.22-.91-.91-1.22-1.83-1.22-2.75,0-1.53.61-2.44,1.53-3.36.91-.91,1.83-1.22,3.35-1.22s2.44.31,3.36,1.22l-.61,1.83c-.61-1.52-1.53-2.13-3.05-2.13-.92,0-1.52.3-1.83.92-.61.3-.91.91-.91,1.83s.31,1.83.91,2.44l2.75.91c.91.61,1.83,1.22,2.44,1.53.61.61.92,1.52.92,2.75,0,1.53-.61,2.75-1.53,3.66h-.02Zm14.94-14.03l.3.92-4.88-.31v14.64h-2.13v-14.64l-5.18.31.3-.92-.3-.61h12.2l-.3.61h0Zm14.33,11.9c-1.22,1.83-3.05,2.75-5.18,2.75-1.52,0-3.04-.61-4.26-1.83s-1.83-3.05-1.83-5.19.61-3.97,1.52-5.49c1.22-1.52,2.74-2.44,4.88-2.44s3.66.92,4.88,2.44c.91,1.22,1.22,3.05,1.22,5.19.31,1.53-.3,3.05-1.22,4.58h0Zm.91-10.98c-1.52-1.22-3.66-1.83-6.1-1.83s-4.57.61-6.09,2.14-2.44,3.66-2.44,6.1.91,4.58,2.44,6.1,3.66,2.13,6.09,2.13c2.75,0,4.88-.91,6.4-2.44,1.53-1.53,2.44-3.36,2.44-6.1s-.91-4.57-2.74-6.1Zm19.51,14.34h-.91l-10.97-12.51h-.3v12.51h-1.22v-15.87h.92l10.97,11.9v-11.9h1.52v15.86h0Zm12.19-15.86c2.75,5.18,4.88,9.15,6.71,12.2l6.7-12.2h.3l1.83,15.86h-2.13l-1.22-11.9c-2.74,5.19-4.88,9.15-5.79,11.59h-.31l-1.52-2.44-4.58-9.15-.91,11.9h-1.83l2.44-15.86h.31Zm21.65,8.54l2.43-5.8,2.44,5.8h-4.87Zm3.35-8.85h-.61l-7.31,16.17h1.83l2.13-6.1h6.09l2.44,6.1h2.13l-6.71-16.17h0Zm11.28,7.63v-6.41h3.35c1.83.31,2.75,1.22,2.75,3.05l-.91,2.14c-.61.3-1.22.61-2.14.91l-3.05.31h0Zm3.35.61c1.22-.31,2.13-.61,3.05-1.22.92-.91,1.53-1.83,1.53-3.05,0-2.44-1.53-3.66-4.88-3.66h-4.87v15.86h1.83v-7.63h.91l6.1,7.63h2.44l-6.1-7.93h0Zm11.28,7.93v-14.65l-4.88.31v-1.53h11.58v1.53l-4.57-.31v14.64h-2.13Zm11.58-15.86v15.86h-2.14v-15.87h2.14Zm17.99,15.86h-.91l-10.97-12.51h-.31v12.51h-1.22v-15.87h.6l11.28,11.9v-11.9h1.52v15.86h0Z" fill-rule="evenodd"/>
</svg>