<?xml version="1.0" encoding="UTF-8"?>
<svg id="Layer_1" data-name="Layer 1" xmlns="http://www.w3.org/2000/svg" width="500" height="500" viewBox="0 0 500 500">
  <rect width="500" height="500" fill="none"/>
  <g>
    <path id="path28" d="M166.56,236.35h4.99l-2.59-6.64-2.4,6.64ZM161.37,242.79l7.39-17.51h2l7.39,17.51h-3.79l-1.6-4.43h-6.59l-1.8,4.43h-2.99ZM178.73,241.98l-.2-3.22c1.6,1.41,3.39,2.21,5.19,2.21,1,0,1.8-.2,2.4-.6,1-.8,1-2.21.2-3.02-.6-.81-1.8-1.21-4.39-2.42-2.4-1.21-3.59-2.82-3.59-5.03,0-1.41.6-2.62,1.6-3.62,2.2-2.01,5.99-1.21,6.39-1.21.8.2,1.4.4,2,.6l.2,3.02c-.8-.6-1.6-1.01-2.2-1.21-2.4-.81-4.99-.2-4.99,1.81,0,1.01.6,1.61,2,2.42,2.99,1.61,4.59,2.21,5.59,3.62,1.4,1.61,1.4,5.03-.8,6.64-1.2.8-2.59,1.41-4.59,1.41-2.2-.2-3.99-1.01-4.79-1.41h0ZM195.3,242.79v-15.5c-1.4,0-2.99.2-5.19.4l.2-2.62h13.37l.2,2.62c-2.79-.4-4.39-.4-5.19-.4v15.3h-3.39v.2ZM212.67,240.98c2.79,0,5.19-2.21,5.19-7.05,0-.4,0-4.23-2.4-6.24-.8-.6-1.6-.81-2.79-.81-3.59,0-5.19,3.42-5.19,7.05.2,4.83,2.6,7.05,5.19,7.05h0ZM212.67,243.19c-5.19,0-8.78-3.82-8.78-9.06s3.59-9.06,8.78-9.06,8.78,3.62,8.78,9.06-3.59,9.06-8.78,9.06ZM224.24,242.79v-17.51h1.8l10.38,11.88v-11.88h2.4v17.51h-1.8l-10.38-11.88v11.88h-2.4ZM248.2,242.79l2-17.51h1.8l6.19,12.28,5.99-12.28h1.8l2,17.51h-3.59l-1-10.87-4.79,10.06h-1.6l-4.99-10.06-1,10.67h-2.79v.2ZM274.34,236.35h4.99l-2.6-6.64-2.4,6.64ZM269.15,242.79l7.39-17.51h2l7.39,17.51h-3.79l-1.6-4.43h-6.59l-1.8,4.43h-2.99ZM290.51,233.13c.4,0,1,.2,1.4.2,2.79,0,3.59-1.61,3.59-3.02,0-2.21-1.6-3.02-3.59-3.02h-1.2v5.84h-.2ZM287.32,242.79v-17.31c1-.2,2.2-.2,3.99-.2,1.6,0,2.99.2,3.99.6,1.6.6,3.59,1.81,3.59,4.43,0,1.01-.4,2.01-1,3.02-.6.8-1.6,1.41-2.79,1.81l6.19,7.85h-3.99l-5.39-7.45h-1.2v7.45h-3.39v-.2ZM305.28,242.79v-15.5c-1.4,0-2.99.2-5.19.4l.2-2.62h13.37l.2,2.62c-2.79-.4-4.39-.4-5.19-.4v15.3h-3.39v.2ZM316.06,225.28h3.39v17.51h-3.39v-17.51ZM322.85,242.79v-17.51h1.8l10.38,11.88v-11.88h2.4v17.51h-1.8l-10.38-11.88v11.88h-2.4Z"/>
    <path id="path30" d="M461.38,204.74c-1.2-2.01-3.39-3.22-5.99-3.22h-171.06c-2.79,0-7.19,0-11.78,4.63-1.4,1.41-2.4,3.02-2.99,4.23-1.4,2.62-2.4,4.43-7.19,4.43h-24.95c-4.59,0-5.79-1.81-7.19-4.43-.8-1.41-1.6-2.82-2.99-4.23-4.59-4.63-8.98-4.63-11.78-4.63H44.61c-2.79,0-4.99,1.21-5.99,3.22-1.2,2.01-1,4.63.4,6.84l2.99,5.23c1.6,2.82,3.79,3.22,5.39,3.62,1.4.2,2.4.4,3.39,2.42l2.79,4.83c2.2,4.03,4.59,4.43,6.39,4.83,1.4.2,2.79.4,4.59,3.62,1.8,3.22,4.39,8.05,10.98,10.06.6.2,63.67,18.72,63.87,18.72,6.59,2.21,8.38,4.63,10.38,7.65,1.2,1.81,4.59,6.64,12.57,8.86l60.68,16.51c6.59,1.81,10.58-1.41,12.57-3.22l10.98-10.47c1.6-1.41,2.4-2.01,3.39-2.01s1.8.6,3.39,2.01l10.98,10.47c2,1.61,5.99,4.83,12.57,3.22l60.68-16.51c8.18-2.21,11.38-7.05,12.57-8.86,2-3.02,3.79-5.64,10.38-7.65,0,0,63.07-18.52,63.87-18.72,6.39-2.01,9.18-6.84,10.98-10.06,1.8-3.22,2.99-3.42,4.39-3.62,1.8-.4,4.39-.81,6.58-4.83l2.8-4.83c1.2-2.01,2-2.21,3.39-2.42,1.6-.4,3.79-.81,5.39-3.62l2.99-5.23c1.4-2.42,1.6-4.83.4-6.84ZM344.61,218.83v30.19h-189.22v-30.19h189.22ZM276.75,293.51c-4.59,0-6.19-4.03-7.39-7.25-1.4-3.62-8.78-27.38-10.98-33.82h9.38c4.99,8.66,14.17,23.95,18.16,30.39.8,1.21,2.79,4.63,6.39,6.84-14.37,3.82-13.97,3.82-15.57,3.82ZM298.9,287.47c-5.19,0-7.98-4.03-9.58-6.64-3.39-5.43-11.18-18.52-16.97-28.38h10.38c6.59,7.05,20.36,21.74,25.75,27.38.8.81,2.59,2.62,5.19,4.23-12.77,3.22-12.77,3.42-14.77,3.42ZM320.06,281.64c-3.99,0-6.99-2.82-8.98-4.83-4.79-4.83-16.17-16.91-23.15-24.56h11.38c7.19,5.43,23.75,17.71,30.34,22.14,1.2.81,3.59,2.21,6.39,3.22-14.77,4.03-14.37,4.03-15.97,4.03h0ZM346.81,270.36c-1.8,2.82-3.19,4.23-6.39,4.23-2.99,0-5.99-1.41-8.58-3.22-5.39-3.82-17.96-12.88-25.95-18.92h13.57c16.57,8.25,23.55,12.08,28.14,13.49.8.2,1.6.4,2.39.6-1.4,1.01-2.19,2.42-3.19,3.82ZM351.8,262.51c-3.79,0-8.78-2.62-23.95-10.27h14.77l20.76,5.23c1.4.4,2.8.6,3.99,1.01-11.77,3.62-13.57,4.03-15.57,4.03h0ZM392.12,251.24c-12.18,3.62-14.17,4.43-17.56,4.43-2.4,0-5.39-.4-10.38-1.81l-16.37-4.23v-5.84l44.31,7.45ZM404.89,247.62c-3.99,1.01-7.58.6-13.17-.4l-43.52-7.25v-4.63l71.26,8.05-14.57,4.23ZM431.64,234.13c-.6,1.01-1.2,2.01-1.8,2.82-2.4,3.42-3.99,3.22-11.58,2.42l-70.46-8.05v-4.43l81.24,4.83c.6,0,2.2.2,3.99.2-.4.6-1,1.41-1.4,2.21h0ZM445.41,220.65s-1.6,2.62-2.19,4.03c-2.4,3.82-3.59,3.82-10.38,3.22l-84.83-5.03v-3.62h98.4c-.4.6-.6,1.01-1,1.41h0ZM457.59,209.37l-2.19,3.82c-1.6,2.42-2.2,2.42-7.39,2.42h-176.65c1.8-2.21,2.4-4.43,4.39-6.44,3.39-3.42,6.19-3.42,8.78-3.42h171.06c1.2,0,2,.4,2.39,1.01.2.6.2,1.61-.4,2.62ZM232.04,292.51c.8-1.01,1.4-2.42,2.4-4.83,1.4-3.62,9.18-28.38,11.38-35.23h8.58c2.2,7.05,9.98,31.6,11.38,35.23.8,2.42,1.6,3.82,2.4,4.83-.2-.2-.6-.4-.8-.6l-10.98-10.47c-1.8-1.61-3.59-3.22-6.19-3.22s-4.59,1.61-6.19,3.22l-10.98,10.47c-.4.2-.8.4-1,.6h0ZM207.68,289.49c3.59-2.21,5.79-5.64,6.39-6.84,3.99-6.24,13.17-21.74,18.16-30.4h9.38c-2,6.44-9.58,30.19-10.98,33.82-1.2,3.22-2.79,7.25-7.39,7.25-1.6.2-1.2.2-15.57-3.82ZM186.53,283.85c2.59-1.41,4.39-3.22,5.19-4.23,5.39-5.43,19.36-20.33,25.75-27.38h10.38c-5.79,9.86-13.57,22.95-16.97,28.38-1.6,2.62-4.39,6.64-9.58,6.64-2,.2-2.2,0-14.77-3.42h0ZM164.17,277.61c2.79-.81,5.19-2.42,6.39-3.22,6.59-4.43,23.15-16.71,30.34-22.14h11.38c-6.99,7.65-18.36,19.73-23.15,24.56-2,2.01-4.79,4.83-8.98,4.83-1.6,0-1.4,0-15.97-4.03h0ZM150.2,266.34c.8-.2,1.6-.2,2.4-.6,4.79-1.41,11.78-5.03,28.14-13.49h13.57c-8.18,6.04-20.56,15.1-25.95,18.92-2.4,1.81-5.59,3.22-8.58,3.22-3.19,0-4.59-1.41-6.39-4.23-1-1.21-2-2.62-3.19-3.82h0ZM132.83,258.69c1.2-.2,2.59-.6,3.99-1.01l20.76-5.23h14.77c-15.17,7.65-20.16,10.27-23.95,10.27-2.2-.2-3.99-.6-15.57-4.03h0ZM152.19,243.79v5.84l-16.37,4.23c-4.99,1.21-7.98,1.81-10.38,1.81-3.39,0-5.39-.81-17.57-4.43l44.31-7.45ZM80.94,243.39l71.26-8.05v4.63l-43.51,7.25c-5.79,1.01-9.38,1.41-13.17.4l-14.57-4.23ZM66.96,231.92c1.6-.2,3.39-.2,3.99-.2l81.24-4.83v4.43l-70.46,8.05c-7.59.81-9.18,1.01-11.58-2.42-.6-.8-1.2-1.81-1.8-2.82-.4-.81-.8-1.61-1.4-2.21h0ZM53.79,219.44h98.4v3.62l-84.83,5.03c-6.79.4-7.98.6-10.38-3.22-.8-1.41-2.2-4.03-2.2-4.03-.4-.6-.8-1.01-1-1.41ZM42.21,206.76c.4-.6,1.2-1.01,2.4-1.01h171.06c2.59,0,5.59,0,8.78,3.42,2,2.01,2.59,4.23,4.39,6.44H52.19c-5.19,0-5.79,0-7.39-2.42l-2.2-3.82c-.6-1.01-.8-2.01-.4-2.62Z"/>
  </g>
</svg>