<?xml version="1.0" encoding="utf-8"?>
<!-- Generator: Adobe Illustrator 27.6.1, SVG Export Plug-In . SVG Version: 6.00 Build 0)  -->
<svg version="1.1" id="Layer_1" xmlns="http://www.w3.org/2000/svg" xmlns:xlink="http://www.w3.org/1999/xlink" x="0px" y="0px"
	 width="500px" height="500px" viewBox="0 0 500 500" style="enable-background:new 0 0 500 500;" xml:space="preserve">
<style type="text/css">
	.st0{fill:none;}
	.st1{opacity:0.8;}
	.st2{opacity:0.8;enable-background:new    ;}
</style>
<rect class="st0" width="500" height="500"/>
<g id="g32615" transform="translate(0 0)">
	<g id="g2590" transform="translate(80.464 60.212)" class="st1">
		<path id="path2588" d="M271.6,296c0,9-10.3,16.2-22.6,16.2c-12.3,0-22.6-7.4-22.6-16.2s10.3-16.2,22.6-16.2
			C261.3,279.9,271.6,287,271.6,296 M235.1,244.4l18.7,21c-1.6,0-3.2,0-4.8,0c-26.2,0-47.5,10-47.5,31.3c0,17.4,21.3,31.7,47.5,31.7
			s47.5-14.2,47.5-31.7c0-16.8-21.6-38.8-32.6-52.3H235.1z"/>
	</g>
	<g id="g2594" transform="translate(54.928 67.225)" class="st1">
		<path id="path2592" d="M197.3,293.9c0,17.1-28.1,17.1-28.1,0V260h-24.5v36.2c0,35.2,76.2,35.5,76.2,0V260h-23.9v33.9H197.3z"/>
	</g>
	<path id="path2596" class="st2" d="M382.9,327.1h26.2v61h-26.2V327.1z"/>
	<g id="g2600" transform="translate(17.221 60.868)" class="st1">
		<path id="path2598" d="M106.4,298.2l16.2-26.8l16.8,26.8H106.4z M99,245.8l8.4,10.3l-46.8,71.4h28.1l7.8-12.6H150l8.1,12.6h29.4
			l-56.5-81.7H99z"/>
	</g>
	<g id="g2604" transform="translate(0 0)" class="st1">
		<path id="path2602" d="M396.2,262.2c-17.8-0.3-35.2-7.1-48.1-19.4c-13.6,12.9-31.3,19.7-50.1,19.7c-17.8-0.3-34.9-7.1-48.1-19.4
			c-13.6,12.6-31.7,19.7-50.4,19.4c-17.8-0.3-34.9-7.1-47.8-19.4c-2.3,1.9-4.5,3.9-7.1,5.8c-12.3,9-27.5,13.9-43,13.6
			C73.5,262.2,48,245.1,37,218.9c-2.6-0.3-4.8-0.6-7.4-1.3c-3.2-8.7-4.8-18.1-4.5-27.5c0.6-41.7,33.6-75.3,74.9-76.9
			c1.3,1.9,2.6,4.2,3.6,6.1h0.3c18.4,0.6,35.9,7.8,49.1,20.7l-0.6-10c12.9-10.3,29.1-16.2,45.5-16.8c1.3,1.9,2.6,4.2,3.6,6.1
			c18.4,0.6,35.9,7.8,49.1,20.3l-0.6-9.7c12.9-10.7,29.1-16.5,45.9-17.1c1.3,1.9,2.6,4.2,3.6,6.1h0.6c18.4,0.6,35.9,8.1,49.1,21
			l-0.6-10c12.9-10.7,29.1-16.5,45.9-17.1c1,2.3,2.3,4.2,3.6,6.5c38.4,1.9,69.1,24.9,70.7,72.7C469.8,231.2,435.6,262.9,396.2,262.2
			 M398.1,110.1c-18.1-0.3-35.9,5.8-50.4,16.8c-29.1-22.3-69.4-22.3-98.2,0c-28.7-22.3-69.1-22.3-98.2,0
			c-13.6-10.3-30.4-16.2-47.8-16.5c-44.3-0.3-80.8,35.2-81.4,79.8s35.2,81.1,79.8,81.7c18.1,0.3,35.9-5.5,50.1-16.5
			c29.1,22.3,69.1,22,98.2-0.3c13.6,10.7,30.4,16.5,47.8,16.5c18.1,0.3,35.9-5.5,50.4-16.8c35.5,27.1,86.2,20.3,113.1-15.2
			c26.8-35.5,20.3-86.2-15.2-113.1C432.3,116.2,415.5,110.4,398.1,110.1"/>
	</g>
	<g id="g2608" transform="translate(4.091 4.213)" class="st1">
		<path id="path2606" d="M98.1,246.4C65.2,245.8,39,219,39.3,186.3c0.6-32.9,27.5-59.1,60.4-58.8c11.6,0,23.3,3.9,32.9,10.3
			c-22,28.7-22,69.1,0,97.9C122.3,242.5,110.4,246.4,98.1,246.4 M123.3,213.2c-3.2-8.7-4.8-18.1-4.5-27.5
			c0.3-17.1,6.1-33.6,16.8-46.8c3.9,0,8.1-0.3,10.3-0.3c-26.8-25.8-69.4-25.5-95.6,1.3s-25.5,69.4,1.3,95.6c9,8.7,20,14.9,32.3,17.4
			c1-1.3,2.3-2.9,3.2-4.2c3.6,0.6,7.1,1,10.7,1c13.9,0.3,27.5-4.2,38.4-12.6l9.4,0.3c-6.5-6.5-11.6-14.2-15.2-22.6
			C128.1,214.4,125.9,214.1,123.3,213.2"/>
	</g>
	<g id="g2612" transform="translate(34.384 10.75)" class="st1">
		<path id="path2610" d="M117.5,214.2c-14.2-20.3-14.2-47.2,0-67.5c6.8,10,10.7,22.3,10.3,34.6C127.9,193.2,124.3,204.5,117.5,214.2
			 M128.2,161.2c0.6-1.9,1.9-3.9,3.6-5.2c-2.9-8.4-7.8-15.8-14.2-22c-11.6,12.3-18.4,28.4-18.7,45.5c-0.3,12,4.2,30.7,13.2,41.3
			c1.6,2.3,3.6,4.5,5.5,6.5l0.3-8.7c8.7-10.7,13.2-23.6,13.2-37.1C131.4,174.4,130.1,167.6,128.2,161.2"/>
	</g>
	<g id="g2616" transform="translate(64.815 10.752)" class="st1">
		<path id="path2614" d="M185.1,213.8c-13.9-20.3-13.9-46.8,0-66.9c6.8,10,10.3,22,10.3,34.2C195.1,192.8,191.5,204.2,185.1,213.8
			 M195.4,161.2c0.6-1.9,1.9-3.9,3.6-5.2c-2.9-8.4-7.8-15.8-13.9-22c-24.5,26.2-24.5,66.9,0.3,92.7l0.3-8.1
			c7.1-11.6,12.6-22.9,12.9-37.8C198.6,174.4,197.7,167.7,195.4,161.2"/>
	</g>
	<g id="g2620" transform="translate(71.342 4.153)" class="st1">
		<path id="path2618" d="M226.8,246.3c-12,0-23.3-3.9-33.3-10.7c10.3-13.6,16.2-30.4,16.5-47.5c0.3-18.1-5.5-35.5-16.5-49.7
			c10.3-7.4,22.6-11.3,34.9-11c12,0.3,23.3,3.9,32.9,10.7c-22,28.7-22,68.8,0,97.5C251.3,242.4,239.4,246.3,226.8,246.3 M252.6,213
			c-9-25.2-4.5-53.3,12.3-74.6l10,0.3c-12.3-12-29.1-19.1-46.2-19.4c-17.8-0.3-34.9,6.5-47.5,18.4c12.9,13.6,20,31.3,19.7,50.1
			c-0.3,17.8-7.1,34.9-19.4,48.1c8.7,8.4,19.4,13.9,31.3,16.5c1-1.3,2.3-2.9,3.2-4.2c3.6,0.6,7.1,1,10.7,1
			c14.2,0,27.8-4.5,39.1-12.6l8.7-0.3c-6.1-6.5-11.3-13.9-14.5-22C257.4,214.3,254.9,213.7,252.6,213"/>
	</g>
	<g id="g2624" transform="translate(101.749 4.096)" class="st1">
		<path id="path2622" d="M294.6,246.2c-12,0-23.3-3.9-32.9-10.7c10.3-13.6,16.2-30.4,16.5-47.8c0.3-18.1-5.5-35.5-16.5-50.1
			c10-6.8,22.3-10.7,34.6-10.3c32.9,0.6,59.1,27.5,58.8,60.4C354.3,220.3,327.5,246.5,294.6,246.2 M358.8,162.2
			c-5.5-19.1-32.6-43-62.7-43c-17.4-0.3-34.2,6.5-47.2,18.4c12.9,13.6,20,31.7,19.7,50.1c-0.3,18.1-7.1,35.2-19.4,48.1
			c8.7,8.1,19.7,13.9,31.3,16.5c1-1.3,2.3-2.9,3.2-4.2c3.6,0.6,7.1,1,10.7,1c34.6,0.3,63-27.1,63.6-61.7c0-6.8-1-13.6-3.2-20.3
			C355.6,165.4,356.9,163.8,358.8,162.2"/>
	</g>
	<g id="g2628" transform="translate(95.193 10.696)" class="st1">
		<path id="path2626" d="M252.8,213.7c-7.1-10-10.7-22.3-10.3-34.6c0-11.3,3.9-22.6,10.3-32.3c6.8,10,10.7,22,10.3,34.2
			C263.2,192.7,259.6,204,252.8,213.7 M263.5,161.1c0.6-1.9,1.9-3.9,3.6-5.2c-2.9-8.4-7.8-15.8-14.2-22
			c-24.9,26.2-24.5,67.5,0.6,93.3v-8.4c8.4-10.7,12.9-24.2,12.9-37.8C266.4,174.3,265.4,167.5,263.5,161.1"/>
	</g>
	<g id="g2632" transform="translate(41.034 4.19)" class="st1">
		<path id="path2630" d="M158.8,246.4c-11.6,0-23.3-3.9-32.9-10.3c10.7-13.9,16.5-30.4,16.5-47.8c0.3-18.1-5.5-35.9-16.5-50.1
			c20.3-14.2,47.5-13.9,67.5,0c-21.6,28.7-21.6,68.8,0.3,97.5C183.4,242.5,171.4,246.4,158.8,246.4 M184.7,213.1
			c-3.2-8.7-4.8-18.1-4.5-27.5c0.3-17.1,6.1-33.6,16.8-47.2l9.7-0.3c-12.6-11.6-28.7-18.4-46.2-18.7c-17.4-0.3-34.2,6.5-46.8,18.4
			c12.9,13.6,20,31.7,19.7,50.1c-0.3,18.1-7.1,35.5-19.7,48.5c8.7,8.1,19.7,13.9,31.3,16.5c1-1.3,2.3-2.9,3.2-4.2
			c3.6,0.6,7.1,1,10.7,1c12.6,0.3,29.1-4.2,38.8-12.9h9c-6.1-6.5-11.3-13.9-14.5-22.3C189.5,214.4,186.9,213.7,184.7,213.1"/>
	</g>
</g>
</svg>
