<?xml version="1.0" encoding="UTF-8"?>
<svg id="Layer_1" data-name="Layer 1" xmlns="http://www.w3.org/2000/svg" width="500" height="500" viewBox="0 0 500 500">
  <rect width="500" height="500" fill="none"/>
  <g>
    <path d="m446.27,185.47c-14-10.3-30.8-16.1-48.2-16.4-18.1-.3-35.9,5.8-50.4,16.8-29.1-22.3-69.4-22.3-98.2,0-28.7-22.3-69.1-22.3-98.2,0-13.6-10.3-30.4-16.2-47.8-16.5-44.3-.3-80.8,35.2-81.4,79.8-.6,44.6,35.2,81.1,79.8,81.7,18.1.3,35.9-5.5,50.1-16.5,29.1,22.3,69.1,22,98.2-.3,13.6,10.7,30.4,16.5,47.8,16.5,18.1.3,35.9-5.5,50.4-16.8,35.5,27.1,86.2,20.3,113.1-15.2,26.8-35.5,20.3-86.2-15.2-113.1Zm-50.1,135.7c-17.8-.3-35.2-7.1-48.1-19.4-13.6,12.9-31.3,19.7-50.1,19.7-17.8-.3-34.9-7.1-48.1-19.4-13.6,12.6-31.7,19.7-50.4,19.4-17.8-.3-34.9-7.1-47.8-19.4-2.3,1.9-4.5,3.9-7.1,5.8-12.3,9-27.5,13.9-43,13.6-28.1-.3-53.6-17.4-64.6-43.6-2.6-.3-4.8-.6-7.4-1.3-3.2-8.7-4.8-18.1-4.5-27.5.6-41.7,33.6-75.3,74.9-76.9,1.3,1.9,2.6,4.2,3.6,6.1h.3c18.4.6,35.9,7.8,49.1,20.7l-.6-10c12.9-10.3,29.1-16.2,45.5-16.8,1.3,1.9,2.6,4.2,3.6,6.1,18.4.6,35.9,7.8,49.1,20.3l-.6-9.7c12.9-10.7,29.1-16.5,45.9-17.1,1.3,1.9,2.6,4.2,3.6,6.1h.6c18.4.6,35.9,8.1,49.1,21l-.6-10c12.9-10.7,29.1-16.5,45.9-17.1,1,2.3,2.3,4.2,3.6,6.5,38.4,1.9,69.1,24.9,70.7,72.7,1,39.2-33.2,70.9-72.6,70.2Z"/>
    <path d="m127.39,276.38c-3.2-8.7-4.8-18.1-4.5-27.5.3-17.1,6.1-33.6,16.8-46.8,3.9,0,8.1-.3,10.3-.3-26.8-25.8-69.4-25.5-95.6,1.3-26.2,26.8-25.5,69.4,1.3,95.6,9,8.7,20,14.9,32.3,17.4,1-1.3,2.3-2.9,3.2-4.2,3.6.6,7.1,1,10.7,1,13.9.3,27.5-4.2,38.4-12.6l9.4.3c-6.5-6.5-11.6-14.2-15.2-22.6-2.3-.4-4.5-.7-7.1-1.6Zm-25.2,33.2c-32.9-.6-59.1-27.4-58.8-60.1.6-32.9,27.5-59.1,60.4-58.8,11.6,0,23.3,3.9,32.9,10.3-22,28.7-22,69.1,0,97.9-10.3,6.8-22.2,10.7-34.5,10.7Z"/>
    <path d="m162.58,230.92c.6-1.9,1.9-3.9,3.6-5.2-2.9-8.4-7.8-15.8-14.2-22-11.6,12.3-18.4,28.4-18.7,45.5-.3,12,4.2,30.7,13.2,41.3,1.6,2.3,3.6,4.5,5.5,6.5l.3-8.7c8.7-10.7,13.2-23.6,13.2-37.1.3-7.1-1-13.9-2.9-20.3Zm-.4,20.1c.1,11.9-3.5,23.2-10.3,32.9-14.2-20.3-14.2-47.2,0-67.5,6.8,10,10.7,22.3,10.3,34.6Z"/>
    <path d="m260.22,230.92c.6-1.9,1.9-3.9,3.6-5.2-2.9-8.4-7.8-15.8-13.9-22-24.5,26.2-24.5,66.9.3,92.7l.3-8.1c7.1-11.6,12.6-22.9,12.9-37.8,0-6.4-.9-13.1-3.2-19.6Zm-10.3,52.6c-13.9-20.3-13.9-46.8,0-66.9,6.8,10,10.3,22,10.3,34.2-.3,11.7-3.9,23.1-10.3,32.7Z"/>
    <path d="m323.94,276.12c-9-25.2-4.5-53.3,12.3-74.6l10,.3c-12.3-12-29.1-19.1-46.2-19.4-17.8-.3-34.9,6.5-47.5,18.4,12.9,13.6,20,31.3,19.7,50.1-.3,17.8-7.1,34.9-19.4,48.1,8.7,8.4,19.4,13.9,31.3,16.5,1-1.3,2.3-2.9,3.2-4.2,3.6.6,7.1,1,10.7,1,14.2,0,27.8-4.5,39.1-12.6l8.7-.3c-6.1-6.5-11.3-13.9-14.5-22-2.6,0-5.1-.6-7.4-1.3Zm-25.8,33.3c-12,0-23.3-3.9-33.3-10.7,10.3-13.6,16.2-30.4,16.5-47.5.3-18.1-5.5-35.5-16.5-49.7,10.3-7.4,22.6-11.3,34.9-11,12,.3,23.3,3.9,32.9,10.7-22,28.7-22,68.8,0,97.5-10,6.8-21.9,10.7-34.5,10.7Z"/>
    <path d="m460.55,225.26c-5.5-19.1-32.6-43-62.7-43-17.4-.3-34.2,6.5-47.2,18.4,12.9,13.6,20,31.7,19.7,50.1-.3,18.1-7.1,35.2-19.4,48.1,8.7,8.1,19.7,13.9,31.3,16.5,1-1.3,2.3-2.9,3.2-4.2,3.6.6,7.1,1,10.7,1,34.6.3,63-27.1,63.6-61.7,0-6.8-1-13.6-3.2-20.3.8-1.7,2.1-3.3,4-4.9Zm-3.7,25.5c-.8,32.6-27.6,58.8-60.5,58.5-12,0-23.3-3.9-32.9-10.7,10.3-13.6,16.2-30.4,16.5-47.8.3-18.1-5.5-35.5-16.5-50.1,10-6.8,22.3-10.7,34.6-10.3,32.9.6,59.1,27.5,58.8,60.4Z"/>
    <path d="m358.69,230.76c.6-1.9,1.9-3.9,3.6-5.2-2.9-8.4-7.8-15.8-14.2-22-24.9,26.2-24.5,67.5.6,93.3v-8.4c8.4-10.7,12.9-24.2,12.9-37.8,0-6.7-1-13.5-2.9-19.9Zm-.4,19.9c.1,11.7-3.5,23-10.3,32.7-7.1-10-10.7-22.3-10.3-34.6,0-11.3,3.9-22.6,10.3-32.3,6.8,10,10.7,22,10.3,34.2Z"/>
    <path d="m225.73,276.26c-3.2-8.7-4.8-18.1-4.5-27.5.3-17.1,6.1-33.6,16.8-47.2l9.7-.3c-12.6-11.6-28.7-18.4-46.2-18.7-17.4-.3-34.2,6.5-46.8,18.4,12.9,13.6,20,31.7,19.7,50.1-.3,18.1-7.1,35.5-19.7,48.5,8.7,8.1,19.7,13.9,31.3,16.5,1-1.3,2.3-2.9,3.2-4.2,3.6.6,7.1,1,10.7,1,12.6.3,29.1-4.2,38.8-12.9h9c-6.1-6.5-11.3-13.9-14.5-22.3-2.7-.1-5.3-.8-7.5-1.4Zm-25.9,33.3c-11.6,0-23.3-3.9-32.9-10.3,10.7-13.9,16.5-30.4,16.5-47.8.3-18.1-5.5-35.9-16.5-50.1,20.3-14.2,47.5-13.9,67.5,0-21.6,28.7-21.6,68.8.3,97.5-10.3,6.8-22.3,10.7-34.9,10.7Z"/>
  </g>
</svg>