<?xml version="1.0" encoding="UTF-8"?>
<svg id="Layer_1" data-name="Layer 1" xmlns="http://www.w3.org/2000/svg" width="500" height="500" viewBox="0 0 500 500">
  <rect width="500" height="500" fill="none"/>
  <g>
    <path d="m184.52,286.58c-4.31,1.28-7.2-.41-8.68-5.07-1.37-4.3-1.49-9.8-.36-16.48,1.02-6.05,2.56-13.12,4.62-21.2-6.12,15.1-9.8,22.86-11.04,23.26-1.88.6-3.11-.04-3.7-1.93-.48-1.53-.04-3.69,1.33-6.51,4.51-11.16,9.97-24.3,16.37-39.43.7-1.5,1.54-2.42,2.52-2.75,1.78-.57,4.85,1.07,9.22,4.91,2.44,2.09,3.87,3.8,4.29,5.16.31.99.37,2.26.17,3.8-.41,4.29-1.19,10.49-2.36,18.59-.31,1.49-.34,2.69-.05,3.58.4,1.26,1.16,1.5,2.3.75,1.36-1.02,2.82-3.18,4.44-6.46,3.34-6.8,7.2-16.48,11.56-29.04.65-1.99,2.61-4.51,5.92-7.61,3.29-3.08,6.04-4.89,8.23-5.4,3-.76,4.81-.16,5.43,1.8.55,1.7.48,5.08-.17,10.13-1.36,7.84-2.77,16.84-4.26,27-.11,4.28,1.03,6.04,3.44,5.27,1.16-.37,2.34-1.64,3.51-3.8,1.43-2.64,2.83-5.46,4.24-8.48.7-1.52,1.77-2.5,3.18-2.96,1.86-.6,3.08-.05,3.62,1.65.26.81-.12,2.41-1.13,4.81-5.59,13.36-12.11,23.61-19.58,30.74-1.8,1.77-3.63,2.95-5.51,3.54-2.76.88-5.4.5-7.88-1.17-2.14-1.49-3.64-3.57-4.49-6.27-.42-1.34-.6-2.67-.52-3.98.47-4.4,1.27-10.68,2.41-18.86-11.61,26.26-20.65,40.38-27.09,42.35v.04Z"/>
    <path d="m372.56,123.38c1.96.66,3.42,2.46,4.36,5.42,1.43,4.49,1.21,8.89-.68,13.2-1.88,4.31-4.9,7.14-9.1,8.49-2.59.83-4.97.88-7.17.16-2.19-.73-3.79-2.66-4.79-5.82-1.22-3.85-.99-8.13.66-12.82,1.57-4.36,4.39-7.2,8.5-8.52,2.85-.92,5.58-.96,8.22-.12Z"/>
    <path d="m165.49,261.8c-.1.22-.15.41-.16.57.2-.55.26-.78.16-.57Zm.19-37.05c11.57-33.65,28.67-71.08,23.43-72.15-21.58-4.39-71.8,65.44-77.88,81.59-7.77,2.42-16.21,1.77-22.04,1.77-4.38,0-2.23,11.9-2.23,11.9,1.01,5.45,9.97,4.19,17.24,1.33-7.97,18-48.86,67.32-67.44,67.32-1.39,0,.83,29.57-11.25,50.96-18.01,31.87,14.62-20.95,56.73-63.05,11.93-11.93,40.27-56.05,42.81-59.09,5.59-1.67,17.63-5.22,17.91-4.33,0,0-17.35,34.35-11.35,47.84,14.11,31.68,37.44-21.07,38.28-22.55,2.7-4.71-4.79-1.52-4.56-3.89-1.17,3.32-7.05,17.91-9.19,10.09-1.89-6.87.14-20.9,5.46-37.32.29-.88,11.54-2.06,11.83-2.96.24-.71,2.14-7.96,2.37-8.66.35-1.06-10.49,2.29-10.13,1.22h0Zm-17.79,4.39c-7.46,2.4-9.95,2.78-19,4.3,2.56-8.03,26.73-50.67,33.76-55.11,1.64-1.02,3-1.7,4.07-2.05,1.96-.63,3.16-.27,3.58,1.07.4,1.26.1,3.27-.88,6.07-2.49,7.02-20.46,40.88-21.54,45.72h.01Z"/>
    <path d="m445.26,206.08c-9.54-8.65-15.65-23.17-1.65-46.27,4.95-8.16,2.11-15.17,1.43-17.32-.26-.81-.65-1.42-1.17-1.84-3.19-2.32-5.99-3.1-8.4-2.32-1.52.48-3.1,1.69-4.75,3.59-1.65,1.91-3.26,3.8-4.82,5.68-2.46,2.76-5.94,8.07-10.43,15.9-1.9,3.27-3.94,6.92-6.09,10.96,1.52-5.11,1.98-8.57,2.18-10.31,2.06-18.09-10.49-16.06-12.2-14.91-2.08,1.4-4.19,4.03-9.99,18.8-2.91,8.18-11.69,25.62-13.75,29.97-2.31,4.8-3.97,7.35-4.95,7.67-.81.26-1.36-.11-1.68-1.09-.68-2.15-.52-7.53.47-16.16,1.11-9.24.75-14.97.5-17.49-1.67-16.88-12.99-11.42-16.11-6.68-1.06,1.62-2.8,4.39-5.2,10.12-2.09,4.99-16.87,41.14-19.39,44.92-.48.94-1.33,1.84-2.55,2.66-1.21.83-2.08,1.19-2.61,1.07-1.68-.35-2.42-2.23-2.24-5.66.02-1.19,5.2-29.04,6.71-36.01,1.24-.4,2.82-.91,4.74-1.53,1.93-.61,3.18-1.03,3.82-1.23,1.96-.62,3.17-1.31,3.62-2.05l1.31-4.25c.22-.86.26-1.5.11-1.95-.47-1.52-4.46-1.07-11.95,1.33.35-2.29.55-3.38.57-3.31.4-3.1.25-5.71-.44-7.86-.62-1.96-1.84-3.65-3.67-5.05-1.49-.99-3.03-1.99-4.61-2.96-1.94-1.16-3.44-1.57-4.51-1.22-1.16.37-1.98,1.53-2.45,3.46-2.81,11.88-4.36,18.46-4.65,19.73-.31.9-.8,2.14-1.47,3.73-5.89,1.89-9.05,3.85-9.49,5.87-.16,1.04-.14,1.91.1,2.64.71,2.24,2.49,2.91,5.35,1.99-4.66,11.23-15.85,36.09-17.38,37.47-.75-2.32-2.08-4.67-4-7.01-3.21-3.9-4.97-6.07-5.28-6.45-2.24-3.33-3.56-5.63-3.95-6.89-.4-1.26-.26-2.54.4-3.84.67-1.31,2.45-2.03,5.36-2.16.47-.05.93-.15,1.38-.3,1.7-.55,3.07-1.78,4.14-3.69,1.06-1.91,1.29-3.8.71-5.68-1.62-5.08-5.41-6.66-11.37-4.75-3.39,1.09-7.01,3.74-10.89,7.94s-7.14,9.1-9.78,14.68c-6.29,14.25-10.74,24.52-13.38,30.78-1.01,2.19-.56,3.58,1.32,4.16,1.95.56,3.46-.22,4.56-2.35.3-.6,2.71-6.15,7.24-16.7,3.51-8.14,6.32-13.39,8.42-15.75.05,2.95.92,6.92,2.6,11.91,1.96,5.59,3.08,9.58,3.36,11.96-4.84.87-8.11,1.57-9.78,2.11-2.95.94-5.63,2.55-8.06,4.82-2.93,2.82-3.69,6.48-2.26,10.95.86,2.69,2.46,5.13,4.82,7.33,3.8,3.62,9.66,3.01,18.4,1.34,17.67-3.37,31.32-50,32.77-53.97-3.36,15.12-4.46,25.89-3.31,32.33.44,2.64,2,4.75,4.66,6.35,2.96,1.91,6.49,3.02,9.66,1.19,15.27-8.75,33.89-49.88,35.5-54.1-1.84,12.53-2.83,20.04-3.01,22.56-.39,4.66-.06,8.64.99,11.96.51,1.62,1.7,3.05,3.58,4.33,2.36,1.6,4.89,1.98,7.57,1.12,4.02-1.29,9.14-6.64,15.39-16.04,5.81-8.66,14.88-31.64,17.88-38.85-2.29,14.47-3.7,23.62-4.26,27.45,0,.3-.55,2.64-1.6,7.04-.7,2.78-.8,4.95-.31,6.46,1.04,3.32,3.17,4.46,6.39,3.43,2.41-.77,4.85-2.82,7.33-6.14,2.49-3.32,4.31-6.85,5.49-10.58s3.53-9.77,7.07-18.13c3.08-7.31,5.22-12.12,6.4-14.42,1.18-2.31,2.54-3.7,4.05-4.2.62-.2,1.01-.07,1.14.37.14.45.14,1.04-.02,1.79-3.54,19.23,3.33,35.89,6.92,40.78h0c-4.33,1.36-8.55,2.97-12.47,4.84-17.99,8.53-336.31,116.82-287.77,101.65,61.31-19.16,49.04,22.77,59.67,12.13,22.25-22.25,207.27-99.08,243.37-114.98.3-.14.6-.25.91-.37,11.65,8.39,44.05,23.2,44.05,1.62,0-9.41-16.26-11.4-34.31-8.18v.02Zm-182.47,42.75c-.62.2-1.29.26-1.99.2-1.99-.35-3.22-1.33-3.74-2.95-.4-1.26-.02-2.56,1.12-3.92.63-.8,4.04-1.79,10.24-3-.82,5.49-2.7,8.71-5.63,9.67h0Zm204.64-31.69c-.83.05-9.03-1.88-16.92-7.04,12.13.55,20.67,6.8,16.92,7.04Z"/>
  </g>
</svg>