<?xml version="1.0" encoding="utf-8"?>
<!-- Generator: Adobe Illustrator 28.0.0, SVG Export Plug-In . SVG Version: 6.00 Build 0)  -->
<svg version="1.1" id="Layer_1" xmlns="http://www.w3.org/2000/svg" xmlns:xlink="http://www.w3.org/1999/xlink" x="0px" y="0px"
	 width="500px" height="500px" viewBox="0 0 500 500" style="enable-background:new 0 0 500 500;" xml:space="preserve">
<style type="text/css">
	.st0{fill:none;}
</style>
<rect class="st0" width="500" height="500"/>
<g>
	<g>
		<path d="M300.1,247.4c0-21.1-23.1-38.3-51.4-38.3c-28.3,0-51.4,17.2-51.4,38.3c0,21.1,23.1,38.3,51.4,38.3
			C277,285.7,300.1,268.5,300.1,247.4z M243.7,280L243.7,280c-9.2-0.8-19.5-3.7-26.3-9.1c-0.8-0.7-1.7-1.6-2.2-2.4
			c-0.2-0.3-0.1-0.8-0.4-1c0,0,0-0.1,0-0.1c0.5-0.7,0.7-1.5,1.3-2.1c0.4-0.5,2.2-2.1,2.3-2.6c0-0.9,0-1.8,0.1-2.7v-21.3
			c0-1,0-2.1,0-3.1c0-0.8,0.2-1.6,0.1-2.5c-0.1-0.6-0.8-1.1-1.3-1.4c-0.9-0.5-2.7-2.2-3.1-3.2c-0.1-0.3,0-0.7,0.1-1
			c0.2-0.7,0.9-1.1,1.2-1.7c0-0.1,0.1-0.1,0.1-0.2c1-1.2,2.5-2.2,3.7-3.1c5-3.4,10.9-5.8,17.1-7c2.1-0.4,4.3-0.7,6.5-1
			c0.5-0.1,1.2,0.1,1.6-0.2c2.9,0,5.9,0,8.8,0c6.1,0.3,11.8,1.6,16.8,4.1c1.8,0.9,3.7,1.8,5.1,3.4c0.5,0.5,1,0.8,1.5,1.3
			c2,2.2,3.3,4.7,3.8,7.7c0.1,0.5,0.4,1.5,0,2c0,0.7,0.1,1.9-0.3,2.4c0,0.4-0.1,0.8-0.3,1.1c0,0.3-0.1,0.6-0.3,0.8
			c0,1.6-3.1,4.7-4.4,5.8c-0.6,0.5-1.9,1-2.3,1.6c-0.5,0-1.1,0.5-1.5,0.8c0,0.1,0.2,0.1,0.3,0.2c5.4,2.3,10.3,8.3,10.4,14.6
			c0,0.7,0.2,2.1-0.2,2.5c0,0.6,0,1.4-0.3,1.8c0,0.4-0.1,0.9-0.3,1.1c0,0.8-0.5,1.4-0.8,2c-1.6,3.2-4.4,5.6-7.4,7.4
			c-0.9,0.4-1.8,0.9-2.6,1.3c-0.4,0.2-0.8,0.2-1,0.6c-0.5,0-1.5,0.3-1.8,0.6c-0.3,0-0.9,0.1-1.1,0.3c-0.3,0-0.9,0.1-1.1,0.3
			c-0.3,0-0.9,0.1-1.1,0.3c-0.5,0-1.2,0-1.5,0.3c-0.3,0-0.6,0-0.8,0.2c-0.5,0-1.5,0-1.8,0.3c-0.5,0-2.1,0-2.4,0.3
			c-0.6,0-2.9,0-3.2,0.3C251.1,280,247.3,280.3,243.7,280z"/>
		<path d="M477.8,189.2c0,0-5.8-7-6.7-7.1c-2.1-0.4-20.6,2.2-32.6,2.2s-33.6-1.8-42.5-1.8s-36.7,2-49.8,2c-13.1,0-18.2-2-27.8-2
			c-6,0-19.7,0.4-28.2,3.4h0c-13.7-6.7-26.2-8.9-41.1-8.9c-13.4,0-27.5,2.9-40.2,8.4c-13.3-4.6-45.1-1.9-52-1.7
			c-8,0.2-40.9-1.8-48.6-1.8c-7.8,0-23.9,0.2-36,1.1c-18.5,1.3-39.3-0.5-41.8-1.2c-1.2-0.3-2.1,0.4-2.1,0.4c-0.5,0.7-6.1,7-6.1,7
			l0.5,1.8l13.2,6.7l-1.8,8.7l12.8,5.8c0,0,0,7.2,0.7,8.1c0.7,0.9,13.6,4.2,13.6,4.2s1.3,8.4,2.2,9.2c1.5,1.3,15,2.7,15,2.7
			s4.1,7.6,6,8.3c1.8,0.7,16.3,2.9,19,2.2c0,0,1.2,6.3,3.8,7.5c2.7,1.2,18.5,0.7,18.5,0.7s2,6.2,5.1,7.2c2.9,0.9,16.6-2.7,16.6-2.7
			s2,4.6,4,5.4c3,1.2,14.1-2.7,14.1-2.7c5.7,23.4,24.6,40,46.9,48.6l3.1,6.3l7.3-2.8l3.8,5.9l6.7-3.6l4.6,5.5l6-4.4l5.3,4.9l5.3-5.1
			l6,4.4l4.5-5.5l6.7,3.6l3.8-5.8l7.4,2.8l3-6.3c20.7-8,39.8-24.7,46-45.9c1.9,0.9,5.6,2.1,8.6,2.2c0,0,3.5-1.2,4.9-5.6
			c0,0,12,3.8,14.2,3.1c0,0,2-0.1,3.9-6.2c1.2,0.6,2.2,0.3,4.1,0.7c9.3,2,13.4,0.9,13.4,0.9s2.1-0.3,3.8-8.2c0.8,0.1,1.4,0.2,2,0.2
			c0,0,13.9,0.4,16.3-0.8c0,0,2.2-0.6,3-8.4c5.7,0.9,10.9,1.2,15,0.8c0,0,4.7-1.6,6.5-10.8c3.1-0.2,12.4-0.8,13.6-2.2
			c0,0,2.3-1,2.3-9.3c3.6-0.2,9.5-1,11.7-3.3c0,0,2.2-2.6,1.3-8.9c8.6-1.8,11.5-4.6,11.5-4.6c-0.1-3-2.7-8.6-2.7-8.6
			s9.6-3.7,11.9-5.6L477.8,189.2z M215.6,185.4L215.6,185.4c2-1,16.6-5.7,33.8-5.7c19,0,35.4,6.1,36.4,6.9c1.3,1.1,0.1,3-1.4,2.7
			c-1.5-0.3-16.4-6.6-34.8-6.6s-31.3,4.9-32.5,5.6c-1.3,0.8-2.6-0.3-2.6-0.3S213.6,186.3,215.6,185.4z M280.3,198.2
			c0.7,1.3,1.7,2.2,3.7,4.5c4,4.7,9.8,8.7,12.4,13c0.3,0.6,0.9,1.5,0.8,2.2c0,0.6-1,2.1-2.3,1.1c-3.5-2.9-6.7-5.5-10.3-7.7
			c-9.1-5.3-19.6-8.3-30.9-8.8c-12.8-0.5-22.8,1.5-24.7,2.1c-7.9,2.4-14.4,4.6-21.4,10.1c-0.5,0.4-2.5,1.7-3.4,0.5
			c-0.3-0.5-0.1-2,0.2-2.3c3.3-4.5,8.1-6.5,11.9-10.5c1-1,3.8-3.5,3.9-7.1c0.1-3-2.9-2.9-1.5-5.1c0.6-0.9,16.4-5.1,31.1-5.1
			c16.5,0,31,5.2,31.4,6.7C281.6,193.9,277.8,194.1,280.3,198.2L280.3,198.2z M33.9,192.3L33.9,192.3c-0.8-0.3-3-2-2.8-2.4
			c0.4-1.1,2.8-5.2,4.7-5.3c4,0.4,8.9,0.9,13,1.1c0,0,29.4-0.3,30.3-0.4c4.4-0.4,15-0.8,19.5-0.9c2.5,0,6.8-0.2,9.2-0.1
			c8.2,0,15.4,0.7,23.2,1.1c4,0.2,8,0.3,12,0.5c4.1,0.2,8.3,0.5,12.4,0.5c7.4,0,14.4-0.5,21.7-0.8l5.6,0c3.5-0.1,7.3-0.2,10.8,0.1
			c2.2,0.2,4.4,0.2,6.5,0.5c2.9,0.3,7.9,0.9,9.9,1.9c1.9,0.9,3.3,2.2,4.1,3c1.4,1.6,3.5,4,2.4,5.9c-0.5,0.9-1.8,2.3-2.5,3.1
			c-0.9,1.1-8.3,7.2-10.1,9.8c-1.7,2.3-2.1,4.1-3.2,5.9c-1.4,2.3,0.1,4.1-0.4,5.5c-1.5,1.6-2.9,3.3-4.2,5.1
			c-0.3,0.2-0.5,0.2-0.7,0.1c-1.3-0.9-1-2.8-0.7-5.2c0.1-1.9,1.6-5.7,2.2-6.7c1-2,4.4-6.1,4.7-6.8c2.1-6-3.8-9.7-8.4-11.2
			c-1.5-0.5-3-1.1-4.6-1.3c-5.9-1.1-12.1-0.9-18.5-1.1c-4.3-0.1-8.9-0.3-13.4-0.3l-9.5,0c-3-0.2-6.1-0.4-9-1.1
			c-4.9-1.2-9-2.2-13.8-3.3c-4.1-0.9-8.6-1.7-13-2c-3-0.2-8.3-0.5-11.4-0.5c-2.3,0-19.4-0.2-21.9,0.5c-0.9,0.2-0.7,1.8-0.1,2
			c3.3,0.9,15.4,1.2,23.5,0.9c4.7,0.2,10,0.8,14.5,1.5c5.8,0.8,11.2,1.9,16.5,3.6l5.7,1.5c1,0.3,2.2,0.9,0.9,1.8
			c-3.6,0-6.8-0.7-10.4-0.7c-9.1,0-22.1-0.3-31.2-0.3c-0.9-0.1-45-0.5-50.3-0.8C41.1,196.1,35.8,193.3,33.9,192.3z M189.4,241.4
			c-0.8,0.4-2.7-0.7-4.7-1.5c-2.7-1.1,1.3-3.4,2.7-5.4c0.8-1.1,2-4,2.9-4.8c1-0.2,3-1,3.3,0C191.6,233.3,190.2,237.2,189.4,241.4
			L189.4,241.4z M192.7,263.2L192.7,263.2c-0.4,0.7-4.3,2.2-6.5,0.4c-1.2-1.5,1.6-11.8,3-11.7C189.7,255.9,190.9,259.7,192.7,263.2z
			 M144.8,205.8c0.1-0.5,0.4-1,0.8-1.3c1-0.7,2.5-0.7,3.7-0.9c3-0.6,6.1-1,9-1.9c0.9-0.2,1.8,0.2,2.4,0.9c0.6,0.7,1.1,1.6,0.3,2.4
			c-0.7,0.7-1.9,0.9-2.8,1.2c-2.7,0.9-5.2,1.8-8.1,2.5c-1.8,0.3-4.7-0.9-5.1-1.4C144.7,206.8,144.7,206.2,144.8,205.8L144.8,205.8z
			 M144.2,200L144.2,200c-0.9-1-2-3.8-0.2-3.9c2.6-0.1,4.4,0.1,7.2,0.3c3,0.2,7.4-0.5,7.5,1.6c0.1,1.5-6.1,1.5-7.6,1.6
			C148.9,199.8,145.3,201.3,144.2,200z M150.7,212.5L150.7,212.5c0.8-0.9,2.2-1.1,3.3-1.5c2.7-0.9,5.2-2.1,8-2.6
			c1.7-0.3,5.4,2.5,3.5,4.5c-0.6,0.6-1.5,0.7-2.2,1.1c-2.1,1.1-4.1,2.2-6.2,3.3c-0.5,0.2-1.5,0.4-2.2,0.4c-1.3,0-3.1-0.8-3.8-1.6
			c-0.4-0.4-0.6-1.2-0.7-1.7C150.1,213.7,150.2,213,150.7,212.5z M157.7,221.7c0.6-0.8,9-6,10.2-6.1c1.4,0,5.8,1.4,4.6,3.5
			c-0.5,0.8-2.1,1.2-2.9,1.7c-1.4,1.1-2.5,2-3.9,3.1c-0.7,0.5-1.3,1.2-2,1.6c-0.4,0.2-0.8,0.3-1.1,0.4c-1.4,0-3.4,0-4.4-1
			c-0.4-0.4-0.5-0.9-0.7-1.4C157.3,222.9,157.3,222.2,157.7,221.7z M166.5,229.1c0.3-0.8,1.9-2.2,2.5-2.7c1.4-1.1,5-4.8,6.3-4.8
			c2,0,6.2,0.4,4.5,3.4c-0.3,0.6-6.2,5.8-7.1,6.5c-1.2,0.9-4,1.4-4.9,0.7C166.8,231.4,165.9,230.6,166.5,229.1L166.5,229.1z
			 M177.9,231.8L177.9,231.8c0.6-0.6,1.1-1.2,1.7-1.8c0.8-0.8,2-2.4,2.9-2.9c0.9-0.5,4.2,0,4.5,0.7c0.9,1.6-0.4,2.1-1.3,2.9
			c-0.4,0.4-2.1,2.7-2.6,3.5c-0.4,0.7-0.9,1.5-1.5,2c-0.6,0.5-1.3,0.6-2.1,0.9c-0.9,0.3-2.3-0.2-3.1-0.8
			C174.4,235,176.8,233,177.9,231.8z M192.7,217.7L192.7,217.7c-0.8,3.2-0.3,6-1.1,7.9c-0.7,1.1-3.1,0.8-3.7-0.7
			c-0.4-2,3.4-4.9,1.4-6c-2-1-3,2.7-3.9,3.5c-0.4,0.3-0.7,0.6-1.2,0.6c-1.6,0-3-0.8-2-2.5c0.4-0.7,1.1-1.3,1.7-1.9
			c0.7-0.6,1.8-1.6,2.4-2.4c0.5-0.6,0.6-1.6,0.3-2.3c-0.2-0.5-0.9-0.6-1.4-0.8c-2-0.8-5.5,5.1-6.7,5.7c-1.2,0.5-2.7,0.2-3.1-2.4
			c-0.2-1.3,5.7-5.5,6.2-6c0.5-0.5,0.7-1.2,0.5-1.9c-0.3-1.2-1.5-1.4-2.8-1.1c-0.9,0.2-1.6,0.8-2.6,1.8c-2.5,2.8-6.3,6-7.8,2.6
			c-0.2-0.4,0.3-2,0.5-2.3c0.8-1,7.7-4.2,6.2-6.3c-1.7-2.5-5.9,1.3-7.2,1.9c-0.5,0.2-3.2,2.8-4.5-0.1c-1.1-2.2,5.6-3.3,4.3-5.2
			c-1.1-1.6-3.5,1-5.5,0.9c-1.6-0.1-1.8-1.6-1.6-2.6c0.1-0.8,0.8-1,1.6-1c4.1,0,8.2,0.1,12.2,0.3c6,0.3,11.7,0.4,16.9,2.2
			c1.8,0.6,3.7,1.4,5.1,2.7c0.9,0.8,1.7,1.8,1.5,3.1c0,0.1,0,0.2,0,0.2c-0.3,1.2-1.1,2-1.7,3C195.5,210.5,193.4,214.8,192.7,217.7z
			 M53.5,209.9c-1.4-0.3-7-2.9-8.5-3.6c-2.1-1.1-2.7-3-2.6-3.9c0.1-1.2,0.6-1.7,1.6-2.1c1.9,0,78.3,1.1,85.4,1.1
			c0.8,0,11.1-1,12.1-0.6c0.5,0.2,1.3,0.7,1.3,1.2c0.3,1.8-2.8,2.6-4,3.2C138.8,205.3,54.8,210.2,53.5,209.9L53.5,209.9z
			 M59.1,219.8L59.1,219.8c-1.3-0.3-3-0.6-4-1.5c-0.5-0.5-1.1-3.2-0.6-3.6c1-0.9,11-0.8,11.8-0.8c4.1-0.1,51.2-3,53.9-3.2
			c5-0.3,18.9-1.7,20.8-1.9c0.6,0,1.1,0,1.6,0.2c0.6,0.3,3.2,2.3,3.3,3c0,0.3-0.2,0.4-0.4,0.6c-1.3,0-75,9.4-75.3,9.4
			C66.1,222,62.8,220.9,59.1,219.8z M83.5,233.8L83.5,233.8c-3.3,0-11.8-1.7-12.8-2.5c-0.8-0.6-1.2-1.8-1.7-2.7c-1-2,0.4-3.3,8-2.9
			c4.2-0.3,8.2-0.8,12.3-1.3c6.3-0.7,31.9-4.5,38.4-5.7c4.1-0.7,8.2-1.4,12.3-2.2c1.9-0.3,6.3-1.6,7-0.7c0.8,1.1,1.4,3.1,0.7,3.6
			c-0.9,0.6-35.4,9.9-39.9,11C105.1,231.1,87.5,233.9,83.5,233.8z M88.6,241.9L88.6,241.9c-0.5-0.7-2.2-3.5-1.7-4.1
			c0.9-0.8,3.7-0.6,5-0.8c4.3-0.6,8.5-1.2,12.6-2.1c14.3-3.1,44.6-12.4,45.9-13c0.5-0.1,1-0.3,1.5-0.4c1.2,0,2.4,0.2,2.7,1.4
			c0.1,0.5,0.3,3.1-0.5,4.2c-0.8,1-40.1,14.8-42.7,15.5C104.7,244.4,89.9,243.8,88.6,241.9z M129.8,250.9L129.8,250.9
			c-4.1,1.8-10.2,0.8-13.4,0.6c-1.3-0.1-2.7,0-3.8-0.4c-0.7-0.3-1.3-0.8-2-1.3c-0.5-0.4-1.1-1-1-1.7c0-0.4,0.4-0.7,0.7-0.9
			c1.2-0.7,2.9-0.9,4.2-1.3c2.2-0.6,4.4-1.3,6.6-2c8.2-2.7,16.5-5.6,24.3-8.9c2.8-1.2,9.9-5.3,11.8-5.3c2.2,0,6.2-0.1,6.4,2.4
			c0.1,1.6-8.5,5.6-10.4,6.7C149.2,241,133.5,249.3,129.8,250.9z M150.2,255.3c-4.2,2.5-14,3.5-15.8,3.1c-1.2-0.3-3.6-2.2-2.8-3.5
			c0.5-0.8,32.8-18.5,34.2-18.9c1.3-0.4,6.3,0.2,6.9,1.3c0.5,1-4.1,3.4-5.5,4.6C166,242.8,151.4,254.3,150.2,255.3z M156.5,261.4
			L156.5,261.4c-1.3,0-4.8-0.5-4-2.6c0.5-1.1,2.9-2.6,4-3.4c12.3-8.6,17.4-15,18.3-14.9c1,0.2,2.4,0.4,3.4,0.6
			c1.3,0.2,3.6-0.6,4.3,0.5c0.1,0.1-0.1,1.5-0.3,1.8c-0.4,0.6-14.2,14.5-15.6,15.3C163.5,260.5,156.8,261.3,156.5,261.4z
			 M170.2,261.5c0-1.7,11.5-12.9,12.6-14.7c1.5-2.1,3.5-3.9,5.4-3.6c0.4,0,0.7,0.2,0.9,0.4c-0.1,1.2-0.2,2.5-0.2,3.7l0,0.6l-0.1,0.1
			c-0.5,1.9-0.7,1.5-2,3.9c-1.9,3.7-4,9-5.3,9.6c-1.8,0.8-4.6,0.7-6.6,1.2C172.2,263.6,170.2,262.9,170.2,261.5z M212.2,305.8
			L212.2,305.8c-1.5,0.2-8.1-3.3-9.4-3.9c-8-4.1-15.4-10.5-21.5-17.7c-1.6-1.9-2.9-4-4.3-6c-1.6-2.3-5.2-8.2-5.5-9.1
			c-0.1-0.5-0.3-1.5,0.2-1.7c0.5-0.3,1,0,1.3,0.6c0.6,1,3.2,6,5,8.8c2,2.9,3.5,5.4,5.7,7.9c4.9,5.3,10.1,9.7,15.8,13.4
			c2.4,1.6,5,3.1,7.6,4.3c1.5,0.7,3,1.4,4.5,2.1c0.3,0.2,0.6,0.4,0.7,0.8C212.6,305.4,212.5,305.7,212.2,305.8z M213.9,300.8
			L213.9,300.8c-1.2,0.4-5.6-2.5-7.3-3.3c-8.5-4.6-16.6-10.8-22.8-18.8c-2-2.5-7.5-9-7.5-11.7c0-1.9,6.2-2.6,7.2-2.5
			c1.7,0.2,2.2,2.4,4.2,2.9c1.2,0.3,2.7-0.4,3.7-0.9c0.6-0.4,1.5-1.1,2.4-1c5.7,10,15.9,18.1,28.8,22.8c0,0,0.1,0.1,0.1,0.2
			c0.1,0.5,0,0.9-0.2,1.1C221.7,290.2,215.2,300.5,213.9,300.8z M220.9,309.4L220.9,309.4c-0.8,0.8-2.8,1.4-4,0.7
			c-1-0.5-1.9-3.2-1.7-4.1c0.2-1.2,1.1-2.3,1.8-3.4c2-3.4,7-11.5,7.6-12.3c0.2-0.3,0.6-0.8,1.1-1c0.9,0.3,1.9,0.6,2.9,0.8
			c0.4,0.8,0.2,1.7,0.2,2.2c-0.2,1.2-4.2,9.8-5.6,13.2C222.5,306.7,221.7,308.4,220.9,309.4z M232.6,307.9c-0.3,1.2-0.8,3-1.6,4.1
			c-0.7,0.9-2.5,1.8-3.8,1.3c-1.1-0.4-2.4-2.8-2.3-3.8c0-1.2,0.7-2.4,1.2-3.6c1.5-3.7,5.1-12.5,5.5-13.4c0.2-0.5,0.7-1,1.3-1.4
			c0.8,0.2,1.7,0.3,2.6,0.5c0.6,0.7,0.6,1.7,0.6,2.3C236.1,295.1,233.5,304.2,232.6,307.9z M242.4,308.8L242.4,308.8
			c-0.1,1.2-0.3,3.1-0.8,4.3c-0.5,1-2.2,2.2-3.5,2c-1.1-0.2-2.8-2.4-2.9-3.3c-0.2-1.2,0.3-2.5,0.5-3.8c0.8-3.9,2.9-13.2,3.1-14.1
			c0.1-0.5,0.5-1.1,1-1.6c1,0.1,1.9,0.2,2.9,0.3c0.5,0.6,0.6,1.4,0.7,1.9C243.7,295.6,242.6,305,242.4,308.8z M191.8,247.4
			c0-24.1,25.5-43.8,56.9-43.8c31.4,0,56.9,19.6,56.9,43.8c0,24.1-25.5,43.8-56.9,43.8C217.3,291.2,191.8,271.6,191.8,247.4z
			 M345.5,202.8L345.5,202.8c3.1,0.6,5.3,1.2,5.8,1.5c1.1,0.6,1.3,1.6,0.8,3c-0.4,1.2-1.7,1.6-3.3,1.4c-2-0.2-3.4-0.4-5.2-0.9
			c-1.5-0.4-3-0.8-4.5-1.2c-0.9-0.2-2.1-0.4-2.8-1c-0.7-0.6-0.6-1.7-0.3-2.5c0.4-1,1.3-1.6,2.2-1.5
			C339.3,201.7,342.4,202.2,345.5,202.8z M339,197.3L339,197.3c0.2-2.1,5.6-1.7,8.6-1.9c2.9-0.2,3.9-0.5,6.4-0.4
			c1.8,0.1,0.7,4.3-0.3,5.2c-0.8,0.7-5.1-0.8-7.3-1C344.9,199,338.8,199.4,339,197.3z M342.2,211.4L342.2,211.4
			c1.4,0.5,4.6,1.6,5.1,2.4c0.3,0.4,0.6,1.1,0.2,1.7c-1.2,2.3-2.3,1.9-4.7,2c-2,0-2.9-0.9-4.5-1.7c-0.9-0.4-1.7-0.8-2.6-1.2
			c-0.8-0.3-0.7-0.4-1.5-0.8c-0.6-0.2-2.1-0.7-2.5-1.2c-1.2-1.3,1.5-2.8,2.7-3.1C335.2,209.2,339.5,210.5,342.2,211.4z M321.5,236.9
			c-1.4,0.7-3.3-0.1-4.6-0.8c-1.8-1-2.9-3.5-4.3-4.9c-0.6-0.6-2.3-1.9-2.3-2.2c-0.2-1.4,1-1.9,2.1-2.1c1.1,0,2.3-0.1,3.2,0.3
			c0.9,0.4,1.6,1.5,2.4,2.2c1.5,1.5,3.3,2.8,4.6,4.5C322.8,234.3,323.3,236,321.5,236.9L321.5,236.9z M310.8,253.8L310.8,253.8
			c-0.4-0.8-2-3.1-2.3-4c0-0.1-0.1-0.2-0.1-0.4c0-0.7,0.1-1.3,0.1-2c0-0.9,0-1.8-0.1-2.7c0.1-0.3,0.2-0.4,0.4-0.5
			c1.2,0,3.2,0.5,4,1.2c0.7,0.6,1,1.5,1.5,2.2l2.5,3.5l5.7,7.7l2.6,3.4c0.5,0.8,0.3,1.5-0.4,2l-0.4,0.1c-2.7,0-6.8-1-8.6-2.6
			c-0.9-0.8-1.4-1.8-2-2.7L310.8,253.8z M311,266.5c-1.8,1-6.1-1.2-6.7-1.8c-0.1-0.1-0.2-0.2-0.2-0.3c1.7-3.1,2.9-6.4,3.6-9.8
			c0.2-0.2,0.5-0.4,0.9-0.5l0,0C310,253.9,312.8,265.6,311,266.5z M318,224.8L318,224.8c-0.4-0.6-0.3-1.5,0.1-2.1
			c0.7-1.1,2.6-0.6,3.8-0.9c0.4,0,0.8,0.1,1.2,0.2c0.8,0.6,1.5,1.1,2.4,1.7c0.9,0.6,1.9,1.4,2.8,2c1.1,0.7,2.3,1.3,3.2,2.2
			c0.3,0.3,0.6,0.7,0.7,1.2c0.3,1.7-1.9,2.6-3,2.6c-1.3,0-2.6,0-3.6-0.5C324.9,230.8,318.5,225.5,318,224.8z M325.2,219.7
			L325.2,219.7c-0.4-0.3-0.4-0.8-0.4-1.2c0.2-1.8,2.8-2.7,4.2-2.8c1.2,0,4.3,1.9,5.1,2.2c1.1,0.5,2.3,1.1,3.4,1.6
			c1,0.5,2.5,0.9,3.2,1.9c0.8,1.1-0.3,2.5-1.2,3.1c-0.5,0.3-1.3,0.8-3.4,0.9c-1.6,0-2.5-0.9-3.7-1.7
			C330.8,222.7,325.8,220.2,325.2,219.7z M333.3,199.6L333.3,199.6c-1.3-0.2-4-2.6-5.1-0.4c-0.9,1.8,4.8,2.5,4.5,4.3
			c-0.2,1.5-0.7,1.7-2.1,1.7c-0.6,0-2-0.8-2.5-1c-1.3-0.6-4.4-3.1-5.6-1.1c-1.1,1.9,6.7,4.6,6.5,6.1c-0.2,1.4-1.7,2.6-2.8,2.2
			c-1.5-0.4-6.3-6-8.5-3.8c-2,2.1,6.1,5.7,5.7,6.9c-0.7,2.1-2.5,2.7-5.1,0.6c-1.3-1.1-3.5-3.2-4.7-1.6c-1.5,2,2.8,4.5,3.2,5.2
			c0.9,1.7-1.2,3.6-2.6,3.3c-1.3-0.2-3.3-5.1-5.1-3.4c-1.4,1.3,2,4.4,1.7,5.6c-0.2,1.1-3.1,2.7-4.4,1.6c-1.9-1.2,2.5-7.7-1.8-13.8
			c-2.1-2.6-3.8-6.6-3.9-7.3c-0.2-1.2-0.1-3.4,0.7-4.4c3-4.1,16.8-3.8,22.7-4.1c3.9-0.2,6.1,0.3,10.2,0.3c0.6,0.2,1.4,0.2,1.5,1
			C336,198.5,335.3,199.4,333.3,199.6z M308.6,230.4L308.6,230.4c0.9,0.8,1.2,2.2,1.9,3.1c0.8,1.2,3,3.7,2.9,5.1
			c-0.1,1.1-4.3,4.4-5.3,3.6c0,0,0-0.1-0.1-0.1c-0.6-4.1-2-8-4-11.7c0-0.2,0-0.3,0.1-0.4C304.9,228.4,308.3,230.1,308.6,230.4z
			 M252,313.2L252,313.2c-0.3,1.1-1.8,2.5-3.1,2.5c-1.1,0-3.2-1.9-3.4-2.8c-0.4-1.2-0.1-2.5-0.1-3.8c0.2-3.9,0.8-13.4,0.9-14.4
			c0.1-0.6,0.4-1.4,1-1.9c0.5,0,0.9,0,1.4,0c0.4,0,0.8,0,1.2,0c0.6,0.5,0.9,1.3,1.1,1.8c0.4,1.1,0.8,10.6,1.2,14.3
			C252.3,310.1,252.4,312,252,313.2z M262.3,312.3c-0.2,1.1-1.5,2.7-2.8,2.9c-1.1,0.2-3.4-1.5-3.7-2.4c-0.5-1.1-0.4-2.5-0.5-3.8
			c-0.3-3.9-0.9-13.4-0.9-14.5c0-0.6,0.2-1.5,0.8-2.1c0.8-0.1,1.7-0.1,2.5-0.2c0.7,0.4,1,1.2,1.3,1.7c0.5,1,2.1,10.4,3,14.1
			C262.1,309.2,262.4,311.1,262.3,312.3L262.3,312.3z M270.5,313.4L270.5,313.4c-1.1,0.4-3.7-0.9-4.2-1.7c-0.7-1-0.9-2.4-1.2-3.8
			c-1-3.9-3.3-13.4-3.5-14.5c-0.1-0.5-0.1-1.2,0.2-1.8c1.2-0.2,2.3-0.4,3.5-0.7c0.4,0.3,0.6,0.7,0.8,1c0.7,1,4,10.1,5.5,13.7
			c0.5,1.2,1.2,3,1.2,4.3C272.9,311.1,271.9,312.9,270.5,313.4z M280.4,310.8L280.4,310.8c-1.1,0.5-3.7-0.5-4.4-1.2
			c-0.8-1-1.2-2.3-1.7-3.6c-1.5-3.8-4.9-12.9-5.2-13.9c-0.2-0.5-0.2-1.4,0.1-2.1c1.1-0.3,2.1-0.6,3.1-1c0.5,0.3,0.8,0.7,1.1,1
			c0.8,0.9,5.2,9.6,7.1,12.9c0.6,1.1,1.5,2.9,1.7,4.2C282.5,308.2,281.7,310.2,280.4,310.8z M282.8,300.3L282.8,300.3
			c-0.6-0.7-7.3-10.5-7.6-10.9c-0.2-0.3-0.2-0.9,0-1.3c12-4.5,21.8-12.1,27.5-21.3c1-0.3,2.7,1.2,3.4,1.6c1.3,0.6,2.9,1.3,4.5,0.8
			c1.7-0.5,2.3-2.5,3.6-3.1c0.7-0.3,5.8,1.6,5.9,2.8c0,1-3.2,5.4-6.7,10.1c-6.1,8.2-13.7,13.8-22.2,18.5c-1.8,1-3.8,1.9-5.7,2.7
			l-1.6,0.6C283.5,300.8,283.1,300.6,282.8,300.3z M325.7,269.2c-0.4,0.9-3.9,7.6-6.6,11.2c-6.1,8.3-15,16.3-23.8,21.1
			c-4.2,2.3-8.3,4-9.2,4.4c-1,0-1.5-0.6-0.6-1.3c0.7-0.6,4.2-2.2,7-3.5c4.5-2.3,8.4-4.7,12.5-8c4.8-3.9,9.2-8.7,12.6-13.7
			c3.1-4.5,6.7-11.2,7.4-11.5C325.8,268,326,268.5,325.7,269.2L325.7,269.2z M339.9,261.4c0,1.3-2.2,1.4-3.1,1.8
			c-2.4,0-6-1.3-7.8-2.5c-1.4-1-2.4-2.6-3.4-3.8c-2.6-3.3-5.1-6.8-7.5-10.2c-0.4-0.6-0.8-1.1-1.3-1.6c-0.6-0.5-1.4-0.6-1.7-1.4
			c-0.5-1.4,0.6-2.9,1.8-3.2c1.6,0,3.1,0.7,4.2,1.6c0.9,0.7,1.5,1.6,2.2,2.4c0.8,0.8,1.5,1.5,2.3,2.3c3.7,3.5,7.3,7,11,10.5
			c0.9,0.9,3.2,2.5,3.4,3.8C339.9,261.3,339.9,261.3,339.9,261.4z M354.9,261L354.9,261c-2.6,0-4.9-0.8-7.2-1.4
			c-1.5-0.4-3.1-0.7-4.5-1.5c-1.7-0.9-2.9-2.5-4.4-3.8c-3.9-3.5-7.6-7.3-11.5-11c-0.4-0.4-0.9-0.7-1.4-1c-0.6-0.3-1.5-0.3-1.8-1
			c-0.1-0.3-0.1-0.7,0-1c0.3-0.6,0.5-1.1,0.8-1.7c0.2-0.7,0.4-1.4,0.8-2c0.2-0.3,0.5-0.5,0.9-0.6c0.1,0,0.2,0,0.3,0
			c0.1,0,0.2,0,0.3,0c0.1,0,0.2,0,0.4,0c2.3,0.5,3.6,2.7,5.4,4.1c5,3.8,9.9,7.7,15.1,11.1c2.1,1.4,4.2,2.8,6.4,4.2
			c1.2,0.7,2.6,1.3,3.5,2.3c0.1,0.1,0.1,0.2,0.2,0.3c0,0.1,0.1,0.1,0.1,0.2C358.7,259.6,355.8,260.5,354.9,261z M375.5,256.4
			L375.5,256.4c-0.3,0.1-0.7,0.3-1,0.4c-0.2,0-0.5,0-0.7,0c-3.9,0-7.9-0.4-11.2-1.7c-3.4-1.3-6.5-3.4-9.6-5.3
			c-5.6-3.6-10.9-7.6-16.2-11.6c-0.6-0.4-4.1-2-4.3-3.1c-0.2-1,1.6-2.4,2.3-2.9c0.1,0,0.2,0,0.4,0c0.1,0,0.3,0.1,0.4,0.1
			c1.7,1,3.5,2,5.2,3c5.6,3.1,11.2,6,17,8.8c4.2,2,8.4,3.9,12.8,5.6c1.4,0.5,2.8,1,4.2,1.5c0.8,0.3,1.6,0.6,2.4,0.8
			c0.3,0.1,0.6,0.3,0.7,0.6C378.6,254,376.5,255.8,375.5,256.4z M396.8,247.9L396.8,247.9c-0.4,0.2-0.7,0.4-1.1,0.5
			c-0.1,0-0.2,0-0.4,0.1c-0.2,0-0.3,0-0.5,0.1c-0.2,0-0.3,0-0.5,0.1c-0.3,0-0.5,0-0.8,0.1c-0.5,0-1.1,0-1.6,0.1c-0.3,0-0.6,0-1,0.1
			c-4,0-8.1,0.2-11.7-0.5c-4.2-0.8-8.1-2.7-12-4.3c-3.7-1.6-7.4-3.3-11-5.2c-2.5-1.2-4.9-2.5-7.4-3.7c-1.5-0.8-3.1-1.6-4.7-2.5
			c-0.8-0.4-1.5-0.9-2.3-1.2c-1.1-0.4-2.9-0.9-3-2.2c0-0.9,2.9-1.9,3.8-2.3c1.3,0,2.4,0.7,3.5,1.1c2.6,0.9,5.1,1.9,7.7,2.8
			c10,3.4,20,6.8,30.5,9.4c2.9,0.7,5.8,1.4,8.8,2.1c1.4,0.3,4.8,0.5,5.6,1.5C399.7,245.2,397.7,247.3,396.8,247.9z M419.4,235.8
			L419.4,235.8c-0.3,0.8-1.2,1.3-1.8,1.9c-0.6,0.7-1.1,1.6-1.9,2.2c-0.5,0.4-1.1,0.5-1.6,0.8c-0.1,0-0.2,0-0.4,0.1
			c-0.2,0-0.5,0-0.7,0.1c-0.3,0-0.7,0-1,0.1c-8.2,0-16-1.8-23.4-3.5c-10.1-2.2-18.3-5.1-28-8.4c-3.7-1.3-15.7-4.9-16.2-6.1
			c-0.6-1.6,2-2.1,3-2.5c0.7-0.3,1.5-0.7,2.2-1c0.8,0.1,1.4,0.4,2.1,0.6c0.7,0.2,1.5,0.5,2.2,0.7c3.5,0.9,7,1.8,10.4,2.7
			c7.5,1.9,15,3.6,22.7,5.3c4.8,1,9.7,2.1,14.6,2.9c3.6,0.6,7.3,1.2,11,1.8c1.9,0.3,3.8,0.5,5.6,0.8c0.4,0.1,0.8,0.2,1.1,0.6
			C419.5,235,419.5,235.4,419.4,235.8z M433.2,228.4L433.2,228.4c-0.7,0.5-1.5,0.5-2.2,0.8c-0.1,0-0.2,0.1-0.4,0.1
			c-0.1,0-0.2,0-0.4,0.1c-0.1,0-0.3,0-0.4,0.1c-0.1,0-0.3,0.1-0.4,0.1c-0.2,0-0.3,0-0.5,0.1c-0.2,0-0.4,0-0.6,0.1
			c-0.2,0-0.4,0-0.6,0.1c-0.2,0-0.4,0-0.6,0.1c-0.2,0-0.4,0-0.6,0.1c-0.3,0-0.5,0-0.8,0.1c-0.3,0-0.5,0-0.8,0.1
			c-0.3,0-0.5,0-0.8,0.1c-0.2,0-0.4,0-0.6,0.1c-0.3,0-0.5,0-0.8,0.1c-0.4,0-0.7,0-1.1,0.1c-0.2,0-0.4,0.1-0.6,0.1
			c-2.1,0-4-0.4-6-0.6c-3.8-0.5-7.6-1.2-11.3-1.8c-6.8-1.1-13.6-2.5-20.2-4c-5.4-1.3-10.8-2.4-16.2-3.8c-3.6-0.9-7.2-1.9-10.9-2.8
			c-1.3-0.3-3.6-0.6-4.6-1.4c-0.6-0.5-0.9-1.6-1-2.3c-0.2-1,0.7-1.4,1.4-1.7c1.8,0,3,0.9,4.6,1.2c3.7,0.6,7.4,1.3,11.1,1.9
			c8,1.3,16,2.7,24.1,3.7c6.8,0.9,13.7,2.1,20.7,2.8c4.8,0.5,9.7,1.1,14.6,1.5c1.6,0.1,6.8,0,7.7,0.8
			C436.4,224.6,434.1,227.7,433.2,228.4z M448.3,213.8c-0.8,2.4-2.1,3.4-4.5,4.1c-0.7,0.2-1.4,0.4-2.1,0.5c-0.1,0-0.3,0-0.4,0.1
			c-0.1,0-0.2,0-0.4,0.1c-0.1,0-0.2,0-0.4,0.1c-0.1,0-0.3,0-0.4,0.1c-0.2,0-0.4,0-0.6,0.1c-0.2,0-0.5,0-0.7,0.1
			c-0.2,0-0.4,0-0.6,0.1c-0.2,0-0.4,0-0.6,0.1c-0.3,0-0.5,0-0.8,0.1c-0.5,0-0.9,0-1.4,0.1c-7.6,0-14.7-1-22-1.7
			c-4.7-0.4-9.3-1.3-13.9-1.8c-6.6-0.7-13.1-1.8-19.6-2.9c-5.4-0.8-10.8-1.7-16.1-2.5c-1.3-0.2-2.6-0.4-4-0.6
			c-0.7-0.1-2.7-0.4-3.5-0.2c-1.8,0-1.6-1.6-0.7-2.6c0.3-0.3,0.6-0.4,1-0.5v0c2.2,0,5.2,0.4,7.3,0.6c5.2,0.4,10.3,0.8,15.4,1.2
			c15.2,1,30.4,2.2,45.7,2.9c4.1,0.1,8.3,0.3,12.4,0.4c3,0,6.1,0,9.1,0c0.6,0,1.2,0.1,1.5,0.5C448.6,212.4,448.4,213.2,448.3,213.8
			L448.3,213.8z M458.6,204c-0.5,0.5-1.9,0.6-2.5,0.8c-1.5,0.5-5.8,2.6-10.6,2.6c-20.8,0-40.6-1.8-60.6-3.1
			c-2.7-0.2-5.5-0.4-8.2-0.7c-3.8-0.3-7.6-0.5-11.4-0.8c-1.5-0.1-2.9-0.2-4.4-0.3c-0.8-0.1-1.8-0.3-2.5-0.1c-0.3,0-0.5,0.1-0.8,0.1
			c-0.1,0-0.3,0-0.4,0.1c-2.7,0-0.5-2.9,0.9-3.1c0.8-0.1,2.3,0,3.2,0c1.9,0,7.8-0.2,8.8-0.2c5.8,0,11,0,16.8,0h10.3
			c0.8-0.1,17.4-0.2,24.6-0.3c5.5-0.1,11.1,0.1,16.4-0.2c3.1,0,6.2,0,9.3,0c0.8,0,9.2-0.2,10,0.2C458.5,199.7,459.7,203.1,458.6,204
			L458.6,204z M462.4,192.6L462.4,192.6c-1.3,0.6-4.2,1.7-4.7,1.9c-0.3,0.1-2.7,0.1-3,0.1c-0.5,0-4.1,0-5.7,0
			c-0.6,0-11.6,0.3-15.4,0.3c-4.2,0-8.2,0.1-12.4,0.1c-0.9,0-5.7,0.1-5.9,0.1h-21.6l-1.5,0.1l-1,0.1h-11.4c-0.9,0-6.6,0.2-9.2,0.3
			c-3.6,0.3-8.8,0.7-9,0.8c-0.7,0-2.1,0.3-2.3-0.5c-0.2-0.8,1.5-1.2,2-1.3c6.4-1.2,12.8-2.8,20-3.7c12-1.5,17.8-1.7,19.7-2.3
			c1.1-0.3,0.9-1.8,0-1.9c-12.9-1.5-41.6,4.1-45.8,5c-7.7,1.6-13.3,2.1-15.2,2.1h-17.9c-10,0-14.3,1.1-14.9,1.2
			c-1.9,0.4-3.7,1-5.5,1.9c-3.6,1.9-5.9,4.1-4.4,8.5c0.5,0.9,1.1,2.2,1.6,3.2c1.2,2.5,2.8,5.5,4.1,7.9c0.9,1.7,1.5,3.8,1.5,6
			l-0.5,2.7c0,0.5-1.2,2.4-1.7,2.1c-0.1,0-0.2-0.1-0.3-0.3c-0.7-1-1.5-2-2.2-3c-0.3-0.4-0.5-0.6-0.5-0.8c-0.9-1.2,1.8-2.9,1.5-4.4
			c-0.5-3-5-8.9-8.4-11.7c-2-1.6-3.8-3.8-5.5-5.8c-0.7-1-1.5-1.8-2.3-2.8c-0.6-0.9-0.9-1.4-1.2-2.5c-0.5-2.1,0.8-3.4,2.1-4.5
			c0.8-0.6,2.4-1.6,3.6-2.1c3.4-1.4,11.4-2.8,16.1-3.4c1.6-0.1,5.4-0.6,8.2-0.7c3.2,0,6.2,0.1,9.2,0.3c5.8,0.4,11.5,1.5,17.6,1.6
			c8.8,0.1,17.3-0.4,25.9-0.8c3.8-0.2,7.8-0.4,11.9-0.8c6.3-0.5,25.4-0.3,28.2-0.1c1.4,0.1,14,0.6,20.4,1.1c1.4,0.1,2.6,0.2,3.5,0.4
			c2.8-0.1,5.6,0.1,8.3-0.1c5.1-0.3,10.3-0.9,15.4-1.3l7.7-0.7c1,0,1.8,0,2.6,0.4c1,0.5,4.2,3.6,4.1,4.8
			C468.1,190.8,464.2,192,462.4,192.6z"/>
	</g>
	<path id="path2624" d="M297.3,189.2c0.8-0.2,1.6-0.1,2.1,0.5c0.5,0.6,0.4,1.5-0.3,1.9c-0.5,0.3-1.2,0.3-1.8,0.5
		c-1.5,0.4-6.8,1.2-7.1,3c-0.1,1.1,1.2,2.3,1.8,2.6c0.7,0.6-0.5-0.6,0.2,0.1c1.1,0.9,3.4,2.6,2.1,4.2c-0.3,0.4-0.8,0.6-1.4,0.5
		c-2.5-0.2-5.9-5.2-6.2-6c-0.4-1-0.2-2.1,0.4-2.9C289,190.8,294.2,190.3,297.3,189.2"/>
	<path id="path2636" d="M205.9,188.8c2.9,0.7,4.6,0.6,6.3,3.4c0.9,1.4,0.9,3.5-0.5,5.4c-0.9,1.2-1.3,1.6-2.3,2.8
		c-1,1.2-1.1,2.1-2.9,2.3c-0.6,0.1-1.1-0.1-1.4-0.5c-1.1-1.7,1.3-3.7,2.6-5.1c0.5-0.6,1.6-2.2,1.4-2.9c-0.3-2.3-3.1-2.2-4.9-2.8
		c-0.7-0.2-2.5-0.6-3.1-0.9c-0.7-0.4-0.5-1.3-0.1-1.9C201.3,188.1,203,188.1,205.9,188.8"/>
	<path id="path2616" d="M247.7,219.9c3.4,0,6.8,0.3,9.4,1.8c4.1,2.4,5.3,7.4,4.7,12.1c-0.4,2.8-1.3,5.5-3.4,7.4
		c-2.1,1.8-4.8,2.3-7.6,2.6c-6.2,0.8-12.7-1.4-14.5-7.4c-0.4-1.4-0.8-3.1-0.8-4.7c0-0.8,0.1-1.6,0.1-2.4c0.3-0.3,0.3-1,0.3-1.5
		c0.2-0.2,0.3-0.6,0.3-0.9c0.2-0.1,0.3-0.4,0.3-0.7c0.1-0.1,0.2-0.3,0.2-0.4c0.3-0.3,0.9-1.2,0.9-1.6c0.5-0.3,0.8-0.8,1.2-1.2
		c1.1-1,3.1-2.3,4.6-2.3c0.1-0.2,0.4-0.2,0.6-0.2c0.3-0.4,1.3-0.3,1.8-0.3C246.3,219.8,247.2,220.2,247.7,219.9"/>
	<path id="path2620" d="M246.9,248.8c4.2,0,7.9,0.1,11.2,1.6c7.1,3.3,7.8,15.1,2.9,20.5c-3.6,4-11.2,4.7-16.5,3.3
		c-1.2-0.3-2.4-0.6-3.5-1.2c-1.4-0.8-2.5-1.9-3.5-3.2c-1.4-1.9-2.2-4.6-2.3-7.1c-0.1-1.4,0.1-2.8,0.1-4.1c0.3-0.3,0.3-0.9,0.3-1.3
		c0.2-0.2,0.3-0.7,0.3-1c0.2-0.2,0.3-0.5,0.3-0.8c0.2-0.2,0.5-0.7,0.5-1c0.6-0.4,0.9-1.3,1.3-1.8c0.5-0.6,2.3-2.1,3-2.1
		c0.3-0.3,0.9-0.6,1.4-0.6c0.2-0.2,0.7-0.3,1-0.3c0.2-0.3,0.9-0.3,1.3-0.3C245.3,248.9,246.4,249.3,246.9,248.8"/>
</g>
</svg>
