<?xml version="1.0" encoding="UTF-8"?>
<svg id="Layer_1" data-name="Layer 1" xmlns="http://www.w3.org/2000/svg" width="500" height="500" viewBox="0 0 500 500">
  <rect width="500" height="500" fill="none"/>
  <g>
    <path id="path2995" d="m152.15,206.33H37.18c-10.29-2.71-6.79-12.89-5.24-20.27,5.82-15.38,13.11-27.22,21.11-37.29,5.91-7.36,13.07-4.52,19.19,0l80.5,50.07c2.78,1.87,2.38,6.06-.59,7.49Z"/>
    <path id="path2997" d="m80.86,138.9h94.56c4.25-1.52,4.58-6.37,0-15.4l-21.02-34.44c-4.25-4.72-10.34-3.66-17.23,0-20.87,9.15-39.4,23.4-58.13,37.26-5.18,3.48-5.62,10.75,1.83,12.58Z"/>
    <path id="path3001" d="m168.65,93.62c-2.47-3.81-6.7-9.78,0-13.2,22.06-6.19,39.2-13.64,72.37-12.34,5.71.22,8.18,4.63,7.03,10.8v52.8c-.13,4.23-.88,7.6-4.63,6.85h-42.51c-5.64.95-8.09-2.91-10.11-7.38l-22.12-37.55h-.02v.02Z"/>
    <path id="rect3003" d="m98.97,146.31h87.04c3.68,0,4.89,3.42,6.63,6.63l25.72,47.18c1.76,3.24-.07,6.63-3.75,6.63h-29.82c-3.68,0-6.24-1.98-9.37-3.92l-80.39-49.91c-3.13-1.94.24-6.63,3.92-6.63h0v.02Z" fill-rule="evenodd"/>
    <path id="rect3006" d="m209.33,146.31h31.01c3.68,0,6.63,2.95,6.63,6.63v47c0,3.68-1.61,6.63-5.29,6.63h-5.11c-3.68,0-4.8-3.46-6.63-6.63l-24.7-42.57c-2.42-4.16-.79-11.06,4.08-11.06,0,0,.02,0,.02,0Z" fill-rule="evenodd"/>
    <path id="path3041" d="m264.4,216.85l-24.84,10.25h-124.66c-5.82.9-15.51,2.01-23.4,6.46l-65.18,36.89c-5.09,3.15-6.66,6.88,2.45,12.6h54.54c1.78.42,3.02-.97,3.7-3.31-.71-3.81-3.46-8.75-3.46-13.64,0-.62.02-1.21.09-1.81h-.4c0-1.65.18-3.31.46-4.89,0-4.08,2.07-8.13,5.29-11.75.29-.37.64-.73.95-1.1v-.09c6.1-7.25,15.84-11.9,26.8-11.9,2.03,0,3.99.24,5.91.55.9.07,1.83.09,2.69.24,4.58,1.32,7.49,2.53,10.09,4.25.35.22.68.46,1.01.71,8.2,6.88,13.6,16.22,13.31,23.95,0,6.04-2.01,9.56-3.06,14.35-.11.99.35,5.6,3.79,6.39l157.05-.31c4.05.15,3.2-5.86,2.6-9.94,0,0-.24-1.32-.55-3-.18-.95-.33-1.94-.46-3.06-.22-1.87-.4-3.81-.15-5.29.04-.24.11-.48.15-.71.31-3.11,1.15-6.04,2.36-8.84.31-.68.59-1.32.95-1.96.15-.31.31-.64.46-.95.07-.11.18-.2.24-.31.46-.86,1.01-1.7,1.59-2.51,1.7-2.47,3.77-4.74,6.54-6.61.07-.04.11-.11.15-.15.18-.11.37-.2.55-.31,5.77-4.14,13.07-6.61,20.96-6.61,6.5,0,12.49,1.67,17.65,4.56.07.02.15.04.24.09,10.14,4.54,14.06,13.27,16.09,22.39.11.48,0,1.19-.15,1.96.04.71.09,1.41.09,2.14,0,4.76-2.95,9.21-3.24,13.24,3.75,4.67,8.15,4.74,14.5,0l85.19-49.74c4.78-3.35,8.37-10.56-3.46-12.21h-205.43v-.04Z"/>
    <path id="path3239" d="m353.45,206.33h114.99c10.29-2.71,6.79-12.89,5.24-20.27-5.82-15.38-13.11-27.22-21.11-37.29-5.91-7.36-13.07-4.52-19.19,0l-80.5,50.07c-2.78,1.87-2.38,6.06.59,7.49h-.02Z"/>
    <path id="path3241" d="m424.74,138.9h-94.56c-4.25-1.52-4.58-6.37,0-15.4l21.02-34.44c4.25-4.72,10.34-3.66,17.23,0,20.87,9.15,39.4,23.4,58.13,37.26,5.18,3.48,5.62,10.75-1.83,12.58Z"/>
    <path id="path3243" d="m336.95,93.62c2.47-3.81,6.7-9.78,0-13.2-22.06-6.19-39.2-13.64-72.35-12.34-5.71.22-8.18,4.63-7.03,10.8v52.8c.13,4.23.88,7.6,4.63,6.85h42.51c5.64.95,8.09-2.91,10.11-7.38l22.12-37.55h0v.02Z"/>
    <path id="path3245" d="m406.65,146.31h-87.04c-3.68,0-4.89,3.42-6.63,6.63l-25.72,47.18c-1.76,3.24.07,6.63,3.75,6.63h29.82c3.68,0,6.24-1.98,9.37-3.92l80.39-49.91c3.13-1.94-.24-6.63-3.92-6.63h0v.02Z" fill-rule="evenodd"/>
    <path id="path3247" d="m296.27,146.31h-31.01c-3.68,0-6.63,2.95-6.63,6.63v47c0,3.68,1.61,6.63,5.29,6.63h5.11c3.68,0,4.8-3.46,6.63-6.63l24.7-42.57c2.42-4.16.79-11.06-4.08-11.06,0,0-.02,0-.02,0Z" fill-rule="evenodd"/>
    <path id="path3249" d="m152.15,293.69H37.18c-10.29,2.71-6.79,12.89-5.24,20.27,5.82,15.38,13.11,27.22,21.11,37.29,5.91,7.36,13.07,4.52,19.19,0l80.5-50.07c2.78-1.87,2.38-6.06-.59-7.49Z"/>
    <path id="path3251" d="m80.86,361.12h94.56c4.25,1.52,4.58,6.37,0,15.4l-21.02,34.44c-4.25,4.72-10.34,3.66-17.23,0-20.87-9.15-39.4-23.4-58.13-37.26-5.18-3.48-5.62-10.75,1.83-12.58Z"/>
    <path id="path3253" d="m168.65,406.38c-2.47,3.81-6.7,9.78,0,13.2,22.06,6.19,39.2,13.64,72.35,12.34,5.71-.22,8.18-4.63,7.03-10.8v-52.8c-.13-4.23-.88-7.6-4.63-6.85h-42.51c-5.64-.95-8.09,2.91-10.11,7.38l-22.12,37.55h0v-.02Z"/>
    <path id="path3255" d="m98.97,353.74h87.04c3.68,0,4.89-3.42,6.63-6.63l25.72-47.18c1.76-3.24-.07-6.63-3.75-6.63h-29.82c-3.68,0-6.24,1.98-9.37,3.92l-80.39,49.91c-3.13,1.94.24,6.63,3.92,6.63h0v-.02Z" fill-rule="evenodd"/>
    <path id="path3257" d="m209.33,353.74h31.01c3.68,0,6.63-2.95,6.63-6.63v-47c0-3.68-1.61-6.63-5.29-6.63h-5.11c-3.68,0-4.8,3.46-6.63,6.63l-24.7,42.57c-2.42,4.16-.79,11.06,4.08,11.06h.02Z" fill-rule="evenodd"/>
    <path id="path3259" d="m353.45,293.69h114.99c10.29,2.71,6.79,12.89,5.24,20.27-5.82,15.38-13.11,27.22-21.11,37.29-5.91,7.36-13.07,4.52-19.19,0l-80.5-50.07c-2.78-1.87-2.38-6.06.59-7.49h-.02Z"/>
    <path id="path3261" d="m424.74,361.12h-94.56c-4.25,1.52-4.58,6.37,0,15.4l21.02,34.44c4.25,4.72,10.34,3.66,17.23,0,20.87-9.15,39.4-23.4,58.13-37.26,5.18-3.48,5.62-10.75-1.83-12.58Z"/>
    <path id="path3263" d="m336.95,406.38c2.47,3.81,6.7,9.78,0,13.2-22.06,6.19-39.2,13.64-72.35,12.34-5.71-.22-8.18-4.63-7.03-10.8v-52.8c.13-4.23.88-7.6,4.63-6.85h42.51c5.64-.95,8.09,2.91,10.11,7.38l22.12,37.55h0v-.02Z"/>
    <path id="path3265" d="m406.65,353.74h-87.04c-3.68,0-4.89-3.42-6.63-6.63l-25.72-47.18c-1.76-3.24.07-6.63,3.75-6.63h29.82c3.68,0,6.24,1.98,9.37,3.92l80.39,49.91c3.13,1.94-.24,6.63-3.92,6.63h0v-.02Z" fill-rule="evenodd"/>
    <path id="path3267" d="m296.27,353.74h-31.01c-3.68,0-6.63-2.95-6.63-6.63v-47c0-3.68,1.61-6.63,5.29-6.63h5.11c3.68,0,4.8,3.46,6.63,6.63l24.7,42.57c2.42,4.16.79,11.06-4.08,11.06h-.02Z" fill-rule="evenodd"/>
  </g>
</svg>