<?xml version="1.0" encoding="UTF-8"?>
<svg id="Layer_1" data-name="Layer 1" xmlns="http://www.w3.org/2000/svg" width="500" height="500" viewBox="0 0 500 500">
  <rect width="500" height="500" fill="none"/>
  <g>
    <path id="path2995" d="m67.52,234.77H27.43c-3.59-.95-2.37-4.5-1.83-7.07,2.03-5.36,4.57-9.49,7.36-13,2.06-2.57,4.56-1.58,6.69,0l28.07,17.46c.97.65.83,2.11-.21,2.61Z"/>
    <path id="path2997" d="m42.66,211.26h32.97c1.48-.53,1.6-2.22,0-5.37l-7.33-12.01c-1.48-1.64-3.6-1.28-6.01,0-7.28,3.19-13.74,8.16-20.27,12.99-1.81,1.21-1.96,3.75.64,4.39Z"/>
    <path id="path3001" d="m73.28,195.46c-.86-1.33-2.34-3.41,0-4.6,7.69-2.16,13.67-4.76,25.24-4.3,1.99.08,2.85,1.61,2.45,3.77v18.41c-.05,1.48-.31,2.65-1.61,2.39h-14.82c-1.97.33-2.82-1.01-3.53-2.57l-7.72-13.09h0Z"/>
    <path id="rect3003" d="m48.98,213.84h30.35c1.28,0,1.71,1.19,2.31,2.31l8.97,16.45c.61,1.13-.02,2.31-1.31,2.31h-10.4c-1.28,0-2.17-.69-3.27-1.37l-28.03-17.41c-1.09-.68.08-2.31,1.37-2.31h0Z" fill-rule="evenodd"/>
    <path id="rect3006" d="m87.46,213.84h10.81c1.28,0,2.31,1.03,2.31,2.31v16.39c0,1.28-.56,2.31-1.84,2.31h-1.78c-1.28,0-1.68-1.21-2.31-2.31l-8.61-14.85c-.85-1.45-.28-3.86,1.42-3.86h0Z" fill-rule="evenodd"/>
    <path id="path3041" d="m106.67,238.43l-8.66,3.57h-43.47c-2.03.32-5.41.7-8.16,2.25l-22.73,12.86c-1.78,1.1-2.32,2.4.85,4.4h19.02c.62.15,1.05-.34,1.29-1.15-.25-1.33-1.21-3.05-1.21-4.76,0-.22,0-.42.03-.63h-.14c0-.58.06-1.15.16-1.71,0-1.42.72-2.84,1.84-4.1.1-.13.22-.25.33-.38v-.03c2.13-2.53,5.53-4.15,9.34-4.15.71,0,1.39.08,2.06.19.32.02.64.03.94.08,1.6.46,2.61.88,3.52,1.48.12.08.24.16.35.25,2.86,2.4,4.74,5.66,4.64,8.35,0,2.11-.7,3.34-1.07,5-.04.35.12,1.95,1.32,2.23l54.77-.11c1.41.05,1.11-2.04.91-3.47,0,0-.08-.46-.19-1.05-.06-.33-.12-.68-.16-1.07-.08-.65-.14-1.33-.05-1.84.02-.08.04-.17.05-.25.11-1.08.4-2.11.82-3.08.11-.24.21-.46.33-.68.05-.11.11-.22.16-.33.02-.04.06-.07.08-.11.16-.3.35-.59.55-.88.59-.86,1.31-1.65,2.28-2.31.02-.02.04-.04.05-.05.06-.04.13-.07.19-.11,2.01-1.44,4.56-2.31,7.31-2.31,2.27,0,4.36.58,6.16,1.59.02,0,.05.02.08.03,3.53,1.58,4.9,4.63,5.61,7.81.04.17,0,.41-.05.68.02.25.03.49.03.75,0,1.66-1.03,3.21-1.13,4.62,1.31,1.63,2.84,1.65,5.06,0l29.71-17.34c1.67-1.17,2.92-3.68-1.21-4.26h-71.63v-.02Z"/>
    <path id="path3239" d="m137.72,234.77h40.1c3.59-.95,2.37-4.5,1.83-7.07-2.03-5.36-4.57-9.49-7.36-13-2.06-2.57-4.56-1.58-6.69,0l-28.07,17.46c-.97.65-.83,2.11.21,2.61h0Z"/>
    <path id="path3241" d="m162.58,211.26h-32.97c-1.48-.53-1.6-2.22,0-5.37l7.33-12.01c1.48-1.64,3.6-1.28,6.01,0,7.28,3.19,13.74,8.16,20.27,12.99,1.81,1.21,1.96,3.75-.64,4.39Z"/>
    <path id="path3243" d="m131.96,195.46c.86-1.33,2.34-3.41,0-4.6-7.69-2.16-13.67-4.76-25.23-4.3-1.99.08-2.85,1.61-2.45,3.77v18.41c.05,1.48.31,2.65,1.61,2.39h14.82c1.97.33,2.82-1.01,3.53-2.57l7.72-13.09h0Z"/>
    <path id="path3245" d="m156.27,213.84h-30.35c-1.28,0-1.71,1.19-2.31,2.31l-8.97,16.45c-.61,1.13.02,2.31,1.31,2.31h10.4c1.28,0,2.17-.69,3.27-1.37l28.03-17.41c1.09-.68-.08-2.31-1.37-2.31h0Z" fill-rule="evenodd"/>
    <path id="path3247" d="m117.78,213.84h-10.81c-1.28,0-2.31,1.03-2.31,2.31v16.39c0,1.28.56,2.31,1.84,2.31h1.78c1.28,0,1.68-1.21,2.31-2.31l8.61-14.85c.85-1.45.28-3.86-1.42-3.86h0Z" fill-rule="evenodd"/>
    <path id="path3249" d="m67.52,265.23H27.43c-3.59.95-2.37,4.5-1.83,7.07,2.03,5.36,4.57,9.49,7.36,13,2.06,2.57,4.56,1.58,6.69,0l28.07-17.46c.97-.65.83-2.11-.21-2.61Z"/>
    <path id="path3251" d="m42.66,288.74h32.97c1.48.53,1.6,2.22,0,5.37l-7.33,12.01c-1.48,1.64-3.6,1.28-6.01,0-7.28-3.19-13.74-8.16-20.27-12.99-1.81-1.21-1.96-3.75.64-4.39Z"/>
    <path id="path3253" d="m73.28,304.54c-.86,1.33-2.34,3.41,0,4.6,7.69,2.16,13.67,4.76,25.23,4.3,1.99-.08,2.85-1.61,2.45-3.77v-18.41c-.05-1.48-.31-2.65-1.61-2.39h-14.82c-1.97-.33-2.82,1.01-3.53,2.57l-7.72,13.09h0Z"/>
    <path id="path3255" d="m48.98,286.17h30.35c1.28,0,1.71-1.19,2.31-2.31l8.97-16.45c.61-1.13-.02-2.31-1.31-2.31h-10.4c-1.28,0-2.17.69-3.27,1.37l-28.03,17.41c-1.09.68.08,2.31,1.37,2.31h0Z" fill-rule="evenodd"/>
    <path id="path3257" d="m87.46,286.17h10.81c1.28,0,2.31-1.03,2.31-2.31v-16.39c0-1.28-.56-2.31-1.84-2.31h-1.78c-1.28,0-1.68,1.21-2.31,2.31l-8.61,14.85c-.85,1.45-.28,3.86,1.42,3.86h0Z" fill-rule="evenodd"/>
    <path id="path3259" d="m137.72,265.23h40.1c3.59.95,2.37,4.5,1.83,7.07-2.03,5.36-4.57,9.49-7.36,13-2.06,2.57-4.56,1.58-6.69,0l-28.07-17.46c-.97-.65-.83-2.11.21-2.61h0Z"/>
    <path id="path3261" d="m162.58,288.74h-32.97c-1.48.53-1.6,2.22,0,5.37l7.33,12.01c1.48,1.64,3.6,1.28,6.01,0,7.28-3.19,13.74-8.16,20.27-12.99,1.81-1.21,1.96-3.75-.64-4.39Z"/>
    <path id="path3263" d="m131.96,304.54c.86,1.33,2.34,3.41,0,4.6-7.69,2.16-13.67,4.76-25.23,4.3-1.99-.08-2.85-1.61-2.45-3.77v-18.41c.05-1.48.31-2.65,1.61-2.39h14.82c1.97-.33,2.82,1.01,3.53,2.57l7.72,13.09h0Z"/>
    <path id="path3265" d="m156.27,286.17h-30.35c-1.28,0-1.71-1.19-2.31-2.31l-8.97-16.45c-.61-1.13.02-2.31,1.31-2.31h10.4c1.28,0,2.17.69,3.27,1.37l28.03,17.41c1.09.68-.08,2.31-1.37,2.31h0Z" fill-rule="evenodd"/>
    <path id="path3267" d="m117.78,286.17h-10.81c-1.28,0-2.31-1.03-2.31-2.31v-16.39c0-1.28.56-2.31,1.84-2.31h1.78c1.28,0,1.68,1.21,2.31,2.31l8.61,14.85c.85,1.45.28,3.86-1.42,3.86h0Z" fill-rule="evenodd"/>
    <path id="path3189" d="m225.62,242.18c3.32-.1,5.95.18,7.88.85,1.94.67,2.71,2.31,2.31,4.93-.45,2.27-1.57,3.81-3.34,4.6-1.77.78-3.93,1.15-6.47,1.1h-8.89l2.02-11.48h6.48Zm4.51-21.66c2.25-.1,4.13.12,5.65.65s2.11,1.95,1.77,4.27c-.36,1.81-1.25,3.17-2.69,4.08s-3.19,1.36-5.26,1.36h-8.46l1.83-10.36s7.16,0,7.16,0Zm-5.64,47.64c8.16.08,14.88-1.3,20.16-4.15,5.28-2.86,8.58-7.72,9.9-14.58.59-3.43.24-6.43-1.07-9-1.31-2.57-3.57-4.32-6.78-5.24,2.3-1.26,4.46-3.04,6.49-5.32,2.02-2.28,3.37-5.03,4.02-8.23.89-6.05-.81-10.2-5.12-12.44-4.31-2.24-10.05-3.3-17.24-3.18h-29.68l-10.96,62.14h30.29-.02Z"/>
    <path id="path3191" d="m257.73,268.15h17.95l2.75-15.62c.85-4.82,2.38-8.24,4.58-10.26,2.21-2.02,5.13-3,8.79-2.94.61,0,1.21.08,1.82.19s1.21.22,1.8.32l3.17-17.95c-.38-.05-.76-.1-1.14-.16-.38-.06-.76-.09-1.14-.1-3.48,0-6.51.85-9.08,2.57s-4.8,4.34-6.65,7.88h-.17l1.61-9.14h-16.31l-7.98,45.22h0Z"/>
    <path id="path3193" d="m312.44,268.15l7.98-45.22h-17.95l-7.98,45.22h17.95Zm-8.96-51.01h17.95l2.25-12.77h-17.95l-2.25,12.77h0Z"/>
    <path id="path3195" d="m318.02,254.09c-.32,5.96,1.5,10.04,5.47,12.24,3.97,2.2,8.59,3.24,13.84,3.12,8-.07,14.16-1.53,18.5-4.37,4.34-2.84,6.91-6.65,7.7-11.43.56-4.15-.35-7.22-2.74-9.21-2.39-2-5.31-3.42-8.76-4.26-3.45-.84-6.49-1.6-9.1-2.27-2.62-.67-3.87-1.75-3.76-3.24.21-1.11.79-1.93,1.75-2.44s2.2-.76,3.71-.75c.68,0,1.29.08,1.86.27.57.18,1.05.47,1.45.85.39.38.69.85.88,1.38s.27,1.17.23,1.9h15.76c.27-3.95-.54-6.96-2.41-9.02-1.88-2.06-4.34-3.46-7.39-4.19s-6.2-1.08-9.45-1.03c-3.11-.03-6.32.41-9.62,1.3-3.3.9-6.21,2.44-8.72,4.62-2.51,2.18-4.14,5.19-4.88,9.01-.59,4.29.28,7.4,2.59,9.34,2.32,1.94,5.16,3.27,8.52,4,3.36.73,6.31,1.42,8.84,2.08,2.54.65,3.73,1.84,3.57,3.56-.33,1.57-1.1,2.64-2.3,3.23-1.21.58-2.51.86-3.9.83-.84,0-1.6-.12-2.28-.37-.68-.24-1.26-.58-1.74-1.01-.51-.48-.86-1.06-1.06-1.74-.2-.69-.22-1.49-.07-2.4h-16.51,0Z"/>
    <path id="path3197" d="m396.08,255.29h-2.85c-2.43.02-3.92-.39-4.46-1.25-.55-.86-.6-2.31-.16-4.36l2.89-16.4h8.63l1.83-10.36h-8.63l2.48-14.07h-17.69l-2.48,14.07h-6.65l-1.83,10.36h6.39l-3.34,18.9c-1.01,5.14-1.14,8.93-.39,11.37.75,2.44,2.98,3.94,6.69,4.5,3.7.56,9.47.59,17.31.09l2.27-12.86h0Z"/>
    <path id="path3199" d="m426.32,233.72c2.37-.05,4.03.98,4.99,3.1.97,2.13,1.16,4.89.59,8.28-.77,4.25-2.01,7.36-3.72,9.33-1.71,1.97-3.78,2.94-6.21,2.92-2.33.02-4.03-.95-5.09-2.92-1.06-1.97-1.24-5.08-.52-9.33.42-2.7,1.43-5.24,3.01-7.61s3.9-3.63,6.94-3.79h0Zm-28.07,12.34c-1.2,7.73.25,13.56,4.34,17.49,4.09,3.93,9.84,5.89,17.26,5.9,7.41.02,13.86-1.97,19.35-5.96,5.49-3.99,9.04-10.12,10.67-18.38,1.18-7.13-.12-12.8-3.91-17.01-3.79-4.21-9.71-6.36-17.75-6.46-7.76.04-14.31,2.14-19.66,6.32s-8.78,10.21-10.28,18.1h-.02Z"/>
    <path id="path3201" d="m466.83,268.15l10.96-62.14h-17.95l-10.96,62.14h17.95Z"/>
    <path id="path3161" d="m195.47,297.32l1.3-7.71.45-3.53.26-3.35h.06l1.49,14.59h4.93l6.39-14.59h.06l-1.05,4.1-.68,3.53-1.17,6.95h6.38l3.82-22.74h-8.58l-6.21,14.18-1.44-14.18h-8.58l-3.82,22.74h6.38,0Z"/>
    <path id="path3163" d="m227.88,284.72c.82-.02,1.41.36,1.74,1.14s.41,1.79.21,3.03c-.27,1.55-.7,2.69-1.3,3.41-.59.72-1.31,1.08-2.17,1.07-.81,0-1.41-.35-1.78-1.07s-.43-1.86-.18-3.41c.15-.99.5-1.91,1.05-2.78.55-.87,1.36-1.33,2.42-1.38h0Zm-9.79,4.52c-.41,2.83.08,4.96,1.51,6.4s3.43,2.16,6.02,2.16c2.58,0,4.83-.71,6.75-2.18,1.91-1.46,3.15-3.7,3.72-6.72.41-2.61-.05-4.69-1.37-6.22s-3.39-2.33-6.19-2.37c-2.7.02-4.99.78-6.85,2.31-1.87,1.53-3.06,3.73-3.59,6.62h0Z"/>
    <path id="path3165" d="m248.44,292.62h-.99c-.85,0-1.37-.15-1.55-.46-.19-.32-.21-.85-.05-1.6l1.01-6h3.01l.64-3.79h-3.01l.87-5.15h-6.17l-.87,5.15h-2.32l-.64,3.79h2.23l-1.16,6.92c-.35,1.88-.4,3.27-.14,4.16s1.04,1.44,2.33,1.64c1.29.21,3.3.22,6.03.03l.79-4.7v.02Z"/>
    <path id="path3167" d="m261.33,284.72c.82-.02,1.41.36,1.74,1.14s.41,1.79.21,3.03c-.27,1.55-.7,2.69-1.3,3.41-.59.72-1.31,1.08-2.17,1.07-.81,0-1.41-.35-1.78-1.07s-.43-1.86-.18-3.41c.15-.99.5-1.91,1.05-2.78.55-.87,1.36-1.33,2.42-1.38h0Zm-9.79,4.52c-.41,2.83.08,4.96,1.51,6.4,1.43,1.44,3.43,2.16,6.02,2.16,2.58,0,4.83-.71,6.75-2.18,1.91-1.46,3.15-3.7,3.72-6.72.41-2.61-.05-4.69-1.37-6.22-1.32-1.54-3.39-2.33-6.19-2.37-2.7.02-4.99.78-6.85,2.31-1.87,1.53-3.06,3.73-3.59,6.62h0Z"/>
    <path id="path3169" d="m270.8,297.32h6.26l.96-5.72c.3-1.76.83-3.01,1.6-3.75s1.79-1.1,3.07-1.08c.21,0,.42.03.64.07.22.05.42.08.63.12l1.11-6.57c-.13-.02-.26-.04-.4-.06-.13-.02-.27-.03-.4-.04-1.21,0-2.27.31-3.17.94-.9.63-1.68,1.59-2.32,2.88h-.06l.56-3.35h-5.69l-2.78,16.54v.02Z"/>
    <path id="path3171" d="m315.43,281.18c.11-2.04-.46-3.73-1.71-5.09-1.25-1.35-3.37-2.06-6.35-2.11-2.76,0-5.11.61-7.03,1.82-1.93,1.21-3.12,3.03-3.58,5.44-.29,2.13.09,3.7,1.15,4.7s2.37,1.72,3.93,2.14c1.55.41,2.91.81,4.09,1.16,1.18.35,1.72.94,1.65,1.75-.1.54-.44.95-1.01,1.24s-1.31.43-2.21.44c-.35,0-.69-.05-1.03-.14s-.63-.24-.89-.42c-.27-.19-.48-.43-.63-.74-.15-.3-.23-.65-.24-1.07h-6.8c-.25,2.11.36,3.9,1.81,5.34,1.46,1.45,3.63,2.21,6.51,2.27,3.03,0,5.57-.65,7.63-1.94,2.06-1.3,3.34-3.26,3.83-5.89.28-2.03-.12-3.53-1.19-4.5-1.07-.98-2.38-1.68-3.93-2.11-1.55-.42-2.91-.82-4.08-1.19s-1.72-.96-1.65-1.77c.07-.41.3-.73.7-.95s.99-.34,1.78-.34c.35,0,.67.03.97.1s.56.17.8.32c.24.14.42.33.56.58.14.25.21.57.2.96h6.74Z"/>
    <path id="path3173" d="m318.43,280.78l-3.73,22.17h6.26l1.22-7.26c.41.7.91,1.22,1.51,1.58s1.32.54,2.17.54c1.84.04,3.62-.63,5.34-2,1.72-1.37,2.9-3.66,3.52-6.88.4-2.35.15-4.36-.73-6.02-.88-1.66-2.51-2.53-4.86-2.61-.94,0-1.92.23-2.94.71-1.01.48-1.85,1.22-2.49,2.23h-.06l.41-2.47h-5.63Zm6.69,12c-.81-.02-1.38-.38-1.71-1.08-.32-.7-.39-1.64-.2-2.8.2-1.12.58-2.02,1.15-2.69s1.24-1.01,2.01-1.04c.84,0,1.45.31,1.83.95.38.63.47,1.6.26,2.91-.2,1.15-.6,2.06-1.19,2.73-.59.67-1.31,1.01-2.15,1.03h0Z"/>
    <path id="path3175" d="m343.33,287.18c.15-.89.52-1.59,1.11-2.1.58-.51,1.35-.76,2.29-.78.75.02,1.35.32,1.79.87.44.55.6,1.22.49,2.01h-5.69Zm11.39,3.35c.53-3.05.14-5.51-1.18-7.36-1.31-1.86-3.44-2.81-6.38-2.87-2.59.03-4.85.84-6.77,2.41s-3.14,3.74-3.67,6.49c-.41,2.79.09,4.92,1.51,6.38s3.43,2.2,6.01,2.21c1.9.03,3.74-.37,5.53-1.19s3.17-2.24,4.11-4.27h-5.99c-.32.49-.7.85-1.15,1.09s-.93.36-1.44.36c-.85-.02-1.52-.31-2.02-.89-.5-.58-.68-1.37-.53-2.36h11.96Z"/>
    <path id="path3177" d="m363.44,287.18c.15-.89.52-1.59,1.11-2.1.58-.51,1.35-.76,2.29-.78.75.02,1.35.32,1.79.87.44.55.6,1.22.49,2.01h-5.69Zm11.39,3.35c.53-3.05.14-5.51-1.18-7.36-1.31-1.86-3.44-2.81-6.38-2.87-2.59.03-4.85.84-6.77,2.41s-3.14,3.74-3.67,6.49c-.41,2.79.09,4.92,1.51,6.38s3.43,2.2,6.01,2.21c1.9.03,3.74-.37,5.53-1.19s3.17-2.24,4.11-4.27h-5.99c-.32.49-.7.85-1.15,1.09s-.93.36-1.44.36c-.85-.02-1.52-.31-2.02-.89-.5-.58-.68-1.37-.53-2.36h11.96Z"/>
    <path id="path3179" d="m393.28,297.32l3.82-22.74h-6.26l-1.32,7.86c-.51-.81-1.12-1.37-1.81-1.69-.69-.32-1.54-.47-2.52-.46-1.93.03-3.65.86-5.16,2.47s-2.53,3.81-3.04,6.59c-.4,2.4-.14,4.39.79,5.97s2.58,2.41,4.95,2.47c.99.02,1.9-.18,2.73-.58s1.68-1.11,2.57-2.1l-.37,2.21h5.63,0Zm-8.19-4.26c-.99-.05-1.59-.45-1.8-1.23-.21-.77-.22-1.61-.04-2.53.15-.96.48-1.84.99-2.64.51-.8,1.29-1.22,2.32-1.27,1.01.05,1.65.45,1.91,1.22s.31,1.64.12,2.6c-.15,1.01-.51,1.88-1.06,2.65-.55.76-1.37,1.16-2.44,1.21h0Z"/>
    <path id="path3181" d="m414.48,280.78h-5.29l-4.16,10.23h-.06l-.69-10.23h-6.11l2.43,16.54h6.11l3.83-9.69h.06l.81,9.69h6.11l7.81-16.54h-5.93l-4.16,10.23h-.06l-.69-10.23h0Z"/>
    <path id="path3183" d="m442.24,297.32l.05-.32c-.34-.33-.52-.65-.56-.96s-.02-.69.08-1.15l1.3-7.74c.26-1.33.33-2.51.2-3.53-.13-1.03-.71-1.84-1.74-2.42-1.03-.59-2.77-.89-5.22-.9-3.09.02-5.38.5-6.89,1.47-1.51.96-2.39,2.33-2.66,4.1h6.02c.22-.69.57-1.14,1.05-1.34.48-.2.95-.29,1.41-.27.38-.02.79.06,1.23.23.45.17.64.55.58,1.13-.18.73-.85,1.18-1.98,1.38-1.14.18-2.46.38-3.96.57-1.49.19-2.86.66-4.1,1.4-1.24.74-2.04,2.03-2.41,3.86-.24,1.71.12,2.97,1.06,3.79.95.81,2.19,1.21,3.73,1.21,1.16.02,2.24-.14,3.26-.47,1.01-.33,2.03-.92,3.05-1.78v1.77h6.48v-.02Zm-9.33-3.25c-.62,0-1.08-.14-1.39-.38s-.42-.58-.36-1c.24-.98.87-1.58,1.91-1.76,1.04-.18,2.14-.49,3.3-.93-.11,1.17-.44,2.13-.99,2.89-.55.76-1.38,1.15-2.47,1.18h0Z"/>
    <path id="path3185" d="m452.51,280.78h-6.29l2.64,15.06c.18.9.09,1.54-.24,1.91s-.98.55-1.94.53c-.21,0-.42,0-.63-.02-.22,0-.43-.02-.65-.02l-.77,4.58c.25,0,.63.02,1.12.06.5.04,1.04.06,1.62.06,1.82.02,3.24-.19,4.26-.61,1.01-.41,1.87-1.11,2.54-2.1s1.42-2.32,2.22-4.02l7.65-15.44h-6.02l-4.46,10.2-1.05-10.2h0Z"/>
  </g>
</svg>