<?xml version="1.0" encoding="UTF-8"?>
<svg id="Layer_1" data-name="Layer 1" xmlns="http://www.w3.org/2000/svg" width="500" height="500" viewBox="0 0 500 500">
  <rect width="500" height="500" fill="none"/>
  <g>
    <g id="g854">
      <g id="g1847">
        <path id="path1836" d="M90.41,335.47c4.78-4.4,7.63-10.6,7.63-17.84,0-14.87-10.85-25.72-25.85-25.72h-27.01v90.44h28.94c15.38,0,26.61-11.12,26.61-26.48.02-8.64-3.87-15.88-10.32-20.41h0ZM59.64,305.89h12.01c7.1,0,11.9,4.78,11.9,11.76s-4.78,11.76-11.9,11.76h-12.01v-23.53h0ZM73.6,368.43h-13.95v-25.07h13.95c7.5,0,12.66,5.04,12.66,12.53s-5.16,12.54-12.66,12.54ZM152.81,357.57c0,7.37-5.29,12.66-12.66,12.66s-12.66-5.29-12.66-12.66v-65.64h-14.47v64.61c0,16.03,11.37,27.66,27.13,27.66s27.13-11.63,27.13-27.66v-64.61h-14.47v65.64ZM209.94,290.13c-15.76,0-27.13,11.63-27.13,27.66v38.76c0,16.03,11.37,27.66,27.13,27.66s27.13-11.63,27.13-27.66v-26.37h-27.13v13.95h12.66v13.44c0,7.37-5.29,12.66-12.66,12.66s-12.66-5.29-12.66-12.66v-40.83c0-7.37,5.29-12.66,12.66-12.66s12.66,5.29,12.66,12.66v2.32h14.47v-1.29c.02-16.01-11.35-27.64-27.13-27.64ZM268.19,291.94l-20.81,90.44h14.34l4.13-18.09h24.56l4.13,18.09h14.34l-20.81-90.44h-19.88ZM269.11,350.34l9.04-39.67,9.04,39.67h-18.09ZM311.35,305.89h19.89l.13,76.49h14.22l.13-76.49h19.89v-13.95h-54.27v13.95h0ZM373.14,305.89h19.89l.13,76.49h14.22l.13-76.49h19.89v-13.95h-54.27v13.95h0ZM440.36,291.94h14.47v90.44h-14.47v-90.44Z" fill-rule="evenodd"/>
      </g>
    </g>
    <g id="g854-2" data-name="g854">
      <g id="g1870">
        <path id="path1859" d="M157.88,115.79h142.74c.18.06.29.12.47.12,3.34.12,6.63.7,9.79,1.7,11.2,3.46,19.24,10.5,23.93,21.29,1.94,4.4,2.87,9.03,3.11,13.78.18,3.52,0,6.98-.7,10.44-1.52,7.45-4.98,13.78-10.5,19.06-.12.12-.23.23-.29.35q.06.06.06.12c.18.12.35.23.53.35,6.27,4.63,10.67,10.61,13.14,17.95,1,3.05,1.7,6.16,1.82,9.38,0,.18.06.29.12.47v6.1c-.06.18-.12.41-.12.59,0,.35,0,.7-.06,1.06-.29,2.76-.82,5.4-1.64,8.03-3.05,9.79-8.97,17.36-17.95,22.46-6.39,3.64-13.37,5.28-20.7,5.28h-143.68v-36.42h22.93v13.37c1,.12,55.48.06,55.95-.06v-35.83h-23.52v10.91c-.76.18-22.46.12-22.93,0v-44.92h22.93v10.91c.76.12,23.05.12,23.46,0v-33.43h-55.95v11.79h-22.99v-33.96c.12-.29.06-.59.06-.88h0ZM263.44,231.33h36.42c1.94,0,3.87-.18,5.75-.7,5.92-1.64,9.97-5.22,11.85-11.08,1.35-4.16,1.29-8.39-.06-12.55-1.47-4.46-4.34-7.74-8.62-9.79-2.64-1.23-5.45-1.82-8.39-1.82h-37l.06,35.95h0ZM263.5,138.78v33.6h33.78c1.88,0,3.75-.23,5.57-.76,5.22-1.58,8.8-4.87,10.56-10.03,1.11-3.28,1.23-6.69.53-10.03-1.23-5.69-4.57-9.62-10.09-11.61-2.35-.88-4.81-1.11-7.27-1.11h-33.08v-.06Z" fill-rule="evenodd"/>
      </g>
    </g>
  </g>
</svg>