<?xml version="1.0" encoding="UTF-8"?>
<svg id="Layer_1" data-name="Layer 1" xmlns="http://www.w3.org/2000/svg" width="500" height="500" viewBox="0 0 500 500">
  <rect width="500" height="500" fill="none"/>
  <g>
    <path d="m250,135.77c-125.8,0-225.94,51.62-225.94,114.22s100.14,114.23,225.94,114.23,225.94-51.62,225.94-114.23-100.14-114.22-225.94-114.22Zm0-1.96c125.56,0,227.89,51.54,227.89,116.18s-102.34,116.18-227.89,116.18S22.11,314.65,22.11,250s102.34-116.18,227.89-116.18Z" fill-rule="evenodd"/>
    <path d="m454.99,250c0-40.75-76.59-93.28-204.99-93.28S45.01,209.25,45.01,250s76.59,93.28,204.99,93.28,204.99-52.53,204.99-93.28h0Zm1.96,0c0,42.77-78.75,95.24-206.95,95.24s-206.95-52.46-206.95-95.24,78.76-95.23,206.95-95.23,206.95,52.47,206.95,95.24h0Zm-201.72-104.73c.09,2.89-2.18,5.31-5.07,5.4-2.89.09-5.31-2.18-5.4-5.07,0-.11,0-.22,0-.33.09-2.89,2.51-5.16,5.4-5.07,2.76.09,4.98,2.31,5.07,5.07Zm-17.29.15c.18,2.89-2.01,5.37-4.9,5.56-2.89.18-5.37-2.01-5.56-4.9,0-.1-.01-.19-.01-.29-.02-2.89,2.31-5.25,5.2-5.27,2.78-.02,5.09,2.14,5.26,4.91h0Zm-17.28.81c.27,2.88-1.84,5.44-4.72,5.71s-5.44-1.84-5.71-4.72c0-.09-.01-.17-.02-.26-.13-2.89,2.11-5.34,5-5.47,2.79-.13,5.19,1.96,5.45,4.74h0Zm-17.24,1.42c.35,2.87-1.69,5.49-4.56,5.84-2.87.35-5.49-1.69-5.84-4.56h0c-.35-2.87,1.69-5.49,4.56-5.84,2.87-.35,5.49,1.69,5.84,4.56Z" fill-rule="evenodd"/>
    <path d="m186.27,149.89c.48,2.85-1.44,5.55-4.29,6.04s-5.55-1.44-6.04-4.29c0-.04-.01-.07-.02-.11-.42-2.86,1.56-5.52,4.42-5.94,2.82-.42,5.45,1.5,5.93,4.31h0Zm-17.05,2.93c.62,2.83-1.16,5.62-3.99,6.24-2.83.62-5.62-1.16-6.24-3.99,0-.03-.01-.05-.02-.08-.58-2.84,1.25-5.6,4.09-6.18,2.8-.57,5.54,1.21,6.16,4.01Zm-16.89,3.75c.82,2.77-.76,5.69-3.53,6.51-2.77.82-5.69-.76-6.51-3.53-.03-.09-.05-.18-.07-.27-.67-2.81,1.06-5.64,3.88-6.31,2.71-.65,5.45.94,6.24,3.6h0Zm-16.66,4.65c.89,2.75-.61,5.7-3.36,6.6-2.75.89-5.7-.61-6.6-3.36h0c-.89-2.75.61-5.7,3.36-6.6,2.75-.89,5.7.61,6.6,3.36Zm-16.35,5.62c1.11,2.67-.16,5.74-2.83,6.85-2.67,1.11-5.74-.16-6.85-2.83-.04-.09-.07-.18-.1-.27-.96-2.73.47-5.72,3.2-6.68,2.62-.93,5.51.36,6.58,2.93h0Zm-16.02,6.53c1.34,2.57.34,5.73-2.22,7.07s-5.73.34-7.07-2.22c-.04-.08-.08-.17-.12-.25-1.2-2.63-.03-5.74,2.6-6.94,2.53-1.15,5.53-.12,6.81,2.35Zm-15.46,7.77c1.52,2.46.76,5.69-1.7,7.21-2.46,1.52-5.69.76-7.21-1.7-.02-.04-.05-.08-.07-.12-1.46-2.5-.61-5.71,1.89-7.16,2.45-1.43,5.6-.65,7.09,1.77h0Zm-14.65,9.19c1.78,2.28,1.39,5.57-.89,7.35-2.28,1.78-5.57,1.39-7.35-.89-.08-.1-.15-.2-.23-.31-1.61-2.4-.97-5.66,1.43-7.27,2.28-1.53,5.35-1.04,7.04,1.12h0Zm-13.68,10.59c2.05,2.05,2.05,5.36,0,7.41s-5.36,2.05-7.41,0h0c-2.05-2.05-2.05-5.36,0-7.41s5.36-2.05,7.41,0h0Zm-11.88,12.57c2.42,1.59,3.09,4.83,1.51,7.25-1.59,2.42-4.84,3.09-7.25,1.51-.09-.06-.17-.12-.26-.18-2.32-1.73-2.8-5.01-1.07-7.33,1.66-2.22,4.76-2.77,7.07-1.25Zm-9.32,14.61c2.74.94,4.19,3.92,3.25,6.66s-3.92,4.19-6.66,3.25h0c-2.74-.94-4.19-3.92-3.25-6.66.94-2.74,3.92-4.19,6.66-3.25Zm216.92,126.62c0,2.89-2.35,5.24-5.24,5.24s-5.24-2.35-5.24-5.24,2.35-5.24,5.24-5.24,5.24,2.35,5.24,5.24Zm-17.3-.15c-.1,2.89-2.53,5.15-5.42,5.05s-5.15-2.53-5.05-5.42,2.53-5.15,5.42-5.05,5.15,2.53,5.05,5.42Zm-17.28-.81c-.18,2.89-2.66,5.08-5.55,4.9-2.89-.18-5.08-2.66-4.9-5.55,0-.03,0-.06,0-.09.23-2.88,2.75-5.04,5.63-4.81,2.85.22,4.99,2.69,4.82,5.54h0Zm-17.24-1.42c-.3,2.88-2.87,4.97-5.75,4.68s-4.97-2.87-4.68-5.75c0-.07.02-.14.03-.21.41-2.86,3.07-4.85,5.93-4.44,2.78.4,4.76,2.92,4.47,5.72h0Zm-17.15-2.25c-.41,2.86-3.07,4.85-5.93,4.44s-4.85-3.07-4.44-5.93c0-.05.01-.1.02-.15.49-2.85,3.2-4.76,6.05-4.27,2.79.48,4.7,3.1,4.29,5.91h0Zm-17.05-2.93c-.53,2.85-3.26,4.73-6.1,4.2-2.85-.53-4.73-3.26-4.2-6.1.02-.09.04-.18.06-.28.68-2.81,3.51-4.54,6.32-3.87,2.71.65,4.43,3.31,3.92,6.04h0Zm-16.89-3.76c-.67,2.81-3.5,4.55-6.31,3.88s-4.55-3.5-3.88-6.31c.02-.09.05-.18.07-.27.82-2.77,3.74-4.36,6.51-3.53,2.67.79,4.25,3.53,3.6,6.24h0Zm-16.66-4.65c-.89,2.75-3.85,4.26-6.6,3.36-2.75-.89-4.26-3.85-3.36-6.6s3.85-4.26,6.6-3.36c2.75.89,4.26,3.85,3.36,6.6h0Zm-16.35-5.62c-.96,2.73-3.96,4.16-6.68,3.2-2.73-.96-4.16-3.96-3.2-6.68.03-.09.07-.18.1-.27,1.11-2.67,4.18-3.94,6.85-2.83,2.57,1.07,3.86,3.96,2.93,6.58h0Zm-16.02-6.53c-1.27,2.6-4.4,3.68-7,2.41-2.6-1.27-3.68-4.4-2.41-7s4.4-3.68,7-2.41c2.6,1.27,3.68,4.4,2.41,7h0Zm-15.46-7.77c-1.49,2.48-4.71,3.28-7.18,1.79s-3.28-4.71-1.79-7.18c1.48-2.49,4.69-3.31,7.17-1.83,2.49,1.48,3.31,4.69,1.83,7.17,0,.02-.02.03-.03.05h0Zm-14.65-9.19c-1.66,2.37-4.92,2.95-7.29,1.3-2.37-1.66-2.95-4.92-1.3-7.29.04-.05.08-.11.12-.16,1.75-2.31,5.03-2.77,7.34-1.02,2.25,1.7,2.75,4.87,1.14,7.18h0Zm-13.69-10.59c-2,2.09-5.32,2.16-7.41.16-2.09-2-2.16-5.32-.16-7.41.05-.06.11-.11.17-.17,2.09-2,5.41-1.92,7.41.17,1.94,2.03,1.94,5.22,0,7.24h0Zm-11.89-12.58c-2.32,1.73-5.6,1.25-7.33-1.07-1.73-2.32-1.25-5.6,1.07-7.33.08-.06.17-.12.26-.18,2.42-1.59,5.67-.91,7.25,1.51,1.52,2.32.97,5.41-1.25,7.07Zm-9.32-14.61c-2.73.94-5.71-.51-6.65-3.25s.51-5.71,3.25-6.65c2.73-.97,5.72.45,6.69,3.18.97,2.73-.45,5.72-3.18,6.69-.03.01-.07.02-.1.03h0Zm-4.58-16.65c-2.89.1-5.31-2.16-5.41-5.05s2.16-5.31,5.05-5.41h0c2.89-.1,5.31,2.16,5.41,5.05s-2.16,5.31-5.05,5.41Zm432.89-10.47c2.89.1,5.15,2.52,5.05,5.41s-2.52,5.15-5.41,5.05-5.15-2.52-5.05-5.41,2.52-5.15,5.41-5.05h0Zm-1.54,17.22c2.74.91,4.23,3.88,3.32,6.62-.91,2.74-3.88,4.23-6.62,3.32-.03-.01-.07-.02-.1-.04-2.73-.97-4.15-3.96-3.18-6.69.96-2.69,3.88-4.11,6.59-3.21h0Zm-6.71,15.93c2.42,1.59,3.09,4.83,1.51,7.25-1.59,2.42-4.83,3.09-7.25,1.51-.09-.06-.17-.12-.26-.18-2.32-1.73-2.8-5.01-1.07-7.33,1.66-2.22,4.76-2.77,7.07-1.25Zm-10.49,13.75c2.05,2.05,2.05,5.36,0,7.4s-5.36,2.05-7.4,0-2.05-5.36,0-7.4c2.05-2.05,5.36-2.05,7.4,0h0Zm-12.62,11.84c1.75,2.3,1.3,5.59-1,7.34-2.3,1.75-5.59,1.3-7.34-1-.05-.06-.09-.12-.13-.18-1.65-2.38-1.06-5.64,1.32-7.29,2.3-1.6,5.46-1.1,7.15,1.13Zm-14.15,9.95c1.49,2.48.69,5.69-1.79,7.18s-5.69.69-7.18-1.79c-1.49-2.48-.69-5.69,1.79-7.18,2.48-1.49,5.69-.69,7.18,1.79,0,0,0,0,0,0Zm-15.02,8.57c1.27,2.6.19,5.73-2.4,7,0,0,0,0-.01,0-2.64,1.19-5.74,0-6.93-2.63-1.14-2.53-.11-5.5,2.34-6.79,2.6-1.27,5.73-.19,7,2.41h0Zm-15.65,7.37c1.06,2.69-.26,5.73-2.95,6.79-2.69,1.06-5.73-.26-6.79-2.95-.01-.03-.03-.06-.04-.1-1.01-2.71.37-5.72,3.08-6.73,2.67-.99,5.65.33,6.7,2.98h0Zm-16.17,6.14c.9,2.75-.61,5.7-3.36,6.6-2.75.9-5.7-.61-6.6-3.36s.61-5.7,3.36-6.6c2.75-.9,5.7.61,6.6,3.36h0Zm-16.51,5.17c.75,2.79-.91,5.66-3.7,6.41s-5.66-.91-6.41-3.7h0c-.67-2.81,1.06-5.64,3.88-6.31,2.71-.65,5.45.94,6.24,3.6h0Zm-16.76,4.29c.65,2.82-1.1,5.63-3.92,6.29-2.82.65-5.63-1.1-6.29-3.92-.01-.06-.03-.13-.04-.19-.55-2.84,1.31-5.59,4.15-6.14,2.77-.53,5.46,1.21,6.1,3.96h0Zm-16.95,3.47c.47,2.85-1.46,5.55-4.31,6.03-2.85.47-5.55-1.46-6.03-4.31,0-.02,0-.05-.01-.07-.43-2.86,1.54-5.53,4.4-5.96,2.83-.43,5.48,1.5,5.95,4.32h0Zm-17.1,2.61c.35,2.87-1.69,5.48-4.56,5.83-2.87.35-5.48-1.69-5.83-4.56-.35-2.87,1.68-5.48,4.55-5.83h.01c2.87-.35,5.48,1.68,5.83,4.55h0Zm-17.19,1.96c.2,2.88-1.97,5.38-4.85,5.59h-.01c-2.89.2-5.39-1.97-5.59-4.86-.2-2.89,1.97-5.39,4.86-5.59,2.89-.2,5.39,1.97,5.59,4.86h0Zm-17.26,1.18c.18,2.89-2.01,5.37-4.9,5.56-2.89.18-5.37-2.01-5.56-4.9,0-.1-.01-.19-.01-.29-.02-2.89,2.31-5.25,5.2-5.27,2.78-.02,5.09,2.14,5.26,4.91h0Zm-10.46-208.8c.1-2.89,2.52-5.15,5.41-5.05,2.89.1,5.15,2.52,5.05,5.41-.1,2.89-2.52,5.15-5.41,5.05-2.89-.1-5.15-2.52-5.05-5.41h0Zm17.28.81c.18-2.89,2.66-5.08,5.55-4.9s5.08,2.66,4.9,5.55c0,.03,0,.06,0,.09-.23,2.88-2.75,5.04-5.63,4.81-2.85-.22-4.99-2.69-4.82-5.54h0Zm17.24,1.42c.35-2.87,2.97-4.91,5.84-4.56s4.91,2.97,4.56,5.84-2.97,4.91-5.84,4.56-4.91-2.97-4.56-5.84h0Zm17.15,2.25c.42-2.86,3.08-4.84,5.94-4.42,2.86.42,4.84,3.08,4.42,5.94,0,.04-.01.07-.02.11-.48,2.85-3.19,4.77-6.04,4.29-2.81-.48-4.72-3.11-4.31-5.93h0Zm17.04,2.93c.52-2.85,3.25-4.73,6.09-4.21s4.73,3.25,4.21,6.09c-.02.1-.04.2-.06.29-.68,2.81-3.52,4.54-6.33,3.85-2.7-.66-4.42-3.3-3.92-6.03h0Zm16.89,3.75c.75-2.8,3.62-4.45,6.42-3.7,2.79.75,4.45,3.62,3.7,6.42h0c-.75,2.8-3.62,4.45-6.42,3.7s-4.45-3.62-3.7-6.42h0Zm16.66,4.65c.83-2.77,3.75-4.34,6.52-3.51,2.77.83,4.34,3.75,3.51,6.52-.02.08-.05.15-.07.22-.96,2.73-3.95,4.17-6.68,3.21-2.64-.93-4.09-3.77-3.29-6.45h0Zm16.36,5.62c.96-2.73,3.96-4.16,6.68-3.19s4.16,3.96,3.19,6.68c-.03.09-.07.18-.1.26-1.11,2.67-4.18,3.94-6.85,2.83-2.57-1.07-3.86-3.96-2.93-6.58h0Zm16.01,6.53c1.27-2.6,4.4-3.68,7-2.41,2.6,1.27,3.68,4.4,2.41,7h0c-1.27,2.6-4.4,3.68-7,2.41-2.6-1.27-3.68-4.4-2.41-7Zm15.46,7.77c1.43-2.52,4.63-3.4,7.14-1.97,2.52,1.43,3.4,4.63,1.97,7.14-.04.07-.09.15-.13.22-1.55,2.44-4.79,3.17-7.23,1.62-2.36-1.5-3.13-4.58-1.75-7.01h0Zm14.65,9.19c1.66-2.37,4.92-2.95,7.29-1.3,2.37,1.66,2.95,4.92,1.3,7.29-.04.05-.08.11-.12.16-1.74,2.31-5.03,2.77-7.33,1.02-2.25-1.7-2.75-4.86-1.14-7.17h0Zm13.68,10.59c2.05-2.04,5.36-2.04,7.4,0,2.04,2.05,2.04,5.36,0,7.4-2.04,2.04-5.35,2.04-7.4,0-2.05-2.04-2.05-5.36,0-7.4h0Zm11.88,12.57c2.32-1.73,5.6-1.25,7.33,1.07s1.25,5.6-1.07,7.33c-.08.06-.17.12-.26.18-2.42,1.59-5.67.91-7.25-1.51-1.52-2.32-.97-5.41,1.25-7.07h0Zm9.32,14.61c2.73-.94,5.71.51,6.65,3.25.94,2.73-.51,5.71-3.25,6.65h0c-2.73.94-5.71-.51-6.65-3.25-.94-2.73.51-5.71,3.25-6.65h0Zm-349.9-5.52c2.14,1.23,3.5,2.58,4.03,3.06.97.88,2.64,2.41,4.15,4.11,1.31,1.48,2.39,2.87,3.14,3.99,2.25,3.34,3.3,7.25,3.3,10.45,0,4.44-2.36,10.97-6.34,13.83l2.73,2.73c3.09,2.89,5.34,7.33,5.34,13.61,0,8.67-6.93,19.52-17.24,19.52h-24.13l-6.28-6.26v-67.42h22.41c3.55,0,6.5.92,8.9,2.4h0Zm-11.24,41.12v13.26h.62c4.38,0,6.89-4.81,6.89-9.76,0-1.23-.18-2.41-.49-3.5h-7.02Zm0-26.61v9.64c3.69-.48,5.79-3.4,5.79-7.91,0-.6-.04-1.17-.12-1.71l-.5-.02h-5.17Zm-8.23,41.83v-23.43h8.85c5.19,0,8.85,5.95,8.85,11.72,0,5.17-2.7,11.71-8.85,11.71h-8.85Zm0-30.16v-19.88h7.13c4.72,0,8.85,3.61,8.85,9.94,0,5.73-3.12,9.94-8.85,9.94h-7.13,0Zm27.57,19.33c0-7.62-3.56-12.05-7.6-14.25l-2.98-1.63,2.9-1.77c3.53-2.15,5.95-8.27,5.95-12.52,0-6.47-4.7-15.79-15.28-15.79h-20.45v63.51h22.17c8.83,0,15.28-9.53,15.28-17.56h0Zm28.83-47.9l6.27,6.26v48.47l.02.44.6.02c4.1,0,6.89-3.08,6.89-6.72v-48.47h13.79l6.27,6.26v48.47c0,11.31-9.52,20.56-20.68,20.56-4.83,0-9.84-2-14.79-5.7-3.46-2.58-6.88-6.99-7.51-8.26-2.99-3.62-4.64-8.17-4.65-12.87v-48.47h13.8,0Zm15.74,1.96v46.51c0,4.7-3.65,8.68-8.85,8.68s-8.85-3.98-8.85-8.68v-46.51h-9.88v46.51c0,10.2,8.62,18.61,18.73,18.61s18.72-8.4,18.72-18.61v-46.51h-9.88Zm57.73-1.5c1.73.79,3.22,1.74,4.57,2.77,1.71,1.31,3.52,2.82,5.39,4.99,1.46,1.7,2.73,3.55,3.81,5.52,1.73,3.18,2.57,7.08,2.57,11.49v1.4h-12.06l-6.28-6.26v-1.4c0-.51-.04-1-.11-1.48-.68-.19-1.39-.26-2.1-.21-4.12.36-7.03,3.87-7.03,7.95v29.51c0,.4.03.8.1,1.19.22.04.43.06.65.09,4.89.43,8.3-2.53,8.48-7.17h-.69l-6.27-6.26v-10.64h19.03l6.27,6.26v16.53c0,12.26-6.52,20.56-20.55,20.56-5.09,0-9.94-1.97-14.93-5.7-3.43-2.56-6.78-6.97-7.66-8.49-2.8-3.49-4.51-7.88-4.51-12.63v-29.51c0-11.31,9.65-20.56,20.82-20.56,4.14,0,7.63.72,10.49,2.06h0Zm-.06,17.94h8.16c-.19-10.98-5.97-18.05-18.59-18.05-10.12,0-18.86,8.42-18.86,18.61v29.51c0,10.19,8.74,18.61,18.86,18.61,12.83,0,18.59-7.31,18.59-18.61v-14.57h-15.12v6.73h6.97v7.84c0,6.05-4.5,10.02-10.61,9.49-5.16-.45-8.81-4.86-8.81-9.48v-29.52c0-5.06,3.6-9.44,8.81-9.9,6.05-.53,10.33,3.71,10.6,9.34h0Zm50.44,12.84l-2.7,11.94h5.12l-2.42-11.94Zm6.09,30.02h-12.88l-2.81,12.42h-14.3l-6.28-6.26,17.24-67.42h18.96l6.27,6.26,16.07,67.42h-14.75l-6.28-6.26-1.25-6.16h0Zm-7.81-48.34l6.53,32.21h-17.65l7.29-32.26,3.82.04h0Zm-9.69-10.96l-16.23,63.51h10.22l2.81-12.42h21.05l2.52,12.42h10.14l-14.61-63.51h-15.88Zm49.56,16.72h-7.51l-6.27-6.26v-12.42h41.36l6.28,6.26v12.42h-13.79v55.13h-13.79l-6.28-6.26v-48.87h0Zm1.96,46.91h9.87v-55.12h13.79v-8.51h-37.45v8.51h13.79v55.13h0,0Zm76.07-65.59l6.28,6.26v12.42h-13.79v55.13h-13.79l-6.28-6.26v-48.87h-7.51l-6.28-6.26v-12.42h41.36Zm-25.62,65.59h9.88v-55.12h13.79v-8.51h-37.45v8.51h13.79v55.13h0Zm50.02-65.59l6.28,6.26v67.42h-13.79l-6.28-6.26v-67.42h13.79Zm-1.96,1.96h-9.88v63.51h9.88v-63.5h0Zm-172.46-31.6v2.67h-6.77v-13.35h6.77v2.67h6.47v-9.55h-16.3v3.39h-6.78v-10.17h42.94c6.72,0,12.17,5.45,12.17,12.18,0,2.95-1.07,5.79-3.01,8.01,4.93,5.06,4.83,13.15-.23,18.08-2.39,2.33-5.59,3.63-8.92,3.63h-42.94v-10.17h6.78v3.39h16.3v-10.78h-6.47Zm26.34-8.01c2.97,0,4.78-2.14,4.78-4.78s-1.81-4.78-4.78-4.78h-10.94v9.55h10.94Zm0,18.79c3.37,0,5.39-2.41,5.39-5.39s-2.02-5.39-5.39-5.39h-10.94v10.78h10.94Z" fill-rule="evenodd"/>
  </g>
</svg>