<?xml version="1.0" encoding="UTF-8"?>
<svg id="Layer_1" data-name="Layer 1" xmlns="http://www.w3.org/2000/svg" width="500" height="500" viewBox="0 0 500 500">
  <rect width="500" height="500" fill="none" stroke-width="0"/>
  <g id="g279">
    <path id="Layer" d="M404.61,220.46c7.84,7.84,12.23,18.47,12.23,29.54s-4.38,21.7-12.23,29.51c-7.81,7.84-18.44,12.23-29.51,12.23h-30.58v-19.96h30.92c5.99.34,11.86-1.8,16.25-5.93,4.36-4.13,6.83-9.89,6.83-15.88s-2.47-11.75-6.83-15.88c-4.38-4.13-10.26-6.3-16.25-5.96h-34.71v63.61h-19.76v-83.51h54.14c11.07,0,21.7,4.41,29.51,12.23Z" fill="#000" stroke-width="0"/>
    <path id="path156" d="M218.9,208.23v27.97c0,.76.14,1.49.42,2.19s.7,1.32,1.21,1.86c.53.53,1.18.96,1.86,1.26.7.28,1.43.42,2.19.42h14.56v18.02h-18.13c-2.9,0-5.73-.56-8.4-1.66-2.64-1.1-5.06-2.7-7.11-4.72-2.02-2.02-3.65-4.44-4.75-7.11-1.1-2.64-1.69-5.51-1.69-8.38v-29.85h19.84Z" fill="#000" stroke-width="0"/>
    <path id="path158" d="M306.88,208.23v29.85c0,2.87-.56,5.71-1.66,8.38-1.1,2.64-2.73,5.06-4.75,7.08s-4.44,3.65-7.08,4.75-5.51,1.66-8.38,1.66h-22.12v31.79h-19.76v-49.81h38.23c.76,0,1.52-.14,2.22-.42.67-.28,1.32-.73,1.86-1.26.53-.53.96-1.15,1.24-1.86.31-.7.45-1.43.45-2.19v-27.97h19.76Z" fill="#000" stroke-width="0"/>
    <path id="path160" d="M187.08,233.95c0,1.44-.12,2.87-.37,4.27-.22,1.41-.57,2.78-1.04,4.13-.47,1.37-1.04,2.68-1.71,3.94-.69,1.26-1.48,2.45-2.36,3.57,2.98,3.82,4.83,8.38,5.34,13.18.51,4.83-.34,9.67-2.47,14.03-2.11,4.36-5.4,8.01-9.5,10.6-4.08,2.56-8.83,3.94-13.66,3.96h-46.44v-19.76l45.56-.22c1.8,0,3.51-.7,4.78-1.97s1.97-3.01,1.97-4.78-.7-3.51-1.97-4.81c-1.26-1.26-2.98-1.97-4.78-2.16h-49.56v33.81h-19.82v-83.51h70.24c3.4,0,6.77.67,9.92,1.97,3.15,1.29,5.99,3.18,8.4,5.59,2.42,2.39,4.33,5.26,5.62,8.4,1.29,3.12,1.97,6.49,1.97,9.89M160.43,241.74c1.8,0,3.51-.7,4.78-1.97s1.97-3.01,1.97-4.81-.7-3.51-1.97-4.78-2.98-1.97-4.78-2.19h-49.56v13.83h49.13l.42-.08Z" fill="#000" fill-rule="evenodd" stroke-width="0"/>
    <path id="path162" d="M249.99,381.3c-121.01,0-218.83-58.69-218.83-131.3S128.98,118.7,249.99,118.7s218.85,58.69,218.85,131.3-97.82,131.3-218.85,131.3ZM454.96,250.17c0-61.47-91.61-111.17-204.97-111.17S45.04,188.69,45.04,250.17s91.61,111.17,204.94,111.17,204.97-49.7,204.97-111.17Z" fill="#000" fill-rule="evenodd" stroke-width="0"/>
  </g>
</svg>