<?xml version="1.0" encoding="UTF-8"?>
<svg id="Layer_1" data-name="Layer 1" xmlns="http://www.w3.org/2000/svg" width="500" height="500" viewBox="0 0 500 500">
  <rect width="500" height="500" fill="none"/>
  <path id="Shape" d="m121.76,242.06h-39.11l-3.02-17.91h167.89v17.91h-4.56v-13.71h-122.64l1.44,13.71Zm-42.81-22.01h168.52v-13.13H76.75l2.17,13.13h.05Zm105.41,44.07h63.15v-9.43h-63.1v9.43h-.05Zm-109.25-61.39h39.96l-7.58-13.13h135.5v13.08h4.56v-17.64H62.72l12.36,17.68h.05Zm241.09-17.68h-63.69v26.39h63.74v-26.39h-.05Zm-224.49,101.8c1.04,1.58,2.98,3.38,9.34,5.14,3.07.77,6.5,1.53,11.28,2.57h67.61v-9.34h-89.08c.23.59.54,1.13.86,1.62h0Zm-3.88-14.25h92.06v-26.34h-96.57l4.51,26.34Zm96.48,36.94c23.59,4.65,46.64,8.93,63.19,11.5v-44.16h-63.19s0,32.66,0,32.66Zm136.22-67.48h96.8l4.42-26.39h-101.22v26.39Zm0-48.62v9.38h104.11l6.54-9.38h-110.65Zm157.24-29.23l-30.67,43.3c-3.38,18.4-12.13,65.77-13.17,70.37-2.89,13.26-4.29,21.34-30.31,27.51-34.64,8.21-113.89,24.18-153.68,30.4-39.78-6.22-118.99-22.19-153.63-30.4-26.03-6.18-27.42-14.25-30.31-27.51-.99-4.6-9.79-51.96-13.17-70.37l-30.63-43.3h455.57Zm-24.18,8.12H46.44l24.18,34.55c6.04,35.9,9.79,59,11.32,67.07,2.71,13.98,3.16,20.03,17.64,23.95,28.78,6.81,112.13,23.95,150.43,29.73,38.3-5.77,121.7-22.91,150.47-29.73,14.48-3.88,14.93-9.92,17.64-23.95,1.53-8.03,5.28-31.12,11.32-67.07l24.13-34.55h.05Zm-201.08,91.79h4.56v-13.31h120.48c-.18,1.31-1.26,10.19-1.85,13.35h38.02l3.02-17.86h-164.23s0,17.82,0,17.82Zm0,17.23h157.96l2.57-13.08h-160.53v13.08Zm63.74-57.19h-63.74v9.43h63.74v-9.43Zm-63.74,61.07h156.7c-.23.59-.5,1.13-.86,1.62-1.04,1.58-2.93,3.52-9.34,5.1-28.37,7.08-106.36,22.51-146.51,29.09,0,0,0-35.81,0-35.81Zm4.56,30.54c7.22-1.31,24.9-4.38,31.17-5.59,64.1-12.27,75.1-14.12,80.47-20.39h-111.64v25.98Z"/>
</svg>