<?xml version="1.0" encoding="UTF-8"?>
<svg id="Layer_1" data-name="Layer 1" xmlns="http://www.w3.org/2000/svg" width="500" height="500" viewBox="0 0 500 500">
  <rect width="500" height="500" fill="none"/>
  <g>
    <path d="m145.43,218.6c-4.71-1.96-9.14-1.96-13.48-2.59-5.73-.83-11.49-1.39-17.21-2.22-11.94-1.71-18.62-11.27-16.28-23.17.71-3.64,2.14-7,3.93-10.23,5.01-9.03,9.99-18.07,15.01-27.09,2.72-4.86,6.95-7.91,12.13-9.75,18.1-6.43,36.19-12.85,54.28-19.29,27.36-9.73,54.72-19.49,82.09-29.2,9.97-3.54,20.14-3.93,30.11-.43,20.02,7.05,40.08,14.04,59.8,21.88,9.54,3.8,18.34,9.46,27.45,14.3,23.34,12.42,46.67,24.86,70.01,37.28,6.13,3.27,12.31,6.44,18.37,9.83,6.57,3.67,8.22,13.7,3.23,19.29-.75.84-.85,1.62-.83,2.61.5,22.09.96,44.18,1.49,66.27.34,14.17.76,28.35,1.13,42.52.15,5.58,1.17,11.18-.15,16.71-.99,4.13-2.23,8.19-3.45,12.26-.84,2.83-2.79,4.47-5.7,5.13-11.85,2.69-23.7,5.44-35.54,8.2-2.4.56-4.65.66-7.02-.49-2.79-1.35-3.58-.79-4.38,2.34-.65,2.54-1.41,5.03-2.76,7.28-2.72,4.52-6.54,7.27-12.05,7.15-3.86-.08-7.72-.08-11.58-.22-2.98-.11-5.83-.94-7.81-3.23-1.32-1.52-2.6-1.56-4.32-1.24-19.06,3.57-38.12,7.11-57.19,10.64-25.05,4.64-50.05,9.51-75.17,13.66-4.92.82-8.03,2.71-11.17,6.17-8.77,9.67-20.06,14.05-32.93,14.71-10.53.53-20.76-1.19-30.81-4.23-1.85-.56-3.7-1.13-5.67-.95-9.66.88-19.29-.14-28.88-.82-17.82-1.27-35.45-4.13-52.79-8.46-17.44-4.34-34.45-10.01-51.01-17.05-2.56-1.09-3.89-2.65-4.16-5.3-.03-.39-.18-.77-.14-1.15.85-6.75-2.9-11.49-7.06-15.99-1.98-2.11-2.72-4.52-2.72-7.36,0-4.25.19-8.48.68-12.71.28-2.52,1.53-4.42,3.71-5.52,1.76-.88,2.25-2.14,2.19-3.96-.09-2.61,0-5.22-.02-7.81-.01-2.47.39-4.79,2.06-6.76,1.07-1.25,1.09-2.86,1.21-4.39.24-2.79.74-5.6.54-8.36-.31-4.32,1.95-6.98,4.97-9.48,10.89-9.03,22.61-16.8,34.84-23.83,5.27-3.03,10.68-5.79,16.08-8.59,3.71-1.93,7.63-3.33,11.83-3.61,2.46-.16,4.38-1.17,6.24-2.64,12.5-9.86,25.01-19.7,37.54-29.53.37-.29.88-.4,1.33-.6h.02Zm239.23-71.87c-.1.25-.2.49-.31.74-4.63-1.61-9.25-3.23-13.88-4.84-7.56-2.63-15.13-5.27-22.71-7.85-.86-.29-2.01-1.27-2.71.26-1.04,2.28.25,5.5,2.57,6.43,40.03,16.07,80.06,32.12,120.11,48.16.9.36,1.96,1.36,2.9.28.84-.96,1.05-2.26.76-3.55-.54-2.46-2.49-3.55-4.49-4.59-9.92-5.18-19.84-10.35-29.76-15.55-20.01-10.47-39.99-20.98-60.03-31.39-11.29-5.86-22.32-12.29-34.46-16.41-8.95-3.04-17.79-6.43-26.68-9.63-7.08-2.55-14.12-5.26-21.28-7.54-15.09-4.81-25.81.12-32.26,14.57-.16.35-.32.7-.45,1.07-4.59,11.78-9.17,23.56-13.77,35.33-1.6,4.1-1.53,8.38-.68,12.55.96,4.72,3.88,7.82,8.8,8.9,8.2,1.8,16.36,3.73,24.55,5.6,14.39,3.29,28.79,6.54,43.18,9.88,5.57,1.29,8.7,5,8.75,10.02.26,24.7.52,49.4.79,74.1.05,3.83.05,3.93,3.97,3.97,2.4.02,3.45.81,3.46,3.37.03,8.11.31,16.2.42,24.3.06,4.24,0,4.38-4.31,4.32-2.49-.03-3.19.95-3.03,3.27.25,3.65.36,7.33.43,10.99.22,12.64.43,25.27.5,37.92.01,2.43.79,2.96,3.07,2.55,17.95-3.2,35.9-6.4,53.88-9.4,3.75-.62,6.12-2.53,7.71-5.76,1.5-3.03,3.02-6.06,5.1-8.73,1.86-2.39,3.93-4.59,7.18-4.97,3.55-.41,7.1-.67,10.68-.65,2.68.01,4.6,1.12,6.1,3.24,1.08,1.52,1.84,3.21,2.26,4.98.49,2.05,1.41,2.51,3.5,2,9.74-2.4,19.53-4.64,29.3-6.89,2.48-.57,3.92-1.92,4.81-4.41,2.86-8.1,3.33-16.36,2.55-24.81-.17-1.83-1.03-2.28-2.63-2.2-3.37.16-6.75.34-10.11.39-5.45.08-5.3.37-5.33-5.06-.03-4.79-2.49-7.04-7.22-7.09-2.51-.02-5.02-.05-7.53.05-4.07.15-5.7,1.86-5.82,5.95-.02.87-.01,1.73-.02,2.61-.05,4.04-.16,4.14-4.31,4.21-14.57.26-29.14.45-43.7.82-2.3.06-3.08-.62-3.07-2.88.05-7.81.02-15.64-.1-23.45-.03-2.34.94-3.06,3.12-2.96,6.55.28,13.11.48,19.66.7,21.01.73,42.03,1.43,63.04,2.22,2.51.09,3.45-.63,3.33-3.24-.43-9.45-.74-18.89-1.01-28.34-.48-16.68-.94-33.37-1.27-50.05-.06-2.81-1.03-4.2-3.73-5.23-40.21-15.34-80.38-30.79-120.55-46.25-9.57-3.69-8.2-2.37-8.29-12.12-.05-5.5,4.09-8.31,9.2-6.25,8.58,3.48,17.14,7.02,25.72,10.53,4.71,1.93,9.41,3.87,14.12,5.79h-.03Zm-227.03,66.95c11.33-6.55,23.79-9.15,36.42-11.04,14.63-2.2,29.37-2.79,44.13-2.91,1.16,0,2.34,0,3.46.23,4.54.87,5.86,3.97,3.41,7.85-.31.49-.65.96-.99,1.43-8.74,12.26-17.54,24.47-26.18,36.8-2.69,3.83-6.24,5.61-10.74,5.82-13.01.58-26.01,1.19-39.02,1.67-20.24.74-40.45,2.08-60.64,3.56-8.46.62-16.29,2.65-23.47,7.21-2.52,1.6-5.22,2.93-7.81,4.4-10.84,6.16-21.24,12.97-31.26,20.38-.98.73-2.66,1.67-1.85,2.86,1.25,1.81,1.95,4.4,5.13,4.38,15.06-.09,30.11-.03,45.16,0,1.42,0,2.59-.36,3.67-1.34,2.46-2.22,5.44-3.23,8.74-3.31,15.63-.36,31.25-.74,46.86-1.04,5.82-.11,8.07,2.09,8.1,7.93.01,4.24-.26,8.48-.33,12.72-.11,6.96-1.58,8.42-8.62,8.44-33.09.05-66.17-.26-99.17-3.03-5.26-.44-10.61-.63-15.74-2.12-1.78-.52-2.12.34-2.15,1.63-.08,2.8-.07,5.6-.07,8.39,0,7.11.24,7.4,7.11,9.15.46.11.94.19,1.42.29,13.44,2.83,27.08,4.05,40.73,5.17,12.3,1.01,24.61,1.95,36.93,2.66,9.52.56,19.04,1.58,28.61,1.18,12.04-.49,24.08-1.03,36.1-2.06,1.83-.16,2.98-.83,4.03-2.29,6.53-9.11,15.48-14.29,26.49-16.02,17.36-2.73,31.6,7.67,34.1,24.95,1.36,9.43.66,18.85-.57,28.23-.46,3.57.24,4.38,3.65,3.75,20.78-3.81,41.55-7.68,62.32-11.5,1.77-.33,2.71-1.09,2.89-2.97.5-5.08,1.2-10.15,1.69-15.24,1.85-19.03,3.13-38.07.83-57.15-3.49-28.85-8.72-57.4-14.79-85.8-.9-4.22-3.44-6.41-7.6-7.21-11.55-2.25-23.12-4.41-34.78-6.06-7.44-1.05-14.87-2.72-22.41-2.43-9.34.36-18.65,1.33-27.91,2.79-14.13,2.23-28.12,4.99-41.47,10.35-5.4,2.17-10.35,5.06-14.43,9.3v.02Zm104.53-109.36c-1.1.33-1.81.52-2.52.77-42.96,15.64-85.93,31.26-128.9,46.91-3.02,1.1-5.39,2.98-6.88,5.86-5.26,10.09-10.5,20.19-15.77,30.29-1.15,2.18-1.7,4.5-1.93,6.92-.52,5.51,3,10.51,8.35,11.62-.31-.52-.51-.92-.75-1.3-2.93-4.68-2.23-6.6,3.11-7.99,23.13-6.08,46.29-12.11,69.43-18.15,16.99-4.43,33.97-8.88,50.97-13.26,2.01-.52,2.97-1.26,2.51-3.56-.68-3.41.24-6.74,1.38-9.92,1.69-4.72,3.47-9.42,5.39-14.05,4.73-11.38,8.71-23.11,15.64-34.12h-.01Zm-102.05,288.87c8.97-.98,11.99-3.73,14.04-12.27,1.71-7.13,3.67-14.19,6.2-21.08,1.51-4.1,3.3-8.08,5.57-12.26-7.53.53-14.42,1.13-21.34,1.49-14.36.74-28.7.57-43.07-.4-15.49-1.03-30.96-2.19-46.35-4.13-12.63-1.6-25.21-3.56-37.5-6.97-2.48-.69-5.15-1.1-6.66-3.64-.79-1.33-1.62-.62-2.32.09-1.15,1.18-1.44,2.7-1.47,4.27-.05,3.19-.09,6.36-.08,9.55,0,.9-.26,1.95.82,2.63.16-.27.41-.5.43-.74.11-1.34.22-2.69.25-4.04.08-3.16.24-3.3,3.4-2.54.46.11.93.24,1.39.36,22.81,5.93,45.97,10.05,69.44,12.21,17.56,1.62,35.21,2.25,52.85,2.62,2.8.06,5.6.24,8.31.94,4.73,1.22,6.5,3.9,5.9,8.74-.5,4.01-1.1,8.03-1.52,12.05-.59,5.73-2.7,10.44-8.29,13.1h0Zm37.96-185.42c1.44,0,2.88-.05,4.32.01,1.03.03,2.43-.24,2.87.85.41,1-.87,1.59-1.53,2.22-11.53,11.24-23.1,22.45-34.63,33.69-.85.83-1.95,1.5-2.35,3.06,3.52-.19,6.77-.39,10.04-.54,8.28-.4,16.57-.69,24.83-1.19,4.69-.28,8.87-1.86,11.65-6,6.83-10.17,13.67-20.32,20.48-30.5,1.72-2.59,1.2-3.7-1.87-3.81-11.29-.41-22.54-.06-33.78,2.21h-.02Zm-71.14,107.03h4.34c6.37,0,12.73-.03,19.11,0,2.65.01,3.82-.96,3.61-3.83-.26-3.65-.06-7.33-.1-11-.03-3.19-.78-4-3.88-4.08-3.19-.08-6.37.07-9.55-.03-2-.06-2.64.82-2.82,2.72-.32,3.45-.88,6.88-1.43,10.31-.12.82-.27,2.05-1.26,2.05-1.29,0-1.24-1.38-1.27-2.25-.16-3.37-.2-6.75-.18-10.13,0-1.76-.48-2.71-2.45-2.65-8.2.2-16.4.26-24.58.53-3.3.11-5.24,2.08-5.77,5.42-.42,2.66-.74,5.35-1.03,8.03-.42,3.86.46,4.86,4.41,4.89,7.62.05,15.24.01,22.87.01h-.01Zm114.16,45.84c-.33-9.01-2.02-17.26-7.43-24.3-3.82-4.97-8.63-8.38-15.23-8.03-8.04.43-13.22,5.26-17.13,11.76-5.74,9.55-6.74,19.98-5.3,30.76.74,5.52,2.73,10.66,5.95,15.24,7.89,11.2,20.21,12.11,29.45,2.02,7.17-7.84,9.24-17.58,9.67-27.45h.01Zm-200.47,3.83c2.35,2.43,4.75,3.37,7.22,4.18,7.06,2.34,14.28,4.09,21.56,5.56,20.82,4.17,41.74,7.51,63.08,7.14,3.73-.07,7.4-.54,10.95-1.87-34.6-1.24-68.64-6.07-102.81-15.02h0Zm360.9-11.6c2.54-.58,3.83-1.98,5.08-3.46,3.23-3.8,7.01-6.55,12.29-6.55,2.21,0,4.41-.31,6.62-.43.73-.03,1.5.01,1.16-1.03-.2-.61-.31-1.71-1.47-1.09-3.02,1.61-6.36,1.07-9.56,1.45-.96.11-1.76-.19-2.18-1.07-1.29-2.7-2.68-1.73-4.09-.15-3.19,3.54-5.32,7.74-7.86,12.33h.01Zm.65,4.47c1.13,1.95,2.54,2.46,4.09,2.68,5.05.7,10.79-5.67,9.75-10.76-.14-.63-.39-1.09-1.09-1.1-.65,0-1.13.35-1.32.94-.4,1.28-.63,2.62-1.07,3.89-1.61,4.72-4.06,5.98-8.82,4.6-.35-.1-.71-.12-1.56-.25h.01Zm-364.82-52.27c0,.73-.02,2.18.01,3.62.01.61.32,1.12.96,1.29.68.18,1.22-.14,1.34-.76.75-3.97,1.34-7.97,1.05-12.03-.06-.79-.74-1.43-1.59-1.44-1.17-.02-.96,1-1.04,1.7-.25,2.3-.45,4.6-.75,7.62h.01Z"/>
    <path d="m330.63,157.92c0,4.52.01,9.06,0,13.58-.02,4.96-2.73,7.26-7.67,6.13-5.16-1.18-10.25-2.69-15.38-4.06-7.17-1.93-14.33-3.87-21.49-5.79-4.63-1.25-7.15-4.03-7.21-8.86-.14-11.27-.09-22.55.05-33.82.05-3.69,2.66-5.09,6.63-3.66,6.98,2.52,13.91,5.16,20.86,7.77,5.86,2.2,11.72,4.41,17.59,6.61,5.47,2.04,6.62,3.67,6.62,9.39v12.72h-.01Zm-5.37-1.15h-.03c0-3.86-.06-7.72.02-11.58.05-2.38-1.04-3.79-3.19-4.6-11.08-4.23-22.15-8.49-33.23-12.71-1.29-.49-2.99-1.3-3.69.67-.67,1.88,1.16,2.14,2.36,2.59,9.84,3.67,19.7,7.35,29.56,10.98,5.39,1.98,5.4,1.94,5.41,7.81,0,6.36,0,12.73.06,19.09,0,.96-.41,2.46,1.17,2.49,1.6.02,1.55-1.45,1.56-2.6.03-4.05.01-8.11.01-12.16h-.01Z"/>
    <path d="m342.53,247.5v-78.42c0-1.54-.03-3.11.26-4.6.9-4.52,4.5-6.69,8.84-5.18,7.11,2.46,14.16,5.08,21.22,7.69,4.42,1.63,5.48,5.43,5.69,9.55.19,3.86.08,7.72.1,11.58.22,25.94.19,51.9.74,77.84.52,24.89.14,49.78.61,74.66.02,1.25-.08,2.51-.19,3.75-.5,5.28-3.07,7.99-8.36,8.74-5.73.81-11.46,1.55-17.2,2.32-6.69.88-10.34-2.14-10.53-8.95-.24-7.9-.42-15.81-.43-23.72-.06-25.08-.02-50.16-.02-75.26h-.74.01Zm5.3,20.72h.67v76.38c0,.77,0,1.54.08,2.31.31,3.06,1.47,4.1,4.57,3.74,6.03-.71,12.04-1.56,18.06-2.38,2.19-.29,3.48-1.59,3.72-3.79.14-1.25.19-2.51.17-3.75-.22-21.9-.02-43.78-.49-65.68-.45-21.6-.11-43.2-.63-64.8-.26-10.9-.12-21.79-.2-32.7-.01-2.35-.07-4.94-2.65-5.94-6.84-2.64-13.74-5.09-20.65-7.53-1.71-.6-2.83.16-3.02,2.01-.1,1.05-.1,2.12-.09,3.17.16,16.29.01,32.59.37,48.89.37,16.68.08,33.37.08,50.06h.01Z"/>
    <path d="m430.25,225.67v-15.04c0-.86.09-1.73.23-2.59.52-3.36,1.9-4.42,5.18-3.55,6.15,1.62,12.26,3.44,18.37,5.18,2.22.63,4.43,1.34,6.66,1.96,2.68.76,4.12,2.56,4.13,5.26.07,10.7.1,21.41,0,32.11-.03,3.56-1.92,5.05-5.22,4.46-7.69-1.38-15.36-2.8-23.02-4.34-4.22-.85-5.94-2.99-6-7.25-.08-5.4-.02-10.81-.02-16.2h-.32.01Zm30.45,6.96h.03c0-4.24-.16-8.48.06-12.71.16-3.08-1.17-4.59-3.99-5.39-6.4-1.8-12.76-3.74-19.13-5.6-1.07-.32-2.57-1.02-2.96.51-.41,1.6,1.41,1.53,2.39,1.83,6.09,1.83,12.18,3.66,18.32,5.28,2.39.63,3.23,1.83,3.21,4.27-.09,8.67,0,17.34.07,26.01,0,.79-.34,2.09.81,2.15,1.36.08,1.18-1.29,1.18-2.19.03-4.72.02-9.45.02-14.16h-.01Z"/>
    <path d="m421.44,214.79c0,3.28.08,6.57-.02,9.83-.1,3.63-1.87,5.26-5.41,4.55-8.4-1.71-16.77-3.63-25.13-5.58-2.43-.57-3.67-2.36-3.78-4.86-.29-7.13-.62-14.26-.35-21.4.19-5.06,2.02-6.38,6.84-5.03,7.71,2.15,15.39,4.4,23.06,6.67,3.66,1.09,4.74,2.63,4.79,6.57.03,3.08,0,6.17,0,9.26h-.01.01Zm-5.35,10c.96-1.17.74-2.36.75-3.46.05-5.1-.15-10.23.15-15.32.16-2.71-.88-3.88-3.27-4.54-6.69-1.85-13.35-3.8-20.04-5.65-.82-.23-1.76-.88-2.64.01.46,1.38,1.68,1.29,2.63,1.56,6.2,1.79,12.4,3.59,18.64,5.26,2.12.57,2.98,1.63,2.94,3.87-.1,5.1-.02,10.22.03,15.32,0,.9-.35,1.93.79,2.93h.01Z"/>
    <path d="m433.58,318.53c0-5.3-.05-10.6.01-15.9.06-5.18,1.96-7.09,7.18-7.35,9.37-.48,10.81.93,10.9,10.15.09,8.86-.2,17.72.36,26.58.34,5.41-1.24,7.26-6.55,8.33-1.51.31-3.03.6-4.54.87-4.79.85-7.01-.74-7.19-5.64-.22-5.68-.05-11.36-.05-17.05h-.12Zm15.09-4.92c0-2.51.01-5.01,0-7.52-.05-7.98,1.19-8.06-8.78-7.74-2.2.07-3.32,1.21-3.31,3.49.05,11.27.08,22.55.09,33.82,0,2.27,1.07,3.19,3.28,2.79,1.7-.31,3.39-.82,5.11-.96,3.04-.27,4.09-1.87,4.03-4.81-.15-6.35-.66-12.7-.41-19.07h-.01Z"/>
    <path d="m315.01,321.29c-.4-3.23-.82-6.47-1.17-9.72-.19-1.8-1.12-2.44-2.89-2.38-12.44.36-24.88.67-37.32,1-.29,0-.58.05-.86.05-11.58.23-23.15.42-34.72.69-2.12.05-3.17-.53-3.24-2.88-.27-9.64-.74-19.28-1.04-28.91-.11-3.65.09-3.79,3.66-3.78,20.94.05,41.89.1,62.82.16,3.83.01,4.01.24,4.3,4.07.15,1.92.29,3.87.69,5.74.61,2.86,2.19,4.96,5.36,5.24,2.93.26,4.5,1.59,4.71,4.71.57,8.64,1.37,17.28-.32,26.01h.02Z"/>
    <path d="m233.12,252.14c-1.03-5.18,1.2-10.18,4.56-15.07,5.57-8.11,10.87-16.38,16.11-24.71,3.03-4.8,7.04-6.76,12.68-5.91,8.38,1.27,16.8,2.29,25.2,3.46,4.63.65,7.12,2.78,7.95,7.48,1.2,6.74,2.17,13.5,3.04,20.3.96,7.55,1.77,15.11,2.52,22.69.36,3.67-.68,4.84-4.34,4.72-9.82-.34-19.64-.85-29.45-1.3-5.3-.25-10.58-.59-15.87-.82-6.35-.27-12.71-.56-19.06-.68-2.47-.06-3.5-1.03-3.33-3.5.12-1.92.02-3.86.02-6.64h-.01Zm34.54-4.25c-.48.75-.6,1.13-.86,1.36-1.66,1.38-2.36,3.08-1.52,5.14.83,2.02,2.76,1.81,4.47,1.89,3.56.17,7.12.28,10.69.43,3.8.16,5.66-1.33,5.76-5.19.2-7.71.26-15.42.22-23.13-.02-3.41-2.06-5.3-5.51-5.37-3.66-.09-7.33-.07-10.99-.01-3.66.05-4.81,1.08-5.31,4.66-.17,1.19-.23,2.44-1.76,2.56-4.9.4-9.23,2.66-13.82,4.07-.79.24-1.77,1-2.43.29-.83-.87.19-1.78.57-2.6,1.62-3.49,3.31-6.95,4.97-10.42-.19-.09-.37-.18-.57-.27-3.84,5.91-7.69,11.82-11.53,17.72.2.2.41.41.61.6,4.77-1.7,9.54-3.4,14.31-5.09,1.72-.61,3.42-1.35,5.2-1.75,2.9-.66,3.9.22,3.95,3.19.03,2.42-.11,4.83.02,7.23.15,2.72-1.09,4.25-3.49,5.33-4.57,2.05-9.07,4.27-13.55,6.52-1.49.74-3.21,1.11-4.51,2.46,2.94,1.03,8.45,1.41,12.39.91-1.96-.84-4.33-.23-6.34-1.45,1.94-1.69,14.97-7.96,19.05-9.08h-.02Z"/>
    <path d="m160.33,319.75c2.57-2.15,2.8-4.96,2.73-7.94-.1-5.2-.03-10.41-.15-15.63-.06-2.8-.15-5.62-3.07-7.33-1.44-.84-.26-1.62.39-2.25,3.74-3.64,7.78-6.93,11.96-10.04,11.01-8.16,22.18-16.09,35.33-20.6.82-.28,1.64-.54,2.48-.78.16-.05.36.03.67.08.14,1.11-.9,1.34-1.46,1.81-3.95,3.27-7.8,6.62-10.28,11.23-.41.76-.79,1.55-1.08,2.37-1.29,3.59-.84,4.25,2.89,4.26,6.94.02,13.89.07,20.83.05,2.13,0,3.11.75,3.13,3.05.07,9.74.31,19.47.44,29.21.05,3.82-.23,4.08-4.41,4.16-15.42.28-30.84.52-46.27.78-1.35.02-2.7.07-4.05.09-2.08.05-3.57.59-4.25,2.97-.75,2.64-2.68,4.35-5.81,4.49h-.02Z"/>
    <path d="m308.82,352.06c.65,6.88-1.38,9.62-7.77,10.67-13.99,2.3-28,4.5-42,6.71-3.22.51-3.12.41-2.97-2.88.31-6.54.53-13.09-.26-19.65-1.67-13.8-9.49-22.67-22.01-27.69-6.88-2.77-5.75-2.13-5.98-8.92-.68-20.24-1.39-40.48-2.23-60.71-.16-3.96.82-7.28,3.05-10.56,7.36-10.75,14.55-21.61,21.73-32.49,3.42-5.19,7.93-7.46,14.25-6.57,10.51,1.49,21.01,2.99,31.45,4.85,3.98.71,5.68,2.38,6.21,6.26-4.41-4.55-10.11-3.72-15.26-4.64-7.78-1.39-15.65-2.3-23.47-3.42-3.91-.56-7.09.75-9.26,4.01-7.91,11.88-15.77,23.81-23.65,35.72-1.05,1.6-1.46,3.35-1.32,5.23,1.18,14.62,1.33,29.28,2.02,43.92.28,5.98.26,11.96.25,17.95,0,2.36.83,3.76,3.14,4.49,16.6,5.26,23.59,17.84,25.78,34.04.66,4.8.68,9.63.45,14.45-.1,2.05.59,2.51,2.48,2.21,12.78-1.95,25.56-3.84,38.35-5.75,2.85-.43,4.63-2.22,5.87-4.66.43-.84.76-1.72,1.13-2.59h0Z"/>
    <path d="m194.85,256.14c-48.04,4.69-95.08,10.24-139.7,29.67,1.07-1.7,2.46-2.21,3.57-2.99,8.46-5.93,17.41-11.08,26.26-16.38,7.65-4.58,15.89-5.94,24.53-6.66,26.43-2.2,52.9-3.87,79.43-4.09,1.69-.01,3.4-.83,5.91.45h0Z"/>
    <path d="m137.07,340.89c-1.77-2.64-1.11-5.08-1.2-7.38-.18-4.59-.11-4.6-4.64-4.63-19.48-.1-38.96-.73-58.4-1.88-10.28-.61-20.59-1.41-30.73-3.44-2.76-.56-4.52-.26-5.13,2.74-.08.36-.31.71-1.02.65-.6-2.56-.28-5.22-.19-7.85.05-1.2.9-1.24,1.89-1.04,26.17,5.2,52.72,4.91,79.21,5.64,13.61.37,27.19.22,40.79-.08,2.81-.06,5.59-.2,8.28-1.11.51-.17,1.19-.56,1.49.17.14.33-.15.93-.41,1.29-2.1,3-4.81,4.96-8.65,4.94-5.69-.02-11.38.06-17.08-.05-2.06-.03-2.81.66-3.06,2.77-.34,2.89-.06,5.91-1.13,9.23l-.02.02Z"/>
    <path d="m311.69,264.89c.69,4.61,1.43,9.22,2.06,13.83.29,2.09.36,4.21.6,6.3.27,2.48-1.01,3.05-3.13,2.64-2.03-.39-3.28-1.68-3.62-3.64-.62-3.59-1-7.23-.91-10.9.02-1.01.25-2.23,1.25-2.39,3.23-.5,2.8-2.82,2.79-5.01,0-.26.15-.53.24-.79.24-.02.48-.03.73-.06h-.01Z"/>
    <path d="m218.71,316.47c-13.06,1.33-23.18,6.29-30.07,17.09-.88-11.52,17.97-22.63,30.07-17.09Z"/>
    <path d="m233.88,360.23c-.19,7.7-1.92,14.42-6.17,20.38-6.81,9.54-17.7,9.75-24.73.48-8.41-11.1-6.98-31.23,2.91-41,6.55-6.46,14.63-6.37,20.85.36,5.28,5.71,6.8,12.81,7.12,19.8h.01Zm-12.85-5.36c-2.66-1.95-4.43-1.94-6.34-.12-2.59,2.46-3.16,7.8-1.18,10.98,1.46,2.35,3.3,2.86,6.08,1.7-5.48-5.2-4.99-10.3,1.45-12.56h-.01Z"/>
    <path d="m370.51,195.14c0,5.01.03,10.02-.01,15.04-.05,4.01-1.85,5.67-5.84,5.14-3.44-.45-6.85-1.15-10.24-1.88-2.82-.61-4.3-2.57-4.32-5.4-.06-11.67-.07-23.34,0-34.99.01-2.56,1.29-3.62,3.75-2.88,4.71,1.39,9.35,3.02,13.98,4.67,2.11.76,2.65,2.61,2.64,4.69-.02,5.2,0,10.41,0,15.61h.03Zm-5.17,15.97c1.39-.75.92-2.04.92-3.08.06-6.64.05-13.28.05-19.92s-3.09-10.82-9.28-12.88c-.18-.06-.35-.17-.54-.19-.67-.09-1.53-.94-1.92.27-.28.9.37,1.44,1.17,1.7,1.46.48,2.94.92,4.41,1.35,2.99.86,4.49,2.81,4.5,5.85,0,7.98,0,15.98.05,23.96,0,.98-.43,2.11.63,2.94h.01Z"/>
    <path d="m284.82,239.6c0,3.28.02,6.54-.01,9.82,0,.73.1,1.68-.93,1.85-.79.14-1.25-.53-1.5-1.13-1.37-3.31-4.09-4.39-7.37-4.6-2.25-.15-3.07-1.41-3.28-3.57-.35-3.75-.35-7.5-.29-11.25.03-1.86-.11-3.12-2.45-2.49-.51.14-1.21.44-1.37-.44-.11-.61.29-1.08.77-1.45,1.64-1.32,13.96-.84,15.46.59.92.87,1.1,1.98,1.1,3.16v9.52h-.12Z"/>
    <path d="m275.69,254.25c-1.53-.15-3.15-.32-4.79-.45-1.33-.11-2.96.11-2.9-1.9.06-1.84,1.1-3.05,2.96-3.4,1.19-.23,2.31.15,3.35.69.94.49,1.9,1,2.68,1.69.94.85,2.86,1.51,2.3,2.9-.44,1.1-2.28.24-3.59.48h0Z"/>
  </g>
</svg>