<?xml version="1.0" encoding="UTF-8"?>
<svg id="Layer_1" data-name="Layer 1" xmlns="http://www.w3.org/2000/svg" width="500" height="500" viewBox="0 0 500 500">
  <rect width="500" height="500" fill="none"/>
  <path d="m94.85,218.59h-41.41c-4.88-.23-9.38,2.29-11.82,6.48l-.15.23c-2.82,5.72-17.39,34.62-19.91,43.62-.31.92-.38,1.83-.31,2.82.08.92.46,1.83.99,2.59,1.75,1.91,4.12,3.2,6.71,3.66l.69.08h.69c.38.08.69.08,1.07.08,21.35-.08,35.23,0,40.34.08,4.96.31,9.76-1.45,13.35-4.88.31-.38.61-.76.92-1.14.38-.53.99-1.68.99-1.68l7.7-16.02h-26.77l-.31.69c-2.29,5.26-5.03,11.44-5.41,12.13-.08.08-.08.23-.15.31l-.08.23c-.23.69-.69,1.3-1.22,1.68-1.14.84-1.83.99-5.64.99-2.44,0-5.19-.08-6.1-1.14-.92-1.14-.69-2.82.31-5.11l15.56-33.33.46-.99c.46-1.45,1.45-2.67,2.75-3.43,1.68-.53,3.43-.69,5.19-.46,3.89.15,4.42.31,5.49,1.53.23.38.38.84.38,1.3,0,.61-.15,1.22-.38,1.75-.15.31-.31.76-.31.76,0,0-.61,1.45-2.06,4.65l-.69,1.45h27.84l.23-.61c.76-1.6,2.29-6.33,2.75-7.78,0-.08.15-.69.15-.69l.15-.92.08-1.07c-.46-4.27-3.89-7.63-8.24-7.86l-1.3-.08-2.52.08m158.94,27.53l-4.58,10.75h28.37l4.5-10.75s-28.29,0-28.29,0Zm51.1-23.03l-1.83,1.83-1.37,1.68-1.68,2.97-1.68,3.89-1.6,4.04,24.18-.08,2.9-6.33.92-1.68c.08-.23.46-.76.53-.92.61-1.14,1.68-1.98,2.9-2.29.53-.08,1.07-.15,1.6-.15h2.97c3.36,0,4.96.23,5.64,1.53.31.53.46,1.14.46,1.75,0,.46-.08.92-.23,1.37-.08.38-.23.76-.38,1.14,0,0-3.58,8.24-3.74,8.62-.38,0-35.92,2.21-35.92,2.21-4.04-.15-7.78,2.21-9.38,5.95-.08.15-8.08,18.38-8.47,19.68-.08.23-.15.46-.23.69l-.15.84v1.14c.23,4.42,4.04,7.78,8.39,7.55.15,0,.38,0,.53-.08h2.67s34.4.08,38.13,0c3.97,0,7.86-.99,11.44-2.82,2.21-1.37,3.97-3.43,4.96-5.87.69-1.6,16.93-38.9,17.16-39.66.08-.08.08-.23.15-.31.08-.31.15-.61.23-.92,0-.23,0,.08.08-.84v-.61l-.08-1.37c-.69-4.12-4.27-7.09-8.47-7.17l-2.75-.15h-36.23c-4.19.08-8.31,1.68-11.67,4.35m25.17,25.32h.46c-.38.69-.99,2.14-.99,2.14-2.59,6.1-5.49,12.05-8.69,17.77-1.53,1.53-1.98,1.53-5.87,1.45h-2.59c-1.14.08-2.29-.31-3.13-1.07-.46-.53-.69-1.22-.69-1.98,0,0,.08-.46.08-.84.08-.38.46-1.6.46-1.6.15-.31.84-1.98,4.35-10.3l.23-.38c1.07-2.44,3.28-4.19,5.95-4.58l10.45-.61h0Zm-210.87-25.32l-1.83,1.83-1.3,1.68-1.68,2.97-1.68,3.89-1.6,4.04,24.18-.08,2.9-6.33.92-1.68c.08-.23.38-.76.53-.92.61-1.14,1.6-1.98,2.9-2.29.53-.08,1.07-.15,1.6-.15h2.9c3.36,0,4.88.23,5.64,1.53.31.53.46,1.14.53,1.75-.08.46-.15.92-.23,1.37-.08.38-.23.76-.38,1.14,0,0-3.51,8.24-3.66,8.62-.46,0-35.92,2.21-35.92,2.21-4.12-.15-7.86,2.21-9.53,5.95-.08.15-8.01,18.38-8.39,19.68,0-.08-.23.69-.23.69l-.15.84-.08.46v.69c.23,4.42,4.04,7.78,8.47,7.55.15,0,.31,0,.53-.08h2.67s34.55.08,38.21,0c3.97,0,7.86-.99,11.36-2.82,2.21-1.37,4.04-3.43,5.03-5.87.69-1.6,16.85-38.9,17.08-39.66.08-.08.08-.23.15-.31.08-.31.15-.61.23-.92,0-.23,0,.08.08-.84v-.61c0-.08-.08-1.37-.08-1.37-.76-4.12-4.27-7.09-8.47-7.17l-2.67-.15h-36.3c-4.27.08-8.39,1.68-11.74,4.35m25.24,25.32h.46c-.31.69-.99,2.14-.99,2.14-2.59,6.1-5.49,12.05-8.62,17.77-1.6,1.53-2.06,1.53-5.95,1.45h-2.67c-1.14.08-2.29-.31-3.13-1.07-.46-.53-.69-1.22-.69-1.98,0,0,.08-.46.15-.84s.46-1.6.46-1.6c.15-.31.84-1.98,4.35-10.3l.23-.38c1.07-2.44,3.36-4.19,6.02-4.58,0,0,10.37-.61,10.37-.61Zm88.47-29.51l-.76.15-2.97.69c-3.74.92-7.55,1.53-11.44,1.91-.15,0-.31-.08-.38-.15-.1-.1-.15-.2-.15-.31v-2.52h-25.78l-26.24,59.64h25.63s20.59-45.38,20.67-45.61c.23-.53.53-.99.84-1.45.69-.99,1.83-1.98,5.64-1.91h1.14c2.21,0,4.65-.08,5.72,1.22.61.61.84,1.45.69,2.29-.15.92-.38,1.83-.76,2.75l-18.84,42.78h25.85l19.91-46.14c.84-1.83,1.3-3.81,1.22-5.87-.23-2.52-1.75-4.8-3.97-6.02-4.96-2.36-10.68-2.9-16.02-1.45m226.28-.23l-18.84,4.42c-.76.23-1.53.38-2.29.46-.15-.23-.38-.53-.53-.76l-.38-.46c-.69-.84-1.45-1.53-2.36-2.06-4.96-2.36-10.6-2.9-15.94-1.37l-3.2.76c-3.89.92-7.78,1.53-11.74,1.98-.38,0-.61.08-.69-.08-.15-.15-.15-.61-.15-.61l-.08-2.29h-25.93l-26.08,59.64h25.63l20.67-45.61s.38-.61.84-1.45c.69-.99,1.83-1.98,5.72-1.91h1.22c2.21,0,4.65-.08,5.72,1.22.53.61.76,1.45.69,2.29-.15.92-.38,1.83-.76,2.75l-18.91,42.78h25.85s17.77-41.11,19.52-44.77l.69-1.45c1.3-2.06,3.74-3.13,6.18-2.82h1.14c2.14,0,4.65-.08,5.87,1.07.53.46.76,1.14.69,1.83-.08.92-.23,1.83-.61,2.67l-.46,1.22-18.68,42.17h25.93l19.98-46.37c.69-1.68.99-3.43.92-5.26,0-2.59-1.3-4.96-3.43-6.33-5.03-2.29-10.75-2.9-16.17-1.68m10.52,53.46c2.44,0,4.42,1.98,4.42,4.42s-1.98,4.42-4.42,4.42c-2.44.08-4.5-1.83-4.58-4.27s1.83-4.5,4.27-4.58h.31m0,9.84c2.97-.08,5.34-2.44,5.41-5.41,0-2.97-2.44-5.41-5.41-5.41s-5.41,2.44-5.41,5.41,2.44,5.41,5.41,5.41m-.92-7.55h.84c.69,0,1.45,0,1.45.84s-.76.84-1.45.84h-.84v-1.68Zm0,2.67h.84l1.53,2.52h1.14l-1.53-2.59c.84-.08,1.45-.76,1.45-1.6v-.08c0-1.22-.69-1.83-2.14-1.83h-2.44v6.1h1.14v-2.52Z"/>
</svg>