<?xml version="1.0" encoding="UTF-8"?>
<svg id="Layer_1" data-name="Layer 1" xmlns="http://www.w3.org/2000/svg" width="500" height="500" viewBox="0 0 500 500">
  <rect width="500" height="500" fill="none"/>
  <g>
    <path d="m31.34,258.78l3.76-17.78h35.11l8.55-8.44h-41.49c-9.69.34-11.4,7.87-11.51,8.78l-3.31,15.39c-.57,2.74-.11,5.13,1.25,6.84,2.51,3.08,7.3,3.19,7.41,3.19h39.78l-3.53-7.98H31.34Z"/>
    <polygon points="135.54 232.56 133.83 240.77 153.66 240.77 148.19 266.76 157.42 266.76 162.89 240.88 177.14 240.88 186.38 232.56 135.54 232.56"/>
    <path d="m112.39,232.22c-4.79,0-8.09,3.65-8.55,4.22l-31.23,30.32h11.86l7.64-7.18h30.55l4.1,7.18h11.17l-18.58-30.66c-.23-.68-2.05-3.88-6.95-3.88m-12.2,19.38l10.72-10.72,6.61,10.72h-17.33Z"/>
    <path d="m382.67,232.22c-4.79,0-8.09,3.65-8.55,4.22l-31.12,30.32h11.86l7.64-7.18h30.55l4.1,7.18h11.17l-18.58-30.55c-.34-.8-2.17-3.99-7.07-3.99m-12.08,19.38l10.72-10.72,6.61,10.72h-17.33,0Z"/>
    <path d="m190.14,258.55l.91-4.33h35.11l1.82-8.55h-35.22l.91-4.45h34.65l9.01-8.21h-3.53c-.23,0-27.36-.11-36.82-.11-10.49,0-12.31,7.98-12.31,7.98l-3.65,17.1c-.46,2.39-.11,4.33,1.14,5.81,2.39,2.96,7.07,2.96,7.3,2.96h40.13l-5.13-8.21h-34.31,0Z"/>
    <polygon points="338.33 233.01 335.59 245.78 304.13 245.78 306.87 233.01 297.98 233.01 290.8 266.76 299.8 266.76 302.42 253.88 333.88 253.88 331.15 266.76 340.15 266.76 347.22 233.01 338.33 233.01"/>
    <path d="m281.22,232.56h-39.21l-7.18,34.08h9.46l2.05-9.46h30.66l-2.05,9.58h9.12l1.48-7.18c.34-1.6.46-4.33-1.37-6.16,1.37-1.03,3.08-2.74,3.53-5.13l1.48-6.95c.11-.46.8-3.53-1.14-6.04-1.25-1.82-3.65-2.74-6.84-2.74m-2.62,16.42h-30.89l1.71-8.32h30.89l-1.71,8.32Z"/>
    <path d="m476.72,234.72c-1.14-1.48-3.08-2.28-5.81-2.28h0c-.46,0-4.9.11-8.32,4.1l-19.26,22-10.26-21.09c-.23-.57-2.28-5.02-7.3-5.02s-8.32,3.31-9.01,6.38l-5.93,28.16h9.01l5.24-24.96,11.29,23.03c.34,1.14,1.82,2.74,5.24,2.74,3.88,0,5.7-2.05,6.04-2.51l20.29-22.46-5.02,23.94h8.89l5.81-27.7c.11-.34.57-2.51-.91-4.33"/>
  </g>
</svg>