<?xml version="1.0" encoding="UTF-8"?>
<svg id="Layer_1" data-name="Layer 1" xmlns="http://www.w3.org/2000/svg" width="500" height="500" viewBox="0 0 500 500">
  <rect width="500" height="500" fill="none"/>
  <g>
    <path d="m250,473.04c-100.39,0-173.77-156.77-176.84-163.42l-.85-1.82V64.84l4.64-2.61c2.55-1.43,63.81-35.28,173.04-35.28,99.58,0,171.86,34.67,172.59,35.03l5.1,2.49v243.81l-1.24,2.13c-3.92,6.65-96.57,162.6-176.44,162.6v.03Zm-168.58-167.24h0c2.98,6.47,73.92,158.11,168.58,158.11,74.68,0,164.78-151.64,168.58-158.11V70.16c-.76-.36-71.37-34.09-168.58-34.09-106.86,0-166.09,32.7-168.58,34.09v235.64Z"/>
    <g>
      <path d="m328.93,115.42c-.73,0-1.46-.18-2.13-.52-2.22-1.18-3.07-3.92-1.88-6.16l18.82-35.55c1.18-2.22,3.95-3.07,6.16-1.88,2.22,1.18,3.07,3.92,1.88,6.16l-18.82,35.55c-.82,1.55-2.4,2.43-4.04,2.43v-.03Z"/>
      <path d="m196.5,113.08c-.85,0-1.7-.24-2.46-.73-2.13-1.37-2.73-4.19-1.37-6.28l21.52-33.33c.85-1.31,2.28-2.09,3.83-2.09h106.19c2.52,0,4.55,2.03,4.55,4.55s-2.03,4.55-4.55,4.55h-103.7l-20.16,31.24c-.88,1.34-2.34,2.09-3.83,2.09h-.03Z"/>
      <path d="m392.04,113.18h-43.41c-1.61,0-3.13-.85-3.95-2.28-.82-1.4-.82-3.13,0-4.55l18.52-32.54c1.24-2.19,4.04-2.94,6.19-1.7,2.19,1.24,2.94,4.04,1.7,6.22l-14.63,25.74h35.58c2.52,0,4.55,2.03,4.55,4.55s-2.03,4.55-4.55,4.55Z"/>
      <path d="m161.83,113.18h-53.89c-1.67,0-3.19-.91-3.98-2.34s-.76-3.22.12-4.61l21.04-33.52c.82-1.34,2.28-2.13,3.86-2.13h35.64c2.52,0,4.55,2.03,4.55,4.55s-2.03,4.55-4.55,4.55h-33.12l-15.3,24.41h42.99l7.8-13.69,9.47-17.73c1.18-2.22,3.95-3.07,6.16-1.88s3.07,3.95,1.88,6.16l-9.53,17.85-9.17,16.09c-.82,1.43-2.31,2.31-3.95,2.31l-.03-.03Z"/>
      <path d="m206.4,97.21h-34.49c-2.52,0-4.55-2.03-4.55-4.55s2.03-4.55,4.55-4.55h34.49c2.52,0,4.55,2.03,4.55,4.55s-2.03,4.55-4.55,4.55Z"/>
      <path d="m254.46,113.18h-38.37c-1.67,0-3.22-.91-4.01-2.4-.79-1.46-.73-3.25.18-4.64l19.95-30.48c1.37-2.09,4.22-2.7,6.31-1.31,2.09,1.37,2.7,4.19,1.31,6.31l-15.33,23.44h29.96c2.52,0,4.55,2.03,4.55,4.55s-2.03,4.55-4.55,4.55v-.03Z"/>
      <path d="m265.69,97.21h-39.16c-2.52,0-4.55-2.03-4.55-4.55s2.03-4.55,4.55-4.55h39.16c2.52,0,4.55,2.03,4.55,4.55s-2.03,4.55-4.55,4.55Z"/>
      <path d="m306.77,113.18h-37.98c-2.52,0-4.55-2.03-4.55-4.55s2.03-4.55,4.55-4.55h36.52c1.88-1.55,3.92-4.16,5.68-6.89h-29.78c-1.7,0-3.28-.97-4.07-2.49-.76-1.52-.64-3.37.39-4.74l9.93-13.57c1.49-2.03,4.34-2.46,6.38-1,2.03,1.49,2.49,4.34,1,6.38l-4.64,6.34h28.63c1.58,0,3.04.79,3.86,2.13s.94,2.98.24,4.4c-.67,1.37-6.59,13.42-13.72,17.88-.73.46-1.55.7-2.4.7l-.03-.03Z"/>
    </g>
    <g>
      <path d="m98.96,121.34v52.31s100-46.51,297.63-52.31H98.96Z"/>
      <path d="m98.96,188.77s85.28-42.08,237.95-54.64c0,0-121.07,12.81-218.58,178.26-12.78,21.71-18.79-31.39-19.37-41.07-1.34-22.43,0-82.54,0-82.54Z"/>
      <path d="m241.19,429.81s-70.52-194.57,89.53-282.33c0,0-82.94,83.94,3.1,228.84,0,0-38.77,53.49-92.62,53.49Z"/>
      <path d="m401.63,128.69l-3.1,135.64s-.79,9.68-13.57,12.02-53.49-33.73-51.15-77.11c2.34-43.38,29.84-72.86,67.82-70.52v-.03Z"/>
    </g>
  </g>
</svg>