<?xml version="1.0" encoding="UTF-8"?>
<svg id="Layer_1" data-name="Layer 1" xmlns="http://www.w3.org/2000/svg" width="500" height="500" viewBox="0 0 500 500">
  <rect width="500" height="500" fill="none"/>
  <g>
    <path d="m124.64,222.72h73.5c2.27,0,3.06,1.05,3.06,3.05v10.78c0,3.23,1.88,4.71,4.71,4.71h82.94c2.83,0,4.72-1.41,4.72-4.71v-10.73c0-2.18.92-3.09,3.06-3.09h46.11c3.15,0,5.45-.85,7.06-3.83l22.85-44.67c.5-.94.85-1.52.85-2.62,0-3.07-2.62-4.13-4.43-4.13h-72.45c-1.88,0-3.06-.51-3.06-3.05v-10.78c0-3.09-1.71-4.74-4.72-4.74h-82.94c-3.1,0-4.71,1.71-4.71,4.74v10.73c0,2.31-1.08,3.07-3.06,3.07l-47.47.02c-3.64,0-5.78,1.75-6.84,4.03l-23.13,45.2c-.29.53-.5,1.24-.5,1.94,0,1.79,1.18,4.09,4.45,4.09m18.23-17.99l11.04-21.59c.42-.82,1.12-1.3,2.78-1.3h55.75c1.92,0,3.14-.76,3.14-3.14v-12.35c0-2.23.96-3.11,3.06-3.11h57.46c2.06,0,3.07.94,3.07,3.14v12.41c0,2.1,1,3.07,3.16,3.07h65.97c2.1,0,2.8,1.38,2.8,2.46,0,.44-.1.85-.3,1.16l-11,21.6c-.72,1.22-1.9,1.24-2.76,1.24h-54.71c-2.28,0-3.14,1.03-3.14,3.14v12.42c0,2.04-.89,3-3.09,3h-57.46c-1.91,0-3.08-.65-3.08-3.04v-12.41c0-2.27-1.03-3.11-3.11-3.11h-67.09c-1.64,0-2.74-1-2.74-2.45,0-.4.1-.8.26-1.12"/>
    <path d="m301.36,159.57h1l1.46,2.25h.78l-1.49-2.31c.9-.02,1.59-.42,1.59-1.44s-.94-1.37-1.8-1.37h-2.24v5.12h.71v-2.25h0Zm0-2.23h1.36c.53,0,1.23.08,1.23.73,0,.48-.23.92-1.23.92h-1.36s0-1.64,0-1.64Z"/>
    <path d="m302.34,163.8c2.51,0,4.55-1.98,4.55-4.51s-2.04-4.51-4.55-4.51-4.57,1.98-4.57,4.51,2.02,4.51,4.57,4.51m0-8.34c2.13,0,3.78,1.72,3.78,3.79s-1.64,3.85-3.78,3.85-3.84-1.71-3.84-3.85,1.72-3.79,3.84-3.79"/>
    <polygon points="82.36 321.89 101.89 321.89 101.89 351.05 115.47 351.05 115.47 285.88 101.89 285.88 101.89 311.98 82.36 311.98 82.36 285.88 68.75 285.88 68.75 351.05 82.36 351.05 82.36 321.89"/>
    <polygon points="444.96 351.05 458.57 351.05 458.57 295.83 477.05 295.83 477.05 285.88 426.5 285.88 426.5 295.83 444.96 295.83 444.96 351.05"/>
    <polygon points="354.66 285.88 341.03 285.88 341.03 351.05 379.96 351.05 379.96 341.11 354.66 341.11 354.66 285.88"/>
    <path d="m189.48,351.09h12.57c3.68,0,6.04-1.91,6.97-5.63l16.08-59.56h-12l-14.11,54.33c-.2.67-.71.87-1.42.87s-1.2-.28-1.44-.91l-14.33-54.32h-15.84l16.43,59.46c.78,3.95,3.44,5.76,7.11,5.76"/>
    <path d="m33.1,351.09l30.45-.04v-9.94h-22.02c-3.76,0-4.97-.94-4.97-4.99v-35.32c0-3.93.92-4.96,4.97-4.96h22.02v-9.93h-30.41c-6.96,0-10.19,3.57-10.19,10.12v44.86c0,7.25,3.71,10.2,10.16,10.2"/>
    <path d="m142.21,295.83h22.34v-9.93h-30.76c-7.02,0-10.17,3.47-10.17,10.12v44.86c0,6.85,3.36,10.2,10.17,10.2h33.57v-9.98h-25.17c-3.78,0-4.95-.85-4.95-4.98v-14.25h27.02v-9.91h-27.02v-11.19c0-3.77.81-4.96,4.95-4.96"/>
    <path d="m274.96,313.32v-17.29c0-6.8-3.23-10.12-10.17-10.12h-37.92v65.18h13.6v-55.26h15.86c4.23,0,4.99,1.19,4.99,4.96l.02,7.93c0,3.84-1.06,4.99-4.98,4.99h-7.43c-2.9,0-4.53,1.78-4.53,4.58,0,1.41.71,2.43,1.28,3.43l17.2,29.33h16.85l-18-27.55h3.06c6.28,0,10.17-2.84,10.17-10.19"/>
    <path d="m307.71,351.09h14.92c6.51,0,10.17-3.11,10.17-10.2l-.02-44.86c0-6.65-3.13-10.12-10.15-10.12h-29.98c-7.18,0-10.19,3.62-10.19,10.12v44.86c0,7.38,3.97,10.2,10.19,10.2h15.07,0Zm-11.65-50.3c0-3.42.45-4.96,4.98-4.96h13.19c3.55,0,4.98.6,4.98,4.96l.02,35.34c0,4.17-1.28,4.99-4.99,4.99h-13.19c-3.9,0-4.98-1.08-4.98-4.99v-35.34Z"/>
    <path d="m392.77,351.09l33.57-.04v-9.94h-25.14c-3.8,0-4.99-.85-4.99-4.99v-14.23h27.03v-9.91h-27.01v-11.19c0-3.77.8-4.96,4.98-4.96h22.3v-9.96l-30.74.03c-7.02,0-10.15,3.47-10.15,10.12l-.02,44.86c0,6.85,3.33,10.2,10.18,10.2"/>
  </g>
</svg>