<?xml version="1.0" encoding="UTF-8"?>
<svg id="Layer_1" data-name="Layer 1" xmlns="http://www.w3.org/2000/svg" width="500" height="500" viewBox="0 0 500 500">
  <rect width="500" height="500" fill="none"/>
  <g>
    <path d="m30.21,299.71h132.19c4.08,0,5.5,1.89,5.5,5.49v19.39c0,5.81,3.39,8.47,8.47,8.47h149.17c5.08,0,8.49-2.54,8.49-8.47v-19.3c0-3.92,1.65-5.56,5.5-5.56h82.94c5.66,0,9.8-1.53,12.71-6.89l41.09-80.35c.89-1.7,1.53-2.73,1.53-4.72,0-5.53-4.72-7.43-7.96-7.43h-130.31c-3.39,0-5.5-.91-5.5-5.49v-19.38c0-5.56-3.07-8.52-8.49-8.52h-149.16c-5.58,0-8.47,3.07-8.47,8.52v19.3c0,4.16-1.94,5.51-5.5,5.51l-85.38.03c-6.55,0-10.39,3.15-12.31,7.26l-41.61,81.29c-.52.96-.89,2.22-.89,3.49,0,3.21,2.12,7.36,8.01,7.36m32.79-32.35l19.85-38.82c.76-1.47,2.02-2.34,5-2.34h100.28c3.45,0,5.64-1.38,5.64-5.64v-22.21c0-4.01,1.73-5.59,5.5-5.59h103.35c3.71,0,5.51,1.7,5.51,5.64v22.31c0,3.77,1.8,5.51,5.69,5.51h118.66c3.77,0,5.04,2.48,5.04,4.43,0,.79-.17,1.53-.54,2.07l-19.79,38.85c-1.3,2.19-3.42,2.24-4.97,2.24h-98.4c-4.11,0-5.64,1.85-5.64,5.64v22.35c0,3.66-1.6,5.4-5.56,5.4h-103.35c-3.44,0-5.54-1.16-5.54-5.47v-22.31c0-4.08-1.85-5.59-5.59-5.59h-120.67c-2.96,0-4.92-1.79-4.92-4.41,0-.72.17-1.43.47-2.02"/>
    <path d="m348.05,186.12h1.79l2.62,4.04h1.41l-2.68-4.16c1.62-.03,2.86-.76,2.86-2.59s-1.7-2.46-3.25-2.46h-4.03v9.21h1.28v-4.04h0Zm0-4.01h2.44c.96,0,2.21.15,2.21,1.31,0,.86-.42,1.65-2.21,1.65h-2.44v-2.96Z"/>
    <path d="m349.82,193.73c4.53,0,8.18-3.57,8.18-8.1s-3.66-8.12-8.18-8.12-8.22,3.57-8.22,8.12,3.62,8.1,8.22,8.1m0-15.01c3.84,0,6.79,3.08,6.79,6.82s-2.96,6.92-6.79,6.92-6.9-3.07-6.9-6.92,3.1-6.82,6.9-6.82"/>
  </g>
</svg>