<?xml version="1.0" encoding="UTF-8"?>
<svg id="Layer_1" data-name="Layer 1" xmlns="http://www.w3.org/2000/svg" width="500" height="500" viewBox="0 0 500 500">
  <rect width="500" height="500" fill="none"/>
  <g>
    <path d="m350.78,234.49l-9.32,4.96c.43,3.43.61,6.99.61,10.54,0,50.7-41.38,92.08-92.07,92.08-22.56,0-43.34-8.22-59.4-21.82l-13.12,6.98c2.04,1.73,3.99,3.57,5.82,5.52,5.45,5.95,9.81,12.39,16.79,16.74,13.06,7.66,25.26,5.94,39.36,9.38,7.79,1.9,15.51,4.72,23.6,4.91,9.01-.13,20.29-2.94,27.04-9.26,3-3.13,5.27-6.74,8.09-9.99,6.98-7.79,16.49-9.75,24.82-15.27,5.21-3.62,7.6-9.56,10.12-15.14,2.58-5.64,5.33-10.6,9.69-15.08,3.49-3.37,7.42-6.19,10.6-9.93,8.03-10.42,10.67-30.22,5.34-42.11-2.21-4.47-5.4-8.28-7.97-12.5Z" fill="none"/>
    <path d="m352.62,228.48h0c-9.07,4.84-22.44,12.02-30.78,16.55,2.15,30.53-15.69,60.44-45.79,72.09-24.21,9.38-50.57,4.66-69.82-10.24-9.87,5.27-25.99,13.55-36.96,19.31,2.53,1.93,4.98,3.95,7.36,6.07,10.11,9.19,12.63,18.57,29.18,24.83,11.71,4.41,19.55,3.31,28.5,5.09,11.03,2.14,21.82,7.11,32.92,5.7,28.81-3.62,27.89-15.94,37.39-23.54,6.19-4.97,14.29-6.99,20.91-11.46,8.21-5.52,10.42-16.18,15.2-24.15,8.58-14.34,21.52-11.28,24.71-42.61,2.27-22.25-7.91-26.35-12.81-37.63Zm-21.58,22.25l5.15-2.82c3.5-1.96,2.39,3.01,1.29,3.62l-5.09,2.88c-4.78,2.76-2.52-3.06-1.35-3.68Zm-.49,8.4l5.4-2.27c3.68-1.54,2.02,3.25.86,3.74l-5.33,2.39c-5.03,2.27-2.21-3.37-.92-3.86Zm-1.41,8.33l5.58-1.66c3.86-1.17,1.72,3.43.49,3.86l-5.58,1.78c-5.21,1.71-1.78-3.56-.49-3.98Zm-2.27,8.21l5.77-1.1h0c3.92-.74,1.29,3.62.06,3.86l-5.76,1.22c-5.34,1.17-1.41-3.74-.06-3.98Zm-3.13,7.91l5.82-.49c4.05-.37.98,3.68-.31,3.86l-5.82.61c-5.46.55-1.04-3.92.31-3.98Zm-3.92,7.48l5.88.18c3.98.06.55,3.74-.73,3.8h-5.89c-5.52,0-.61-3.98.74-3.98Zm-4.66,7.11l5.82.73c3.93.49.13,3.86-1.16,3.68l-5.82-.61c-5.46-.55-.18-3.98,1.16-3.8Zm-5.39,6.56l5.7,1.35h0c3.86.92-.24,3.8-1.54,3.55l-5.7-1.22c-5.39-1.17.18-3.98,1.54-3.68Zm-6.07,5.94l5.52,1.9c3.8,1.35-.61,3.8-1.84,3.43l-5.58-1.84c-5.27-1.72.61-3.93,1.9-3.5Zm-6.68,5.27l5.33,2.52h0c3.62,1.71-1.04,3.68-2.21,3.13l-5.39-2.33c-5.03-2.27,1.1-3.86,2.27-3.31Zm-7.11,4.54l5.02,3.06c3.37,2.08-1.47,3.56-2.57,2.94l-5.09-2.94c-4.78-2.76,1.47-3.74,2.64-3.06Zm-7.6,3.8l4.66,3.55c3.19,2.45-1.78,3.37-2.82,2.64l-4.78-3.43c-4.41-3.25,1.84-3.55,2.94-2.76Zm-7.97,2.94l4.29,4.05c2.94,2.76-2.15,3.19-3.13,2.33l-4.35-3.93c-4.05-3.68,2.21-3.31,3.19-2.45Zm-8.21,2.15l3.86,4.47h0c2.58,3.01-2.45,2.94-3.31,1.96l-3.98-4.35c-3.68-4.05,2.58-3.06,3.43-2.08Zm-8.4,1.28l3.37,4.79c2.27,3.31-2.76,2.7-3.49,1.65l-3.49-4.72c-3.25-4.47,2.88-2.82,3.62-1.72Zm-8.4.37l2.76,5.15c1.9,3.5-2.94,2.33-3.62,1.22l-2.94-5.09c-2.76-4.72,3.13-2.45,3.8-1.29Zm-8.46-.55l2.27,5.4h0c1.53,3.74-3.25,2.08-3.8.92l-2.39-5.4c-2.21-5.03,3.37-2.15,3.92-.92Zm-8.4-1.41l1.72,5.64c1.17,3.86-3.43,1.72-3.86.49l-1.84-5.58c-1.65-5.27,3.62-1.84,3.98-.55Zm-8.15-2.27l1.1,5.77c.73,3.98-3.62,1.34-3.86.06l-1.22-5.7c-1.17-5.4,3.74-1.41,3.98-.13Zm-7.91-3.06l.49,5.82c.31,3.98-3.74.92-3.86-.37l-.61-5.82c-.61-5.46,3.86-.98,3.98.37Zm-11.46-4.66c0-5.52,3.98-.61,3.92.74l-.12,5.82c-.06,4.05-3.8.55-3.8-.73v-5.82Zm-7.6.73l.61-5.82c.55-5.52,4.05-.18,3.86,1.1l-.73,5.82c-.55,3.98-3.86.18-3.74-1.1Zm156.07-30.71c-3.18,3.74-7.11,6.56-10.6,9.93-4.35,4.47-7.11,9.44-9.69,15.08-2.51,5.58-4.9,11.53-10.12,15.14-8.33,5.52-17.84,7.48-24.82,15.27-2.82,3.25-5.09,6.87-8.09,9.99-6.75,6.31-18.02,9.13-27.04,9.26-8.09-.18-15.81-3.01-23.6-4.91-14.1-3.43-26.3-1.71-39.36-9.38-6.99-4.35-11.34-10.79-16.79-16.74-1.84-1.95-3.78-3.79-5.82-5.52l13.12-6.98c16.06,13.61,36.84,21.82,59.4,21.82,50.69,0,92.07-41.38,92.07-92.08,0-3.55-.18-7.11-.61-10.54l9.32-4.96c2.58,4.23,5.77,8.03,7.97,12.5,5.33,11.89,2.69,31.69-5.34,42.11Z"/>
    <path d="m250,29.26c-121.56,0-220.74,99.19-220.75,220.74,0,121.56,99.19,220.74,220.75,220.74s220.74-99.19,220.74-220.74S371.56,29.26,250,29.26Zm0,436.34c-118.74,0-215.66-96.86-215.66-215.6S131.26,34.35,250,34.35h0c118.74,0,215.66,96.86,215.66,215.66s-96.92,215.6-215.66,215.6Z" fill-rule="evenodd"/>
    <path d="m250,43.11c-113.96,0-206.89,92.93-206.89,206.89s92.93,206.89,206.89,206.89,206.89-93,206.89-206.89S363.95,43.11,250,43.11Zm0,408.63c-111.14,0-201.74-90.66-201.74-201.74S138.86,48.2,250,48.2s201.8,90.66,201.8,201.8-90.66,201.74-201.8,201.74Z" fill-rule="evenodd"/>
    <path d="m304.07,406.56l-16.86-23.78c-14.4,5.33-30.89,4.9-46.95.43-1.96-.55-3.86-1.11-5.82-1.59-7.66-1.9-15.63-1.84-23.42-3.31-13.79-2.94-25.99-8.88-35.74-19.18-4.17-4.47-7.6-9.44-12.14-13.49-12.32-10.73-25.62-18.64-34.14-33.22l-4.1-8.34c-4.41-10.42-5.89-20.9-5.82-32.12.24-10.85,1.84-21.64,1.84-32.49-.18-29.18.49-54.74,23.6-74.97,5.64-4.78,11.77-8.7,17.96-12.69,6.99-4.47,12.38-8.64,17.78-14.83,12.93-14.77,29.3-21.27,48.68-20.72,9.19.37,18.08,2.21,27.09,3.56,5.52.8,11.1.8,16.61,1.47,14.59,1.96,26.42,9.44,38.75,16.98,4.9,2.94,10.3,4.91,15.51,7.3,26.73,12.26,37.76,32.92,40.64,61.73.49,5.4.86,11.28,3.74,16,1.47,2.33,3.18,4.54,4.72,6.87,12.38,19.06,11.71,46.83,0,66.76l7.66,6.68c4.47,3.86,2.51,10.05,2.51,10.05l-15.08,49.47c26.17-29.36,44.93-70.86,44.93-113.1,0-91.46-74.61-166-166-166S84,158.54,84,250s74.6,166,166,166c17.71,0,38-4.29,54.06-9.44h0Z" fill-rule="evenodd"/>
    <path d="m250,73.76c-97.04,0-176.24,79.2-176.24,176.24s79.2,176.18,176.24,176.18c23.55.02,46.86-4.72,68.53-13.92h0s.19.31.19.31c2.82,4.05,9.99,9.44,12.2,2.7l8.4-26.23c.12-.31.43-1.66.86-1.17l5.94,5.94c1.66,1.65,3.31,3.25,5.7,2.82,1.96-.3,2.45-2.02,3-3.86l.55-1.72c42.97-32.18,70.86-83.49,70.86-141.05,0-97.04-79.2-176.24-176.24-176.24Zm102.07,318.21c-.24.67-.37,2.08-1.29,1.71-.86-.31-1.53-.86-2.14-1.53l-6.25-6.25c-2.51-2.51-4.9-.67-5.7,1.84l-8.52,26.42c-1.17,3.8-5.27-.8-6.44-2.45h0c-10.54-14.9-21.21-30.65-31.15-44.87-12.88,8.15-29.18,8.4-44.38,4.35-5.03-1.28-10.05-2.88-15.26-3.68-5.4-.8-10.79-.92-16.18-1.9-10.36-1.9-19.98-6.01-27.65-13.24-5.21-4.9-9.07-10.97-14.4-15.81-11.71-10.54-24.95-17.23-32.79-31.63-4.84-8.7-7.3-17.47-7.72-27.52-.43-10.85,1.78-21.52,1.84-32.3.19-20.17-1.84-42.18,9.44-59.83,9.44-14.65,25.62-20.47,38.56-31.2,4.29-3.56,7.54-8.22,11.46-12.08,11.59-11.34,26.61-14.1,42.6-12.32,6.5.67,12.81,2.45,19.25,3.31,5.52.74,11.1.68,16.61,1.47,12.57,1.84,22.01,8.58,32.61,15.08,6.19,3.8,13.18,6.07,19.74,9.32,17.28,8.64,26.42,22.44,29.24,41.56,1.17,8.09,1.1,16.55,3.86,24.34,2.02,5.64,6.38,10.12,9.26,15.33,8.09,14.65,6.01,35.31-1.47,49.65-1.41,2.64-2.7,4.23-4.41,6.19,3.98,3.31,7.11,6.06,11.89,10.05,2.94,2.45,3.68,6.56,2.64,9.93l-23.23,76.07Zm5.95-9.44h0s0,0,0,0c0,0,0,0,0,0l20.11-65.9c1.41-4.54.24-9.56-3.56-12.88l-8.52-7.54c12.08-16.8,13.98-43.58,2.88-60.93-2.45-3.8-5.58-7.36-7.23-11.59-1.96-5.09-2.39-10.67-2.94-16.06-2.39-24.15-10.54-41.93-33.16-53.03-6.19-3.06-12.88-5.27-18.76-8.89-11.16-6.74-21.64-13.85-34.75-15.69-5.77-.8-11.59-.67-17.35-1.53-15.51-2.33-28.63-5.95-44.2-1.41-8.34,2.39-15.69,7.05-21.64,13.37-3.25,3.43-6.01,7.23-9.62,10.24-10.18,8.34-22.31,13.73-31.75,22.93-18.51,17.96-18.02,41.44-17.84,65.78.06,16.61-3.86,33.29-.43,49.77.94,4.35,2.33,8.58,4.17,12.63,2.39,5.28,5.21,10.06,9.01,14.47,7.97,9.19,18.39,15.45,27.34,23.54,4.54,4.11,8.03,9.26,12.26,13.73,8.77,9.13,19.68,14.04,31.94,16.37,6.56,1.29,13.37,1.17,19.92,2.64,3.61.74,7.17,1.84,10.73,2.76,15.26,4.11,31.87,3.86,45.49-3.25l25.38,35.98c-20.75,8.64-43,13.08-65.47,13.06-94.22,0-171.09-76.87-171.09-171.09S155.78,78.85,250,78.85s171.09,76.87,171.09,171.15c0,53.33-24.65,101.09-63.08,132.53Z" fill-rule="evenodd"/>
    <path d="m226.16,188.03c-25.56,9.87-41.56,33.96-42.55,59.77l101.4-54.37c-17.17-10.48-38.74-13.18-58.85-5.39Zm9.26,14.34l-26.66,21.94-2.08-4.54-6.62,3.8,8.34-12.51,3.13,5.21,26.36-21.27,3.49,8.03,9.32-5.58-11.77,12.2-3.5-7.29Z" fill-rule="evenodd"/>
    <path d="m191.83,191.52l-5.76-1.22c-1.29-.24-5.4,2.7-1.53,3.62l5.76,1.35c1.29.24,6.87-2.57,1.53-3.74Z" fill="none"/>
    <path d="m220.64,172.89l-4.78-3.43c-1.04-.73-6.01.24-2.82,2.64l4.66,3.56c1.1.8,7.35.49,2.94-2.76Z" fill="none"/>
    <path d="m212.73,176.38l-5.09-2.88c-1.1-.68-5.95.8-2.51,2.88l4.97,3.06c1.16.68,7.42-.31,2.64-3.06Z" fill="none"/>
    <path d="m198.2,185.76l-5.52-1.78c-1.29-.43-5.7,2.02-1.9,3.37l5.52,1.9c1.29.49,7.17-1.78,1.9-3.5Z" fill="none"/>
    <path d="m180.92,204.94h-5.89c-1.29,0-4.72,3.68-.73,3.8l5.88.12c1.35,0,6.26-3.98.74-3.92Z" fill="none"/>
    <path d="m205.25,180.73l-5.4-2.39c-1.16-.55-5.82,1.47-2.21,3.13h0l5.33,2.51c1.16.61,7.29-1.04,2.27-3.25Z" fill="none"/>
    <path d="m186,197.95l-5.82-.61c-1.29-.12-5.09,3.19-1.1,3.68l5.76.73c1.35.18,6.62-3.25,1.16-3.8Z" fill="none"/>
    <path d="m167.61,245.53l-5.03,2.94c-1.17.61-2.27,5.51,1.22,3.61h0s5.15-2.82,5.15-2.82c1.16-.61,3.43-6.5-1.35-3.74Z" fill="none"/>
    <path d="m176.56,212.36l-5.82.68c-1.29.12-4.29,4.17-.31,3.8l5.82-.43c1.35-.12,5.82-4.6.31-4.05Z" fill="none"/>
    <path d="m168.53,236.95l-5.33,2.39c-1.17.49-2.82,5.33.86,3.74l5.46-2.27c1.22-.49,4.04-6.13-.98-3.86Z" fill="none"/>
    <path d="m170.37,228.48l-5.58,1.84c-1.22.37-3.37,4.97.49,3.8l5.58-1.66c1.29-.43,4.72-5.7-.49-3.98Z" fill="none"/>
    <path d="m173.07,220.27l-5.76,1.22c-1.22.25-3.86,4.6.06,3.86l5.76-1.1c1.35-.24,5.33-5.15-.06-3.98Z" fill="none"/>
    <path d="m286.97,170.74c-.12-1.29-4.17-4.35-3.86-.37l.49,5.89c.12,1.29,4.6,5.76,3.98.31l-.61-5.82Z" fill="none"/>
    <path d="m291.26,174.3l-.12,5.89c-.06,1.29,3.92,6.19,3.92.73v-5.89c0-1.29-3.74-4.72-3.8-.73Z" fill="none"/>
    <path d="m278.5,167.31c-.3-1.29-4.66-3.86-3.92.06l1.1,5.76c.25,1.29,5.15,5.27,4.05-.12l-1.22-5.7Z" fill="none"/>
    <path d="m269.68,164.79c-.43-1.22-5.03-3.37-3.86.43l1.72,5.64c.37,1.29,5.64,4.72,3.98-.49l-1.84-5.58Z" fill="none"/>
    <path d="m260.66,163.2c-.55-1.23-5.33-2.82-3.8.86l2.27,5.4c.55,1.23,6.13,4.11,3.92-.92l-2.39-5.33Z" fill="none"/>
    <path d="m228.86,170.25l-4.35-3.92c-.98-.86-6.01-.43-3.13,2.33l4.29,4.05c.98.92,7.3,1.22,3.19-2.45Z" fill="none"/>
    <path d="m233.39,164.12c-.92-.92-5.95-1.04-3.37,2.02l3.86,4.41c.86,1.04,7.11,2.02,3.43-2.08l-3.92-4.35Z" fill="none"/>
    <path d="m242.46,162.83c-.8-1.04-5.82-1.66-3.56,1.66l3.37,4.84c.74,1.1,6.87,2.7,3.62-1.72l-3.43-4.78Z" fill="none"/>
    <path d="m251.53,162.53c-.68-1.1-5.52-2.27-3.62,1.29l2.76,5.15c.68,1.17,6.56,3.43,3.8-1.35l-2.94-5.09Z" fill="none"/>
    <path d="m302.05,154.8c-6.07-3.68-11.95-7.66-18.39-10.79-10.18-4.97-18.45-4.05-27.89-5.09-13.18-1.47-21.64-6.13-39.85-2.57-17.47,3.43-20.97,14.96-31.02,22.93-13,10.24-30.4,17.16-38.07,31.82-8.4,16.12-6.87,35.92-6.99,54.07,0,9.13-1.53,17.6-1.84,26.3,11.95-6.32,29.24-14.96,40.34-20.84-.12-29,17.35-56.46,45.92-67.49,22.68-8.77,47.14-5.21,66.02,7.48,11.09-5.95,28.07-15.02,39.91-21.39-9.01-6.81-18.88-8.77-28.14-14.41Zm-133.09,94.47l-5.15,2.82h0c-3.5,1.9-2.39-3-1.22-3.62l5.03-2.94c4.78-2.76,2.51,3.13,1.35,3.74Zm.55-8.46l-5.46,2.27c-3.68,1.59-2.02-3.25-.86-3.74l5.33-2.39c5.03-2.27,2.21,3.37.98,3.86Zm1.35-8.34l-5.58,1.66c-3.86,1.17-1.72-3.43-.49-3.8l5.58-1.84c5.21-1.71,1.78,3.56.49,3.98Zm2.27-8.21l-5.76,1.1c-3.92.73-1.29-3.61-.06-3.86l5.76-1.22c5.4-1.17,1.41,3.74.06,3.98Zm3.13-7.85l-5.82.43c-3.98.37-.98-3.68.31-3.8l5.82-.68c5.52-.55,1.04,3.92-.31,4.05Zm3.92-7.54l-5.88-.12c-3.98-.12-.55-3.8.73-3.8h5.89c5.52-.06.61,3.92-.74,3.92Zm4.66-7.11l-5.76-.73c-3.98-.49-.18-3.8,1.1-3.68l5.82.61c5.46.55.18,3.98-1.16,3.8Zm5.45-6.5l-5.76-1.35c-3.86-.92.24-3.86,1.53-3.62l5.76,1.22c5.33,1.17-.25,3.98-1.53,3.74Zm6.01-6.01l-5.52-1.9c-3.8-1.35.61-3.8,1.9-3.37l5.52,1.78c5.27,1.72-.61,3.98-1.9,3.5Zm6.68-5.27l-5.33-2.51h0c-3.62-1.65,1.04-3.68,2.21-3.13l5.4,2.39c5.03,2.21-1.1,3.86-2.27,3.25Zm7.11-4.54l-4.97-3.06c-3.43-2.08,1.41-3.56,2.51-2.88l5.09,2.88c4.78,2.76-1.47,3.74-2.64,3.06Zm7.6-3.8l-4.66-3.56c-3.19-2.39,1.78-3.37,2.82-2.64l4.78,3.43c4.41,3.25-1.84,3.56-2.94,2.76Zm7.97-2.94l-4.29-4.05c-2.88-2.76,2.15-3.19,3.13-2.33l4.35,3.92c4.11,3.68-2.21,3.37-3.19,2.45Zm8.21-2.15l-3.86-4.41c-2.57-3.06,2.45-2.94,3.37-2.02l3.92,4.35c3.68,4.11-2.57,3.13-3.43,2.08Zm8.4-1.22l-3.37-4.84c-2.27-3.31,2.76-2.7,3.56-1.66l3.43,4.78c3.25,4.41-2.88,2.82-3.62,1.72Zm8.4-.37l-2.76-5.15c-1.9-3.56,2.94-2.39,3.62-1.29l2.94,5.09c2.76,4.78-3.13,2.51-3.8,1.35Zm8.46.49l-2.27-5.4c-1.53-3.68,3.25-2.08,3.8-.86l2.39,5.33c2.21,5.03-3.37,2.15-3.92.92Zm8.4,1.41l-1.72-5.64c-1.17-3.8,3.43-1.65,3.86-.43l1.84,5.58c1.65,5.21-3.62,1.78-3.98.49Zm8.15,2.27l-1.1-5.76c-.74-3.92,3.62-1.35,3.92-.06l1.22,5.7c1.11,5.4-3.8,1.41-4.05.12Zm7.91,3.13l-.49-5.89c-.3-3.98,3.74-.92,3.86.37l.61,5.82c.61,5.46-3.86.98-3.98-.31Zm11.46,4.66c0,5.46-3.98.55-3.92-.73l.12-5.89c.06-3.98,3.8-.55,3.8.73v5.89Zm-45.05-22.99c-50.7,0-92.08,41.38-92.08,92.08,0,2.15.06,4.23.24,6.38l-15.32,8.22c.55-6.5,1.29-12.87,1.41-19.37.06-17.47-1.72-37.33,7.11-53.27,9.26-15.08,27.77-20.72,40.09-32.67,3.92-3.98,7.36-8.46,11.53-12.14,8.52-6.99,20.17-8.4,30.9-7.48,7.17.8,14.28,2.7,21.4,3.61,6.98.74,13.91.55,20.72,2.45,10.42,3.13,19.06,10.67,28.69,15.51,5.58,2.7,11.34,4.84,16.73,7.72l-15.27,8.15c-15.57-12.02-35.06-19.19-56.15-19.19Z"/>
    <path d="m338.76,317.86s12.08,2.64,7.54,17.28c-4.47,14.59-18.39,62.22-18.02,61.85.43-.37-4.17,10.97-10.48,1.29-6.25-9.69-24.71-36.66-24.71-36.66,0,0,8.34-8.83,10.05-11.77,1.65-2.94,7.54-6.74,13.42-8.83,5.82-2.14,22.19-14.77,22.19-23.17h0Z" fill-rule="evenodd"/>
    <path d="m355.99,299.35l9.2,8.4s5.89,2.15,2.94,12.63c-2.94,10.54-17.59,56.83-17.59,56.83,0,0-2.51,8.46-6.31,2.94l-2.51-2.94s-2.09-.43,0-7.97c2.08-7.6,10.91-40.83,10.91-40.83,0,0,.98-5.7-2.52-8.03l-8.4-5.46c-.92-.92,7.05-13.55,14.28-15.57Z" fill-rule="evenodd"/>
    <path d="m175.4,262.07l-8.95,3.86c-5.52,2.95-4.47,8.34-4.47,8.34v35.79c0,7.23,5.82,3.8,5.82,3.8l7.29-3.37c3.62-1.96,3.13-6.75,3.13-6.75v-8.03l-5.09,2.33v4.23c0,3.62-.8,3.13-3.43,4.05-2.57.98-2.08-1.96-2.08-1.96v-29.42c.18-2.45.18-3.25,3.25-4.72,3.13-1.47,2.76,1.78,2.76,3.8l5.21-1.9v-8.03c0-3.8-3.43-2.02-3.43-2.02Z" fill="none"/>
    <path d="m338.21,177.12c-1.36-1.73-2.86-3.35-4.47-4.84l-195.73,104.15c.24,8.65,2.15,17.59,8.21,27.83,4.6,7.84,11.89,13.48,19.25,19.06l185.68-99c-4.35-15.63-.67-31.69-12.93-47.2Zm-159.38,95.01l-5.21,1.9c0-2.02.37-5.27-2.76-3.8-3.06,1.47-3.06,2.27-3.25,4.72v29.42s-.49,2.94,2.08,1.96c2.64-.92,3.43-.43,3.43-4.05v-4.23l5.09-2.33v8.03s.49,4.78-3.13,6.75l-7.29,3.37s-5.82,3.43-5.82-3.8v-35.79s-1.04-5.4,4.47-8.34l8.95-3.86s3.43-1.77,3.43,2.02v8.03Zm23.11,23.6l-5.82,3.37v-21.64l-6.68,3.43v21.7l-5.83,3.38v-47.33l5.83-3.37v19.98l6.68-3.43v-20.04l5.82-3.31v47.26Zm28.75-16.36l-6.01,3.37-8.21-13.55-4.05,2.02v18.94l-5.82,3.31v-47.26l5.83-3.37h0l5.21-2.64s6.62-3.43,6.62,3.86v14.47s-.92,5.94-3.74,7.41l6.56,11.1,3.62-1.71v4.05Zm11.34-28.81v23.29l-5.82,2.82v-25.01h0s-9.63-16.18-9.63-16.18l5.88-2.51,5.83,10.54,4.35-16.92,6.68-3.98-7.3,27.95Zm23.54,12.2l-8.4,3s-4.29,2.46-4.29-2.51v-4.97l4.66-1.9v3.13s-.06,1.34,2.76.55l2.02-1.16s1.72.24,1.72-3.01v-10.3s.06-2.94-2.08-1.72l-5.15,2.02s-4.05.73-4.05-4.41v-16.61s-.67-3.62,3.07-5.77h0s8.22-4.11,8.22-4.11c0,0,5.09-3.25,5.09,3.01v6.44l-3.98,1.84v-3.07s.18-3.8-2.45-2.33l-2.27.98s-1.54.55-1.54,2.64v11.89s.37,3,2.82,1.59l3.86-1.35s4.17-2.27,4.17,2.39v16.67s.24,4.53-4.17,7.05Zm26.91-15.58l-15.44,7.67v-47.27l6.07-3.06v41.75l9.38-4.72v5.64Zm20.91-51.74l-10.79,5.58v14.35l6.32-3.25v7.11l-6.32,3.25v14.34l10.79-5.52v4.84l-15.94,8.21v-47.38l15.94-8.21v6.68Zm22.56,27.89l-8.28-13.55-4.05,2.02v18.94l-5.76,3.37h0v-47.38l5.76-3.31,5.21-2.7s6.62-3.43,6.62,3.86v14.53s-.86,5.95-3.74,7.42l6.62,11.09,3.55-1.72v4.05l-5.94,3.37Z"/>
    <g>
      <path d="m211.32,304.19c17.65,12.63,41.13,16.43,62.89,8.03,27.1-10.49,43.47-36.97,42.48-64.49l-105.38,56.46Zm73.32-13.79l-4.17-4.47-27.4,22.25-.68-7.29-7.91.37,11.04-9.07,1.71,6.93,26.05-20.53,2.39,4.17,6.25-3.8-7.29,11.46Z"/>
      <path d="m327.61,187.05l-3.99,1.9v15.94l3.74-2.08s3.01-.98,3.01-5.21v-8.09s-.68-3.43-2.76-2.45Z"/>
      <path d="m219.17,256.99v-8.09s-.68-3.37-2.76-2.39l-3.98,1.9v15.88l3.68-2.08s3.06-1.04,3.06-5.21Z"/>
    </g>
  </g>
</svg>