<?xml version="1.0" encoding="UTF-8"?>
<svg id="Layer_1" data-name="Layer 1" xmlns="http://www.w3.org/2000/svg" width="500" height="500" viewBox="0 0 500 500">
  <rect width="500" height="500" fill="none"/>
  <g>
    <path d="m376.76,325.37c.5.5,1.51,1.51,3.51,1,2.51-.5,2.51-4.02,2.51-4.02,0,0,.5-9.14.5-18.17,0-11.15-9.14-21.19-9.14-21.19,0,0-91.47-101.01-123.8-101.01s-124.21,101.01-124.21,101.01c0,0-9.14,10.14-9.14,21.19,0,9.14.5,18.17.5,18.17,0,0,0,4.02,2.51,4.02,2.01,0,2.51-.5,3.51-1,10.14-9.14,92.48-79.32,126.31-79.32s116.78,70.29,126.92,79.32"/>
    <path d="m120.61,233.5c2.01,0,2.51-.5,3.51-1,10.14-9.14,92.48-79.32,126.31-79.32s116.17,70.69,126.31,79.32c.5.5,1.51,1.51,3.51,1,2.51,0,2.51-4.02,2.51-4.02,0,0,.5-9.14.5-18.17,0-11.15-9.14-21.19-9.14-21.19,0,0-91.37-101.61-123.7-101.61s-124.31,101.51-124.31,101.51c0,0-9.14,10.14-9.14,21.19,0,9.14.5,18.17.5,18.17,0,0,.6,3.61,3.11,4.12"/>
    <path d="m318.62,367.34c-11.15-.5-22.69,0-22.69,0-13.66,0-24.8,9.64-24.8,21.19s11.15,21.19,24.8,21.19h22.69c13.66,0,24.8-9.64,24.8-21.19s-10.64-20.68-24.8-21.19m-7.53,36.85h-7.03c-7.53,0-16.17-6.02-16.17-15.66s8.64-15.16,16.17-15.16h7.03c8.03,0,16.17,5.52,16.17,15.16s-8.64,15.66-16.17,15.66"/>
    <path d="m453.97,368.34h-35.34c-.5,0-2.01,0-2.01,1.51v38.36c0,1,1,1.51,1.51,1.51h14.66v-31.83c0-1.51,1-2.01,2.01-2.01h16.17c4.52,0,11.15,4.02,11.15,12.65v19.68s0,1.51,1.51,1.51h14.16v-20.18c.5-12.15-10.14-21.19-23.8-21.19"/>
    <path d="m190.3,368.34h-60.65c-1,0-1.51,1-1.51,1.51v6.53h14.66c5.52,0,9.14,4.52,9.14,9.14v22.69c0,1,.5,1.51,1.51,1.51h14.66v-31.33c0-1,1-2.01,2.01-2.01h21.69v-6.53c0-1-1-1.51-1.51-1.51"/>
    <path d="m117.6,368.34h-13.15c-1,0-1.51.5-1.51,1.51v38.36c0,1,1,1.51,1.51,1.51h14.66v-39.86c0-1-.5-1.51-1.51-1.51"/>
    <path d="m252.45,394.55h0c7.03-1.51,12.15-7.03,12.15-13.15,0-6.53-6.02-13.66-16.17-13.66h-39.36c-4.52,0-8.64,3.51-8.64,8.64v31.33c0,1,.5,1.51,1.51,1.51h14.66v-14.66h14.16c12.15,0,17.17,9.14,17.67,14.66h16.17c-.5-10.54-12.15-14.66-12.15-14.66m-10.64-7.03h-25.3v-8.03c0-2.51,1.51-4.02,4.02-4.02h21.69c3.51,0,6.02,2.51,6.02,6.02s-2.81,6.02-6.43,6.02"/>
    <path d="m55.45,373.37h7.03c6.02,0,11.65,3.01,14.16,8.03,0,0,.5,1,1.51,1h15.66c-3.51-8.64-13.15-14.66-23.7-14.66-5.52,0-16.17-.5-22.69,0-7.53.5-12.65,2.01-17.67,6.53-4.52,4.02-7.53,9.64-7.53,15.16,0,11.65,10.64,21.19,24.8,21.69,9.64.5,10.64.5,23.19,0,11.55-.4,19.58-5.42,23.6-14.46h-15.66c-.5,0-1,0-1.51,1-3.01,5.02-8.03,8.03-14.16,8.03h-7.03c-8.03,0-16.17-6.02-16.17-15.66s8.13-16.67,16.17-16.67"/>
    <path d="m367.62,400.17v-8.03h33.34v-7.53h-33.34v-7.03s0-2.01,2.51-2.01h37.85v-6.02c0-1.51-2.01-1.51-2.01-1.51h-53.02s-1.51,0-1.51,1.51v31.13c0,4.02,3.01,8.64,8.64,8.64h46.49c1,0,1.51-1,1.51-1.51v-6.02h-38.36c-1.61.4-2.11-.6-2.11-1.61"/>
    <path d="m376.26,353.18c-1.51-1-3.51-1.51-5.52-1.51s-4.02.5-5.52,1.51-2.51,2.01-2.51,3.51,1,2.51,2.51,3.51,3.51,1.51,5.52,1.51,4.02-.5,5.52-1.51,3.01-2.51,4.52-2.51,3.01,1.51,4.52,2.01c1.51,1,3.51,1.51,5.52,1.51s4.02-.5,5.52-1.51,2.01-2.01,2.01-3.51-1-2.51-2.51-3.51-3.51-1.51-5.52-1.51-4.02.5-5.52,1.51-2.51,2.01-4.52,2.01-2.51-.5-4.02-1.51"/>
  </g>
</svg>