<?xml version="1.0" encoding="UTF-8"?>
<svg id="Layer_1" data-name="Layer 1" xmlns="http://www.w3.org/2000/svg" width="500" height="500" viewBox="0 0 500 500">
  <rect width="500" height="500" fill="none"/>
  <g>
    <path d="m465.44,450.78c1.12,1.12,2.84,2.41,5.85,2.07,4.39-.52,4.56-7.23,4.56-7.23,0,0,1.03-15.24,1.03-30.64,0-19.28-15.06-36.24-15.06-36.24,0,0-156.91-172.75-211.83-172.75S38.26,378.74,38.26,378.74c0,0-15.15,16.96-15.15,36.24,0,15.41,1.03,30.64,1.03,30.64,0,0,.17,6.71,4.56,7.23,3.01.34,4.65-.95,5.85-2.07,17.47-15.24,157.43-135.31,215.36-135.31s197.97,120.07,215.44,135.31"/>
    <path d="m28.7,293.87c3.01.43,4.65-.95,5.85-1.98,17.56-15.15,157.43-135.4,215.36-135.4s197.97,120.25,215.44,135.4c1.21,1.03,2.84,2.32,5.85,1.98,4.39-.43,4.56-7.14,4.56-7.14,0,0,1.03-15.24,1.03-30.64,0-19.37-15.15-36.24-15.15-36.24,0,0-156.83-172.75-211.74-172.75S38.26,219.76,38.26,219.76c0,0-15.15,16.87-15.15,36.24,0,15.41,1.03,30.64,1.03,30.64,0,0,.17,6.71,4.56,7.14"/>
  </g>
</svg>