<?xml version="1.0" encoding="UTF-8"?>
<svg id="Layer_1" data-name="Layer 1" xmlns="http://www.w3.org/2000/svg" width="500" height="500" viewBox="0 0 500 500">
  <rect width="500" height="500" fill="none"/>
  <g>
    <path d="m473.41,311.67c-.76,9.87-7.47,14.48-15.59,14.13-2.39-.12-4.79,0-7.18.06-2.69.06-4.32,1.11-3.91,4.2.23,1.63.12,3.33,0,5.02-.53,7.53-1.81,14.94-5.6,21.66-3.15,5.6-7.36,9.22-14.36,8.52-2.98-.29-6.07-.18-9.11,0-5.02.23-8.58-2.04-11.27-6.07-4.38-6.6-5.95-14.01-6.25-21.72-.12-2.92-.93-3.44-3.68-3.09-19.67,2.69-39.29,5.37-58.96,7.76-3.56.47-5.37,1.75-6.13,5.2-.47,2.1-1.46,4.14-2.51,6.01-3.91,6.83-9.4,11.09-17.81,10.45-2.69-.18-5.43-.23-8.17,0-9.46.82-15.53-3.62-19.21-11.97-.76-1.81-1.81-2.16-3.62-1.87-4.44.76-8.87,1.58-13.31,1.75-3.97.12-5.25,1.98-6.01,5.55-1.69,7.88-5.14,15-10.86,20.84-4.5,4.55-9.75,7.36-16.4,7.18-5.43-.18-10.86-.06-16.29-.12-4.61,0-8.52-1.69-12.03-4.61-5.55-4.67-8.87-10.74-10.86-17.57-.53-1.69-.99-3.09-3.27-2.98-4.79.18-9.63,0-14.42.29-20.9.93-41.8.29-62.64-.64-2.1-.12-3.39.47-4.73,2.16-5.14,6.77-11.73,10.86-20.67,10.27-3.62-.23-7.3-.23-10.97-.06-10.22.47-17.1-4.61-21.72-13.13-1.46-2.69-3.15-3.74-6.07-3.85-4.26-.12-8.64-.47-11.97-3.79-9.11-9.17-14.89-20.02-14.59-33.33.12-6.89.76-13.78,1.81-20.61,1.63-10.51,5.14-20.26,12.73-28.08,1.52-1.58,2.39-3.27,3.04-5.31,3.68-11.73,8.58-22.71,19.61-29.6.35-.23.58-.58.88-.88,13.49-16.11,26.85-32.28,40.46-48.28,9.87-11.62,18.91-23.99,30.71-33.8,8.99-7.47,17.98-14.94,26.85-22.59,3.33-2.86,7.01-4.85,11.21-5.95,18.62-4.79,37.71-5.84,56.8-6.83,8.87-.47,17.75-.58,26.62-.93,15.7-.7,31.35-.23,46.99.64,12.78.7,25.45,3.15,38.18,4.85,29.31,3.91,58.55,7.82,87.86,11.79,8.29,1.11,16.64,1.69,24.75,3.68,5.37,1.34,9.4,4.09,11.03,9.87,9.11,32.05,14.59,64.57,13.89,97.96-.35,22.65-1.63,45.24-3.39,67.83h.12Zm-295.62-39.05c8.46-.29,16.87-1.05,25.28-1.81,3.09-.29,5.78.18,8.11,2.28,1.58,1.4,3.15,1.34,5.14.35,8.46-4.26,17.57-5.84,27.03-5.2,9.22.64,18.39-.53,27.55-.76,5.6-.12,11.27-.64,16.87-.88,16.7-.7,33.39-1.34,50.09-2.1,23.18-.99,46.29-2.1,69.47-3.15,17.86-.82,35.67-1.63,53.53-2.51,1.17,0,2.28-.23,3.44-.35,6.19-.64,6.3-.64,6.54-7.06.35-11.5-.35-22.94-.93-34.44-.99-19.5-4.67-38.53-9.57-57.33-1.4-5.43-1.34-5.49-6.71-6.25-16.58-2.16-33.1-4.32-49.68-6.42-20.43-2.51-40.81-5.02-61.24-7.41-12.14-1.4-24.28-2.45-36.43-3.91-8.81-1.05-15.76,1.75-21.07,8.93-2.74,3.68-5.84,7.12-8.76,10.62-.88,1.05-1.87,2.34-3.39,1.05-1.4-1.23-.47-2.45.41-3.5,3.5-4.2,7.01-8.29,10.39-12.55,5.55-6.95,12.78-9.4,21.42-8.52,31.35,3.15,62.7,6.71,93.93,10.68,18.33,2.28,36.66,4.85,54.93,7.24.99.12,2.28.64,2.98-.29.7-.99.12-2.22-.35-3.27-1.11-2.57-3.39-3.56-5.9-4.2-6.42-1.63-12.96-2.1-19.5-2.98-25.98-3.56-51.9-7.01-77.88-10.51-17.57-2.34-35.14-4.96-52.77-6.89-8.06-.88-16.29-.23-24.46-.41-17.34-.41-34.68,0-51.96.93-15.29.82-30.65,1.87-45.71,4.96-6.3,1.28-12.03,3.39-17.1,7.82-10.04,8.81-20.67,16.99-30.47,26.04-8.41,7.76-15.18,16.99-22.53,25.69-11.68,13.78-23.23,27.67-34.79,41.56-2.63,3.15-5.2,6.3-7.82,9.4-1.17,1.34-1.52,2.51.23,3.56,1.93,1.17,1.34,2.1,0,3.33-6.01,5.6-10.57,12.08-12.61,20.2-.64,2.51-2.39,1.81-3.97,1.58-1.34-.23-2.8-.93-3.27,1.11-.41,1.93,1.11,2.16,2.45,2.51,5.72,1.4,11.56,1.93,17.34,2.34,18.97,1.4,37.95,1.93,65.62,1.98,9.63.12,27.9-.76,46.18-1.4l-.06-.06Zm98.95,33.92c1.34,10.92,1.05,21.89.18,32.87-.41,5.02-.23,5.08,4.79,4.44,24.28-3.21,48.63-6.42,72.91-9.63,15.53-2.04,31-4.2,46.53-6.3,2.22-.29,3.39-1.23,4.03-3.56,3.62-13.6,6.77-27.38,11.03-40.81,5.25-16.58,23-17.57,32.34-8.76.82.76,1.63,1.34,2.74,1.23,5.31-.35,10.62-.76,15.94-1.05,1.81-.12,2.45-1.05,2.8-2.74,1.81-9.28.76-10.16-8.64-9.46-10.51.82-21.07,1.05-31.58,1.58-21.89.99-43.78,2.04-65.67,3.04-9.4.41-18.8.88-28.14,1.28-22.71,1.05-45.48,2.1-68.18,3.09-2.8.12-5.66,0-8.46,0,12.61,8.41,15.76,21.31,17.45,34.79h-.06Zm-95.8,15.76c4.44-.41,7.3-2.69,8.41-7.01,2.16-8.35,4.79-16.46,9.05-23.99,2.39-4.32,5.25-8.29,8.87-11.68.82-.76,2.57-1.52,1.81-2.92-.76-1.34-2.28-2.1-4.03-1.98-4.79.35-9.57.64-14.36.93-9.46.58-18.97,1.4-28.43,1.63-17.22.41-34.44,1.17-51.72.64-19.26-.64-38.65-.58-57.79-3.56-2.28-.35-4.55-.7-6.71-1.4-2.16-.76-3.5-.12-4.9,1.46-6.01,6.71-8.81,14.89-9.98,23.58-.88,6.19-1.23,12.43-1.87,18.68-.23,2.04.47,2.92,2.69,3.21,18.97,2.04,38,3.68,57.09,4.55,10.33.47,20.67.29,31,.58,20.37.29,40.69-.82,61-2.74h-.12Zm88.03-31.87c-4.2-11.03-12.2-16.75-23.76-17.98-10.86-1.17-21.02.76-30.41,6.36-7.71,4.61-12.08,11.97-15.65,19.85-5.49,12.2-7.88,25.28-10.1,38.35-.82,4.85-1.4,9.69-2.28,14.54-.41,2.22.41,2.92,2.45,2.74,2.51-.18,5.02-.41,7.47-.53,2.34-.12,2.16-1.93,2.51-3.39,1.75-7.76,3.39-15.53,5.2-23.23,1.34-5.78,3.21-11.44,5.25-17.05,4.14-11.38,12.78-17.16,24.34-19.03,5.25-.82,10.57-1.17,15.88-.23,6.48,1.17,10.74,4.85,12.96,10.92,4.26,11.44,4.61,23.23,2.98,35.2-.35,2.39-.64,4.79-1.11,7.12-.35,1.69.29,2.1,1.81,1.87,1.11-.18,2.28-.41,3.39-.47,1.87-.18,2.63-1.05,2.86-2.98.58-6.25.7-12.49.76-18.8.12-11.33-.47-22.53-4.55-33.33v.06Zm144.83,24.46c2.86-7.3,5.78-14.54,8.46-21.89,1.05-2.92,3.04-4.61,5.66-5.9,5.02-2.57,15.24-1.87,18.39,2.51,2.22,3.09,2.69,6.6,2.86,10.04.29,5.95.53,11.91-.35,17.81-.29,1.87.12,2.69,2.22,2.51,2.8-.18,5.66,0,8.46-.18,5.14-.29,7.3-2.57,7.71-7.65.76-9.75,1.58-19.56,2.34-29.31.29-4.03-.06-4.2-4.09-3.85-5.31.47-10.62.7-15.94,1.05-1.23.06-2.16-.23-2.92-1.28-3.74-5.02-9.11-6.25-14.83-5.37-5.9.88-9.57,4.79-11.5,10.33-2.92,8.52-5.14,17.22-7.36,25.92-1.4,5.43-2.74,10.86-4.14,16.29.18.06.35.12.47.18,1.52-3.74,3.04-7.47,4.5-11.21h.06Zm-183.19,40.51c2.63,3.85,6.95,4.03,9.98.47,4.03-4.73,4.38-13.78.7-18.8-2.74-3.74-6.77-3.85-9.69-.23-2.39,2.98-3.33,6.42-3.21,10.22-.06,2.98.47,5.84,2.16,8.35h.06Zm-5.25-27.96c6.19-7.01,14.19-6.6,19.32,1.23,4.73,7.24,5.25,15.24,3.5,23.53-.93,4.61-2.8,8.76-6.07,12.2-6.07,6.42-14.3,5.6-18.91-1.93-1.28-2.1-2.22-4.5-3.39-6.66,1.23,4.85,3.21,9.34,7.3,12.55,4.96,3.91,11.79,3.04,16.29-1.98,3.91-4.32,6.07-9.52,6.95-15.18,1.05-7.01.93-14.01-2.1-20.61-2.51-5.43-5.95-10.04-12.73-9.98-6.83.06-10.22,4.79-12.73,10.33.88-1.17,1.63-2.39,2.57-3.5Zm210.04,23.58c3.15-3.62,4.5-8.06,5.02-12.61.99-7.88.7-15.7-3.91-22.65-2.57-3.85-6.54-4.38-9.87-1.17,4.38-.7,7.01,1.58,8.52,5.02,4.03,9.11,3.91,18.27-.64,27.2-1.69,3.33-4.26,5.43-8.99,4.32,3.91,3.44,7.01,3.21,9.87-.06v-.06Z"/>
    <path d="m133.95,234.67c16.23,0,32.4-.29,48.63.06,18.33.35,32.05-7.53,42.5-22.18,10.86-15.12,20.9-30.76,30.71-46.59.29-.47.53-.88.82-1.34,2.1-3.79,1.23-5.37-3.15-5.43-23-.23-45.94,0-68.89,1.75-15.82,1.17-31.64,2.28-47.46,3.27-6.3.41-11.15,2.51-15.24,7.76-13.72,17.51-27.9,34.68-41.86,52.01-.93,1.11-1.87,2.28-2.57,3.56-2.1,4.14-.41,7.01,4.2,7.06,9.52.06,19.03.12,28.55.12h23.82v-.12l-.06.06Z"/>
    <path d="m243.64,242.08c13.6-.18,27.15-1.34,40.57-3.15,8.64-1.17,18.91-7.53,20.37-20.84,1.69-15.29,2.28-30.59,1.17-45.94-.41-6.07-2.45-8-8.46-8.17-6.13-.18-12.38-.23-18.45.53-6.36.76-10.62,5.14-13.84,10.39-8.7,14.24-17.4,28.55-25.92,42.97-3.21,5.37-5.84,11.09-6.66,17.45-.58,4.61.64,6.36,5.31,6.83,1.98.18,3.97,0,5.95,0l-.06-.06Z"/>
    <path d="m238.45,128.6c-18.33-.88-36.54.06-54.41,4.32-15.41,3.68-29.48,9.87-40.75,21.42-.93.93-2.69,1.87-2.16,3.15.64,1.52,2.45.29,3.68.12,32.92-4.85,66.08-6.07,99.3-5.6,4.5.06,8.99.35,13.43.53,1.52.06,2.8-.18,3.91-1.52,5.37-6.54,10.8-13.02,16.23-19.5.53-.64,1.63-1.28.99-2.39-.47-.82-1.52-.58-2.34-.58h-37.89v.06Z"/>
    <path d="m464.95,229.94c-.12,3.85-1.11,4.79-4.96,4.85-19.73.23-39.52.47-59.25.64-6.07.06-12.14-.12-18.21.12-20.78.93-41.56,0-62.35.93-3.62.18-4.61-.99-4.67-4.73-.47-20.67-.93-41.39-1.34-62.05-.12-4.55.47-5.14,5.08-4.85,11.27.76,22.48,1.69,33.74,2.63,19.32,1.58,38.7,3.21,58.03,4.79,15.18,1.23,30.36,2.57,45.59,3.68,2.86.23,4.14,1.4,4.55,4.03,2.1,13.08,4.14,26.21,3.79,39.52,0,3.44.06,6.89,0,10.33v.12Zm-43.9,1.87c12.32-.18,24.64-.35,36.95-.41,2.8,0,3.5-.99,3.62-3.68.47-15.29-1.05-30.41-3.62-45.48-.35-1.93-1.05-2.69-2.92-2.86-9.17-.7-18.27-1.52-27.44-2.28-14.65-1.23-29.31-2.45-43.96-3.62-11.33-.93-22.65-1.75-34.03-2.69-9.28-.76-18.51-1.52-27.73-2.34-3.91-.35-4.26-.18-4.2,3.91.41,19.09.88,38.18,1.23,57.33,0,2.34.88,3.09,3.15,3.09,7.71-.06,15.47,0,22.42,0,26.04-.53,51.31-.64,76.59-.99h-.06Z"/>
    <path d="m159.4,268.12c10.68-.35,21.25-1.11,31.52-4.38,6.3-2.04,11.68-5.49,16.17-10.33,5.6-6.01,6.42-12.84,3.91-20.37-.7-2.16-1.69-2.39-3.68-1.23-11.56,7.01-24.05,10.97-37.65,10.97-1.98,0-3.33.88-4.61,2.22-5.72,6.07-9.75,13.25-13.6,20.55-1.11,2.04-.23,2.57,1.75,2.57h6.25-.06Z"/>
    <path d="m281.64,319.02c0,2.92,0,5.84.53,8.76.41,2.1,1.58,3.09,3.74,2.86,14.65-1.58,29.25-3.09,43.9-4.61,13.49-1.4,27.03-2.63,40.51-4.03,9.22-.93,18.45-2.04,27.67-3.09,4.79-.53,7.59-2.92,8.23-7.88.29-2.28,1.17-4.44,1.58-6.71.58-3.09-.29-4.14-3.39-3.97-8.87.64-17.69,1.34-26.5,2.1-11.33.93-22.65,1.93-33.98,2.92-16.23,1.4-32.46,2.8-48.63,4.2-3.21.29-6.42.7-9.69.76-2.98.06-4.14,1.46-3.97,4.32.06,1.46,0,2.92,0,4.38Z"/>
    <path d="m100.5,309.51h11.27c3.44,0,5.9-1.28,7.24-4.79,1.75-4.55,3.97-8.99,5.78-13.54,1.58-4.03.47-5.72-3.85-5.9-9.57-.41-19.21-.88-28.78-1.11-12.61-.29-25.28-.53-37.89-1.23-6.13-.35-8.99,2.34-9.17,8.35-.12,3.21-.23,6.48-.35,9.69-.18,4.38,2.28,6.95,6.89,7.18,5.84.23,11.68.53,17.51.58,10.45.12,20.9,0,31.29,0v.7l.06.06Z"/>
    <path d="m109.02,321.24c2.63.47,4.85.12,5.9-2.98.58-1.81.47-2.8-1.69-2.98-4.79-.29-9.57-.7-14.36-.99-12.9-.7-25.8-1.4-38.76-2.1-3.97-.23-7.88-.53-11.85-.76-1.34-.06-3.39-.93-3.44,1.34-.06,1.93.53,3.97,3.21,4.2,3.09.29,6.19.82,9.34,1.05,13.72,1.17,27.44,2.04,41.21,2.63,3.44.18,6.89.35,10.39.53l.06.06Z"/>
    <path d="m168.1,307.58c-11.27.58-22.48.06-33.74.64-3.97.18-5.43,3.44-6.77,6.54-2.45,5.66-2.16,6.01,3.97,6.01h18.16c4.09,0,5.08-.82,6.01-4.79.06-.29.12-.64.18-.93.23-1.75-.12-4.38.82-4.96,1.69-1.05,4.14-.88,6.3-1.17,1.75-.18,3.5-.06,5.08-1.28v-.06Z"/>
  </g>
</svg>