<?xml version="1.0" encoding="UTF-8"?>
<svg id="Layer_1" data-name="Layer 1" xmlns="http://www.w3.org/2000/svg" width="500" height="500" viewBox="0 0 500 500">
  <rect width="500" height="500" fill="none"/>
  <g>
    <path d="m250.33,123.54c44.17,0,83.45,17.46,108.1,44.68l-21.57,5.39c-20.03-22.85-51.36-37.49-86.53-37.49s-66.51,14.64-86.53,37.49l-21.83-5.39c24.65-27.22,63.94-44.68,108.36-44.68h0Z" fill-rule="evenodd"/>
    <path d="m250.59,257.57l-25.42-61.11c-1.03-2.57-2.57-5.65-5.39-7.96-2.31-1.8-4.62-2.31-6.93-3.08l-91.67-22.6-5.39-11.3c-1.8-3.59-4.11-4.88-7.45-5.65l-82.43-20.29c-1.54-.26-2.31.51-2.57.77-.51.77-.51,1.8-.26,2.82l50.59,91.67h0c2.57,4.11,4.88,4.88,6.68,5.39h.26c.77.26,64.71,15.92,65.48,15.92q.51,0,.51.51l5.39,11.56c1.8,3.34,4.37,4.62,6.16,5.14l81.91,20.03h.51c.77,0,1.28-.51,1.8-1.28l7.7-18.49c.77-.51.77-1.28.51-2.05Zm-10.01,18.74l-81.14-19.77c-1.8-.51-3.34-1.54-4.37-3.59l-5.39-11.56c-.51-1.28-1.54-1.8-2.57-2.05-.26,0-58.8-14.38-65.22-15.92h-.26c-1.54-.51-3.08-.77-4.88-3.85l-50.33-90.64,81.14,19.77c3.08.77,4.37,1.8,5.39,4.11l5.91,12.58,92.95,22.85c2.31.51,4.11,1.03,5.65,2.31,2.31,1.8,3.59,4.62,4.62,6.93l25.42,61.11-6.93,17.72Z" fill="#fff"/>
    <path d="m115.78,234.46l24.91,6.16c3.08,41.85,35.95,76.52,79.86,87.56l-5.14,12.33c-57-12.33-99.12-55.21-99.63-106.05h0Z" fill-rule="evenodd"/>
    <path d="m250.33,344.37c-6.93,0-13.87-.51-20.54-1.28l5.14-12.33c5.14.51,10.27,1.03,15.41,1.03s10.01-.26,14.89-.77l5.14,12.33c-6.68.51-13.35,1.03-20.03,1.03h0Z" fill-rule="evenodd"/>
    <path d="m295.52,374.92l-10.01-1.8c-1.03-.26-2.05-.51-2.57-2.05l-31.84-76.78c-.26-.77-.51-1.54-.26-2.31.51-1.28,1.8-4.37,2.31-5.65,1.03-2.82,2.82-4.88,4.11-5.91.26-.26.77-.26,1.03.26l38.26,92.44c.77,1.03,0,2.05-1.03,1.8h0Z" fill-rule="evenodd"/>
    <path d="m284.48,340.77l-5.14-12.33c44.42-10.78,77.55-45.71,80.63-87.82l24.91-6.16c-.26,51.1-42.88,93.98-100.4,106.31h0Z" fill-rule="evenodd"/>
    <polygon points="214.89 262.71 189.22 256.29 178.43 231.38 151.21 224.45 139.14 199.03 167.65 206.22 157.12 181.31 184.08 188.24 194.35 212.64 220.29 219.06 230.56 244.22 204.62 237.8 214.89 262.71" fill-rule="evenodd"/>
    <g>
      <path d="m242.11,269.39l-28.76-69.84c-2.05-4.88-5.91-6.93-8.99-7.7l-78.32-19.26c-.26,0-.51,0-.26.26l34.41,72.93c1.28,2.82,4.11,5.14,7.45,6.16,25.93,6.16,48.27,12.07,74.21,17.97.26.51.51.26.26-.51h0Z" fill="none"/>
      <path d="m249.05,258.09l-25.16-61.11c-1.28-2.82-2.57-5.39-4.88-7.45-2.05-1.54-4.11-2.05-6.42-2.57l-92.44-22.6-5.65-12.07c-1.28-3.08-3.34-4.11-6.42-4.88l-82.43-20.29c-1.28-.26-1.54.51-1.28,1.28l50.59,91.67h0c2.31,3.85,4.37,4.11,6.16,4.62,0,0,64.97,15.92,65.22,15.92.77.26,1.28.51,1.54,1.28,0,.26,5.39,11.56,5.39,11.56,1.28,2.57,3.34,3.85,5.39,4.37l82.43,20.03c.26,0,.51,0,.51-.26l7.7-18.49c0-.26,0-.51-.26-1.03Zm-107.33-26.96l-49.56-12.33c-2.05-.51-6.42-1.54-9.24-6.68l-40.83-73.7c-.26-.51,0-.77.51-.51l58.29,14.38c2.31.51,4.11,1.54,6.16,4.11,1.03,1.54,1.8,3.08,2.57,4.88l32.61,69.33c0,.26,0,.51-.51.51Zm99.89,39.03c-25.93-5.91-48.27-11.81-74.21-17.97-3.34-.77-5.91-3.34-7.45-6.16l-34.15-72.93c0-.26,0-.51.26-.26l78.32,19.26c2.82.77,6.93,2.82,8.99,7.7l28.76,69.84h0c.26.51,0,.77-.51.51Z"/>
    </g>
    <path d="m112.7,222.91l-12.07-25.16-28.76-6.93-14.38-26.19,31.07,7.7-11.81-24.91s20.8,5.14,22.85,5.65c3.59.77,6.42,3.08,7.7,6.42.51,1.54,9.24,19.52,9.24,19.52l-28.25-6.93,12.07,25.42,28.25,6.93,11.81,25.16-27.73-6.68h0Z" fill-rule="evenodd"/>
    <path d="m386.68,152.55l-5.91,12.84-92.95,22.85c-2.31.51-4.11,1.03-5.91,2.31-2.31,1.8-3.59,4.62-4.37,6.93l-72.93,175.89,9.5-1.54c.77,0,1.03-.26,1.54-1.28,1.28-3.34,34.92-84.48,35.44-85.51,2.05-4.88,5.39-7.96,9.24-8.99l80.11-19.52c1.8-.51,3.34-1.54,4.37-3.59,0,0,5.39-11.3,5.39-11.56.51-1.28,1.54-1.8,2.57-2.05.26,0,58.55-14.38,65.22-15.92h.26c1.54-.51,3.08-.77,4.88-3.85l50.07-90.64-81.14,19.77c-2.82.51-4.11,1.54-5.39,3.85Zm12.07.26l58.55-14.38c.51,0,1.03,0,1.28.26l.26,1.03-41.08,74.21c-3.08,5.39-7.45,6.42-9.76,6.93l-49.82,12.07c-.51.26-1.03-.26-1.03-.26l-.26-.77,33.38-70.87,2.31-4.11c2.05-2.57,3.85-3.34,6.16-4.11Z" fill="none"/>
    <path d="m476.55,126.36c-.26-.26-1.03-1.03-2.57-.77l-82.43,20.03c-3.34.77-5.91,2.05-7.45,5.65l-5.39,11.56-91.67,22.6c-2.31.51-4.62,1.28-6.93,3.08-2.82,2.31-4.37,5.39-5.39,7.96l-72.93,176.15c-.51,1.03-.26,2.31.51,3.08.51.51,1.03.77,1.8.77h.51l10.01-1.8c1.28-.26,2.82-.77,3.85-3.08.26-.77,34.92-84.48,35.44-85.51,1.03-2.31,3.34-6.42,7.19-7.19,1.03-.26,76.78-18.74,80.11-19.52,2.05-.51,4.62-1.54,6.42-5.14,0,0,5.39-11.04,5.39-11.56q0-.26.77-.51c.51-.26,64.71-15.92,65.48-15.92h.26c1.8-.51,4.37-1.28,6.68-5.39l50.59-91.67h0c.51-1.03.26-2.05-.26-2.82Zm-53.15,92.95c-1.8,3.08-3.34,3.59-4.88,3.85h-.26c-6.68,1.54-64.97,15.92-65.22,15.92-1.03.26-2.05.77-2.57,2.05,0,.26-5.39,11.56-5.39,11.56-1.03,1.8-2.31,3.08-4.37,3.59l-80.37,19.77c-3.85.77-7.19,4.11-9.24,8.99-.51,1.28-33.89,82.17-35.44,85.51-.51,1.03-.77,1.03-1.54,1.28l-9.5,1.54,72.67-175.89c1.03-2.31,2.31-4.88,4.37-6.93,1.8-1.28,3.59-1.8,5.91-2.31l92.95-22.85,5.91-12.84c1.03-2.31,2.31-3.34,5.65-4.11l81.14-19.77-49.82,90.64Z" fill="#fff"/>
    <path d="m377.44,172.32h0c-.26-.26-.77-.51-1.03-.51l-78.32,19.26c-2.05.51-6.93,2.31-9.5,7.96l-28.76,70.1c-.26.77-.26,1.28,0,1.54.26.51.77.51,1.28.51l48.79-11.81,25.16-6.16c3.34-.77,6.16-3.34,7.7-6.42l34.67-73.44v-1.03Z" fill="none"/>
    <path d="m474.24,127.13l-82.43,20.03c-3.08.77-5.14,1.8-6.42,4.88l-5.65,12.07-92.44,22.6c-2.31.51-4.37,1.03-6.42,2.57-2.31,2.05-3.85,4.62-4.88,7.45l-72.93,176.41c-.51,1.28,0,2.05,1.28,1.8l10.01-1.8c1.03-.26,2.05-.51,2.57-2.05,0,0,34.92-84.48,35.44-85.51,1.8-3.85,4.37-7.19,8.22-7.96,1.03-.26,80.11-19.52,80.11-19.52,2.05-.51,4.11-1.54,5.39-4.37,0,0,5.39-11.3,5.39-11.56.26-.77.77-1.03,1.54-1.28.26,0,65.22-15.92,65.22-15.92,1.8-.51,3.85-.77,6.16-4.62l50.59-91.67c.77-1.03.51-1.8-.77-1.54Zm-131.21,119.4c-1.54,3.08-4.37,5.65-7.7,6.42l-25.16,6.16-48.79,11.81c-.51,0-1.03,0-1.28-.51-.26-.26-.26-.77,0-1.54l28.76-69.84c2.31-5.65,7.45-7.45,9.5-7.96l78.32-19.26c.51,0,.77,0,1.03.51h0l.26.77-34.92,73.44Zm74.72-32.35c-3.08,5.39-7.45,6.42-9.76,6.93l-49.82,12.07c-.51.26-1.03-.26-1.03-.26l-.26-.77,33.38-70.87,2.31-4.11c2.31-2.82,4.11-3.85,6.42-4.37l58.55-14.38c.51,0,1.03,0,1.28.26l.26,1.03-41.34,74.47Z"/>
    <polygon points="405.17 214.44 381.29 220.09 383.08 216.49 406.71 210.84 405.17 214.44" fill-rule="evenodd"/>
    <path d="m394.13,211.87h-.26c-.26,0-.51-.26-.77-1.03-.26-1.8,0-3.34,1.03-5.14-.26.26-.77.51-1.03.51-.77.51-1.8.26-2.31,0-.51-.51-.77-1.28-.51-2.31s.77-2.05,1.28-3.08c.26-.26.51-.77.51-1.03v-.26c.26-.51.51-1.03.51-1.28,0-.77.51-1.28,1.03-1.54.77,0,1.54.51,1.54,1.28l5.65-11.56,2.05-.51c.51-2.05.77-4.62.26-6.42,0-.51-.26-.77-.51-.77,0,0-.26,0-.77.51-1.03,1.03-1.54,2.57-2.57,4.11-.51.77-1.03,1.8-1.54,2.82-.26.51-.77,1.28-1.03,1.54-.26.26-.77.51-1.28.26-.26,0-.77-.51-.51-1.54v-.51c.26-.51.26-1.28.26-1.8s0-1.03.26-1.54c0-1.03.26-2.31.51-3.85,1.03-4.11,3.08-7.45,6.16-8.99.77-.51,4.88-2.31,6.68-.26.51.77.77,1.8.77,2.82.26-.51.26-1.03.51-1.54l.77-2.57c1.28-3.34,2.57-5.91,4.11-7.96,1.28-1.8,3.34-3.59,4.88-4.37.26-.26.77-.26,1.28,0s.51.77.51,1.03c.26,3.85-.77,7.96-3.34,12.07,2.57-3.34,5.14-4.88,7.19-4.88.77,0,2.31.26,2.57,2.82.26,2.31-1.03,5.91-3.08,7.7h0c-.77.77-1.28,1.28-2.05,1.8-1.54,1.28-2.57,2.05-3.59,3.85-.26.51-.51,1.03-1.03,1.8-.26.51-.77.77-1.03.77s-.77,0-1.03-1.03c0-.51,0-1.28.26-1.54.51-1.28.77-2.05,1.28-2.82.51-.77.77-1.28,1.03-2.05-.26,0-.51.26-1.03.77-2.31,2.31-5.14,5.14-7.19,8.22l1.54-.26-4.88,10.01c.26-.26.77-.51,1.03-.77.77-.51,1.8,0,2.05.51s.26,1.28-.51,1.54c-.51.26-.77.51-1.03,1.03-.26.51-.77,1.03-1.03,1.54-.51.77-.77,1.54-1.28,2.05-1.28,1.8-2.31,2.82-3.59,3.59-.77.51-1.8.51-2.31,0h-.26c-.26,1.03-.51,1.8-1.03,2.57-1.54,2.57-3.34,4.37-4.88,5.39.26.26,0,.26-.26.26h0Zm-.26-1.54h0Zm5.91-10.01c-.77,1.03-1.54,2.05-2.31,3.08l-.77.77c-1.54,2.05-2.31,3.85-2.31,5.65,1.28-1.03,2.82-2.57,3.85-4.62.51-1.03.77-2.05,1.03-3.85.26,0,.26-.51.51-1.03h0Zm-5.39-1.28c-.26.26-.26.77-.51,1.03v.26c-.26.51-.51.77-.51,1.03-.51.77-1.03,1.54-1.28,2.57-.26.51,0,.77,0,.77,0,0,.26,0,.51-.26,1.03-.51,2.05-1.28,3.08-2.57.26-.26.51-.51.77-1.03-.26.26-.77.26-1.03,0-.26,0-.77-.51-.77-1.28-.26.26-.26,0-.26-.51h0Zm8.22-1.03c-.51,1.03-.77,2.05-1.03,3.34-.26.77,0,1.03,0,1.03,0,0,.26,0,.77-.26,1.03-.51,2.05-1.54,3.08-3.08.51-.51.77-1.28,1.28-2.05.26-.51.51-.77.77-1.28l-.26.26-.26.26c-.51.51-1.03,1.54-1.8,2.05-.51.26-1.28.77-2.05.26,0,.26-.26,0-.51-.51h0Zm-6.93.26v1.54h0c.51-.26,1.03-1.03,1.54-1.8l-1.54.26h0Zm8.99-2.05c-.26.51-.51.77-.51,1.28v.26s.26,0,.26-.26c.51-.51,1.03-1.03,1.54-1.8,0,.26-1.28.51-1.28.51Zm-2.31-8.22l-4.11,8.22,2.05-.51h0l3.85-1.03h0l1.8-.51,4.11-8.22h-.26l-.51-.51c0,.26-.26.26-.26.51l-.26.26-2.57.77h0l-3.85,1.03h0Zm4.88-17.46c-1.03,0-2.31.51-3.59,1.03-2.57,1.54-4.37,4.37-5.39,8.22-.26,1.28-.51,2.57-.51,3.59,0,.51,0,1.03-.26,1.54v.26c.26-.77.77-1.54,1.03-2.05.77-1.8,1.8-3.34,2.82-4.62,1.03-1.03,1.8-1.03,2.31-1.03.77.26,1.28.77,1.54,1.8.26,1.54.51,3.34.26,5.14.26-.51.26-.77.51-1.28.77-2.05,1.8-4.37,2.31-6.68,1.03-3.08,1.03-4.88.26-5.65-.26-.26-.77-.51-1.28-.26h0Zm13.61-12.84c-1.03.77-2.82,2.05-3.85,3.59-1.28,2.05-2.57,4.37-3.85,7.7l-.77,2.57c-1.28,3.34-2.57,6.93-3.85,10.53,2.05-3.85,4.11-6.68,6.16-9.24,1.03-1.28,1.8-2.57,2.82-3.85,2.57-3.85,3.59-7.7,3.34-11.3h0Zm-3.08,23.88h0Zm8.47-15.92c-1.8,0-3.85,1.54-6.16,4.37-2.57,3.08-5.14,6.42-7.45,9.76,1.54-1.8,3.08-3.59,4.62-4.88.77-.77,1.28-1.03,1.54-1.03,1.03-.51,1.54-.26,1.8,0,.26.26.51.77.26,1.54-.26,1.03-.77,1.8-1.28,2.57h0c1.03-1.03,1.8-1.8,3.08-2.82.51-.51,1.28-1.03,2.05-1.54,1.54-1.28,2.82-4.37,2.57-6.42,0-1.54-.77-1.54-1.03-1.54h0Zm-6.68,9.24h.26l-.51-.51.26.51h0Z"/>
    <path d="m297.58,238.83l2.82-6.68-21.06,5.14-.77-1.28,10.53-13.35,16.95-4.11,2.82-6.42,28.76-7.19-2.82,6.68,21.31-5.14.77,1.28-10.53,13.35-17.46,4.37-2.82,6.68c-.51-.26-28.5,6.68-28.5,6.68Zm5.14-8.99l-2.82,6.68,24.39-6.16,2.82-6.68,17.72-4.37,8.99-11.3-22.08,5.39,2.82-6.68-24.91,6.16-2.82,6.42-17.2,4.11-8.99,11.3,22.08-4.88h0Z"/>
    <polygon points="167.65 206.22 178.43 231.38 204.62 237.8 194.35 212.64 167.65 206.22" fill="#fff" fill-rule="evenodd"/>
  </g>
</svg>