<?xml version="1.0" encoding="UTF-8"?>
<svg id="Layer_1" data-name="Layer 1" xmlns="http://www.w3.org/2000/svg" width="500" height="500" viewBox="0 0 500 500">
  <rect width="500" height="500" fill="none"/>
  <path d="m380.19,148.61l-72.74,35.73h0l44.59,16.86c9.22,3.64,20.08,8,24.08,18.86,4,10.86-2,20.86-7.22,29.3l-24.51,38.16c-28.94,45.01-57.45,90.03-86.39,134.97v-41.8h0c10.86-34.94,21.72-69.52,32.15-104.46,2.79-10.07,6-19.72,8.86-29.72,1.57-6,.79-9.65-5.22-12.43l-44.23-21.72-44.23,21.72c-5.64,2.79-6.86,6.43-5.22,12.43,2.79,10.07,5.64,19.72,8.86,29.72,10.43,34.94,21.29,69.88,32.15,104.46h0v41.8c-28.94-45.01-57.88-90.03-86.39-134.97l-24.51-38.16c-5.22-8.43-11.22-18.51-7.22-29.3,4-11.22,14.86-15.29,24.08-18.86l44.59-16.86h0l-72.74-35.73h0l22.94,38.16-37.8,14.43c-26.44-41.3-52.59-82.31-78.67-123.68,74.74,26.51,149.48,53.45,224.57,78.74,75.17-25.72,149.84-52.23,224.57-78.74-26.08,41.37-52.66,82.38-78.74,123.76l-37.8-14.43,22.08-38.16"/>
</svg>