<?xml version="1.0" encoding="UTF-8"?>
<svg id="Layer_1" data-name="Layer 1" xmlns="http://www.w3.org/2000/svg" width="500" height="500" viewBox="0 0 500 500">
  <rect width="500" height="500" fill="none"/>
  <g>
    <path d="m91.58,230.17l-14.22,6.99h0l8.72,3.3c1.8.71,3.93,1.56,4.71,3.69s-.39,4.08-1.41,5.73l-4.79,7.46c-5.66,8.8-11.23,17.6-16.89,26.39v-8.17h0c2.12-6.83,4.25-13.59,6.29-20.43.54-1.97,1.17-3.86,1.73-5.81.31-1.17.15-1.89-1.02-2.43l-8.65-4.25-8.65,4.25c-1.1.54-1.34,1.26-1.02,2.43.54,1.97,1.1,3.86,1.73,5.81,2.04,6.83,4.16,13.66,6.29,20.43h0v8.17c-5.66-8.8-11.32-17.6-16.89-26.39l-4.79-7.46c-1.02-1.65-2.19-3.62-1.41-5.73.78-2.19,2.91-2.99,4.71-3.69l8.72-3.3h0l-14.22-6.99h0l4.48,7.46-7.39,2.82c-5.17-8.08-10.28-16.1-15.38-24.18,14.61,5.18,29.23,10.45,43.91,15.4,14.7-5.03,29.3-10.21,43.91-15.4-5.1,8.09-10.3,16.11-15.4,24.2l-7.39-2.82,4.32-7.46"/>
    <path d="m400.72,255.95c3.14,0,6.29-3.14,6.29-7.85v-6.76c0-4.55-4.01-7.61-8.96-7.61h-53.19v32.53h10.3v-9.89h34.96l6.13,9.89h11.55l-7.07-10.3h-.01Zm-2.91-8.96c0,.87-.71,1.49-1.56,1.49h-41.09v-7.61l41.09-.08c.87,0,1.56.63,1.56,1.49,0,0,0,4.71,0,4.71Z"/>
    <path d="m195.2,266.24h-53.26c-4.95,0-8.96-3.69-8.96-8.33v-15.94c0-4.55,4.01-8.33,8.96-8.33h53.26v8.87h-51.46c-.87-.08-1.56.63-1.56,1.41v11.86c0,.87.71,1.49,1.56,1.49h51.46v8.96Z"/>
    <path d="m265.82,233.71v24.28c0,4.55-4.01,8.33-8.96,8.33h-44.39c-4.95,0-8.96-3.69-8.96-8.33v-24.28h10.69v22.16c0,.87.71,1.49,1.56,1.49h37.71c.87,0,1.56-.63,1.56-1.49v-22.16h10.77Z"/>
    <path d="m477.62,233.64h-53.26c-4.95,0-8.96,3.77-8.96,8.33l.08,24.27h10.06v-9.89h42.18v9.89h10.06v-32.6s-.08.08-.15,0h-.01Zm-9.89,14.85c-14.53-.08-42.26-.15-42.18,0v-6.13c0-.87.71-1.49,1.56-1.49h40.62v7.61h0Z"/>
    <path d="m327.49,233.71v.08h-53.43v32.53h10.06v-9.89h43.37c6.92,0,8.96-3.77,8.96-8.33v-6.76c0-4.55-2.36-7.61-8.96-7.61h0Zm-.15,13.27c0,.87-.71,1.49-1.56,1.49h-41.55v-7.7h41.55c.87,0,1.56.63,1.56,1.49v4.71Z"/>
  </g>
</svg>