<?xml version="1.0" encoding="UTF-8"?>
<svg id="Layer_1" data-name="Layer 1" xmlns="http://www.w3.org/2000/svg" width="500" height="500" viewBox="0 0 500 500">
  <rect width="500" height="500" fill="none"/>
  <path id="path4147-2" d="m44.18,125.59v38.24h141.54v38.57H44.18v38.24h156.28c3.58,0,5.95-.99,8.39-3.45l41.15-40.02,41.15,40.02c2.44,2.46,4.81,3.45,8.39,3.45h156.28v-38.24h-141.54v-38.57h141.54v-38.24h-156.28c-3.58,0-5.95.99-8.39,3.45l-41.15,40.02-41.15-40.02c-2.44-2.46-4.81-3.45-8.39-3.45H44.18Z" fill-rule="evenodd"/>
  <path id="path4168" d="m22.21,326.54v15.81l58.17.37c1.39,0,2.16.32,3.04,1.2l6.19,5.35c.45.45.66.74.66,1.21s-.21.76-.66,1.21l-6.19,5.35c-.88.88-1.65,1.2-3.04,1.2l-58.17.37v15.81h65.45c2.34,0,3.49-.38,4.99-1.88l18.7-19.33c.7-.7,1.17-1.8,1.17-2.72s-.46-2.01-1.17-2.72l-18.7-19.33c-1.5-1.5-2.65-1.88-4.99-1.88H22.21Z" fill-rule="evenodd"/>
  <path id="path133" d="m169.88,326.54c-1.03,0-1.61.21-2.02.61l-45.92,46.11c-.48.48-.26,1.15.49,1.15h22.33l23.68-24.56c.49-.49.86-.7,1.44-.7s.95.21,1.44.7l23.68,24.56h22.33c.75,0,.97-.67.49-1.15l-45.92-46.11c-.4-.4-.99-.61-2.02-.61h0Z"/>
  <path id="path4168-2" d="m317.93,326.54v15.81l-58.17.37c-1.39,0-2.16.32-3.04,1.2l-6.19,5.35c-.45.45-.66.74-.66,1.21s.21.76.66,1.21l6.19,5.35c.88.88,1.65,1.2,3.04,1.2l58.17.37v15.81h-65.45c-2.34,0-3.49-.38-4.99-1.88l-18.7-19.33c-.7-.7-1.17-1.8-1.17-2.72s.46-2.01,1.17-2.72l18.7-19.33c1.5-1.5,2.65-1.88,4.99-1.88h65.45,0Z" fill-rule="evenodd"/>
  <rect id="rect166" x="345.25" y="326.54" width="18.3" height="47.87"/>
  <path id="path133-9" d="m429.6,326.54c-1.03,0-1.61.21-2.02.61l-45.92,46.11c-.48.48-.26,1.15.49,1.15h22.33l23.68-24.56c.49-.49.86-.7,1.44-.7s.95.21,1.44.7l23.68,24.56h22.33c.75,0,.97-.67.49-1.15l-45.92-46.11c-.4-.4-.99-.61-2.02-.61h0Z"/>
</svg>