<?xml version="1.0" encoding="UTF-8"?>
<svg id="Layer_1" data-name="Layer 1" xmlns="http://www.w3.org/2000/svg" width="500" height="500" viewBox="0 0 500 500">
  <rect width="500" height="500" fill="none"/>
  <g>
    <path id="path5" d="m306.09,418.92c-10.33-119.55,68.45-216.41,154.57-227.81,52.71,106.6-45.22,208.54-154.57,227.81h0Z" fill-rule="evenodd"/>
    <path id="path7" d="m398.5,120.31c12.98,8.12,33.58,27.68,40.68,37.28-110.08,58.68-143.95,165.96-141.08,262.7-4.76.9-10.04,1.26-14.43,2.09-8.14-139.5,53.22-239.86,114.84-302.04h0v-.02Z" fill-rule="evenodd"/>
    <path id="path9" d="m312.38,82.81c15.75,2.82,39.22,11.18,52.19,17.93-61.5,118.9-92.12,186.23-87.74,322.31h0l-14.14.9h0c1.17-191.28,18.76-229.43,49.69-341.11h0v-.02Z" fill-rule="evenodd"/>
    <path id="path11" d="m275.45,77.15c-15.84-1.48-33.87-2.02-52.56-.51,16.79,116.37,18.69,165.6,21.85,347.58,3.96.07,6.83.07,11.64-.15-.73-180.79,3.23-229.51,19.05-346.92h.02Z" fill-rule="evenodd"/>
    <path id="path13" d="m187.56,82.81c-15.77,2.82-39.15,11.18-52.12,17.93,61.43,118.9,92.12,186.23,87.65,322.31h0l14.22.9h0c-1.24-191.28-18.83-229.43-49.76-341.11h0l.02-.02Z" fill-rule="evenodd"/>
    <path id="path15" d="m101.51,120.31c-12.98,8.12-33.48,27.68-40.68,37.28,110.08,58.68,143.88,165.96,141.01,262.7,4.84.9,10.18,1.26,14.51,2.09,8.14-139.5-53.14-239.86-114.86-302.04h0l.02-.02Z" fill-rule="evenodd"/>
    <path id="path17" d="m193.95,418.92c10.25-119.55-68.45-216.41-154.57-227.81-52.78,106.6,45.15,208.54,154.57,227.81h0Z" fill-rule="evenodd"/>
  </g>
</svg>