<?xml version="1.0" encoding="UTF-8"?>
<svg id="Layer_1" data-name="Layer 1" xmlns="http://www.w3.org/2000/svg" width="500" height="500" viewBox="0 0 500 500">
  <rect width="500" height="500" fill="none"/>
  <g>
    <path d="m457.08,218.78c-18.35-11.61-43.13-20.28-80.62-23.95-83.82-4.45-148.05,6.65-233.07,37.44-14.96-34.04-39.5-46.38-70.38-43.72-38.86,5.69-65.01,35.23-42.44,64.69,11.47,10.69,27.98,12.3,44.27,9.23,2.48-.09,3.99,1.23,3.99,4.03h0l-.09,25.74c-.09,4.49-1.51,8.99-5.6,13.49,12.04-2.79,23.84-6.53,35.28-11.19,21.24-11.75,35.37-28.31,35.33-56.2.78-2.43,3.26-3.4,5.14-4.04,75.52-29.87,154.34-41.93,227.56-34.87,34.92,3.62,59.83,12.57,77.91,25.23,14.64,14.09,19.45,24.91,12.25,43.86-13.99,28.22-50.92,39.69-91.86,39.5-24.27,0-48.54-4.45-72.76-11.19,22.16,11.43,47.07,14.64,74.18,14.91,38.27.88,71.85-6.37,95.53-36.06,8.95-13.81,10.92-38.08-14.64-56.89h0Zm-386.86,8.99c4.08.92,7.93,2.25,7.84,6.51l-.27,21.7c-6.97,3.99-14.91,4.68-24.55,2.02-26.66-10.05-30.24-46.06,0-60.97,31.11-13.63,72.76-1.1,80.47,35.24.23,2.34-.6,4.22-2.98,5.55l-36.75,14.54c-2.89.6-4.68-.27-4.77-4.45v-18.12c.59-4.13,3.49-7.93,7.02-11.61-8.46,3.74-17.15,6.94-26.01,9.59h0Zm28.44,65.47c-5.6,2.71-8.53.55-8.85-4.72l-.14-24.91c-.28-3.03.41-5.33,3.12-6.01h0l37.25-15.19c2.93-.78,4.17.69,4.22,3.72-1.51,26.2-16.15,38.86-35.6,47.12Z"/>
    <path d="m309.62,255.03v20.23c0,.92-.23,1.69-.69,2.29-.46.6-1.15,1.01-2.11,1.24-.6.18-1.29.27-2.07.32-.78.04-1.56.13-2.34.19v2.61h24.14v-2.63c-.92-.05-1.79-.14-2.52-.28-.73-.14-1.52-.32-2.3-.55-.96-.32-1.65-.78-2.07-1.37-.37-.6-.59-1.33-.59-2.2v-19.96c0-4.5-1.24-7.85-3.67-10.05-2.43-2.15-5.74-3.26-9.91-3.26-1.93-.01-3.85.2-5.73.64-1.74.46-3.26,1.01-4.49,1.7-1.29.65-2.51,1.4-3.68,2.25-.87.69-1.97,1.51-3.17,2.43-1.01-1.93-2.66-3.58-4.96-4.96-2.34-1.38-5.09-2.06-8.3-2.06-1.91,0-3.82.21-5.69.64-1.74.46-3.21.96-4.4,1.61-1.01.55-2.15,1.29-3.35,2.2-1.2.87-2.25,1.65-3.07,2.34h-.32c.41-2.16-.19-4.27-1.75-6.42l-15.46,1.1v2.61c.97.05,1.94.18,2.89.37.81.15,1.6.41,2.34.78.81.42,1.52,1.01,2.06,1.74.46.64.69,1.42.69,2.29v24.36c0,.92-.18,1.7-.64,2.29-.46.6-1.15,1.01-2.11,1.24-.6.18-1.29.27-2.11.32-.82.04-1.6.13-2.38.19v2.61h24v-2.61c-.92-.05-1.75-.19-2.48-.28-.73-.13-1.47-.36-2.16-.6-.92-.32-1.65-.78-2.1-1.42-.46-.59-.69-1.33-.69-2.2v-22.48c.32-.37.82-.92,1.51-1.65.7-.79,1.52-1.45,2.43-1.97,1.25-.74,2.59-1.31,3.99-1.7,1.49-.41,3.04-.61,4.59-.6,2.39,0,4.4.74,5.97,2.25,1.6,1.47,2.38,3.63,2.38,6.38v20.23c0,.92-.23,1.7-.69,2.29-.46.6-1.15,1.01-2.07,1.24-.6.18-1.29.27-2.02.32-.69.04-1.42.13-2.2.19v2.61h23.63v-2.61c-1.01-.05-1.83-.14-2.43-.28s-1.33-.32-2.07-.55c-.96-.32-1.69-.78-2.07-1.37-.41-.6-.59-1.33-.59-2.2v-22.67c.32-.46.82-1.01,1.47-1.7.64-.69,1.47-1.29,2.43-1.88,1.23-.74,2.55-1.3,3.94-1.65,1.47-.41,2.98-.6,4.64-.6,2.38,0,4.36.74,5.96,2.25,1.56,1.47,2.38,3.63,2.38,6.38h0Z"/>
    <path d="m233.41,278.98c-.69-.14-1.42-.32-2.16-.55-.96-.32-1.69-.78-2.11-1.38-.46-.59-.69-1.37-.69-2.25v-27.48c-.23-2.07-1.47-3.99-2.93-5.09l-15.23.87v2.61c1.01.04,2.11.18,3.3.41s2.11.5,2.75.82c.81.42,1.52,1.01,2.07,1.74.46.73.73,1.51.73,2.34v24.23c0,.92-.23,1.7-.69,2.29-.46.6-1.15,1.01-2.11,1.24-.59.18-1.28.27-2.11.32-.82.04-1.61.13-2.39.19v2.61h23.95l-.05-2.61c-.83-.05-1.65-.19-2.34-.32h0Z"/>
    <path d="m222.95,232.41c1.83,0,3.35-.55,4.63-1.7,1.24-1.1,1.88-2.43,1.88-3.95,0-1.33-.64-2.52-1.84-3.58-1.24-1.01-2.8-1.51-4.68-1.51-1.64-.03-3.23.56-4.45,1.65-1.24,1.06-1.88,2.34-1.88,3.81,0,1.38.64,2.62,1.88,3.67,1.24,1.06,2.82,1.63,4.45,1.61h0Z"/>
    <path d="m426.07,242.23l-15.19.87v2.61c.94.04,1.87.13,2.8.27.78.15,1.53.39,2.25.73.84.43,1.53,1.08,2.02,1.88.51.78.73,1.61.73,2.43v24.23c0,.92-.23,1.7-.69,2.29-.42.6-1.15,1.01-2.07,1.24-.6.18-1.33.27-2.11.32-.83.04-1.65.13-2.43.19v2.61h26.1v-2.61c-.96-.05-2.11-.19-3.44-.28-1.29-.13-2.39-.36-3.21-.6-.96-.32-1.69-.78-2.16-1.33-.46-.6-.69-1.33-.69-2.2v-22.85c1.43-1.84,3.27-3.32,5.37-4.32,2.11-1.01,3.99-1.51,5.55-1.51,2.43-.73,6.56,7.48,11.1,2.34h0c1.33-1.47-1.38-4.08-2.71-5.14-1.33-1.1-3.03-1.65-5.13-1.65s-4.45.55-6.98,1.7c-2.62,1.13-4.97,2.79-6.93,4.86h-.28c.37-2.29-.27-4.31-1.92-6.1h0Z"/>
    <path d="m385.46,240.48c-3.49,0-7.8,1.33-10.65,2.48-2.8,1.15-5.18,3.07-7.06,4.91-1.92,1.9-3.45,4.16-4.49,6.65-1.01,2.43-1.51,4.96-1.51,7.52-.02,2.75.46,5.49,1.42,8.07.91,2.51,2.38,4.77,4.31,6.61,1.97,1.93,4.45,3.44,7.43,4.54,2.98,1.11,6.47,1.65,10.46,1.65,4.49,0,8.53-.92,11.97-2.75,3.48-1.88,6.24-4.36,8.35-7.43l-3.54-1.75c-2.01,2.89-4.08,4.82-6.24,5.92-2.16,1.11-4.73,1.66-7.71,1.66s-5.41-.46-7.52-1.33c-2.11-.88-3.81-2.07-5.14-3.58-1.97-2.38-3.53-5.78-3.53-8.63l32.43-12.53c-2.93-8.44-9.68-12.02-18.99-12.02h0Zm-13.76,20.69c-.18-4.45,1.47-10.87,3.81-13.12,2.38-2.25,5.23-3.49,8.76-3.49,2.11,0,3.81.41,5.14,1.19,2.48,1.38,4.82,4.22,4.82,6.61h0l-22.53,8.81h0Z"/>
    <path d="m338.11,277.55c-.46.6-1.19,1.01-2.11,1.24-.6.14-1.29.23-2.16.32-.87.04-1.7.13-2.48.19v2.61h24.14v-2.61c-.87-.05-1.7-.19-2.43-.28-.73-.13-1.47-.36-2.16-.6-.96-.32-1.69-.78-2.11-1.38-.46-.59-.69-1.37-.69-2.25l-.14-48.86c0-1.93-.37-4.91-2.53-5.96l-16.65,1.28v2.57c.96.05,2.29.23,3.9.46,1.6.27,2.71.55,3.31.87.82.49,1.51,1.16,2.01,1.97.51.82.79,1.74.79,2.71v45.42c0,.92-.23,1.7-.69,2.29h0Z"/>
    <path d="m199,276.64c-.23-.64-.64-1.38-.64-2.38,0-3.49.05-6.7.14-9.64.09-2.94.14-6.29.14-10.1,0-2.62-.46-4.82-1.33-6.51-.89-1.68-2.24-3.07-3.9-3.99-1.69-.96-3.58-1.65-5.69-1.93-2.07-.32-4.54-.46-7.34-.46-2.12,0-4.23.25-6.29.73-2.11.55-3.95,1.15-5.46,1.93-1.74.83-4.22-.18-4.22,1.24l-.18,9.68c-.09,2.8,3.21-7.89,8.26-8.95,1.33-1.1,5.41-1.74,7.25-1.74,2.25,0,3.99.37,5.18,1.1,1.24.73,2.16,1.56,2.85,2.57.58.83.99,1.76,1.19,2.75.14,1.01.23,1.65.23,2.02v3.94c-1.56.64-4.68,1.6-9.27,2.85-4.59,1.2-7.66,2.07-9.18,2.52-1.31.42-2.59.91-3.85,1.47-1.38.64-2.48,1.33-3.31,2.11-1.06.97-1.88,2.07-2.43,3.26-.55,1.19-.78,2.52-.78,4.04,0,2.89,1.2,5.23,3.58,7.07,2.39,1.79,5.46,2.66,9.18,2.66,3.49,0,6.51-.5,8.99-1.51,2.48-.96,4.82-2.43,6.97-4.36h.32c.42,1.88,2.16,3.08,3.72,4.04s8.35,2.29,8.99.27h0l.96-3.11c.09-.32-3.62-.41-4.08-1.56h0Zm-10-2.67c-1.24,1.24-2.75,2.29-4.54,3.17-1.83.92-3.9,1.38-6.29,1.38-2.25,0-4.09-.51-5.55-1.56-1.42-1.01-2.16-2.57-2.16-4.77,0-1.69.46-3.21,1.42-4.4.97-1.24,2.3-2.34,4-3.21,1.83-.97,3.81-1.75,5.96-2.39,2.47-.72,4.97-1.38,7.48-1.97l-.32,13.76h0Z"/>
  </g>
</svg>