<?xml version="1.0" encoding="UTF-8"?>
<svg id="Layer_1" data-name="Layer 1" xmlns="http://www.w3.org/2000/svg" width="500" height="500" viewBox="0 0 500 500">
  <rect width="500" height="500" fill="none"/>
  <g>
    <path d="m362.65,204.09c-8.07,0-15.42,3.12-20.75,8.26-5.32,5.14-8.63,12.12-8.63,20.01v35.44c0,7.53,3.31,14.69,8.63,19.83,5.32,4.96,12.67,8.26,20.75,8.26h111.46c1.84,0,3.67-1.83,3.67-3.67v-35.99c0-1.65-1.84-3.49-3.67-3.49h-87.22c-.91,0-1.83-.37-2.38-.92s-.92-1.29-.92-2.02c0-.92.37-1.65.92-2.2.55-.55,1.47-.92,2.38-.92h87.22c1.84,0,3.67-1.65,3.67-3.49v-35.62c0-1.84-1.84-3.49-3.67-3.49h-111.46Z" fill-rule="evenodd"/>
    <path d="m117.7,249.82c0-.92-.37-1.65-.92-2.2-.73-.55-1.47-.92-2.39-.92H25.71c-1.65,0-3.49-1.65-3.49-3.49v-35.62c0-1.84,1.84-3.49,3.49-3.49h112.74c7.9,0,15.24,3.12,20.57,8.26,5.51,5.14,8.81,12.12,8.81,19.83v35.62c0,7.53-3.49,14.69-8.81,19.83-5.33,4.96-12.67,8.26-20.57,8.26H25.71c-1.65,0-3.49-1.83-3.49-3.67v-35.99c0-1.65,1.84-3.49,3.49-3.49h88.69c.92,0,1.65-.37,2.39-.92.55-.56.91-1.29.91-2.02h0Z" fill-rule="evenodd"/>
    <path d="m274.52,250v42.23c0,1.84-1.84,3.67-3.49,3.67h-42.6c-1.65,0-3.49-1.83-3.49-3.67v-42.23c0-.73-.37-1.47-.92-2.02-.55-.55-1.47-.92-2.39-.92s-1.84.37-2.39.92-.92,1.29-.92,2.02v42.23c0,1.84-1.65,3.67-3.49,3.67h-40.21c-1.84,0-3.49-1.83-3.49-3.67v-59.86c0-7.9,3.31-14.87,8.63-20.01,5.33-5.14,12.49-8.26,20.57-8.26h100.45c7.89,0,15.24,3.12,20.57,8.26,5.32,5.14,8.63,12.12,8.63,19.83v60.04c0,1.84-1.65,3.67-3.48,3.67h-41.87c-1.84,0-3.49-1.83-3.49-3.67v-42.23c0-.73-.37-1.47-.92-2.02-.55-.55-1.47-.92-2.38-.92s-1.84.37-2.39.92c-.55.55-.92,1.29-.92,2.02h0Z" fill-rule="evenodd"/>
  </g>
</svg>