<?xml version="1.0" encoding="UTF-8"?>
<svg id="Layer_1" data-name="Layer 1" xmlns="http://www.w3.org/2000/svg" width="500" height="500" viewBox="0 0 500 500">
  <rect width="500" height="500" fill="none"/>
  <path id="path4" d="m22.21,318.15c.18-1.82.36-3.64.36-5.83.18-2,.18-4.37.18-6.75,0-2.73,0-5.1-.18-7.29,0-2-.18-3.83-.36-5.46h6.56c1.64-.18,2.92-.18,3.83-.18,4.19,0,7.29,1.09,9.29,3.1,2.19,2.19,3.28,5.28,3.28,9.29s-1.28,7.47-3.64,9.66c-2.55,2.37-5.83,3.46-10.2,3.46h-3.1c-1.46,0-2.37-.18-3.1-.18-.54,0-.91,0-1.46.18h-1.46Zm443.55,0c.18-.91.18-2,.36-3.28v-7.11c-1.27-2.73-2.73-5.1-4-7.65-1.46-2.37-2.73-4.56-4.19-6.92-.18,1.46-.18,3.64-.36,6.92,0,3.46-.18,7.84-.18,12.94v2.19c.18.91.18,2,.18,3.46h-1.28c-.73-1.09-1.64-2.37-2.55-3.64-1.09-1.09-2.37-2.73-4.01-4.56l-10.39-11.48v10.02c0,1.82.18,3.46.18,4.92.18,1.46.18,2.92.36,4.37-.36-.18-.55-.18-.73-.18h-1.45c-.18,0-.55,0-.73.18.18-1.82.36-4.37.36-7.84.18-3.46.18-7.65.18-12.57v-5.65h1.27c2.62,3.37,5.36,6.65,8.2,9.84,2.73,3.28,5.65,6.56,8.57,9.84v-14.4c-.18-1.46-.18-3.09-.36-4.74h3.64c.36.18.73.18,1.28.18.36,0,.73,0,1.09-.18h1.09c.36.91.73,2,1.28,3.28.55,1.09,1.28,2.36,2,3.64l2.92,5.47c1.17-1.96,2.26-3.97,3.28-6.01.91-2,2-4.19,2.92-6.38h.73c.18.18.36.18.73.18s.55,0,.91-.18h.73c-.88,1.38-1.73,2.78-2.55,4.19-.86,1.36-1.65,2.76-2.37,4.19l-3.28,5.65v8.02c0,1.09.18,2.19.18,3.28h-1.09c-.36-.18-.55-.18-.91-.18s-.55,0-.91.18h-1.09Zm-439.54-2c.73.18,1.46.18,2.19.36h1.64c3.64,0,6.56-.91,8.38-2.92,1.82-1.82,2.73-4.74,2.73-8.38s-.91-6.38-2.55-8.2c-1.82-1.83-4.56-2.73-8.02-2.73-.73,0-1.46,0-2.19.18h-2.19v5.65c-.18,3.1-.18,4.92-.18,5.47v3.64c.18,1.64.18,4.01.18,6.92h0Zm20.96,2c.18-1.82.18-3.64.36-5.83v-14.04c-.18-2-.18-3.83-.36-5.46h12.94c-.18.18-.18.36-.18.55v1.27c0,.18,0,.55.18.73-.91-.18-1.82-.36-2.73-.36-.91-.18-2-.18-3.1-.18h-3.28v8.93h5.83c.91-.18,1.82-.18,2.55-.36v2.55c-1.09,0-2-.18-2.92-.18-.73-.18-1.46-.18-2-.18h-3.46v6.92c0,1.27.18,2.36.18,3.64h6.01c1.09-.18,2-.36,2.92-.55v2.55h-12.94,0Zm21.32,0c.18-1.82.18-3.64.36-5.83v-14.04c-.18-2-.18-3.83-.36-5.46h.91c.36.18.73.18,1.09.18s.73,0,1.09-.18h1.09c-.18,1.46-.18,2.92-.18,4.56-.18,1.64-.18,3.46-.18,5.46v8.38c.18,2.19.18,3.83.18,4.92h6.56c.91-.18,1.82-.36,2.92-.55-.18.18-.18.36-.18.73v1.28c0,.18,0,.36.18.55h-13.49,0Zm24.6-24.24c-3.1,0-5.28,1.09-6.92,3.1-1.64,1.82-2.37,4.74-2.37,8.38,0,3.83.73,6.56,2.37,8.75,1.64,2,3.83,2.92,6.92,2.92,2.92,0,5.1-.91,6.74-2.92,1.46-2,2.37-4.92,2.37-8.56s-.91-6.56-2.37-8.56c-1.64-2-3.83-3.09-6.74-3.09h0Zm0,24.78c4.01,0,7.29-1.09,9.66-3.46,2.19-2.37,3.46-5.65,3.46-9.66s-1.28-7.47-3.46-9.84c-2.37-2.19-5.65-3.46-9.66-3.46s-7.29,1.28-9.66,3.64c-2.37,2.36-3.64,5.46-3.64,9.66s1.28,7.29,3.64,9.66,5.47,3.46,9.66,3.46Zm18.77-8.93v3.64c0,1.28.18,2.92.18,4.74h-.91c-.18-.18-.55-.18-.91-.18-.55,0-.73,0-1.09.18h-.91c.18-2.55.18-5.1.36-7.65v-13.12c-.18-1.64-.18-3.1-.36-4.56h7.84c2.55,0,4.37.36,5.65,1.46,1.28.91,2,2.37,2,4.37,0,1.64-.54,3.1-1.82,4.19-1.09,1.28-2.92,2-5.1,2.37,1.64,2.19,3.1,4.37,4.74,6.56,1.48,2.2,3.06,4.33,4.74,6.38h-1.28c-.55-.18-.91-.18-1.28-.18s-.73,0-1.28.18h-1.28c-1.28-2-2.55-4.19-4.01-6.2-1.28-2.19-2.92-4.19-4.37-6.2h-.91v4.01h0Zm0-5.29h1.09c2.37,0,4.19-.55,5.28-1.46,1.28-.91,1.82-2.19,1.82-3.83s-.55-2.92-1.46-3.64c-1.09-.91-2.55-1.27-4.37-1.27h-2.19c0,.72-.18,1.27-.18,2v8.2h0,0Zm16.22,13.67c.18-1.82.18-3.64.36-5.83v-14.04c-.18-2-.18-3.83-.36-5.46h12.94c0,.18,0,.36-.18.55v1.27c.18.18.18.55.18.73-.91-.18-1.82-.36-2.73-.36-.91-.18-2-.18-3.1-.18h-3.28v8.93h6.01c.73-.18,1.64-.18,2.55-.36-.18.36-.18.55-.18.73v.55c0,.18,0,.55.18,1.09v.18c-1.28,0-2.19-.18-3.1-.18-.73-.18-1.46-.18-2-.18h-3.46v6.92c.18,1.27.18,2.36.18,3.64h6.02c1.09-.18,2-.36,3.1-.55-.18.18-.18.36-.18.55v2h-12.94Zm19.86-11.49h6.74l-3.28-9.29-3.46,9.29h0Zm-6.92,11.48h.91c.18-.18.36-.18.73-.18.18,0,.36,0,.73.18h.73c.18-.91.54-2,.73-2.92.36-.91.55-1.82.91-2.73l1.28-4.01h8.56c.55,1.46,1.09,3.1,1.46,4.74.55,1.46,1.09,3.28,1.64,4.92h1.09c.36-.18.73-.18,1.09-.18s.73,0,1.09.18h1.28c-1.82-4.19-3.46-8.56-5.1-12.76-1.82-4.37-3.28-8.75-4.92-13.12-.18,0-.36.18-.36.18h-.91s-.18-.18-.36-.18c-1.82,4.92-3.64,9.29-5.47,13.67-1.63,4.2-3.45,8.39-5.1,12.21h0Zm21.87.18c.18-1.82.36-4.37.36-7.84.18-3.46.18-7.65.18-12.57v-5.65h1.28c2.62,3.37,5.36,6.65,8.2,9.84,2.73,3.28,5.65,6.56,8.56,9.84v-14.4c-.18-1.46-.18-3.09-.36-4.74h2.92c-.18,1.28-.36,3.64-.54,7.29,0,3.46-.18,7.84-.18,12.94v2.19c.18.91.18,2,.18,3.46h-1.09c-.91-1.09-1.82-2.37-2.73-3.64-1.09-1.09-2.37-2.73-4.01-4.56l-10.2-11.48v14.94c.18,1.46.18,2.92.36,4.37-.18-.18-.55-.18-.73-.18h-1.46c-.18,0-.55,0-.73.18h0Zm37.9-.18l2.19-13.12c.55-4.37.91-8.56,1.28-12.76h1.28c1.82,4.01,3.64,7.47,5.28,10.93,1.64,3.28,3.28,6.38,4.74,9.29,1.46-3.1,3.1-6.2,4.74-9.66,1.74-3.48,3.38-7,4.92-10.57h1.28c.36,4.56.91,8.93,1.28,13.3.55,4.19,1.09,8.56,1.64,12.57-.36,0-.73-.18-.91-.18h-2c-.36,0-.73.18-1.09.18l-.54-9.29c-.38-3.22-.74-6.44-1.09-9.66l-5.1,10.57c-.73,1.64-1.46,3.28-2,4.56-.73,1.46-1.09,2.73-1.46,3.83h-.91c-1.46-3.1-2.92-6.38-4.37-9.48-1.64-3.1-3.1-6.2-4.74-9.12l-.91,10.21c-.18,1.46-.36,2.92-.36,4.19-.18,1.46-.18,2.92-.18,4.19h-.73c-.36-.18-.54-.18-.73-.18s-.55,0-.73.18h-.74,0Zm43.92-24.24c-2.92,0-5.28,1.09-6.74,3.1-1.64,1.82-2.55,4.74-2.55,8.38,0,3.83.91,6.56,2.37,8.75,1.64,2,3.83,2.92,6.92,2.92,2.92,0,5.1-.91,6.56-2.92,1.64-2,2.37-4.92,2.37-8.56s-.73-6.56-2.37-8.56c-1.45-2-3.64-3.09-6.56-3.09h0Zm0,24.78c-4.01,0-7.29-1.09-9.66-3.46s-3.46-5.65-3.46-9.66,1.09-7.29,3.46-9.66,5.47-3.64,9.66-3.64,7.11,1.28,9.48,3.46c2.37,2.36,3.46,5.65,3.46,9.84s-1.09,7.29-3.46,9.66c-2.37,2.37-5.28,3.46-9.48,3.46Zm18.04-23.87c0,.92,0,2,.18,2.92v4.19c0,4.01,0,7.29-.18,9.84,0,2.73-.18,4.74-.36,6.38h1.09c.18-.18.55-.18,1.09-.18.36,0,.73,0,1.09.18h.91c-.26-2.3-.38-4.61-.36-6.92,0-3.1-.18-7.11-.18-12.03,0-.55,0-1.28.18-1.82v-2.55h2c.55,0,1.28,0,2.19.18.91,0,2,.18,3.1.36v-2.55c-1.46,0-2.92.18-4.37.18h-9.12c-1.46,0-2.92-.18-4.56-.18v.55c.18.18.18.36.18.73,0,.18,0,.36-.18.72v.55c1.09-.18,2.19-.36,3.1-.36.91-.18,1.46-.18,2-.18h2.19,0Zm22.05-.91c-2.92,0-5.1,1.09-6.75,3.1-1.64,1.82-2.37,4.74-2.37,8.38,0,3.83.73,6.56,2.37,8.75,1.64,2,3.83,2.92,6.75,2.92,3.1,0,5.28-.91,6.92-2.92,1.46-2,2.37-4.92,2.37-8.56s-.91-6.56-2.37-8.56c-1.64-2-3.83-3.09-6.92-3.09h0Zm.18,24.78c-4.19,0-7.28-1.09-9.66-3.46-2.36-2.37-3.64-5.65-3.64-9.66s1.28-7.29,3.64-9.66c2.19-2.37,5.47-3.64,9.48-3.64s7.47,1.28,9.84,3.46c2.19,2.36,3.28,5.65,3.28,9.84s-1.09,7.29-3.28,9.66c-2.36,2.37-5.65,3.46-9.66,3.46h0Zm18.77-8.93v3.64c0,1.28.18,2.92.18,4.74h-.92c-.18-.18-.55-.18-.91-.18-.55,0-.91,0-1.09.18h-.91c.18-2.55.18-5.1.36-7.65v-13.12c-.18-1.64-.18-3.1-.36-4.56h7.83c2.37,0,4.37.36,5.65,1.46,1.28.91,2,2.37,2,4.37,0,1.64-.55,3.1-1.82,4.19-1.09,1.28-2.92,2-5.1,2.37,1.46,2.19,3.1,4.37,4.74,6.56,1.48,2.2,3.06,4.33,4.74,6.38h-1.46c-.36-.18-.73-.18-1.09-.18s-.91,0-1.28.18h-1.28c-1.28-2-2.55-4.19-4.01-6.2-1.42-2.14-2.93-4.21-4.55-6.2h-.73v4.01h0,0Zm0-5.29h1.09c2.37,0,4.19-.55,5.28-1.46,1.28-.91,1.82-2.19,1.82-3.83s-.55-2.92-1.46-3.64c-1.09-.91-2.55-1.27-4.56-1.27h-2c0,.72-.18,1.27-.18,2v8.2h0Zm43.74-6.38h-.36c-.62-1.31-1.64-2.4-2.92-3.1-1.09-.72-2.55-.91-4.19-.91-2.73,0-4.92.91-6.56,2.92-1.64,2-2.36,4.74-2.36,8.38s.91,6.2,2.55,8.38c1.64,2,3.83,3.1,6.56,3.1,1.46,0,2.73-.36,4.01-.91,1.28-.73,2.55-1.64,3.64-2.92l.36.18c-.18.55-.18,1.09-.18,1.46-.18.55-.18,1.09-.18,1.64-1.29.83-2.7,1.45-4.19,1.82-1.37.37-2.77.56-4.19.55-3.83,0-6.92-1.09-9.11-3.46-2.19-2.37-3.28-5.65-3.28-9.66s1.09-7.29,3.46-9.66c2.36-2.37,5.46-3.46,9.47-3.46,1.46,0,2.73.18,4.19.36,1.51.39,2.98.94,4.37,1.64-.36.36-.55.91-.73,1.64,0,.55-.18,1.28-.36,2.01h0Zm13.48-4.19c-2.91,0-5.1,1.09-6.74,3.1-1.64,1.82-2.37,4.74-2.37,8.38,0,3.83.73,6.56,2.19,8.75,1.64,2,4.01,2.92,6.92,2.92s5.28-.91,6.75-2.92c1.64-2,2.37-4.92,2.37-8.56s-.73-6.56-2.37-8.56c-1.46-2-3.83-3.09-6.75-3.09h0Zm0,24.78c4.19,0,7.29-1.09,9.66-3.46s3.46-5.65,3.46-9.66-1.09-7.47-3.46-9.84c-2.37-2.19-5.47-3.46-9.66-3.46s-7.28,1.28-9.66,3.64c-2.37,2.36-3.46,5.46-3.46,9.66s1.09,7.29,3.46,9.66c2.37,2.37,5.65,3.46,9.66,3.46Zm12.76-.55c.73-4.37,1.46-8.75,2-13.12.73-4.37,1.09-8.56,1.46-12.76h1.28c1.82,4.01,3.64,7.47,5.28,10.93,1.64,3.28,3.09,6.38,4.74,9.29,1.45-3.1,3.09-6.2,4.73-9.66,1.74-3.47,3.38-7,4.92-10.57h1.28c.36,4.56.91,8.93,1.28,13.3.55,4.19,1.09,8.56,1.64,12.57-.36,0-.73-.18-1.09-.18h-1.83c-.36,0-.73.18-1.09.18l-.55-9.29c-.36-3.1-.73-6.38-1.09-9.66l-5.09,10.57c-.73,1.64-1.46,3.28-2.19,4.56-.55,1.46-.91,2.73-1.45,3.83h-.73c-1.46-3.1-2.91-6.38-4.37-9.48-1.64-3.1-3.1-6.2-4.74-9.12l-.91,10.21c-.18,1.46-.36,2.92-.36,4.19-.18,1.46-.18,2.92-.18,4.19h-.73c-.36-.18-.55-.18-.73-.18s-.55,0-.73.18h-.73Zm33.17-12.94h1.09c2.37,0,4.19-.36,5.28-1.46,1.28-.91,1.83-2.37,1.83-4.37,0-1.64-.36-2.92-1.46-3.83-.91-.91-2.36-1.27-4.19-1.27h-.91c-.55,0-.91,0-1.46.18,0,.91-.18,1.82-.18,2.73v8.02h0Zm-3.64,12.94c0-2.55.18-5.1.18-7.65.18-2.55.18-4.92.18-7.47,0-2,0-4.01-.18-5.65,0-1.64-.18-3.28-.18-4.56h7.84c2.55,0,4.55.55,5.83,1.64,1.46,1.09,2,2.73,2,4.92s-.73,4.01-2.55,5.28c-1.64,1.46-4.01,2-6.92,2h-2.55v7.28c0,1.28.18,2.73.18,4.19h-.91c-.36-.18-.73-.18-1.09-.18s-.73,0-1.09.18c-.18,0-.54,0-.72,0h0Zm18.41-11.48h6.74l-3.28-9.29-3.46,9.29Zm-6.92,11.48c1.64-3.83,3.46-8.02,5.1-12.21,1.82-4.37,3.64-8.75,5.47-13.67.18,0,.36.18.36.18h.91s.18-.18.36-.18c1.64,4.37,3.1,8.75,4.92,13.12,1.64,4.19,3.28,8.56,5.1,12.76h-1.28c-.36-.18-.73-.18-1.09-.18s-.73,0-1.09.18h-1.09c-.55-1.64-1.09-3.46-1.64-4.92-.38-1.61-.87-3.19-1.46-4.74h-8.56l-1.28,4.01c-.36.91-.55,1.82-.91,2.73-.18.91-.55,2-.73,2.92h-.73c-.36-.18-.55-.18-.73-.18-.36,0-.55,0-.73.18-.37,0-.55,0-.91,0h0Zm-53.4-136.84c-8.01,0-15.3,3.1-20.59,8.2-5.28,5.1-8.57,12.03-8.57,19.86v35.17c0,7.47,3.28,14.58,8.57,19.68,5.28,4.92,12.58,8.2,20.59,8.2h110.61c1.82,0,3.64-1.82,3.64-3.64v-35.72c0-1.64-1.82-3.46-3.64-3.46h-86.56c-.91,0-1.82-.36-2.36-.91s-.91-1.28-.91-2c0-.91.36-1.64.91-2.19.55-.55,1.46-.91,2.36-.91h86.56c1.82,0,3.64-1.64,3.64-3.46v-35.35c0-1.82-1.82-3.46-3.64-3.46h-110.61Zm-243.1,45.38c0-.91-.36-1.64-.91-2.19-.73-.55-1.46-.91-2.37-.91H26.95c-1.64,0-3.46-1.64-3.46-3.46v-35.35c0-1.82,1.82-3.46,3.46-3.46h111.89c7.84,0,15.13,3.1,20.41,8.2,5.47,5.1,8.75,12.03,8.75,19.68v35.35c0,7.47-3.46,14.58-8.75,19.68-5.28,4.92-12.57,8.2-20.41,8.2H26.95c-1.64,0-3.46-1.82-3.46-3.64v-35.71c0-1.64,1.82-3.46,3.46-3.46h88.02c.91,0,1.64-.36,2.37-.91.54-.55.91-1.28.91-2.01h0Zm155.63.18v41.91c0,1.83-1.82,3.64-3.46,3.64h-42.28c-1.64,0-3.46-1.82-3.46-3.64v-41.91c0-.73-.36-1.46-.91-2-.55-.55-1.46-.91-2.37-.91s-1.82.36-2.37.91-.91,1.28-.91,2v41.91c0,1.83-1.64,3.64-3.46,3.64h-39.9c-1.83,0-3.46-1.82-3.46-3.64v-59.41c0-7.84,3.28-14.76,8.56-19.86,5.28-5.1,12.39-8.2,20.41-8.2h99.69c7.83,0,15.13,3.1,20.41,8.2,5.28,5.1,8.56,12.03,8.56,19.68v59.59c0,1.83-1.64,3.64-3.46,3.64h-41.55c-1.82,0-3.46-1.82-3.46-3.64v-41.91c0-.73-.36-1.46-.91-2-.55-.55-1.46-.91-2.36-.91s-1.83.36-2.37.91c-.54.55-.91,1.28-.91,2h0Z" fill-rule="evenodd"/>
</svg>