<?xml version="1.0" encoding="UTF-8"?>
<svg id="Layer_1" data-name="Layer 1" xmlns="http://www.w3.org/2000/svg" width="500" height="500" viewBox="0 0 500 500">
  <rect width="500" height="500" fill="none"/>
  <g>
    <g>
      <path d="M185.02,85.11c-7.65,0-12.17.47-12.17.47,108.16,24.14,127.74,137.86,127.74,137.86,16.44,92.33-49.32,150.51-49.32,150.51,196.04-18.98,160.62-201.1,160.62-201.1-27.82,61.97-51.86,77.15-51.86,77.15-13.76-152.48-135.68-164.89-175.01-164.89h0Z"/>
      <path d="M249.97,126.84c-196.04,18.98-160.63,201.1-160.63,201.1,27.83-61.97,51.86-77.15,51.86-77.15,13.76,152.49,135.69,164.89,175.02,164.89,7.64,0,12.17-.47,12.17-.47-108.16-24.15-127.74-137.86-127.74-137.86-16.44-92.33,49.32-150.51,49.32-150.51h0Z"/>
    </g>
    <path d="M250,71.66c47.64,0,92.42,18.55,126.11,52.23,33.68,33.68,52.23,78.47,52.23,126.11s-18.55,92.42-52.23,126.11c-33.68,33.68-78.47,52.24-126.11,52.24s-92.42-18.55-126.1-52.23c-33.68-33.68-52.23-78.47-52.23-126.11s18.55-92.42,52.23-126.11c33.68-33.68,78.47-52.23,126.11-52.23M250,45.1c-113.16,0-204.9,91.73-204.9,204.9s91.74,204.9,204.9,204.9,204.9-91.74,204.9-204.9S363.16,45.1,250,45.1h0Z"/>
  </g>
</svg>