<?xml version="1.0" encoding="UTF-8"?>
<svg id="Layer_1" data-name="Layer 1" xmlns="http://www.w3.org/2000/svg" width="500" height="500" viewBox="0 0 500 500">
  <rect width="500" height="500" fill="none"/>
  <g>
    <path d="m22.21,208.73h85.95s16.37,6.83,17.05,20.46v47.75s-2.73,12.96-15.69,14.32H22.21v-51.84h29.33v32.06h46.39s3.67-1.79,3.67-6.39v-27.63s-1.79-7.16-10.23-7.16H22.21v-21.57Z"/>
    <path d="m161.46,208.73h71.88v21.06h-90.05s5.12-17.56,18.16-21.06"/>
    <path d="m143.29,237.72h90.05v22.51h-61.39v31.04h-28.65v-53.55Z"/>
    <path d="m403.46,211.35h-25.43v79.89h25.43v-79.89h0Z"/>
    <path d="m438.36,254.79h-30.21l38.83,36.45h30.8l-39.43-36.45h0Z"/>
    <path d="m408.56,248.19h28.22l41.01-36.04h-29.61l-39.62,36.04Z" opacity=".6"/>
    <path d="m349.22,208.73v20.96h-93.4s1.19-17.78,24.44-20.96h68.96Z"/>
    <path d="m255.82,237.88h69.15s28.42,4.27,28.42,27.72-19.48,24.85-25.84,25.64h-69.55v-17.69h63.99s7.15-.2,7.15-7.25-6.36-6.46-6.36-6.46h-43.12s-24.6-6.6-23.85-21.96"/>
  </g>
</svg>