<?xml version="1.0" encoding="UTF-8"?>
<svg id="Layer_1" data-name="Layer 1" xmlns="http://www.w3.org/2000/svg" width="500" height="500" viewBox="0 0 500 500">
  <rect width="500" height="500" fill="none"/>
  <g>
    <path d="m411.57,35.04c-26.41-2.65-95.98-6.53-161.67-6.53s-135.26,3.88-161.57,6.53c-30.1,3.03-44.11,18.36-44.11,48.08,0,56.6,2.08,144.73,5.96,196.5,3.41,46.19,6.15,82.63,63.61,117.46,41.08,24.99,81.97,46.38,135.26,73.92l.95.47.95-.47c53.38-27.54,94.37-48.94,135.26-73.92,57.45-34.93,60.2-71.37,63.61-117.46,3.88-52.06,5.96-140.09,5.96-196.5,0-29.82-14.01-45.06-44.11-48.18h0l-.09.09Zm20.35,243.35c-3.31,44.2-5.49,73.36-55.09,103.46-38.9,23.66-73.26,41.65-125.13,68.62l-1.8.85-1.8-.85c-50.26-26.03-86.13-44.96-125.13-68.62-49.6-30.1-51.78-59.35-55.09-103.55-3.88-51.49-5.87-139.05-5.87-195.18,0-20.54,7.1-28.21,28.02-30.38,26.03-2.56,94.94-6.44,159.87-6.44s133.75,3.88,159.87,6.44c20.92,2.18,28.02,9.75,28.02,30.38,0,56.13-2.08,143.59-5.96,195.27,0,0,.09,0,.09,0Z" fill-rule="evenodd"/>
    <path d="m247.26,160.84l-6.15,20.82c-22.43-45.81-49.22-69.85-81.59-69.85-35.02,0-52.15,23.47-57.27,30.86,8.99-22.62,32.75-42.5,64.36-42.5,43.35,0,67.87,34.26,80.64,60.67h0Z" fill-rule="evenodd"/>
    <path d="m84.83,207.78c.28,76.39,22.53,113.11,55.66,113.11,15.33,0,26.41-9.65,26.41-25.37,0-13.44-5.87-24.04-8.23-28.3.85,4.35,1.7,9.37,1.7,15.05,0,13.16-8.9,17.42-16.19,17.42-22.05,0-44.11-42.88-50.36-91.72-2.74,0-9.09,0-8.99,0h0s0-.19,0-.19Z" fill-rule="evenodd"/>
    <path d="m333.3,100.16c31.61,0,55.37,19.88,64.36,42.5-5.11-7.38-22.24-30.86-57.27-30.86-32.37,0-59.16,24.04-81.59,69.85l-6.15-20.82c12.78-26.5,37.29-60.67,80.64-60.67h0Z" fill-rule="evenodd"/>
    <path d="m406.08,207.78c-6.25,48.84-28.3,91.72-50.36,91.72-7.29,0-16.09-4.26-16.09-17.42,0-5.58.76-10.6,1.7-15.05-2.37,4.26-8.14,14.96-8.14,28.3,0,15.71,10.98,25.37,26.41,25.37,33.13,0,55.37-36.73,55.66-113.11h-8.99s-.19.19-.19.19Z" fill-rule="evenodd"/>
    <path d="m361.03,142.1c-28.3,0-56.03,22.62-72.6,74.68l10.7,7.48-5.11,25.65-20.07,8.33-3.6,25.18,9.75-11.93,10.51-4.35-3.22,16.28-18.08,7.48-6.34,43.54,4.45,13.91-17.42,6.91-17.42-6.91,4.45-13.91-6.34-43.54-18.08-7.48-3.22-16.28,10.41,4.35,9.75,11.93-3.69-25.18-19.97-8.33-5.11-25.65,10.7-7.48c-16.56-52.15-44.2-74.68-72.6-74.68-35.02,0-49.5,33.22-47.61,60.67h8.42c7,38.71,26.69,71.56,41.55,71.56,4.54,0,6.91-3.41,6.91-9.09,0-13.63-9.28-27.92-9.28-54.05,0-12.02,3.88-19.59,12.97-19.59,6.15,0,11.17,6.44,14.2,13.54-5.49,19.5-4.64,35.87,10.89,42.78,7.67,3.41,16.94,7.48,16.94,7.48,0,0,9.84,41.93,10.6,44.87.66,2.74,2.37,6.44,3.6,8.8,1.8,3.12,14.77,25.37,14.77,25.37,0,0,4.45,22.15,5.4,26.88,2.56,12.68,11.55,12.68,21.86,12.68s19.21,0,21.77-12.68c.95-4.73,5.4-26.88,5.4-26.88,0,0,12.97-22.24,14.77-25.37,1.23-2.27,2.93-6.06,3.5-8.8.76-3.03,10.6-44.87,10.6-44.87,0,0,9.28-4.07,17.04-7.48,15.52-6.91,16.38-23.28,10.89-42.78,3.03-7.1,8.05-13.54,14.2-13.54,8.99,0,12.97,7.57,12.97,19.59,0,26.12-9.28,40.42-9.28,54.05,0,5.68,2.37,9.09,6.91,9.09,14.77,0,34.55-32.84,41.55-71.56h8.42c1.89-27.35-12.59-60.67-47.61-60.67,0,0-.19,0-.19,0Zm-178.04,98.34c-10.98-4.73-12.12-17.7-8.52-35.12l12.12,19.03,4.45,19.59s-4.35-1.89-8.14-3.41h0l.09-.09Zm134.12,0c-3.79,1.61-8.14,3.41-8.14,3.41l4.45-19.59,12.12-19.03c3.69,17.32,2.56,30.38-8.42,35.12h0v.09Z" fill-rule="evenodd"/>
  </g>
</svg>