<?xml version="1.0" encoding="UTF-8"?>
<svg id="Layer_1" data-name="Layer 1" xmlns="http://www.w3.org/2000/svg" width="500" height="500" viewBox="0 0 500 500">
  <rect width="500" height="500" fill="none"/>
  <g>
    <g>
      <path d="m103.28,202.58c-5.83-.58-21.17-1.44-35.67-1.44s-29.86.86-35.67,1.44c-6.64.67-9.73,4.05-9.73,10.61,0,12.49.46,31.93,1.32,43.35.75,10.19,1.36,18.23,14.03,25.91,9.06,5.51,18.08,10.23,29.84,16.31l.21.1.21-.1c11.78-6.08,20.82-10.8,29.84-16.31,12.68-7.71,13.28-15.74,14.03-25.91.86-11.48,1.32-30.9,1.32-43.35,0-6.58-3.09-9.94-9.73-10.63h0v.02Zm4.49,53.69c-.73,9.75-1.21,16.18-12.15,22.82-8.58,5.22-16.16,9.19-27.61,15.14l-.4.19-.4-.19c-11.09-5.74-19-9.92-27.61-15.14-10.94-6.64-11.42-13.09-12.15-22.84-.86-11.36-1.29-30.68-1.29-43.06,0-4.53,1.57-6.22,6.18-6.7,5.74-.56,20.94-1.42,35.27-1.42s29.51.86,35.27,1.42c4.61.48,6.18,2.15,6.18,6.7,0,12.38-.46,31.68-1.32,43.08h.02Z" fill-rule="evenodd"/>
      <path d="m67,230.33l-1.36,4.59c-4.95-10.11-10.86-15.41-18-15.41-7.73,0-11.51,5.18-12.63,6.81,1.98-4.99,7.23-9.38,14.2-9.38,9.56,0,14.97,7.56,17.79,13.39h0Z" fill-rule="evenodd"/>
      <path d="m31.17,240.69c.06,16.85,4.97,24.95,12.28,24.95,3.38,0,5.83-2.13,5.83-5.6,0-2.97-1.29-5.3-1.82-6.24.19.96.38,2.07.38,3.32,0,2.9-1.96,3.84-3.57,3.84-4.87,0-9.73-9.46-11.11-20.23-.61,0-2,0-1.98,0h0v-.04Z" fill-rule="evenodd"/>
      <path d="m86.01,216.94c6.97,0,12.22,4.39,14.2,9.38-1.13-1.63-4.91-6.81-12.63-6.81-7.14,0-13.05,5.3-18,15.41l-1.36-4.59c2.82-5.85,8.23-13.39,17.79-13.39h0Z" fill-rule="evenodd"/>
      <path d="m102.06,240.69c-1.38,10.77-6.24,20.23-11.11,20.23-1.61,0-3.55-.94-3.55-3.84,0-1.23.17-2.34.38-3.32-.52.94-1.8,3.3-1.8,6.24,0,3.47,2.42,5.6,5.83,5.6,7.31,0,12.22-8.1,12.28-24.95.02,0-1.38,0-1.98,0h0l-.04.04Z" fill-rule="evenodd"/>
      <path d="m92.12,226.19c-6.24,0-12.36,4.99-16.02,16.48l2.36,1.65-1.13,5.66-4.43,1.84-.79,5.55,2.15-2.63,2.32-.96-.71,3.59-3.99,1.65-1.4,9.61.98,3.07-3.84,1.52-3.84-1.52.98-3.07-1.4-9.61-3.99-1.65-.71-3.59,2.3.96,2.15,2.63-.81-5.55-4.41-1.84-1.13-5.66,2.36-1.65c-3.65-11.51-9.75-16.48-16.02-16.48-7.73,0-10.92,7.33-10.5,13.39h1.86c1.55,8.54,5.89,15.79,9.17,15.79,1,0,1.52-.75,1.52-2,0-3.01-2.05-6.16-2.05-11.92,0-2.65.86-4.32,2.86-4.32,1.36,0,2.46,1.42,3.13,2.99-1.21,4.3-1.02,7.91,2.4,9.44,1.69.75,3.74,1.65,3.74,1.65,0,0,2.17,9.25,2.34,9.9.15.61.52,1.42.79,1.94.4.69,3.26,5.6,3.26,5.6,0,0,.98,4.89,1.19,5.93.56,2.8,2.55,2.8,4.82,2.8s4.24,0,4.8-2.8c.21-1.04,1.19-5.93,1.19-5.93,0,0,2.86-4.91,3.26-5.6.27-.5.65-1.34.77-1.94.17-.67,2.34-9.9,2.34-9.9,0,0,2.05-.9,3.76-1.65,3.42-1.52,3.61-5.14,2.4-9.44.67-1.57,1.77-2.99,3.13-2.99,1.98,0,2.86,1.67,2.86,4.32,0,5.76-2.05,8.92-2.05,11.92,0,1.25.52,2,1.52,2,3.26,0,7.62-7.25,9.17-15.79h1.86c.42-6.03-2.78-13.39-10.5-13.39h-.04Zm-39.3,21.7c-2.42-1.04-2.67-3.9-1.88-7.75l2.67,4.2.98,4.32s-.96-.42-1.8-.75h0l.02-.02Zm29.59,0c-.84.35-1.8.75-1.8.75l.98-4.32,2.67-4.2c.81,3.82.56,6.7-1.86,7.75h0v.02Z" fill-rule="evenodd"/>
    </g>
    <g>
      <path d="m294.15,246.12v13.72h18.69c10.34,0,14.26-4.13,14.26-9.86,0-3.76-1.86-9.81-14.1-9.81h-31.55v-7.73h32.93c20.94,0,25.83,8.85,25.83,17.54,0,10.4-7.04,17.6-25.89,17.6h-32.87v-21.47h12.72-.02Z" fill-rule="evenodd"/>
      <path d="m154.6,246.12v13.72h18.69c10.34,0,14.24-4.13,14.24-9.86,0-3.76-1.86-9.81-14.1-9.81h-31.53v-7.73h32.91c20.97,0,25.85,8.85,25.85,17.54,0,10.4-7.06,17.6-25.89,17.6h-32.87v-21.47s12.7,0,12.7,0Z" fill-rule="evenodd"/>
      <path d="m377.78,246.1v7.77h18.63v5.99h-18.52c-10.52,0-14.43-4.13-14.43-9.86,0-6.37,5.3-9.79,13.7-9.79h31.95v-7.75h-32.43c-16.66,0-26.31,5.26-26.31,17.54s9.33,17.6,25.83,17.6h32.93v-21.51h-31.34Z" fill-rule="evenodd"/>
      <polygon points="437.34 240.12 477.35 240.12 477.35 232.46 423.81 232.46 423.81 267.58 477.79 267.58 477.79 259.84 437.34 259.84 437.34 253.84 475.22 253.84 475.22 246.12 437.34 246.12 437.34 240.12 437.34 240.12" fill-rule="evenodd"/>
      <path d="m240.61,268.15c-21.68,0-29.94-7.1-29.94-18.17s8.54-18.13,29.94-18.13,29.94,7.16,29.94,18.13-8.54,18.17-29.94,18.17h0Zm16.81-18.17c0-5.99-5.83-10.4-16.81-10.4s-16.83,4.41-16.83,10.4,5.16,10.42,16.83,10.42,16.81-4.68,16.81-10.42h0Z" fill-rule="evenodd"/>
    </g>
  </g>
</svg>