<?xml version="1.0" encoding="UTF-8"?>
<svg id="Layer_1" data-name="Layer 1" xmlns="http://www.w3.org/2000/svg" width="500" height="500" viewBox="0 0 500 500">
  <rect width="500" height="500" fill="none"/>
  <path d="m249.8,178.99c-3.01,4.95-7.51,7.83-11.59,11.11-14.31,11.49-28.67,22.95-43.02,34.4-33.4,26.66-66.8,53.29-100.2,79.93-6.18,4.93-12.38,9.84-18.57,14.76-.64.5-1.27,1.05-1.96,1.48-.79.49-1.42.33-1.5-.71-.06-.73-.06-1.45-.06-2.18,0-95.37,0-190.75.01-286.13,0-1.03-.52-2.49.6-2.97,1.06-.46,1.88.81,2.71,1.46,19.12,15.23,38.24,30.48,57.36,45.74,32.48,25.9,64.95,51.81,97.43,77.71,1.71,1.37,3.48,2.63,5.14,4.05,4.64,4,10.2,6.98,13.48,12.53,6.1-7.64,14.2-12.66,21.51-18.57,20.22-16.35,40.6-32.49,60.93-48.7,30.56-24.38,61.12-48.74,91.68-73.11.07-.06.14-.11.21-.17.73-.49,1.38-1.49,2.34-.95.79.44.46,1.49.47,2.28.05,3.09,0,6.17-.5,9.24-.62,3.9-2.24,7.26-5.01,10.08-4.92,4.98-9.88,9.92-14.74,14.95-9.67,9.98-19.42,19.91-28.92,30.05-10.26,10.95-19.86,22.47-27.93,35.18-5.39,8.49-9.83,17.39-12.53,27.12-2.46,8.89-3,17.86-1.82,26.99,2.01,15.49,7.73,29.63,15.31,43.15,10.05,17.92,22.47,34.12,35.71,49.77,11.3,13.33,23.48,25.81,35.92,38.05,1.37,1.34,2.61,2.77,3.54,4.47,1.86,3.38,1.9,6.73.02,10.14-1.16,2.12-2.74,3.84-4.6,5.33-22.37,17.87-44.75,35.74-67.13,53.61-16.83,13.44-33.68,26.86-50.53,40.3-17.13,13.66-34.25,27.32-51.39,40.98-.68.54-1.35,1.53-2.31.98-.91-.52-.64-1.66-.52-2.51.32-2.26.27-4.53.41-6.79.32-5.21,2.35-9.64,6.08-13.33,3.3-3.26,6.51-6.6,9.76-9.92,7.95-8.12,15.95-16.19,23.81-24.39,9.94-10.36,19.76-20.85,28.41-32.34,7.46-9.91,14.08-20.31,18.74-31.87,5.48-13.59,6.21-27.52,3.33-41.75-2.86-14.08-8.68-26.94-15.86-39.26-10.44-17.91-23.09-34.17-36.64-49.78-6.14-7.06-12.49-13.93-18.98-20.69-4.79-4.98-9.52-10-14.67-14.62-1.49-1.34-2.49-3.1-3.94-5.08h0ZM81.55,44.33c-.87,2.06.28,3.38,1.71,4.6,11.47,9.92,22.99,19.8,33.94,30.3,13.54,12.97,26.47,26.48,37.44,41.74,5.89,8.21,11.14,16.81,15.04,26.18,6.88,16.51,8.02,33.17,1.82,50.2-3.51,9.65-8.29,18.57-14.04,27.01-8.36,12.28-18.05,23.46-28.43,34.06-5.08,5.19-10.26,10.29-15.58,15.25-6.71,6.26-13.57,12.34-20.49,18.37-3.42,2.98-6.82,6.01-10.25,8.97-1.38,1.19-1.81,2.52-1.13,4.22.89-.15,1.3-.66,1.8-1.05,4.31-3.49,8.59-7,12.9-10.5,13.35-10.79,26.94-21.33,39.31-33.26,10.58-10.23,21.01-20.64,30.05-32.32,7.43-9.6,14-19.7,18.31-31.12,4.65-12.33,5.71-24.87,2.2-37.71-2.47-9.03-6.52-17.31-11.47-25.2-6.2-9.89-13.55-18.9-21.51-27.41-7.95-8.48-16.23-16.66-24.88-24.45-14.46-13.02-30.06-24.65-44.97-37.15-.46-.38-.91-.94-1.76-.76v.02Zm277.81,210.63c-.1-1.18-.75-1.75-1.22-2.39-11.9-16.1-21.61-33.39-28.57-52.18-5.72-15.43-6.17-31.05-1.26-46.78,3.8-12.21,10.29-23.02,17.61-33.37,8.79-12.43,18.96-23.66,29.6-34.51,2.86-2.92,5.92-5.64,8.82-8.5,4.47-4.39,9.11-8.61,13.78-12.77.6-.54,1.19-1.13,1.65-1.8.53-.75,1.02-1.82.25-2.47-.76-.64-1.4.44-2.06.84-.47.28-.87.65-1.29,1-5.94,4.79-11.88,9.59-17.83,14.36-6.3,5.07-12.44,10.36-18.09,16.13-5.4,5.51-10.87,10.96-15.99,16.75-9.81,11.08-18.5,22.88-24.59,36.45-3.95,8.8-6.41,17.98-6.82,27.61-.27,6.37.74,12.68,2.4,18.85,2.47,9.2,6.46,17.76,11.31,25.89,7.62,12.77,16.47,24.61,27.58,34.63,1.33,1.19,2.76,1.99,4.73,2.26h-.01Zm-41.1-8.25c0,.41-.06.62,0,.74.42.7.84,1.4,1.32,2.07,11.46,15.75,20.74,32.67,27.42,50.97,4.89,13.39,5.73,27.09,2.47,41.02-2.47,10.58-7.31,20.13-13,29.26-12.2,19.58-27.58,36.5-44.2,52.34-3.09,2.94-6.23,5.83-9.34,8.76-1.22,1.16-1.91,2.51-1.64,4.21.59.1.86-.16,1.16-.37,9.84-7.48,19.38-15.33,28.45-23.74,8.8-8.17,16.95-16.98,24.66-26.16,9.06-10.78,16.66-22.47,21.72-35.7,3.75-9.81,5.7-19.92,4.74-30.43-.86-9.5-3.69-18.51-7.67-27.15-5.08-11.05-11.76-21.09-19.23-30.64-3.36-4.29-6.81-8.52-10.95-12.12-1.72-1.5-3.58-2.63-5.92-3.05h.01Z"/>
</svg>