<?xml version="1.0" encoding="UTF-8"?>
<svg id="Layer_1" data-name="Layer 1" xmlns="http://www.w3.org/2000/svg" width="500" height="500" viewBox="0 0 500 500">
  <rect width="500" height="500" fill="none"/>
  <path d="m330.75,218.72c-118.63,18.53-176.02,49.91-204,79.44-21.44,22.66-13.96,40.04-8.23,50.06,18.37,28.74,38.62,53.35,64.94,79.63,8.41,8.41,35.1,33.33,46.64,39.11,9.52,4.75,19.47,4.52,19.9,4.52.49,0,10.41.23,19.91-4.52,11.55-5.78,38.24-30.7,46.66-39.11,43.68-43.67,70.79-82.69,100.07-143.93,12.85-26.97,21.54-53.38,27.43-76.03l.08-.36c-25.91.53-62.95,3.28-113.4,11.18M113.33,110.68h-2.31l-7.03,32.96h2.37c3.8,0,6.38-1.39,8.42-3.8,2.13-2.52,3.53-6.79,4.75-12.66,1.26-5.89,1.66-10.17.62-12.62-1.01-2.44-2.94-3.87-6.81-3.87m313.34-43.24c-58.23-28.39-120.03-38.93-176.69-38.93s-118.43,10.54-176.64,38.93c-20.65,10.07-31.08,29.2-31.08,56.98,0,5.92.5,12.2,1.42,18.83l.49,3.36c1.84,13.82,6.42,48.04,19.86,88.89,15.42-19.83,76.88-36.7,185.95-42.45,102.83-5.42,176.3-5.06,198.74-4.78,4.06-18.91,6.05-33.71,7.13-41.66l.46-3.36c5.35-38.11-4.63-63.61-29.65-75.81m-282.48,60.39c-3.91,18.23-18.17,29.54-36.75,29.54h-29.76l12.81-60.39h28.36c24.16,0,29.12,12.93,25.33,30.85m27.99,31.15c-18.25,0-27.13-7.31-24.04-21.84l8.53-40.17h23.95l-8.34,39.14c-1.01,4.77.85,6.62,3.36,6.62s5.16-1.85,6.17-6.62l8.31-39.14h23.92l-8.5,40.17c-3.1,14.53-15.11,21.84-33.36,21.84m65.59,0c-21.16,0-28.21-12.91-24.16-32.07,3.43-18.82,17.34-31.54,37.77-31.54,15.23,0,26.79,6.23,23.12,23.96h-21.93c1.14-6.86-1.08-8.2-4.03-8.2-6.19,0-8.1,6.32-10.21,16.05-1.91,9.18-2.91,16.05,3.13,16.05,3.11,0,5.58-1.82,7.28-8.16h22.42c-3.53,16.6-18.4,23.91-33.37,23.91m72.44-1.61l-.27-9.71h-17.34l-4.46,9.71h-22.93l32.14-60.39h31.06l6.58,60.39h-24.79Zm55.96,0h-23.92l9.42-44.16h-14.9l3.45-16.22h53.7l-3.48,16.22h-14.85l-9.4,44.16Zm43.32,0h-23.91l12.83-60.39h23.91l-12.83,60.39Zm-110.18-24.41h10.22l.05-22.8h-.12l-10.15,22.8Z"/>
</svg>