<?xml version="1.0" encoding="UTF-8"?>
<svg id="Layer_1" data-name="Layer 1" xmlns="http://www.w3.org/2000/svg" width="500" height="500" viewBox="0 0 500 500">
  <rect width="500" height="500" fill="none"/>
  <g>
    <path d="m255.18,36.26l-.36-3.79-5.4-6.56-1.64-.48-1.16,1.64.17,1.95-1.83,1.64-.17,2.29,2.15,1.16,2.99,2.15h5.28-.02Z"/>
    <path d="m249.93,31.97l.14-.31"/>
    <path d="m278.07,391.47l6.51,2.24,5.76,2.63,2.24,1.62,5.93.27,3.16-.8,1.69-3.45,1.83-4.2-.53-3.4-2.24-4.24-2.99-6.15-2.36-6.41-1.74-7.23-.75-6.2v-6.03l.63-7.09.8-3.57-.94-3.04-1.95-1.57-3.93-2.89-2.77-1.98-.53-3.79-1.3-4.05-2.46-3.98-2.63-3.4-3.3-3.16-4.2-3.18-4.73-3.52-2.51-1.21-2.51-.75-2.1.36-1.83,1.21-.8,1.98.53,3.57,1.83,7.98,3.16,10.54,2.63,6.29,3.52,8.03,2.51,4.73,3.83,6.97,4.61,7.76,3.62,5.02,3.04,4.05.14,2.24-.41,1.83-1.69.68-5.09.27-8.92-.53-7.36-.94-6.46-1.16-7.86-2.22-3.98-1.74-2.63-1.16-2.99-.53-3.45.14-1.83.8h-2.51l-5.93-.94-3.4-1.16-3.71-.27-5.88-.12-4.46-.41h-4.1l-4.05.27-2.77,1.16-1.98.53-.68.94.14,1.83,1.88,3.04,3.52,4.87,2.1.89,3.3,2.36,3.79,2.1,4.1,1.33,5.88.14,5.26-.53,4.46-1.01,3.79-1.21,1.62.8.77,1.57,1.33.41,3.26-.14,4.1.27,2.1.68,2.51-.68,8.13,1.01,5.52.8,9.07,1.98,6.61,1.95.05-.1Zm12.59-13.02l1.21-.89.89-.22h.99l.31.41v.72l-.48.89-.89.72-1.3.31-.7-.31-.24-.75.24-.84-.02-.05Zm-78.78-5.55l-.41.94-.72.84-.58.19-1.21.05-1.09-.31-.48-.41-.72-.89.05-.8.41-.58,1.37-.46,1.62-.31h0l1.21-.05.58.36.14.68-.17.75h0Zm57.01,8.03l-2.41-.12-2.32-.17-5.31-1.33-4.2-1.3-2.99-.99-.43-.84.12-.94.58-.22,3.93,1.25,1.74.72,1.83.41,2.22.31,3.71.41,3.21.48,3.04.22,2.46.53,1.37.36.41.53v.84l-.48.63-1.52.1-2.63-.43-2.32-.41-.02-.05Z"/>
    <path d="m407.75,199.44l-1.83-.84v2.82l-1.47,1.64-2.63,3.93-1.47.99-4.1,4.94-1.64,2.63-1.95,4.41-2.15.36-1.95-1.16-1.16-5.26.31-6.08,1.35-5.62,3.26-5.26,6.61-9.86,3.93-8.03.48-5.62-.63-1.78-1.16,1.16-1.95,4.92-2.99,4.94-4.41,3.62-5.09,4.92-7.6,8.87-1.47-.14-.48-1.52-.17-3.62.48-6.75,2.32-7.55,4.1-8.39,5.45-6.73,6.73-5.76.63-1.33-.8-.63-3.42,1.78-2.82,1.83-4.77,4.1-5.93,5.26-4.24,5.76-4.15,7.55-2.27,6.13-.68,6.08-.31,8.22,1.95,8.56,1.95,7.4,3.79,11.65,2.46,13.96,1.47,10.66v5.76l-.63,6.08-.99,4.97-1.83,5.57-6.92,8.71-7.07,6.41-9.07,5.09-8.71.48-1.16-4.24-3.13-6.13-4.29-5.88-2.82-3.47-3.74-5.09-8.08-7.72-8.22-6.75-3.62-2.82-11.33-7.67-16.3-13.65-8.87-11.02-9.72-15.94-2.63-9.55.68-5.93,1.35-1.16,3.45,2.32,5.45,2.63,4.41-.17,5.09,2.32,5.45,3.3,2.82,2.27,3.62,2.51,3.74.48.84-1.64-.99-.17-1.16.48-1.83-1.16-1.62-2.46-2.32-3.79-4.46-4.1-4.41-1.64-2.46-.48.51-1.3h3.42l3.98,1.3,5.76,3.79,2.63,1.16.99-1.35-1.66-2.27-4.46-3.98-6.92-3.62-8.34-3.26-1.64-1.35,1.64-1.16,3.76,1.83,6.92,1.16,7.4,2.94,3.93,1.95,6.92.99,4.97-.68,2.77-1.3,3.79-2.32,1.66-1.62.17-1.16-1.54.12-1.47,1.52-4.92,1.62-4.29.68-3.62-.48-3.47-2.77-3.13-3.67-3.74-2.77-5.62-1.16-5.4-1.83-2.32-1.47.17-1.3,2.15.31h4.77l4.77-.31h4.92l2.63-.48,2.15,1.78,3.42.84h2.82l1.3-.99-2.27-.68-2.82-1.83-2.94-2.77-4.77-2.51-3.93-.48-3.62-.48-1.35-.8,2.63-1.47h4.27l3.3.99,3.26,1.66,5.26,2.27,5.26.17,2.82-1.33.8-1.78-2.15-.99-4.41-.17-3.79-1.3-3.3-2.82-3.62-1.83-4.77-.8-4.1-1.47-1.78-2.32.31-1.16,2.63.53,3.3.99,1.95,1.47,2.82.31.31-1.47-2.94-2.32-.84-2.1,3.98.63,3.74,1.95,4.77.53,1.83,3.42,4.9,2.94.27-.05,1.09-.43,1.3-.8-.63-.99-1.83.12-1.64-2.27-3.3-5.09-5.76-5.14-5.88-2.63-1.66-1.95-3.62-4.29-3.3-1.78-.48-1.64,1.47-.99,3.5.8,6.87,1.95,3.3,1.16,2.15,2.99,3.42,1.78h2.63l3.47.99,3.79-.68,1.47-1.3-2.15-1.83-3.11-.8-3.62-.48-2.15-1.83-2.82-4.1-.68-2.63-3.62-3.26-3.93-2.51-4.46-2.77-4.92-4.61-.31-1.35h1.11l6.44,5.09,6.56,3.79,3.47,2.63,4.41,4.1,3.98,2.15,2.29.68,1.16-1.83-1.64-.63-3.45-3.13-.99-3.47-3.62-3.93-2.99-2.51-1.47-3.74-5.09-7.6-6.92-6.08-.31-1.95,2.46.31,3.47,1.78,5.57,2.32,5.76.31,4.29,2,4.61.8,3.93-1.16-.31-1.64-4.46-.99-3.93-1.78-7.91-3.79-4.29-2.32-2.29-2.77.8-.99,1.16.8,1.78.68,2.32.17h3.79l3.26-.36,4.97-.31,3.79,1.47,3.93,2.82,1.66.48.17-1.47-1.35-1.33-3.93-3.62-6.13-3.13-4.41-.48-8.39-.48-1.95-2.32-4.29-4.29-4.77-3.26-1.78-1.64,1.47-1.16,2.27.99,4.1,2.15,4.63,1.64,6.25,1.47h5.4l4.46,4.94,3.62,2.15,1.3-1.33-4.92-7.23-7.72-5.57-6.44-1.52-5.45-5.72-4.77-2.82-6.56-1.66,3.62-3.11,6.41-2.15,4.77-1.47,1.11-1.47-.63-1.16-2.63-.68-2.48-.48-18.57.36-3.3-3.67-3.76-2.46-4.77-2.15-6.25-.99h-5.4l-1.47-1.95-5.09-5.45-6.13-5.59-3.74,6.25-.17,1.95,1.78,2.32.17,1.95-1.3,1.16-4.15.31-7.55-2.15-7.4-1.59-3.45.12-5.62,1.16.68,1.98,3.13-.14,1.3.22-.05,1.74-1.83.41-2.36-.31-3.57.75-2.68.84-2.15.14-.68.94.77,1.3,1.62.36,1.52-.46,1.74-.75,1.78-.1,3.79.17,2.89.89,3.45.84,5.04,2.27.46,1.09-.53.84-2.36.84-1.42.68-2.53,1.69-3.88,2.05-4.73,3.35-5.4,2.46-4.29,2.82-3.88,1.69-3.67.89-3.21.1-4.41.1-1.69.46-.99,2.05-.77,2.24-.84,1.52-2.15,3.21-2.05,3.57-1.37,1.74-.14,2,.14,2.82v2.99l1.83,1.64,1.62.84,1.93-.14,3.13-.84,3.52-1.06,4.77-1.93,1.93.1.43,1.21-.43,1.16-1.62.84-4.87,1.83-3.67,1.06-.72,1.21-.14,1.3,1.21,1.06,2.53.31h2.05l2.58-.1,2.82-.68,4.05-2.15,2.68-.53,2.27-.46,1.74.58,2.53-.12,2.51.31,2.05,1.21,3.21.31,4.2,1.3,2.27.31,3.52-.63,4.51.31,1.95.75,1.09,1.83-.22,2.36-.53,2.89-1.06,3.35-1.52,4.2-1.52,4.61-1.62,4.2-1.06,2.89-3.67,5.72-4.41,5.57-3.98,5.5-5.04,5.04-4.63,3.93-2.94,3.11-1.57,5.14-2.19,2.58-2.77,1.95-3.35,2.77-5.14,3.13-4.32,2.19-2.77,3.16-1.98,2.56-1.95,1.21-2.77,1.37-1.78-.41-3.52-1.62-3.93-2.53-5.76-2.56-6.46-3.4-3.35-2.53-4.15-3.35-4.56-3.74-4.92-1.78-4.32-.77-5.52,1.16-3.93,2.19-3.4,2.36-1.74,4.34-1.21,3.35-1.37,5.14-1.57,3.11-1.57,4.77-.22,5.72-1.37,3.35-1.57,5.31-1.37,5.31-2.53,4.94-1.37,4.92-.8,6.13-2.19,5.14-1.37,2.94-.17,2.94-.17,4.94v8.66l-.99,3.57.58,3.13-.22,5.14,1.78,4.1,1.37.99,2.53-.8,2.36-2.15,3.4-4.1,2.94-4.73,1.16-3.93-.75-3.16-.99-3.93-1.21-4.73-1.16-4.94-.63-3.76v-3.52l.8-3.98,1.95-6.08,1.95-3.16,1.78-1.62,1.37-2.15,2.56-.22,1.21-.75,1.78-1.62,1.95-1.74,1.78-2.36.75-2.77.63-2.36.17-3.16.58-2.77,1.37-1.74,1.37-.41,1.78.58,2.56,1.37,2.77,3.16,2.94,4.32,3.35,3.93,3.57,3.16,3.16,2.53,3.11,1.37.99,1.98-.99.99-3.35-.77-4.73-.41-6.13-1.21-5.88-1.16-7.09-.22-4.15.22-3.16,1.95-3.35,2.94-2.77,4.73-2.15,5.35-.22,3.93,1.21,7.09,2.77,9.07,1.37,7.09,1.74,6.92,1.21,4.87.58,4.56,1.57,5.14,1.21,7.86,1.16,2.77,2.99,2.36,2.77,2.77,3.11,4.73,2.19,5.52,3.35,4.92,4.92,4.73,3.57,2.19,2.36.17,1.95-.58,1.21-2.77,1.33-2.36.8-3.35v-7.67l-.99-2.19c-.17,0-.17-1.37-.17-1.57l-.41-1.37-1.62-2.36-2.94-2.94-5.5-2.36-2-.63-.36-3.35.17-2.15-3.74-4.34-2.36-5.55-1.98-7.86-1.62-7.28-2.72-5.72-.99-6.92,1.57-4.15,2.77-1.57h2.15l3.16,2.77,4.56,2.77,4.73,1.74,11.43,5.55,5.55,3.16v2.94l5.09,2.94,6.51,2.19h13.62l-.99,2.56-.58,1.37,1.74,3.3,3.35,4.94,5.35,5.31,6.46,7.09,5.52,4.9,10.35,7.93,8.39,4.51,6.29,3.35,8.08,5.5,7.45,5.31,6.44,5.45,6.7,9.07.31,3.79,1.52,3.93,4.1,2.94,3.76,1.47,2.32-.31,1.83-1.78,2.63-2.82.63-3.79,3.11-5.4.68-4.15.48-4.61.31-3.62,1.04-2.27,2.1-1.04h2l.14,1.52-1.47,1.62-1.3,3.47-.99,2.15v2.63l-.36,5.57-.8,2.82-2.46,4.24-3.3,5.45-3.3,5.93-1.95,7.72-.99,8.08.99,9.02,1.3,5.26,3.11,6.92,3.98,8.22,3.11,6.41,4.29,6.75,5.09,6.25.99,2.15v1.47l-.68,1.83-1.78,2.94-2.82,3.93-5.76,7.4-5.76,6.25-5.26,5.76-2.27,1.33-4.65,1.78-2.77,2.63-1.47,2.99-3.3,4.1-3.74,4.1-4.61,4.77-2.82,4.92-1.64,4.94-.99,4.1.17,3.3,1.95,2.1h7.23l3.11-.31,3.26-1.95,4.29-1.98.68-1.64h1.47l2.27-.99,2.15-2,1.16-7.86-.68-1.66-.31-1.64,1.16.31,1.3.36,1.35-.99,2.15-1.33,2.27-2.94,2.82-3.98,1.47-3.62.31-2.94,1.83-1.35,2.63-1.47,2.15-1.3,1.78-3.62,3.79-3.98,7.09-6.56,5.4-3.62,5.45-2.99,1.28-1.3.51-1.35,1.16-1.47-.8-1.95-.17-3.62-.72-3.4-.84-1.95-1.88-3.21-2.99-3.76-1.47-2.82-.31-2.94v-3.98l.68-2.27,1.78-6.13,1.83-2.94,1.98-1.16,3.62-2.27,4.29-3.67,5.76-4.92,3.93-4.1,3.98-4.61,4.1-4.63,2.94-5.23,2.46-4.46,2.32-5.09,1.64-5.62.48-5.21.31-3.98,1.35-1.3,1.47-.36,1.3.84,1.16,2.77.31,3.79.53,3.62-.36,2.46-.31,3.79v8.08l.99,6.39,1.16,1.64.99-.14.48-1.16-.68-2.63v-4.46l1.35-3.74.63-5.45.68-3.79.84-1.78h.99l.8.8.8,3.13.68,2.99-.31,4.73-.99,6.44-2.99,6.25-2.77,5.93-1.66,5.09-.31,3.13.31,3.62,1.16,3.47h2.15l1.11-1.52-.63-1.64-.48-2.94,1.95-2.63,2.29-3.13,1.52-2.94,3.62-5.76,2.94-5.26,1.3-5.76,1.16-7.6v-7.55l-1.47-5.26-2.94-4.1-.36-1.95,1.35-.68,1.66.8,2.15,2.63,2.63,4.77,1.11,5.57.68,7.4,1.66,5.14.17.14,2.27,5.09,1.47.53.68-1.33-.17-.8-1.11-3.79-.17-3.79.17-5.57.99-6.25v-3.13l-.36-2.63-2.63-5.28-2.27-3.79.8-1.47,3.13-.68,4.27-1.95,4.61-2.46,4.1-3.62,5.26-7.09,2.99-5.88,2.46-5.62.8-9.02.17-8.08-1.3-10.01-1.52-7.23-1.3-7.4-.8-7.72.63-4.92,1.33-6.13,2.77-6.08,3.98-6.25,1.47-3.98.31-1.95-1.28-1.78.24.34Zm-223.66-119.05l-1.3,1.3-1.83,1.04-2.46.53-.84-.53-.31-1.74.72-2.46,1.74-2.41,1.42-.72,1.3.12,1.57,1.3.72,1.16s-.72,2.41-.72,2.41Zm6.41-1.62l-.43.22-.89.05-.72-.36-.58-.68.1-.8.68-1.06h0l.53-.36h.72l.63.14.22.68.1,1.16-.31,1.01h-.02Zm7.93,7.33l-.68.31h-.84l-.48-.27-.27-.72.1-.89.48-.53.63-.05.68.19.31.48.22.8-.14.68Zm15.22-23.03l-1.01.27-1.25.31-1.37,1.16-3.09,1.88-4.24,1.16-2.63.68-2.56.17-1.3-.14h0l2.05-1.74,3.79-1.83,3.79-1.69,3.62-1.69,1.64-.8,1.25-.17,1.01.22.8,1.3-.53.94.05-.02Zm-114.91,185.03l-1.35-.31-.68-1.3,1.33-.68,1.16.14.31,1.16-.8.99h.02Zm17.27-69.02l-.94,3.47-1.21,3.93-2.15,3.3-1.16.31-.41-.89v-1.74l.22-2.36.84-4.46,1.88-3.26.99-1.16,1.42-.41.53.8-.05,2.46h.02Zm9.5-13.07l-2.15.8-2.05.22-1.25-.48-.31-.89.36-1.21,1.09-.77,2.22-.27,1.16-.1.8.22.72.68.05.77-.63,1.01v.02Zm17.46,23.54l-.43.05-1.09-.68-1.52-.84-1.3-1.06-1.21-1.21-.53-.68-.14-.99.27-.48.43.05.77.14.84.75.99.89,1.57.94.94,1.11.58.84.05.75-.22.41h0Zm-29.32,23.44l-.8,1.11-.8.31-.53-.43.05-1.62,1.35-2.32.41-.68.68-.31.63.41v1.33l-.41.94-.53,1.25h-.05Zm5.57,41.48l-.27.41h-.31l-.58-.48-.43-.84-.72-1.57-1.04-2.05-1.04-3.21-.53-3.04-.1-3.52.48-3.47.27-.41h.48l.48.43.48,2.1.05,2.15.84,2.72,1.04,2.89.43,2.56.63,4.15-.22,1.21.05-.02Zm19.92,37.98l.53-.14,1.3.27.58.63.14.75-.14.89-.77.58-.94-.17-.68-.63-.27-1.37.22-.8h.02Zm12.9-60.12l-1.35.1-1.74-.27-1.21-.53-2.82-1.74-2.77-2.05-3.13-1.88-1.06-.8,1.42-.05,1.57.58,2.68.68,2.46,1.21,2.85,1.25,2.05.94,1.06.99.17.89-.22.72.05-.05Zm14.85-38.49l-1.88,5.26-1.64,5.04-2.89,3.62-1.47,1.11-1.57.58-.89-.63-.1-1.16,1.25-1.33,1.3-2.15,1.64-3.62.99-3.42.89-3.4,1.74-3.26,1.16-1.64.99-.27.89.36.27,1.06-.68,3.83h0Zm71.6-104.44l1.47-1.88,1.69-1.62,1.52-1.01,1.11-.1.75.48v1.37l-.41,1.52-1.69,1.62-2,1.25-2.05.53-.99-.31-.12-.8s.72-1.06.72-1.06Zm-5.98-34.63l1.42-.48.99-.43,1.25.43.41.89-.94,1.06-1.3.48-1.57.1-.58-1.06s.31-.99.31-.99Zm-12.42,11.55l-.58-1.57.84-1.74,1.88-1.57,2.99-.14,2.19.41,1.69,1.16.84,2,.72,2.15-.12,1.88-1.88.72h-2l-2.41-.99-2.15-1.16-2-1.16h-.02Zm7.33,22.88l-2.56.58h-2.27l-.41-.77.58-.8.68-.41,4.46-3.16,2.72-1.69,1.64-1.01h.58l.1,1.21-1.11.89-.53,1.83-1.37,2.15-2.51,1.21v-.02Zm-29.73,81.6l-.31-.48.1-1.21.8-.89,2.82-1.16,5.84-1.83,5.84-.72h3.57l2.94.63,2.77,1.37,2.19,2.15.14,1.21-.27.84-.94.17-1.42-.17-2.19-.63-2.05-.63-2.56-.27h-3.16l-2.68-.05-2.36.22-2.63.43-2.1.58-2.05.43-1.35.1-.94-.12v.02Zm37.04,121.15l-2.99-1.88-5.04-3.35-7.81-5.26-3.16-2.15-3.35-2.63-3.67-3.35-2.68-2.1-3.21-3.13-2.1-2.19-1.3-2-.48-2.41.1-2.22.84-.84,1.47.1,2.32,1.4,2.51,2.41,1.83,2.22,1.95,1.98,1.93,2.36,2.41,2.63,2.29,2.56,7.5,6.51,4.15,3.71,3.71,3.35,2.99,2.8.58.94.41.68-1.16-.1-.05-.02Zm2-102.05l-.94.53-2.27.05-1.52-.36-.84-1.11-.7-.89v-1.42l1.11-1.42,1.69-1.33,1.62-.22,1.47.41.43.8.17,1.78.22,1.88-.43,1.33v-.02Zm4.51-73.57l-.94,3.45-2.1,5.5-2.82,4.65-3.13,5.81-4.99,7.02-3.79,3.98-2.63,1.04-.84-.05-.12-.68.8-1.88,3.21-4.94,2.63-5.45,2.36-4.68,4.2-8.13,3.98-6.34,2.05-1.98,1.57-.27.68,1.06-.1,1.93v-.05Zm9.14-23.83l-.48,1.21-1.74,2.05-2.41,1.16-2.41.99-2.51.05h-1.57l-.53-.72.58-1.04,1.37-.63,2.41-1.16,2.77-1.69,1.3-.94,1.95-.94,1.25.31s0,1.35,0,1.35Zm13.07,75.31l-.89.27-1.16-.1-.77-.75.19-.68.75-.53,1.16-.1.99.8.05.68s-.31.41-.31.41Zm1.35-4.36h-1.35l-.72-.41v-.99l.31-.68.7-.22h.94l.89.58.1.72-.89.99h.02Zm2.46-6.75l-.89.43-.94.14-.99-.22-.31-.68v-.8l.8-.58.99-.17h.94l.58.48.12.77-.31.63.02-.02Zm1.25-5.67l-1.21.36-1.35-.05-.7-.48-.05-.53.22-.8,1.06-.48,1.16-.17.99.48.36.94-.48.75v-.02Zm2.89-7.93l-.68.89-.63.8-1.25.27h-1.25l-1.06-.53-.1-.84.75-.8.58-.68.84-.31,1.37-.41h1.06l.48.58-.17,1.04h.05Zm1.78-6.66l-.58.94-1.04.17-1.06.27-1.35-.05-.58-.68.1-.99.46-.68.89-.63,1.37-.17,1.25.27.53.77v.77Zm1.88-4.92l-1.37.58-1.09.36h-1.33l-.53-.1-.68-.22-.36-.68.17-.84.89-.8.77-.41.84-.36,1.21-.05,1.16.41.48.94-.17,1.16Zm.17-7.62l-.48.8-.84.72-1.25.46-1.47.12-1.21-.17-.31-.72.17-.58.48-.36,2.15-1.11,1.01-.22,1.25.14.48.43v.48h.02Zm-3.38-18.09l.41-.27.17-.8.17-.63.36-.46.68-.05.8.22.72.41.1.84-.1,1.37-1.06.94-1.4.68-.58-.1-.58-.22-.58-.72-.1-.8.22-.43s.77,0,.77,0Zm-.77-5.72v-.68l.58-.58.94-.36,1.11-.05.68.22.19.58-.36.58-.58.63-.94.22h-.99l-.63-.58v.02Zm.05,18.09l.8-.48.94-.22.94-.1.68.05.27.41v.68l-.31.72-.63.72-1.57.68-.77-.1-.72-.22-.19-.75.14-.84.41-.48.02-.07Zm4.03-5.5l-.22.58-.99.68-1.35.48h0l-.75-.17-.72-.41-.14-.72.1-.89.53-.53.77-.53,1.11-.22.94-.05.63.17.22.63-.14.99h.02Zm.36-18.88l-.12.77-.48.68-.8.31-.77.17-.68.1-.89-.1-.24-.53.24-.72.53-.48.58-.31.99-.68,1.04.05.63.75h-.02Zm-1.37-6.56l.53.31.1.75-.05.72-.84.77-.8.31-.53-.1-.41-.22v-.72l.05-.77.58-.63.53-.31.84-.14v.02Zm-1.04-3.71l-.22.8-.58.43-.53.31-.72.1-.58-.36-.14-.63.27-.53.53-.72.53-.27.7-.05.58.36.12.53.05.02Zm-7.31-14.42l1.3-.1,1.83-.72,1.66-.36,1.37-.1.7.68-.99,1.47-.99.27-1.64.58-2.15,1.21-2.05,1.06-2.36.99-.8.1-.68-.22.1-.99-.36-.94v-1.69l.77-1.93,1.06-1.16.68-.89.7-.89h1.09l.75.77-.17,1.88s.17.99.17.99Zm-.75-17.77l.48.31-.17.48-.72.84-.99.1-1.16-.17-.68-.31-.48-.58.58-.48.84-.36,1.3-.05s.99.22.99.22Zm-6.17-6.92l2.24-.22,1.21.41.94.48.05.8-.8.36-1.25.1-1.21-.1-.94-.17-.8-.58.58-1.06-.02-.02Zm17.27,231.82l-1.09.99-.99,1.11-.99,2.05-.31,1.42-.68.53-1.3-.17-.63-.77.22-2.72.7-3.4.36-1.88.84-2.36.63-.7.94-.19h1.25l.53.51.94,1.37.19,2.63-.68,1.57.05.02Zm-3.5-35.23l-2.94-2.82-4.92-4.92-4.46-5.62-3.93-6.39-3.11-7.91-1.3-5.45.63-3.13,1.78-.48,1.83.84,1.16,3.26.99,4.77,1.78,4.94,4.63,7.23,6.25,9.19,7.23,9.38-5.64-2.94.02.05Zm6.03,98.97l-1.25,3.47-.63,1.69-1.16,2.63-.89,3.09-.27.89-.31.58h-.84l-.68-2-.05-2.29.48-3.13,1.11-4.29,1.83-2.63,1.64-2.05,1.47-.19.41,1.33-.89,2.87.02.05Zm6.51,46.69l-.31.05-.58-.27-1.06-1.57-1.62-2.63-.77-1.74-.43-2.41v-2.24l.1-1.33.31-.41h.7l.77.31.99,1.16.72,2,.48,2.68.05,2.15.05.77.41,1.01.41,2.05-.17.41h-.05Zm-32.99,77.19l-.68,1.3-.8,1.21-1.3.84-1.25.27h-.53l-.58-.43-.17-.94.22-1.16.68-1.35,1.83-1.83,1.37-.84.99-.05.51.41.12.94s-.41,1.64-.41,1.64Zm12.25-19.73l-.68.94-.84.48-1.04.36-.77-.22-.43-.8.1-.8.75-.94,1.52-.94,1.11-.17.53.31.14.8-.41.99.02-.02Zm27.32-27.23l-1.98,2.89-2.63,3.09-2.99,2.89-3.16,3.3-2.94,2.68-2.32,2.1-1.3.84-.84-.05-.41-.68.19-1.11,3.62-4.03,5.09-5.5,6.17-6.22h0l1.16-1.25,1.74-1.11.63.14.53.68-.53,1.3-.02.02Zm11.38-8.78l.77-.27.96.05.46.22.05.48-.41.63-.89.8-.8.89h-.53l-.63-.36-.14-.77.27-.77.89-.94v.05Zm32.94-89.85l-.19,1.47-.43,1.37-.27,1.25-.94.53-.84-.22-.43-.8-.27-2.82-1.88-2.58-.17-2.15,1.06-1.33,1.11-.36,1.06.1.89.8,1.04,1.3.27,1.47v1.98-.02Zm55.56-51.03l-.1,2.1-.84,4.61-1.16,3.93-1.33,3.42-2,3.74-2.29,3.21-3.42,4.03-3.93,3.76-2,.48-1.09-.48-.17-1.42.84-1.93,1.16-2.1,2.1-2.77,2.27-3.09,2.15-3.35,2.1-3.42,1.62-3.35.94-3.45.8-3.93.17-4.36.17-3.93-.27-3.42-.41-3.98-.36-3.74-.22-2.1,1.16-1.16.77.41.58,1.83,1.16,3.62.94,4.34.68,4.15v8.39-.02Z"/>
  </g>
</svg>