<?xml version="1.0" encoding="UTF-8"?>
<svg id="Layer_1" data-name="Layer 1" xmlns="http://www.w3.org/2000/svg" width="500" height="500" viewBox="0 0 500 500">
  <rect width="500" height="500" fill="none"/>
  <g>
    <g id="layer1">
      <path id="path4550" d="m136.6,280.69c-.35-.35-.64-2.76-.64-5.24v-4.61l5.53-.28,5.53-.28.28-26.79.28-26.79h-11.69v-10.63l23.39-.07h102.98c43.8.07,103.62.07,132.96.07h53.3l-.28,5.03-.28,5.03-142.03.35-142.1.21.28,10.35c.28,9.78.35,10.35,2.34,10.63,1.7.21,2.13-.21,2.41-2.41.28-2.41.71-2.76,4.39-2.98l4.11-.28v20.34h-3.4c-1.84,0-3.69.07-4.11.21-.43.14-.85-.99-1.06-2.48-.21-2.13-.71-2.62-2.41-2.41-1.98.28-2.13.71-2.13,11.41v11.13l5.6.28,5.6.28-.28,5.03-.28,5.03-18.85.28c-10.28.14-19.07,0-19.42-.43h0Zm52.66-.78c-1.7-.71-3.97-2.76-5.03-4.54-1.77-2.91-1.91-4.82-1.91-23.11s.07-19.99,2.06-22.54c3.47-4.47,7.09-5.32,22.04-5.32,21.69,0,23.18,1.35,23.18,21.19v11.62h-30.97l.28,7.44.28,7.44,5.32.57c7.44.78,8.65-.07,8.65-5.88v-4.82h16.37v4.89c0,6.52-2.13,10.28-7.09,12.54-3.33,1.49-6.31,1.84-17.08,1.84-9,0-13.96-.43-16.09-1.35h0Zm23.81-37.07c0-10.42-.14-10.7-6.31-10.7-8.22,0-8.15,0-8.15,9.78v8.58h14.46v-7.65Zm22.18,32.89c0-5.53.07-5.67,2.41-5.17l2.41.43v-36.85h-2.41c-2.27,0-2.41-.28-2.41-4.82v-4.82h21.19v3.33c0,1.84.21,3.4.43,3.4s2.34-1.28,4.61-2.91c4.82-3.4,11.84-4.68,16.02-2.98,4.54,1.91,5.46,4.82,5.46,17.79v11.69l-8.43.28-8.43.28-.28-10.42-.28-10.42-4.61,4.47-4.61,4.47.28,13.4c.28,13.04.35,13.4,2.41,13.68,1.91.28,2.2.85,2.2,5.53v5.24h-26.08l.14-5.6h0Zm53.09-.07c0-5.6.07-5.74,2.41-5.32l2.41.43v-36.71h-2.41c-2.27,0-2.41-.28-2.41-4.82v-4.82h21.19v3.4c0,1.84.21,3.4.43,3.4s2.34-1.35,4.61-2.91c2.98-2.06,5.74-3.12,9.5-3.47,4.75-.5,5.6-.28,8.36,2.06l3.12,2.62v25.87h-16.37v-9.71c0-5.24-.35-9.85-.85-10.14-.5-.28-2.62,1.42-4.82,3.83l-3.97,4.32.28,13.25c.28,12.9.35,13.25,2.41,13.54,1.91.28,2.2.85,2.2,5.53v5.24h-26.08v-5.6h0Zm59.18,4.25c-4.82-2.13-6.38-5.46-6.87-14.46-.43-8.36.71-13.89,3.4-16.09.99-.85,5.46-1.42,12.76-1.77l11.2-.5.28-5.24c.5-8.5-.14-9.71-4.96-9.71-5.17,0-6.45,1.28-6.45,6.45v4.11h-16.37v-4.39c0-6.59,2.2-10.84,6.38-12.62,2.76-1.13,6.66-1.42,17.86-1.13,14.17.28,14.32.35,17.01,2.98l2.69,2.69.35,19.84c.28,18.57.43,19.92,2.2,20.34,1.49.43,1.84,1.35,1.84,5.67v5.17l-19.07-.07c-14.17.07-19.99-.28-22.25-1.28h0Zm20.7-16.66l-.28-9.43-4.18-.28c-6.02-.43-6.95.71-6.95,9,0,9.78.14,10.06,6.38,10.06h5.24l-.21-9.36h0Zm26.29,12.4c0-5.24.14-5.67,2.2-5.53,1.42.07,2.27-5.88,2.41-18l.28-18.07h-2.41c-2.27,0-2.41-.28-2.41-4.82v-4.82h21.19v6.66l4.82-3.05c3.4-2.13,6.45-3.12,10.06-3.47,4.82-.43,5.46-.21,8.15,2.48l2.91,2.91v25.23h-16.37v-9.5c0-5.74-.43-9.85-.99-10.21-.57-.35-2.76,1.2-4.82,3.47l-3.83,4.11v27.64h2.41c2.27,0,2.41.28,2.41,5.32v5.32h-26.08l.07-5.67h0Zm55.92.35c0-5.39.43-5.88,4.61-5.39.92.14,1.2-4.04,1.2-18.21v-18.36h-2.91c-2.83,0-2.91-.07-2.91-4.82v-4.82h27v4.82c0,4.54-.14,4.82-2.41,4.82h-2.41l.28,18.07c.28,17.93.28,18.07,2.41,18.43,1.91.28,2.2.85,2.2,5.53v5.24h-27l-.07-5.32h0Zm3.9-61.02c-7.44-3.69-1.77-8.93,9.71-8.93,3.47,0,7.73.5,9.43,1.06,5.81,2.06,5.74,6.38-.14,8.5-4.39,1.7-15.17,1.28-18.99-.64h0Z"/>
    </g>
    <g>
      <path d="m59.07,194.22l-.07-.99-1.42-1.7-.43-.14-.28.43.07.5-.5.43-.07.57.57.28.78.57c-.07.07,1.35.07,1.35.07Z"/>
      <path d="m62.97,286.85l1.7.57,1.49.71.57.43,1.56.07.85-.21.43-.92.5-1.06-.14-.85-.57-1.13-.78-1.63-.64-1.7-.43-1.91-.21-1.63v-1.56l.14-1.84.21-.92-.21-.78-.5-.43-.99-.78-.71-.5-.14-.99-.35-1.06-.64-1.06-.71-.85-.85-.85-1.06-.85-1.2-.92-.64-.28-.64-.21-.57.07-.5.28-.21.5.14.92.5,2.06.85,2.76.71,1.63.92,2.13.64,1.2.99,1.84,1.2,2.06.92,1.28.78,1.06v.57l-.07.5-.43.14-1.35.07-2.34-.14-1.91-.21-1.7-.28-2.06-.57-1.06-.43-.71-.28-.78-.14h-.92l-.5.28h-.64l-1.56-.21-.85-.28-.99-.07h-1.56l-1.13-.07h-1.06l-1.06.07-.71.28-.5.14-.14.21v.5l.5.78.92,1.28.57.21.85.64.99.57,1.06.35h1.56l1.35-.14,1.13-.28.99-.28.43.21.21.43.35.07h.85l1.06.07.57.14.64-.14,2.13.28,1.42.21,2.34.5,1.7.43Zm3.33-3.4l.28-.21.21-.07h.28l.07.07v.21l-.14.21-.21.21-.35.07-.21-.07-.07-.21.14-.21Zm-20.55-1.42l-.07.21-.21.21-.14.07h-.28l-.28-.07-.14-.07-.21-.21v-.21l.07-.14.35-.14.43-.07h.28l.14.07v.14l.07.21Zm14.81,2.06h-.64l-.64-.07-1.42-.35-1.06-.35-.78-.28-.14-.21v-.21l.14-.07.99.35.43.21.5.07.57.07.99.07.85.14.78.07.64.14.35.07.07.14v.21l-.14.14h-.43l-.71-.14h-.35Z"/>
      <path d="m104.78,236.75l-.5-.21v.71l-.35.43-.71.99-.35.28-1.06,1.28-.43.71-.5,1.13-.57.07-.5-.28-.28-1.35.07-1.56.35-1.49.85-1.35,1.7-2.55.99-2.13.14-1.49-.14-.5-.28.28-.5,1.28-.78,1.28-1.13.92-1.35,1.28-1.98,2.34h-.35l-.14-.43-.07-.92.14-1.77.64-1.98,1.06-2.2,1.42-1.77,1.77-1.49.14-.35-.21-.14-.92.5-.71.5-1.28,1.06-1.56,1.35-1.13,1.49-1.06,1.98-.57,1.63-.14,1.56-.07,2.13.5,2.27.5,1.91.99,3.05.64,3.61.35,2.76v1.49l-.14,1.56-.28,1.28-.5,1.49-1.77,2.27-1.84,1.7-2.34,1.35-2.27.14-.28-1.13-.78-1.63-1.13-1.56-.71-.92-.99-1.35-2.13-1.98-2.13-1.77-.92-.71-2.98-1.98-4.25-3.54-2.34-2.91-2.55-4.18-.71-2.48.14-1.56.35-.28.92.64,1.42.71,1.13-.07,1.35.64,1.42.85.71.57.92.64.99.14.21-.43-.28.07-.28.14-.5-.28-.43-.64-.64-.99-1.13-1.06-1.13-.43-.64-.14.14-.35h.92l1.06.35,1.49.99.71.28.28-.35-.57-.57-1.13-1.06-1.77-.92-2.2-.85-.43-.35.43-.28.99.5,1.77.28,1.91.78.99.5,1.77.28,1.28-.14.71-.35.99-.64.43-.43.07-.28h-.43l-.35.43-1.28.43-1.13.14-.92-.14-.92-.71-.78-.92-.99-.71-1.49-.28-1.42-.5-.64-.35.07-.35.57.07h1.28l1.28-.07h1.35l.71-.14.57.5.92.21h.71l.35-.28-.57-.14-.71-.5-.78-.71-1.35-.71-.99-.14-.99-.14-.35-.21.71-.35h1.13l.85.28.85.43,1.35.57,1.35.07.71-.35.21-.5-.57-.28-1.13-.07-.99-.35-.85-.71-.92-.5-1.28-.21-.99-.35-.5-.64.07-.28.71.14.85.28.5.35.71.07.07-.35-.78-.64-.21-.57,1.06.14.99.5,1.28.14.5.92,1.28.78h.07l.28-.14.35-.21-.21-.14h-.5l-.43-.57-.85-1.35-1.49-1.35-1.56-.71-.43-.5-.92-1.13-.92-.43-.14-.43.35-.28.92.21,1.77.5.85.28.57.78.92.5h.71l.92.28.99-.14.35-.35-.57-.5-.78-.21-.92-.14-.57-.5-.71-1.06-.14-.71-.99-.78-.99-.64-1.13-.71-1.28-1.2-.14-.43h.28l1.7,1.35,1.7.99.92.71,1.13,1.06,1.06.57.57.14.28-.5-.43-.14-.85-.78-.28-.92-.92-.99-.78-.64-.35-.99-1.35-1.98-1.77-1.56-.07-.5.64.07.92.5,1.49.64,1.49.07,1.13.5,1.2.21.99-.28-.21-.57-1.13-.28-.99-.43-2.13-.99-1.13-.64-.57-.71.21-.28.28.21.5.14.64.07h.99l.85-.07,1.28-.07.99.35.99.71.43.14.07-.35-.35-.35-.99-.92-1.63-.85-1.13-.07-2.2-.14-.5-.64-1.13-1.13-1.28-.85-.5-.43.35-.28.57.28,1.06.57,1.2.43,1.63.35h1.42l1.13,1.28.92.57.35-.35-1.28-1.91-1.98-1.49-1.56-.28-1.42-1.49-1.28-.71-1.7-.43.92-.78,1.7-.57,1.28-.35.28-.35-.14-.43-.71-.14-.64-.14-4.82.07-.92-.92-.99-.64-1.28-.57-1.63-.28h-1.42l-.35-.5-1.35-1.42-1.63-1.49-.99,1.63-.07.5.5.64.07.5-.35.28-1.06.07-1.98-.57-1.91-.43h-.92l-1.49.28.14.5h.85l.35.07v.43l-.5.07-.5.07-.92.21-.71.21h-.57l-.21.28.21.35.43.07.43-.14.43-.21h.5l.99.07.78.21.92.21,1.35.57.14.28-.14.21-.64.21-.35.14-.64.43-.99.57-1.2.85-1.42.64-1.13.71-.99.43-.92.21h-1.98l-.43.14-.5.71-.21.57-.21.43-.57.85-.57.92-.35.43v1.98l.5.43.43.21h.5l.85-.21.92-.28,1.28-.5h.5l.14.28-.14.28-.43.21-1.28.5-.92.28-.28.43v.35l.28.28.64.07h1.28l.71-.14,1.06-.57.71-.14.57-.14.43.14h.64l.64.07.57.28.85.07,1.06.35.57.07.92-.14,1.2.07.5.21.28.5-.07.64-.14.78-.21.78-.43,1.06-.43,1.2-.43,1.06-.28.78-.92,1.49-1.06,1.49-1.06,1.42-1.35,1.35-1.2.99-.78.78-.43,1.35-.57.71-.71.5-.85.71-1.35.85-1.13.57-.71.85-.5.64-.5.28-.71.35-.5-.07-.92-.43-.99-.64-1.49-.64-1.7-.85-.85-.64-1.13-.99-1.2-.99-1.28-.43-1.13-.21-1.42.28-.99.57-.85.64-.43,1.13-.28.85-.5,1.35-.43.78-.43,1.28-.07,1.49-.35.85-.43,1.42-.35,1.42-.64,1.28-.35,1.28-.21,1.63-.57,1.35-.35.78-.07.71v3.54l-.28.92.14.85-.07,1.35.5,1.06.35.28.64-.21.64-.57.92-1.06.78-1.2.28-.99-.21-.85-.28-.99-.28-1.2-.28-1.42-.14-.99v-.92l.14-.99.5-1.56.5-.85.5-.43.35-.57.64-.07.28-.21.5-.43.5-.43.5-.64.21-.71.14-.64.07-.85.14-.71.35-.43.35-.07.5.14.64.35.71.85.78,1.13.85.99.92.85.85.64.78.35.28.5-.28.28-.78-.21-1.2-.07-1.63-.28-1.56-.35-1.84-.07-1.06.07-.85.5-.85.78-.71,1.2-.57,1.42-.07.99.28,1.84.71,2.34.35,1.84.43,1.77.28,1.28.14,1.2.43,1.35.28,2.06.28.71.78.64.71.71.78,1.2.57,1.42.85,1.28,1.28,1.2.92.57.64.07.5-.14.28-.71.35-.64.21-.85v-1.98l-.28-.57c-.07,0-.07-.35-.07-.43l.21-.21-.43-.64-.78-.78-1.42-.64-.5-.14-.07-.85.07-.57-.99-1.13-.64-1.42-.5-2.06-.43-1.91-.71-1.49-.28-1.77.43-1.06.71-.43h.57l.85.71,1.2.71,1.2.43,2.98,1.42,1.42.85v.78l1.35.78,1.7.57h3.54l-.28.64-.14.35.43.85.85,1.28,1.42,1.42,1.7,1.84,1.42,1.28,2.69,2.06,2.2,1.2,1.63.85,2.13,1.42,1.91,1.42,1.7,1.42,1.77,2.34.07.99.43.99,1.06.78.99.35.64-.07.5-.5.71-.71.14-.99.78-1.42.14-1.06.14-1.2.07-.92.28-.57.57-.28h.5v.43l-.35.43-.35.92-.28.57v.71l-.07,1.49-.21.71-.64,1.13-.85,1.42-.85,1.56-.5,1.98-.28,2.13.28,2.34.35,1.35.78,1.77,1.06,2.13.78,1.7,1.13,1.77,1.35,1.63.28.57v.35l-.14.5-.5.78-.71.99-1.49,1.91-1.49,1.63-1.35,1.49-.57.35-1.2.5-.71.71-.35.78-.85,1.06-.99,1.06-1.2,1.28-.71,1.28-.43,1.28-.28,1.06.07.85.5.57h1.91l.78-.07.85-.5,1.13-.5.14-.43h.35l.57-.28.57-.5.28-2.06-.14-.43-.07-.43.28.07.35.07.35-.28.57-.35.57-.78.71-1.06.35-.92.07-.78.5-.35.71-.35.57-.35.5-.92.99-1.06,1.84-1.7,1.42-.92,1.42-.78.35-.35.14-.35.28-.35-.21-.5-.07-.92-.21-.85-.21-.5-.5-.85-.78-.99-.35-.71-.07-.78v-1.06l.14-.57.5-1.63.5-.78.5-.28.92-.57,1.13-.92,1.49-1.28.99-1.06,1.06-1.2,1.06-1.2.78-1.35.64-1.13.64-1.35.43-1.49.14-1.35.07-1.06.35-.35.35-.07.35.21.28.71.07.99.14.92-.07.64-.07.99v2.13l.28,1.63.28.43h.28l.14-.28-.14-.71v-1.13l.35-.99.14-1.42.14-.99.21-.5h.28l.21.21.21.85.14.78-.07,1.2-.28,1.7-.78,1.63-.71,1.56-.43,1.35-.07.85.07.92.28.92h.57l.28-.43-.14-.43-.14-.78.5-.71.57-.85.43-.78.92-1.49.78-1.35.35-1.49.28-1.98v-1.98l-.35-1.35-.78-1.06-.07-.5.35-.14.43.21.57.71.71,1.28.28,1.49.14,1.91.43,1.35h.07l.57,1.35.35.14.14-.35-.07-.21-.28-.99-.07-.99.07-1.49.28-1.63v-.85l-.07-.71-.71-1.35-.57-.99.21-.35.85-.14,1.13-.5,1.2-.64,1.06-.92,1.35-1.84.78-1.56.64-1.49.21-2.34.07-2.13-.35-2.62-.43-1.91-.35-1.91-.21-1.98.14-1.28.35-1.63.71-1.56,1.06-1.63.35-1.06.07-.5-.43-.71Zm-58.33-31.04l-.35.35-.5.28-.64.14-.21-.14-.07-.5.21-.64.43-.64.35-.21h.35l.43.35.21.28-.21.71Zm1.63-.43l-.07.07h-.21l-.21-.07-.14-.14v-.21l.14-.28h0l.14-.07h.35l.07.14v.28l-.07.28Zm2.13,1.91l-.21.07h-.21l-.14-.07-.07-.21v-.21l.14-.14h.14l.14.07.07.14.07.21.07.14Zm3.97-6.02l-.28.07-.35.07-.35.28-.78.5-1.13.28-.71.14-.64.07h-.35l.57-.43.99-.5.99-.43.92-.43.43-.21.35-.07.28.07.21.35-.14.21Zm-29.98,48.27l-.35-.07-.14-.35.35-.14h.28l.07.28-.21.28Zm4.47-18l-.21.92-.28.99-.57.85-.28.07-.07-.21v-.43l.07-.64.21-1.13.5-.85.28-.28.35-.07.14.21-.14.57Zm2.48-3.4l-.57.21-.57.07-.35-.14-.07-.21.07-.28.28-.21.57-.07h.28l.21.07.21.14v.21l-.07.21Zm4.54,6.17h-.14l-.28-.14-.43-.21-.28-.35-.28-.28-.14-.14v-.28l.07-.14h.35l.21.21.28.21.43.21.21.28.14.21v.21l-.14.21Zm-7.65,6.1l-.21.28-.21.07-.07-.07v-.43l.35-.64.07-.14.14-.07.14.07v.35l-.07.21-.14.35Zm1.49,10.84l-.07.07h-.07l-.14-.14-.14-.21-.21-.35-.28-.57-.21-.85-.14-.78v-.92l.14-.92.07-.07h.14l.14.14.14.57v.57l.21.71.28.78.14.64.14,1.06-.14.28Zm5.17,9.92h.14l.35.07.14.14v.43l-.21.14-.21-.07-.14-.14-.07-.35v-.21Zm3.4-15.73h-.35l-.43-.07-.28-.14-.71-.43-.71-.57-.85-.5-.28-.21h.35l.43.14.71.14.64.28.78.35.57.21.28.28.07.21-.21.28Zm3.83-9.99l-.5,1.35-.43,1.35-.78.92-.35.28-.35.14-.21-.14v-.28l.35-.35.35-.57.43-.92.28-.92.21-.85.43-.85.28-.43.28-.07.21.07.07.28-.28.99Zm18.71-27.29l.35-.5.43-.43.43-.28h.28l.21.14v.35l-.07.43-.43.43-.5.35-.57.14-.28-.07v-.21l.14-.35Zm-1.56-9l.35-.14.28-.14.35.14.07.21-.21.28-.35.14h-.43l-.14-.28.07-.21Zm-3.26,2.98l-.14-.43.21-.43.5-.43h.78l.57.07.43.28.21.5.21.57v.5l-.5.21h-.5l-.64-.28-.57-.28-.57-.28Zm1.91,6.02l-.64.14h-.57l-.14-.21.14-.21.14-.07,1.13-.85.71-.43.43-.28h.14v.28l-.28.21-.14.5-.35.57-.57.35Zm-7.73,21.26l-.07-.14v-.28l.21-.21.71-.28,1.56-.5,1.56-.21h.92l.78.14.71.35.57.57v.28l-.07.21-.21.07-.35-.07-.57-.14-.57-.14-.64-.07h-1.56l-.64.07-.71.14-.57.14-.57.14h-.35l-.14-.07Zm9.64,31.61l-.78-.5-1.35-.85-2.06-1.35-.78-.64-.85-.71-.92-.85-.71-.57-.85-.85-.57-.57-.35-.5-.14-.64v-.57l.21-.21h.35l.64.35.64.64.5.57.5.5.5.64.64.71.57.64,1.98,1.7,1.06.99.99.85.78.71.14.21.07.14-.21.14Zm.57-26.65l-.21.14h-.57l-.43-.07-.21-.28-.21-.21v-.35l.28-.35.43-.35.43-.07.35.07.14.21.07.5.07.5-.14.28Zm1.13-19.21l-.21.92-.57,1.42-.71,1.2-.85,1.49-1.28,1.84-.99,1.06-.71.28h-.21v-.14l.21-.5.85-1.28.71-1.42.64-1.2,1.06-2.13,1.06-1.63.43-.64.43-.07.14.28v.5Zm2.41-6.17l-.14.28-.43.57-.64.28-.64.28h-1.06l-.14-.21.14-.28.35-.14.64-.28.71-.43.35-.28.5-.21.35.07v.35Zm3.4,19.63l-.21.07h-.28l-.21-.21.07-.14.21-.14h.28l.28.21v.14l-.14.07Zm.35-1.13h-.35l-.21-.07v-.28l.07-.14.21-.07h.21l.21.14v.21l-.14.21Zm.64-1.77l-.21.14h-.21l-.28-.07-.07-.14v-.21l.21-.14.28-.07h.21l.14.14v.21l-.07.14Zm.35-1.49l-.28.07h-.35l-.21-.14v-.14l.07-.21.28-.14.28-.07.28.14.07.21-.14.28Zm.71-2.06l-.14.21-.14.21-.35.07h-.35l-.28-.14v-.21l.21-.21.14-.14.21-.07.35-.07h.28l.14.14-.07.21Zm.5-1.77l-.14.21-.28.14-.28.07h-.35l-.14-.14v-.28l.14-.14.21-.14.35-.07.35.07.14.21v.07Zm.5-1.28l-.35.14-.28.14h-.5l-.14-.07-.07-.14.07-.21.21-.21.21-.07.21-.07h.28l.28.07.14.21-.07.21Zm0-1.98l-.14.21-.21.21-.35.14h-.35l-.28-.07-.07-.21.07-.14.14-.07.57-.28.28-.07h.35l.14.14v.14h-.14Zm-.85-4.68l.07-.07.07-.21.07-.14.07-.14h.14l.21.07.21.07v.57l-.28.21-.35.21h-.14l-.14-.07-.14-.21v-.21l.07-.14h.14v.07Zm-.21-1.49v-.14l.14-.14.21-.07h.28l.14.07.07.14v.07l-.14.14-.21.07h-.35l-.14-.14Zm0,4.68l.21-.14.21-.07h.35l.07.07v.43s-.14.21-.14.21l-.43.14h-.21l-.21-.07-.07-.21.07-.21.14-.14Zm1.06-1.42l-.07.14-.28.14-.35.14h0l-.21-.07-.21-.07v-.43l.14-.14.21-.14.28-.07h.21l.14.07.07.14.07.28Zm.07-4.89v.21l-.14.14-.21.07-.21.07h-.35l-.07-.14.07-.21.14-.14.14-.07.28-.14h.28l.07.21Zm-.35-1.77l.14.07v.43l-.21.21-.21.07h-.14l-.07-.07v-.43l.14-.14.14-.07.21-.07Zm-.28-.92l-.07.21-.14.14-.14.07h-.21l-.14-.07v-.14l.07-.14.14-.21.14-.07h.21l.14.07v.14Zm-1.84-3.76h.35l.5-.21.43-.07h.35l.21.14-.35.35-.28.07-.43.14-.57.28-.57.28-.64.28h-.21l-.14-.07v-.43s0-.43,0-.43l.21-.5.28-.28.21-.21.21-.21h.28l.21.21-.07.5v.14Zm-.21-4.68l.14.07-.07.14-.21.21h-.28l-.28-.07-.14-.07-.14-.14.14-.14.21-.07h.35l.28.07Zm-1.63-1.77l.57-.07.28.07.21.14v.21l-.21.07h-.64l-.21-.07-.14-.07.14-.28Zm4.54,60.46l-.28.28-.28.28-.28.57-.07.35-.14.14-.35-.07-.14-.21.07-.71.21-.92.07-.5.21-.64.14-.21.21-.07h.35l.14.14.21.35.07.71-.14.5Zm-.92-9.21l-.78-.71-1.28-1.28-1.2-1.49-.99-1.63-.78-2.06-.35-1.42.14-.85.5-.14.5.21.28.85.28,1.28.5,1.28,1.2,1.91,1.63,2.41,1.91,2.48c-.07-.07-1.56-.85-1.56-.85Zm1.56,25.87l-.35.92-.14.43-.28.71-.21.78-.07.21-.07.14h-.21l-.14-.5v-.57l.14-.85.28-1.13.5-.71.43-.57.35-.07.07.35-.28.85Zm1.7,12.19h-.07l-.14-.07-.28-.43-.43-.71-.21-.43-.14-.64v-.92l.07-.07h.21l.21.07.28.28.21.5.14.71v.78l.07.28.07.57v.07Zm-8.58,20.13l-.14.35-.21.28-.35.21-.35.07h-.14l-.14-.14-.07-.21.07-.28.14-.35.5-.5.35-.21h.28l.14.07v.21l-.07.5Zm3.19-5.17l-.21.21-.21.14-.28.07-.21-.07-.07-.14v-.21l.21-.21.43-.21.28-.07.14.07.07.21-.14.21Zm7.09-7.09l-.5.78-.71.78-.78.78-.85.85-.78.71-.64.57-.35.21h-.21l-.07-.14.07-.28.92-1.06,1.35-1.42,1.63-1.63h0l.28-.35.43-.28.14.07.14.14-.07.28Zm2.98-2.34l.21-.07h.28l.14.07v.14l-.07.14-.21.21-.21.21h-.14l-.14-.07-.07-.21.07-.21.14-.21Zm8.58-23.39l-.07.35-.14.35-.07.35-.21.14-.21-.07-.14-.21-.07-.71-.5-.71-.07-.57.28-.35.28-.07h.28l.21.21.28.35.07.35v.57h.07Zm14.53-13.32v.57l-.21,1.2-.28.99-.35.92-.5.99-.57.85-.92,1.06-.99.99-.5.14-.28-.14-.07-.35.21-.5.28-.57.57-.71.57-.78.57-.85.57-.92.43-.85.21-.92.21-.99.07-1.13.07-.99-.07-.92-.07-1.06-.07-.99-.07-.57.28-.28.21.07.14.5.28.92.21,1.13.14,1.06v2.13h-.07Z"/>
    </g>
  </g>
</svg>