<?xml version="1.0" encoding="UTF-8"?>
<svg id="Layer_1" data-name="Layer 1" xmlns="http://www.w3.org/2000/svg" width="500" height="500" viewBox="0 0 500 500">
  <rect width="500" height="500" fill="none"/>
  <path d="m365.42,393.42c-46.28,46.93-200.02,36.86-228.28,0-34.46-75.86-46.9-153.58-42.67-232.63-1.23-26.31,7.4-44.01,25.88-53.16,64.21-28.81,192.55-31.99,252.11-1.14,24.58,9.48,33.58,33.16,32.57,67.68,1.95,86.52-15.75,158.06-39.62,219.28M62.64,160.27c5.03-31.31,25.07-54.37,57.22-72.97,70.15-46.31,181.48-46.99,261.63,1.62,28.94,15.1,45.6,38.13,53.42,68.01,16.14,84.96,2.08,159.17-33.71,223.34-39.04,89.41-245.72,90.9-294.27,10.42-41.05-55.73-61.12-148.64-44.3-230.42Zm187.29,312.49c-123.77,0-224.15-99.77-224.15-222.75S126.17,27.21,249.97,27.21s224.25,99.77,224.25,222.79-100.38,222.79-224.25,222.79l-.03-.03Zm55.34-307.71h56.83l-.16,20.23-18.64-.06-.19,159.39h-18.58l-.81-159.26-18.48-.13v-20.17h.03Zm-22.64,69.73h-25.66v-50.37h15.88l9.78,23.58v26.79Zm18.54,109.83h-18.54l-.13-85.87h-25.59l-.39,85.87h-16.76v-180.11h43.78l17.63,35.66v144.45Zm-102.04-180.08h18.51v180.63h-18.51v-180.67.03Zm-62.32.55h53.91v19.91h-35.33l.06,53.81h27.73l.1,20.2h-27.8l-.1,86.19h-18.58v-180.15.03Z" fill-rule="evenodd"/>
</svg>