<?xml version="1.0" encoding="UTF-8"?>
<svg id="Layer_1" data-name="Layer 1" xmlns="http://www.w3.org/2000/svg" width="500" height="500" viewBox="0 0 500 500">
  <rect width="500" height="500" fill="none" stroke-width="0"/>
  <path d="M250,45.89c-112.45,0-204,91.55-204,204.11s91.55,204.11,204,204.11,204-91.55,204-204.11c.11-112.56-91.44-204.11-204-204.11ZM233.94,434.63v-53.26c5.28.66,10.56.99,16.06.99s10.56-.33,15.73-.88v53.26c-5.17.44-10.45.66-15.73.66-5.39-.11-10.78-.33-16.06-.77ZM289.17,244.94v-100.9l-23.33-6.71v107.5h-31.8v-107.39l-23.33,6.71v100.9h-89.13c1.98-69.32,58.76-124.89,128.41-124.89s126.43,55.68,128.41,124.78h-89.24ZM378.41,250.33c-.77,56.45-38.07,104.2-89.35,120.71v-120.71s89.35,0,89.35,0ZM210.61,250.33v120.6c-51.06-16.5-88.25-64.26-89.02-120.6h89.02ZM233.94,250.33h31.8v125.77c-5.17.66-10.45.99-15.73.99s-10.78-.33-16.06-.99c0,0,0-125.77,0-125.77ZM289.17,431.11v-54.69c54.69-16.72,94.63-67.78,94.63-127.86,0-73.72-59.97-133.8-133.8-133.8s-133.8,59.97-133.8,133.8c0,60.08,39.72,110.91,94.3,127.86v54.58c-83.18-18.05-145.79-92.43-145.79-181,0-102.22,83.18-185.4,185.29-185.4s185.4,83.18,185.4,185.4c0,88.8-62.72,163.18-146.23,181.11ZM89.68,167.37l9.13,3.3-10.67,29.38,7.59,2.75,10.12-27.73,9.13,3.41-10.01,27.73,13.42,4.84-4.29,12.1-39.5-14.41,15.07-41.37ZM157.89,146.23l-9.19,8.86-29.16-30.27,9.19-8.86,29.16,30.27ZM197.07,106.96c.77,2.09,1.76,3.3,2.97,3.52.44.11,1.1,0,1.87-.11s1.76-.44,2.86-.77l4.29-1.43,3.19-1.1c2.42-.88,3.3-2.31,2.53-4.4-.66-1.76-1.76-2.42-3.52-2.2l-2.53.66-2.42.66-7.04,1.98-4.84,1.21c-.77.22-1.87.44-3.19.66-3.63.66-6.27-.33-8.03-2.97-.99-1.43-1.87-3.08-2.42-4.95-1.21-3.3-1.65-5.94-1.65-7.59.11-2.86,1.32-5.06,3.41-6.71s6.93-3.74,14.3-6.27c1.32-.44,2.42-.77,3.63-1.1,2.75-.77,4.62-1.32,6.6-1.54,1.98-.33,3.74-.33,5.17-.11,1.65.22,3.08.88,4.4,2.09,1.21,1.21,2.31,2.86,2.97,4.95l.88,2.64-12.1,4.18-.66-1.43c-.66-1.21-1.65-1.87-2.97-1.87-.11,0-.33,0-.88.11-.88.22-1.76.44-2.75.66,0,0-1.65.44-2.42.77-.77.22-3.08,1.21-3.08,1.21-.88.44-1.65.66-2.2,1.21-1.21.77-1.54,1.98-1.1,3.52.55,1.54,1.65,2.31,3.52,2.09.33,0,.77-.11,1.32-.22s.99-.22,1.43-.33l3.19-.88,3.19-.99,6.6-1.87c.88-.33,1.76-.55,2.64-.66.88-.11,1.87-.22,2.75-.22,4.4,0,7.7,3.08,9.79,9.35,2.42,6.93.55,11.88-5.5,14.96-.33.22-.88.44-1.65.77-.66.33-1.32.55-1.76.66-1.21.44-2.75.99-4.62,1.65-1.87.66-2.97,1.1-3.3,1.21-.44.11-2.2.77-5.5,1.76-3.3,1.1,2.09-.88.33-.22-.77.22-1.54.55-2.31.66-.77.22-1.54.44-2.31.55-1.65.55-3.3.88-4.73.88-1.54,0-2.86-.33-4.18-.77-1.1-.44-2.09-1.21-3.08-2.42-.99-1.21-1.76-2.75-2.42-4.51l-1.1-2.75s12.43-4.18,12.43-4.18ZM285.65,73.84l-3.85,15.18,3.3.77,17.94-11.66,14.52,3.63-24.87,15.4,17.61,26.08-14.74-3.74-13.31-19.26-3.08-.66-3.74,14.96-12.32-3.08,10.12-40.71,12.43,3.08ZM405.7,183.76l-9.24,3.52,3.63,9.35c.11.33.33.99.66,1.76.33.88.55,1.54.77,1.98.22.55.44.99.66,1.32s.44.66.77.99c.99.99,2.64.99,4.95.11,1.54-.66,2.64-1.43,3.08-2.64.33-.88.22-2.2-.55-3.96l-1.32-3.52s-3.41-8.91-3.41-8.91ZM421.76,195.09c.55,1.32.88,2.2.99,2.75s.33,1.21.66,2.2c.99,3.85.66,6.82-1.1,9.02-.66.88-1.43,1.54-2.31,2.2-.88.55-1.76,1.1-2.64,1.54s-1.87.88-2.97,1.32c-3.19,1.21-5.83,1.76-7.81,1.43-1.98-.22-4.07-1.87-6.27-4.73.33,3.63,0,6.16-.99,7.37-.99,1.32-3.19,2.64-6.6,3.96l-4.84,1.87-4.62-11.88,3.63-1.43c2.42-.99,3.96-1.87,4.51-2.75.55-.99.44-2.64-.55-5.17l-4.4-11.55-9.79,3.74-4.62-11.88,39.28-15.07,10.45,27.07ZM356.62,103.44l31.91,30.26-6.82,7.15-22.56-21.46-3.96,4.18,21.46,20.36-6.38,6.6-21.35-20.36-5.28,5.5,22.89,21.68-6.71,7.15-32.13-30.59,28.94-30.48Z" stroke-width="0"/>
</svg>