<?xml version="1.0" encoding="UTF-8"?>
<svg id="Layer_1" data-name="Layer 1" xmlns="http://www.w3.org/2000/svg" width="500" height="500" viewBox="0 0 500 500">
  <rect width="500" height="500" fill="none"/>
  <path id="path963" d="m228.06,231.56s1.4.23,3.73-2.33c1.4-1.4,2.1-3.27,2.1-5.37-.23-.93-.7-1.87-1.63-1.87-2.1.23-3.73,1.63-4.2,3.73-.7,1.87-.7,3.97,0,5.83m.7,3.27c0,1.63,2.1,3.03,4.2,3.03-.47,1.63-.23,2.33-.93,2.1-2.8-.23-5.13-1.87-6.07-4.2-5.83.93-11.67,1.87-23.1,3.03-29.64,47.14-38.74,54.84-56.47,54.84-12.84,0-24.04-8.4-24.27-23.34-.23-9.1,7.23-20.3,20.77-23.57,1.63,0,2.1.7,2.1,1.4s-.7,1.4-1.87,1.87c-3.97,1.4-10.97,9.33-10.97,16.34,0,5.37,3.27,11.43,9.1,12.84,1.4.23,3.03.47,4.43.23,14.24,0,30.34-16.1,47.61-40.37-2.8.23-14.7,1.4-17.5,4.9-1.4.93-2.1.47-2.57-.7.23-.7.47-1.4.93-1.87,4.67-5.37,18.67-6.53,22.17-7,13.3-20.3,30.34-32.9,33.84-32.67.93.23,1.63.93,1.4,1.87q0,.23-.23.47c-.7.93-1.4,1.63-2.1,2.33-9.8,7.47-17.74,16.8-23.8,27.54,6.3-.47,12.84-1.17,19.14-2.1-.23-1.17-.47-2.33-.7-3.5.47-6.3,4.2-10.03,8.87-9.33,2.57.47,4.43,2.57,4.43,4.9-.23,3.03-1.63,5.83-3.73,7.93-1.4,1.17-3.03,2.1-4.67,3.03m107.35,17.27c-5.13-.7-11.67,3.73-16.8,10.27-3.03,3.73-4.9,8.4-5.83,13.07-.7,3.73.47,7.23,1.87,8.4,1.4.93,7.23,4.2,16.34-5.13,3.73-4.2,7.23-8.63,10.03-13.54l-1.63-.47c2.8-5.6,2.33-11.9-3.97-12.6m-21.7-51.11c0,4.67-16.34,13.54-30.34,13.54-21.7,0-44.34-10.5-54.84-12.84-11.2-2.57-21.47-4.9-29.64-4.9-28.24,0-40.84,12.14-40.37,23.34.23,4.43,3.97,7.47,9.33,6.53,5.83-.93,14-6.53,16.1-11.43.23-.7,1.17-1.17,2.1-.93h0c.47.47.7,1.17.7,1.87-.7,5.6-9.57,21.47-24.74,21.47-8.4,0-14.24-7.93-14-15.64.23-14.47,14.94-29.17,51.57-29.17,7.7,0,15.64.7,23.1,2.1,9.8,1.87,34.3,5.83,54.37,6.07,8.17.23,16.34,0,24.27-.93,8.17-1.4,6.3-1.63,9.57-1.63,2.8.23,2.8,1.4,2.8,2.57m-8.87,63.24c10.03-9.33,15.64-19.14,29.87-19.14,8.63.23,10.97,7,12.37,10.03l18.9-31.97h11.67l-31.5,55.54c-.93,1.63-1.63,3.27-1.87,5.13.23,2.8,3.73,2.1,2.57,2.1,6.3-.23,17.97-12.37,20.77-15.17.7-.7,1.63-2.1,2.1-2.1s1.87.7,1.87,1.4c-.47,1.4-1.4,2.8-2.33,4.2-5.83,7.23-15.64,18.67-26.6,18.9-5.37,0-7.47-2.1-8.17-6.53-5.83,3.97-12.6,6.07-19.6,6.07-5.13.23-9.8-3.03-11.67-7.7-1.4-3.5-1.87-7.23-.93-10.97-3.97,1.87-8.4,2.57-12.84,2.1-6.07-.23-10.03-3.03-11.9-10.03-7,12.84-7.23,13.3-14.47,26.84h-12.6l16.1-27.07c1.63-3.03,3.03-6.3,3.73-9.57.23-1.63-.7-3.03-2.1-3.5h-.47c-2.1,0-5.37,2.1-8.63,5.13-5.13,5.6-9.8,11.43-14.24,17.74-5.83,8.4-15.64,18.2-26.37,18.2-7.7,0-14.94-4.2-16.34-12.37,0,0-.7,1.87-7.7,5.83-.7.23-2.1,1.17-2.57.93-1.17-.93-1.87-2.33-2.1-3.73.47.23,1.4-.7,4.2-2.8,2.8-1.87,5.13-4.43,6.53-7.23,1.4-2.8,3.73-7.23,5.37-10.27,4.43-8.87,12.14-17.74,24.5-18.2,1.17-.23,2.57.47,3.03,1.63.7.7.93,1.63.7,2.57-7.47,1.17-14.24,5.37-18.44,11.43-2.57,3.73-4.2,7.93-4.9,12.37-.93,6.53,2.1,10.97,6.77,12.14,8.4,1.4,15.64-4.9,21.24-14.47,1.63-3.97,2.57-8.17,2.57-12.37,0-3.27-1.4-6.3-3.27-8.63-.23-2.1,1.17-3.97,3.27-4.2h.23c.7,0,1.4.23,1.87.7,3.03,3.5,4.67,8.17,4.43,12.84,0,1.4,0,3.03-.23,4.43,6.07-7.47,14-17.27,20.07-19.14,1.17-.47,2.33-.7,3.5-.7,10.97-.23,9.57,9.8,9.57,9.8,5.83-6.77,10.03-9.33,15.4-8.87,4.2-.23,7.7,3.03,7.93,7.23v.47c0,4.43-3.5,7.93-7.7,8.4-3.73.23-7.23-2.33-8.17-5.83-2.8.93-4.2,3.03-4.67,6.77-.7,3.97,1.87,7.7,5.83,8.63.47,0,1.17.23,1.63.23,4.67-.93,10.03-3.03,13.77-7.23m-55.54,56.94c116.92,0,211.9-31.74,211.9-71.18s-94.98-70.94-211.9-70.94c-117.15,0-211.66,31.74-211.66,70.94s94.51,71.18,211.66,71.18m0,6.07c-120.65,0-218.66-34.3-218.66-77.24s98.01-77.48,218.66-77.48,218.9,34.77,218.9,77.48-98.01,77.24-218.9,77.24m0,8.87c125.55,0,227.53-38.51,227.53-85.88s-101.75-86.35-227.53-86.35S22.47,202.39,22.47,250s101.75,86.11,227.53,86.11"/>
</svg>