<?xml version="1.0" encoding="UTF-8"?>
<svg id="Layer_1" data-name="Layer 1" xmlns="http://www.w3.org/2000/svg" width="500" height="500" viewBox="0 0 500 500">
  <rect width="500" height="500" fill="none"/>
  <g>
    <path d="m205.65,245.14c4.41-1.22,18.65-8.83,30.21-19.86.3,3.73,1.22,6.16,2.55,8.49,4.87,8.49,13.51,12.14,23.21,12.06,12.03-.11,21.92-6.81,25.76-17.77,1.48-4.3,1.94-8.68.11-11.8-2.4-4.11-6.32-5.56-12.48-5.56h-7.34c-3.88,0-9.82-.3-8.75,2.13,1.26,2.85,4.91,4.99,10.31,4.99,2.28,0,3.88,0,4.91.08,4.41,0,4.76,5.06,3.92,7.31-2.78,7.46-7.99,12.03-16.4,12.03-5.18,0-10.54-1.79-13.39-7.92-3.16-6.81-2.05-12.71,3.04-21.46,7.76-13.36,20.66-11.57,30.94-11.42,2.02,0,6.55-.08,7.99-.08,3.16,0,17.28-3.5,21.69-7.88h-26.14c-12.67,0-33.68-2.21-43.38,14.96v.04s0,.04-.04.08c-10.58,19.41-23.82,26.11-28.88,29.23-2.02,1.26-9.51,5.48-15.49,7.61-5.1,1.83-8.52,2.51-11.45,5.44h13.7c3.16,0,5.44-.68,5.44-.68"/>
    <g>
      <path d="m56.86,308.54c-3.77,2.97-9.97,3.08-15.56,3.08-18.15.04-18.3-7.8-18.3-18,0-10.73.08-18.04,20.09-18.04,11.19,0,18.3,2.28,18.3,9.89h-6.47c0-4.22-3.16-5.56-12.52-5.56-13.01,0-12.86,4.19-12.86,13.7s.15,13.7,12.6,13.7,13.85-3.96,13.74-12.1h-14.35v-4.19h19.86s1.67,13.66-4.53,17.5Z"/>
      <path d="m269.43,311.24v-8.87c0-2.97,0-4.45-1.83-5.44-1.83-.95-5.14-.91-11.34-.91h-9.93v15.22h-6.55v-35.28h16.71c11.42,0,19.26.15,19.26,10.05,0,4.11-1.56,6.66-5.14,7.72,5.82,1.26,5.14,5.86,5.14,8.79v8.71s-6.32,0-6.32,0Zm-1.64-29.45c-1.75-1.6-4.26-1.6-11.49-1.6h-10.01v11.53h10.43c3.54,0,7.65.23,9.78-.57,1.56-.57,2.78-1.94,2.78-5.06,0-2.17-.65-3.5-1.56-4.3h.08Z"/>
      <path d="m355.66,311.24v-35.28h6.55v35.28h-6.55Z"/>
      <g>
        <path d="m469.86,311.24l-4.99-9.74h-20.51l-4.95,9.74h-6.85l18.99-35.28h6.55l18.91,35.28h-7.15Zm-15.22-29.61l-8.18,15.79h16.33l-8.18-15.79h.04Z"/>
        <path d="m163.83,311.24l-4.99-9.74h-20.51l-4.95,9.74h-6.85l18.99-35.28h6.55l18.91,35.28h-7.15Zm-15.22-29.61l-8.18,15.79h16.33l-8.18-15.79h.04Z"/>
      </g>
    </g>
  </g>
</svg>