<?xml version="1.0" encoding="UTF-8"?>
<svg id="Layer_1" data-name="Layer 1" xmlns="http://www.w3.org/2000/svg" width="500" height="500" viewBox="0 0 500 500">
  <rect width="500" height="500" fill="none"/>
  <path d="m92.3,351.44c16-4.48,67.49-31.92,109.28-71.8,1.08,13.43,4.48,22.3,9.29,30.68,17.66,30.68,48.83,43.94,83.99,43.61,43.53-.41,79.26-24.62,93.19-64.26,5.39-15.5,7.05-31.34.5-42.62-8.71-14.92-22.88-20.06-45.1-20.06h-26.61c-14.01,0-35.57-1.08-31.67,7.71,4.56,10.36,17.74,17.99,37.23,17.99,8.29,0,14.01,0,17.74.33,15.92,0,17.25,18.24,14.18,26.45-10.03,27.03-28.94,43.53-59.36,43.53-18.74,0-38.14-6.47-48.42-28.69-11.44-24.71-7.46-45.93,11.11-77.69,28.11-48.34,74.79-41.87,112.01-41.29,7.3.08,23.71-.33,28.85-.33,11.36,0,62.6-12.69,78.52-28.52h-94.6c-46.02-.17-122.05-8.13-157.2,53.89,0,0,0,.17-.08.17,0,.08-.08.17-.17.25-38.22,70.31-86.23,94.35-104.55,105.71-7.38,4.56-34.33,19.82-55.97,27.61-18.49,6.63-30.84,9.12-41.46,19.73h49.66c11.36,0,19.65-2.4,19.65-2.4"/>
</svg>