<?xml version="1.0" encoding="UTF-8"?>
<svg id="Layer_1" xmlns="http://www.w3.org/2000/svg" width="500" height="500" viewBox="0 0 500 500">
  <rect width="500" height="500" fill="none"/>
  <g>
    <path d="M228.27,197.68c-11.95-.03-22.56,7.64-26.26,19.01l-21.66,66.07c-2.5,7.84,1.83,16.22,9.67,18.73,1.45.46,2.96.7,4.48.71h79.5c8.96,0,20.42-7.16,23.21-15.76l5.38-16.05h-71.92l13.39-41.98h129.79l-21.86,68.6c-6.73,20.74-25.37,46.54-54.29,46.54H61c4.86,21.93,20.35,41.49,49.24,41.49h208.89c41.72,0,68.63-37.29,78.35-67.19l38.63-120.2-207.84.03Z"/>
    <path d="M150.64,194.23c6.73-20.74,39.65-37.78,64.04-37.78h224.32c-4.86-21.93-20.35-41.49-49.24-41.49h-190.64c-35.19,0-82.72,24.59-92.43,54.52l-42.67,132.74h51.89l34.73-107.99Z"/>
  </g>
</svg>