<?xml version="1.0" encoding="UTF-8"?>
<svg id="Layer_1" xmlns="http://www.w3.org/2000/svg" width="500" height="500" viewBox="0 0 500 500">
  <rect width="500" height="500" fill="none"/>
  <g>
    <path d="M152.37,334.36l4,16.13h-15.45l11.45-16.13ZM147.08,320.49l-40.04,50.3h19.54l6.39-9.01h26.4l2.28,9.01h18.98l-14.01-50.3h-19.54Z"/>
    <path d="M238.36,339.83h-30.89c-1.59,0-2.88-1.29-2.89-2.88,0-.31.05-.61.14-.91l.32-.98c.68-2.1,2.64-3.53,4.84-3.52h39.55v-3.28c-.12-4.42-3.79-7.91-8.22-7.79-.06,0-.11,0-.17,0h-35.49c-4.36,0-13.23,2.82-15.05,9.27l-2.86,9.77c-2.4,7.17,2.38,10.97,7.13,10.97h31.61c1.74,0,3.15,1.4,3.15,3.13,0,.33-.05.66-.15.97l-.34,1.06c-.73,2.33-2.86,3.94-5.3,4h-40.92l-.26,4.68c.32,3.71,3.48,6.53,7.21,6.43h39.51c4.47-.42,8.63-2.46,11.69-5.75,2.6-3.04,5.4-12.75,5.44-17.36-.08-4.37-3.64-7.87-8.01-7.87"/>
    <path d="M70.44,336.68c.99-3.06,3.83-5.12,7.05-5.12h40.18v-3.28c-.12-4.42-3.79-7.91-8.21-7.79-.06,0-.13,0-.19,0h-35.39c-6.55,0-15.41,4.58-17.22,10.15l-8.27,25.7c-1.8,5.56.54,14.45,8.89,14.45h38.91c7.77,0,12.79-6.95,14.59-12.51l5.89-18.46h-34.93l-3.6,11.29h19.36l-1.44,4.32c-1.12,2.47-3.53,4.11-6.25,4.24h-21.38c-2.21,0-4-1.8-3.99-4.01,0-.41.07-.82.19-1.21l5.83-17.78Z"/>
    <path d="M364.4,370.79h18.98l-14.01-50.3h-19.46l-40.04,50.3h19.54l6.41-9.01h26.3l2.28,9.01ZM343.72,350.5l11.45-16.13,4,16.13h-15.45Z"/>
    <path d="M441.18,339.83h-30.89c-1.59,0-2.88-1.3-2.87-2.89,0-.29.05-.58.13-.85l.32-.98c.68-2.1,2.64-3.53,4.84-3.52h39.47v-3.28c-.12-4.42-3.79-7.91-8.22-7.79-.06,0-.11,0-.17,0h-35.41c-4.36,0-13.23,2.82-15.05,9.27l-2.86,9.77c-2.4,7.17,2.36,10.97,7.13,10.97h31.61c1.74,0,3.15,1.4,3.15,3.13,0,.33-.05.66-.15.97l-.36,1.06c-.73,2.33-2.86,3.94-5.3,4h-40.9l-.26,4.68c.32,3.71,3.48,6.53,7.21,6.43h39.57c4.47-.42,8.63-2.46,11.69-5.75,2.6-3.04,5.4-12.75,5.44-17.36-.08-4.37-3.64-7.87-8.01-7.87"/>
    <path d="M273.25,336.68c.99-3.06,3.83-5.12,7.05-5.12h40.18v-3.28c-.12-4.42-3.79-7.91-8.21-7.79-.06,0-.13,0-.19,0h-35.43c-6.55,0-15.41,4.58-17.22,10.15l-8.27,25.7c-1.8,5.56.54,14.45,8.89,14.45h38.91c7.77,0,12.79-6.95,14.59-12.51l5.89-18.46h-34.89l-3.6,11.29h19.36l-1.44,4.32c-1.12,2.47-3.53,4.11-6.25,4.24h-21.38c-2.21,0-4-1.8-3.99-4.01,0-.41.07-.82.19-1.21l5.83-17.78Z"/>
    <path d="M242.93,179.65c-7.29-.02-13.76,4.66-16.01,11.59l-13.21,40.3c-1.53,4.78,1.11,9.89,5.9,11.42.88.28,1.8.43,2.73.43h48.48c5.46,0,12.45-4.36,14.15-9.61l3.28-9.79h-43.86l8.17-25.6h79.15l-13.33,41.84c-4.1,12.65-15.47,28.38-33.11,28.38h-144.35c2.96,13.37,12.41,25.3,30.03,25.3h127.39c25.44,0,41.86-22.74,47.78-40.98l23.56-73.3-126.75.02Z"/>
    <path d="M195.59,177.54c4.1-12.65,24.18-23.04,39.05-23.04h136.8c-2.96-13.37-12.41-25.3-30.03-25.3h-116.26c-21.46,0-50.44,14.99-56.37,33.25l-26.02,80.95h31.65l21.18-65.86Z"/>
  </g>
</svg>