<?xml version="1.0" encoding="UTF-8"?>
<svg id="Layer_1" data-name="Layer 1" xmlns="http://www.w3.org/2000/svg" width="500" height="500" viewBox="0 0 500 500">
  <rect width="500" height="500" fill="none"/>
  <g>
    <path d="m280.55,284.43c16.55-2.71,29-5.34,52.55-10.94.85-.19.85-.43-.12-.5-10.36-.62-19.18-1.24-25.33-1.78-1.47-.12-1.59-.62-.93-1.47,1.66-2.09,3.44-2.51,7.85-2.51,4.1,0,14.35.12,24.71.19,20.53.12,40.72-5.1,65.97-13.46.31-.12.19-.31-.12-.31-35.27.85-78.11,1.24-85.03,1.24-1.04,0-.93-.73-.19-1.55,1.59-1.89,3.36-2.82,9.2-3.25,8.16-.62,77.8-3.98,89.21-4.37,13.5-.5,21.77-2.59,32.87-11.06,3.25-2.4,7.54-6.07,11.41-9.9.62-.62.62-1.04-.54-.93-21.15,1.89-128.88,11.91-133.91,12.53-9.2,1.16-13.42,3.63-16.86,9.09-11.41,17.75-16.43,26.41-31.32,38.2-.58.43-.58.97.58.77Zm-30.55,4.06c-.19,0-.54,0-1.04-.31-20.61-12.3-41.68-31.32-45.98-53.44-1.47-8.35,1.66-9.9,6.92-11.79,9.44-3.44,31.09-10.13,40.1-10.13s30.66,6.69,40.1,10.13c5.22,1.89,8.39,3.44,6.92,11.79-4.29,22.12-25.33,41.1-45.98,53.44-.54.31-.85.31-1.04.31Zm-30.59-4.06c1.16.19,1.16-.31.54-.85-14.85-11.79-19.88-20.46-31.32-38.2-3.44-5.41-7.66-7.93-16.86-9.09-5.03-.62-112.76-10.63-133.91-12.53-1.16-.12-1.16.31-.54.93,3.87,3.87,8.16,7.5,11.41,9.9,11.1,8.47,19.37,10.56,32.87,11.06,11.41.43,81.05,3.75,89.21,4.37,5.88.43,7.66,1.35,9.2,3.25.73.85.85,1.55-.19,1.55-6.92,0-49.73-.43-85.03-1.24-.31,0-.43.19-.12.31,25.25,8.35,45.44,13.57,65.97,13.46,10.36-.12,20.61-.19,24.71-.19,4.41,0,6.19.43,7.85,2.51.62.85.54,1.35-.93,1.47-6.19.5-14.96,1.16-25.33,1.78-.93.12-.93.31-.12.5,23.59,5.68,36.04,8.28,52.59,11.02Zm30.59,10.63c.31,0,.85-.12,1.24-.31,25.33-12.64,37.16-24.21,52.05-48.22,5.57-9.2,8.7-13.88,22.2-15.85,21.15-3.02,116.62-9.71,135.49-12.3,8.04-1.16,10.25-2.4,14.04-6.38.62-.62.62-1.16-.54-1.04-2.4.19-97.68,4.29-154.87,6.38-14.04.73-18.21.43-29.93-3.44-17.36-5.34-33.1-8.97-39.67-8.97s-22.31,3.63-39.67,8.97c-11.72,3.87-15.93,4.18-29.93,3.44-57.15-2.09-152.43-6.15-154.87-6.38-1.16-.12-1.16.43-.54,1.04,3.75,3.98,5.95,5.22,14.04,6.38,18.83,2.59,114.34,9.28,135.49,12.3,13.5,1.97,16.67,6.69,22.2,15.85,14.85,24.01,26.68,35.57,52.05,48.22.39.19.89.31,1.24.31Z"/>
    <path d="m283.53,236.87c-1.47-.77-3.02-1.2-3.02-2.55,0-.66.62-1.2,1.89-1.2s2.47.46,3.56.93l.35-1.78c-1.01-.35-2.28-.62-3.67-.62-3.05,0-4.76,1.35-4.76,3.25s1.31,2.82,3.17,3.67c1.59.73,2.94,1.24,2.94,2.4,0,.89-.7,1.47-2.05,1.47-1.28,0-2.63-.46-3.67-.93l-.19,2.05c.5.15,2.47.5,3.94.5,2.47,0,4.68-1.2,4.68-3.36-.04-2.09-1.62-3.02-3.17-3.83Zm-48.88-3.44l-.43-1.51h-8.47l-.27.7.54.27c.35.15.43.39.43.81v10.13h8.2v-1.55h-5.57v-3.87h4.79v-1.47h-4.79v-3.48h5.57v-.04Zm31.86,3.44c-1.47-.77-3.02-1.2-3.02-2.55,0-.66.62-1.2,1.89-1.2s2.47.46,3.56.93l.35-1.78c-1.01-.35-2.28-.62-3.67-.62-3.05,0-4.64,1.35-4.64,3.25s1.24,2.82,3.05,3.67c1.59.73,2.94,1.24,2.94,2.4,0,.89-.7,1.47-2.05,1.47-1.28,0-2.63-.46-3.67-.93l-.19,2.05c.5.15,2.47.5,3.94.5,2.47,0,4.68-1.2,4.68-3.36-.08-2.09-1.62-3.02-3.17-3.83Zm4.87-4.25l.54.27c.39.19.46.39.46.81v10.13h2.63v-11.87h-3.33l-.31.66Zm-12.34.81l-.43-1.51h-8.47l-.27.7.54.27c.35.15.43.39.43.81v10.13h8.2v-1.55h-5.57v-3.87h4.79v-1.47h-4.79v-3.48h5.57v-.04Zm-13.42,6.53l-6.38-8.04h-2.51l-.31.7.54.27c.39.19.46.39.46.77v10.13h1.89v-7.7l6.11,7.7h2.09v-11.87h-1.89v8.04Zm-26.22-1.82l1.16.5c.35.15.46.31.46.7v2.67c-.5.27-1.16.5-1.89.46-2.28-.08-3.94-1.89-3.94-4.56s1.51-4.72,4.06-4.72c.62,0,2.05.15,3.52,1.35l.54-1.93c-1.74-.73-2.78-.93-4.1-.97-3.67-.08-6.73,1.97-6.73,6.34,0,3.91,2.75,6.11,6.34,6.11,2.67,0,4.25-.89,4.64-1.2v-5.37h-3.75l-.31.62Z"/>
  </g>
</svg>