<?xml version="1.0" encoding="UTF-8"?>
<svg id="Layer_1" data-name="Layer 1" xmlns="http://www.w3.org/2000/svg" width="500" height="500" viewBox="0 0 500 500">
  <rect width="500" height="500" fill="none"/>
  <path d="m473.92,187.98h-95.08c.59-10.17,9.02-18.23,19.34-18.23v-42.51c-87.83-3.08-128.94-31.74-147.86-46.23-18.92,14.5-60.14,43.16-147.98,46.23v42.51c10.32,0,18.76,8.05,19.34,18.23H26.08v117.54h88.86c0,3.76-1.99,14.88-25.86,17.54,16.36,15.03,111.72,95.93,161.24,95.93s145.13-80.9,161.49-95.93c-22.33-2.43-25.86-12.23-25.86-17.54h87.98v-117.54h0Zm-361.87-25.48l.02-26.52c79.49-4.12,118.71-27.97,138.26-42.63,20.96,14.87,58.65,38.51,138.14,42.63l-.04,26.52c-10.82,3.9-18.62,13.41-18.99,25.49h-9.54c.31-13.67,7.78-24.88,18.81-31.41l.03-12.01c-64.18-4.52-106.09-24.42-128.41-39.77-19.49,14.31-58.68,33.48-128.52,39.77l.03,12.01c11.03,6.53,18.5,17.74,18.81,31.41h-9.54c-.36-12.07-8.23-21.59-19.04-25.49h-.02Zm239.2,14.68v10.81h-10.39v-8.49c0-2.65-3.21-3.87-4.64-3.87h-9.95v12.36h-10.39v-45.62l24.98,5.2c3.53.77,10.39,3.09,10.39,9.95v7.41c0,2.65-.33,4.97-3.65,6.63,1.55.88,3.65,3.87,3.65,5.64h0Zm-44.21-27.19v27.85c.11,3.43-1.88,10.14-10.94,10.14h-13.59c-4.53,0-10.39-2.4-10.39-10.58v-40.68c0-4.86,4.97-7.96,10.5-5.97l18.12,6.97c4.42,1.77,6.41,5.64,6.3,12.27Zm-75.6-12.71v-11.5l18.89-10.28,19.79,10.83v11.5l-13.71-7.41v57.56h-11.27v-58.23l-13.71,7.52h0Zm-1.33-.55v40.68c0,8.18-5.86,10.58-10.39,10.58h-13.59c-9.06,0-11.05-6.72-10.94-10.14v-27.85c-.11-6.63,1.88-10.5,6.3-12.27l18.12-6.97c5.53-1.99,10.5,1.11,10.5,5.97Zm-59.57,51.26l-8.51-18.22v18.22h-10.39v-38.33l10.39-1.88,8.18,17.47,9.06-21.11,9.73-2.54v46.4h-10.39v-18.87l-8.07,18.87h0Zm219.17,139.06c-26.09,26.53-104.9,81.79-139.39,81.79s-113.05-55.26-139.14-81.79c13.48-5.97,15.7-14.67,16.58-21.52h10.83c-.66,6.41-1.99,16.65-10.83,22.84,10.17,9.73,86.31,70.74,122.55,70.74s112.64-61.01,122.8-70.74c-8.85-6.19-10.17-16.43-10.83-22.84h10.83c.88,6.85,3.09,15.55,16.58,21.52h.02Zm-228.63,6.16c.6.39,23.93,18.59,23.93,18.59v11.07s-32.83-24.52-33.82-25.11c-1.18-.79-2.77-3.56-3.16-5.54s0-17.8,0-19.58,1.98-7.11,4.75-7.11h25.51v10.48h-15.22c-2.37-.2-3.76.6-3.76,2.77v11.67c0,.79.99,2.37,1.78,2.77h0Zm23.33-27.68h10.68l5.74,17.8,9.29-17.8h10.08l-14.44,31.24v37.37c0,1.78-10.08-3.76-10.28-5.14-.39-1.38,0-32.63,0-32.63l-11.07-30.85h0Zm49.85,67.8c.6,1.18,13.65,7.31,13.65,7.31v12.26s-20.96-8.9-22.94-10.88c-2.17-2.17-2.37-4.55-2.37-5.54v-62.09c0-3.76,7.52-8.87,9.29-8.87h15.42v11.24c0,.39-8.9.39-11.07,0-1.18-.2-2.77,1.38-2.77,6.92v45.88c0,.99,0,2.77.79,3.76h0Zm44.49-2.97v10.68s-17.4,7.72-20.17,9.1c-1.58.79-3.36-.6-3.36-2.97v-81.64h11.87v69.57l11.67-4.75h0Zm25.5-37.55v9.1h-11.07v21.95l13.45-6.32v9.69l-17.8,8.9c-2.17.99-4.94,0-4.94-1.98v-64.67c0-2.57,2.17-3.95,3.95-3.95h20.77v11.27h-15.42v16.02h11.07Zm34.19.77s-17.4.39-20.57,0c-2.97-.39-4.15-.99-4.15-3.16,0-1.98-.2-15.03,0-18.79.39-3.76,6.32-5.71,9.1-6.1,2.57-.2,26.1,0,26.1,0v10.25h-25.11c-.99,0-.79,8.5,0,8.5h22.55c3.16,0,2.77.79,2.77,2.17v12.66c0,1.38-1.98,2.97-2.77,3.76-.6.6-33.62,20.57-33.62,20.57v-8.9s26.3-16.61,26.5-17.8c.39-1.78-.79-3.16-.79-3.16h0Zm125.99-37.92H36.03v-96.38h428.39v96.38h0ZM207.99,146.56l8.4-3.32c1.55-.66,3.32,0,3.32,2.43v28.3c0,1.88-.88,3.43-3.21,3.43h-7.62c-2.43,0-3.32-1.21-3.32-3.21v-22.55c0-2.43.22-3.98,2.43-5.09h0Zm88.64,5.09v22.55c0,1.99-.88,3.21-3.32,3.21h-7.62c-2.32,0-3.21-1.55-3.21-3.43v-28.3c0-2.43,1.77-3.09,3.32-2.43l8.4,3.32c2.21,1.11,2.43,2.65,2.43,5.09h0Zm42,5.53c2.21.44,2.21,2.54,2.21,4.42s-.33,3.65-2.32,3.65h-12.27v-10.61l12.38,2.54h0ZM45.97,208.12v77.59h408.72v-77.59H45.97Zm38.12,68.53h-9v-25.94h-7.11v25.94h-9v-60.44h9v24.17h7.11v-24.17h9v60.44Zm20.95,0l-1.58-15.72h-6.59l-1.84,15.72h-8.15l6.87-60.44h13.5l6.87,60.44s-9.08,0-9.08,0Zm37.68-41.51c0,4.5-.82,8.02-4.05,10.58.47.53,3.94,2.85,4.04,6.94v23.98h-8.99v-20.21c0-3.65-1.55-4.81-7.28-4.81v25.03h-9v-60.44h14.87c7.21,0,10.41,2.54,10.41,10.35v8.57h0Zm23.34,41.51h-18.14v-60.44h9v50.88h9.14v9.55h0Zm21.78,0h-18.76v-60.44h18.59v9.44h-9.6v14.76h9.17v9.55h-9.17v17.13h9.77v9.55h0Zm20.87,0h-9v-22.58l-9.25-37.85h9.25l4.85,21.12,4.99-21.12h8.4l-9.25,37.44v23h0Zm22.93-26.64h-16.47v-7.62h16.47v7.62Zm28.35,15.69c0,5.78-3.73,10.95-10.69,10.95h-12.82v-60.44h10.86c8.91,0,12.65,3.05,12.65,13.67v35.82h0Zm20.55,10.95l-1.58-15.72h-6.59l-1.84,15.72h-8.15l6.87-60.44h13.5l6.87,60.44h-9.08Zm24.76,0h-10.07l-8.45-60.44h9.17l4.37,36.34,4.36-36.34h9.06l-8.45,60.44h0Zm19.99,0h-9v-60.44h9v60.44Zm28.85-10.95c0,5.78-3.73,10.95-10.69,10.95h-12.82v-60.44h10.86c8.91,0,12.65,3.05,12.65,13.67v35.82h0Zm29.28-28.97h-9v-8.44c0-3.05-1.82-3.73-3.6-3.73s-3.57.68-3.57,3.73v6.7c0,4.33,16.06,11.98,16.06,18.1v14.57c0,7.89-6.97,10.18-12.57,10.18s-12.38-2.29-12.38-10.18v-13.14h9v10.72c0,3.05,1.59,3.73,3.46,3.73s3.49-.68,3.49-3.73v-6.36c0-8.49-16.06-10.84-16.06-20.68v-12.97c0-7.89,6.97-10.18,12.49-10.18s12.68,2.29,12.68,10.18v11.52-.02Zm29.22,30.93c0,7.89-7.25,10.18-12.77,10.18s-12.59-2.29-12.59-10.18v-42.44c0-7.89,7.08-10.18,12.59-10.18s12.77,2.29,12.77,10.18v42.44Zm30.89,9h-11l-7.15-34.41v34.41h-9.05v-60.44h12.17l5.88,30.73v-30.73h9.15v60.44h0Zm-345.6-25.94l2.1-23.47h.6l1.76,23.47s-4.45,0-4.45,0Zm28.5-26.18h3.56c2.04,0,3.39,1.45,3.39,3.74v9.07c0,2.2-.68,4.9-3.82,4.9h-3.13v-17.71h0Zm119.05,1.21h2.12c2.29,0,3.39.6,3.39,4.5v32.36c0,3.9-1.11,4.5-3.39,4.5h-2.12v-41.36h0Zm27.97,24.97l2.1-23.47h.6l1.76,23.47h-4.45,0Zm66.2-24.97h2.12c2.29,0,3.39.6,3.39,4.5v32.36c0,3.9-1.11,4.5-3.39,4.5h-2.12v-41.36h0Zm56.64,38.26v-35.5c0-3.05,1.82-3.73,3.69-3.73s3.69.68,3.69,3.73v35.5c0,3.05-1.82,3.73-3.69,3.73s-3.69-.68-3.69-3.73Z"/>
</svg>