<?xml version="1.0" encoding="UTF-8"?>
<svg id="Layer_1" data-name="Layer 1" xmlns="http://www.w3.org/2000/svg" width="500" height="500" viewBox="0 0 500 500">
  <rect width="500" height="500" fill="none"/>
  <g id="Layer_1-2" data-name="Layer 1" image-rendering="optimizeQuality" shape-rendering="geometricPrecision" text-rendering="geometricPrecision">
    <g id="g1963">
      <path id="path1965" d="m353.07,98.71c-10.3,45.9-14.36,66.99-22.72,100.22-8.02,31.9-14.24,61.49-24.99,75.84-10.91,14.56-25.46,17.73-35.37,18.84-5.13.57-8.87.83-19.98.88-11.11-.05-14.85-.3-19.98-.88-9.91-1.11-24.47-4.29-35.37-18.84-10.74-14.35-16.96-43.95-24.99-75.84-8.36-33.24-12.42-54.32-22.71-100.22,0,0-10.27.4-14.81.72-6.15.44-10.96.96-16.2,1.66,0,0,5.91,94.4,8.58,134.39,2.81,42.07,7.75,112.95,12.39,166.48,0,0,8.62,1.37,22.94,2.19,15.06.86,21.75.96,21.75.96,6.2-23.58,13.86-56.3,22.56-70.26,7.07-11.35,17.96-12.55,24.14-13.4,9.7-1.32,17.88-1.52,21.68-1.4h.08c3.79-.12,11.98.08,21.68,1.4,6.17.85,17.07,2.05,24.14,13.4,8.7,13.96,16.36,46.68,22.56,70.26,0,0,6.69-.1,21.75-.96,14.31-.82,22.94-2.19,22.94-2.19,4.64-53.53,9.58-124.4,12.4-166.48,2.68-40,8.57-134.39,8.57-134.39-5.24-.7-10.05-1.22-16.2-1.66-4.56-.32-14.83-.72-14.83-.72h0Z" fill-rule="evenodd"/>
      <path id="path1967" d="m472,154.45c-6.09-59.96-46.09-72.62-81.21-78.51-17.7-2.97-49.14-5.48-69.3-6.31-17.61-1.13-59.16-1.69-71.49-1.7-12.33,0-53.88.57-71.49,1.7-20.16.83-51.6,3.34-69.29,6.31-35.12,5.89-75.13,18.55-81.22,78.5-1.66,16.33-2.14,37.64-1.83,60.59.5,37.99,3.76,63.65,5.63,81.41,1.28,12.19,6.38,48.84,12.92,67.79,8.98,26.04,17.06,33.63,26.57,41.38,17.38,14.18,46.01,18.53,52.11,19.63,32.32,5.81,97.74,6.86,126.61,6.82,28.88.04,94.3-1.01,126.61-6.82,6.11-1.1,34.73-5.46,52.12-19.63,9.51-7.75,17.58-15.33,26.57-41.38,6.54-18.95,11.63-55.6,12.92-67.79,1.87-17.76,5.13-43.41,5.63-81.41.31-22.95-.17-44.26-1.84-60.59h0Zm-21.97,100.71c-3.55,47.9-7.81,76.62-13.9,97.32-5.35,18.13-11.98,30.32-21.66,39.08-16.16,14.61-38.4,17.75-51.46,19.7-28.2,4.18-75.69,5.64-113.02,5.65-37.33-.01-84.82-1.46-113.02-5.65-13.05-1.94-35.29-5.08-51.44-19.7-9.68-8.76-16.31-20.95-21.66-39.08-6.09-20.7-10.36-49.42-13.9-97.32-2.14-28.87-1.69-75.65,1.53-100.78,4.78-37.48,23.39-56.36,63.27-63.47,18.61-3.31,43.63-5.67,67.37-6.84,19.04-1.28,50.37-1.93,67.86-1.77,17.5-.16,48.83.48,67.86,1.77,23.74,1.18,48.76,3.53,67.37,6.84,39.88,7.11,58.49,25.98,63.28,63.47,3.21,25.14,3.65,71.92,1.52,100.79h0Z" fill-rule="evenodd"/>
    </g>
  </g>
</svg>