<?xml version="1.0" encoding="UTF-8"?>
<svg id="Layer_1" data-name="Layer 1" xmlns="http://www.w3.org/2000/svg" width="500" height="500" viewBox="0 0 500 500">
  <rect width="500" height="500" fill="none"/>
  <g>
    <path d="m62.9,244.88h-13.26v-18.36h-27.42v47.98h27.42v-18.57h13.26v18.57h27.42v-47.98h-27.42v18.36Zm72.08,13.7c0,3.32-1.99,7.07-6.85,7.07s-6.85-3.76-6.85-7.07v-32.06h-27.41v32.5c0,4.87,4.21,15.48,19.9,15.48h28.74c15.7,0,19.9-10.61,19.9-15.48v-32.5h-27.41v32.06h0Zm73.19-12.6l-10.84-19.46h-31.39v47.98h25.2v-20.56l11.27,20.56h11.5l11.27-20.56v20.56h25.2v-47.98h-31.39l-10.83,19.46h0Zm88,0l-10.84-19.46h-31.39v47.98h25.2v-20.56l11.27,20.56h11.5l11.27-20.56v20.56h25.21v-47.98h-31.4l-10.83,19.46h0Zm45.76,28.52h53.51v-13.26h-25.2v-5.31h25.2v-11.05h-25.2v-5.09h25.2v-13.27h-53.51v47.98Zm126.04-32.06c0-5.97-3.76-15.92-14.37-15.92h-54.61v47.98h27.41v-13.92l11.72,13.92h33.83l-14.37-17.03c5.75.23,10.39-9.06,10.39-15.03h0Zm-34.05,6.19h-7.52v-10.83h8.4c6.85,0,6.19,10.83-.88,10.83h0Zm38.51-23.14c-2.95,0-5.35,2.39-5.35,5.35s2.39,5.35,5.35,5.35h0c2.95,0,5.35-2.39,5.35-5.35s-2.39-5.35-5.35-5.35Zm0,9.81c-2.39.02-4.34-1.89-4.36-4.28,0-.06,0-.13,0-.19-.07-2.39,1.82-4.38,4.2-4.44.05,0,.11,0,.16,0,2.39,0,4.33,1.93,4.33,4.31v.13c.08,2.39-1.8,4.39-4.19,4.47-.05,0-.1,0-.14,0h0Z"/>
    <path d="m474.9,229.51c0-1.22-.72-1.75-2.18-1.75h-2.34v6.17h.93v-2.67h1.08l1.63,2.67h1.05l-1.76-2.72c.9-.11,1.6-.59,1.6-1.7h0Zm-3.59.95v-1.91h1.27c.65,0,1.34.14,1.34.9,0,.95-.71,1.01-1.5,1.01,0,0-1.12,0-1.12,0Z"/>
  </g>
</svg>