<?xml version="1.0" encoding="UTF-8"?>
<svg id="Layer_1" data-name="Layer 1" xmlns="http://www.w3.org/2000/svg" width="500" height="500" viewBox="0 0 500 500">
  <rect width="500" height="500" fill="none"/>
  <g id="g5188">
    <path id="path5186" d="m254.36,353.46c-5.8.5.15.3-4.41.3-50.03,0-95.94-9.42-131.2-25.34,123.22-91.63,248.86-83.35,135.56,25.04M42.59,249.08c0-33.92,51.22-79.04,138.59-96.59-28.21,29.16-68.18,105.46-92.18,159.31-24.89-17.21-46.36-28.96-46.36-62.72m156.98-40.61c1.98-14.33,16.26-36.74,41.35-62.28,3.02,0,6.05-.1,9.02-.1,44.43-.55,88.46,7.88,129.51,24.79-86.82,67.04-186.29,86.52-179.89,37.63m255.85,43.44c0,34.06-59.3,80.57-135.46,95.35,17.4-17.6,57.07-84.14,88.31-160.95,27.47,14.63,47.15,31.39,47.15,65.65m22.31-2.03c0-64.9-102.34-117.86-227.79-117.86S22.21,185.02,22.21,249.93s102.29,117.96,227.79,117.96,227.79-53,227.79-117.96"/>
  </g>
</svg>