<?xml version="1.0" encoding="UTF-8"?>
<svg id="Layer_1" data-name="Layer 1" xmlns="http://www.w3.org/2000/svg" width="500" height="500" viewBox="0 0 500 500">
  <rect width="500" height="500" fill="none"/>
  <g id="g2826">
    <g id="g2994">
      <path id="path2898" d="m173.63,194.04h76.35v23.11h-51.66v20.89h48.58v22.78h-48.58v22.78h54.28v22.9h-78.96v-112.47"/>
      <path id="path2900" d="m457.89,221.36c-3.95-5.06-11.86-7.44-17.88-7.44-6.96,0-16.61,3.16-16.61,11.56,0,20.41,51.58,7.28,51.58,46.52,0,25-20.09,36.87-43.2,36.87-14.4,0-27.06-4.27-37.67-14.09l17.56-19.3c5.07,6.64,13.3,10.6,21.52,10.6s17.09-3.8,17.09-11.71c0-20.57-52.53-9.5-52.53-46.84,0-23.9,20.73-36.4,42.72-36.4,12.66,0,24.84,3.33,34.34,11.71l-16.93,18.52"/>
      <path id="path2902" d="m325.55,191.4c-24.91,0-34.56,20.28-36.07,50.24,3.59-16.14,17.57-26.29,35.88-26.29s31.82,9.82,35.68,25.51c-1.36-30.1-10.35-49.46-35.49-49.46Zm35.43,68.1c-3.95,15.54-17.71,25.26-35.62,25.26s-32.42-10.23-35.93-26.51c1.29,30.85,10.86,50.4,36.11,50.4s33.84-19.73,35.43-49.14Zm-14.11-66.37c17.73,8.5,28.74,28.23,28.74,54.68,0,28.02-10.16,50.44-29.56,59.45,24.53-7.72,39.38-29.45,39.38-57.19s-14.51-49-38.55-56.93h-.01Zm-71.95,59.62c0-28.95,11.07-51.5,30.99-60.26-25.27,7.37-40.59,29.37-40.59,57.57s15.25,50.08,40.39,57.51c-18.84-8.12-30.79-28.18-30.79-54.82" fill-rule="evenodd"/>
      <path id="path2904" d="m69.12,306.52v-3.07h8.3v-106.18h-8.3v-3.23h21.59l51.47,91.67v-88.44h-13.95v-3.23h23.08v3.23h-5.32v109.24h-5.15l-59.61-108.44v105.37h13.45v3.07h-25.58"/>
      <path id="path2906" d="m25.02,306.52v-3.07h8.47v-106.2h-8.47v-3.2h28.15v3.21h-8.55v106.19h8.55v3.07h-28.15"/>
    </g>
  </g>
</svg>