<?xml version="1.0" encoding="UTF-8"?>
<svg id="Layer_1" data-name="Layer 1" xmlns="http://www.w3.org/2000/svg" width="500" height="500" viewBox="0 0 500 500">
  <rect width="500" height="500" fill="none"/>
  <path d="m225,114.92c-98.7,7.37-177.3,51.76-195.85,110.52-7.01,22.02-5.1,43.3,5.73,65.41,6.37,12.92,12.01,20.65,23.2,31.84,28.11,28.29,71.5,49.12,122.53,59.13,7.82,1.55,11.28,1.91,11.74,1.18.36-.55,13.28-33.11,28.75-72.23,15.37-39.21,28.29-71.32,28.65-71.32.27,0,11.46,33.02,24.83,73.32l24.29,73.23,2.36-.45c1.36-.27,6.37-1.18,11.1-1.91,52.94-8.82,105.7-34.21,132.72-63.77,46.12-50.3,38.48-109.61-19.83-154.46-46.85-36.02-126.17-56.04-200.22-50.49Zm62.31,18.92c44.66,6.82,78.59,21.56,102.61,44.57,17.47,16.83,26.11,34.75,26.11,54.4,0,6.91-2.55,18.47-5.55,25.29-5.82,13.37-19.2,28.75-34.66,39.84-15.1,10.92-48.58,26.01-51.3,23.2-.64-.64-17.74-26.38-38.12-57.13-20.28-30.75-37.3-55.95-37.75-55.95s-17.01,25.2-36.93,55.95c-19.83,30.75-36.57,56.49-37.12,57.13-1.46,1.55-13.28-2.55-28.75-9.92-39.67-19.01-62.68-48.12-62.77-79.05,0-47.85,57.86-90.42,134.63-99.06,4.73-.55,10.1-1.18,11.83-1.36,8.82-1,46.48.28,57.76,2.09h0Z"/>
</svg>