<?xml version="1.0" encoding="UTF-8"?>
<svg id="Layer_1" data-name="Layer 1" xmlns="http://www.w3.org/2000/svg" width="500" height="500" viewBox="0 0 500 500">
  <rect width="500" height="500" fill="none"/>
  <g id="layer1">
    <g id="g3610">
      <path id="path3612" d="m103.98,306.82v42.21s-13.95-39.56-14.27-40.6c-.34-1.05-1.1-1.61-2.53-1.61h-13.3v51.39h8.98v-41.65s13.74,39.02,14.09,40.04c.3,1.03,1.19,1.61,2.34,1.61h13.67v-51.39h-8.97Z"/>
    </g>
    <g id="g3614">
      <path id="path3616" d="m151.18,306.82v51.39h10.56s-.02-20.75-.02-21.87h19.02v-9.39l-19,.03v-10.7h19.29v-9.46h-29.85Z"/>
    </g>
    <g id="g3618">
      <path id="path3620" d="m395.27,306.82v9.88h11.79v41.5h10.73v-41.5h11.77v-9.88h-34.29Z"/>
    </g>
    <path id="path3622" d="m218.18,358.2h11.36v-51.37h-11.36v51.37Z"/>
    <path id="path3624" d="m347.63,358.2h11.37v-51.37h-11.37v51.37Z"/>
    <path id="path3626" d="m465.69,358.2h11.31v-51.37h-11.31v51.37Z"/>
    <path id="path3628" d="m23,358.2h11.37v-51.37h-11.37v51.37Z"/>
    <g id="g3630">
      <path id="path3632" d="m308.36,306.82h-8.97v42.21s-13.94-39.56-14.27-40.6c-.34-1.05-1.1-1.61-2.5-1.61h-13.33v51.39h8.96v-41.65s13.77,39.02,14.09,40.04c.32,1.03,1.21,1.61,2.34,1.61h13.69v-51.39Z"/>
    </g>
    <g id="g3634">
      <path id="path3636" d="m296.53,222.47c-4.33-5.61-46.52-62.48-46.52-62.48,0,0-42.35,57.35-46.4,62.61-15.64-1.33-42.82-11.77-42.82-29.88,0-23.03,39.47-44.35,89.23-44.35,52.26,0,89.24,21.33,89.24,44.35,0,18.11-27.05,28.42-42.71,29.75m-46.52-80.68c-64.27,0-109.01,25.1-109.01,57.62,0,15.17,9.78,32.33,30.54,42.65,19.27,9.57,46.48,12.91,50.41,13.39l28.05-82.66,28.34,82.66c3.92-.48,30.89-3.82,50.16-13.39,20.74-10.32,30.53-27.48,30.53-42.65,0-32.51-44.75-57.62-109.03-57.62"/>
    </g>
  </g>
</svg>