<?xml version="1.0" encoding="UTF-8"?>
<svg id="Layer_1" data-name="Layer 1" xmlns="http://www.w3.org/2000/svg" width="500" height="500" viewBox="0 0 500 500">
  <rect width="500" height="500" fill="none"/>
  <g>
    <path d="M65.67,280.48c0,2.36-1.11,3.61-3.58,3.61h-13.37c-2.41,0-3.61-1.19-3.61-3.58v-61.13c0-2.4,1.14-3.6,3.61-3.6h13.35c2.41,0,3.61,1.14,3.61,3.6v61.1h0Z" fill="#0c0c0c" fill-rule="evenodd"/>
    <path d="M84.43,280.48v-8.14c0-2.44,1.18-3.6,3.61-3.6h58.09c1.05,0,1.57-.38,1.81-1.09.21-.64.05-1.68-1.3-2.12-1.35-.44-47.02-14.94-48.96-15.6-9.53-3.21-13.11-9.28-13.11-16.71,0-9.39,6.32-17.45,20.99-17.45h52.98c2.49,0,3.58,1.2,3.58,3.6v8.4c0,2.48-1.15,3.59-3.54,3.59,0,0-51.05-.02-52.33-.02-1.16,0-1.72.3-1.9.95-.19.68-.15,1.63,1.24,2.06,1.76.54,40,12.64,47.04,14.92,10.86,3.51,14.93,8.55,14.93,18,0,11.29-7.78,16.62-21.12,16.8-5.03.07-58.39,0-58.39,0-2.55,0-3.64-.98-3.64-3.61h0Z" fill="#0c0c0c" fill-rule="evenodd"/>
    <path d="M200.7,215.78c2.41,0,3.59,1.11,3.59,3.57,0,0,0,32.32,0,38.75s1.57,10.22,10.36,10.5c2.03.07,5.18.1,7.89.1s6.46-.03,8.49-.1c8.79-.29,9.75-4.08,9.75-10.5,0-6.42,0-38.75,0-38.75,0-2.43,1.05-3.58,3.6-3.58h13.56c2.48.01,3.57,1.18,3.57,3.61v41.98c0,11.27-1.88,22.31-23.35,22.67-7.38.12-15.63.21-15.63.21,0,0-8.77-.12-16.16-.21-20.26-.24-22.7-11.89-22.7-22.67,0-7.78-.01-42.01-.01-42.01,0-2.4,1.08-3.57,3.55-3.57h13.47Z" fill="#0c0c0c" fill-rule="evenodd"/>
    <path d="M394.09,215.78c2.4,0,3.59,1.11,3.59,3.57,0,0,0,32.32,0,38.75s1.57,10.22,10.36,10.5c2.03.07,5.18.1,7.89.1s6.46-.03,8.49-.1c8.79-.29,9.75-4.08,9.75-10.5s0-38.75,0-38.75c0-2.43,1.05-3.58,3.6-3.58h13.56c2.48.01,3.57,1.18,3.57,3.61,0,0,0,34.2,0,41.98,0,11.27-1.87,22.31-23.35,22.67-7.38.12-15.63.21-15.63.21,0,0-8.77-.12-16.16-.21-20.26-.24-22.7-11.89-22.7-22.67,0-7.78-.01-42.01-.01-42.01,0-2.4,1.08-3.57,3.56-3.57h13.47Z" fill="#0c0c0c" fill-rule="evenodd"/>
    <path d="M360.75,280.47c0,2.64-1.09,3.62-3.64,3.62,0,0-53.35.06-58.39,0-13.35-.18-21.12-5.52-21.12-16.8,0-9.45,4.08-14.49,14.93-18,7.04-2.28,45.29-14.39,47.04-14.92,1.39-.43,1.43-1.38,1.25-2.06-.18-.65-.74-.95-1.9-.95-1.28,0-52.33.02-52.33.02-2.4,0-3.54-1.11-3.54-3.59v-8.4c0-2.4,1.08-3.6,3.57-3.6h52.98c14.68,0,21,8.06,21,17.45,0,7.43-3.59,13.5-13.11,16.71-1.94.65-47.61,15.16-48.96,15.6-1.34.43-1.51,1.48-1.3,2.12.24.71.76,1.09,1.81,1.09h58.09c2.43,0,3.62,1.15,3.62,3.6v8.14h0Z" fill="#0c0c0c" fill-rule="evenodd"/>
  </g>
</svg>