<?xml version="1.0" encoding="UTF-8"?>
<svg id="Layer_1" data-name="Layer 1" xmlns="http://www.w3.org/2000/svg" width="500" height="500" viewBox="0 0 500 500">
  <rect width="500" height="500" fill="none"/>
  <g>
    <path d="m370.92,42.34c9.88-9.55,15.37-5.22,15.37,4.53v317.86c0,6.71-5.44,12.14-12.14,12.14h-98.74c-6.71,0-12.14-5.44-12.14-12.14v-200.49c-.11-11.81,2.43-15.84,10.02-23.46,7.59-7.59,97.64-98.44,97.64-98.44h0Z" fill-rule="evenodd"/>
    <path d="m129.19,42.56c-9.91-9.55-15.1-5.3-15.1,4.42l-.3,317.97c0,6.71,5.44,12.14,12.14,12.14h98.74c6.71,0,12.14-5.44,12.14-12.14v-200.52c.11-11.81-2.43-15.84-10.02-23.46-7.59-7.59-97.61-98.41-97.61-98.41h0Z" fill-rule="evenodd"/>
    <polygon points="113.69 461.43 113.69 401.68 133.28 401.68 133.28 461.43 113.69 461.43 113.69 461.43" fill-rule="evenodd"/>
    <path d="m175.2,418.57c-.33-2.07-1.41-3.31-2.81-4.06s-3.15-1.08-5.05-1.08c-4.31,0-6.24,1.24-6.24,3.39,0,8.97,34.36,3.39,34.36,25.14,0,13.85-11.54,20.59-27.96,20.59s-26.05-9.22-26.47-20.01h18.77c.41,2.15,1.57,3.73,3.23,4.72,1.57.99,3.64,1.49,5.55,1.49,4.88,0,8.14-1.57,8.14-4.39,0-9.05-34.36-2.81-34.36-25.64,0-12.69,10.96-19.1,25.89-19.1,16.59,0,24.15,8.47,25.55,18.93h-18.6Z" fill-rule="evenodd"/>
    <path d="m201.08,401.68h19.59v35.77c0,5.91,1.16,10.96,9.22,10.96,7.06,0,9.13-4.47,9.13-10.96v-35.77h19.59v33.78c0,19.18-8.89,27.54-28.7,27.54-18.52,0-28.78-7.06-28.78-27.62v-33.7h-.06Z" fill-rule="evenodd"/>
    <polygon points="266.08 461.43 266.08 447.24 294.72 415.62 267.23 415.62 267.23 401.68 318.79 401.68 318.79 415.53 289.73 447.49 319.94 447.49 319.94 461.43 266.08 461.43 266.08 461.43" fill-rule="evenodd"/>
    <path d="m328.78,401.07h19.59v35.77c0,5.91,1.16,10.96,9.22,10.96,7.06,0,9.13-4.47,9.13-10.96v-35.77h19.59v33.78c0,19.18-8.89,27.54-28.7,27.54-18.52,0-28.78-7.06-28.78-27.62v-33.7h-.06Z" fill-rule="evenodd"/>
  </g>
</svg>