<?xml version="1.0" encoding="UTF-8"?>
<svg id="Layer_1" data-name="Layer 1" xmlns="http://www.w3.org/2000/svg" width="500" height="500" viewBox="0 0 500 500">
  <rect width="500" height="500" fill="none"/>
  <g>
    <path d="m401.41,43.69c12.37-11.96,19.25-6.53,19.25,5.67v398.12c0,8.4-6.81,15.21-15.21,15.21h-123.71c-8.4,0-15.21-6.81-15.21-15.21v-251.12c-.14-14.79,3.04-19.84,12.55-29.38,9.51-9.51,122.33-123.29,122.33-123.29h0Z" fill-rule="evenodd"/>
    <path d="m98.62,43.97c-12.41-11.96-18.91-6.64-18.91,5.53l-.38,398.3c0,8.4,6.81,15.21,15.21,15.21h123.67c8.4,0,15.21-6.81,15.21-15.21v-251.19c.14-14.79-3.04-19.84-12.55-29.38-9.51-9.51-122.26-123.26-122.26-123.26h0Z" fill-rule="evenodd"/>
  </g>
</svg>