<?xml version="1.0" encoding="UTF-8"?>
<svg id="Layer_1" data-name="Layer 1" xmlns="http://www.w3.org/2000/svg" width="500" height="500" viewBox="0 0 500 500">
  <rect width="500" height="500" fill="none"/>
  <path d="m422.11,224.21c7.32.4,12.59,5.69,13.41,12.59.4,3.65.4,9.34.4,12.99,0,4.47,0,8.12-.4,11.79-1.22,8.54-7.32,13.41-13.41,13.41h-10.57c-5.69,0-12.19-4.87-13.41-13.41-.4-3.65-.4-7.32-.4-11.37s0-9.74.4-13.41c.8-6.92,6.5-12.19,13.81-12.59,1.62-.4,2.85-.4,4.87-.4,0,0,5.29.4,5.29.4Zm-4.07-23.58c7.72,0,15.04.4,21.13,1.22,17.06,2.02,30.88,15.44,33.72,32.1.4,2.85,1.22,9.34,1.22,15.84,0,6.92-.82,13.41-1.22,15.84-2.85,17.06-16.66,30.07-33.72,32.52-6.1.4-13.41,1.22-21.13,1.22h-2.45c-8.12,0-15.04-.8-21.53-1.22-17.06-2.45-30.48-15.44-33.32-32.52-.4-2.45-1.22-8.94-1.22-15.84,0-6.5.8-12.99,1.22-15.84,2.85-16.66,16.26-30.07,33.32-32.1,6.5-.8,13.41-1.22,21.13-1.22,0,0,2.85,0,2.85,0Zm-146.68,49.16c0-5.27.4-10.57,1.62-15.84,2.85-16.66,16.26-30.07,33.32-32.1,6.1-.8,13.41-1.22,21.13-1.22,8.54,0,16.26.4,22.76,1.22,2.45.4,4.07,2.45,4.07,4.87v14.64c0,2.85-2.02,4.87-4.47,4.87,0,0-7.72-.4-11.79-.4-4.87,0-8.94,0-13.41.4-7.32.4-12.59,5.69-13.41,12.59-.4,3.65-.82,7.32-.82,10.97v.4c0,3.65.4,7.32.82,10.97.82,6.92,5.69,12.19,13.41,13.01,4.07.4,8.94.82,13.41.82,4.07,0,11.79-.4,11.79-.4,2.45,0,4.47,2.02,4.47,4.87v14.64c0,2.45-1.62,4.47-4.07,4.87-6.5,0-14.21.4-22.76.4-7.72,0-15.04-.8-21.13-1.22-17.06-2.45-30.48-15.44-33.32-32.52-1.22-4.87-1.62-10.17-1.62-15.44v-.4h0Zm-10.97,23.98c2.85,0,4.87,2.45,4.87,4.87v14.64c0,2.85-2.02,4.87-4.87,4.87h-58.13c-10.57,0-19.11-8.54-19.11-19.11v-57.68c0-10.57,8.54-19.11,19.11-19.11h58.1c2.85,0,4.87,2.02,4.87,4.47v14.21c0,2.85-2.02,4.87-4.87,4.87h-35.77c-2.85,0-4.87,1.62-4.87,4.47v8.94l30.48-.4c2.43,0,4.87,2.45,4.87,4.87v12.19c0,2.85-2.45,4.87-4.87,4.87h-30.48v8.12c0,2.85,2.02,4.87,4.87,4.87h35.77l.02.02Zm-147.93,24.38c-8.54,0-15.84-5.69-18.29-13.41l-19.93-76.79v-1.22c0-2.45,2.02-4.47,4.87-4.47h29.67c2.45,0,4.47,1.62,4.87,3.65l15.44,64.22c0,.82.82,1.62,2.02,1.62.8,0,1.62-.8,1.62-1.62l15.86-64.22c.4-2.02,2.45-3.65,4.47-3.65h16.66c2.85,0,4.87,2.02,4.87,4.47v1.22l-19.11,75.19c-2.02,8.54-8.94,15.04-18.69,15.04h-24.38l.02-.02ZM30.76,202.25h28.85c2.85,0,4.87,2.02,4.87,4.47v86.55c0,2.85-2.02,4.87-4.87,4.87h-28.85c-2.45,0-4.87-2.02-4.87-4.87v-86.55c0-2.45,2.45-4.47,4.87-4.47Z" fill-rule="evenodd"/>
</svg>