<?xml version="1.0" encoding="UTF-8"?>
<svg id="Layer_1" xmlns="http://www.w3.org/2000/svg" width="500" height="500" viewBox="0 0 500 500">
  <rect width="500" height="500" fill="none"/>
  <g>
    <path d="M67.1,250v26.16h12.13l4.3-4.41,4.34-4.41v-43.48h-20.78v26.16Z"/>
    <path d="M108.47,224.29c-.11.26-2.45,11.76-5.19,25.52-2.78,13.76-5.12,25.34-5.23,25.67-.19.63.3.67,6.86.67,3.9,0,7.09-.07,7.09-.15,0-.19,7.23-35.99,7.83-38.73l.41-1.93h9.05c4.97,0,9.05-.15,9.05-.33,0-.3-1.67-8.72-2.04-10.35l-.19-.82h-13.76c-10.61,0-13.76.11-13.88.45Z"/>
    <path d="M139.07,224.18c0,.19,2.34,11.91,5.19,26.04s5.19,25.75,5.19,25.82,3.15.11,7.01.11h6.97l-5.27-26.04-5.23-26.08-6.94-.11c-4.23-.04-6.94.04-6.94.26Z"/>
    <path d="M176.17,250v26.16h13.36l-.07-26.04-.11-26.08-6.57-.11-6.6-.07v26.16Z"/>
    <path d="M192.13,229.6v5.75h48.6v-11.5h-48.6v5.75Z"/>
    <path d="M261.39,225.59c-.89,1-2.82,3.12-4.27,4.75l-2.67,2.97v33.69l4.53,4.6,4.53,4.56h4.3v-52.31h-2.37c-2.37,0-2.41,0-4.04,1.74Z"/>
    <path d="M270.55,224.33c-.07.26-.11,2.82-.07,5.64l.11,5.19h48.6v-11.13l-24.23-.11c-19.63-.07-24.26,0-24.41.41Z"/>
    <path d="M339.3,225.59c-.89,1-2.82,3.12-4.27,4.75l-2.67,2.97v33.69l4.53,4.6,4.53,4.56h22.48v-11.13h-13.58l-2.3-2.56-2.3-2.6v-19.77l2.08-2.37,2.08-2.37h14.02v-11.5h-22.96l-1.63,1.74Z"/>
    <path d="M366.64,224.33c-.07.26-.11,2.82-.07,5.64l.11,5.19,6.94.11,6.94.07,2.04,2.3,2.08,2.26v20.37l-2.3,2.37-2.26,2.37h-13.62v11.13h22.82l4.38-4.6,4.34-4.6v-33.8l-4.16-4.67-4.16-4.64h-11.43c-9.05,0-11.5.11-11.65.48Z"/>
    <path d="M416.61,228.45l-4.12,4.6v17.03l.04,16.99,4.27,4.53,4.3,4.56h22.93v-11.13h-13.58l-2.3-2.34-2.3-2.34v-20.63l1.93-2.11,1.89-2.08,7.09-.19,7.09-.19v-11.13l-11.57-.11-11.54-.07-4.12,4.6Z"/>
    <path d="M446.4,224.33c-.07.26-.11,2.82-.07,5.64l.11,5.19,7.09.19,7.09.19,1.89,2.08,1.93,2.11v20.7l-2.34,2.3-2.34,2.3h-13.5v11.13h22.93l4.3-4.53,4.3-4.56v-17.07l-.04-17.07-4.08-4.56-4.12-4.53h-11.46c-9.09,0-11.54.11-11.69.48Z"/>
    <path d="M192.13,250.19v5.56h45.26v-11.13h-45.26v5.56Z"/>
    <path d="M22.21,265.21c0,.15,2.04,2.63,4.56,5.56l4.53,5.38h33.2v-11.13h-21.15c-11.65,0-21.15.07-21.15.19Z"/>
    <path d="M192.13,270.59v5.56h48.6v-11.13h-48.6v5.56Z"/>
    <path d="M270.4,270.59v5.56h48.97v-11.13h-48.97v5.56Z"/>
  </g>
</svg>