<?xml version="1.0" encoding="utf-8"?>
<!-- Generator: Adobe Illustrator 27.6.1, SVG Export Plug-In . SVG Version: 6.00 Build 0)  -->
<svg version="1.1" id="Layer_1" xmlns="http://www.w3.org/2000/svg" xmlns:xlink="http://www.w3.org/1999/xlink" x="0px" y="0px"
	 width="500px" height="500px" viewBox="0 0 500 500" style="enable-background:new 0 0 500 500;" xml:space="preserve">
<style type="text/css">
	.st0{fill:none;}
	.st1{opacity:0.8;}
</style>
<rect class="st0" width="500" height="500"/>
<g>
	<g id="g4820" class="st1">
		<g>
			<path id="path4818_00000120524595924638630190000016841263215092212900_" d="M71.7,177.4c2.4-0.1,4.8-0.7,7-1.8
				c0.7-0.3,1.4-0.6,2-1.1c-1.7,0-4.4-0.1-5.4-0.1c-2.5-0.1-4.9,0.8-6.7,2.7c0,0.1,0.6,0.2,1.5,0.2
				C70.6,177.3,71.1,177.3,71.7,177.4"/>
			<path d="M71.7,177.7l0-0.7c2.3-0.1,4.7-0.7,6.8-1.8c0.3-0.1,0.6-0.3,0.9-0.4c-0.7,0-1.4,0-2.1,0c-0.9,0-1.6,0-2,0
				c-2.2-0.1-4.4,0.6-6,2.1c0.2,0,0.5,0,0.9,0c0.4,0,0.9,0,1.5,0L71.7,177.7c-0.7,0-1.2,0-1.6-0.1c-1.3,0-1.6-0.1-1.8-0.3l-0.1-0.1
				l0-0.3l0.1-0.1c1.8-1.9,4.3-2.9,7-2.8c0.4,0,1.2,0,2,0c1.1,0,2.4,0,3.4,0h1.1l-0.9,0.6c-0.6,0.4-1.3,0.8-2.1,1.1
				C76.6,177,74.2,177.7,71.7,177.7z"/>
		</g>
	</g>
	<g id="g4824" class="st1">
		<g>
			<path id="path4822_00000174580359409336751350000013118260294106632593_" d="M41.3,188.1c0,0,0.3-1.1,0.4-1.3
				c0.2-0.2,1.1-3,3.7-3.2c0,0,1.4-0.1,3.7-0.1c-0.9,2.3-3,3.9-5.4,4.2C42.8,187.9,42,188,41.3,188.1 M28,200.4
				c1.8-4.8,6-8.3,11-9.2c0.9-0.1,4-0.6,4-0.6c8.4-1.4,12.4-10.2,12.4-10.2c-2.8-0.1-5.7,0-8.5,0.3c-5.6,1-7.5,7.6-7.5,7.5
				c-4.7,1.1-4.6-3-3.8-4.2c0.7-1.2,3.5-6,21.8-10.2c0,0,9-2.7,28.2-1.8l-0.8,1.4c-4.2,6.5-12.1,9.5-19.6,7.4c0,0,0.1,4.9,12.2,6.6
				c0,0,11,2,29.4,16.8c0,0-8.8-17.5-23.9-22.1c0,0-1.9-0.4-1-1.6c5.9-5.2,13.4-8.3,21.2-8.9c0,0,40.4-3.9,62.9,26.9
				c-3.4-6.6-7.4-12.9-11.9-18.8c0,0,23.5,6.6,59.6,19.2c0,0,24.6,8.6,40.4,14.9c21.3,8.3,74.5,29,108.5,47.5
				c6,3.3,67.4,35.2,67.4,35.2c17,7.6,28.8,3,28.8,3c3.8-1.5,10.7-6.8,13.8-3.7c1.5,1.5,1.9,3.8,1,5.7c-0.9,3-5.3,7.1-10.6,9.5
				c-7.7,2.5-15.9,3.2-24,2c-9.4-1.6-18-6.2-24.5-13.2c-3.6-3.7-8.1-8-12.2-12.2c-3.6-3.9-8.4-6.5-13.6-7.3
				c-7.6-1.1-26.4-1.6-33.4-3.9c-4.7-1.6-10.4-4.7-18-15.9c-2.8-4.2-6.7-7.6-11.2-10c2.3,1.9,4.4,4.2,6,6.8
				c3.1,5.5,4.7,9.5,6.4,12.4c1.6,3,3.8,5.7,6.5,7.9c2.7,2.3,6.1,3.7,9.7,4c9,0.6,18,0.7,27,0.4c6.9-0.6,13.6,1.6,18.8,6.2
				c3.2,2.7,8.7,10.4,12.2,13.8c4.2,5,9.3,9.1,15,12.1c2.8,1.4,7.3,4.8,7.1,8.2c-3.6,3.5-8.1,4.5-18.7,1.7
				c4.1,4.2,10.3,5.7,15.9,3.8c-2.4,2.2-5.5,3.3-8.7,3.3c-10-0.6-19.9-12.9-25.4-17.4c-3.7-3.3-7.7-6.4-11.8-9.3
				c-10.8-7.4-35-5.3-35-5.3l-17.8,0.9c-34.6,2.6-49.2-28-53.1-34.4c-1.1-1.9-2.3-3.7-3.7-5.5c-1.8-2.3-11.3-14.5-20.9-18.6
				c0,0,9.4,8.1,8.9,13.4c0,0-3.9-1.8-14.5-0.3c-45.6,6.4-61.2-4.9-61.2-4.9c2.1-9.2-4.3-18.5-4.3-18.5c3.5,1.1,25.9,8.7,47.3,4.4
				c0,0-34.7,0.2-59-19.1c0,0,15.1,18.9,11.5,31.2c0,0-2.5,13.2-28.8,7.9c-2.8-0.6-6.1-1.5-45.6-12.4c-9.3-2.8-12.5,1.7-14.2,4.3
				c-0.1,3.9-4.7,8.5-7,9.9c-12.2-2.2-7.4-13.5-7.4-13.5c-7.7,10.9,0.4,15.8,2.9,16.1c-1.3,0.7-2.7,1.3-4.2,1.8c0,0-10-5.9-4.4-15.6
				c7.8-13.5,15.7-17.9,30.3-19.2c5.2-0.7,10.4-0.9,15.6-0.5c10.6,1.4,17.2,7.4,32.9,9c-33.4-9.9-33.6-29.2-33.7-29.6l0,0
				c-1.6,5.3-1.3,11.1,0.8,16.3c-0.4-0.2-7.8-5-10.6-6.7c-6.6-4.2-13.9-7.1-21.6-8.6c-4-0.5-5.9-5.3-5.9-5.3
				c-0.1-0.3-0.2-0.5-0.4-0.7c-5.5-9.5-11.1-9.6-11.1-9.6c2,3,3.1,6.5,3.2,10.1c1.6,11.7-11.7,15.3-11.7,15.3
				c-8.2,10.3-7.7,10.5-9.5,10.8c-2.1-0.2-4-0.8-5.8-1.8c-0.3-0.6-0.2-1.4,0.3-2c1.6-1.2,2.8-2.4,2.8-2.4c8.6-8.8,9.7-13.1,8.6-18.8
				c-2.2-11.5-10.4-10.1-10.4-10.1c-2.4,0.2-4.5,1.6-5.6,3.6c-1.3,2.1-4.2,8.6-4.2,8.6c-1.8,3.8-3.6,4.7-4.5,4.8
				c-0.5,0.1-0.9,0.1-1.4,0.1c-1.9-0.2-3.7-1.2-4.9-2.6c-0.1-0.1-0.2-0.3-0.3-0.4C27.2,204.8,26.9,202.4,28,200.4 M24.7,205.5
				c0.8,1.6,1.7,3.2,2.7,4.7c2,2.9,5.4,4.6,9,4.2c1.9-0.3,1.9-0.9,1.9-0.9c1.6,1.3,3.6,2.1,5.7,2.1c-0.9-1.8-1.6-3.8-2.2-5.7
				c-0.1-1.2,0-2.4,0.3-3.5c0.6-2.2,1.7-4.2,3.2-5.9c1.8-1.7,4.5-2.1,6.6-0.8c2,1.4,4.2,5.9,2.3,12.2c-0.1,0.4-2.2,5-4.5,5.7
				c-0.2,0.1-0.4,0.1-0.6,0.1c-1.6-0.3-3-0.8-4.4-1.6c0,0.7,0.1,1.4,0.3,2.1c0.2,0.9,0.6,2,0.9,2.8c0,0-0.6,1-0.9,1.6
				c-0.5,0.6-1,2.8,0.1,3.7c3,2,6.4,3.3,10,3.7c1.8,0.2,3.6-0.6,4.7-2.1c2-3.1,4.4-6,7-8.7c4.9-4.2,10.9-7,17.3-8.3
				c0.7-0.1,11.7-3.2,30.4,11.8c-5.4,0.4-11.8,1.7-16.6,2.6c-13.9,2.5-22.8,15.5-25.3,20.8c-3.6,6-1.7,13.8,4.2,17.4
				c0.8,0.5,1.8,0.9,2.8,1.3c8.6-1.3,15.9-6.9,19.4-14.9c1.2-3.5,4.9-5.3,8.4-4.2c4,1.3,39.3,13.6,47.2,15.7c0,0,23.7,6.2,32.6-4.7
				c14.2,4.6,27.5,6.9,62.4,2.4c3.6-0.5,7.2-0.7,10.9-0.6c7,0.6,13.5,4.1,17.9,9.7c9.2,14.6,20.9,43.7,61.4,40.2l18.3-1.6
				c11.2-0.7,20.2-1.1,29.5,3.7c4.9,2.3,9.3,5.4,13,9.3c9.3,8.9,17.9,18.4,29.3,13.2c4-1.9,8.6-9.1,8.6-9.1c-0.5-3.7-2.5-7-5.6-9.2
				c10.4,2.4,33.7,4,42.8-11.7c2-2.5,2.6-5.8,1.7-8.9c-2.5-5.5-9.3-3.7-9.3-3.7c-3.3,0.7-6.9,4.4-12.4,6c-7,2.1-14.4,1.9-21.3-0.6
				c-18.2-7.9-76.6-41.2-106.3-55.8c0,0-34.5-16-84.6-35.7c0.1,0-98.4-41.8-164.1-38.4c0,0-35,0.9-46,16.3c-1.1,1.2-1.4,2.9-0.8,4.4
				c0.1,0.4,0.1,0.8-0.2,1.1c-3.3,3-6.3,6.4-8.9,10c-1.5,1.9-1.6,4.6,0,6.5c0.5,0.4,1,0.9,1.4,1.4"/>
			<path d="M423.4,334.7c-7.8,0-14.3-6.3-21.1-12.9c-0.7-0.6-1.3-1.3-2-1.9c-3.7-3.9-8.1-7-12.9-9.3c-9.3-4.9-18.6-4.3-29.3-3.7
				l-18.3,1.6c-2.3,0.2-4.4,0.3-6.5,0.3c-31.4,0-43.7-21.1-52-35.4c-1.1-1.9-2.2-3.7-3.2-5.3c-4.2-5.4-10.7-8.9-17.6-9.5
				c-3.5-0.1-7.2,0.1-10.8,0.6c-33.3,4.3-47.2,2.6-62.3-2.3c-9.1,10.6-31.8,4.9-32.8,4.6c-5.8-1.5-26.2-8.5-38.5-12.7
				c-4.5-1.5-7.7-2.6-8.8-3c-3.3-1.1-6.8,0.7-8,4c-3.6,8.1-11,13.8-19.7,15.1l-0.1,0l-0.1,0c-1.1-0.4-2-0.8-2.8-1.3
				c-6.1-3.7-8.1-11.7-4.4-17.9c3-6.2,12.2-18.6,25.6-20.9c0.8-0.1,1.6-0.3,2.5-0.5c4.2-0.8,9-1.7,13.3-2.1
				c-15.6-12.2-25.6-11.9-29.3-11.2c-0.1,0-0.1,0-0.2,0c-6.3,1.3-12.2,4.1-17.1,8.2c-2.6,2.7-4.9,5.6-6.9,8.6
				c-1.1,1.6-3.1,2.5-5,2.2c-3.6-0.4-7-1.7-10.1-3.7c-0.5-0.4-0.8-1-0.9-1.7c-0.1-1,0.2-2.1,0.6-2.6c0.2-0.4,0.6-1.1,0.8-1.4
				c-0.1-0.3-0.2-0.7-0.3-1c-0.2-0.5-0.4-1.1-0.5-1.6c-0.2-0.8-0.3-1.5-0.3-2.2H44c-2,0-4-0.7-5.7-1.9c-0.3,0.3-0.8,0.5-2,0.7
				c-3.7,0.4-7.2-1.3-9.3-4.4c-1-1.5-2-3.1-2.7-4.8l0,0c-0.4-0.4-0.8-0.8-1.2-1.2c-1.7-2.1-1.7-5-0.1-7c2.6-3.6,5.6-7,8.9-10.1
				c0.2-0.2,0.2-0.4,0.1-0.7c-0.6-1.6-0.3-3.4,0.9-4.8c11-15.3,45.9-16.5,46.3-16.5c64.2-3.3,160.2,36.7,164.2,38.4
				c49.6,19.6,84.3,35.6,84.7,35.8c13.9,6.8,33.9,17.6,53.3,28.1c22.3,12.1,43.3,23.4,53,27.6c6.8,2.4,14.1,2.6,21,0.5
				c2.9-0.9,5.3-2.3,7.4-3.6c1.9-1.1,3.5-2.1,5-2.4c0.1,0,7.2-1.8,9.7,3.9c1,3.2,0.3,6.7-1.7,9.3c-8.4,14.7-29.4,14.7-41.6,12.2
				c2.5,2.2,4.1,5.2,4.5,8.4l0,0.1l-0.1,0.1c-0.2,0.3-4.7,7.3-8.8,9.2C427.7,334.3,425.5,334.7,423.4,334.7z M368.3,305.8
				c6.7,0,13,0.8,19.4,4.2c4.9,2.3,9.4,5.5,13.1,9.4c0.7,0.6,1.3,1.3,2,1.9c8.5,8.2,16.6,16,27,11.3c3.6-1.7,7.8-8,8.4-8.9
				c-0.5-3.5-2.4-6.7-5.4-8.8l-1.5-1.1l1.8,0.4c11.7,2.7,33.8,3.4,42.4-11.6c1.9-2.4,2.5-5.7,1.7-8.6c-2.3-5.1-8.9-3.5-8.9-3.5
				c-1.5,0.3-3,1.3-4.8,2.4c-2.1,1.3-4.6,2.8-7.6,3.7c-7.1,2.1-14.5,1.9-21.5-0.6c-9.7-4.2-30.8-15.6-53.1-27.7
				c-19.4-10.5-39.4-21.3-53.3-28.1c-0.3-0.2-34.9-16.1-84.3-35.6l0,0l-0.4-0.1c-4-1.7-99.8-41.7-163.9-38.4
				c-0.4,0-35,1.1-45.8,16.2c-1,1.2-1.3,2.7-0.8,4.1c0.2,0.5,0.1,1-0.3,1.4c-3.4,3.1-6.3,6.4-8.9,10c-1.4,1.8-1.4,4.3,0,6.1
				c0.5,0.4,1,0.9,1.4,1.4l-0.1,0c0.7,1.6,1.6,3.1,2.6,4.6c2,2.8,5.3,4.4,8.7,4.1c1.4-0.2,1.6-0.6,1.6-0.6l0-0.7l0.5,0.5
				c1.4,1.2,3.2,1.9,4.9,2c-0.8-1.7-1.4-3.5-1.9-5.3c-0.2-1.2-0.1-2.5,0.3-3.7c0.6-2.3,1.7-4.3,3.3-6.1c1.9-1.9,4.8-2.2,7.1-0.9
				c2.1,1.5,4.5,6,2.5,12.7c-0.1,0.4-2.2,5.2-4.7,5.9c-0.2,0.1-0.5,0.1-0.7,0.1c-1.4-0.2-2.8-0.7-4-1.3c0,0.4,0.1,0.9,0.3,1.4
				c0.1,0.5,0.3,1.1,0.5,1.6c0.1,0.4,0.3,0.8,0.4,1.2l0,0.1l-0.1,0.1c0,0-0.6,1-0.9,1.5c-0.3,0.3-0.6,1.2-0.5,2.1
				c0.1,0.5,0.2,0.9,0.6,1.2c3,2,6.3,3.2,9.8,3.6c1.7,0.2,3.4-0.5,4.3-1.9c2-3.1,4.3-6,7-8.7c5-4.2,11-7.1,17.4-8.4
				c0.1,0,0.1,0,0.2,0c3.8-0.7,14.3-1.1,30.6,11.9l0.7,0.6l-0.9,0.1c-4.5,0.3-9.6,1.3-14.1,2.1c-0.9,0.2-1.7,0.3-2.5,0.5
				c-13.1,2.3-22.1,14.5-25.1,20.6c-3.5,5.8-1.7,13.4,4.1,16.9c0.7,0.5,1.6,0.9,2.6,1.2c8.5-1.3,15.6-6.8,19.1-14.7
				c1.3-3.6,5.1-5.6,8.8-4.4c1.1,0.3,4.3,1.5,8.8,3c12.2,4.2,32.6,11.2,38.4,12.7c0.2,0.1,23.5,6,32.2-4.6l0.2-0.2l0.2,0.1
				c15.1,4.9,28.9,6.7,62.3,2.4c3.7-0.5,7.3-0.7,10.9-0.6c7.1,0.7,13.8,4.2,18.1,9.8c1,1.7,2.1,3.5,3.2,5.4
				c8.8,15.1,22,37.8,57.8,34.7l18.3-1.6C361.5,306,364.9,305.8,368.3,305.8z M44.4,215.4l0.5,0.3c1.3,0.8,2.8,1.3,4.3,1.6
				c0.1,0,0.3,0,0.5-0.1c2-0.6,4.1-4.9,4.3-5.4c1.9-6.2-0.4-10.6-2.2-11.9c-2-1.1-4.5-0.8-6.2,0.8c-1.4,1.7-2.5,3.6-3.1,5.8
				c-0.3,1.1-0.4,2.3-0.3,3.4c0.5,1.9,1.3,3.8,2.1,5.6l0.1,0.2V215.4z M423.7,331.5c-0.1,0-0.2,0-0.4,0c-7.9-0.4-15.6-7.9-21.2-13.4
				c-1.7-1.6-3.2-3.1-4.4-4.1c-3.6-3.2-7.5-6.3-11.8-9.2c-10.5-7.3-34.6-5.3-34.8-5.3l-17.8,0.9c-32.4,2.4-47.4-24.1-52.4-32.8
				c-0.4-0.7-0.7-1.3-1-1.7c-1-1.8-2.2-3.6-3.6-5.4c-2.4-3.1-10.3-12.9-18.6-17.5c2.7,2.7,7.6,8.1,7.3,12.1l0,0.5l-0.5-0.2
				c0,0-4-1.7-14.3-0.2c-45.2,6.4-61.3-4.9-61.4-5l-0.2-0.1l0.1-0.2c2-8.9-4.2-18.1-4.2-18.2l-0.6-0.8l1.6,0.5
				c19.3,6.1,33.7,6.1,43.2,4.7c-9.1-0.5-34.3-3.2-53.8-17.5c3.8,5.3,13,19.4,10,29.5c0,0.1-0.7,3.4-4.6,6.1
				c-3.6,2.5-10.8,4.8-24.6,2c-2.8-0.6-5.4-1.3-45.7-12.5c-9.3-2.7-12.3,1.8-13.7,4.1c-0.1,4-4.8,8.6-7.1,10.1l-0.1,0.1l-0.1,0
				c-3.7-0.7-6.3-2.2-7.6-4.7c-1.3-2.3-1.1-5-0.8-6.8c-1.9,3.5-2.3,6.6-1.2,9.1c1.3,2.9,4.1,4.2,5.2,4.3l1.2,0.1l-1,0.5
				c-1.4,0.7-2.8,1.3-4.2,1.8l-0.2,0.1l-0.1-0.1c-0.1-0.1-10.3-6.2-4.5-16.1c7.6-13.1,15.3-18,30.6-19.4c5.2-0.7,10.5-0.9,15.7-0.5
				c4.7,0.6,8.6,2.1,12.7,3.7c4.5,1.7,9.5,3.7,16.3,4.7c-23.9-8.2-28.9-21.6-29.9-26.9c-1,4.7-0.6,9.7,1.2,14.3l0.3,0.8l-0.8-0.4
				c-0.2-0.1-1.7-1.1-4.4-2.8c-2.3-1.4-4.8-3.1-6.2-3.9c-6.5-4.2-13.8-7.1-21.4-8.5c-4.1-0.5-6-5.3-6.1-5.5
				c-0.1-0.2-0.2-0.4-0.4-0.6c-4.2-7.2-8.4-8.9-10.1-9.3c1.8,2.9,2.7,6.2,2.8,9.6c1.6,11.3-10.5,15.3-11.9,15.7
				c-2.3,2.8-3.8,4.9-5,6.4c-3.1,4-3.2,4.2-4.7,4.5l0,0l0,0c-2.1-0.2-4.1-0.8-6-1.8l-0.1-0.1l-0.1-0.1c-0.4-0.8-0.2-1.7,0.4-2.4
				c1.6-1.2,2.8-2.4,2.8-2.4c8.6-8.7,9.6-12.9,8.5-18.5c-2.1-11-9.9-9.9-10-9.9c-2.3,0.2-4.3,1.5-5.4,3.5c-1.3,2.1-4.2,8.5-4.2,8.6
				c-1.9,4-3.8,4.9-4.8,5c-0.6,0.1-1,0.1-1.5,0.1c-2-0.2-3.9-1.2-5.1-2.8c-0.1-0.1-0.2-0.3-0.3-0.4c-1.5-1.8-1.9-4.5-0.8-6.6l0.1,0
				c1.9-4.9,6.1-8.4,11.3-9.4c1-0.1,3.9-0.6,4-0.6c7-1.2,10.9-7.7,11.9-9.5c-2.8-0.1-5.4,0-7.9,0.3c-4.6,0.8-6.7,5.7-7.2,7.2
				l-0.1,0.3l-0.2,0c-2.4,0.6-3.6-0.2-4.1-1c-0.8-1.2-0.5-3,0-3.8c2.6-4.1,10-7.6,22-10.4c0.1,0,9.2-2.7,28.3-1.9l0.6,0l-1.1,1.9
				c-4.2,6.5-12,9.5-19.4,7.7c0.5,1.2,2.5,4.5,11.8,5.8c0.1,0,10.7,2,28.2,15.7c-2.6-4.4-10.7-16.7-22.8-20.3
				c-0.1,0-1.1-0.2-1.4-0.9c-0.1-0.3-0.1-0.7,0.2-1.2c6-5.2,13.6-8.4,21.5-9.1c0.4,0,38-3.3,60.7,23.9c-2.9-5.3-6.3-10.4-10-15.1
				l-0.7-0.9l1,0.3c0.2,0.1,23.9,6.8,59.6,19.2c0.2,0.1,24.8,8.7,40.4,14.9l2.6,1c21.9,8.6,73.3,28.7,106,46.5
				c6,3.2,66.8,34.9,67.4,35.2c16.6,7.5,28.4,3.1,28.5,3c1-0.4,2.2-1,3.5-1.7c3.7-2,8.3-4.4,10.7-2c1.6,1.6,2,4,1.1,6.1
				c-1,3.2-5.5,7.3-10.8,9.7c-7.8,2.5-16.2,3.2-24.2,2c-9.4-1.6-18.2-6.3-24.7-13.3c-1.7-1.8-3.6-3.6-5.6-5.6
				c-2.2-2.2-4.4-4.4-6.6-6.6c-3.5-3.9-8.3-6.4-13.4-7.2c-2.6-0.4-6.6-0.7-10.8-1c-8.5-0.6-18.1-1.4-22.7-2.9
				c-4.7-1.6-10.5-4.7-18.1-16c-2.2-3.3-5-6.1-8.3-8.2c1.4,1.4,2.6,3,3.7,4.7c1.7,3,2.9,5.5,3.9,7.7c0.9,1.8,1.7,3.4,2.4,4.8
				c1.6,3,3.8,5.7,6.4,7.8c2.7,2.3,6,3.7,9.5,4c9.2,0.6,18.3,0.7,27,0.4c6.9-0.6,13.8,1.7,19,6.3c1.8,1.5,4.3,4.6,6.7,7.5
				c1.9,2.4,3.9,4.8,5.4,6.3c4.2,5,9.2,9.1,14.9,12.1c2.6,1.3,7.5,4.9,7.2,8.5l0,0.1l-0.1,0.1c-3.9,3.8-8.6,4.4-17.7,2.1
				c4,3.4,9.5,4.5,14.6,2.8l1.6-0.5l-1.2,1.1C429.9,330.3,426.9,331.5,423.7,331.5z M359,298.5c8.1,0,20.4,0.9,27.3,5.7
				c4.3,2.9,8.2,6,11.8,9.3c1.3,1,2.7,2.5,4.4,4.1c5.5,5.4,13.1,12.8,20.7,13.2c2.5,0.1,5-0.7,7.1-2.1c-5.2,1.1-10.8-0.5-14.6-4.4
				l-0.9-0.9l1.2,0.3c11,2.9,15,1.7,18.3-1.5c0.1-3-4-6.2-6.9-7.7c-5.8-3-10.9-7.2-15.1-12.2c-1.5-1.5-3.4-3.8-5.5-6.3
				c-2.4-2.9-4.9-6-6.6-7.4c-5.1-4.5-11.8-6.7-18.5-6.1c-8.7,0.3-17.8,0.2-27.1-0.4c-3.7-0.3-7.1-1.7-9.9-4.1
				c-2.7-2.2-4.9-4.9-6.6-8c-0.8-1.3-1.6-2.9-2.5-4.8c-1.1-2.2-2.3-4.7-3.9-7.6c-1.6-2.5-3.6-4.8-5.9-6.7l-2.5-2.1l2.9,1.5
				c4.6,2.3,8.5,5.8,11.3,10.1c7.5,11.1,13.2,14.2,17.8,15.8c4.6,1.5,14.1,2.2,22.6,2.9c4.2,0.3,8.2,0.6,10.8,1
				c5.3,0.8,10.2,3.4,13.8,7.4c2.1,2.2,4.4,4.4,6.6,6.6c2,2,3.9,3.8,5.6,5.6c6.4,6.9,15,11.5,24.3,13.1c7.9,1.1,16.2,0.4,23.8-2
				c5-2.2,9.4-6.2,10.4-9.3c0.8-1.8,0.4-3.9-0.9-5.4c-2.1-2.1-6.4,0.2-9.9,2.1c-1.3,0.7-2.5,1.3-3.5,1.7c-0.1,0-12.1,4.6-29.1-3.1
				c-0.6-0.3-61.5-31.9-67.5-35.2c-32.7-17.8-84-37.9-105.9-46.4l-2.6-1c-15.5-6.2-40.1-14.8-40.3-14.9
				c-31.5-10.9-53.7-17.4-58.6-18.9c4.3,5.6,8.1,11.7,11.3,18l-0.6,0.4c-22.1-30.3-62.2-26.8-62.6-26.8c-7.7,0.6-15.2,3.7-21,8.8
				c-0.1,0.1-0.1,0.3-0.1,0.4c0.1,0.3,0.7,0.5,0.9,0.5c15,4.5,24,22.1,24.1,22.2l0.7,1.5l-1.3-1c-18.2-14.6-29.2-16.7-29.3-16.7
				c-12.2-1.7-12.5-6.8-12.5-7l0-0.5l0.5,0.1c7.3,2,15-0.9,19.2-7.2l0.5-0.9c-18.5-0.8-27.4,1.8-27.5,1.9c-8.2,1.9-18.5,5.1-21.5,10
				c-0.4,0.7-0.6,2.1,0,3c0.6,0.8,1.7,1.1,3.2,0.7c0.6-1.8,2.8-6.7,7.7-7.6c2.7-0.3,5.6-0.4,8.6-0.3l0.5,0l-0.2,0.5
				c0,0.1-4.2,8.9-12.7,10.4c-0.1,0-3,0.5-4,0.6c-4.9,0.9-8.9,4.3-10.7,9l-0.3-0.1l0.3,0.1c-0.9,1.9-0.7,4.2,0.7,5.9
				c0.1,0.1,0.2,0.3,0.3,0.4c1.2,1.4,2.8,2.3,4.7,2.5c0.4,0,0.8,0,1.3-0.1c0.7-0.1,2.5-0.8,4.3-4.6c0.1-0.3,2.9-6.5,4.3-8.7
				c1.2-2.2,3.4-3.6,5.9-3.8c0.1,0,8.6-1.3,10.8,10.4c1.1,5.8,0.1,10.1-8.7,19.1c0,0-1.3,1.2-2.8,2.4c-0.3,0.4-0.4,0.9-0.2,1.4
				c1.8,0.9,3.6,1.5,5.5,1.7c1.1-0.2,1.2-0.3,4.2-4.2c1.2-1.5,2.8-3.6,5.1-6.5l0.1-0.1l0.1,0c0.1,0,13-3.7,11.5-15
				c-0.1-3.6-1.2-7-3.1-10l-0.4-0.6l0.7,0c0.2,0,5.8,0.2,11.4,9.8c0.2,0.2,0.3,0.5,0.4,0.8c0,0.1,1.9,4.6,5.6,5.1
				c7.8,1.5,15.1,4.3,21.7,8.6c1.4,0.9,4,2.5,6.2,3.9c1.3,0.8,2.6,1.7,3.5,2.2c-1.7-5-1.9-10.5-0.4-15.5l0.4-1.3l0.3,1.3
				c0,0,0,0.1,0,0.2c0.3,3.3,3.1,20.2,33.4,29.2l-0.1,0.7c-8.9-0.9-15-3.2-20.4-5.3c-4.1-1.6-8-3.1-12.6-3.7
				c-5.1-0.4-10.4-0.2-15.5,0.5c-15,1.4-22.6,6.2-30,19c-5.1,8.8,2.9,14.3,4.2,15.1c1.1-0.4,2.1-0.8,3.1-1.3
				c-1.5-0.5-3.7-1.9-4.8-4.5c-1-2.3-1.4-6.2,2.6-11.9l1.9-2.8l-1.3,3.1c0,0-2,4.9,0,8.7c1.2,2.2,3.5,3.6,7,4.3
				c2.4-1.6,6.6-5.9,6.7-9.5l0-0.1l0.1-0.1c1.4-2.2,4.7-7.4,14.6-4.5c40.3,11.2,42.8,11.9,45.6,12.4c13.5,2.7,20.5,0.4,24-1.9
				c3.7-2.5,4.4-5.7,4.4-5.7c3.5-12-11.3-30.7-11.4-30.9l-2-2.4l2.5,2c24,19,58.5,19,58.8,19l0.1,0.7c-9.3,1.9-24.9,2.7-46.6-4.1
				c1.5,2.5,5.5,10.1,3.9,17.7c1.9,1.2,18.4,10.7,60.7,4.7c8.7-1.2,12.9-0.3,14.2,0.1c-0.1-5.1-8.7-12.6-8.8-12.7l-1.7-1.5l2.1,0.9
				c9.2,3.9,18.4,15.3,21,18.7c1.4,1.9,2.6,3.7,3.7,5.5c0.3,0.5,0.6,1.1,1,1.8c4.9,8.6,19.8,34.9,51.7,32.5l17.8-0.9
				C351.5,298.8,354.6,298.5,359,298.5z M41.3,188.4l0-0.3l-0.3-0.1l0.5-1.5c0,0,0-0.1,0.1-0.2c0.4-0.7,1.5-2.9,3.8-3.2
				c0,0,1.5-0.1,3.7-0.1h0.5l-0.2,0.5c-0.9,2.4-3.1,4.1-5.7,4.5C42.9,188.2,42.1,188.4,41.3,188.4z M42,186.9l-0.2,0.8
				c0.6-0.1,1.2-0.2,1.7-0.3c2.2-0.3,4-1.7,4.9-3.5c-1.9,0-3.1,0.1-3.1,0.1c-1.9,0.2-2.9,2.1-3.2,2.8C42.1,186.8,42,186.9,42,186.9z
				"/>
		</g>
	</g>
</g>
</svg>
