<?xml version="1.0" encoding="UTF-8"?>
<svg id="Layer_1" data-name="Layer 1" xmlns="http://www.w3.org/2000/svg" width="500" height="500" version="1.1" viewBox="0 0 500 500">
  <defs>
    <style>
      .cls-1 {
        fill: none;
      }

      .cls-1, .cls-2 {
        stroke-width: 0px;
      }

      .cls-2 {
        fill: #231f20;
      }
    </style>
  </defs>
  <rect class="cls-1" width="500" height="500"/>
  <g>
    <path class="cls-2" d="M128.8,167.5c1.8,0,3.8-.7,5.2-1.3,1-.5,1.6-.8,1.5-.8-1.2,0-3.3,0-4,0-3.3,0-5,1.9-5,2,0,0,.4.2,1.1.2.3,0,.7,0,1.1,0"/>
    <path class="cls-2" d="M93.7,195.8c.6,1.1,1.2,2.6,2,3.5,1.1,1.4,3.5,3.7,6.7,3.2,1.4-.2,1.4-.7,1.4-.7,1.7,1.6,4.3,1.6,4.3,1.6-.3-1-1.5-3-1.6-4.3-.2-1.4.2-2.6.2-2.6.5-1.5,1.4-3.4,2.4-4.4.9-.9,3.2-1.9,5-.6,1.5,1,3.2,4.4,1.7,9.2,0,.3-1.7,3.7-3.4,4.2,0,0-.2,0-.5,0-1.1,0-3.3-1.2-3.3-1.2,0,0,0,.3.2,1.6.2.7.5,1.4.7,2.1,0,0-.4.7-.7,1.2-.4.5-.8,2.1,0,2.8,0,0,3.8,2.6,7.5,2.8,2.5.1,3.5-1.5,3.5-1.5,1.9-2.5,3.3-4.7,5.2-6.5,5.4-4.9,12.9-6.2,12.9-6.2.5,0,8.7-2.4,22.7,8.8-4,.3-8.8,1.3-12.4,1.9-10.3,1.9-17,11.5-18.9,15.5-5,10.3,5.2,13.9,5.2,13.9,0,0,9.8-.8,14.5-11.1,0,0,1.7-4.6,6.3-3.1,3,1,29.3,10.2,35.3,11.7,0,0,17.6,4.6,24.3-3.5,10.6,3.5,20.5,5.1,46.6,1.8,4.6-.6,8.1-.4,8.1-.4,6.1.4,11.7,4.5,13.3,7.2,6.9,10.9,15.6,32.6,45.8,30l13.7-1.2c8.3-.5,15.1-.9,22,2.8,3,1.6,4.7,2.1,9.7,7,7,6.6,13.4,13.8,21.9,9.9,3-1.4,6.4-6.8,6.4-6.8-.4-2.4-1.4-4.8-4.1-6.8,7.7,1.8,25.2,3,31.9-8.8,1.7-2.8,1.9-5.2,1.3-6.7-1.9-4.1-7-2.8-7-2.8-2.4.5-5.2,3.3-9.3,4.5-8.8,2.6-15.9-.4-15.9-.4-13.6-5.9-57.2-30.7-79.4-41.6,0,0-25.8-11.9-63.1-26.7,0,0-73.5-31.2-122.5-28.7,0,0-26.1.7-34.4,12.2,0,0-1.4,1.6-.6,3.3,0,0,.2.5-.2.8,0,0-4.4,3.9-6.6,7.5-.8,1.2-1.5,3.3,0,4.8,0,0,.7.6,1,1.1M96.2,191.9c2.6-5.9,7.6-6.8,8.2-6.9.7,0,3-.4,3-.4,6.3-1.1,9.3-7.6,9.3-7.6-4.2,0-6.3.2-6.3.2-4.2.7-5.6,5.6-5.6,5.6-3.5.8-3.5-2.2-2.8-3.1.5-.9,2.6-4.5,16.2-7.6,0,0,6.7-2,21-1.4l-.6,1.1c-1.3,2.4-6.3,7.3-14.6,5.5,0,0,.1,3.7,9.1,5,0,0,8.2,1.5,22,12.5,0,0-6.6-13.1-17.8-16.5,0,0-1.4-.3-.7-1.2,0,0,6.9-6.4,15.8-6.7,0,0,30.2-2.9,46.9,20.1,0,0-5-9.8-8.9-14,0,0,17.5,4.9,44.5,14.3,0,0,18.4,6.5,30.1,11.1,15.9,6.2,55.6,21.6,81,35.4,4.5,2.4,50.3,26.2,50.3,26.2,12.7,5.7,21.5,2.3,21.5,2.3,2.9-1.1,8-5.1,10.3-2.8,1.2,1.2,1.3,2.7.8,4.3-.7,2.3-4,5.3-7.9,7.1-4.2,1.8-12.9,2.3-17.9,1.5,0,0-9.8-1-18.3-9.9-2.7-2.8-6-6-9.1-9.1-1.3-1.4-4.7-4.7-10.2-5.4-5.7-.8-19.7-1.2-25-2.9-3.5-1.2-7.8-3.6-13.4-11.9-2.7-4-4.7-5.1-8.4-7.4,0,0,2.8,2.3,4.5,5.1,2.3,4.1,3.5,7.1,4.8,9.3,1.2,2.2,2.7,4.1,4.8,5.9,2.6,2.2,4.3,2.5,7.2,3,2.8.5,12.2.4,20.2.3,7.9-.1,11.4,2.4,14,4.6,2.4,2,6.5,7.8,9.1,10.3,3,3,5.2,6.1,11.2,9.1,2.1,1,5.5,3.6,5.3,6.1-2.7,2.6-6,3.4-14,1.3.5.6,4.7,4.9,11.9,2.9-2.2,1.8-4.3,2.5-6.5,2.4-7.5-.4-14.8-9.6-18.9-13-3.2-2.6-3.5-3.2-8.8-6.9-8.1-5.5-26.1-4-26.1-4l-13.3.7c-25.9,1.9-36.7-20.9-39.6-25.7-1-1.6-1.9-3-2.7-4.1-1.3-1.7-8.4-10.9-15.6-13.9,0,0,7,6.1,6.6,10,0,0-2.9-1.3-10.9-.2-34,4.8-45.6-3.7-45.6-3.7,1.6-6.9-3.2-13.8-3.2-13.8,2.6.8,19.4,6.5,35.3,3.2,0,0-25.9.2-44-14.2,0,0,11.3,14.1,8.6,23.3,0,0-1.9,9.8-21.6,5.9-2.1-.4-4.6-1.1-34-9.3-6.9-2-9.3,1.2-10.6,3.2,0,2.9-3.5,6.3-5.2,7.4-9.1-1.6-5.5-10.1-5.5-10.1-5.7,8.2.2,11.8,2.1,12-1.1.6-2.2,1-3.1,1.3,0,0-7.5-4.4-3.3-11.7,5.8-10.1,11.7-13.4,22.6-14.3,4.7-.5,8.7-.8,11.7-.4,7.9,1.1,12.8,5.5,24.6,6.7-25-7.4-25-21.8-25.1-22.1,0,0,0,0,0,0-1.4,4.8-.6,8.7.6,12.2-.4-.1-5.8-3.7-7.9-5-9-5.5-16.1-6.4-16.1-6.4-2.9-.4-4.4-4-4.4-4,0-.2-.2-.4-.3-.5-4.1-7.1-8.3-7.2-8.3-7.2,2.4,3.1,2.4,7.5,2.4,7.5,1.2,8.8-8.7,11.5-8.7,11.5-6.1,7.7-5.8,7.9-7.1,8.1-1.4.2-4.4-1.3-4.4-1.3-.5-.7.2-1.5.2-1.5,1.2-.9,2.1-1.8,2.1-1.8,6.5-6.6,7.2-9.8,6.4-14-1.6-8.6-7.8-7.5-7.8-7.5-2.9.1-4.2,2.7-4.2,2.7-1,1.6-3.2,6.4-3.2,6.4-1.3,2.9-2.7,3.5-3.4,3.6-.3,0-.8,0-1,0-2.1,0-3.6-2-3.6-2-.1,0-.2-.2-.3-.3-1.9-2-.6-4.7-.6-4.7M106.1,182.8s.2-.8.3-1c.1-.2.9-2.2,2.7-2.4,0,0,1.1,0,2.7,0,0,0-.8,2.6-4,3.2,0,0-1.2.3-1.7.3"/>
    <path class="cls-2" d="M100,328c2.3-2.4,3.5-5.4,3.5-10.2v-15.2h-11.6v14.2c0,4.1-.9,6.9-3,9-2.7,2.6-7.1,3.7-13.7,3.7h-21.5v4.2h23.4c11.1,0,18.9-1.5,23-5.7"/>
    <path class="cls-2" d="M358.9,327l5.7,6.6h13.1l-27.1-31.1h-11.5l-27.1,31.1h6.7l5.7-6.6h34.4ZM341.6,307.1l13.8,15.9h-27.5l13.7-15.9Z"/>
    <path class="cls-2" d="M161.4,333.7h13l-27.1-31.1h-11.5l-27.1,31.1h6.7l5.7-6.6h34.5l5.7,6.6ZM124.7,323l13.7-15.9,13.8,15.9h-27.5Z"/>
    <path class="cls-2" d="M439.1,320.3c3-1.6,4.3-4.6,4.3-7.7s-1.9-6.8-5.2-8.3c-3-1.3-6.8-1.8-14.2-1.8h-36v31.1h11.6v-10.8h15.2l17.4,10.8h14.2l-18.2-11c4.3,0,8-.8,10.9-2.3M399.5,319v-12.5h22.9c4.4,0,6.3.4,7.6,1.4,1.3,1,1.7,2.4,1.7,4.6v.6c0,2-.4,3.6-2,4.7-1.5,1-3.5,1.2-7.2,1.2h-23Z"/>
    <path class="cls-2" d="M249.3,302.6v15.5c0,4,.4,7.2,2.4,9.8,3.3,4.4,9.4,6.8,26.2,6.8h.2c16.9,0,22.9-2.5,26.2-6.8,2-2.6,2.5-5.8,2.5-9.8v-15.5h-11.6v15.1c0,3.9-.5,6.4-2,8.5-2.5,3.5-6.5,4.8-14.6,4.8h-1c-7.8,0-12.1-1.3-14.7-4.8-1.5-2.1-2-4.5-2-8.5v-15.1h-11.6Z"/>
    <path class="cls-2" d="M206.3,306.7h29v-4.1h-32.6c-7.9,0-12.6.9-16.9,3.2-4,2.2-7.1,6.3-7.1,12.2s2.9,10.9,9.1,13.4c3.7,1.5,8.7,2.3,15,2.3h33.6v-14.3h-11.6v10.1h-18.5c-6,0-9.5-.9-12.1-2.8-2.5-1.9-3.7-4.7-3.7-8.6s1.2-6.5,3.5-8.4c2.6-2.1,6-3.1,12.2-3.1"/>
  </g>
</svg>