<?xml version="1.0" encoding="UTF-8"?>
<svg id="Layer_1" data-name="Layer 1" xmlns="http://www.w3.org/2000/svg" width="500" height="500" viewBox="0 0 500 500">
  <rect width="500" height="500" fill="none"/>
  <g>
    <path d="m103.02,161.32h36.49v94.71c0,16.31-7.06,50.42-57.6,50.42s-56.02-31.79-56.02-49.69v-17.44h35.27v17.1c0,10.46,6.96,20.17,20.36,20.17s21.51-7.39,21.51-19.84v-95.43h-.01Zm264.15,177.36v-133.87h33.71v15.21c5.32-14.57,19.66-17.88,30.15-17.94,16.84,0,43.09,11.63,43.09,52.8,0,31.81-15.63,55-42.7,55.08-13.66.04-23.94-4.8-30.15-12.83v41.54h-34.1Zm33.29-82.65c-.38,19.79,3.93,30.2,20.4,30.2s18.84-17.79,18.84-31.37-3.18-26.76-20.42-26.76c-10.53,0-18.38,8.11-18.82,27.92"/>
    <path id="A" d="m195.92,200.9c28.58,0,53.74,10.89,53.74,60.85h-67.86c0,15.95,6.68,22.54,18.44,22.54s15.65-9.27,15.65-9.27h33.34c0,14.35-19.98,33.7-50.2,33.4-34.47,0-51.37-25.28-51.37-51.23s14.98-56.32,48.25-56.32m20.41,40.74c0-9.69-5.49-19.02-18.04-19.02s-16.47,8.6-16.47,19.02h34.52Z"/>
    <path id="A-2" d="m304.63,200.9c28.58,0,53.74,10.89,53.74,60.85h-67.86c0,15.95,6.68,22.54,18.44,22.54s15.65-9.27,15.65-9.27h33.34c0,14.35-19.98,33.7-50.2,33.4-34.47,0-51.37-25.28-51.37-51.23s14.98-56.32,48.25-56.32m20.41,40.74c0-9.69-5.49-19.02-18.04-19.02s-16.47,8.6-16.47,19.02h34.52Z"/>
  </g>
</svg>