<?xml version="1.0" encoding="UTF-8"?>
<svg id="Layer_1" data-name="Layer 1" xmlns="http://www.w3.org/2000/svg" width="500" height="500" viewBox="0 0 500 500">
  <rect width="500" height="500" fill="none"/>
  <g>
    <g>
      <polygon points="248.69 305.11 165.23 294.23 169.44 281.03 88 259.15 104.56 249.69 22.21 225.37 22.67 221.07 191.12 208.33 191.12 197.13 250.06 194.7 250.23 199.09 195.51 201.35 195.51 212.41 34.95 224.54 115.69 248.39 99.45 257.68 175.02 277.97 171.01 290.55 249.26 300.76 248.69 305.11"/>
      <polygon points="251.31 305.11 250.74 300.76 328.98 290.55 324.98 277.97 400.56 257.68 384.31 248.39 465.05 224.54 304.49 212.41 304.49 201.35 249.77 199.09 249.94 194.7 308.88 197.13 308.88 208.33 477.33 221.07 477.79 225.37 395.44 249.69 412 259.15 330.56 281.03 334.77 294.23 251.31 305.11"/>
      <polygon points="250.15 305.3 167.84 294.57 168.4 290.21 250.15 300.87 331.58 290.21 332.16 294.57 250.15 305.3"/>
    </g>
    <g>
      <rect x="233.34" y="279.21" width="3.52" height="16.3"/>
      <rect x="278.07" y="279.21" width="3.52" height="14.72"/>
      <rect x="248.25" y="279.21" width="3.52" height="17.86"/>
      <rect x="292.98" y="279.21" width="3.52" height="12.74"/>
      <rect x="263.16" y="279.21" width="3.52" height="16.69"/>
      <rect x="307.89" y="279.21" width="3.52" height="10.84"/>
      <rect x="188.59" y="279.21" width="3.52" height="10.47"/>
      <rect x="203.5" y="279.21" width="3.52" height="12.52"/>
      <rect x="218.41" y="279.21" width="3.52" height="14.57"/>
    </g>
    <rect x="134.59" y="253.58" width="230.83" height="2.64"/>
    <rect x="134.59" y="258.26" width="230.83" height="2.64"/>
    <g>
      <path d="m175.54,247.61c0,2.48-1.87,3.29-6.09,3.29h-21.71c-3.36-.01-5.08-.66-5.08-2.64v-6.59h9.48v2.75c0,1.01,1.4,1.38,2.75,1.43,1.21.04,7.47.07,9.12,0,.91-.03,1.74-.33,1.74-2.14,0-4.08.13-11.22.13-11.22h9.67v15.13h0Z"/>
      <path d="m211.32,250.84h-31.07v-18.13h30.74v4.46h-21.1v2.53h14.47v4.4h-14.47v1.54h21.43v5.2h0Z"/>
      <path d="m321.39,250.84h-31.07v-18.13h30.74v4.46h-21.1v2.53h14.47v4.4h-14.47v1.54h21.43v5.2h0Z"/>
      <path d="m247.28,250.94h-8.89s-11.37-10.41-11.37-10.1v10.1h-9.32v-18.13h8.38s12.32,10.19,12.32,9.87v-9.87h8.89v18.13h-.01Z"/>
      <path d="m357.34,250.94h-8.89s-11.37-10.41-11.37-10.1v10.1h-9.33v-18.13h8.38s12.32,10.19,12.32,9.87v-9.87h8.89v18.13Z"/>
      <path d="m279.63,250.79h-26.01s.07-3.78.07-4.72h18.9c2.48,0,2.19-2.36.11-2.36-1.15,0-13.95-.11-13.95-.11-6.48,0-6.27-10.92.02-10.92h25.88c0,1.28.05,3.95.05,4.94l-9.64.13h-9.73c-1.81,0-2.14,2.78,0,2.78s14.66-.05,14.66-.05c6.65,0,5.27,10.33-.37,10.33h.02Z"/>
    </g>
    <g>
      <rect x="248.25" y="202.31" width="3.52" height="15.08"/>
      <rect x="206.5" y="204.88" width="3.52" height="12.52"/>
      <rect x="220.41" y="203.56" width="3.52" height="13.85"/>
      <rect x="234.32" y="203.56" width="3.52" height="13.85"/>
      <rect x="289.99" y="204.44" width="3.52" height="12.97"/>
      <rect x="276.07" y="204.22" width="3.52" height="13.18"/>
      <rect x="262.16" y="203.78" width="3.52" height="13.62"/>
    </g>
  </g>
</svg>