<?xml version="1.0" encoding="UTF-8"?>
<svg id="Layer_1" data-name="Layer 1" xmlns="http://www.w3.org/2000/svg" width="500" height="500" viewBox="0 0 500 500">
  <rect width="500" height="500" fill="none"/>
  <path d="m23,265.32v58.27h133.11v-66.57h25.96c16.56,0,44.18,2.76,69.32,8.29,29.28,6.35,55.23,16.84,55.23,31.76,0,12.42-19.33,26.51-19.89,26.51h190.27s-4.7-20.99-14.64-34.79c-6.35-9.11-14.36-17.12-26.51-23.47-10.49-5.53-24.03-9.94-42.53-12.98v-3.04c8.56,0,31.48-8.28,51.36-21.53,26.79-17.95,31.76-51.35,31.76-51.35h-188.34s15.75,12.97,15.75,24.84c0,24.85-88.91,43.63-121.23,43.63h-26.51v-68.48H23v88.91h0Z"/>
</svg>