<?xml version="1.0" encoding="UTF-8"?>
<svg id="Layer_1" data-name="Layer 1" xmlns="http://www.w3.org/2000/svg" width="500" height="500" viewBox="0 0 500 500">
  <rect width="500" height="500" fill="none"/>
  <path d="m23,224.56v58.27h133.11v-66.57h25.96c16.56,0,44.18,2.76,69.32,8.29,29.28,6.35,55.23,16.84,55.23,31.76,0,12.42-19.33,26.51-19.89,26.51h190.27s-4.7-20.99-14.64-34.79c-6.35-9.11-14.36-17.12-26.51-23.47-10.49-5.53-24.03-9.94-42.53-12.98v-3.04c8.56,0,31.48-8.28,51.36-21.53,26.79-17.95,31.76-51.35,31.76-51.35h-188.34s15.75,12.97,15.75,24.84c0,24.85-88.91,43.63-121.23,43.63h-26.51v-68.48H23v88.91h0Z"/>
  <polygon points="456.5 291.94 456.5 306.16 476.48 306.16 476.48 291.94 456.5 291.94"/>
  <polygon points="24.14 335.39 24.14 293.76 46.72 293.76 46.72 316.21 66.69 293.76 93.18 293.76 68 319.86 78.05 335.39 95.92 362.93 68.78 362.93 52.07 335.39 46.73 341 46.73 362.93 24.15 362.93 24.15 335.39 24.14 335.39"/>
  <polygon points="153.22 335.39 145.65 312.67 165.09 312.67 170.71 335.39 172.79 343.74 175.01 335.39 180.76 312.67 197.72 312.67 203.33 335.39 205.42 343.74 207.51 335.39 213.38 312.67 232.3 312.67 224.99 335.39 216.25 362.92 196.81 362.92 189.49 335.39 188.97 333.43 188.46 335.39 181.79 362.92 162.22 362.92 153.22 335.39"/>
  <path d="m287.77,335.39c-1.43-1.96-2.22-4.43-2.22-7.57,0-12.91,13.31-16.57,23.88-16.57s23.75,2.48,24.92,15.79h-18.14c-.26-1.69-.91-2.74-1.96-3.65s-2.48-1.31-4.05-1.31c-3.39,0-5.61,1.17-5.61,3.66,0,4.96,15.79,4.05,25.06,9.65,3.91,2.34,6.65,5.88,6.65,11.48,0,10.44-8.62,17.48-27.02,17.48-11.48,0-24.27-3.52-25.32-17.09h19.05c0,2.08.78,3.65,2.08,4.7,1.31.91,3,1.43,4.96,1.43,3,0,6.26-.91,6.26-4.44,0-6.78-21.66-3.39-28.57-13.57h0Z"/>
  <polygon points="396.74 335.39 396.74 293.76 416.71 293.76 416.71 327.95 429.49 312.68 452.86 312.68 434.2 332.12 436.42 335.39 455.34 362.93 431.32 362.93 420.49 345.05 416.7 348.83 416.7 362.93 396.74 362.93 396.74 335.39 396.74 335.39"/>
  <polygon points="456.5 312.68 456.5 335.39 456.5 362.93 476.48 362.93 476.48 335.39 476.48 312.68 456.5 312.68"/>
  <path d="m147.86,355.61v-23.62c0-12-1.44-20.75-25.32-20.75-19.84,0-27.41,6.14-27.41,16.84h19.19c.52-4.31,4.18-4.83,7.05-4.83,2.09,0,6.53.4,6.53,4.05,0,6.26-15.66,3.79-26.36,8.09-5.35,2.22-9.53,6.14-9.53,13.83,0,10.44,8.48,15.13,18.01,15.13,7.44,0,13.31-1.43,18.93-6.79l.91,5.35h20.75v-.91c-2.6-2.08-2.74-3.51-2.74-6.39Zm-28.84-2.61c-3.91,0-6.26-1.69-6.26-4.17,0-6.53,8.62-4.96,15.14-8.09.52,6.79-1.83,12.27-8.88,12.27Z"/>
  <path d="m282.14,355.61v-23.62c0-12-1.43-20.75-25.19-20.75-19.83,0-27.53,6.14-27.53,16.84h19.31c.4-4.31,4.18-4.83,6.92-4.83,2.23,0,6.53.4,6.53,4.05,0,6.26-15.65,3.79-26.23,8.09h0c-5.48,2.22-9.54,6.14-9.54,13.83,0,10.44,8.49,15.13,17.88,15.13,7.57,0,13.32-1.43,18.93-6.79l1.05,5.35h20.62v-.91c-2.61-2.08-2.74-3.51-2.74-6.39Zm-28.7-2.61c-4.06,0-6.4-1.69-6.4-4.17,0-6.53,8.61-4.96,15.13-8.09h0c.52,6.79-1.83,12.27-8.74,12.27Z"/>
  <path d="m392.81,355.61v-23.62c0-12-1.43-20.75-25.18-20.75-19.96,0-27.53,6.14-27.53,16.84h19.19c.51-4.31,4.3-4.83,7.05-4.83,2.08,0,6.53.4,6.53,4.05,0,6.26-15.65,3.79-26.23,8.09h0c-5.49,2.22-9.66,6.14-9.66,13.83,0,10.44,8.48,15.13,18.01,15.13,7.57,0,13.31-1.43,18.93-6.79l.91,5.35h20.75v-.91c-2.6-2.08-2.74-3.51-2.74-6.39Zm-28.83-2.61c-3.92,0-6.26-1.69-6.26-4.17,0-6.53,8.61-4.96,15.13-8.09.52,6.79-1.82,12.27-8.87,12.27Z"/>
</svg>