<?xml version="1.0" encoding="UTF-8"?>
<svg id="Layer_1" data-name="Layer 1" xmlns="http://www.w3.org/2000/svg" width="500" height="500" viewBox="0 0 500 500">
  <rect width="500" height="500" fill="none"/>
  <path d="m51.2,208.72c-20.15,12.29-22.12,13.76-24.57,18.18l-1.47,2.46v33.42c0,32.93,0,33.42.98,34.89.98.98,1.97,1.97,2.95,2.46,1.97.49,2.46.49,27.03.49,20.15,0,25.07,0,26.54-.49.98-.49,13.27-7.37,27.52-15.73l25.56-15.24,4.42,3.93c2.46,1.97,9.34,9.34,15.73,15.73,6.39,6.39,12.29,11.8,12.78,12.29,1.47.49,48.66.49,49.64,0,.49,0,.49-.49.98-.98,0,0-11.3-11.8-25.07-25.56-17.2-17.2-25.07-25.07-24.57-25.56.49-.98,68.32-41.28,68.81-41.28s.49,8.36.98,43.74c0,41.78,0,43.74.98,45.22.49.98,1.47,1.97,2.46,2.46s2.46.98,3.44.98h32.93c35.88,0,39.32,0,42.27-1.47.98-.49,24.57-15.73,52.59-33.91,28.51-17.69,52.1-32.93,52.1-32.93.49,0,.98,3.93.98,35.39l.49,35.39h.98c1.47,0,40.79-23.59,43.25-26.05,2.95-3.44,2.95-2.46,2.95-39.32v-33.42l-.98-1.97c-1.97-3.93-1.47-3.44-22.61-3.44-17.2,0-18.68,0-20.15.98-.98.49-33.42,21.13-72.25,46.2-38.83,25.07-70.77,45.22-71.26,45.22-.98,0-.98-.49-.98-43.74s0-43.74-.98-45.22c-.49-.98-1.47-1.97-1.97-2.95q-1.47-.98-39.32-.98h-38.34l-3.93,1.97c-1.47.98-30.96,18.68-65.86,39.32-34.4,20.64-62.91,37.84-63.4,37.84h-.49s-.49-17.69-.49-39.81c.49-39.32.49-39.81-.49-39.81-.49,0-9.34,4.91-20.15,11.3h0Z"/>
</svg>