<?xml version="1.0" encoding="UTF-8"?>
<svg id="Layer_1" data-name="Layer 1" xmlns="http://www.w3.org/2000/svg" width="500" height="500" viewBox="0 0 500 500">
  <rect width="500" height="500" fill="none"/>
  <path d="m250,29.99c-52.67,0-103.69,7.41-138.51,18.34-46.72,14.73-56.48,21.07-56.48,53.06,0,168.16,66.23,261.71,124.76,317.7,30.82,29.56,59.4,50.92,70.23,50.92s39.31-21.36,70.13-50.92c58.62-56.09,124.86-149.53,124.86-317.7,0-31.99-9.75-38.33-56.48-53.06-34.82-10.92-85.94-18.34-138.51-18.34Zm0,19.51c48.38,0,98.03,6.54,132.66,17.46,42.82,13.46,42.82,15.02,42.82,34.53,0,127.78-38.82,227.18-118.81,303.65-29.17,27.9-49.16,41.75-56.67,44.97-7.51-3.22-27.51-17.07-56.67-44.97-79.99-76.57-118.81-175.97-118.81-303.75,0-19.41,0-21.07,42.72-34.53,34.73-10.92,84.28-17.46,132.76-17.46v.1Zm-15.51,32.38c-7.12,0-12.88,6.93-12.88,21.26,0,16.88,5.76,21.26,12.88,21.26s12.88-7.02,12.88-21.26-5.76-21.26-12.88-21.26Zm17.36.39v41.46h7.32l.1-17.17h2.83l6.34,17.56,8.1.39-6.54-19.12s5.95-2.15,5.95-10.92-7.12-11.41-9.75-11.51c-2.73-.2-14.34-.59-14.34-.59v-.1Zm39.21.78c-8.39,0-12.19,8-12.19,19.9s2.93,23.02,13.95,23.02,10.92-10.05,10.92-12v-9.66l-11.8-.98v7.22l4.19.29v2.34c0,.88,0,5.36-3.8,5.36-4.49,0-6.05-7.41-6.05-14.83s2.24-13.27,5.56-13.27,4.39,6.54,4.39,6.54l7.61-1.37s-.98-12.68-12.68-12.68l-.1.1Zm-83.79,1.07c-5.07.29-12.68,1.07-12.68,1.07v41.36s12-.98,13.46-1.07c1.46-.2,10.14-1.85,10.14-13.75,0,0,0-6.44-4.58-8.58,1.95-1.46,3.9-3.22,3.9-8.88s-4.19-10.34-10.24-10.05v-.1Zm101.93,1.46v41.46l7.22,1.07.2-18.24,9.46,1.27-.2,18.05,7.8,1.37v-41.07l-7.71-1.56v15.9l-9.27-1.37v-15.7l-7.51-1.07v-.1Zm-120.56,0l-7.61.98-6.73,25.07-7.02-22.92-7.32,1.66s0,41.36,0,41.26l6.93-1.27-.49-22.92,7.61,25.07,7.71-24.68-.49,20.29,7.51-.78v-41.65l-.1-.1Zm45.85,3.71c3.02,0,5.46,4.68,5.46,14.05s-2.44,14.05-5.46,14.05-5.46-2.93-5.46-14.05c0-9.46,2.44-14.05,5.46-14.05Zm24.68.39h4.39c1.95,0,5.07,1.17,5.07,4.39s-1.66,5.56-4,5.56h-5.36v-9.95h-.1Zm80.38.88v41.07l7.71,1.46v-40.87l-7.71-1.46v-.2Zm-134.02.59c.59,0,4.39,0,4.39,3.41s-2.34,5.36-4,5.46c-1.66.1-4,.2-4,.2v-8.88s2.93-.2,3.61-.2Zm-59.4,1.95l-7.12,1.76-10.05,44.19,7.9-2.34,2.24-10.92,7.22-2.05,2.44,10.34,7.9-1.95s-10.53-39.02-10.53-39.02Zm207.38,0v41.16l7.22,2.15v-25.56l10.83,28.48,6.24,2.44v-41.46l-7.51-2.44v22.14l-9.85-24.87-6.93-1.66v-.39Zm-238.1,8.78l-7.61,2.93v41.85l20.19-7.22v-7.41l-12.58,4.68v-34.82Zm268.54.49v41.36l7.51,3.02v-41.55l-7.51-2.63v-.2Zm-241.32,3.02l2.54,12.1-4.88,1.07,2.34-13.27v.1Zm63.7,1.95c.68,0,4.19.49,4.19,4.39s-2.15,5.76-3.9,6.05c-1.76.29-4.58.39-4.58.39v-10.63s3.61-.2,4.29-.2Zm60.57,29.75c-1.17,0-2.54.2-4.29.49-3.51.78-5.66.98-7.61,1.07-1.76.1-3.41.2-5.46.59-2.24.29-5.27.39-7.8,1.46-2.54,1.07-4.68,2.83-4.78,6.63-.29,3.71.78,7.02,4.29,9.56,3.71,2.44,9.75,4.19,19.8,4.68,9.95.59,20.87.88,29.85,1.95,8.97,1.07,15.9,2.63,18.14,5.66,2.24,2.93,2.83,4.88,2.34,6.34-.49,1.56-1.95,2.63-3.8,4.1-1.46-.1-4.1,0-7.32-.59-3.12-.39-6.73-1.27-9.95-2.93-3.02-1.66-6.93-2.83-10.73-3.12-3.8-.2-7.8.2-11.12,1.85-3.41,1.56-11.61,4.88-20.09,10.44-8.58,5.46-17.46,13.07-22.14,23.31s-7.02,16.78-8.49,21.36c-1.46,4.49-2.05,7.02-3.02,9.36-.98,2.34-2.54,4.68-3.9,7.41-1.37,2.63-2.54,5.66-2.83,9.17-.1,3.41-.59,7.51-1.37,11.41-.59,3.9-1.46,7.61-2.24,10.44-.88,2.73-1.76,6.05-2.73,9.66-.88,3.61-1.66,7.61-1.85,12-.2,4.29-.68,8.68-1.56,12.78-.68,3.12-1.56,5.95-2.54,8.58-.39.88-.68,1.66-.98,2.34-.2.49-.49.98-.59,1.46-1.07,2.63-1.56,5.07-2.15,7.22-.49,2.63-1.27,5.27-2.83,7.71-1.76,2.54-4,5.76-6.05,8.68-2.24,3.02-4.49,5.85-6.15,7.8-.39.39-.68.98-1.07,1.46-.68,1.37-1.17,2.73-1.17,4,0,.2.1.39.1.59.39,1.95,1.95,3.61,5.17,4.1,3.22.68,6.05,0,8.29-1.07,2.15-1.17,3.61-3.12,4.19-5.36.49-2.05.68-5.07,1.07-8.19.29-3.22.68-6.24,1.95-8.58l2.44-5.17c1.17-1.66,1.95-2.34,2.73-2.73.88-.59,1.56-.98,2.73-2.24,1.07-1.27,3.02-4.68,4.68-8.78,1.76-3.9,3.12-8.29,3.22-11.41.2-2.93.68-5.46,1.27-7.32.68-2.05,1.56-3.61,2.54-5.17.88-1.46,1.46-3.22,2.44-4.49.78-1.27,1.95-2.15,3.9-1.76,1.95.29,2.44,1.37,2.54,2.63.29,1.27,0,2.83.59,4.1.59,1.37,1.17,2.73,2.05,4.1.88,1.27,1.95,2.44,3.71,3.22,1.66.68,3.12,2.05,3.71,3.61.68,1.66.59,3.32-.59,4.78-1.17,1.56-2.83,4.1-4.19,6.63-1.37,2.73-2.54,5.36-2.54,7.02,0,1.76,0,4.39-.59,7.12-.29,1.95-.98,4.1-2.24,5.95l-1.46,1.56c-2.24,2.15-4.1,4.29-5.46,6.05-1.27,1.85-2.05,3.41-2.05,4.49-.1,1.17.39,2.63,1.46,3.8,1.07,1.27,2.83,2.24,5.76,2.34,2.73.1,4.97-.39,6.73-1.27,1.56-.98,2.83-2.54,3.51-4.39.68-1.95.68-3.32.49-4.58s-.59-2.34-.49-3.8c.1-1.27.49-2.73,1.17-4.29.49-1.56,1.17-3.12,1.46-4.58.2-1.66.68-3.41,1.46-5.46s2.05-4.29,3.9-6.63c1.76-2.24,2.93-4.29,3.8-6.05.98-1.85,1.56-3.51,2.73-4.88,1.17-1.56,1.76-2.24,2.15-2.54.49-.2.88.29,1.95.88,1.07.78,1.17,1.37.98,2.15s-.98,1.56-1.66,2.63-2.05,2.93-3.61,4.68c-1.37,1.95-2.93,4-3.8,5.46-.68.98-1.07,2.15-1.27,3.32-.1,0,0,0,0,.2-.1.49-.1.88-.1,1.27v.29c.2,1.66,1.27,3.02,3.61,3.41,2.44.29,4.19.39,5.56.1,1.37-.39,2.05-1.07,2.44-2.34.2-1.37.68-3.41,1.46-5.46.78-2.05,1.56-4.1,2.44-5.36.98-1.27,1.66-2.44,1.95-3.41.39-1.07.49-1.95.59-2.54,1.17,1.37,2.24,3.02,3.12,4.58.88,1.56,1.46,3.32,2.05,4.78.59,1.66,2.05,3.51,4.68,5.17,2.63,1.46,6.54,2.63,11.9,2.73,5.46,0,8.29-.1,9.75-.49,1.56-.49,1.95-1.17,2.63-2.54.78-1.27,2.34-3.71,3.32-6.34.88-2.73.98-5.36-1.37-7.02.59-2.15,1.37-5.07,2.44-7.8,1.17-2.93,2.54-5.56,4.49-7.12,1.85-1.76,4.29-3.32,6.44-4.88,2.15-1.46,4.1-2.73,4.88-3.8,2.63,1.76,5.17,3.71,7.02,6.54,1.85,2.83,3.02,6.34,3.02,11.32-.29,2.54,0,4.97.29,7.12.29,2.15.59,4,.78,5.36.2,1.27.1,2.73,0,4.1,0,1.46-.2,3.02,0,4.58s.98,3.02,2.34,4.1c1.17,1.07,2.63,1.56,3.9,1.46,1.27-.1,2.54-1.27,3.51-2.73.98-1.56,1.56-3.32,1.76-4.88,0-1.56-.39-2.63-.88-3.61-.68-.78-1.37-1.56-1.95-2.24-.59-.59-1.07-1.27-1.17-1.95,0-.88.2-1.95.98-3.71.78-1.66.78-3.32.29-4.58-.29-1.27-1.07-2.24-1.66-2.93-.68-.68-1.27-2.54-1.76-5.07-.39-2.34-.59-5.27-.2-8.19.29-2.73.2-6.05-.39-8.97-.68-2.83-1.76-5.27-3.41-6.44,4.97,0,10.73,0,15.9-1.17,5.17-1.17,9.75-3.41,12.68-7.9-2.93-.39-6.15-.39-9.95-1.76-3.9-1.37-8.29-4.19-13.46-10.34.59-2.63.78-4.39.68-5.85,0-1.46-.59-2.63-1.07-4.29-.59-1.46-1.37-2.93-1.85-5.27-.39-2.34-.49-5.46.49-10.44.78-5.07,1.17-13.07-.49-22.04-1.56-8.88-4.97-18.73-11.61-27.12,2.34-5.76,3.61-9.75,4.1-13.07.39-3.22,0-5.76-1.17-8.58-1.17-2.93-4.58-5.56-9.66-7.51-4.97-1.95-11.71-3.22-19.51-3.61-7.9-.29-19.02-.49-28.19-1.27-9.36-.78-16.58-2.05-16.39-4.39.1-2.44,1.46-3.41,3.22-3.9,1.76-.49,4-.39,5.66-.49,2.54,1.17,6.34,2.05,10.14,2.73,3.8.49,7.8.78,11.12.88,3.12.29,6.24-.49,9.56-1.27,3.22-.59,6.63-1.37,10.53-1.17-3.22-1.27-7.22-3.02-11.41-4.49-4.1-1.46-8.49-2.44-12.19-1.85-1.27-1.46-2.15-2.44-3.71-3.02-.68-.2-1.66-.29-2.83-.29h-.1Zm5.27,45.16c2.63.2,5.17,1.85,7.41,3.61,2.15,1.85,3.8,3.8,4.58,4.88.88,1.07,1.46,3.41,2.15,5.95.68,2.44,1.37,5.07,2.34,6.73.88,1.56,1.56,3.9,2.15,6.73.49,2.73,1.07,5.85,1.37,8.88.39,3.12,1.46,5.36,2.54,7.22,1.17,1.85,2.44,3.41,3.22,4.88.78,1.56,1.46,5.36,2.54,9.36.98,4.19,2.15,8.68,3.9,11.71,1.66,3.22,4.58,5.36,7.32,6.83,2.83,1.56,5.56,2.34,6.93,2.93,1.37.39,2.34.59,3.41,1.27.98.68,2.05,1.56,3.61,3.8,2.24,3.02,5.76,5.56,9.07,7.51,3.22,1.95,6.34,3.22,7.71,3.71-4.49,1.37-9.66,1.07-13.95-.2-4.49-1.27-8.29-3.41-9.85-5.85-.98-1.27-2.24-2.54-3.71-3.51-1.37-1.07-3.02-1.85-4.49-2.34-1.46-.59-4-1.76-6.44-2.93-2.44-1.27-4.88-2.54-6.34-3.41-.39.68-1.17,1.56-2.34,2.44-1.07,1.07-2.63,2.24-4.29,3.51-1.76,1.46-2.15,2.54-2.05,3.41,0,.98.68,1.85,1.07,2.54s2.34,2.54,4.29,4.29c2.05,1.95,4,3.9,4.78,4.78-2.54-.29-4.19-.49-6.05-1.27-2.05-.78-4.29-2.15-7.9-4.78-3.8-2.63-4.68-5.17-4.68-7.32.1-2.24,1.27-3.9,1.95-4.58.68-.78,2.05-1.85,3.61-2.93,1.37-.98,2.73-1.85,3.32-2.24.78-.39,1.07-1.07,1.07-1.46-.1-.39-.49-.88-1.37-.78-6.34.59-10.92,2.05-14.05,3.8-3.02,1.66-4.49,3.51-4.58,4.97-.2,1.37,0,2.63.39,4,.59,1.17,1.37,2.44,2.73,3.8,1.17,1.37,1.56,2.93,1.46,4.58,0,1.46-.88,2.83-1.76,3.71-.88.78-1.27,1.17-1.66,1.85-.29.59-.59,1.46-1.17,3.32-.68,1.66-1.17,4.97-1.66,8.49-.39,3.51-.68,7.22-.59,9.95.98-1.37,2.24-2.44,3.61-3.22,1.27-.78,2.63-1.17,3.61-1.46.2,6.63-.39,11.41-1.27,14.92-.68,3.41-1.76,5.66-2.44,7.32,0,.68-.39.88-.88.78-.29-.1-.59-.49-.68-.98-.39-1.76-1.07-4.1-2.05-6.44-.98-2.24-2.05-4.29-3.22-5.56-3.12-3.41-4.49-5.17-4.97-6.54-.68-1.56-.49-2.63-.39-4.49-5.07-3.02-6.44-6.34-6.34-9.27.2-2.93,2.05-5.66,3.51-7.61,1.46-1.85,2.73-4.19,3.71-6.24.88-2.05,1.46-4.1,1.66-5.27s-.29-3.41-1.07-5.76c-.78-2.34-2.05-4.88-3.32-6.73-.39,0-1.17-.39-2.15-.29-1.07.1-2.15.59-3.02,2.15-.88,1.46-1.76,2.24-2.73,2.54-1.07.29-2.15.29-3.22.2-1.07-.2-2.44-.39-3.61-.2-1.27.1-2.54.59-3.41,1.76-.98,1.27-2.05,1.27-3.12.78-1.07-.39-2.15-1.27-2.93-1.66-.88-.59-1.37-1.07-1.95-1.46-.68-.39-1.66-.59-3.41-.59-1.95,0-2.63,1.27-3.41,2.63-.68,1.37-1.37,2.83-3.02,3.12-1.66.39-2.73-.59-3.32-2.24-.49-1.76-.59-4.19-.39-6.83-.2-3.41,1.27-8.49,3.22-13.27,1.95-4.78,4.1-9.17,5.17-11.22,1.07-2.15,2.83-6.34,4.58-11.02,1.85-4.58,3.71-9.56,4.97-13.56,1.27-3.8,3.8-6.73,6.73-9.27,2.93-2.54,6.44-4.88,9.56-7.61,3.02-2.63,6.73-5.07,10.34-6.83,3.61-1.66,7.02-2.63,9.66-2.44Z"/>
</svg>