<?xml version="1.0" encoding="UTF-8"?>
<svg id="Layer_1" data-name="Layer 1" xmlns="http://www.w3.org/2000/svg" width="500" height="500" viewBox="0 0 500 500">
  <rect width="500" height="500" fill="none"/>
  <g>
    <path d="m267.41,392.65c29.13-3.17,57.17-14.11,80.51-31.41,8.02-5.93,22.23-19.66,28.84-27.82,16.73-20.68,28.3-45.16,33.95-71.71,2.09-9.78,2.21-11.64,2.22-30.83,0-17.81-.2-21.62-1.75-29.64-9.28-48.36-38.3-88.93-81.24-113.51-15.06-8.62-34.48-15.47-53.17-18.75-12.45-2.18-36.97-2.62-48.86-.87-40.54,6-76.26,25.31-101.93,55.02-36.66,42.46-48.95,98.59-33.44,152.61,12.62,43.89,44.93,81.96,86.5,101.84,15.09,7.21,35.88,13.17,52.46,15.03,8.82.99,26.97,1.03,35.89.04m-41.51-20.37c-49.62-8.37-92.72-42.8-110.58-88.35-6.89-17.54-9.52-30.32-10.14-48.95-.52-15.27.53-26.12,3.77-38.95,14.05-55.76,57.11-97.02,112.42-107.69,12.3-2.39,13.18-2.3,14.68,1.27,3.34,8.03,6.42,24.68,9.47,51.52,1.3,2.44-.31,21.01,5.02,18.74,1.05-.65,1.57-2.54,2-7.2,3.25-33.49,8.49-61.25,12.27-65.16,1-1.03,2.19-1,9.33.15,29.54,4.77,56.46,18.74,78.34,40.66,11.49,11.5,18.7,21.25,25.58,34.51,12.44,24.02,17.61,46.42,16.63,72.22-.48,13.1-1.7,21.14-5,33.26-13.89,50.92-56,90.86-107.77,102.18-5.02,1.11-10.87,2.25-12.98,2.53l-3.8.51-1.32-3.04c-3.82-9.12-8.65-35.99-10.69-59.14-.51-5.72-1.06-11.03-1.3-11.82-.4-1.4-3.08-1.93-3.81-.72-.21.39-1.35,8.84-2.46,18.85-3.37,29.97-8.03,53.21-10.97,55.08-1.29.8-1.03.82-8.7-.47h0Z"/>
    <path d="m252.15,231.51l.24-41.39,2.96-.24c2.74-.24,3.05-.49,3.25-2.81l.24-2.54-8.36-.25c-10.92-.33-11.09-.29-10.8,2.8.23,2.22.59,2.59,3.05,2.95l2.81.4.21,18.69c.11,10.26-.1,18.49-.45,18.25-.37-.22-4.57-9.99-9.34-21.68l-8.68-21.3-10.49.21-10.51.22v2.42c0,2.19.25,2.42,3.04,2.65l2.98.24-.17,37.8-.24,37.82h-7.18l-8.33-38.45c-10.05-46.57-9.45-44.2-10.98-44.79-3.33-1.27-3.76.09-11.03,33.29-7.32,33.49-9.37,40.13-13.99,45-3.25,3.44-7.56,5.34-12.14,5.34h-4.07l.23-37.86.2-37.85,2.79-.4c2.52-.37,2.81-.68,2.81-2.8v-2.42h-24.83l-.29,2.33c-.25,2.64.86,3.66,4.08,3.68h2.22v75.32h-1.93c-3.31,0-4.49.85-4.49,3.24,0,1.26.28,2.44.61,2.63.31.23,10.29.14,22.2-.15l21.55-.51,2.45-12.04,2.46-12,6.59-.24c6.29-.24,6.61-.16,6.97,1.6,1.44,6.69,2.85,14.65,2.85,15.89,0,1.07-.7,1.53-2.59,1.71-2.28.23-2.62.53-2.62,2.65v2.42l19.26.21c16.64.19,19.33.04,20.11-1.04,1.66-2.25.4-4.28-2.81-4.53l-2.9-.24-.23-29.6c-.11-16.27.07-29.87.43-30.22.34-.36,6.17,13.13,12.94,30,16.72,41.51,14.85,37.57,17.47,37.28l2.21-.26.2-41.41h.03Zm-77.51,8.38c-.04-1.93,5.97-29.04,6.43-29.04.63,0,6.24,28.13,5.79,29.04-.17.32-2.99.59-6.26.59s-5.97-.27-5.97-.59Zm114.81,32.59c6.89-1.92,12.13-9.29,14.65-20.58,1.55-6.89,1.2-8.2-2.03-8.2-2.88,0-2.93.06-4.86,7.7-2.15,8.35-4.8,12.76-8.47,13.94-5.27,1.76-10-.6-12.62-6.29-1.57-3.42-1.73-5.33-1.98-24.54-.42-29.5,1.33-40.32,7.02-43.25,7.44-3.86,13.75,1.51,15.97,13.61.99,5.28,1.62,6.27,3.8,5.87,1.33-.26,1.51-1.46,1.93-12.69.26-6.83.29-12.85.11-13.41-.63-1.79-4.14-1.16-5.08.93l-.89,1.89-3.85-2.39c-3.54-2.2-4.39-2.41-9.12-2.1-4.17.27-5.89.83-8.59,2.7-9.37,6.62-15.91,23.87-15.91,41.95,0,20.9,8.27,39.64,19.62,44.63,2.95,1.28,6.24,1.37,10.26.26l.02-.02Zm90.24-1.11c1.79-2.17.66-4.02-2.74-4.46l-3.13-.39-9.05-41.66c-4.97-22.93-9.05-41.75-9.05-41.87,0-.11-1.07-.2-2.39-.2-2.79,0-2.27-1.63-7.58,23.24-2.04,9.46-5.79,26.77-8.27,38.45l-4.6,21.23-3.83.24-3.8.24.23-37.88.18-37.9,2.81-.4c2.49-.37,2.79-.68,2.79-2.8v-2.42h-24.82v2.42c0,2.13.28,2.44,2.81,2.8l2.76.4v75.31l-2.76.4c-2.5.35-2.85.71-3.05,3.01l-.28,2.62,19.12-.22,19.05-.21.25-2.22c.2-1.92-.11-2.28-2.22-2.71-1.35-.26-2.42-.71-2.41-.98,0-.28.87-4.47,1.83-9.33l1.81-8.81,6.56-.24c6.26-.24,6.56-.16,6.95,1.6,1.43,6.76,2.82,14.66,2.82,15.94,0,1.07-.55,1.51-1.95,1.51-1.16,0-2.36.67-2.79,1.55-1.09,2-1.06,2.11.4,3.59,1.78,1.79,22.89,1.86,24.34.1v.03Zm-35.82-32.69c.23-1,1.56-7.65,3.02-14.83,1.46-7.16,2.87-13,3.22-13s1.75,6.2,3.19,13.81c1.47,7.6,2.78,14.26,2.99,14.83.28.74-1.27,1-6.2,1-6.42,0-6.59-.06-6.23-1.81h0Z"/>
    <path d="m246.51,30c71.36.56,143.57,27.3,216.53,77.97l3.59,2.48.37,4.39c6.93,85.36-6.99,157.89-42.49,217.16-35.51,59.33-92.4,105.01-171.37,136.62l-3.42,1.38-3.42-1.38c-85.58-34.2-141.52-83.14-174.91-143.28-33.3-60.06-43.91-130.91-38.93-209.21l.26-4.14,3.26-2.55C104.78,55.18,174.99,29.44,246.51,30m202.34,90.7c-68.67-46.93-136.18-71.71-202.4-72.2-66.13-.53-131.41,23.12-195.8,72.97-4.16,73.26,6,139.29,36.87,194.89,30.91,55.71,82.8,101.34,162.15,133.72,73.32-29.97,126.08-72.62,158.98-127.54,32.81-54.83,46.02-122.24,40.2-201.83h0Z"/>
  </g>
</svg>