<?xml version="1.0" encoding="UTF-8"?>
<svg id="Layer_1" data-name="Layer 1" xmlns="http://www.w3.org/2000/svg" width="500" height="500" viewBox="0 0 500 500">
  <rect width="500" height="500" fill="none"/>
  <g>
    <path d="m386.85,270.49h-6.25l-3.8,11.68h5.97c1.36,0,2.72-.27,4.07-.81,1.09-.27,2.17-.81,2.99-1.9.81-.81,1.63-1.9,1.9-3.26.54-1.36.54-2.99,0-4.34-.54-.81-2.17-1.36-4.89-1.36Z"/>
    <path d="m297.5,233.13c2.17.27,4.62-.27,6.79-1.36,1.9-1.09,3.26-2.44,4.34-4.34,1.9-2.99,3.26-6.52,4.34-10.05,2.17-6.25,2.72-10.32,2.17-12.49-.54-2.17-2.99-3.26-6.79-3.26h-3.26l-11.13,31.5h3.53Z"/>
    <path d="m172,270.49h-6.25l-3.8,11.68h5.97c1.36,0,2.72-.27,4.07-.81,1.09-.27,2.17-.81,2.99-1.9.81-.81,1.63-1.9,1.9-3.26.54-1.36.54-2.99,0-4.34-.81-.81-2.17-1.36-4.89-1.36Z"/>
    <polygon points="199.86 203.47 187.64 224.11 197.69 224.11 199.86 203.47"/>
    <path d="m250.08,148.34c-118.39,0-215.05,45.62-215.05,101.82s96.67,101.82,215.05,101.82,215.05-45.62,215.05-101.82-96.67-101.82-215.05-101.82Zm97.48,73.86l4.07-11.95,39.1-.54-7.87,12.22-38.56,18.19,20.64-18.46-17.38.54Zm-31.23-33.67c3.26-.27,6.52.54,9.23,2.17,2.17,1.36,3.53,3.53,4.07,5.97.81,2.99.81,6.25.27,9.23-.54,3.8-1.63,7.6-2.72,11.13-1.63,4.89-3.8,9.78-6.79,14.39-2.17,3.26-4.62,5.97-7.6,8.42-2.44,2.17-4.89,3.53-7.87,4.62-2.99.81-5.7,1.36-8.96,1.63h-20.91l20.64-57.56h20.64Zm-118.66,0h15.21l-3.26,57.56h-14.66l1.09-9.5h-16.02l-5.43,9.5h-14.39l37.47-57.56Zm-58.92,0h13.85l-15.21,43.44h21.72l-4.62,14.12h-35.84l20.09-57.56Zm-8.96,102.64l-39.1.54,7.87-12.22,38.56-18.46-20.64,18.46,17.38-.54-4.07,12.22Zm61.91-16.29c-.81,2.99-2.44,5.7-4.34,8.15-1.63,2.17-3.8,4.07-6.25,5.43-1.9,1.09-3.8,1.9-5.7,2.17,1.09.54,2.17,1.09,2.99,2.17.54,1.09,1.09,1.9,1.36,2.99s.54,2.44.81,3.53l1.63,16.56h-16.02l-1.9-17.38c0-1.63-.54-2.99-1.09-4.34-.81-.81-1.9-1.36-2.99-1.36h-1.36l-7.6,23.08h-14.39l18.46-57.02h23.62c3.26-.27,6.52.27,9.78,1.36,2.17,1.09,3.53,2.99,4.07,5.16.27,3.26,0,6.52-1.09,9.5Zm53.76,12.22c-1.9,5.97-4.62,11.4-8.15,16.29-2.99,4.07-6.79,7.6-11.13,10.05s-9.23,3.53-14.12,3.53c-4.34.27-8.42-.81-11.95-2.99-2.99-2.44-4.89-5.97-5.16-9.78-.54-5.7.27-11.4,2.17-16.56,2.44-8.42,7.06-15.75,13.3-21.72,5.43-5.16,12.76-7.87,20.09-7.87s12.76,2.44,15.48,7.6c2.72,5.16,2.44,12.22-.54,21.45Zm2.99-41l-5.97-31.5-10.86,31.5h-13.03l20.09-57.56h13.03l5.97,31.77,11.13-31.77h13.31l-20.36,57.56h-13.3Zm9.78,70.05l1.09-57.02h14.93l-2.99,41,23.62-41h14.66l-35.84,57.02h-15.48Zm86.35-24.17h-22.27l-3.53,11.13h24.71l-4.07,13.03h-39.37l18.46-57.02h38.29l-4.07,12.22h-23.89l-2.99,8.96h22.27l-3.53,11.68Zm62.18-17.11c-.81,2.99-2.44,5.7-4.34,8.15-1.63,2.17-3.8,4.07-6.25,5.43-1.9,1.09-3.8,1.9-5.7,2.17,1.09.54,2.17,1.09,2.99,2.17.54,1.09,1.09,1.9,1.36,2.99s.81,2.44.81,3.53l1.63,16.56h-16.29l-1.9-17.38c0-1.63-.27-2.99-1.09-4.34-.81-.81-1.9-1.36-2.99-1.36h-1.09l-7.6,23.08h-14.39l18.46-57.02h23.89c3.26-.27,6.52.27,9.78,1.36,2.17,1.09,3.53,2.99,4.07,5.16,0,3.26-.27,6.52-1.36,9.5Z"/>
    <path d="m226.62,271.35c-3.26,0-6.25,1.63-8.15,3.8-3.26,3.53-5.7,7.87-6.79,12.49-1.9,5.7-2.44,9.78-1.36,12.49.81,2.44,3.26,3.8,5.7,3.8,3.26,0,6.25-1.36,8.42-3.8,3.26-3.8,5.43-8.42,6.79-13.31,1.9-5.43,2.17-9.23,1.09-11.68-.81-2.44-3.26-4.07-5.7-3.8Z"/>
    <path d="m250,136.34c-124.19,0-225.7,51.03-225.7,113.66s101.51,113.66,225.7,113.66,225.7-51.03,225.7-113.66-101.24-113.66-225.7-113.66Zm0,220.84c-121.49,0-220.84-48.06-220.84-107.18s99.35-106.91,220.84-106.91,220.84,48.06,220.84,107.18-99.08,106.91-220.84,106.91Z"/>
  </g>
</svg>