<?xml version="1.0" encoding="UTF-8"?>
<svg id="Layer_1" xmlns="http://www.w3.org/2000/svg" width="500" height="500" viewBox="0 0 500 500">
  <rect width="500" height="500" fill="none"/>
  <g>
    <path d="M55,220.28v59.97h104.23v-15.12h-60.6v-44.85h-43.63ZM244.26,263.79h-31.54v-43.52h-43.63v59.97h75.17c43.28,0,66.75-10.95,66.75-30.25s-26.11-29.72-54.27-29.72h-40.15v16.17h27.67c15.65,0,20.18,6.78,20.18,13.04,0,6.26-4.02,14.32-20.18,14.32h0ZM300.99,220.28l49.1,59.97h46.1l48.81-59.97h-41.05l-31.92,38.07-30.28-38.07h-40.76Z" fill-rule="evenodd"/>
    <path d="M100.34,217.6h-39.11c-1.56-.98-2.05-4.46,0-6.71,5.21-5.74,27.37-28.93,30.25-31.81,3.13-3.13,8.83-5.21,14.57-5.21h284.21c4.17,0,7.33,1.04,10.46,3.65,3.13,2.61,23.47,22.95,27.64,27.64,4.17,4.69,4.69,9.91,4.69,12.52h-31.05l-29.82,36.19-4.42-5.06,25.12-30.77-9.64-9.75H111.25l-10.92,9.32Z" fill-rule="evenodd"/>
    <path d="M101.93,221.84v40.77h31.78l-31.78-40.77ZM105.55,282.88s23.99,31.26,27.64,35.43c3.65,4.17,9.39,7.82,17.18,7.82h189.45c10.43,0,15.16-2.61,18.81-7.82s28-35.43,28-35.43h-42.76l-8.38,8.31h-178.87l-8.85-8.29-42.22-.02h0Z" fill-rule="evenodd"/>
  </g>
</svg>