<?xml version="1.0" encoding="UTF-8"?>
<svg id="Layer_1" data-name="Layer 1" xmlns="http://www.w3.org/2000/svg" width="500" height="500" viewBox="0 0 500 500">
  <rect width="500" height="500" fill="none"/>
  <g>
    <path id="path60" d="m285.57,221.6s-5.16,21.83-3.12,47.26c2.09,26.38,12.31,41.72,12.31,41.72,17.49-13.77,28.79-35.47,28.79-59.83,0-28.18-14.93-53.55-39.1-66.65,0,0-1.19,5.83-4.08,11.05l5.2,26.47h0v-.02Zm-108.55,29.14c0,24.53,11.46,46.36,29.17,60.12,0,0,9.89-17.35,11.88-42.01,2.08-25.74-3.12-47.26-3.12-47.26l5.2-26.47c-2.8-5.04-4.08-11.01-4.08-11.01-24.12,13.11-39.05,38.45-39.05,66.62h0v.02Zm12.69,56.33l-12.4,6.99c7.08.49,21.32,3.9,33.43,9.78-9.15-5.04-16.81-11.93-21.03-16.77Zm-5.45-1.99l2.53-1.43c-2.49-3.12-4.53-5.9-6.55-9.35l-21.88,5.89c4.96,3.65,15.2,9.41,25.91,4.87h0v.02Zm-13.38-12.82l7.11-1.91c-1.79-3.45-3.34-6.72-4.64-10.4l-33.52,4.1c4.31,4.57,14.53,12.46,31.07,8.21h-.02Zm-78.57-95.81c2.15,5.81,9.19,19.01,28.6,19.01h41.02c-1.03-8.2-.02-15.25.74-19.01,0,0-70.35,0-70.35,0Zm35.65,42.41h41.05c.13-.78.32-1.91.45-2.73-3.45-4.64-5.9-11.75-6.82-16.28h-63.28c2.15,5.81,9.19,19.01,28.6,19.01h0Zm12.55,20.69l28.05-.83c-.43-4.59-.56-10.25-.04-15.45h-59.18c3.21,5.56,12.1,16.83,31.16,16.28h0Zm14.1,18.22l17.29-2.11c-1.23-4.15-2.2-8.21-2.82-12.56-4.06.13-45.75,1.35-45.75,1.35,3.66,5.31,13.18,15.44,31.25,13.31h0l.02.02Zm-51.67-62.32c-9.95-5.63-13.96-15.11-15.24-19.01H29.58c2.74,5.94,10.83,18.99,28.79,18.99h44.57v.02Zm-.29,23.43h7.35c-9.93-5.63-13.96-15.11-15.24-19.01h-55.55c3.72,6.08,13.52,19.01,29.84,19.01h33.6Zm18.83,21.25c-10.34-5-15.4-13.49-17.06-16.84h-50.26c4.08,5.9,14.44,17.89,31.39,17.89.2,0,35.91-1.05,35.91-1.05h.02Zm-3.63,22.15l18.49-2.26c-10.54-4.12-16.18-12.22-18.05-15.38l-44.34,1.32c6.08,6.3,21.39,19.03,43.89,16.34h.02v-.02Zm27.22,16.93l8.63-2.33c-10.54-2.55-16.9-9.48-19.08-12.22l-32.35,3.95c7.38,5.45,24.3,15.62,42.8,10.62h0v-.02Zm28.29,11.81c-9.84-.96-17.62-7.09-20.27-9.44l-6.88,1.86-12.1,3.27c8.18,3.9,25.22,10.34,39.25,4.31h0Zm136.97-3.99c-4.22,4.84-11.9,11.73-21.03,16.77,12.13-5.89,26.36-9.3,33.43-9.78l-12.4-6.99h0Zm31.38-6.86l-21.88-5.89c-2.02,3.45-4.06,6.21-6.55,9.35l2.53,1.43c10.71,4.51,20.94-1.23,25.91-4.87h0v-.02Zm18.54-16.19l-33.52-4.1c-1.3,3.68-2.85,6.93-4.64,10.4l7.11,1.91c16.54,4.24,26.75-3.65,31.07-8.21h-.02Zm47.5-87.56h-70.37c.76,3.74,1.77,10.8.74,19.01h41.02c19.43,0,26.45-13.2,28.6-19.01h.02Zm-7.06,23.4h-63.29c-.92,4.53-3.38,11.63-6.82,16.28.14.81.34,1.95.45,2.73h41.07c19.41,0,26.45-13.2,28.6-19.01Zm-9.98,23.41h-59.2c.4,3.36.45,11.7-.04,15.45l28.05.83c19.06.56,27.95-10.72,31.16-16.28h.02Zm-13.99,21.19s-41.67-1.25-45.75-1.35c-.61,4.35-1.57,8.41-2.82,12.56l17.29,2.11c18.07,2.13,27.59-8.02,31.27-13.31h0v-.02Zm20.42-49.03h44.54c17.96,0,26.05-13.05,28.79-19.01h-58.1c-1.28,3.88-5.31,13.38-15.24,18.99h0v.02Zm-7.06,23.43h40.94c16.32,0,26.12-12.91,29.84-19.01h-55.53c-1.28,3.88-5.31,13.38-15.24,19.01h-.02Zm-11.48,21.25s35.71,1.05,35.91,1.05c16.93,0,27.31-12.01,31.39-17.89h-50.24c-1.66,3.36-6.7,11.84-17.06,16.84Zm-14.86,19.89l18.49,2.26c22.49,2.71,37.8-10.02,43.89-16.34l-44.34-1.32c-1.88,3.16-7.51,11.28-18.05,15.38h0l.02.02Zm-17.37,16.9l8.63,2.33c18.49,5.02,35.42-5.15,42.8-10.62l-32.35-3.95c-2.17,2.74-8.54,9.68-19.06,12.22h0l-.02.02Zm-19.66,14.19c14.01,6.03,31.07-.4,39.25-4.31l-18.97-5.13c-2.65,2.35-10.43,8.48-20.26,9.44h-.02Zm-47.28-85.86c-5.45,2.62-14.57,9.66-17.46,28.11-2.83,18.07-.43,33.6,2.35,41.88-.2-7.42.25-19.24,2.53-29.59,3.95-17.93,9.64-33.15,12.58-40.4Z"/>
    <path id="path62" d="m270.91,323.04c7.19-2.17,13.94-5.45,20.02-9.64,0,0-11.03-18.09-12.87-44.18-.74-10.52-.54-20.22.14-28.11-2.4,7.15-5,15.89-7.09,25.42-4.91,22.37-.9,41.03-.87,41.22l.67,15.29h0Zm-32.33-69.76c-2.89-18.43-12.01-25.49-17.46-28.11,2.94,7.24,8.65,22.48,12.58,40.4,2.27,10.34,2.74,22.17,2.53,29.59,2.78-8.29,5.16-23.79,2.35-41.88h0Zm-15.54-33.85c9.57.05,28.79-.38,38.27-4.15,7.38-2.94,9.68-5.43,8.81-14.33-.92-9.39-9.1-18.38-11.25-20.58-1.86-.2-6.64-.67-8.61-.67-1.37,0-4.04.23-6.19.43.87,3,.99,8.12-2.73,16.16-4.39,9.5-13.02,18.31-18.31,23.13h0v.02Z"/>
    <path id="path64" d="m220.6,173.19c-.07.14-.2.43-.32,1.01-2.24,9.19,4.51,20.18,4.51,20.18l-4.19,21.28c5.05-4.69,12.85-12.8,16.74-21.21,3.9-8.45,2.82-12.58,2.13-14.01-3.05-.16-11.27-1.16-17.91-6.73-.4-.34-.81-.78-.96-.52h0Zm8.79,93.35c-2.09-9.51-4.69-18.23-7.08-25.38.67,7.89.85,17.57.14,28.07-1.68,24.66-12.64,44.3-12.64,44.3,6.01,4.1,12.64,7.33,19.71,9.48l.72-15.25c.04-.18,4.04-18.87-.87-41.22Z"/>
    <path id="path167" d="m265.9,310.84c-.09-.43-.31-1.48-.54-3.03-2.18-3.16-12.84-22.89-7.78-55.21,3.79-24.25,17.76-30.98,23.18-32.69l-5.02-25.53s6.7-10.6,4.51-20.18c-.13-.58-.25-.87-.32-1.03-.16-.27-.56.2-.96.54-4.84,4.08-10.52,5.7-14.44,6.34,3.61,4.26,9.15,12.06,9.98,20.47,1.14,11.57-3.01,15.44-11.57,18.85-8.9,3.56-24.97,4.35-35.51,4.46,6.01,4.31,13,12.69,15.51,28.76,5.05,32.33-5.6,52.05-7.78,55.21-.23,1.55-.45,2.6-.54,3.03l-.31,10.56c8.67,7.62,23.69,7.29,31.9,0l-.31-10.56h0v.02Z"/>
    <path id="path165" d="m48.05,192.03h120.36s-6.86,18.4,2.4,37.86c5.16-19.73,16.52-35.96,32.89-47.66-.38-1.46-1.46-4.17-4.57-6.48-3.59-2.67-9.75-2.73-9.8-2.73H24.34c2.58,5.9,9.84,18.92,23.7,18.99h0v.02Z"/>
    <path id="path163" d="m475.66,173.02h-164.99s-6.21.04-9.8,2.73c-3.11,2.31-4.19,5.02-4.57,6.48,16.37,11.68,27.73,27.91,32.89,47.66,9.28-18.99,2.4-37.86,2.4-37.86h120.36c13.86-.07,21.12-13.09,23.7-18.99h0v-.02Z"/>
  </g>
</svg>