<?xml version="1.0" encoding="UTF-8"?>
<svg id="Layer_1" data-name="Layer 1" xmlns="http://www.w3.org/2000/svg" width="500" height="500" viewBox="0 0 500 500">
  <rect width="500" height="500" fill="none"/>
  <g id="layer1">
    <g id="g179">
      <path id="path60" d="m285.79,250.01s-5.19,21.96-3.14,47.54c2.11,26.53,12.39,41.97,12.39,41.97,17.6-13.86,28.97-35.68,28.97-60.18,0-28.35-15.02-53.86-39.33-67.05,0,0-1.2,5.87-4.1,11.11l5.23,26.62h0v-.02Zm-109.2,29.33c0,24.68,11.53,46.63,29.35,60.47,0,0,9.95-17.45,11.95-42.26,2.09-25.9-3.14-47.54-3.14-47.54l5.23-26.62c-2.81-5.07-4.1-11.08-4.1-11.08-24.26,13.18-39.28,38.68-39.28,67.01h0v.02Zm12.77,56.64l-12.48,7.03c7.12.49,21.45,3.92,33.63,9.84-9.21-5.07-16.91-12-21.16-16.87Zm-5.48-2l2.54-1.43c-2.51-3.14-4.56-5.94-6.59-9.41l-22.01,5.92c4.99,3.67,15.29,9.46,26.06,4.9v.02Zm-13.46-12.91l7.16-1.92c-1.8-3.47-3.36-6.76-4.67-10.46l-33.72,4.12c4.34,4.59,14.62,12.53,31.25,8.26h-.02Zm-79.05-96.36c2.16,5.85,9.24,19.12,28.77,19.12h41.26c-1.04-8.24-.02-15.35.74-19.12h-70.77Zm35.87,42.66h41.3c.13-.78.33-1.92.45-2.74-3.47-4.67-5.94-11.82-6.86-16.38h-63.65c2.16,5.85,9.24,19.12,28.77,19.12h0Zm12.62,20.81l28.22-.84c-.44-4.61-.56-10.31-.04-15.54h-59.53c3.23,5.59,12.17,16.93,31.34,16.38h0Zm14.18,18.32l17.4-2.12c-1.23-4.18-2.22-8.26-2.83-12.64-4.09.13-46.02,1.36-46.02,1.36,3.69,5.34,13.26,15.53,31.43,13.38h0l.02.02Zm-51.97-62.69c-10.01-5.67-14.04-15.2-15.33-19.12H28.27c2.76,5.97,10.9,19.1,28.97,19.1h44.82l.02.02Zm-.29,23.55h7.39c-9.99-5.67-14.04-15.2-15.33-19.12h-55.88c3.74,6.12,13.6,19.12,30.02,19.12,0,0,33.8,0,33.8,0Zm18.94,21.37c-10.41-5.03-15.49-13.57-17.16-16.94h-50.56c4.1,5.94,14.53,18,31.58,18,.2,0,36.12-1.05,36.12-1.05h.02Zm-3.65,22.28l18.6-2.27c-10.61-4.14-16.27-12.29-18.16-15.47l-44.6,1.33c6.12,6.34,21.52,19.14,44.15,16.43h0l.02-.02Zm27.39,17.05l8.68-2.34c-10.61-2.56-17-9.53-19.2-12.29l-32.54,3.98c7.43,5.48,24.44,15.71,43.06,10.68v-.02Zm28.46,11.89c-9.9-.96-17.72-7.14-20.39-9.5l-6.92,1.87-12.17,3.29c8.23,3.92,25.37,10.41,39.48,4.34h0Zm137.78-4.01c-4.25,4.87-11.97,11.8-21.16,16.87,12.2-5.92,26.51-9.35,33.63-9.84l-12.48-7.03h0Zm31.56-6.9l-22.01-5.92c-2.03,3.47-4.09,6.25-6.59,9.41l2.54,1.43c10.77,4.54,21.07-1.23,26.06-4.9v-.02Zm18.65-16.27l-33.72-4.12c-1.31,3.7-2.87,6.97-4.67,10.46l7.16,1.92c16.63,4.27,26.91-3.67,31.25-8.26h-.02Zm47.78-88.08h-70.79c.76,3.76,1.78,10.86.74,19.12h41.26c19.54,0,26.6-13.27,28.77-19.12h.02Zm-7.1,23.54h-63.67c-.93,4.56-3.4,11.7-6.86,16.38.15.82.35,1.96.45,2.74h41.31c19.52,0,26.6-13.27,28.77-19.12Zm-10.04,23.55h-59.55c.4,3.38.45,11.77-.04,15.54l28.22.84c19.18.56,28.11-10.79,31.34-16.38h.02Zm-14.07,21.32s-41.91-1.25-46.02-1.36c-.62,4.38-1.58,8.46-2.83,12.64l17.4,2.12c18.18,2.14,27.75-8.06,31.45-13.38v-.02Zm20.54-49.3h44.8c18.07,0,26.2-13.13,28.97-19.12h-58.44c-1.29,3.9-5.34,13.46-15.33,19.1h0v.02Zm-7.1,23.55h41.19c16.42,0,26.28-12.98,30.02-19.12h-55.86c-1.29,3.9-5.34,13.46-15.33,19.12h-.02Zm-11.55,21.37s35.92,1.05,36.12,1.05c17.03,0,27.48-12.08,31.58-18h-50.54c-1.67,3.38-6.74,11.91-17.16,16.94Zm-14.95,20.01l18.6,2.27c22.63,2.72,38.03-10.08,44.15-16.43l-44.6-1.33c-1.89,3.18-7.55,11.35-18.16,15.47h0l.02.02Zm-17.47,16.98l8.68,2.34c18.6,5.05,35.63-5.18,43.06-10.68l-32.54-3.98c-2.18,2.76-8.59,9.73-19.18,12.29h0l-.02.02Zm-19.78,14.26c14.09,6.07,31.25-.4,39.48-4.34l-19.09-5.16c-2.67,2.36-10.5,8.54-20.38,9.5h-.02Zm-47.56-86.37c-5.48,2.63-14.66,9.72-17.56,28.28-2.85,18.18-.44,33.8,2.36,42.13-.2-7.46.25-19.36,2.54-29.76,3.98-18.03,9.7-33.34,12.66-40.64Z"/>
      <path id="path62" d="m271.05,352.05c7.23-2.18,14.02-5.48,20.14-9.7,0,0-11.1-18.2-12.95-44.44-.74-10.59-.54-20.34.15-28.28-2.42,7.19-5.03,15.98-7.14,25.57-4.94,22.5-.91,41.28-.87,41.46l.67,15.38h0Zm-32.52-70.17c-2.91-18.54-12.08-25.64-17.56-28.28,2.96,7.28,8.7,22.61,12.66,40.64,2.29,10.41,2.76,22.3,2.54,29.76,2.8-8.34,5.19-23.93,2.36-42.13h0Zm-15.64-34.05c9.62.05,28.97-.38,38.5-4.18,7.43-2.96,9.73-5.47,8.86-14.42-.93-9.44-9.15-18.49-11.31-20.7-1.87-.2-6.68-.67-8.66-.67-1.38,0-4.07.24-6.23.44.87,3.01,1,8.17-2.74,16.25-4.41,9.55-13.09,18.41-18.41,23.26h0v.02Z"/>
      <path id="path64" d="m220.44,201.31c-.07.15-.2.44-.33,1.02-2.25,9.24,4.54,20.3,4.54,20.3l-4.21,21.41c5.08-4.72,12.93-12.88,16.83-21.34,3.92-8.5,2.83-12.66,2.14-14.09-3.07-.16-11.33-1.16-18.01-6.77-.4-.35-.82-.78-.96-.53h0Zm8.84,93.91c-2.11-9.57-4.72-18.34-7.12-25.53.67,7.94.85,17.67.15,28.24-1.69,24.81-12.71,44.56-12.71,44.56,6.05,4.12,12.71,7.37,19.83,9.53l.73-15.35c.04-.18,4.07-18.98-.87-41.46Z"/>
      <path id="path167" d="m266,339.78c-.09-.44-.31-1.49-.54-3.05-2.2-3.18-12.91-23.03-7.83-55.53,3.81-24.39,17.87-31.16,23.32-32.89l-5.05-25.68s6.74-10.66,4.54-20.3c-.13-.58-.25-.87-.33-1.04-.16-.27-.56.2-.96.54-4.87,4.1-10.59,5.74-14.53,6.37,3.63,4.29,9.21,12.13,10.04,20.59,1.14,11.64-3.03,15.53-11.64,18.96-8.95,3.58-25.12,4.38-35.72,4.49,6.05,4.34,13.08,12.77,15.6,28.93,5.08,32.52-5.63,52.36-7.83,55.53-.24,1.56-.45,2.62-.54,3.05l-.31,10.62c8.72,7.66,23.83,7.34,32.09,0l-.31-10.62h0v.02Z"/>
      <path id="path165" d="m46.84,220.26h121.07s-6.9,18.51,2.42,38.08c5.19-19.85,16.62-36.17,33.09-47.94-.38-1.47-1.47-4.19-4.59-6.52-3.61-2.69-9.81-2.74-9.86-2.74H23c2.6,5.94,9.9,19.03,23.84,19.1h0v.02Z"/>
      <path id="path163" d="m477,201.16h-165.96s-6.25.04-9.86,2.74c-3.12,2.32-4.21,5.05-4.59,6.52,16.47,11.75,27.89,28.08,33.09,47.94,9.33-19.1,2.42-38.08,2.42-38.08h121.07c13.95-.07,21.25-13.17,23.84-19.1v-.02Z"/>
      <path id="path161" d="m202.84,168.07h-14.67v-23.86h-5.59v28.77h20.25"/>
      <path id="path159" d="m238.38,168.07h-14.38v-7.5h12.11v-4.54h-12.11v-6.92h14.02v-4.9h-19.61v28.77h19.98"/>
      <path id="path157" d="m268,172.98l11.22-28.77h-5.87l-7.7,21.76-7.79-21.76h-5.87l11.3,28.77"/>
      <path id="path155" d="m295.56,168.55c1.23,1.4,2.69,2.52,4.39,3.38,1.71.87,3.58,1.29,5.63,1.29,1.16,0,2.34-.15,3.56-.44,1.22-.29,2.36-.73,3.43-1.29s2.03-1.25,2.87-2.09c.85-.82,1.51-1.78,1.96-2.85l-4.58-2.63c-.33.78-.76,1.45-1.29,2-.54.56-1.13,1-1.76,1.36-.64.35-1.31.6-2,.76-.71.16-1.38.24-2.03.24-1.23,0-2.38-.27-3.41-.82s-1.92-1.25-2.67-2.14c-.74-.89-1.33-1.92-1.73-3.11-.4-1.18-.62-2.4-.62-3.67,0-1.13.18-2.27.53-3.43.35-1.14.87-2.18,1.56-3.09s1.54-1.63,2.6-2.22c1.04-.56,2.27-.85,3.67-.85.65,0,1.31.07,1.98.22s1.33.38,1.94.71c.62.33,1.2.76,1.74,1.31.54.56,1,1.23,1.38,2.05l4.29-2.96c-.94-1.87-2.38-3.38-4.32-4.54-1.92-1.16-4.21-1.74-6.86-1.74-2.23,0-4.25.42-5.99,1.25-1.76.84-3.23,1.92-4.45,3.29-1.22,1.34-2.14,2.89-2.78,4.59s-.96,3.45-.96,5.21.35,3.63,1.04,5.41,1.65,3.36,2.87,4.74h0l.02.05Z"/>
    </g>
  </g>
</svg>