<?xml version="1.0" encoding="UTF-8"?>
<svg id="Layer_1" data-name="Layer 1" xmlns="http://www.w3.org/2000/svg" width="500" height="500" viewBox="0 0 500 500">
  <rect width="500" height="500" fill="none"/>
  <path d="m250.98,88.47c25.45,0,50.91,2.94,73.91,8.32-25.45,37.2-75.87,107.2-98.39,138.53l-7.34,9.3s-31.33,43.56,27.41,43.56h173.28c4.89-12.24,6.36-25.45,6.36-38.67,0-55.8-39.65-104.26-96.43-127.76,5.87-6.36,10.28-13.22,13.22-19.09,77.34,25.45,132.65,81.26,132.65,146.85,0,23.5-7.83,46.5-20.07,67.06h-254.05s-81.26-.98-39.65-71.96c34.26-58.74,80.28-118.46,96.43-138.04h-9.3c-97.41,0-176.71,64.12-176.71,143.91s79.3,143.91,176.71,143.91c61.68,0,116.5-25.45,147.83-65.1h49.44c-38.67,48.95-112.58,82.23-196.78,82.23-124.82,0-225.17-71.96-225.17-161.04S125.18,89.45,249.02,89.45l1.96-.98Z" fill-rule="evenodd"/>
</svg>