<?xml version="1.0" encoding="UTF-8"?>
<svg id="Layer_1" data-name="Layer 1" xmlns="http://www.w3.org/2000/svg" width="500" height="500" viewBox="0 0 500 500">
  <rect width="500" height="500" fill="none"/>
  <g>
    <g>
      <path d="m194.29,329.44c29.77-90.97-31.48-169.24-31.48-169.24l-4.92,2.11c21.1,37.74-8.21,61.9-8.21,61.9,0,0,42.67,48.54,34,101.75l-8.91-2.81-1.63,5.4,9.39,2.81s0,6.56-5.4,19.69l7.51,3.29,7.51-19.69,7.14,2.81,1.05-5.57-6.04-2.46Z"/>
      <path d="m346.24,309.73c29.77-90.97-31.48-169.24-31.48-169.24l-4.92,2.11c21.1,37.74-8.21,61.9-8.21,61.9,0,0,42.67,48.54,34,101.75l-8.91-2.81-1.63,5.4,9.39,2.81s0,6.56-5.4,19.69l7.51,3.29,7.51-19.69,7.14,2.81,1.05-5.57-6.04-2.46h0Z"/>
      <path d="m275.31,349.18c40.92-125.04-43.26-232.59-43.26-232.59l-6.76,2.9c29,51.89-11.28,85.08-11.28,85.08,0,0,58.65,66.71,46.73,139.87l-12.25-3.88-2.26,7.42,12.89,3.88s0,9.02-7.42,27.07l10.3,4.52,10.3-27.07,9.83,3.88,1.45-7.66-8.3-3.38.02-.04Z"/>
    </g>
    <g>
      <path d="m250,27.96C127.38,27.96,27.96,127.38,27.96,250s99.42,222.04,222.04,222.04,222.04-99.42,222.04-222.04S372.64,27.96,250,27.96Zm87.43,32.73c4.11,2.04,7.4,4.37,9.88,7.02s3.12,5.18,1.91,7.64l-2.37,4.79c-1.54,3.1-5.58,3.71-12.16,1.84,5.64,3.86,7.57,7.55,5.82,11.09l-2.39,4.26c-3.16,6.39-4.04,10.47-2.64,12.21h-.02l-14.6-7.22c-1.01-1.91-.22-5.51,2.41-10.82v-.06l1.3-2.35c1.74-3.29,2.63-4.96,2.66-5.03.68-1.36-.51-2.79-3.53-4.28l-9.48,19.18-14.6-7.22,19.76-39.97,18.04,8.91Zm-64.19-20.06l31,6.36-1.16,5.6-15.04-3.09-2.42,11.83,13.57,2.79-1.08,5.31-13.57-2.79-3.14,15.36,15.24,3.12-1.16,5.6v-.02l-31.21-6.39,8.96-43.68Zm-15.24-1.45l.22,5.8-9.09.35,1.45,38.76-16.27.61-1.45-38.76-9.09.35-.22-5.8,34.46-1.3Zm-67.63,8.61c10.76-3.25,16.92-2.37,18.44,2.66l2.24,7.38-14.16,4.28-2.37-7.86c-.26-.84-1.18-1.05-2.76-.57-1.86.55-2.53,1.67-2.02,3.31l1.14,2.68c.48,1.58,2.79,2.9,6.94,3.95,7.66,1.78,12.58,3.14,14.8,4.1,2.22.96,3.62,2.37,4.19,4.26l1.65,5.46c1.73,5.68-3.45,10.34-15.5,13.98-11.63,3.53-18.22,2.7-19.78-2.46l-2.94-9.73h-.06l14.16-4.28,2.96,9.79c.29.97,1.41,1.16,3.38.57,1.89-.57,2.7-1.34,2.41-2.31l-1.52-5.05c-.46-1.54-2.74-2.85-6.8-3.89-7.81-1.86-12.71-3.21-14.73-4.06-2.02-.84-3.27-2.06-3.75-3.64l-1.45-4.79c-1.67-5.53,3.49-10.12,15.52-13.76Zm-30.56,12.27l21.34,39.14h.02l-14.31,7.79-21.34-39.14,14.29-7.79Zm-36.07,23.11l24.48,30.2,11.08-8.98,3.59,4.43h0s0,.01,0,.01h0s-23.72,19.23-23.72,19.23l-28.08-34.62,12.66-10.27Zm126.28,322.31v-.02c-85.85,0-155.46-69.59-155.46-155.46S164.15,94.56,250,94.56s155.46,69.59,155.46,155.46-69.59,155.46-155.46,155.46Z"/>
      <path d="m331.66,75.05h-.02l3.27-6.59c.7-1.4-.46-2.83-3.45-4.32l-5.34,10.82c2.99,1.49,4.85,1.52,5.55.09Z"/>
    </g>
  </g>
</svg>