<?xml version="1.0" encoding="UTF-8"?>
<svg id="Layer_1" data-name="Layer 1" xmlns="http://www.w3.org/2000/svg" width="500" height="500" viewBox="0 0 500 500">
  <rect width="500" height="500" fill="none"/>
  <g>
    <circle cx="184.55" cy="289.54" r="18.68" transform="translate(-61.59 50.15) rotate(-13.28)"/>
    <path d="m250,30.89c-288.02,4.92-287.97,433.35.01,438.22,288.01-4.92,287.97-433.34-.01-438.22Zm151.73,359.31c-36.53,41.54-88.98,64.08-151.71,65.2-62.72-1.11-115.17-23.65-151.71-65.18-16.44-18.68-29.18-40.61-37.88-65.19-8.44-23.84-12.72-49.08-12.72-75.02,0-25.95,4.27-51.18,12.71-75.02,8.69-24.58,21.43-46.51,37.87-65.19,36.53-41.54,88.99-64.08,151.71-65.2h0c62.72,1.11,115.17,23.65,151.7,65.18,16.43,18.68,29.18,40.61,37.88,65.19,8.44,23.84,12.72,49.08,12.72,75.02s-4.27,51.18-12.71,75.02c-8.69,24.58-21.43,46.51-37.86,65.19Z"/>
    <path d="m302.53,117.2l-.07-.07c-13.46-13.44-31.98-21.76-52.45-21.76s-39.1,8.32-52.56,21.76c0,0-.02.02-.06.06-23.04,22.78-119.22,135.84-119.22,135.84-7.81,10.09-12.45,22.75-12.45,36.49,0,2.38.14,4.72.42,7.03,2.04,17.42,11.58,32.55,25.31,42.06,0,0,40.55,31.63,159,31.63s158.11-31.63,158.11-31.63c13.49-9.35,22.94-24.12,25.21-41.15.35-2.59.53-5.24.53-7.93,0-13.75-4.65-26.4-12.45-36.49,0,0-96.41-112.91-119.31-135.84Zm-156.98,202.5h-43.83v-60.09h13.04v47.48h32.31l-1.53,12.62Zm38.99.92c-17.13,0-31.02-13.89-31.02-31.02s13.89-31.02,31.02-31.02,31.02,13.89,31.02,31.02-13.89,31.02-31.02,31.02Zm71.98-48.48v47.56h-13.04v-47.56h-19.37l1.52-12.53h48.81l1.51,12.53h-19.43Zm-6.56-41.74c-23.26,0-42.88-15.58-49-36.88l-17.74,17.74h-9.27l25.43-25.43c-.26-2.1-.4-4.23-.4-6.39,0-28.15,22.82-50.97,50.97-50.97,21.29,0,39.53,13.05,47.15,31.6h-7.17c-7.2-14.8-22.38-25-39.95-25-24.53,0-44.41,19.88-44.41,44.41v.15l27.14-27.14c3.49-3.4,8.05-5.26,12.88-5.26h16.31c9.77,0,17.73,7.95,17.73,17.73,0,5.95-2.96,11.23-7.47,14.45,4.52,3.21,7.47,8.49,7.47,14.44,0,9.76-7.95,17.7-17.73,17.7h-15.2v-14.29c-7.38-1.35-13.21-7.19-14.56-14.57h-20.36l-5.34,5.34-.02.02c4,20.42,21.99,35.82,43.58,35.82,17.48,0,32.6-10.1,39.84-24.76h7.15c-7.7,18.38-25.86,31.3-47.04,31.3Zm93.19,63.48c0,14.77-11.97,26.74-26.74,26.74s-26.74-11.97-26.74-26.74v-33.85h12.97v33.85c0,7.6,6.16,13.77,13.77,13.77s13.77-6.16,13.77-13.77v-34.26h0s12.97,0,12.97,0v34.27Zm59.41,17.54c-1.84,2.82-4.59,5.06-8.26,6.71-3.68,1.65-8.14,2.48-13.4,2.48-4.55,0-8.94-.64-13.19-1.92-3.41-1.03-6.28-2.31-8.62-3.84l1.54-12.69,1.36,1.1c2.47,1.88,5.4,3.39,8.8,4.53,3.4,1.14,6.8,1.71,10.2,1.71,3.78,0,6.58-.58,8.38-1.75,1.81-1.17,2.71-2.72,2.71-4.66,0-1.42-.54-2.6-1.6-3.55-1.07-.94-2.44-1.69-4.11-2.26-1.67-.57-3.93-1.2-6.78-1.88-4.39-1.08-7.97-2.16-10.77-3.25-2.79-1.08-5.19-2.82-7.19-5.21s-3-5.58-3-9.58c0-3.47.91-6.63,2.71-9.45,1.81-2.82,4.53-5.05,8.18-6.71,3.65-1.65,8.1-2.48,13.36-2.48,3.67,0,7.26.45,10.77,1.36,3.5.91,6.58,2.22,9.21,3.93l-4.11,10.52c-5.32-3.13-10.63-4.7-15.95-4.7-3.72,0-6.48.63-8.26,1.88-1.78,1.25-2.67,2.9-2.67,4.96s1.02,3.58,3.08,4.58,5.2,1.98,9.42,2.95c4.39,1.08,7.97,2.16,10.77,3.25,2.79,1.08,5.19,2.79,7.19,5.13h0c2,2.34,3,5.5,3,9.48,0,3.42-.92,6.54-2.75,9.36Z"/>
    <path d="m246.73,161.55v-7.79h-1.11c-3.11,0-6.04,1.19-8.27,3.36l-18.99,19h13.8c1.35-7.38,7.18-13.22,14.56-14.57Z"/>
    <path d="m273.11,164.95c0-6.17-5.02-11.18-11.18-11.18h-8.65v7.78c5.01.92,9.3,3.89,11.97,8.02h-9.12c-.88-.55-1.83-.98-2.84-1.28v7.85h8.65c6.17,0,11.18-5.01,11.18-11.18Z"/>
    <path d="m238.41,179.4c0,5.25,3.52,9.7,8.31,11.11v-22.23c-4.8,1.42-8.31,5.86-8.31,11.11Z"/>
    <path d="m265.24,189.22c-2.67,4.12-6.96,7.1-11.97,8.02v7.74h8.65c6.17,0,11.18-5,11.18-11.14s-5.02-11.17-11.19-11.17h-8.65v7.84c1.02-.3,1.97-.74,2.85-1.29h9.12Z"/>
  </g>
</svg>