<?xml version="1.0" encoding="UTF-8"?>
<svg id="Layer_1" data-name="Layer 1" xmlns="http://www.w3.org/2000/svg" width="500" height="500" viewBox="0 0 500 500">
  <rect width="500" height="500" fill="none" stroke-width="0"/>
  <path d="m353.43,305.22h-34.63v67.62h34.92v-30.51l41.22,30.51h34.9v-67.62h-34.93v30.78l-41.49-30.78h0Zm-103.43-178.07c-122.63,0-222.04,99.41-222.04,222.04,0,7.99.42,15.88,1.24,23.65h23.25c-.93-7.85-1.39-15.75-1.39-23.65,0-109.86,89.07-198.93,198.93-198.93s198.93,89.07,198.93,198.93c0,8.01-.47,15.9-1.39,23.65h23.25c.83-7.86,1.25-15.75,1.24-23.65,0-122.63-99.41-222.04-222.04-222.04h0Zm18.63,178.07h-37.13l-44.01,67.62h36.04l4.89-7.57h43.28l4.89,7.57h36.04l-44.01-67.62Zm-8.44,42.08h-20.25l10.13-15.65,10.13,15.65Zm-157.92-42.08h-32.76v67.62h34.93v-26.74l20.86,20.86,20.86-20.86v26.74h34.93v-67.62h-32.76l-23.03,23.03-23.03-23.03Z" stroke-width="0"/>
</svg>