<?xml version="1.0" encoding="UTF-8"?>
<svg id="Layer_1" data-name="Layer 1" xmlns="http://www.w3.org/2000/svg" width="500" height="500" viewBox="0 0 500 500">
  <rect width="500" height="500" fill="none"/>
  <path d="m475.89,211.31s-18.98-6.37-25.17,2.23c-6.23,8.6-6.2-2.82-7.69-4.49-3.73-4.14-17.2-3.8-21.62,5.08-4.46,8.88-14.45,37.92-21.27,39.69-6.82,1.78,10.62-46.03-10.45-38.82-10.38,3.55-28.17,48.6-32.59,44.15-4.46-4.46,30.53-79.1,21.93-85.93s-18.42-7.69-22.21-3.55c-9.44,10.24-5.26,33.88-18.66,52.43-12.53,17.37-26.36,19.43-26.36,0,0-6.82-14.24-5.64-18.73,4.35-6.3,13.93-12.67,38.61-23.64,43.66-10.97,5.05,13.34-43.87,13.02-47.7s-43.9-6.58-77.64,38.65c-23.12,30.99,28.34-75.69,25.49-80.74-2.75-4.84-22.53-16.5-59.26,56.3-16.61,32.9,2.51-41.01-5.78-51.56-7.35-9.33-32.14-4.46-35.41-.31-3.27,4.14-46.83,91.26-105.5,134.99-2.26,1.71-1.78,6.23,2.23,11.11,4,4.87,32.83,0,41.78-5.57,17.41-10.79,54.66-61.1,54.66-61.1,0,0-7.42,29.59-27.54,55.12-13.34,16.89,21.9,8.04,27.54,4,14.07-10.1,43.56-53.79,43.56-53.79,0,0,11.07-.77-18.66,44.88-11.11,17.03,5.19,16.57,21.34,7.1,11.66-6.82,23.57-21.8,23.57-21.8,0,0-2.23,12.01,4,15.56,6.23,3.55,14.73,3.8,27.12-12.43,7.1-9.33,6.23,10.24,8.88,12.01,2.68,1.78,20.96,2.92,32.45-23.99,8.01-18.77,2.12,16.02,5.78,19.11,5.78,4.87,16.43,2.68,20.89-4,4.46-6.65,20.44-37.78,23.57-37.78s-7.1,28.9,0,37.78c7.1,8.88,32.45-22.67,32.45-22.67,0,0-.07,16.5,4.46,19.99,11.11,8.6,38.23-21.8,38.23-23.57s4,4.87,1.78,16.89c-.94,5.08,9.57,16.33,45.33-38.68,11.56-17.79-7.9,32.83-1.32,38.23,9.78,8.01,47.11-21.34,39.55-84.88l-.1.07Zm-247.97,68.87c-5.47,7.56-11.98,7.21-15.11,4.11-3.13-3.1-.31-11.04,6.3-17.69,6.62-6.65,13.34-7,13.96-2.44.17,1.15.38,8.43-5.15,16.02Z"/>
</svg>