<?xml version="1.0" encoding="UTF-8"?>
<svg id="Layer_1" data-name="Layer 1" xmlns="http://www.w3.org/2000/svg" width="500" height="500" viewBox="0 0 500 500">
  <rect width="500" height="500" fill="none"/>
  <path d="m212.32,399.11h75.37v18.61h-75.37v-18.61h0Zm9.3,26.05h57.22v38.62h-57.22v-38.62Zm-83.74-112.58h224.71v9.3h-224.71v-9.3Zm-12.1,17.68h248.43v9.3H125.78s0-9.3,0-9.3Zm-.47-34.89h248.43v9.3H125.32s0-9.3,0-9.3Zm163.76,64.2c-12.56,11.16-12.56,31.63-12.56,31.63h-53.5s0-20.47-12.56-31.63c-8.84-7.91-19.54-9.77-19.54-9.77-6.98-1.39-6.98-2.33-6.98-2.79h130.73s0,1.39-6.98,2.79c.93.47-9.77,1.86-18.61,9.77h-.01Zm-150.27-12.1h26.98c0,15.82-10.24,23.26-26.98,19.54v-19.54ZM234.18,89.73c10.7-21.4,13.03-53.03,15.82-53.5,2.79.47,4.66,32.57,15.35,53.5,10.24,20.01,32.1,37.22,30.71,39.08-1.39,2.33-13.49-3.72-19.54-6.52-9.77-4.66-17.68-7.91-17.68-7.91,0,0-3.72,50.71,8.38,97.7,10.24,38.15,34.43,73.51,36.75,76.3h-31.17l-2.79-4.66c-8.38-14.89-14.42-27.45-20.01-49.78-6.05,21.87-12.1,34.89-20.47,49.78l-2.79,4.66h-31.17c2.33-3.25,26.52-38.15,36.75-76.3,12.56-46.99,8.38-97.7,8.38-97.7,0,0-7.91,3.72-17.68,7.91-6.05,2.79-18.15,8.84-19.54,6.52-.93-1.86,20.93-19.07,30.71-39.08h0Zm-96.3,198.65c0-3.72-2.33-55.36-13.96-95.84-13.02-44.2-40-70.71-38.14-73.51,1.86-2.33,23.73,1.86,40.01,13.49,17.68,12.1,34.89,32.1,33.49,33.49-.93.93-6.52-4.19-17.68-7.91-11.16-4.19-16.28-3.25-16.28-3.25,0,0,19.07,31.17,28.38,65.13,7.91,28.38,12.1,65.13,12.1,68.39h-27.92Zm224.24,0c0-3.72,1.86-55.36,13.96-95.84,13.03-44.2,40.01-70.71,38.15-73.51-1.39-2.33-23.73,1.86-40.01,13.49-17.68,12.1-34.89,32.1-33.49,33.49.93.93,6.52-4.19,17.21-7.91,11.63-4.19,16.28-3.25,16.28-3.25,0,0-19.07,31.17-28.38,65.13-7.91,28.38-12.1,65.13-12.1,68.39h28.38Zm-.93,59.09h-26.98c0,15.82,10.24,23.26,26.98,19.54v-19.54Z" fill-rule="evenodd"/>
</svg>