<?xml version="1.0" encoding="UTF-8"?>
<svg id="Layer_1" data-name="Layer 1" xmlns="http://www.w3.org/2000/svg" width="500" height="500" viewBox="0 0 500 500">
  <rect width="500" height="500" fill="none"/>
  <g>
    <path d="m239.89,248.13h20.23v4.99h-20.23v-4.99Zm2.5,6.99h15.36v10.36h-15.36v-10.36Zm-22.47-30.22h60.31v2.5h-60.31v-2.5Zm-3.25,4.75h66.68v2.5h-66.68v-2.5Zm-.13-9.37h66.68v2.5h-66.68v-2.5Zm43.95,17.23c-3.37,3-3.37,8.49-3.37,8.49h-14.36s0-5.49-3.37-8.49c-2.37-2.12-5.24-2.62-5.24-2.62-1.87-.37-1.87-.62-1.87-.75h35.09s0,.37-1.87.75c.25.13-2.62.5-4.99,2.62h0Zm-40.33-3.25h7.24c0,4.25-2.75,6.24-7.24,5.24v-5.24Zm25.6-69.17c2.87-5.74,3.5-14.23,4.25-14.36.75.13,1.25,8.74,4.12,14.36,2.75,5.37,8.62,9.99,8.24,10.49-.37.62-3.62-1-5.24-1.75-2.62-1.25-4.75-2.12-4.75-2.12,0,0-1,13.61,2.25,26.22,2.75,10.24,9.24,19.73,9.86,20.48h-8.37l-.75-1.25c-2.25-4-3.87-7.37-5.37-13.36-1.62,5.87-3.25,9.37-5.49,13.36l-.75,1.25h-8.37c.62-.87,7.12-10.24,9.86-20.48,3.37-12.61,2.25-26.22,2.25-26.22,0,0-2.12,1-4.75,2.12-1.62.75-4.87,2.37-5.24,1.75-.25-.5,5.62-5.12,8.24-10.49h0Zm-25.85,53.32c0-1-.62-14.86-3.75-25.72-3.5-11.86-10.74-18.98-10.24-19.73.5-.62,6.37.5,10.74,3.62,4.75,3.25,9.37,8.62,8.99,8.99-.25.25-1.75-1.12-4.75-2.12-3-1.12-4.37-.87-4.37-.87,0,0,5.12,8.37,7.62,17.48,2.12,7.62,3.25,17.48,3.25,18.35h-7.49,0Zm60.18,0c0-1,.5-14.86,3.75-25.72,3.5-11.86,10.74-18.98,10.24-19.73-.37-.62-6.37.5-10.74,3.62-4.75,3.25-9.37,8.62-8.99,8.99.25.25,1.75-1.12,4.62-2.12,3.12-1.12,4.37-.87,4.37-.87,0,0-5.12,8.37-7.62,17.48-2.12,7.62-3.25,17.48-3.25,18.35h7.62Zm-.25,15.86h-7.24c0,4.25,2.75,6.24,7.24,5.24v-5.24Z" fill-rule="evenodd"/>
    <path d="m356.88,308.44l-6.37,16.36h12.24l-5.87-16.36h0Zm-9.86,25.22c-1,2.37-2.12,5.49-2.12,7.99s2.37,3,4.25,3.37l3,.25v2.37h-18.6v-2.25c3.75-.75,5.24-1.62,6.87-4.99.5-1,1-2.25,1.5-3.75l1.25-3.12,11.86-29.97-1.12-3.25h8.12l12.36,33.21,2.12,5.74c.5,1.25,1.25,3.75,2.37,4.75.87.87,2.25,1.12,5.12,1.25v2.37h-22.47v-2.37c4-.13,6.99-.25,6.99-2.87,0-1.5-.62-3.75-1.5-5.62l-1.12-3.25-1.87-5.49h-14.98l-2,5.62h0Zm-49.07-29.72c-1.62,0-3.37.25-4.37.25v21.35h4.49c2.25,0,4.37-.25,6.49-1.25,2.37-1.25,4.37-3.87,4.37-9.24,0-8.74-6.37-11.11-10.99-11.11h0Zm-4.37,29.72v4.62c0,5.99.62,7.12,4.87,7.12h3.37v2.37h-23.85v-2.37c6.99.25,7.49-1.62,7.49-5.74v-29.72c0-4.75-.75-4.75-7.49-5.12v-2.37c4.62-.5,10.74-1.12,18.73-1.12,3.62,0,20.6,0,20.6,13.36,0,5.37-2.5,8.74-7.12,10.99-1,.5-2,.75-2.75,1.12.87.87,1.62,1.62,2.37,2.62.62,1,1.37,2.25,2.37,4.37l1.5,3.25c3.5,7.12,5.37,8.49,9.24,9.24v2.37c-6.74.25-12.11-2.25-16.48-8.99-.62-.87-2-3.37-3.37-5.87-1.25-2.37-2.62-4.62-3.12-5.49h-6.37v5.37h0Zm-165.44-25.22l-6.37,16.36h12.24l-5.87-16.36h0Zm-9.86,25.22c-.87,2.37-2,5.49-2,7.99s2.25,3,4.25,3.37l2.87.25v2.37h-18.48v-2.25c3.87-.75,5.24-1.62,6.87-4.99l1.5-3.75,1.25-3.12,11.99-29.97-1.12-3.25h8.12l12.36,33.21,2.12,5.74c.5,1.25,1.25,3.75,2.37,4.75,1,.87,2.25,1.12,5.24,1.25v2.37h-22.73v-2.37c3.87-.13,6.99-.25,6.99-2.87,0-1.5-.75-3.75-1.5-5.62l-1.12-3.25-2-5.49h-14.86l-2.12,5.62h0Zm350.61,0v4.87c0,5.62,1.5,6.49,8.12,6.87v2.37h-23.6v-2.37c5.62-.37,5.74-.5,6.37-1.62,1.12-1.75,1.12-7.37,1.12-9.61v-23.1c0-5.62-1.12-6.37-7.87-6.87v-2.37h23.6v2.37c-7.74.25-7.87,1.37-7.87,8.99v20.48h.13Zm-51.07,0v5.37c0,3.12.25,4.49,1.37,5.24.62.37,1.37.62,2.5.75s2.62.25,4.62.25v2.37h-25.35v-2.37c2.25-.13,3.75-.25,4.87-.25,1.12-.25,2-.37,2.5-.75,1-.62,1.25-2,1.25-4.75v-34.71h-7.62c-3,0-4.25.25-4.99.75-.62.37-1,.87-1.37,1.87s-.75,2.5-1.62,5.12h-2.25l1-12.11h1.87c.75,1.25,1.37,1.37,2.62,1.5h31.22c3.37,0,3.75-.25,4.25-1.5h1.87l1.12,12.11h-2.37c-1.62-7.62-3.12-7.74-6.99-7.74h-8.49v28.84h0Zm-181.93,0v6.87c0,4.25.25,4.25,4.49,4.25h7.99c4.62,0,6.99-.75,8.99-8.74h2.5l-1.12,11.49h-38.46v-2.37c6.87.25,7.37-1.62,7.37-5.74v-29.59c0-5.12-1.37-5.99-7.37-5.87v-2.12h36.46l.5,10.49h-2.37c-1.25-6.99-2.87-7.49-7.87-7.49h-11.24v18.23h11.11c3.75,0,4.75,0,5.37-5.62h2.5v14.36h-2.5c-.25-5.74-1-5.99-6.12-5.99h-10.36v7.87h.13Zm-35.21,0c.13.75.25,1.62.25,2.37,0,6.99-5.62,13.23-14.36,13.23-1.37,0-2.25-.13-3.5-.25-1.25-.25-2.87-.75-5.62-1.5-.5-.25-.87-.25-1.25-.25-.87,0-1.12.25-1.12,1h-2.25l-1.37-11.86h2.5c3.12,8.99,9.61,10.11,11.74,10.11,2.87,0,8.62-1.87,8.62-7.87,0-2-.62-3.62-1.75-5.12-1.87-2.5-5.24-4.49-9.86-7.37-9.37-5.74-11.11-9.99-11.11-14.11,0-6.87,6.24-11.86,12.61-11.86,2.5,0,4.75.37,6.74,1.12.62.25,2.75,1.12,3.12,1.12.25,0,.62-.25,1.25-1h2.25l1.12,10.99h-2.5c-2.25-5.87-5.87-9.49-10.99-9.49-4,0-6.99,3-6.99,6.37,0,2.12.62,3.5,2.5,5.24,1,.87,2.37,2,4.12,3.12l6.62,4.37c2.12,1.37,4.12,2.75,5.74,4.62,1.62,2,3,4.25,3.5,6.99h0Zm-165.32,0l-.5,5.62c-.13.5-.13,2-.13,3.12,0,2.87,4,2.87,6.49,2.87v2.37h-18.23v-2.37c7.87-.37,7.87-.75,8.49-8.74l.25-3,2-24.6c.25-4.37-.5-4.37-6.49-4.75v-2.37h15.48l13.73,31.71,1,2.37,1.12-2.37,13.86-31.71h15.23v2.37c-1.87,0-3,0-4,.13-.87.25-1.5.37-1.87.75-.75.75-.87,2.37-.62,5.87l1.5,22.73.25,4.12c.37,5.99.5,7.87,7.37,7.62v2.37h-22.35v-2.37c1.62-.13,4-.25,5.49-.75,1.25-.5,2-1.25,2-2.87,0-.62-.25-2.75-.25-3.37l-.25-4.62-1.5-24.97-10.99,24.97-6.12,14.11h-2.25l-5.99-14.11-10.61-24.97-2.12,24.85h0Z"/>
  </g>
</svg>