<?xml version="1.0" encoding="UTF-8"?>
<svg id="Layer_1" data-name="Layer 1" xmlns="http://www.w3.org/2000/svg" width="500" height="500" viewBox="0 0 500 500">
  <rect width="500" height="500" fill="none" stroke-width="0"/>
  <path d="M250,111.47c-124.3,0-224.97,58.21-224.97,136.56s100.67,140.5,224.97,140.5,224.97-63.9,224.97-140.5-100.67-136.56-224.97-136.56ZM398.38,325.06c-36.77,26.7-91.04,42.46-148.38,42.46s-111.61-15.32-148.38-42.46v-.88c10.07-11.38,30.2-32.83,50.77-49.9.44-.44.88-.44,1.75-.44.44,0,.88,0,1.31.44,11.82,7,20.57,12.69,29.76,18.38,14.44,9.19,29.76,18.82,57.78,34.14,2.19,1.31,4.38,1.75,6.57,1.75s4.81-.44,6.57-1.75c28.01-15.32,42.89-24.95,57.77-34.14,9.19-6.13,17.95-11.38,29.76-18.38.44-.44.88-.44,1.31-.44s1.31.44,1.75.44c21.01,17.07,41.14,38.52,50.77,49.9q.88.44.88.88v-.18.18ZM179.97,249.78c0-.44,0-1.31.88-1.75,12.26-11.82,33.7-30.64,66.09-52.96.88-.88,1.75-.88,3.06-.88s2.19.44,3.06.88c32.39,21.88,53.84,40.71,66.09,52.96.88.44.88,1.31.88,1.75s0,1.31-.88,1.75c-11.82,10.5-32.83,26.7-65.65,44.21-.88.44-2.19.88-3.5.88s-2.19-.44-3.5-.88c-32.83-17.95-53.84-34.14-65.65-44.21-.88-.88-.88-1.75-.88-1.75ZM423.33,301.43c-85.35-94.54-143.56-144-170.7-165.01l-2.63-2.19-2.63,2.19c-27.14,21.01-85.35,70.47-170.7,165.01-13.13-16.63-20.13-34.14-20.13-52.52,0-15.76,4.81-31.08,14.88-45.08,9.63-13.57,23.2-25.82,41.14-36.33,35.89-21.45,84.91-33.26,137.43-33.26s101.11,11.82,137.43,33.26c17.51,10.5,31.51,22.76,41.14,36.33,9.63,14.01,14.88,29.33,14.88,45.08,0,18.38-7,35.89-20.13,52.52Z" stroke-width="0"/>
</svg>