<?xml version="1.0" encoding="UTF-8"?>
<svg id="Layer_1" data-name="Layer 1" xmlns="http://www.w3.org/2000/svg" width="500" height="500" viewBox="0 0 500 500">
  <rect width="500" height="500" fill="none" stroke-width="0"/>
  <g>
    <path d="M250,97.54c-107.1,0-193.83,50.15-193.83,117.66s86.73,121.05,193.83,121.05,193.83-55.06,193.83-121.05-86.73-117.66-193.83-117.66ZM377.84,281.56c-31.68,23-78.44,36.58-127.84,36.58s-96.16-13.2-127.84-36.58v-.75c8.67-9.8,26.02-28.28,43.74-42.99.38-.38.75-.38,1.51-.38.38,0,.75,0,1.13.38,10.18,6.03,17.72,10.94,25.64,15.84,12.44,7.92,25.64,16.22,49.78,29.41,1.89,1.13,3.77,1.51,5.66,1.51s4.15-.38,5.66-1.51c24.13-13.2,36.96-21.49,49.78-29.41,7.92-5.28,15.46-9.8,25.64-15.84.38-.38.75-.38,1.13-.38s1.13.38,1.51.38c18.1,14.71,35.45,33.18,43.74,42.99q.75.38.75.75v-.16.16ZM189.66,216.7c0-.38,0-1.13.75-1.51,10.56-10.18,29.04-26.4,56.94-45.63.75-.75,1.51-.75,2.64-.75s1.89.38,2.64.75c27.91,18.86,46.38,35.07,56.94,45.63.75.38.75,1.13.75,1.51s0,1.13-.75,1.51c-10.18,9.05-28.28,23-56.57,38.09-.75.38-1.89.75-3.02.75s-1.89-.38-3.02-.75c-28.28-15.46-46.38-29.41-56.57-38.09-.75-.75-.75-1.51-.75-1.51ZM399.33,261.2c-73.53-81.45-123.69-124.07-147.07-142.17l-2.26-1.89-2.26,1.89c-23.38,18.1-73.53,60.71-147.07,142.17-11.31-14.33-17.35-29.41-17.35-45.25,0-13.58,4.15-26.77,12.82-38.84,8.3-11.69,19.99-22.25,35.45-31.3,30.92-18.48,73.16-28.66,118.41-28.66s87.11,10.18,118.41,28.66c15.08,9.05,27.15,19.61,35.45,31.3,8.3,12.07,12.82,25.27,12.82,38.84,0,15.84-6.03,30.92-17.35,45.25Z" stroke-width="0"/>
    <g>
      <polygon points="238.36 402.21 256.21 386.17 274.06 402.21 291.39 402.21 268.62 382.29 290.61 364.18 274.06 364.18 256.21 378.41 238.36 364.18 221.55 364.18 243.79 382.29 221.29 402.21 238.36 402.21" stroke-width="0"/>
      <path d="M125.58,364.18h-22.25c-3.36,0-6.21,1.55-7.76,3.88-1.55-2.33-4.4-3.88-7.76-3.88h-31.82v38.03h14.49v-27.94c0-1.29,1.29-2.59,2.85-2.59h12.93c1.55,0,2.85,1.03,2.85,2.59v27.94h13.19v-27.94c0-1.29,1.29-2.59,2.85-2.59h12.93c1.55,0,2.85,1.03,2.85,2.59v27.94h14.49v-29.75c-.78-4.66-4.91-8.28-9.83-8.28" stroke-width="0"/>
      <path d="M351.4,392.12c0,1.55-1.29,2.59-2.85,2.59h-31.3c-1.55,0-2.85-1.03-2.85-2.59v-27.94h-16.04v30.01c0,4.66,4.14,8.28,9.05,8.28h50.7c4.91,0,9.05-3.62,9.05-8.28v-30.01h-16.04l.26,27.94h0Z" stroke-width="0"/>
      <path d="M396.15,371.94h47.86v-7.76h-58.2c-5.17,0-9.05,3.62-9.05,8.28v5.43c0,4.66,4.14,8.28,9.05,8.28h38.28c2.07,0,3.62,1.55,3.62,3.36v.78c0,1.81-1.55,3.36-3.62,3.36h-48.11v7.76h58.46c5.17,0,9.31-3.62,9.31-8.28v-6.47c0-4.66-4.14-8.28-9.31-8.28h-38.28c-2.07,0-3.62-1.55-3.62-3.36h0c0-1.55,1.55-3.1,3.62-3.1" stroke-width="0"/>
      <path d="M205.25,363.92h-51.48c-5.17,0-9.05,3.88-9.05,8.28v29.75h16.3v-14.74h36.99v15h16.3v-30.01c0-4.66-4.14-8.28-9.05-8.28ZM198.26,379.7h-37.25v-5.43c0-1.29,1.29-2.59,2.85-2.59h31.56c1.55,0,2.85,1.03,2.85,2.59v5.43Z" stroke-width="0"/>
    </g>
  </g>
</svg>