<?xml version="1.0" encoding="UTF-8"?>
<svg id="Layer_1" data-name="Layer 1" xmlns="http://www.w3.org/2000/svg" width="500" height="500" viewBox="0 0 500 500">
  <rect width="500" height="500" fill="none"/>
  <g>
    <path d="m262.21,392.88c1.11-1.13,1.68-2.8,1.68-4.19,0-4.73-3.11-7.13-9.25-7.13h-14.53v24.73h17.12c5.36,0,8.82-2.85,8.82-7.25,0-2.64-1.6-5.1-3.84-6.16Zm-17.7-7.23h11c3.08,0,4.18.8,4.18,3.07s-1.11,3.13-4.24,3.13h-10.94v-6.2Zm12.42,16.55h-12.42v-6.54h11.99c2.35,0,5.16.55,5.16,3.19,0,.83,0,3.35-4.73,3.35Z"/>
    <polygon points="223.03 381.5 214.7 391.19 207.28 380.79 202.07 380.55 212.33 395.16 211.85 405.75 216.24 405.95 216.72 395.37 228.25 381.75 228.24 381.74 223.03 381.5"/>
    <polygon points="147.24 374.05 132.5 391.65 123.9 370.36 119.88 369.72 116.02 394.14 120.36 394.83 122.83 379.17 129.78 396.32 133.64 396.93 145.53 382.76 143.06 398.42 147.4 399.1 151.26 374.68 147.24 374.04 147.24 374.05"/>
    <path d="m173.99,377.84l-13.49,23.62,4.74.43,3.16-5.57,17.13,1.53,2.12,6.04,4.74.42-9.07-25.63-9.33-.84Zm-3.36,14.51l5.54-10.07h0s4.2.37,4.2.37l3.67,10.9-13.41-1.2Z"/>
    <path d="m288.37,381.18l-10.11,25.25,4.76-.23,2.36-5.95,17.17-.84,2.93,5.69,4.76-.23h0l-12.52-24.15-9.36.46Zm-1.33,14.84l4.1-10.74h.01s4.21-.21,4.21-.21l5.13,10.29-13.45.66Z"/>
    <polygon points="192.39 404.32 192.39 404.31 192.39 404.31 192.39 404.32" fill="none"/>
    <polygon points="375.45 370.4 375.43 370.4 376.96 379.64 360.41 382.38 358.88 373.14 354.55 373.86 358.59 398.26 362.92 397.54 361.1 386.54 377.66 383.8 379.48 394.8 383.82 394.08 379.79 369.68 375.45 370.4"/>
    <path d="m340.93,393.89c-1.81,2.76-5.17,4.67-8.98,5.1-6.21.71-11.71-2.64-12.27-7.48-.56-4.84,4.04-9.36,10.25-10.07,3.81-.44,7.5.66,9.89,2.92l2.78-2.93c-3.25-3.08-8.16-4.58-13.13-4-8.42.97-14.62,7.5-13.81,14.55.81,7.05,8.33,12.01,16.75,11.04,5-.57,9.44-3.16,11.9-6.9l.41-.63-3.38-2.23-.41.63Z"/>
    <polygon points="342.61 381.42 342.6 381.42 342.61 381.43 342.61 381.42" fill="none"/>
    <path d="m318.12,277.44l17.27-17.27v103.47c8.18-1.02,16.34-2.19,24.47-3.5v-124.83c-4.9-6.45-10.02-12.74-15.34-18.87l-26.4,26.4v34.6Z" fill="none"/>
    <path d="m250,213.92l-45.02-45.03c-6.97,5.57-13.71,11.37-20.23,17.39v179.55c8.14.77,16.3,1.39,24.47,1.87v-159.97l40.78,40.78,40.78-40.78v159.97c8.17-.48,16.33-1.1,24.47-1.87v-179.55h.01c-6.53-6.01-13.27-11.82-20.23-17.39l-45.03,45.03Z" fill="none"/>
    <path d="m140.14,235.3v124.83c8.13,1.31,16.29,2.49,24.47,3.5v-103.46l17.27,17.27v-34.6h0s-26.4-26.41-26.4-26.41c-5.31,6.13-10.43,12.42-15.34,18.87Z" fill="none"/>
    <path d="m250,88.92C135.97,147.64,55.62,252.74,29.14,377.7c71.2,22.57,145.5,34.02,220.85,34.02s149.66-11.45,220.85-34.02c-26.47-124.96-106.83-230.05-220.84-288.77Zm0,286.96c-60.3,0-119.88-7.7-177.57-22.92,28.49-94.27,91.49-173.68,177.57-223.25,86.08,49.58,149.08,128.99,177.57,223.25-57.7,15.22-117.27,22.92-177.57,22.92Z" fill="none"/>
    <polygon points="212.08 273.05 212.08 307.65 250 345.56 287.92 307.64 287.92 273.05 250 310.97 212.08 273.05" fill="none"/>
    <path d="m250,129.71c-86.08,49.58-149.08,128.99-177.57,223.25,57.69,15.22,117.27,22.92,177.57,22.92s119.87-7.7,177.57-22.92c-28.49-94.27-91.49-173.68-177.57-223.25Zm-68.12,113.13v34.6l-17.27-17.27v103.46c-8.18-1.01-16.34-2.19-24.47-3.5v-124.83c4.91-6.45,10.03-12.74,15.34-18.87l26.4,26.4h0Zm106.04,30.21v34.59l-37.92,37.92-37.92-37.91v-34.6l37.92,37.92,37.92-37.92h0s0,0,0,0Zm27.33-86.77v179.55c-8.14.77-16.3,1.39-24.47,1.87v-159.97l-40.78,40.78-40.78-40.78v159.97c-8.17-.48-16.33-1.1-24.47-1.87v-179.55c6.52-6.02,13.26-11.82,20.23-17.39l45.02,45.03,45.03-45.03c6.96,5.57,13.7,11.38,20.23,17.39h-.01Zm44.61,49.03v124.83c-8.13,1.31-16.29,2.48-24.47,3.5v-103.47l-17.27,17.27v-34.6l26.4-26.4c5.32,6.13,10.44,12.42,15.34,18.87Z"/>
    <path d="m476.46,378.95c-12.96-62.86-40.56-123.09-79.83-174.19-38.73-50.4-89.02-92.28-145.46-121.12l-1.19-.61-1.19.61c-56.43,28.84-106.73,70.72-145.44,121.11-39.27,51.1-66.87,111.33-79.83,174.19l-.48,2.31,2.24.72c72.4,23.22,148,34.99,224.7,34.99h0c76.7.01,152.31-11.76,224.7-34.98l2.24-.72-.48-2.31Zm-226.47,32.77c-75.36,0-149.66-11.45-220.85-34.02,26.48-124.96,106.84-230.05,220.86-288.77,114.02,58.72,194.37,163.82,220.84,288.77-71.2,22.57-145.5,34.02-220.85,34.02Z"/>
  </g>
</svg>