<?xml version="1.0" encoding="UTF-8"?>
<svg id="Layer_1" data-name="Layer 1" xmlns="http://www.w3.org/2000/svg" width="500" height="500" viewBox="0 0 500 500">
  <rect width="500" height="500" fill="none"/>
  <path d="m115.44,359.49c-12.12-7.52-16.3-17.13-34.68-24.66-18.39-24.24-25.49-54.32-25.49-84.41,0-22.15,3.76-43.88,10.03-63.94l18.8,37.19c-1.25,8.36-1.67,17.13-1.67,26.74,0,122.86,81.49,147.93,167.57,147.51,86.08.42,167.57-24.66,167.57-147.51,0-12.54-.84-24.24-2.51-34.68l13.37-27.58c7.1,17.55,10.86,39.7,10.45,62.26-.84,36.36-12.54,73.13-39.7,90.26l-4.6,6.69-4.6,5.85-5.01,5.43-5.43,5.01-5.43,4.6-5.85,4.18-6.27,3.76-6.27,3.76-6.69,3.34-6.69,2.93-7.1,2.51-7.52,2.93-7.1,2.09-7.52,1.67-7.52,1.25-7.52,1.25-7.94,1.25-7.94.84-7.94.42-7.94.42h-32.18l-7.94-.42-8.36-.42-7.94-.84-7.94-.84-7.94-1.25-7.52-1.25-7.52-1.67-7.1-2.51-7.1-2.09-7.1-2.51-6.69-2.93-6.69-3.34-6.27-3.76-6.27-3.76-5.85-4.18-5.43-4.6-5.01-5.01h0Zm-50.15-221.48l-2.51-2.51c-22.15,26.33-35.94,63.52-35.94,114.5,0,155.03,126.62,180.11,223.15,180.11s223.15-25.07,223.15-180.11c0-51.4-13.79-88.17-35.94-114.92l-2.51,2.51c-.42,13.37-2.93,27.58-4.6,40.95,9.61,20.89,14.21,45.55,14.63,71.46,1.25,76.89-37.61,157.96-194.73,163.39-98.62-.84-160.88-31.34-186.38-94.86-16.72-10.45-25.07-30.09-32.59-49.31l-.42-5.01-.42-13.79.42-13.79.84-13.37,1.67-12.54,2.51-11.7,2.93-10.86,3.34-10.45,4.18-9.61,4.6-9.19,5.01-8.36,4.6-6.69c1.67,12.95,4.18,30.51,7.94,33.85,49.73,41.79,137.9,36.36,180.11,121.19,45.97-93.61,127.04-81.9,177.18-123.69l4.6-40.12c-58.09,63.1-137.48,41.79-181.78,135.81-46.8-93.61-124.53-71.04-183.03-132.89h0Zm38.86,22.15c30.09-46.38,86.92-57.67,145.84-57.67s113.66,10.86,144.17,56l35.94-27.16h0l2.09-1.67c-45.13-49.31-119.93-59.76-182.2-59.76s-140.41,10.86-185.12,62.68l.84.84h0l1.25.84.42.42h0c9.61,9.61,20.48,19.22,31.34,25.07,1.67,1.25,3.76,1.25,5.43.42h0Zm322.6-31.34l-16.3,10.03c-48.06-42.21-99.46-52.65-160.47-52.24-61.85-.42-116.17,10.86-163.39,56l-16.72-10.03,4.6-5.01,6.69-6.27,7.1-5.85,7.52-5.43,7.94-5.01,8.36-4.6,8.36-4.18,8.78-3.76,8.78-3.34,9.19-2.51,9.19-2.93,9.19-2.09,9.19-2.09,9.61-1.25,9.61-1.67,9.61-1.25,9.61-.84,9.19-.42,9.19-.42,9.19-.42h18.39l9.19.42,9.19.42,9.19.42,9.61.84,9.61,1.25,9.19,1.67,9.61,1.67,9.19,2.09,9.19,2.09,9.61,2.51,9.19,2.93,8.78,3.34,8.78,3.76,8.36,4.18,7.94,4.6,7.94,5.01,7.52,5.43,7.1,5.85,6.69,6.27,1.67.84h0Zm-177.18,197.66c-20.89-44.3-43.46-64.35-77.73-78.56l-86.08-28.83-11.7-33.01c21.31,16.3,52.24,27.16,82.32,38.86,45.97,17.55,70.62,39.7,93.19,85.25v16.3h0Zm0,0c20.48-44.3,43.04-66.86,77.73-81.49l85.25-30.51,11.28-31.76c-21.31,16.3-54.74,28.42-84.41,40.12-45.97,17.55-67.28,41.79-90.26,87.34l.42,16.3h0Zm150.02-139.15l5.43-2.93,5.01-2.93,5.01-2.93,4.6-3.34,3.34-2.93,3.34-28.83-4.18,3.76-5.85,5.01-5.85,4.6-5.85,4.18-6.27,3.76-6.27,3.34-5.85,3.34-6.27,2.93-12.54,5.43c-10.45,4.18-20.48,8.78-30.92,12.95l-12.12,5.43-5.85,2.93-5.43,2.93c-14.21,12.12-21.31,23.82-23.82,35.94l3.76-2.93,5.85-4.18,5.85-3.76,5.85-3.76,5.85-3.34,6.27-2.93,6.27-2.93,6.27-2.93,12.12-5.01c11.7-4.6,23.82-8.78,35.52-13.79l5.43-2.51,5.43-2.51,5.85-2.09h0Zm-102.8,28l-.42.42-5.43,4.18-5.43,4.6-5.01,5.01-1.25,1.67c-5.01,9.19-7.1,17.55-6.69,25.91l4.18-4.6,5.43-5.43,2.51-2.09c.84-9.61,5.01-19.22,12.12-29.67h0Zm-124.53-14.63h0l-12.12-5.43c-10.45-4.18-20.48-8.36-30.92-12.54l-12.54-5.43-6.27-2.51-6.27-3.34-6.27-3.34-6.27-3.76-5.85-4.18-5.85-4.18-5.85-4.6-5.43-5.43-3.76-4.18c.84,5.01,1.25,10.03,2.09,15.04l.84,5.01.84,4.6,1.25,3.76,1.25,2.51.84,1.25,4.18,3.34,5.01,3.34,5.01,3.34,5.01,2.93,5.43,2.93,5.43,2.93,5.85,2.51,11.7,5.01c12.54,5.01,25.07,9.61,37.19,14.63l12.54,5.43,6.27,2.93,6.27,2.93,6.27,3.34,6.27,3.76,3.34,2.09c-6.69-11.28-15.88-22.98-25.49-34.68h0Z"/>
</svg>