<?xml version="1.0" encoding="UTF-8"?>
<svg id="Layer_1" data-name="Layer 1" xmlns="http://www.w3.org/2000/svg" width="500" height="500" viewBox="0 0 500 500">
  <rect width="500" height="500" fill="none"/>
  <path id="path1961" d="m383.59,244.58c62.52-40.47,146.57-41.77,48.51,23.6l1.56-2.08c27.76-38.13-28.79-29.57-48.77-22.05l-1.3.52Zm-228.8,28.79h26.46v10.38h-30.61c-12.97,0-18.68-3.89-18.68-14.27v-2.33c0-8.82,5.19-14.53,18.16-14.53h31.13v10.38h-26.46c-2.58,0-4.67,2.09-4.67,4.67v1.3c.14,2.48,2.19,4.41,4.67,4.41h0Zm49.81-25.94v25.94h15.57v10.38h-36.32v-36.32h20.76,0Zm-98.32,4.67c3.61-2.92,8.07-4.56,12.71-4.67h10.38v36.32h-20.76v-18.16l-19.98,18.16h-18.94v-18.16l-23.09,18.16h-23.6l41.25-31.13c3.89-2.85,6.49-5.19,13.23-5.19h12.97v18.16l15.83-13.49h0Zm176.14,3.89c-.01-3.3,2.65-5.98,5.94-5.99.18,0,.36,0,.54.02h24.64v10.38h-12.97v23.35h-18.16v-27.76h0Zm121.66-5.97c15.57,0,21.01,3.37,21.01,14.79v18.94h-18.16v-12.97c0-4.3-3.48-7.78-7.78-7.78h-7.78v20.76h-18.16v-33.73h30.87Zm-141.64,0c11.93,0,17.38,4.93,17.38,13.23v7.78c0,9.6-5.45,12.71-18.68,12.71h-20.5c-7.52,0-12.97-.78-15.83-3.37-1.36-1.69-2.1-3.8-2.08-5.97v-1.3c0-5.19,3.11-10.12,12.97-10.12h23.35c0-2.33.26-2.59-2.59-2.59h-31.13v-10.38h37.1Zm-3.37,22.05v-1.3h-14.27c-.72,0-1.3.58-1.3,1.3s.58,1.3,1.3,1.3h12.97c.72,0,1.3-.58,1.3-1.3h0Zm94.95-22.05c13.75,0,16.6,4.15,16.6,9.86v1.3c0,6.23-4.93,9.6-12.97,9.6h-23.35c0,2.33,2.33,2.59,5.19,2.59h28.53v10.38h-35.54c-11.16,0-16.34-4.67-16.34-13.23v-5.97c0-9.86,5.45-14.53,17.9-14.53h19.98,0Zm-2.85,12.97c.72,0,1.3-.58,1.3-1.3s-.58-1.3-1.3-1.3h-15.57c-.72,0-1.3.58-1.3,1.3v1.3h16.86Z"/>
</svg>