<?xml version="1.0" encoding="UTF-8"?>
<svg id="Layer_1" data-name="Layer 1" xmlns="http://www.w3.org/2000/svg" width="500" height="500" viewBox="0 0 500 500">
  <rect width="500" height="500" fill="none"/>
  <g>
    <g id="g2860">
      <path id="path2858" d="m249.27,103.95c0-2.89-.87-2.98-1.1-.11l-9.19,137.2,9.16,5.35,1.13-142.45Z"/>
    </g>
    <g id="g2864">
      <path id="path2862" d="m206.33,273.09l38.63-21.4-8.78-4.88-30.92,25.36c-1.74,1.45-.96,2.05,1.08.92"/>
    </g>
    <g id="g2868">
      <path id="path2866" d="m462.52,212.75c-.53-.77-.94-1.61-1.2-2.51-16.21-50.02-30.04-69.68-56.69-98.9-39.67-42.7-95.04-67.37-153.31-68.32-116.54.05-210.99,94.51-211.03,211.05-.22,27.12,4.4,54.07,13.62,79.57,7.12,17.43,19.44,40.9,20.04,41.95.44.86.66,1.82.66,2.78-.8-.63-1.48-1.41-1.99-2.3-8.41-13.69-15.93-27.92-22.52-42.58-10.7-25.43-16.5-52.65-17.08-80.23-.06-120.05,97.2-217.42,217.25-217.48.03,0,.06,0,.1,0,107.33,0,193.87,74.58,212.14,174.37.19.86.19,1.75,0,2.61M67.92,355.27c-8.18-17.09-14.32-35.09-18.29-53.62-.16-.89-.12-1.81.12-2.68.53.81.95,1.69,1.22,2.61,5.14,17.56,12.15,34.52,20.9,50.59l-3.95,3.1Zm4.03-1.93l155.51-111.79-13.29-7.58-138.5,115.18c-16.69-30.31-25.74-64.24-26.37-98.84-.45-108.89,87.45-197.53,196.34-197.99.12,0,.24,0,.37,0l-28.35,176.34,13.24,7.68,17.82-184.01c.33-2.3,1.9-2.3,1.9,0l1.05,194.05,31.56-18.53-30.2-175.53c108,2.91,197.54,89.99,197.54,197.65-.45,34.79-9.53,68.92-26.4,99.34l-138.39-115.26-13.33,7.61,148.74,107.87c3.59,2.54,2.49,3.68-1.32,1.59l-167.05-96.34v36.1l167.45,63.97c-36.63,59.01-101.42,94.59-170.87,93.84-69.25.8-133.82-34.86-170.02-93.9l167.72-64v-36.12l-173.69,100.33c-4.14,2.27-5.22,1.01-1.46-1.65m178.01,107.86c-83.39,0-148.8-43.35-179.97-102.93l4.79-1.76c9.7,14.49,20.71,28.05,32.9,40.51,17.5,19.26,72.91,56.41,142.22,56.41,71.17.26,137.39-36.35,175.02-96.76,2.8-.79,3.68-2,2.76-4.44,17.78-31.19,27.4-66.37,27.97-102.27.2-19.55-2.71-39.01-8.62-57.65-3.26-10.17-7.24-20.09-11.91-29.69-.52-.85-.79-1.84-.77-2.84.83.64,1.5,1.46,1.97,2.4,5.21,9.6,9.83,19.5,13.83,29.66,4.56,12.56,12.73,29.87,12.73,58.12-.58,117.07-95.83,211.57-212.9,211.23m0-430.71c-122.52-.06-221.9,98.27-221.9,219.49s99.3,219.54,221.91,219.58c122.61.04,222-98.33,222-219.58S372.64,30.46,249.94,30.46"/>
    </g>
    <g id="g2872">
      <path id="path2870" d="m378.75,323.06l-114.4-76.66-9.41,5.38,123.25,72.14c2.2,1.29,2.67.51.56-.85"/>
    </g>
  </g>
</svg>