<?xml version="1.0" encoding="UTF-8"?>
<svg id="Layer_1" data-name="Layer 1" xmlns="http://www.w3.org/2000/svg" width="500" height="500" viewBox="0 0 500 500">
  <rect width="500" height="500" fill="none"/>
  <g>
    <path d="m347.86,28.04h-193.7L28.04,154.16v192.2l125.1,125.6h192.7l126.11-126.11v-192.7l-124.1-125.1Zm85.75,300.65l-104.93,104.93h-157.38l-104.93-104.42v-157.9l104.93-104.42h159.41l102.9,103.41v158.39Z"/>
    <polygon points="155.75 199.55 129.01 145.07 89.16 182.4 89.16 316.08 127.5 354.92 127.5 224.77 160.79 298.93 198.63 200.05 198.63 407.38 241 407.38 241 91.6 196.1 91.6 155.75 199.55"/>
    <path d="m270.63,91.6v315.78h48.42l91.81-91.3v-66.58h-70.62v38.34h26.23c7.06-1.01,7.57,7.06,2.53,13.12-5.04,6.06-55.99,55.99-55.99,55.99v-214.9l59.52,62.05v15.13h38.34v-35.31l-90.8-92.31h-49.44Z"/>
  </g>
</svg>