<?xml version="1.0" encoding="UTF-8"?>
<svg id="Layer_1" data-name="Layer 1" xmlns="http://www.w3.org/2000/svg" width="500" height="500" viewBox="0 0 500 500">
  <rect width="500" height="500" fill="none"/>
  <path d="m159.5,305.41h-46.65v-17.69l-9.49,16.46H23v-3.66l.77-.76,107.15-105.17h229.44l116.63,110.08h-106.53l-12.81-20.37v20.37h-187.35v-16.25l-10.81,16.99h0Zm-41.5-5.15h38.67l18.8-29.53v28.79h47.18l11.54-99.77h-101.15l-101.15,99.28h68.5l17.62-30.56v31.8Zm255.32-.74h90.71l-105.71-99.77h-65.23l-9.8,99.77h69.22v-33.09l20.81,33.09h0Zm-145.48,0h50.28l6.03-61.41h-49.21l-7.1,61.41h0Zm7.7-66.57h49.12l3.26-33.2h-48.54l-3.84,33.2h0Z"/>
</svg>