<?xml version="1.0" encoding="UTF-8"?>
<svg id="Layer_1" data-name="Layer 1" xmlns="http://www.w3.org/2000/svg" width="500" height="500" viewBox="0 0 500 500">
  <rect width="500" height="500" fill="none"/>
  <g>
    <path d="m159.65,268.8h-46.57v-17.66l-9.47,16.43H23.38v-3.65l.77-.76,106.97-104.99h229.05l116.44,109.89h-106.35l-12.79-20.33v20.33h-187.03v-16.22l-10.8,16.96Zm-41.43-5.15h38.6l18.77-29.48v28.74h47.1l11.52-99.6h-100.98l-100.98,99.11h68.39l17.59-30.51v31.75Zm254.89-.74h90.56l-105.53-99.6h-65.12l-9.79,99.6h69.1v-33.03l20.78,33.03h0Zm-145.24,0h50.19l6.02-61.31h-49.12l-7.09,61.31h0Zm7.69-66.46h49.03l3.26-33.15h-48.45l-3.83,33.15h0Z"/>
    <path d="m125.17,341.33h3.76l2.76-6.18h12.27l2.75,6.18h4.01l-10.77-24.95h-4.01l-10.77,24.95h0Zm17.79-9.14h-10.27l5.01-12.6,5.26,12.6Zm24.55-15.32c-1.75-.74-3.76-.99-5.51-.99-4.51,0-8.02,2.23-8.02,6.92,0,7.66,10.78,6.18,10.78,11.86,0,2.96-2.76,3.95-5.01,3.95-1.75,0-4.01-.74-5.26-1.24l-.25,3.46c1.75.5,3.51.99,5.26.99,5.01,0,9.27-1.98,9.27-7.42,0-8.4-11.02-7.16-11.02-12.1,0-2.47,2.5-3.21,4.51-3.21,1.75,0,3.01.25,4.76.99l.5-3.21h0Zm19.29,0c-1.75-.74-3.76-.99-5.26-.99-4.76,0-8.27,2.23-8.27,6.92,0,7.66,11.02,6.18,11.02,11.86,0,2.96-3.01,3.95-5.01,3.95s-4.01-.74-5.26-1.24l-.5,3.46c1.75.5,3.51.99,5.26.99,5.01,0,9.27-1.98,9.27-7.42,0-8.4-11.02-7.16-11.02-12.1,0-2.47,2.51-3.21,4.51-3.21s3.01.25,4.76.99l.5-3.21h0Zm10.02,12.11c0-5.18,2.76-9.88,8.27-9.88s8.52,4.7,8.52,9.88-2.51,9.63-8.52,9.63-8.27-4.69-8.27-9.63h0Zm-4.01,0c0,7.41,4.51,12.85,12.27,12.85s12.27-5.44,12.27-12.85-4.51-13.1-12.27-13.1c-7.77,0-12.27,5.44-12.27,13.1h0Zm48.86-12.11c-1.84-.68-3.8-1.02-5.76-.99-7.77,0-13.53,5.19-13.53,12.85s5.26,13.1,13.53,13.1c1.5,0,3.76,0,5.76-.74l-.25-3.71c-1.25.74-3.76,1.24-5.51,1.24-5.26,0-9.77-3.95-9.77-9.63s4.01-9.88,9.77-9.88c2.01,0,3.76.5,5.26,1.23l.5-3.46h0Zm5.51,24.46h3.51v-24.95h-3.51v24.95Zm8.27,0h4.01l2.51-6.18h12.53l2.51,6.18h4.01l-10.77-24.95h-3.76l-11.03,24.95Zm17.79-9.14h-10.02l5.01-12.6,5.01,12.6h0Zm15.03,9.14h3.51v-21.99h8.02v-2.97h-19.54v2.97h8.02v21.99h0Zm16.28,0h3.51v-24.95h-3.51v24.95Zm13.78-12.35c0-5.18,2.76-9.88,8.27-9.88s8.52,4.7,8.52,9.88-2.51,9.63-8.52,9.63-8.27-4.69-8.27-9.63h0Zm-4.01,0c0,7.41,4.51,12.85,12.28,12.85s12.27-5.44,12.27-12.85-4.5-13.1-12.27-13.1-12.28,5.44-12.28,13.1h0Zm30.82,12.35h3.76v-20.51l11.52,20.51h4.76v-24.95h-3.76v20.26l-11.27-20.26h-5.01v24.95h0ZM26.46,305.51h3.76v-21.99l8.52,21.99h3.51l8.52-21.99v21.99h3.76v-25.2h-6.01l-8.02,20.75-8.02-20.75h-6.02v25.2Zm38.08-12.6c0-5.18,2.76-9.88,8.52-9.88s8.27,4.7,8.27,9.88-2.51,9.63-8.27,9.63-8.52-4.7-8.52-9.63h0Zm-3.76,0c0,7.66,4.51,12.85,12.28,12.85s12.27-5.19,12.27-12.85-4.51-13.1-12.27-13.1c-7.77,0-12.28,5.44-12.28,13.1h0Zm35.83,12.6h3.76v-21.99h7.77v-3.21h-19.54v3.21h8.02v21.99h0Zm19.04-12.6c0-5.18,2.76-9.88,8.27-9.88s8.52,4.7,8.52,9.88-2.51,9.63-8.52,9.63-8.27-4.7-8.27-9.63h0Zm-4.01,0c0,7.66,4.51,12.85,12.27,12.85s12.27-5.19,12.27-12.85-4.51-13.1-12.27-13.1-12.27,5.44-12.27,13.1Zm30.57,12.6h3.76v-11.36h2.26c1.75,0,3.01,0,4.26,2.47l3.76,8.9h4.26l-4.76-10.13c-1-1.48-1.5-1.98-2.51-2.47,3.01-.74,5.26-2.72,5.26-5.93,0-5.93-5.01-6.67-10.02-6.67h-6.26v25.2h0Zm3.76-21.99h3.51c3.26,0,5.01,1.23,5.01,3.71,0,2.22-2.01,3.95-5.51,3.95h-3.01v-7.66h0Zm32.07-2.72c-1.76-.74-3.76-.99-5.51-.99-4.51,0-8.27,2.47-8.27,6.92,0,7.66,11.02,6.18,11.02,11.86,0,2.96-3.01,3.95-5.01,3.95-1.8-.04-3.57-.38-5.26-.99l-.25,3.21c1.5.5,3.26.99,5.01.99,5.26,0,9.52-1.98,9.52-7.42,0-8.4-11.02-7.16-11.02-12.1,0-2.47,2.25-3.21,4.51-3.21,1.75,0,2.76.25,4.76.99l.5-3.21h0Zm10.78,2.72h3.01c2.26,0,5.51.99,5.51,4.2,0,3.46-2.76,4.44-5.01,4.44h-3.51v-8.65h0Zm-3.76,21.99h3.76v-10.13h3.51c4.51,0,9.02-1.98,9.02-7.66s-4.51-7.42-9.52-7.42h-6.76v25.2h0Zm24.05-12.6c0-5.18,3.01-9.88,8.52-9.88s8.52,4.7,8.52,9.88-2.76,9.63-8.52,9.63-8.52-4.7-8.52-9.63Zm-3.76,0c0,7.66,4.51,12.85,12.28,12.85s12.27-5.19,12.27-12.85-4.51-13.1-12.27-13.1c-7.77,0-12.28,5.44-12.28,13.1h0Zm30.57,12.6h3.76v-11.36h2.26c1.75,0,3.01,0,4.26,2.47l3.76,8.9h4.25l-4.76-10.13c-1-1.48-1.5-1.98-2.51-2.47,2.76-.74,5.26-2.72,5.26-5.93,0-5.93-5.01-6.67-10.02-6.67h-6.26v25.2h0Zm3.76-21.99h3.51c3.26,0,5.01,1.23,5.01,3.71,0,2.22-2.01,3.95-5.51,3.95h-3.01v-7.66h0Zm24.3,21.99h3.76v-21.99h7.76v-3.21h-19.54v3.21h8.02v21.99h0Zm27.56,0h3.76v-25.2h-3.76v25.2Zm11.28,0h3.5v-20.75h.25l11.52,20.75h4.76v-25.2h-3.76v20.26l-11.27-20.26h-5.01v25.2h0Zm27.3,0h7.52c8.27,0,13.53-4.45,13.53-12.85,0-7.9-6.01-12.35-13.53-12.35h-7.52v25.2h0Zm3.5-21.99h4.26c5.26,0,9.52,3.46,9.52,9.14,0,6.67-3.51,9.63-9.77,9.63h-4.01v-18.77h0Zm44.1-3.21h-3.76v14.33c0,4.69-1.51,7.9-6.27,7.9s-6.26-3.21-6.26-7.9v-14.33h-3.5v14.58c0,7.17,3.5,10.87,9.77,10.87s10.02-3.71,10.02-10.87v-14.58h0Zm19.54.5c-1.75-.74-3.76-.99-5.26-.99-4.76,0-8.27,2.47-8.27,6.92,0,7.66,11.02,6.18,11.02,11.86,0,2.96-3.01,3.95-5.01,3.95s-4.26-.5-5.26-.99l-.51,3.21c1.76.5,3.51.99,5.26.99,5.01,0,9.27-1.98,9.27-7.42,0-8.4-11.02-7.16-11.02-12.1,0-2.47,2.51-3.21,4.5-3.21s3.01.25,4.76.99l.5-3.21h0Zm12.53,24.7h3.5v-21.99h8.02v-3.21h-19.54v3.21h8.02v21.99h0Zm16.03,0h3.51v-11.36h2.25c2.01,0,3.26,0,4.26,2.47l4.01,8.9h4.01l-4.76-10.13c-.75-1.48-1.25-1.98-2.51-2.47,3.01-.74,5.26-2.72,5.26-5.93,0-5.93-4.76-6.67-9.77-6.67h-6.26v25.2h0Zm3.51-21.99h3.5c3.5,0,5.26,1.23,5.26,3.71,0,2.22-2.01,3.95-5.51,3.95h-3.26v-7.66h0Zm26.56,21.99h3.76v-10.62l9.77-14.58h-4.26l-7.27,11.12-7.77-11.12h-4.26l10.02,14.58v10.62h0Z" fill-rule="evenodd"/>
  </g>
</svg>