<?xml version="1.0" encoding="UTF-8"?>
<svg id="Layer_1" data-name="Layer 1" xmlns="http://www.w3.org/2000/svg" width="500" height="500" viewBox="0 0 500 500">
  <rect width="500" height="500" fill="none"/>
  <g>
    <path d="m395.13,177.77c39.12,17.12,63.43,40.88,63.77,67.45.69,53.74-97.05,98.46-218.31,99.83-14.18.15-28.01-.33-41.43-1.32l-.95,1.84c18.44,2.03,37.81,3.02,57.85,2.8,121.26-1.37,219-46.07,218.29-99.83-.36-29.19-29.73-55.07-75.89-72.36l-3.31,1.59h-.01Zm-151.14-26.13c-121.25,1.37-218.98,46.05-218.32,99.81.38,28.61,28.61,54.02,73.2,71.34l3.47-1.72c-37.62-17-60.87-40.33-61.2-66.28-.69-53.78,97.07-98.46,218.31-99.85,13.24-.14,26.17.26,38.79,1.13l1.01-1.94c-15.86-1.65-32.42-2.52-49.45-2.52-1.92,0-3.86.02-5.81.05"/>
    <path d="m206.56,229.56h15.92c1.1.02,1.96.43,2.85,1.37.84.95,1.26,2.06,1.26,3.54v2.52c0,1.39-.4,2.49-1.26,3.45-.88.95-1.75,1.37-2.85,1.37h-15.92v-12.24Zm-8.11-10.23c-.24,0-.51.11-.69.31-.17.17-.29.4-.29.67v8.28s.02.09.02.15v13.84c0,.07-.02.11-.02.17v30.48c0,.24.11.48.29.67.17.2.44.29.69.29h7.16c.26,0,.51-.09.71-.29.17-.17.26-.4.26-.67v-21.16h8.77l8.64,21.38c.15.38.51.62.91.62h7.47c.31,0,.62-.17.79-.44s.22-.6.09-.91l-8.21-21c1.41-.26,2.14-.62,2.3-.69,2.49-1.13,4.53-2.99,6.05-5.48,1.55-2.52,2.32-5.43,2.32-8.59v-2.52c0-2.06-.31-4-1.01-5.85-.67-1.82-1.61-3.42-2.8-4.79-1.17-1.37-2.59-2.47-4.19-3.27-1.61-.79-3.38-1.22-5.19-1.22h-24.06Zm198.57,10.23h15.9c1.1.02,1.99.43,2.85,1.37.86.95,1.28,2.06,1.28,3.54v2.52c0,1.39-.43,2.49-1.28,3.45-.86.98-1.75,1.37-2.85,1.37h-15.9v-12.24Zm-8.15-10.23c-.24,0-.51.11-.69.31-.17.17-.29.4-.29.67v2.1l-.02-.02v22.05l.05.02v28.8c0,.24.11.48.29.67.2.2.44.29.69.29h7.16c.26,0,.51-.09.71-.29.17-.17.26-.4.26-.67v-21.16h8.77l8.66,21.38c.14.38.48.62.88.62h7.47c.33,0,.64-.17.82-.44.17-.26.22-.6.09-.91l-8.24-21c1.37-.26,2.1-.6,2.3-.69,2.49-1.1,4.53-2.96,6.08-5.48s2.32-5.43,2.32-8.59v-2.52c0-2.06-.33-4-1.03-5.85l-.88.36.88-.36c-.69-1.82-1.61-3.42-2.8-4.79-1.17-1.37-2.56-2.47-4.17-3.27-1.63-.79-3.38-1.22-5.22-1.22h-24.08Zm-273.82-.11c-.26,0-.51.11-.71.29-.14.14-.22.33-.24.53l-15.09,37.74-14.99-37.55v-.05c0-.24-.09-.51-.29-.69-.17-.17-.43-.29-.69-.29h-7.26c-.24,0-.48.11-.67.29-.17.17-.31.44-.31.69v52.28c0,.24.14.48.31.67.17.17.43.29.67.29h7.26c.26,0,.51-.11.69-.29.2-.17.29-.43.29-.67v-28.83l11.37,29.16c.15.38.51.62.91.62h5.39c.4,0,.77-.24.91-.62l11.49-29.36v29.02c0,.24.09.48.26.67.2.17.44.29.71.29h7.25c.26,0,.51-.11.71-.29.17-.17.29-.43.29-.69v-52.24c0-.24-.11-.51-.29-.69-.2-.17-.44-.29-.71-.29h-7.26Zm21.82,0c-.26,0-.48.11-.69.29-.17.17-.29.44-.29.69v53.23c0,.26.11.51.29.69.2.2.43.29.69.29h7.26c.26,0,.51-.09.71-.29.17-.17.29-.43.29-.69v-53.23c0-.24-.11-.51-.29-.69-.17-.17-.44-.29-.71-.29h-7.26Zm213.3,15.33l.33-1.1c1.55-4.53,5.58-4.7,6.39-4.72h.38c.79.02,4.84.2,6.41,4.77l.31,1.06,2.39,13.14h-18.58l2.39-13.14h-.02Zm6.89-15.59h-.46c-1.15,0-3.93.14-6.89,1.55-2.92,1.41-5.96,4.15-7.4,9.1l-.02.09-8.88,42.45c-.05.29,0,.57.2.79.17.22.44.36.72.36h7.8c.44,0,.82-.33.93-.77l2.83-15.06,11.18.05h.05l11.16-.05,2.83,15.06c.09.44.46.77.93.77h7.8c.29,0,.55-.14.72-.36.17-.22.24-.51.17-.79l-8.86-42.45-.02-.09c-1.44-4.95-4.48-7.69-7.42-9.1s-5.72-1.55-6.85-1.55h-.51m-185.67-.09c-2.1,0-4.09.46-5.89,1.34-1.84.88-3.42,2.14-4.77,3.73-1.34,1.59-2.41,3.42-3.18,5.46-.79,2.08-1.19,4.31-1.19,6.7v20.92c0,2.39.4,4.6,1.19,6.7.77,2.06,1.85,3.84,3.21,5.39,1.32,1.55,2.92,2.78,4.72,3.71,1.84.95,3.83,1.41,5.92,1.41h15.83c.26,0,.51-.11.69-.31.17-.17.29-.4.29-.67v-8.4c0-.26-.11-.51-.29-.69-.17-.2-.43-.29-.69-.29h-15.83c-1.65-.02-2.94-.6-4.11-1.92-1.15-1.34-1.72-2.94-1.72-4.95v-20.92c0-2.01.57-3.62,1.72-5.01,1.19-1.37,2.47-1.96,4.11-1.99h15.83c.26,0,.51-.11.69-.29s.29-.43.29-.69v-8.28c0-.24-.11-.48-.29-.67s-.43-.31-.69-.31h-15.83Zm83.42,40.84c-.33-.86-.48-1.75-.48-2.7v-21.03c0-.98.15-1.85.48-2.7.31-.86.75-1.59,1.28-2.21.55-.62,1.15-1.1,1.85-1.46.71-.33,1.44-.48,2.18-.48h11.64c.79,0,1.51.15,2.18.48.69.36,1.3.84,1.84,1.46.53.62.98,1.34,1.3,2.21.33.84.48,1.72.48,2.7v21.03c0,.95-.15,1.84-.48,2.7s-.77,1.56-1.3,2.21c-.53.62-1.13,1.08-1.84,1.46-.69.33-1.39.48-2.18.48h-11.64c-.77,0-1.48-.15-2.18-.48-.71-.38-1.3-.84-1.85-1.46-.53-.64-.98-1.34-1.28-2.21l-.93.33s.93-.33.93-.33Zm5.32-40.84c-2.08,0-4.07.44-5.85,1.34-1.82.88-3.4,2.14-4.77,3.73-1.34,1.56-2.41,3.4-3.18,5.46-.72,2.08-1.1,4.29-1.1,6.58v21.03c0,2.37.38,4.57,1.1,6.61.77,2.06,1.84,3.86,3.21,5.41,1.34,1.56,2.94,2.83,4.75,3.73,1.79.91,3.78,1.34,5.85,1.34h11.64c2.03,0,3.98-.44,5.81-1.34,1.84-.88,3.45-2.16,4.79-3.73,1.34-1.55,2.42-3.35,3.16-5.41.77-2.03,1.15-4.24,1.15-6.61v-21.03c0-2.3-.38-4.5-1.15-6.58-.72-2.06-1.79-3.88-3.16-5.46-1.34-1.61-2.96-2.85-4.79-3.73-1.84-.91-3.78-1.34-5.81-1.34h-11.64Zm50.07,0c-2.08,0-4.04.46-5.87,1.34-1.84.88-3.42,2.14-4.77,3.73-1.34,1.59-2.41,3.42-3.18,5.46-.79,2.08-1.17,4.31-1.17,6.7v20.92c0,2.39.38,4.6,1.17,6.7.77,2.06,1.84,3.84,3.21,5.41,1.32,1.55,2.92,2.76,4.72,3.69,1.84.95,3.83,1.41,5.89,1.41h15.83c.26,0,.53-.11.71-.31.17-.17.29-.4.29-.67v-8.4c0-.26-.11-.51-.29-.69-.17-.2-.44-.29-.71-.29h-15.83c-1.63,0-2.92-.6-4.09-1.92-1.15-1.34-1.75-2.94-1.75-4.95v-20.92c0-2.01.6-3.62,1.77-5.01,1.17-1.37,2.42-1.96,4.07-1.99h15.83c.26,0,.53-.11.71-.29s.29-.43.29-.69v-8.28c0-.24-.11-.48-.29-.67s-.44-.31-.71-.31h-15.83Z"/>
  </g>
</svg>