<?xml version="1.0" encoding="UTF-8"?>
<svg id="Layer_1" data-name="Layer 1" xmlns="http://www.w3.org/2000/svg" width="500" height="500" viewBox="0 0 500 500">
  <rect width="500" height="500" fill="none"/>
  <g>
    <path d="m477,196.15h-143.26c-18.28-28.65-49.9-45.94-83.98-45.94s-65.21,17.29-83.49,45.94H23l14.33,14.33h121.53c-2.47,5.43-3.95,10.87-5.43,16.8H53.63l14.33,13.83h82.99c-.49,2.96-.49,5.93-.49,8.89,0,2.47,0,5.43.49,7.9h-66.69l13.83,14.33h54.34c1.48,5.43,2.96,11.36,5.43,16.8h-42.98l14.33,14.33h36.56c18.28,29.15,49.9,46.44,83.98,46.44s66.2-17.78,83.98-46.44h36.56l14.33-14.33h-42.98c1.98-5.43,3.95-10.87,5.43-16.8h54.34l13.83-14.33h-66.2c.49-2.47.49-5.43.49-7.9,0-2.96,0-5.93-.49-8.89h82.99l13.83-14.33h-99.3c-1.48-5.43-2.96-11.36-5.43-16.8h121.53l14.33-13.83h0Zm-227.25,139.81c-47.43,0-85.96-38.53-85.96-85.96s38.53-86.45,85.96-86.45,85.96,38.53,85.96,85.96-38.53,85.96-85.96,86.45h0Z"/>
    <polygon points="181.58 227.28 181.58 272.23 190.97 272.23 190.97 236.66 200.85 272.23 210.23 272.23 220.11 236.66 220.11 272.23 229.5 272.23 229.5 227.28 214.18 227.28 205.29 257.9 196.4 227.28 181.58 227.28"/>
    <rect x="239.38" y="227.28" width="9.88" height="44.46"/>
    <polygon points="258.65 227.28 258.65 272.23 268.03 272.23 268.03 243.08 288.29 272.23 298.17 272.23 298.17 227.28 288.78 227.28 288.78 257.41 268.53 227.28 258.65 227.28"/>
    <rect x="308.54" y="227.28" width="9.88" height="44.46"/>
  </g>
</svg>