<?xml version="1.0" encoding="UTF-8"?>
<svg id="Layer_1" data-name="Layer 1" xmlns="http://www.w3.org/2000/svg" width="500" height="500" viewBox="0 0 500 500">
  <rect width="500" height="500" fill="none"/>
  <g>
    <g>
      <g>
        <polygon points="107.98 249.56 131.96 225.57 119.47 225.56 70.71 274.32 83.18 274.35 101.73 255.8 120.28 274.35 132.7 274.28 107.98 249.56"/>
        <polygon points="79 257.96 111.39 225.57 98.86 225.6 79 245.46 59.09 225.55 57.26 225.55 56.67 225.55 48.42 225.55 48.42 274.45 57.26 274.45 57.26 236.22 78.74 257.69 79 257.96"/>
      </g>
      <g>
        <path d="M154.07,269.81h12.97v-5.7h-14.33c-.81,0-1.53-.21-2.16-.64-.63-.43-1.11-.99-1.43-1.68-.12-.23-.21-.5-.28-.78-.07-.29-.1-.57-.1-.86v-7.04c0-.56.1-1.07.32-1.55.21-.48.5-.9.86-1.25.36-.35.78-.64,1.26-.85.48-.21.99-.32,1.53-.32h15.01c.54,0,1.05.1,1.53.32.48.21.9.49,1.26.85.36.35.65.77.86,1.25s.32,1,.32,1.55v3.03h-4.64v-2.37h-13.65v5.7h14.33c.81,0,1.53.22,2.17.64.64.43,1.11.99,1.41,1.68.12.25.21.52.28.8.07.28.1.56.1.85v7.06c0,.54-.11,1.05-.32,1.53s-.49.9-.85,1.26-.77.65-1.25.86c-.48.21-.99.32-1.53.32h-15.06c-.54,0-1.05-.1-1.53-.32s-.9-.5-1.25-.86-.63-.78-.85-1.26c-.21-.48-.32-.99-.32-1.53v-3.05h4.64v2.37h.68Z"/>
        <path d="M202.7,261.53c0,.54-.1,1.05-.31,1.53-.21.48-.49.9-.85,1.26-.35.36-.77.65-1.25.86-.48.21-.99.32-1.53.32h-14.33v8.96h-4.64v-25.31h18.97c.54,0,1.05.1,1.53.32.48.21.9.49,1.25.85.35.35.63.77.85,1.25.21.48.31,1,.31,1.55v8.43ZM184.43,253.76v7.09h13.65v-7.09h-13.65Z"/>
        <path d="M229.77,249.15c.54,0,1.05.1,1.53.32.48.21.9.49,1.26.85.36.35.65.77.86,1.25.21.48.31,1,.31,1.55v17.38c0,.54-.1,1.05-.31,1.53-.21.48-.5.9-.86,1.26s-.78.65-1.26.86-.99.32-1.53.32h-14.99c-.54,0-1.05-.1-1.53-.32-.48-.21-.9-.5-1.26-.86s-.65-.78-.86-1.26c-.21-.48-.32-.99-.32-1.53v-17.38c0-.56.1-1.07.32-1.55.21-.48.5-.9.86-1.25.36-.35.78-.64,1.26-.85.48-.21.99-.32,1.53-.32h14.99ZM229.09,253.76h-13.65v16.05h13.65v-16.05Z"/>
        <path d="M259.13,274.45l-6.1-8.96h-6.56v8.96h-4.62v-25.31h18.95c.54,0,1.05.1,1.53.32.48.21.9.49,1.26.85.36.35.65.77.86,1.25.21.48.32,1,.32,1.55v8.43c0,.54-.11,1.05-.32,1.53-.21.48-.5.9-.86,1.26-.36.36-.78.65-1.26.86-.48.21-.99.32-1.53.32h-2.14l1.46,2.17,4.64,6.79h-5.63ZM246.46,260.85h13.65v-7.09h-13.65v7.09Z"/>
        <path d="M272.87,253.76v-4.62h22.91v4.62h-9.13v20.69h-4.64v-20.69h-9.13Z"/>
        <path d="M309.21,269.81h12.97v-5.7h-14.33c-.81,0-1.53-.21-2.16-.64-.63-.43-1.11-.99-1.43-1.68-.12-.23-.21-.5-.28-.78-.07-.29-.1-.57-.1-.86v-7.04c0-.56.1-1.07.31-1.55.21-.48.5-.9.86-1.25.36-.35.78-.64,1.26-.85.48-.21.99-.32,1.53-.32h15.01c.54,0,1.05.1,1.53.32.48.21.9.49,1.26.85.36.35.65.77.86,1.25s.32,1,.32,1.55v3.03h-4.64v-2.37h-13.65v5.7h14.33c.81,0,1.53.22,2.17.64.64.43,1.11.99,1.41,1.68.12.25.21.52.28.8.07.28.1.56.1.85v7.06c0,.54-.1,1.05-.32,1.53s-.49.9-.85,1.26c-.35.36-.77.65-1.25.86-.48.21-.99.32-1.53.32h-15.06c-.54,0-1.05-.1-1.53-.32-.48-.21-.9-.5-1.25-.86-.35-.36-.64-.78-.85-1.26-.21-.48-.31-.99-.31-1.53v-3.05h4.64v2.37h.68Z"/>
        <path d="M353.22,267.44h4.62v3.05c0,.54-.11,1.05-.32,1.53-.21.48-.49.9-.85,1.26-.35.36-.77.65-1.25.86-.48.21-1,.32-1.55.32h-14.99c-.54,0-1.05-.1-1.53-.32-.48-.21-.9-.5-1.26-.86s-.65-.78-.86-1.26c-.21-.48-.31-.99-.31-1.53v-17.38c0-.56.1-1.07.31-1.55.21-.48.5-.9.86-1.25.36-.35.78-.64,1.26-.85.48-.21.99-.32,1.53-.32h14.99c.56,0,1.07.1,1.55.32.48.21.9.49,1.25.85s.63.77.85,1.25c.21.48.32,1,.32,1.55v3.03h-4.62v-2.37h-13.65v16.05h13.65v-2.37Z"/>
        <path d="M414.27,274.45l-6.11-8.96h-6.56v8.96h-4.62v-25.31h18.95c.54,0,1.05.1,1.53.32.48.21.9.49,1.26.85.36.35.65.77.86,1.25.21.48.32,1,.32,1.55v8.43c0,.54-.11,1.05-.32,1.53-.21.48-.5.9-.86,1.26-.36.36-.78.65-1.26.86-.48.21-.99.32-1.53.32h-2.14l1.46,2.17,4.64,6.79h-5.63ZM401.6,260.85h13.65v-7.09h-13.65v7.09Z"/>
        <path d="M433.32,269.81h12.97v-5.7h-14.33c-.81,0-1.53-.21-2.16-.64-.63-.43-1.11-.99-1.43-1.68-.12-.23-.21-.5-.28-.78-.07-.29-.1-.57-.1-.86v-7.04c0-.56.1-1.07.31-1.55.21-.48.5-.9.86-1.25.36-.35.78-.64,1.26-.85.48-.21.99-.32,1.53-.32h15.01c.54,0,1.05.1,1.53.32.48.21.9.49,1.26.85.36.35.65.77.86,1.25s.32,1,.32,1.55v3.03h-4.64v-2.37h-13.65v5.7h14.33c.81,0,1.53.22,2.17.64.64.43,1.11.99,1.41,1.68.12.25.21.52.28.8.07.28.1.56.1.85v7.06c0,.54-.1,1.05-.32,1.53s-.49.9-.85,1.26c-.35.36-.77.65-1.25.86-.48.21-.99.32-1.53.32h-15.06c-.54,0-1.05-.1-1.53-.32-.48-.21-.9-.5-1.25-.86-.35-.36-.64-.78-.85-1.26-.21-.48-.31-.99-.31-1.53v-3.05h4.64v2.37h.68Z"/>
        <path d="M365.99,274.3l4.35-8.33h14.13l4.35,8.33h4.82l-13.47-25.79h-5.53l-13.47,25.79h4.82ZM377.41,252.44l4.66,8.91h-9.31l4.66-8.91Z"/>
      </g>
    </g>
    <g>
      <path d="M162.55,240.45v-11.97l-5.91,9.92-5.89-9.92v11.97h-1.31v-14.59h1.31l5.89,9.96,5.97-9.96h1.27v14.59h-1.33Z" fill="#8e8e8e"/>
      <path d="M182.73,240.77c-4.36,0-7.9-3.19-7.9-7.63s3.54-7.57,7.81-7.57,7.9,3.17,7.9,7.61-3.5,7.59-7.81,7.59ZM182.71,226.88c-3.52,0-6.57,2.58-6.57,6.22s2.88,6.34,6.53,6.34,6.53-2.54,6.53-6.22-2.89-6.34-6.49-6.34Z" fill="#8e8e8e"/>
      <path d="M207.87,240.45h-6.91v-14.59h6.91c4.24,0,7.04,2.89,7.04,7.28s-3.15,7.32-7.04,7.32ZM207.87,227.19h-5.56v11.93h5.56c3.07,0,5.69-1.98,5.69-5.95s-2.45-5.99-5.69-5.99Z" fill="#8e8e8e"/>
      <path d="M225.77,240.45v-14.57h12.03v1.37h-10.72v5.01h5.85v1.33h-5.85v5.54h11.19v1.33h-12.5Z" fill="#8e8e8e"/>
      <path d="M260.33,233.49c-.78.55-1.86.76-2.39.8l3.7,6.16h-1.55l-3.68-6.16h-6.36v6.16h-1.37v-14.59h8.59c1.47,0,1.9.12,2.76.59,1.21.66,1.92,2.35,1.92,3.62s-.61,2.7-1.62,3.42ZM259.41,227.66c-.51-.31-1.04-.45-2.72-.45h-6.63v5.75h6.63c1.54,0,2.23-.1,2.82-.53.74-.55,1.11-1.53,1.11-2.43,0-.96-.37-1.84-1.21-2.35Z" fill="#8e8e8e"/>
      <path d="M284.9,240.45l-10.27-12.48v12.48h-1.33v-14.57h1.33l10.29,12.44v-12.44h1.33v14.57h-1.35Z" fill="#8e8e8e"/>
      <path d="M323.26,240.45l-5.52-8.26-4.46,4.44v3.81h-1.35v-14.57h1.35v8.88l8.94-8.88h1.86l-5.34,5.32,6.12,9.25h-1.6Z" fill="#8e8e8e"/>
      <path d="M334.82,240.45v-14.57h1.33v13.22h9.53v1.35h-10.86Z" fill="#8e8e8e"/>
      <path d="M367.37,240.45l-2.56-5.2h-7.47l-2.56,5.2h-1.49l7.14-14.59h1.35l7.08,14.59h-1.49ZM361.11,227.54l-3.11,6.38h6.2l-3.09-6.38Z" fill="#8e8e8e"/>
      <path d="M383.86,240.79c-1.27,0-2.52-.19-3.72-.63-1.49-.53-2.33-1.27-3.44-2.37l.92-.96c1.88,1.92,3.7,2.6,6.36,2.6,1.96,0,5.59-.51,5.59-3.15,0-1.9-1.94-2.66-3.29-2.78-.8-.08-2.74-.06-3.85-.08-2.21-.04-4.68-.92-4.68-3.52,0-2.19,1.84-3.48,3.76-4.01.9-.25,1.84-.35,2.76-.35,2.27,0,4.01.74,5.81,2.09l-.82,1c-1.78-1.13-3.05-1.78-5.22-1.78-.63,0-1.25.04-1.88.2-1.37.31-3.07,1.21-3.07,2.84,0,1.8,1.92,2.17,3.34,2.21,1.15.04,2.89.04,3.97.12,2.45.19,4.52,1.56,4.52,4.05,0,3.58-4.24,4.52-7.06,4.52Z" fill="#8e8e8e"/>
      <path d="M406.63,240.79c-1.27,0-2.52-.19-3.72-.63-1.49-.53-2.33-1.27-3.44-2.37l.92-.96c1.88,1.92,3.7,2.6,6.36,2.6,1.96,0,5.59-.51,5.59-3.15,0-1.9-1.94-2.66-3.29-2.78-.8-.08-2.74-.06-3.85-.08-2.21-.04-4.68-.92-4.68-3.52,0-2.19,1.84-3.48,3.76-4.01.9-.25,1.84-.35,2.76-.35,2.27,0,4.01.74,5.81,2.09l-.82,1c-1.78-1.13-3.05-1.78-5.22-1.78-.63,0-1.25.04-1.88.2-1.37.31-3.07,1.21-3.07,2.84,0,1.8,1.92,2.17,3.34,2.21,1.15.04,2.89.04,3.97.12,2.45.19,4.52,1.56,4.52,4.05,0,3.58-4.24,4.52-7.06,4.52Z" fill="#8e8e8e"/>
      <path d="M424.23,240.45v-14.57h1.29v14.57h-1.29Z" fill="#8e8e8e"/>
      <path d="M444.46,240.79c-4.34,0-7.86-3.19-7.86-7.61s3.5-7.63,7.94-7.63c2.82,0,5.01.8,6.98,2.84l-.9.96c-1.68-1.72-3.56-2.46-5.97-2.46-3.74,0-6.73,2.43-6.73,6.3s3.01,6.26,6.61,6.26c2.41,0,4.38-1.02,6.12-2.62l.92.98c-2.05,1.92-4.28,2.99-7.12,2.99Z" fill="#8e8e8e"/>
    </g>
  </g>
</svg>