<?xml version="1.0" encoding="UTF-8"?>
<svg id="Layer_1" data-name="Layer 1" xmlns="http://www.w3.org/2000/svg" width="500" height="500" viewBox="0 0 500 500">
  <rect width="500" height="500" fill="none"/>
  <g>
    <path d="m476.48,203.43c-.39-.39-.39-.77-1.16-.77h-.77c-12.37,3.09-28.6,3.86-59.52,4.25-31.3.77-52.95,0-74.2-2.71-10.05-1.55-16.23-2.32-23.19-2.32-4.64,0-13.14,1.16-18.55,3.48l-5.02,2.32c3.48,3.48,6.57,7.34,9.28,11.59,0,0,.77-.39,2.71-.39,1.93-.39,3.48-.39,5.41-.39,4.64,0,9.66.39,15.46,1.16,1.16,0,2.32.39,3.48.39l6.57.77c7.73.77,16.62,1.93,27.44,2.71,8.5.39,16.23.77,24.35.77h10.82c16.23-.39,31.69-2.71,45.99-6.57,3.86-1.16,9.66-3.09,12.75-3.86.39,0,1.93-.77,2.71-1.16,1.93-.77,3.48-1.55,5.02-2.32,3.48-1.55,6.18-3.48,8.89-5.41l.39-.39c.39,0,.77-.39,1.16-1.16q0,.26,0,0"/>
    <path d="m328.07,277.63c-4.64-.39-8.89-.77-13.53-1.16l-6.57-.77-1.55-.39c-2.32,5.02-5.02,9.66-8.5,13.91h3.48c19.71-.39,32.85-5.02,40.19-8.89h0c1.55-.77,2.71-1.16,4.64-2.71-3.48.39-6.96.39-10.43.39-2.71-.39-5.02-.39-7.73-.39"/>
    <path d="m232.22,232.03v-1.93l-7.34-8.5c-1.16.77-1.93,1.93-2.71,2.71l8.12,7.34h1.93s0,.39,0,.39Z"/>
    <path d="m224.11,232.03v-1.16l-4.25-3.09c-.39.77-.77,1.55-1.16,2.32l3.86,1.93s1.55,0,1.55,0Z"/>
    <path d="m232.22,223.91v-1.55l-2.32-3.86c-.77.39-1.55.77-2.32,1.55l3.09,4.25h1.55s0-.39,0-.39Z"/>
    <path d="m267.78,232.03h1.55l8.12-7.34c-.77-1.16-1.93-1.93-2.71-2.71l-6.96,8.5s0,1.55,0,1.55Z"/>
    <path d="m267.78,223.91h1.16l3.09-4.25c-.77-.39-1.55-.77-2.32-1.16l-1.93,3.86s0,1.55,0,1.55Z"/>
    <path d="m275.89,232.03h1.55l3.86-2.32c-.39-.77-.77-1.55-1.55-2.32l-4.25,3.09v1.55s.39,0,.39,0Z"/>
    <path d="m267.78,268.36v1.93l7.34,8.5c1.16-.77,1.93-1.93,2.71-2.71l-8.12-7.34h-1.93s0-.39,0-.39Z"/>
    <path d="m275.89,268.36v1.16l4.25,3.09c.39-.77.77-1.55,1.16-2.32l-3.86-1.93s-1.55,0-1.55,0Z"/>
    <path d="m267.78,276.86v1.55l2.32,3.86c.77-.39,1.55-.77,2.32-1.55l-3.09-4.25h-1.55v.39Z"/>
    <path d="m232.22,268.36h-1.93l-8.12,7.34c.77,1.16,1.93,1.93,2.71,2.71l6.96-8.5v-1.55h.39Z"/>
    <path d="m232.22,276.86h-1.16l-3.09,4.25,2.32,1.16,1.93-3.86v-1.55Z"/>
    <path d="m224.11,268.36h-1.55l-3.86,2.32c.39.77.77,1.55,1.55,2.32l4.25-3.09v-1.55s-.39,0-.39,0Z"/>
    <path d="m23.52,203.43c.39-.39.39-.77,1.16-.77h.77c12.37,3.09,28.6,3.86,59.52,4.25,31.3.77,52.95,0,74.2-2.71,10.05-1.55,16.23-2.32,23.19-2.32,4.64,0,13.14,1.16,18.55,3.48l5.02,2.32c-3.48,3.48-6.57,7.34-9.28,11.59,0,0-.77-.39-2.71-.39-1.93-.39-3.48-.39-5.41-.39-4.64,0-9.66.39-15.46,1.16-1.16,0-2.32.39-3.48.39l-6.57,1.16c-7.73.77-16.62,1.93-27.44,2.71-8.5.39-16.23.77-24.35.77h-10.82c-16.23-.39-31.69-2.71-45.99-6.57-3.86-1.16-9.66-3.09-12.75-3.86-.39-.39-1.93-1.16-2.32-1.16-1.93-.77-3.48-1.55-5.02-2.32-3.48-1.93-6.57-3.86-9.28-5.8l-.39-.39c-.39,0-.77-.39-1.16-1.16q0,.26,0,0"/>
    <path d="m268.55,287.3v7.34h-37.49v-7.73c-7.73-3.86-14.3-10.43-18.55-18.16h-16.62c8.12,22.8,29.76,38.26,54.11,38.26s45.6-15.46,54.11-38.26h-16.62c-4.25,8.12-10.82,14.69-18.94,18.55"/>
    <path d="m231.45,213.09v-8.12h37.49v8.12c7.73,3.86,14.3,10.43,18.55,18.16h16.62c-8.12-22.8-29.76-38.26-54.11-38.26s-45.6,15.46-54.11,38.26h16.62c4.64-7.73,10.82-14.3,18.94-18.16"/>
    <path d="m446.33,221.21c-14.69,3.86-30.53,6.18-46.76,6.57h-10.82c-8.12,0-16.23-.39-24.73-.77-10.43-.77-19.71-1.93-27.44-2.71l-6.57-.77c-1.16,0-2.32-.39-3.48-.39-5.8-.77-10.82-1.16-15.07-1.16-1.93,0-3.48,0-4.64.39l-1.55.39c1.55,2.71,2.71,5.41,3.48,8.5h28.21v7.34c9.28,1.16,20.48,1.93,32.46,1.93,4.25,0,8.89,0,13.14-.39,5.41-.39,10.82-.77,16.23-1.16,32.85-3.48,45.99-11.59,45.99-11.59,1.16-.77,2.32-1.16,3.48-1.93,3.48-2.32,7.73-5.02,9.28-6.57.39-.39.77-.77,1.16-1.16h0c-2.71.77-8.5,2.71-12.37,3.48"/>
    <path d="m191.64,231.26c1.16-3.09,2.32-5.8,3.48-8.5l-1.55-.39c-1.55,0-3.09-.39-4.64-.39-4.25,0-9.28.39-15.07,1.16-1.16,0-2.32.39-3.48.39l-6.57.77c-7.73.77-17.01,1.93-27.44,2.71-8.5.77-16.62.77-24.73.77h-10.82c-16.62-.39-32.46-2.71-47.15-6.57-3.86-1.16-9.28-2.71-12.37-3.86h0l1.16,1.16c1.55,1.55,5.8,4.64,9.28,6.57,1.16.77,2.32,1.16,3.48,1.93,0,0,13.14,8.12,45.99,11.59,5.02.39,10.82,1.16,16.23,1.16,4.64.77,8.89.77,13.14.77,11.98,0,23.19-.77,32.46-1.93v-7.34s28.6,0,28.6,0Z"/>
    <path d="m213.67,243.24c-1.79.31-7.27-1.08-7.34,1.93,0,0,0,9.66,0,9.66.07,3.01,5.56,1.64,7.34,1.93,1.16,0,2.32-.77,2.32-1.93v-9.66c0-1.16-.77-1.93-2.32-1.93Z"/>
    <path d="m286.72,253.29h7.34l-3.48-8.12c-1.16,1.93-3.09,6.18-3.86,8.12Z"/>
    <path d="m240.72,245.17c-.07-3.1-5.42-2.21-7.34-2.32v5.8c2.79-.22,8.27,1.28,7.34-3.48Z"/>
    <path d="m265.46,234.35v-26.28h-30.92v26.28h-68.02v31.69h68.02v25.89h30.92v-25.89h68.41v-31.69h-68.41Zm-70.73,26.28h-3.48v-14.69l-5.41,6.96h-2.32l-5.41-6.96v14.69h-3.48v-20.87h3.09l6.96,8.89c1.55-2.32,6.57-8.89,6.57-8.89h3.48v20.87Zm25.12-5.8c.02,5.78-6.51,6.19-10.82,5.8-7.69.07-5.54-10.68-5.8-15.46-.02-5.78,6.51-6.19,10.82-5.8,7.69-.07,5.54,10.68,5.8,15.46Zm21.64,6.18v-.39s-4.25-6.18-5.02-7.73h-3.09v7.73h-3.48v-20.87c4.7.11,14.34-1.5,14.3,5.8.2,2.56-.47,5.52-3.48,6.57l5.02,8.89h-4.25Zm30.53-15.85h-4.25c-1.06-3.04-5.75-3.62-7.73-1.16-1.87,2.36-1.5,9.27,0,11.59,2.75,3.47,9.88.75,7.73-3.86h-4.25v-3.48h8.5c2.11,10.81-11.13,15.66-16.23,6.57-5.64-19.22,14.25-20.16,16.23-9.66Zm25.12,15.07l-1.55-3.48h-10.82l-1.55,3.48h-3.86l9.28-20.87h3.09l9.28,20.87h-3.86Zm28.21.39h-3.09l-10.05-14.3v14.3h-3.48v-21.26h3.09l10.05,14.3v-14.3h3.48v21.26Z"/>
    <path d="m308.74,269.13c0,.39-.77,2.32-1.16,3.09,0,0,18.16,4.25,43.29,1.55,26.28-3.09,37.49-14.3,38.65-15.46-9.28,1.93-18.94,2.71-30.15,2.71h-1.55c-6.57,0-13.91-.39-20.87-.77v8.89h-28.21,0Z"/>
    <path d="m392.22,254.83c24.35-4.64,34.01-15.85,36.72-18.94h-.39c-9.66,2.71-19.71,5.02-30.53,6.18-5.41.77-10.82,1.16-16.62,1.16-4.64.39-8.89.39-13.53.39-11.98,0-22.42-.77-31.3-1.93v14.69c7.34,1.16,30.92,3.09,55.65-1.55"/>
    <path d="m171.93,277.63c4.64-.39,8.89-.77,13.53-1.16l6.57-.77,1.55-.39c2.32,5.02,5.02,9.66,8.5,13.91h-3.48c-19.71-.39-32.85-5.02-40.19-8.89h0c-1.55-.77-2.71-1.16-4.64-2.71,3.48.39,6.96.39,10.43.39,2.71-.39,5.02-.39,7.73-.39"/>
    <path d="m191.26,269.13c0,.39.77,2.32,1.16,3.09,0,0-18.16,4.25-43.29,1.55-26.28-3.09-37.49-14.3-38.65-15.46,9.28,1.93,18.94,2.71,30.15,2.71h1.55c6.57,0,13.91-.39,20.87-.77v8.89s28.21,0,28.21,0Z"/>
    <path d="m107.78,254.83c-24.35-4.64-34.01-15.85-36.72-18.94h.39c9.66,2.71,19.71,5.02,30.53,6.18,5.41.77,10.82,1.16,16.62,1.16,4.64.39,8.89.39,13.53.39,11.98,0,22.42-.77,31.3-1.93v14.69c-7.34,1.16-30.92,3.09-55.65-1.55"/>
  </g>
</svg>