<?xml version="1.0" encoding="UTF-8"?>
<svg id="Layer_1" data-name="Layer 1" xmlns="http://www.w3.org/2000/svg" width="500" height="500" viewBox="0 0 500 500">
  <rect width="500" height="500" fill="none" stroke-width="0"/>
  <g>
    <path d="M266.45,158.85c.66-.37,2.87.95,3.55,1.17-1.64,0-1.14,1.88-2.22,2.38-1.12.52-2.33,1.25-1.7,2.67,1.24,2.78,6.55,1.05,8.9.55,5.53-1.18,12.58-2.62,15.33,4.01,1.46,2.68.25,5.7,2.14,8.03,1.83,2.25,2.39,4.94,2.83,7.74.48,3.07.91,6.15.85,9.27-.07,3.47-1.4,6.25-2.16,9.56-.61,2.64-.04,5.17,1.88,7.14,2.01,2.06,1.65,3.47,1.06,6.15-.23,1.03-.9,1.88-1.35,2.82-.57,1.65-1,3.34-1.29,5.06-.54,3.2-.85,6.67.03,9.81.88,3.15-1.17,4.25-4.09,4.07-1.77-.1-1.96-.16-1.71-2.02.19-1.38.97-2.55,1.13-4.02.34-3.03.4-5.16-.39-8.14-.63-2.34-1.01-4.93-2.97-6.34-.08,1.06.09,2.11-.52,3.04-.65.99-1.62,1.82-1.98,2.98-.47,1.47-.05,1.52-1.56,2.46-1.5.93-2.42,1.64-3.13,3.31-.81,1.9-.7,6.05-3.65,5.87-1.58-.31-2.99-1.12-4.35-1.95.55-1.33,1.52-2.42,2.76-3.15,1.18-2.2,3.22-3.98,3.74-6.51.3-1.27.82-2.51.83-3.84-1.28-.28-2.31-1.11-3.11-2.12-.64-.82-1.14-1.74-1.63-2.66-.59-1.1-2.7-.7-3.94-.68-3.04.05-5.49,2.12-8.64,2.23-2.89.1-4.07-.77-6.4-2.24-2.01-1.27-4.39-1.25-6.01.64-1.86,2.18-1.49,5.45-2.28,8.02-.4,1.3-1.31,2.33-1.89,3.54-.7,1.46-.64,3.13-.57,4.71.08,1.97.82,6.38-2.43,6.1-1.33-.02-2.83.28-3.99-.57.21-.65.34-1.32.39-2.01.52-.74.98-1.52,1.36-2.34,1.15-2.45,1.69-5.27,1.08-7.95-.75-3.29.65-5.67,1.1-8.87-2.54-.44-4.31,2.26-6.56,2.95-2.84.87-5.42-.02-7.96-1.18-2.18-.98-4.67,1.18-3.68,3.54,1.28,3.04,6.34,3.78,9.12,4.65,1.27.39,2.58.49,2.4,2.13-.14,1.31-1.05,2.38-1.87,3.35-.94.44-2.89,1.11-3.81.34-1.04-.88-1.38-1.95-2.68-2.62-2.48-1.28-4.49-3.75-6.94-5.23-2.86-1.72-3.29-4.26-2.29-7.44.4-1.27.94-2.61.67-3.97-.27-1.36-1.18-2.63-1.56-3.99-.83-2.91-1.42-5.37-3.24-7.84-1.95-2.64-3.35-4.13-6.83-4.19-1.81-.03-3.15-.7-4.82-1.33-1.35-.49-1.63-1.63-3.27-1.63-3.09,0-4.7.55-6.08-2.85-.57-1.39-.73-2.29.35-3.46,1.27-1.37,2.05-2.45,2.66-4.28.53-1.59.93-3.22,1.63-4.74.81-1.43-.3-2.66.93-4.06.85-.96,2.01-1.7,2.55-2.91-.8-2.01-1.11-4.17-1.77-6.23,1.5.58,2.65,1.81,3.39,3.21.88-.79,2.1-1.09,2.91-1.97.33-1.48-.78-2.71-.93-4.13,1.05.39,1.97,1.1,2.64,2,.8,1.1.5,2.13,1.86,2.44,2.57.59,4.68,2.3,7.13,3.19,2.86.16,5.46-.71,8.36-.26,2.94.45,5.5,1.85,8.33,2.58,2.8.73,5.69,1.07,8.58,1.22,3.13.24,6.18,1.04,9.28,1.53,6.27.99,12.92.26,19.22-.22,2.71-.21,5.43-.59,7.97-1.6,2.77-1.1,5.28.51,8.24-.49,1.69-.57,2.11-.59,1.95-2.43-.11-1.33-1.23-2.39-2.32-3.05-2.31-1.4-5.4-1.13-7.96-.81-2.65.33-5.4-.03-8.03,1.09-2.59,1.1-3.48,2.35-5.64,1.09-1.84-1.07-2.37-3.45-2.11-5.23.39-2.67,3.22-5.09,5.22-5.09" stroke-width="0"/>
    <path d="M39.73,189.7h90.86c1.15-4.18,2.5-8.28,4.06-12.28H39.73v12.28ZM47.04,205.34h80.35c.58-4.16,1.36-8.26,2.34-12.28H47.04v12.28ZM31.61,174.07h104.41c1.79-4.22,3.82-8.31,6.05-12.28H31.61v12.28ZM55.08,220.98h71.14c.05-4.14.3-8.24.75-12.28H55.08v12.28ZM357.93,161.79c2.23,3.96,4.26,8.06,6.05,12.28h104.41v-12.28h-110.46ZM369.41,189.7h90.86v-12.28h-94.92c1.56,3.99,2.91,8.09,4.06,12.28ZM372.61,205.34h80.35v-12.28h-82.68c.98,4.02,1.76,8.11,2.34,12.28ZM373.78,220.98h71.14v-12.28h-71.89c.45,4.04.7,8.13.75,12.28Z" stroke-width="0"/>
    <path d="M249.03,356.86l-3.36-.06-.13,6.96,2.66.05c3.28.06,4.95-1.08,4.99-3.42.02-1.16-.34-2.02-1.08-2.61-.74-.59-1.77-.89-3.08-.91ZM285.16,353.24c-.86-.38-1.93-.43-3.21-.12l-3.27.77,1.6,6.78,2.59-.61c3.2-.75,4.53-2.27,3.99-4.55-.27-1.13-.83-1.88-1.69-2.26ZM213.32,351.87c-2.2-.61-4.29-.3-6.28.93-1.99,1.23-3.43,3.44-4.31,6.63-.78,2.82-.64,5.28.4,7.39,1.05,2.11,2.69,3.47,4.93,4.09,2.2.6,4.3.3,6.29-.94,2-1.23,3.43-3.41,4.29-6.53.77-2.79.66-5.26-.33-7.39-.99-2.14-2.66-3.53-5-4.18ZM374.23,222.76c-.08,32.45-12.87,63.01-36.02,86.05-23.58,23.47-55.01,36.35-88.5,36.27-68.5-.16-124.09-55.3-123.93-122.91l-48.72-.12c-.23,94.47,77.17,171.52,172.53,171.75,46.5.11,90.18-17.81,122.99-50.46,32.37-32.22,50.26-75,50.37-120.46l-48.72-.12ZM190.03,344.4l-10.78,16.52,3.23,2.11-2.75,4.21-12.55-8.2,2.75-4.21,3.01,1.96,10.79-16.52-.59-.39-21.27,15.69-2.69-1.76,5.72-25.84-.59-.39-10.79,16.52,3.27,2.13-2.75,4.21-10.55-6.89,2.75-4.22,3.23,2.11,10.78-16.52-3.23-2.11,2.75-4.22,12.5,8.16-4.07,18.22,15.06-11.04,12.75,8.33-2.75,4.21-3.23-2.11ZM226.64,365.78c-1.14,4.12-3.53,7.22-7.16,9.29-3.63,2.07-7.92,2.42-12.86,1.06-5.13-1.42-8.67-3.97-10.61-7.67-1.94-3.69-2.36-7.52-1.27-11.49,1.13-4.1,3.5-7.19,7.12-9.28,3.62-2.09,7.92-2.44,12.89-1.07,4.95,1.37,8.45,3.87,10.5,7.52,2.05,3.64,2.51,7.52,1.37,11.64ZM264.41,381.9l-9.08-.17-6.48-13.16-3.4-.06-.15,8.01,3.73.07-.09,5.03-15.57-.29.09-5.03,4.09.07.36-19.72-4.09-.08.09-5.03,17.97.33c3.38.06,5.8.96,7.26,2.69,1.46,1.73,2.17,3.68,2.13,5.83-.06,3.38-1.83,5.82-5.3,7.31l4.67,9.08,3.85.07-.09,5.03ZM294.23,375.67l-9.54-11.15-3.31.78,1.84,7.8,3.63-.86,1.16,4.9-15.16,3.58-1.16-4.9,3.98-.94-4.53-19.2-3.98.94-1.16-4.9,17.49-4.13c3.3-.78,5.87-.5,7.71.81,1.84,1.32,3.01,3.03,3.51,5.12.78,3.3-.33,6.1-3.32,8.4l6.78,7.65,3.75-.89,1.16,4.9-8.84,2.08ZM310.15,370.34l-2.11-4.57,4.1-1.89-8.25-17.9-4.1,1.89-2.1-4.57,15.28-7.04,2.1,4.57-4.14,1.91,8.25,17.9,4.14-1.91,2.11,4.57-15.28,7.04ZM346.84,347.42c-.57,2.19-1.82,3.95-3.75,5.28-2.15,1.48-4.36,1.83-6.61,1.04l1.43,2.08-4.16,2.86-5.75-8.36,4.16-2.86c1.1,1.5,2.27,2.35,3.52,2.55,1.25.21,2.36-.02,3.32-.69.75-.52,1.21-1.22,1.37-2.1.16-.88,0-1.67-.49-2.38-.52-.75-1.21-1.21-2.06-1.37-.86-.16-2.18-.11-3.98.15-3.78.57-6.54.68-8.28.34-1.74-.35-3.21-1.41-4.43-3.18-1.47-2.14-1.94-4.26-1.41-6.36.53-2.1,1.65-3.73,3.36-4.91,1.95-1.34,3.98-1.62,6.1-.84l-1.4-2.03,4.14-2.85,5.13,7.46-4.14,2.85c-.92-1.06-1.93-1.68-3.03-1.85-1.1-.17-2.09.05-2.97.65-.68.47-1.13,1.05-1.35,1.74s-.13,1.33.28,1.91c.35.51.87.85,1.57,1.04.7.19,2.28.05,4.73-.41,2.37-.43,4.26-.66,5.68-.67,1.42-.01,2.77.3,4.05.96,1.28.65,2.39,1.66,3.33,3.02,1.67,2.42,2.21,4.73,1.64,6.93Z" stroke-width="0"/>
    <path d="M250,106.2c-64.21,0-116.26,52.05-116.26,116.26s52.05,116.25,116.26,116.25,116.26-52.05,116.26-116.25-52.05-116.26-116.26-116.26ZM343.95,251.95c-1.12,4.14-10.54,29.2-19.22,35.6-7.44,4.95-16.17,8.61-25.31,11.19-10.82,3.08-23,2.13-33.36,6.4-6.75,2.72-11.99,7.32-16.06,12.28-4.07-4.96-9.3-9.55-16.05-12.28-10.36-4.27-22.54-3.32-33.36-6.4-9.14-2.58-17.87-6.24-25.31-11.19-8.68-6.4-18.11-31.46-19.22-35.6-4.2-15.57-1.64-32.4,1.73-48.13,4.05-18.96-4.07-37.44-4.07-37.44,2.4-2.52,14.92-17.24,18.27-21.11,27.88,5.01,27.92,4.03,38.34,4.03,17.28,0,24.56-10.12,39.68-10.12s22.4,10.12,39.68,10.12c10.41,0,10.45.98,38.34-4.03,3.35,3.87,15.87,18.59,18.27,21.11,0,0-8.12,18.47-4.07,37.44,3.36,15.73,5.93,32.57,1.73,48.13Z" stroke-width="0"/>
    <path d="M279.02,256.49c-2.62,0-5.32-.3-8.24-.93-2.65-.57-5.26-1.36-7.79-2.13-2.25-.69-4.8-1.46-7.25-1.99-2.43-.52-4.65-.78-6.8-.78s-4.37.25-6.8.78c-2.41.52-4.86,1.26-7.24,1.99-2.55.77-5.16,1.56-7.8,2.13-5.85,1.25-10.65,1.25-16.49,0-2.67-.57-5.27-1.36-7.8-2.13-2.38-.72-4.85-1.47-7.25-1.99-2.43-.52-4.66-.77-6.8-.77s-4.37.25-6.8.78c-2.4.51-4.86,1.26-7.24,1.99l-2-6.57c2.52-.76,5.12-1.55,7.8-2.13,5.83-1.25,10.66-1.25,16.48,0,2.68.58,5.28,1.37,7.8,2.13,2.39.72,4.85,1.47,7.24,1.98,2.44.52,4.66.78,6.8.78s4.36-.25,6.8-.78c2.36-.51,4.72-1.22,7.23-1.98,2.41-.73,5.13-1.56,7.81-2.13,5.82-1.25,10.66-1.25,16.48,0,2.73.59,5.42,1.41,7.8,2.13,2.5.76,4.87,1.48,7.24,1.98,2.44.52,4.66.78,6.8.78s4.36-.25,6.8-.78c2.37-.51,4.85-1.26,7.24-1.98,2.37-.72,5.06-1.54,7.79-2.13,5.83-1.25,10.66-1.25,16.48,0,2.73.59,5.42,1.41,7.8,2.13l-2,6.57c-2.25-.68-4.8-1.46-7.24-1.99-2.43-.52-4.66-.77-6.8-.77s-4.37.25-6.8.78c-2.45.53-4.99,1.3-7.24,1.98-2.53.77-5.15,1.56-7.8,2.13-2.92.63-5.62.93-8.24.93Z" stroke-width="0"/>
    <path d="M274.93,270.82c-2.34,0-4.73-.31-7.32-.96-2.29-.57-4.54-1.35-6.71-2.11l-.09-.03c-2.33-.82-4.26-1.49-6.19-1.97-2.05-.51-3.9-.75-5.67-.75s-3.62.25-5.67.75c-2.04.51-4.15,1.25-6.18,1.96-2.25.79-4.51,1.58-6.81,2.15-5.19,1.29-9.47,1.28-14.65,0-2.3-.57-4.56-1.36-6.75-2.13-2.1-.74-4.2-1.48-6.25-1.99-2.05-.51-3.9-.75-5.67-.75s-3.62.25-5.67.75c-2.03.5-4.14,1.25-6.18,1.96l-2.28-6.48c2.19-.77,4.46-1.57,6.81-2.15,5.21-1.29,9.45-1.29,14.65,0,2.36.59,4.73,1.42,6.81,2.15,2.18.76,4.19,1.47,6.18,1.96,2.04.51,3.9.75,5.67.75s3.63-.25,5.67-.75c1.99-.49,4-1.2,6.13-1.94,2.14-.75,4.5-1.58,6.86-2.17,5.2-1.29,9.45-1.29,14.65,0,2.41.6,4.85,1.46,6.82,2.15l.09.03c2.12.74,4.12,1.44,6.09,1.93,2.05.51,3.9.75,5.67.75s3.63-.25,5.67-.75c1.99-.49,4-1.2,6.12-1.94,2.12-.75,4.47-1.57,6.86-2.17,5.21-1.29,9.46-1.28,14.65,0,2.41.6,4.85,1.46,6.81,2.15l-2.28,6.48c-2.32-.82-4.25-1.48-6.18-1.96-2.05-.51-3.9-.75-5.67-.75s-3.62.25-5.67.75c-2.07.52-4.25,1.28-6.18,1.96-2.25.79-4.51,1.58-6.81,2.15-2.59.64-4.99.95-7.32.95Z" stroke-width="0"/>
    <path d="M268.17,284.68c-1.82,0-3.69-.25-5.71-.76-1.76-.45-3.46-1.07-5.1-1.66-1.54-.56-3.07-1.12-4.52-1.49-2.82-.73-4.99-.72-7.8,0-1.46.37-2.99.93-4.47,1.47-1.66.6-3.38,1.22-5.15,1.68-4.06,1.03-7.4,1.03-11.43,0-1.76-.45-3.46-1.07-5.11-1.66-1.45-.53-3.04-1.11-4.51-1.48-2.83-.73-4.99-.72-7.81,0-1.45.37-2.99.93-4.47,1.47l-2.5-6.87c1.57-.57,3.36-1.22,5.16-1.68,4-1.03,7.4-1.03,11.43,0,1.82.46,3.59,1.11,5.15,1.68,1.58.57,3.05,1.1,4.47,1.47,2.82.72,4.96.73,7.8,0,1.42-.37,2.9-.9,4.46-1.47,1.57-.57,3.36-1.22,5.16-1.68,1.97-.51,3.9-.76,5.71-.76s3.71.25,5.72.77c1.79.46,3.58,1.11,5.15,1.68,1.59.58,3.05,1.1,4.47,1.47,1.42.36,2.7.54,3.9.54s2.49-.18,3.91-.54c1.43-.37,2.9-.9,4.47-1.47,1.56-.57,3.33-1.22,5.15-1.68,4.01-1.03,7.41-1.03,11.43,0,1.79.46,3.58,1.11,5.15,1.68l-2.5,6.87c-1.48-.54-3.01-1.1-4.46-1.47-2.82-.73-4.99-.73-7.8,0-1.47.37-2.99.93-4.46,1.47-1.67.6-3.38,1.22-5.15,1.68-2.03.52-3.9.77-5.72.77Z" stroke-width="0"/>
  </g>
</svg>