<?xml version="1.0" encoding="UTF-8"?>
<svg id="Layer_1" data-name="Layer 1" xmlns="http://www.w3.org/2000/svg" width="500" height="500" viewBox="0 0 500 500">
  <rect width="500" height="500" fill="none"/>
  <g>
    <path d="m167.82,265.78h60.81c1.06,0,1.92-.86,1.92-1.91h0v-38.11c0-1.06-.86-1.91-1.91-1.91h-60.81c-1.06,0-1.91.86-1.92,1.91h0v38.11c0,1.06.86,1.92,1.92,1.92h0Zm22.77-32.11c0-.65.21-1.18.48-1.18h15.39c.27,0,.48.53.48,1.18v22.81c0,.65-.21,1.17-.48,1.17h-15.39c-.27,0-.48-.52-.48-1.17v-22.81Z"/>
    <path d="m24.47,263.86c0,1.06.86,1.92,1.92,1.92h20.19c1.06,0,1.92-.86,1.92-1.92h0v-10.79c.05-.29.12-.56.19-.85l12.42,13.55h26.08c1.06,0,1.92-.86,1.92-1.92h0v-38.1c0-1.06-.86-1.91-1.91-1.91h-19.97c-1.06,0-1.92.85-1.92,1.91h0v9.37c-.08.46-.23.89-.52,1.3l-1.35-1.25c-.15-.14-.3-.29-.46-.42l-4.4-4.07c-.53-.58-1.05-1.21-1.54-1.91-2.31-1.03-2.85-4.56-5.68-4.75l-.2-.19h-24.78c-1.06,0-1.91.85-1.92,1.91h0v.33h0s-.26,35.97-.26,35.97c0,.55.1.98.27,1.38v.44h0Z"/>
    <path d="m97.07,265.78h61.14c1.06,0,1.91-.86,1.91-1.92l-.14-4.65c0-.64-1.08-1.68-1.74-1.68h-37.64c-.66,0-1.2-.51-1.2-1.14v-5.68c.02-.64.55-1.15,1.2-1.14h38.19c.66,0,1.2-.18,1.2-.39v-7.84c0-.21-.54-.39-1.2-.39h-38.19c-.66,0-1.2-.51-1.2-1.14v-6.11c.02-.64.55-1.15,1.2-1.14h37.64c.66,0,1.74-1.06,1.74-1.68l.14-5.1c0-1.06-.86-1.91-1.92-1.91h-61.14c-1.06,0-1.92.85-1.92,1.91v38.11h0c0,1.06.86,1.92,1.92,1.92h0Z"/>
    <path d="m238.67,265.78h20.25c2.08,0,2.08-.63,2.08-2.03v-12.74c0-1.06.86-1.92,1.91-1.92h37.51c1.35,0,1.86-.46,1.86-1.81v-21.53c0-1.06-.86-1.91-1.91-1.91h-61.71c-1.06,0-1.92.85-1.92,1.91h0v38.11c0,1.06.86,1.92,1.92,1.92h0Zm22.77-32.11c0-.65.21-1.18.48-1.18h15.39c.27,0,.48.53.48,1.18v5.94c0,.64-.21,1.17-.48,1.17h-15.39c-.27,0-.48-.53-.48-1.17v-5.94Z"/>
    <path d="m415.26,270.74c-1.35,0-1.74-.34-2.25-1.18-.51-.85-1.7-3.63-1.7-3.63h20.94c1.06-.15,1.91-1.01,1.91-2.08v-11.84l12.6,13.77h26.09c1.06,0,1.91-.86,1.91-1.92v-38.11c0-1.06-.87-1.91-1.91-1.91h-19.97c-1.06,0-1.92.85-1.92,1.91v11.15l-14.12-13.06h-24.79c-1.06,0-1.92.85-1.92,1.91v38.11c-.35-.43-16-40.89-17.04-43.58-.25-.91-1.25-2.33-3.73-2.33l-24.28.02c-2.49,0-3.72.98-4.05,1.71-4.68,11.61-13.95,36.37-14.72,37.58l-13.35.27c-.66,0-1.2-.51-1.2-1.14l-.16-30.63c0-1.06-.86-1.91-1.91-1.91h-19.4c-1.06,0-1.92.85-1.92,1.91v38.11c0,1.06.86,1.92,1.92,1.92l32.04.09-2.6,4.88H24.32v11.31h338.2l5.81-16.16,16.9-.18,4.16,16.32,86.4.02v-11.31h-60.53,0Zm-44.35-13.47l5.83-18.79,1.99.08h0l4.16,18.82-11.98-.11h0Z"/>
  </g>
</svg>