<?xml version="1.0" encoding="UTF-8"?>
<svg id="Layer_1" data-name="Layer 1" xmlns="http://www.w3.org/2000/svg" width="500" height="500" viewBox="0 0 500 500">
  <rect width="500" height="500" fill="none"/>
  <g id="g33099">
    <g id="g4312">
      <path id="path4310" d="m454.14,207.63v64.96c0,2.48-2,4.49-4.48,4.49-.01,0-.02,0-.03,0H50.32c-2.48.01-4.5-1.99-4.51-4.47,0,0,0-.01,0-.02v-64.96c.01-2.48,2.03-4.48,4.51-4.48h399.31c2.48,0,4.5,2,4.51,4.48m-99.58,99.64c-15.62,44.2-64.27,60.79-104.56,61.56-40.33-.77-88.9-17.38-104.6-61.56-.43-1.24-.35-2.05-.17-2.27.06-.1.33-.13.54-.13h208.46c.22,0,.47.04.52.13.18.23.29,1.04-.19,2.27m-216.44,49.85c-5.18-4.22-9.86-9.01-13.97-14.27-3.54-4.31-7.07-8.99-10.33-13.5-3.41-4.73-6.49-9.23-8.94-12.91-2.86-4.41-4.83-7.62-5.26-8.5-1.73-3.4-3.41-7.62-.57-11.58,4-4.52,9.07-7.96,14.73-10.03l28,16.39-1.29,2.13-23.9-13.29c18.53,52.63,71.51,90.61,133.99,90.61,57.48.7,109.25-34.63,129.56-88.41l-20.93,10.93-.64-1.04c-.12-.36-.3-.69-.52-1-.02-.04-.1-.09-.1-.12l28.84-16.64,18.41,14.69c-5.82,14.9-22.35,40.41-44.81,37.8-29.66,32.84-63.93,48.57-109.81,48.57-42.91.44-84.13-16.7-114.08-47.43l-13.63-4.45c4.04,7.98,9.16,15.37,15.22,21.95,0,0,.05.07.05.09m-38.64-170.93v-.23c4.87-.68,8.86-4.2,10.15-8.95,27.03-47.08,80.76-76.33,140.38-76.33s110.56,27.86,138.2,72.7c3.96,6.19,11.2,12.8,19.82,12.8h53.47c2.13,0,4.21.67,5.94,1.91l-13.28,12.32c-1.35-.85-2.91-1.3-4.51-1.3H50.32c-1.63,0-3.23.47-4.6,1.36l-10.8-13.63c1.13-.42,2.32-.64,3.52-.66h61.03Zm362-4.02h-53.47c-6.96,0-13.19-5.87-16.39-10.9-28.35-46-82.61-74.62-141.62-74.62s-116.32,30.13-144.02,78.6l-.23.46c-1.06,4.17-5.03,6.92-9.31,6.45h-58c-7.86.02-14.22,6.39-14.24,14.24v95.38c.01,7.86,6.38,14.22,14.24,14.22h48.39c4.18.31,7.93,2.69,9.98,6.34.68,1,1.73,2.44,3.01,4.08,2.23,2.95,5.03,6.67,6.84,9.51,29.4,47.76,84.54,77.43,143.89,77.43s109.32-24.94,138.9-66.74c.77-1.19,1.8-2.65,3-4.31,4.88-6.6,9.25-13.56,13.07-20.83,2.59-4.65,4.3-5.49,7.87-5.49h48.09c7.87.02,14.27-6.34,14.3-14.21,0,0,0,0,0,0v-95.38c-.02-7.88-6.42-14.25-14.3-14.24"/>
    </g>
    <g id="g4316">
      <path id="path4314" d="m147.15,184.72c17.87-46.31,58.22-61.97,102.85-61.97s92.89,15.07,107.61,61.99c0,0,.16.72.22,1.06-.02-.17-.1-.48-.22-1.06.57,2.83.3,3.96-2.84,3.96h-204.2c-1.98,0-4.79-.57-3.43-3.98m-.57,11.32h211.04c7.35,0,4.27-6.21,2.55-9.6,7.62,1.27,14.73,4.65,20.53,9.76-18.53-56.65-69.78-83.98-130.17-83.98s-111.58,33.13-130.01,85.45c5.89-4.5,12.65-7.74,19.85-9.51-.28,3.66,1.42,7.9,6.21,7.9"/>
    </g>
    <g id="g4320">
      <path id="path4318" d="m121.16,253.2l-17.08-42.5h-25.52v55.98h15.59v-44.37l18.01,44.37h24.77v-55.98h-15.77v42.5Z"/>
    </g>
    <path id="path4322" d="m149.52,210.7h16.11v55.98h-16.11v-55.98Z" isolation="isolate"/>
    <g id="g4326">
      <path id="path4324" d="m310.58,210.7l-20.08,55.98h16.16l3.53-10.1h23.3l-4.27-12.38h-14.67l7.32-20.96,15.4,43.44h16.12l-19.88-55.98h-22.92Z"/>
    </g>
    <g id="g4330">
      <path id="path4328" d="m208.65,232.33h-16.72v-9.09h31.54v-12.54h-32.27c-8.46,0-15.4,4.12-15.4,16.09,0,5.63.91,18.08,18.98,18.08h17.05v9.08h-34.35v12.73h34.94c9.07-.17,16.29-7.67,16.12-16.74,0-.22-.01-.44-.03-.66,0-10.87-5.79-16.95-19.86-16.95"/>
    </g>
    <g id="g4334">
      <path id="path4332" d="m401.8,253.2l-17.07-42.5h-25.48v55.98h15.55v-44.37l18.04,44.37h24.74v-55.98h-15.78v42.5Z"/>
    </g>
    <g id="g4338">
      <path id="path4336" d="m267.96,232.33h-16.71v-9.09h31.55v-12.54h-32.29c-8.44,0-15.43,4.12-15.43,16.09,0,5.63.97,18.08,18.98,18.08h17.11v9.08h-34.4v12.73h34.96c9.09-.15,16.34-7.65,16.18-16.74,0-.22-.01-.44-.02-.66,0-10.87-5.84-16.95-19.91-16.95"/>
    </g>
  </g>
</svg>