<?xml version="1.0" encoding="UTF-8"?>
<svg id="Layer_1" data-name="Layer 1" xmlns="http://www.w3.org/2000/svg" width="500" height="500" viewBox="0 0 500 500">
  <rect width="500" height="500" fill="none"/>
  <path d="m218.97,117.7c6.66-1.97,13.32,1.97,15.29,8.39,1.97,6.66-1.97,13.32-8.39,15.29-6.66,1.97-13.32-1.97-15.29-8.39-.25-.99-.49-1.73-.49-2.71-.49-5.67,3.21-11.1,8.88-12.58m55.25-.25c6.66-1.48,13.32,2.47,14.8,9.13,1.48,6.66-2.47,13.32-9.13,14.8-6.66,1.48-13.32-2.47-14.8-9.13,0-.49-.25-.99-.25-1.48-.49-5.92,3.45-11.59,9.37-13.32m-105.08,13.81c3.95-1.73,8.63,0,10.36,3.95,1.73,3.95,0,8.63-3.95,10.36-.99.49-1.97.74-2.96.74-4.44,0-7.89-3.21-8.14-7.65,0-2.96,1.73-5.92,4.69-7.4m155.15,0c3.95-1.73,8.63.25,10.11,4.19,1.48,3.95-.25,8.63-4.19,10.11-2.47.99-5.67.74-7.89-.99-3.45-2.71-3.95-7.65-1.48-10.85,1.23-.99,2.22-1.73,3.45-2.47m-158.6,22.69h15.29c5.43,21.46,10.85,43.17,16.53,64.63,4.19-21.71,8.39-43.17,12.83-64.63,8.14,0,16.28-.25,24.67,0,4.44,25.9,9.37,51.8,13.81,77.7h-15.29c-3.21-19.49-6.41-38.97-9.62-58.46-.25-1.48-.74-3.21-.99-4.69-.99,3.21-1.73,6.41-2.22,9.87-3.45,17.76-6.91,35.52-10.36,53.28h-24.67c-6.91-25.9-13.57-51.8-19.98-77.7m99.16,0c8.14-.25,16.28-.25,24.67,0,4.19,21.21,8.14,42.43,12.58,63.64,1.23-2.96,1.97-5.92,2.71-8.88,4.44-18.25,9.13-36.51,13.81-54.76,5.18,0,10.11-.25,15.29,0-6.41,25.9-13.07,51.55-19.73,77.45h-24.67c-3.45-17.76-6.91-35.52-10.36-53.28-.49-3.21-1.23-6.41-2.22-9.62-.74,2.71-1.48,5.67-1.73,8.63-2.96,18.01-5.92,36.26-9.13,54.51h-15.29c4.44-26.15,9.37-51.8,14.06-77.7m-79.42,85.1h128.26v13.32h-128.26v-13.32m0,20.97c42.67-.25,85.34-.25,128.02,0v13.32h-128.02v-13.32m-130.24,35.03c3.21-.25,6.41-.49,9.62-.25h398.36c5.18-.25,10.11,2.71,12.33,7.4,1.48,3.21,1.97,6.91.99,10.36-4.44,17.51-8.88,35.03-13.57,52.54-2.47,9.62-10.61,16.77-20.72,17.76H36.44c-5.43,0-10.36-3.45-12.33-8.39-1.48-3.95-1.48-8.39,0-12.33,4.19-16.53,8.39-33.05,12.58-49.58,2.22-8.88,9.37-15.54,18.5-17.51m0,5.43c-6.66,1.73-11.59,7.15-13.07,13.81-4.19,17.27-8.63,34.29-13.07,51.55-1.23,3.21-.49,6.91,1.73,9.62,1.73,1.73,4.19,2.71,6.66,2.47h399.84c3.21.25,6.66,0,9.87-.99,5.43-2.22,9.62-6.91,11.1-12.83,4.44-17.02,8.63-34.29,13.07-51.31,1.23-3.21.74-6.91-1.48-9.87-1.73-1.97-4.44-2.96-7.15-2.71H58.64c-1.23,0-2.22.25-3.45.25m7.65,6.17h17.27c12.09,19.24,23.68,38.73,35.77,57.97,5.43-19.24,10.85-38.73,16.28-57.97h10.36c-5.43,19.24-10.85,38.73-16.28,57.97-.74,1.97-.74,4.19-1.97,5.67-5.67.25-11.1,0-16.77,0-9.87-16.03-19.98-32.07-29.85-48.1-1.73-3.21-3.7-6.41-5.92-9.37-4.93,18.25-10.11,36.51-15.29,54.76-.49.99-.25,2.22-1.48,2.71-3.21.25-6.66,0-9.87,0,5.92-21.21,11.84-42.43,17.76-63.64m116.92,0c8.63-.74,17.27-.74,25.9-.25,6.41.49,12.83.74,18.5,3.7,2.71,1.73,4.19,4.69,3.95,7.89,0,7.4-1.23,14.8-3.7,21.95-2.47,7.89-5.18,16.28-10.36,22.94-3.45,4.44-9.13,5.92-14.55,6.91-9.87,1.48-19.73,1.97-29.6,1.48-6.66,0-13.57-.74-19.98-2.22-2.71-.74-5.67-1.97-6.91-4.69-1.23-3.21-1.48-6.66-.99-10.11,1.48-9.13,3.45-18.01,6.41-26.64,1.73-6.66,5.92-12.33,11.59-16.03,6.41-3.21,13.07-4.69,19.73-4.93m-3.21,5.92c-3.21.25-6.41.99-9.62,1.97-2.47,1.48-4.19,3.7-5.18,6.17-2.96,6.91-5.43,14.06-7.15,21.46-1.73,5.43-2.47,11.1-2.47,17.02,0,1.73,1.48,3.21,3.21,3.7,4.93,1.23,10.11,1.97,15.05,1.97,8.39.25,16.77,0,25.16-.74,2.96-.25,5.67-.99,8.39-1.97,2.22-1.48,4.19-3.7,5.18-6.41,3.21-7.89,5.92-16.03,7.89-24.17,1.23-3.7,1.97-7.4,1.97-11.35,0-2.47-1.23-4.93-3.7-5.92-3.95-1.23-7.89-1.97-12.09-1.97-8.88-.49-17.76-.49-26.64.25m69.31-5.92h37.49c7.4-.25,14.55.25,21.95,1.73,2.96.49,5.43,2.96,5.92,5.92.49,4.93-.49,9.62-2.96,14.06-3.21,4.69-7.89,7.89-13.32,8.88,4.19,1.23,9.13,2.71,10.61,7.4,1.48,5.92-1.23,12.09-4.69,17.02-5.18,7.4-15.05,8.63-23.43,9.13h-49.09c5.67-21.71,11.59-42.92,17.51-64.13m8.88,5.92c-2.22,7.4-4.19,14.55-6.17,21.95h30.09c4.93.25,10.11-.49,14.8-1.97,4.44-2.22,6.41-7.4,7.15-11.84.25-2.22.49-4.93-1.73-6.41-3.45-1.23-7.4-1.73-11.1-1.73h-33.05m-7.89,28.12c-2.22,7.89-4.44,15.79-6.66,23.68,12.58,0,25.16,0,37.74-.25,4.69-.49,10.61-.49,13.81-4.69,2.71-3.95,4.19-8.88,3.7-13.81,0-1.48-1.23-2.96-2.71-3.45-3.95-.99-7.89-1.48-11.84-1.48h-34.04m85.1-34.04h10.36c-5.18,18.99-10.61,37.99-15.79,56.98,16.03.25,31.82,0,47.85,0-.49,2.22-1.23,4.44-1.97,6.66h-58.21c5.92-21.21,11.84-42.43,17.76-63.64m63.89,0c19.98-.25,39.96,0,59.69,0-.49,1.97-.99,4.19-1.73,6.17h-49.33c-1.97,7.4-3.95,14.55-5.92,21.71h47.11c-.74,1.97-.74,4.44-2.22,5.92-15.54.25-31.33,0-46.87,0-1.97,7.89-4.44,15.79-6.66,23.68h49.33c-.49,1.97-1.23,3.95-1.73,6.17h-59.69c6.17-21.46,12.33-42.67,18.01-63.64h0Z"/>
</svg>