<?xml version="1.0" encoding="UTF-8"?>
<svg id="Layer_1" xmlns="http://www.w3.org/2000/svg" width="500" height="500" viewBox="0 0 500 500">
  <rect width="500" height="500" fill="none"/>
  <g>
    <path d="M456.68,221.41l-.19-.4h-13.38l21.11,57.18v.4h13.57l-21.11-57.18Z"/>
    <path d="M420.68,221.21l-16.4,57.38h12.44l12.82-42.44h15.27l-5.47-15.14-18.66.2Z"/>
    <path d="M34.46,248.51l-.19-.2v-10.96l6.41-7.17h39.02l18.85,19.72v-19.33l-9.42-9.36-58.24-.2-8.67,9.56v12.55l12.25,13.55v-8.17Z"/>
    <path d="M86.49,262.45h-.19v.4l-6.79,6.38h-39.02l-18.28-21.12v20.92l9.42,9.56h57.49l9.61-9.76v-13.75l-12.25-12.35v19.72Z"/>
    <path d="M228.98,248.51l-.19-.2v-10.96l6.41-7.17h38.83l18.85,19.72v-19.33l-9.24-9.36-58.24-.2-8.86,9.56v12.55l12.44,13.55v-8.17Z"/>
    <path d="M281.01,262.45h-.19v.4l-6.79,6.38h-39.02l-18.47-21.12v20.92l9.42,9.56h57.68l9.42-9.76v-13.75l-12.06-12.35v19.72Z"/>
    <path d="M166.59,221.01l-7.35,39.85,3.02,17.53,5.09.2,7.35-42.44h9.24v42.84h12.25v-48.21l-8.48-9.76h-21.11Z"/>
    <path d="M126.44,221.21l-8.29,9.96v47.62h12.44v-42.44h9.24l6.79,42.64h12.44l-10.18-57.78h-22.43Z"/>
    <path d="M366.02,221.01l12.63,10.36v31.28l-9.05,6.57h-42.22v-38.65h44.29l-11.5-9.56h-45.61v57.58h67.48l9.05-9.56v-38.45l-11.5-9.56h-13.57Z"/>
  </g>
</svg>