<?xml version="1.0" encoding="UTF-8"?>
<svg id="Layer_1" data-name="Layer 1" xmlns="http://www.w3.org/2000/svg" width="500" height="500" viewBox="0 0 500 500">
  <rect width="500" height="500" fill="none" stroke-width="0"/>
  <path d="m250,31.95c-66.17,0-119.89,97.66-119.89,218.05s53.71,218.05,119.89,218.05,119.89-97.66,119.89-218.05S316.17,31.95,250,31.95Zm0,383.57c-16.5,0-29.97-13.47-29.97-29.97s13.47-29.97,29.97-29.97,29.97,13.47,29.97,29.97-13.47,29.97-29.97,29.97Zm0-91.09c-33.17,0-59.94-53.71-59.94-119.89s26.77-119.89,59.94-119.89,59.94,53.71,59.94,119.89-26.77,119.89-59.94,119.89Z" stroke-width="0"/>
</svg>