<?xml version="1.0" encoding="UTF-8"?>
<svg id="Layer_1" data-name="Layer 1" xmlns="http://www.w3.org/2000/svg" width="500" height="500" viewBox="0 0 500 500">
  <rect width="500" height="500" fill="none" stroke-width="0"/>
  <g>
    <g>
      <path d="m171.8,238.48c16.08,0,25.01,6.84,25.01,11.52s-8.94,11.52-25.01,11.52-25.01-6.84-25.01-11.52,8.94-11.52,25.01-11.52m0-6.66c-18.29,0-33.11,8.16-33.11,18.17s14.82,18.17,33.11,18.17,33.11-8.16,33.11-18.17-14.82-18.17-33.11-18.17" stroke-width="0"/>
      <path d="m262.07,253.48h23.99c1.92,0,8.94-1.74,8.94-9.84s-6.48-9.96-8.94-9.96h-50.15c-1.08,0-1.98.9-1.98,1.98v30.59h6.66v-24.05c0-1.08.9-1.92,1.98-1.92h42.17c4.92.18,4.92,6.3,0,6.54h-37.49v6.66l33.47,12.78h14.28c0-.84-.3-1.5-1.2-1.8l-31.73-10.98Z" stroke-width="0"/>
      <polygon points="450.3 259.06 452.52 259.06 452.52 242.2 456.36 259.06 459.96 259.06 463.73 242.2 463.73 259.06 465.89 259.06 465.89 240.88 461.93 240.88 458.16 258.04 454.32 240.88 450.3 240.88 450.3 259.06" stroke-width="0"/>
      <polygon points="428.1 240.88 430.02 259.06 433.92 259.06 436.44 241.96 438.66 259.06 442.56 259.06 444.72 240.88 442.5 240.88 440.7 258.16 438.3 240.88 434.52 240.88 431.94 258.16 430.32 240.88 428.1 240.88" stroke-width="0"/>
      <path d="m419.35,243.04h2.94v-2.16h-2.82c-5.28,0-8.1,2.94-8.1,9.12s2.82,9.12,7.56,9.12c1.38,0,2.58-.06,3.3-.24v-10.44h-4.38v2.22h2.16v6.3c-3.78.36-6.24-1.8-6.24-6.9s1.8-6.9,5.52-6.9l.06-.12Z" stroke-width="0"/>
      <path d="m389.53,240.34c-.6-3.3-4.86-6.72-30.53-6.72s-29.99,3.48-30.53,6.72v25.91h6.66v-8.64c.06-.96.9-1.74,1.86-1.8h39.29v-6.54h-39.41c-.9-.12-1.68-.72-1.74-1.74v-3.18c0-1.08.84-2.04,1.92-2.34,3.12-.9,8.46-1.86,21.95-1.86s18.77,1.02,21.95,1.8c1.14.3,1.92,1.44,1.92,2.46v21.77h6.66v-25.91.06Z" stroke-width="0"/>
    </g>
    <path d="m76.81,172.32c-23.57,0-42.71,34.79-42.71,77.68s19.13,77.68,42.71,77.68,42.71-34.79,42.71-77.68-19.13-77.68-42.71-77.68Zm0,136.64c-5.88,0-10.68-4.8-10.68-10.68s4.8-10.68,10.68-10.68,10.68,4.8,10.68,10.68-4.8,10.68-10.68,10.68Zm0-32.45c-11.82,0-21.35-19.13-21.35-42.71s9.54-42.71,21.35-42.71,21.35,19.13,21.35,42.71-9.54,42.71-21.35,42.71Z" stroke-width="0"/>
  </g>
</svg>