<?xml version="1.0" encoding="UTF-8"?>
<svg id="Layer_1" data-name="Layer 1" xmlns="http://www.w3.org/2000/svg" width="500" height="500" viewBox="0 0 500 500">
  <rect width="500" height="500" fill="none"/>
  <g>
    <path d="m57.98,329.24H23v48.32h16.86v-19.4h18.19c9.34,0,24.92-1.15,24.92-14.92s-17.58-14.01-24.98-14.01m-3.33,22.49h-14.79v-16.07h15.04c4.85,0,11.34.79,11.34,7.76,0,7.58-6.55,8.31-11.58,8.31h0Zm152.79-9.16c0-13.4-17.16-13.28-25.65-13.28h-31.16v48.32h16.67v-20.55h11.58l16.67,20.55h18.25l-18.92-21.77c6.73-1.64,12.55-5.09,12.55-13.28h0Zm-28.74,8h-11.4v-14.85h11.64c4.37,0,11.88.12,11.88,6.97,0,7.52-7.09,7.88-12.13,7.88Zm67-23.34h-.06c-15.95,0-32.38,4.3-32.38,26.25s16.37,26.19,32.38,26.25h.06c15.95,0,32.38-4.24,32.38-26.25s-16.43-26.25-32.38-26.25Zm-.06,45.96c-16.07,0-15.82-13.34-15.82-19.7s-.24-19.64,15.82-19.7c16.13,0,15.89,13.34,15.89,19.7s.24,19.64-15.89,19.7Zm-139.51-17.22h31.47v-6.55h-31.41v-13.58h35.83v-6.61h-53.11v48.32h53.96v-6.67h-36.68l-.06-14.92h0Zm209.66-26.68h-30.62v48.2h30.62c12.91,0,30.19-1.94,30.19-24.13s-17.28-24.07-30.19-24.07h0Zm-3.88,42.26c-5.7,0-10.91-.24-10.91-.24v-35.77s5.21-.24,10.91-.24c10.73,0,17.4,4.43,17.4,18.13s-6.67,18.13-17.4,18.13Zm85.67-10.79c0,5.46-1.94,12.37-14.73,12.37s-13.82-7.15-13.82-12.61v-31.22h-17.1v27.28c0,15.34,4.79,22.68,30.13,22.68,23.1,0,29.47-6.06,29.47-22.07v-27.77h-13.94v31.35h0Zm53.23-31.53h-28.92v6.12h26.13c11.82,0,13.34,5.64,12.91,11.82h-19.4c-13.94,0-24.19,3.27-24.19,15.52,0,15.4,15.04,16.61,35.23,16.61s24.43-1.21,24.43-1.21v-28.68c-.12-18.98-14.73-20.19-26.19-20.19h0Zm10.25,43.35s-4.67.3-10,.3-17.34.55-17.34-9.88c0-7.64,6.49-9.34,14.19-9.34l13.1.06v18.86h.06Z"/>
    <path d="m383.87,211.56c0,50.38-59.96,91.25-133.87,91.25s-133.87-40.86-133.87-91.25,59.9-91.31,133.87-91.31,133.87,40.86,133.87,91.31h0Zm-161.7,75.18c8.67,1.64,18.01,2.49,27.83,2.49,62.33,0,103.44-34.56,103.44-77.18,0-28.38-17.34-54.51-50.87-68.63,29.77,20.43,31.89,83-46.14,86.03l-34.26,57.3h0Zm27.83-151.94c-62.33,0-103.44,34.56-103.44,77.24,0,22.19,11.16,42.2,30.62,56.26l43.47-65.12c2.73-4.06,6.79-4.73,13.7-4.73,80.94,0,66.69-63.66,15.64-63.66h0Z"/>
  </g>
</svg>