<?xml version="1.0" encoding="UTF-8"?>
<svg id="Layer_1" data-name="Layer 1" xmlns="http://www.w3.org/2000/svg" width="500" height="500" viewBox="0 0 500 500">
  <rect width="500" height="500" fill="none"/>
  <path d="m474.33,250.01c0,84.48-100.43,152.96-224.34,152.96S25.66,334.48,25.66,250.01,126.1,97.03,250.01,97.03s224.34,68.49,224.34,152.97h-.01,0Zm-270.96,126.03c14.57,2.7,30.16,4.15,46.62,4.15,104.46,0,173.35-57.92,173.35-129.36,0-47.52-29.1-91.33-85.24-114.96,49.86,34.27,53.41,139.07-77.35,144.16l-57.39,96.02h.01Zm46.63-254.58c-104.46,0-173.35,57.92-173.35,129.37,0,37.21,18.68,70.74,51.34,94.34l72.84-109.07c4.52-6.77,11.42-7.96,22.96-7.96,135.63,0,111.82-106.68,26.21-106.68h0Z"/>
</svg>