<?xml version="1.0" encoding="UTF-8"?>
<svg id="Layer_1" data-name="Layer 1" xmlns="http://www.w3.org/2000/svg" width="500" height="500" viewBox="0 0 500 500">
  <rect width="500" height="500" fill="none"/>
  <g>
    <path d="m333.98,98.15c7.18.48,14.36.96,22.03,1.44,1.92,0,2.87-.48,2.87-2.87v-11.49c0-2.39-.96-3.35-2.87-3.35-7.18-.48-14.36-.96-21.55-1.92-1.92,0-2.87.48-2.87,2.39v12.93c-.48,1.92.48,2.87,2.39,2.87h0Z"/>
    <path d="m123.3,90.49v-3.35c0-2.87-.96-3.35-3.35-2.87-3.83.48-8.14.96-11.97,1.44-3.35.48-7.18.96-10.53,1.44v9.58c2.39-.48,4.31-.48,6.7-.48,5.27-.48,11.01-.96,16.28-1.92,2.39-.96,2.87-1.44,2.87-3.83h0Z"/>
    <path d="m450.81,47.39c0-.48,0-1.44-.48-1.92-73.26-12.93-147-18.67-221.69-17.72-60.33.96-119.7,7.18-179.08,17.24,0,.96,0,1.92-.48,3.35,0,18.2-.48,35.91-.96,54.11-.48,33.04.96,66.08,5.75,98.64,2.87,22.03,7.18,43.57,13.89,64.64,29.69,95.28,90.5,163.28,180.03,205.89,1.44.96,2.87.96,4.79,0,14.84-6.7,28.73-14.36,42.14-23.46,56.5-36.87,98.64-85.71,124.97-147.48,13.41-31.6,21.55-64.16,26.33-98.16,3.83-25.86,5.27-52.19,5.75-78.53.48-25.86,0-51.23-.96-76.61h0Zm-12.93,156.09c-5.27,35.91-14.36,70.86-29.69,103.9-24.42,52.67-61.77,95.28-109.65,128.32-14.36,10.06-29.69,18.67-45.49,25.86-1.92.96-3.35.96-5.75,0-64.64-31.12-114.92-77.57-148.91-140.77-14.84-27.77-24.42-56.98-31.12-87.62-4.31-19.63-7.18-39.74-8.62-59.85-2.39-29.69-2.39-59.37-1.44-89.06,0-9.1.48-17.72.48-26.81v-3.83c65.6-11.49,131.2-16.76,196.79-16.76s125.45,5.75,187.7,16.76c0,4.79.48,9.1.48,13.41.48,20.59.96,41.18.48,61.29,0,24.9-1.92,50.28-5.27,75.17Z"/>
    <path d="m435.01,59.84c-123.53-20.59-246.59-20.59-369.65,0v3.35c0,10.53-.48,21.55-.96,32.56-.48,27.29,0,54.11,2.39,81.4,1.92,20.11,4.79,40.22,9.1,59.85,5.75,26.33,14.36,51.71,26.81,75.65,32.08,63.2,80.92,109.17,144.12,140.29,1.92.96,3.83.96,5.75,0,32.56-15.8,61.29-35.91,86.67-61.29,39.26-38.31,65.6-84.27,80.44-136.94,11.01-38.78,15.32-78.53,16.28-118.75.48-15.32,0-31.12,0-46.45-.48-9.58-.48-19.63-.96-29.69h0Zm-108.69,21.55c0-3.35,1.92-5.27,5.27-5.27h3.83c6.7.48,13.41.96,19.63,1.44.96,0,1.92.48,3.35.48,3.35.96,4.79,2.87,5.27,6.7v6.7h0v7.18c0,3.35-1.92,5.27-5.27,5.27h-7.66c-4.79-.48-9.58-.48-14.36-.96-1.44,0-2.87-.48-4.31-.48-3.35-.96-4.79-2.39-5.27-5.75-.96-5.27-.96-10.53-.48-15.32Zm-45.97-8.14c11.49,0,22.98.48,34.47,1.44v4.31c-9.58-.48-19.63-.48-29.21-.96v6.7l25.86.96v4.31c-4.31.48-8.62-.48-12.93-.48h-13.41v6.7c9.58.48,19.15.96,29.21.96v4.31c-11.49-.48-22.5-.96-34.47-1.44.48-8.62.48-17.72.48-26.81h0Zm-47.88,5.75c0-3.35,1.92-5.27,5.27-5.75.96-.48,2.39-.48,3.35-.48h25.38v4.31h-25.38c-3.83,0-4.31.48-4.31,4.79v10.06c0,2.39.96,3.35,3.35,3.35h23.46v-7.18h-13.41v-4.31h18.67v15.8c-.96,0-1.92.48-2.87.48h-23.94c-1.44,0-2.87,0-4.31-.48-2.87-.48-4.79-1.92-4.79-5.27-.48-5.27-.48-10.53-.48-15.32h0Zm-47.88-4.31l4.79-.48v19.15c0,2.39.48,3.35,2.87,3.35,6.7,0,13.89-.48,20.59-.96,2.87,0,3.35-.96,3.35-3.35v-19.15h4.31v19.15c0,5.75-1.92,7.66-7.66,8.14-7.18.48-13.89.48-21.07.96h-.48c-5.75,0-7.66-1.92-7.66-7.66v-14.84c.96-1.92.96-2.87.96-4.31h0Zm-3.35,83.31c6.7-4.31,12.93-9.58,19.15-14.36,3.35-2.87,6.22-5.75,8.14-9.58,1.44-2.87,3.35-3.83,6.7-4.31,18.67-1.44,37.35-1.92,56.02-1.44,6.7,0,13.41.48,20.11.96,3.35,0,6.7.96,9.58,2.39,14.36,6.7,28.25,14.36,42.14,22.03.48.48.96.48,1.44.96,5.75,5.75,11.97,11.49,18.2,17.24-2.87,0-4.79-.48-6.7-1.92-8.62-5.27-17.24-10.06-25.86-15.32-1.92-.96-4.79-1.92-7.18-1.92-4.31-.48-8.14-.48-12.45-.96-1.92,0-4.31-.96-6.22-1.92-4.79-1.92-10.06-4.31-14.84-6.7-3.35-1.44-6.7-1.92-10.06-1.92-10.53,1.44-20.59,1.44-30.64,1.92h-5.27v-.96c16.76-2.39,33.52-3.83,50.75-5.27-1.92-1.44-4.31-1.92-6.22-1.92-13.89,0-27.29,0-41.18.48-5.27,0-11.01.48-16.28.96-3.35,0-6.7.96-9.58,2.39-11.49,6.22-22.98,12.45-34.95,18.67-2.87,1.44-5.27,2.87-8.62,4.79.96-2.39,2.39-3.35,3.83-4.31h0Zm90.5,38.31c1.44,6.22,2.87,12.93,3.83,19.15,0,.48,0,1.44.48,2.39-2.39-1.44-3.35-2.87-3.83-4.79-1.92-6.7-3.83-12.93-6.22-19.63-.48-1.92,0-3.35.96-4.31,2.39-3.35,5.27-6.7,7.66-10.06,1.92-2.87.48-7.66-2.39-9.1-1.92-.96-3.83-.96-5.75,0-5.75,2.39-11.01,4.31-16.76,6.7-2.39.96-5.27,1.44-8.14.96-1.92-.48-3.83-.48-5.75-.96.48-4.31,2.39-6.7,6.22-7.66,9.1-1.92,17.72-3.35,26.81-5.27,3.35-.48,5.75.96,8.62,2.39.48,0,.96.96.96,1.44s0,.96.48,1.44c2.39,11.01,2.39,8.62-2.87,17.24-.96,1.44-1.92,2.87-2.87,4.31-1.92.96-1.92,3.35-1.44,5.75h0Zm-93.85-22.98c1.92-2.39,3.83-4.79,5.75-7.18,1.44-1.44,2.87-2.87,4.79-3.83,7.18-3.35,14.84-6.7,22.03-9.58,4.31-1.92,9.1-.96,13.89-.96v1.44c-3.35,5.75-6.7,11.97-10.53,17.72-.96.96-2.39,2.39-3.35,2.39-6.7,2.39-13.41,4.31-20.11,6.22-5.27,1.44-10.53.96-15.8,1.44h-7.18v-.96c.96-.48,1.92-.96,3.35-1.44,2.87-.96,5.27-2.87,7.18-5.27h0Zm-8.62,17.72l.48-6.22c2.39,0,3.83,0,5.27-.48,1.44,4.79.48,5.75-5.75,6.7Zm-30.64-113.48c11.01-.96,22.5-1.92,34-2.39v4.31l-29.21,2.39v6.22c8.62-.48,17.24-1.44,25.86-1.92v4.31c-8.62.48-17.24,1.44-25.86,1.92v7.18c9.58-.48,19.15-1.44,29.21-1.92v4.31c-11.49.96-22.5,1.92-34,2.39v-26.81h0Zm-41.66,23.46v8.14l-4.31.48v-26.81c3.83-.48,7.66-.96,11.49-1.44,5.27-.48,10.53-.96,15.8-1.92h3.35c2.39.48,4.31,1.92,4.79,4.31.48,2.87.48,5.75,0,8.62s-2.39,4.31-4.79,4.79-5.27.96-8.14.96c-6.22,1.44-11.97,1.92-18.2,2.87h0Zm32.08,145.56c-.96-.96-2.39-.96-2.87-1.92-2.87-3.35-5.75-6.7-8.14-10.06-1.44-1.92-1.44-2.39.48-4.31,1.92-2.39,4.31-4.79,6.7-7.18,2.39-2.39,3.35-5.75,3.35-9.58-.96.96-1.92,1.44-2.39,2.39-1.44,2.87-3.83,4.79-6.22,6.22-1.44.96-3.35,2.39-4.79,3.35-2.87-1.92-3.83-4.79-1.44-7.18,1.92-1.92,3.83-4.31,6.22-5.75,7.66-6.22,15.8-11.97,23.46-18.2,1.92-1.44,3.35-2.87,4.79-4.79,4.31-6.22,9.58-11.01,16.28-14.36,3.83-1.92,7.18-4.31,11.49-6.7,0,1.44-.96,1.92-1.92,2.87-2.87,1.92-5.27,4.31-8.14,6.22-.96.96-1.92,1.92-1.92,3.35,0,1.92-.96,3.83-.96,6.22,0,1.92-.96,2.87-2.87,3.35-2.39.96-4.31,1.92-6.7,2.39-2.39.96-3.83,2.39-5.75,4.31.96,0,1.92,0,2.39-.48,2.39-.48,4.79-.96,7.18-1.44h3.35c1.92.96,3.83.96,5.75.48,1.44-.48,3.35-.96,4.79-.96,4.79-.96,9.58-2.39,13.41-5.75.48,0,.48-.48.96-.48-1.92,3.35-4.31,5.75-7.66,7.18-11.01,4.31-22.03,8.14-33.04,12.45-.48.48-1.44.48-2.39.96-.96.48-1.44.96-2.39,1.92v.48c2.39,0,4.79.48,7.18.48,3.83,0,7.18,1.44,9.58,4.31,1.92,2.39,4.79,4.79,6.7,7.18.48.96,1.44,1.44,2.39,2.87-4.31.96-8.14,1.44-11.97,2.39-6.22,1.44-12.45,2.39-19.15,3.83-2.39.48-3.83,1.92-3.83,3.83-.48,2.39-1.44,5.75-1.92,10.06h0Zm53.15,4.79l.48.96c-2.87,4.31-5.75,8.14-9.1,12.45-.48.48-.96.96-1.44.96-3.83,1.44-7.66,2.87-11.49,3.83l-.48-.48c7.66-6.22,14.84-11.97,22.03-17.72h0Zm-42.61,2.39c0,.48-.48.96-.48,2.39-2.39-2.39-4.31-4.79-6.22-7.18,1.92-3.35,4.79-4.79,8.62-5.75-.96,3.83-1.44,7.18-1.92,10.53Zm18.67,47.4c-1.92.48-2.87,0-3.35-2.39-.96-2.87-1.44-6.22-2.39-9.1-.96-3.83-1.92-7.18-3.35-11.01-1.92-3.83-.96-7.18-.96-11.49.96.48,1.44.96,1.92,1.44,1.44,1.44,3.35,2.87,4.79,3.83s2.39,1.44,4.31.96c4.79-1.44,9.58-2.87,14.36-4.79,1.44-.48,2.39-1.44,3.83-2.87,4.79-5.75,9.1-12.45,12.45-19.15,1.92-3.83.48-7.18-3.35-8.62-5.27-1.92-10.53-3.83-15.8-5.75-.96-.48-1.92-.96-2.87-.96v-.48h3.83c6.7,1.44,13.89,3.35,20.59,5.27,3.35.96,4.79,3.35,5.75,6.22.48.96,0,1.92-.48,2.87-4.79,8.62-9.58,17.24-14.36,25.38-.96,1.44-2.39,2.39-4.31,2.87-6.7,2.39-13.41,4.31-19.63,6.7-2.87.96-3.35,1.44-2.39,4.31.48,3.35.96,6.22,1.92,9.58.48,2.39.96,2.39,2.87,2.39,2.39-.48,5.27-.96,7.66-1.44.48,0,1.44,0,2.39.48-1.44.96-2.39,2.87-4.31,3.35-2.87.96-5.75,1.44-9.1,2.39h0Zm80.92,104.38c-.48,0-1.44-.48-1.92-.48-1.92-.96-3.83-1.92-5.75-2.87-5.75-2.39-10.53-6.7-14.84-11.01-13.89-14.84-26.81-30.17-38.78-46.45-2.39-2.87-4.31-6.22-6.22-9.58-1.44-2.39-1.92-4.79-1.92-7.66.48-6.22,1.44-11.97,1.92-18.2.48-3.35,1.92-6.22,4.31-8.62,14.36-16.76,27.77-34.47,40.22-53.15,1.44-2.39,3.35-5.27,4.79-7.66s1.92-4.79,1.44-7.18c-.48-3.35-.96-6.7-.96-10.53-.96-2.87-.96-5.27-.96-7.66h.96c1.44,6.7,3.35,12.93,4.79,19.63.48,1.92,0,3.83-.96,6.22-5.27,11.49-10.06,23.46-15.32,34.95-7.18,14.84-4.79,11.01-15.32,22.03-3.83,3.83-7.66,7.66-11.49,11.01-1.92,1.44-2.87,3.35-3.35,5.75-.48,4.31-.96,8.62-1.44,12.93-.48,2.39.48,4.79,1.92,6.7,2.39,3.83,4.31,7.18,6.7,10.53,11.49,16.28,23.94,32.08,37.35,46.92,3.35,3.83,7.18,7.66,11.97,10.53,1.44.96,2.39,1.92,3.35,3.35,0,0-.48.48-.48.48Zm16.76,2.87c-.48-.48-.96-.96-1.44-1.92-10.06-18.2-19.63-36.39-27.77-55.06-1.92-4.31-2.39-8.62-.96-13.41,4.31-16.76,10.06-33.52,15.8-50.28,1.92-5.27,3.83-10.53,6.22-15.8.48-.96.96-1.92,1.44-2.39.96,3.83,2.39,7.18,1.44,11.49-3.35,17.24-7.18,34.95-10.53,52.19-1.44,6.7-1.92,13.41-2.39,19.63,0,2.39,0,4.79.96,7.18,3.83,10.06,7.66,19.63,11.49,29.69.96,3.35,2.39,6.22,3.83,9.1,1.92,2.87,2.39,6.22,1.92,9.58h0Zm91.93-124.01c-.96,13.41-2.87,26.81-6.22,39.74-.96,3.35-2.39,5.27-4.79,7.18-17.72,14.36-34.95,28.73-52.67,43.57-2.87,2.39-5.75,5.75-7.18,9.1-1.92,3.83-3.83,7.18-6.22,11.49-.96-1.44-.96-2.39-1.44-3.35-2.39-5.27-4.31-10.53-6.7-15.8-.96-2.87-.96-5.27,0-8.14,1.92-5.27,3.83-10.53,6.22-15.8,2.87-7.18,6.22-14.36,9.1-21.55.48-.96.96-1.92,1.44-2.87l.48.48c-.48,1.44-.48,2.39-.96,3.83-2.39,9.1-4.79,18.2-7.66,26.81-2.39,8.14-.96,15.32,1.92,22.98,0,0,.48,0,.48-.48,2.39-4.79,6.22-8.62,10.06-11.97,15.8-13.89,31.6-27.29,47.4-41.18,2.39-2.39,3.83-4.79,4.31-8.14,1.92-16.76,1.92-33.52.96-50.75,0-3.35-1.44-6.7-3.35-9.58-4.31-6.22-9.58-11.97-15.32-17.72-1.44-1.44-2.87-3.35-3.35-5.75-1.92-9.58-3.83-19.15-6.22-28.73,0-.96,0-1.44-.48-2.87,2.39.48,3.83,1.44,4.79,2.39,11.01,11.97,21.55,23.94,31.12,37.35,1.44,1.92,2.39,4.31,2.39,6.7,2.39,11.01,2.39,22.03,1.92,33.04h0Zm32.56-39.74c0,1.44-.48,2.39-.96,3.83-6.7,13.41-13.89,26.81-22.98,39.26-.48.96-1.44,1.44-2.39,2.39,0-1.92.48-3.35.48-5.27-.48-4.79,1.44-8.14,5.75-10.53,1.44-.96,2.39-2.39,2.87-3.83,3.35-6.22,6.7-12.93,10.06-19.15,2.39-4.79,3.35-10.06,2.87-15.8-1.44-9.1-2.39-18.2-3.83-27.29,0-.96-.48-1.44-.48-2.39-.48-2.39-1.92-4.31-4.31-5.27-4.31-1.92-8.62-3.83-13.41-5.75-2.39-.96-4.79-2.39-6.7-3.83-6.7-5.27-13.41-10.53-19.63-15.8-2.87-2.39-5.75-2.87-9.1-1.92-2.87.96-5.75.96-8.62,2.39-3.83,1.44-7.18.48-11.97,0,.96-.48,1.92-.96,2.39-1.44,7.18-3.35,14.84-6.22,22.03-9.58,3.35-1.44,6.22-.96,9.58.48,15.8,7.18,30.17,16.28,44.53,25.86,1.92,1.44,2.87,2.87,3.35,5.27,1.44,15.8,1.92,32.08.48,48.36h0Zm27.29-157.53c-5.27-.48-10.06-.96-15.32-1.44v22.5l-4.79-.48v-22.5c-5.27-.48-10.53-.96-15.32-1.92v-4.31c11.97,1.44,23.46,2.87,35.91,3.83-.48,0-.48,4.31-.48,4.31Z"/>
    <path d="m358.88,90.96v5.75c0,2.39-.96,2.87-2.87,2.87-7.18-.48-14.36-.96-21.55-1.44-1.92,0-2.87-.96-2.87-2.87v-12.45c0-1.92.96-2.87,2.87-2.39,7.18.48,14.36.96,21.55,1.92,2.39,0,2.87.96,2.87,3.35v5.27h0Z"/>
    <path d="m97.45,96.23v-9.58c3.83-.48,7.18-.96,10.53-1.44,3.83-.48,8.14-.96,11.97-1.44,2.39-.48,3.35.48,3.35,2.87v3.35c0,2.39-.48,2.87-2.87,3.35-5.27.48-11.01,1.44-16.28,1.92-2.39.48-4.31.96-6.7.96h0Z"/>
  </g>
</svg>