<?xml version="1.0" encoding="UTF-8"?>
<svg id="Layer_1" data-name="Layer 1" xmlns="http://www.w3.org/2000/svg" width="500" height="500" viewBox="0 0 500 500">
  <rect width="500" height="500" fill="none"/>
  <g>
    <path d="m249.59,471.32l-184.1-111.33v-220.91L249.59,28.68l184.92,111.3v219.12l-184.92,112.23Zm-162.17-123.7l162.15,98.06,163.01-98.93v-194.38L249.57,54.26l-162.15,97.24v196.12Z"/>
    <path d="m266.92,383.32l.09-87.06s23.53,11.76,31.76,15.42c8.21,3.69,27.3,8.59,27.3,8.59,40.43,2.38,61.15-28.71,61.19-64.24.03-27.09-17.6-48.91-39.21-61.25l-75.29-47.14c-4.96-3.29-14.29-12.99-17.81-20.99-2.65-6.02-5.14-17.78-5.33-23.01h-.28c-.19,5.23-2.7,16.96-5.36,22.97-3.54,7.98-12.86,17.68-17.84,20.96l-75.34,47.05c-21.63,12.31-39.28,34.12-39.28,61.21,0,35.51,20.68,66.63,61.12,64.3,0,0,19.09-4.88,27.31-8.54,8.22-3.66,31.76-15.39,31.76-15.39v87.05l35.23.07h-.01Zm-35.23-197.63s-57.11,34.43-60.19,36.64c-3.38,2.41-14.42,12.54-15.99,14.11-6.01,5.29-9.44,12.93-9.39,20.93,0,14.99,11.55,27.14,25.8,27.14,6.6,0,15.95-5.67,21.73-8.82l38.03-18.17v-71.82h0Zm73.39,90.08l-38.02-18.22.07-71.82s57.06,34.51,60.15,36.71c3.38,2.43,14.41,12.56,15.98,14.13,6,5.3,9.42,12.94,9.36,20.95,0,14.99-11.57,27.12-25.82,27.1-6.6,0-15.95-5.69-21.71-8.85h0Z" fill-rule="evenodd"/>
  </g>
</svg>