<?xml version="1.0" encoding="UTF-8"?>
<svg id="Layer_1" data-name="Layer 1" xmlns="http://www.w3.org/2000/svg" width="500" height="500" viewBox="0 0 500 500">
  <rect width="500" height="500" fill="none"/>
  <g>
    <path d="m86.65,326.52l-63.65-38.49v-76.38l63.65-38.17,63.93,38.48v75.76l-63.94,38.8Zm-56.07-42.77l56.06,33.9,56.36-34.2v-67.21l-56.36-33.92-56.06,33.62v67.81Z"/>
    <path d="m251.18,263.85c-2.62,0-3.41-1.96-2.61-4.64l1.1-3.37h17.52l1.1,3.37c.8,2.68.01,4.64-2.61,4.64h-2.77v5.74h26.54v-5.74h-2.47c-2.55,0-3.57-.91-5.02-4.89l-12.14-32.6h-14.54l-12.14,32.6c-1.45,3.98-2.47,4.89-5.01,4.89h-2.47v5.74h18.68v-5.74h-3.13,0Zm8.45-27.78h.14l5.23,14.02h-10.54l5.16-14.02Zm217.37,11.93c0,14.15-9.05,22.89-25.04,22.89s-25.04-8.74-25.04-22.89,9.05-22.95,25.04-22.95,25.04,8.8,25.04,22.95h0Zm-37,0c0,11.41,4.69,16.82,11.96,16.82s11.96-5.41,11.96-16.82-4.69-16.89-11.96-16.89c-7.27,0-11.96,5.48-11.96,16.89h0Zm-281.33,21.58v-5.74h3.32c1.48,0,2.69-1.63,2.69-3.62v-24.5c0-1.99-1.21-3.63-2.69-3.63h-3.32v-5.74h26.97c11.71,0,18.35,3.33,18.35,12.26s-6.64,12.32-18.35,12.32h-7.34v9.29c0,1.99,1.28,3.62,2.76,3.62h3.32v5.74h-25.72s0,0,0,0Zm33-30.9c0-4.04-2.84-6.52-7.92-6.52h-5.44v13.04h5.44c5.09,0,7.92-2.48,7.92-6.52Zm40.36,30.9v-5.74h-3.32c-1.48,0-2.69-1.63-2.69-3.62v-24.5c0-1.99,1.21-3.63,2.69-3.63h3.32v-5.74h-25.71v5.74h3.32c1.48,0,2.69,1.63,2.69,3.63v24.5c0,1.99-1.21,3.62-2.69,3.62h-3.32v5.74h25.71Zm192.92,0v-5.74h-3.32c-1.48,0-2.7-1.63-2.7-3.62v-24.5c0-1.99,1.21-3.63,2.7-3.63h3.32v-5.74h-25.72v5.74h3.33c1.48,0,2.69,1.63,2.69,3.63v24.5c0,1.99-1.21,3.62-2.69,3.62h-3.33v5.74h25.72Zm-89.27-43.82h-6.54s-.73,4.35-3.82,2.27c-2.62-1.77-6.5-2.99-10.72-2.99-15.48,0-25.74,8.8-25.74,23.54s9.27,22.3,24.39,22.3c4.72,0,9.88-1.63,12.27-3.54,3.8-3.03,3.65,2.75,3.65,2.75h6.32v-13.98c0-2,1.21-3.63,2.69-3.63h3.49v-5.73h-25.12v5.74h1.08c5.66,0,7.09,2.39,7.09,6.1,0,3.96-4.76,6.1-9,6.1-8.57,0-13.78-5.41-13.78-16.69s6.87-16.89,15.12-16.89c6.51,0,10.6,4.67,11.61,10.22h7v-15.56h0Zm56.54,0h-6.54s-.73,4.35-3.82,2.27c-2.62-1.77-6.5-2.99-10.72-2.99-15.48,0-25.74,8.8-25.74,23.54s9.27,22.3,24.39,22.3c4.72,0,9.88-1.63,12.27-3.54,3.8-3.03,3.65,2.75,3.65,2.75h6.32v-13.98c0-2,1.21-3.63,2.69-3.63h3.49v-5.73h-25.12v5.74h1.08c5.66,0,7.09,2.39,7.09,6.1,0,3.96-4.75,6.1-9,6.1-8.57,0-13.78-5.41-13.78-16.69s6.87-16.89,15.13-16.89c6.5,0,10.6,4.67,11.6,10.22h7v-15.56h0Z" fill-rule="evenodd"/>
    <path d="m92.65,296.09l.03-30.1s8.14,4.06,10.98,5.33c2.84,1.28,9.44,2.97,9.44,2.97,13.98.82,21.14-9.93,21.16-22.21.01-9.37-6.09-16.91-13.56-21.18l-26.03-16.3c-1.71-1.14-4.94-4.49-6.16-7.26-.92-2.08-1.78-6.15-1.84-7.95h-.1c-.07,1.81-.93,5.86-1.85,7.94-1.22,2.76-4.45,6.11-6.17,7.25l-26.05,16.27c-7.48,4.26-13.58,11.8-13.58,21.16,0,12.28,7.15,23.04,21.13,22.23,0,0,6.6-1.69,9.44-2.95s10.98-5.32,10.98-5.32v30.1l12.18.02h0Zm-12.18-68.33s-19.74,11.9-20.81,12.67c-1.17.83-4.99,4.33-5.53,4.88-2.08,1.83-3.26,4.47-3.25,7.24,0,5.18,3.99,9.38,8.92,9.38,2.28,0,5.52-1.96,7.51-3.05l13.15-6.28v-24.83h0Zm25.37,31.15l-13.15-6.3.02-24.83s19.73,11.93,20.8,12.69c1.17.84,4.98,4.34,5.53,4.89,2.08,1.83,3.26,4.47,3.24,7.24,0,5.18-4,9.38-8.93,9.37-2.28,0-5.52-1.97-7.51-3.06h0Z" fill-rule="evenodd"/>
  </g>
</svg>