<?xml version="1.0" encoding="UTF-8"?>
<svg id="Layer_1" data-name="Layer 1" xmlns="http://www.w3.org/2000/svg" width="500" height="500" viewBox="0 0 500 500">
  <rect width="500" height="500" fill="none"/>
  <g>
    <path d="m249.26,83.54l-115.49-50.22,115.85,433.36L366.22,33.32l-116.96,50.22Zm-98.83-30.22l99.2,42.96,99.92-42.59-99.92,369.51L150.43,53.32h0Z" fill-rule="evenodd"/>
    <path d="m249.63,104.82l-86.45-37.49,86.45,328.62,87.71-328.43s-87.71,37.3-87.71,37.3Zm0,85.45l-7.17-29.31-44.77-7,44.77-7.17,7.17-28.5,7,28.5,45.84,7.17-45.84,7-7,29.31h0Zm72.93,157.03c-7.38,0-13.97,5.1-13.97,13.9s6.58,13.9,13.97,13.9,13.94-5.1,13.94-13.9-6.58-13.9-13.94-13.9Zm0,24.58v-.04c-5.51.04-9.96-4.26-9.96-10.67s4.44-10.67,9.96-10.67,9.92,4.26,9.92,10.67-4.55,10.69-9.92,10.69v.02Z" fill-rule="evenodd"/>
    <path d="m325.18,362.09c1.99-.15,3.61-1.15,3.61-3.9,0-3.42-2.27-4.51-6.14-4.51h-5.58v14.95h3.19v-6.29h1.51l3.46,6.29h3.79l-3.82-6.54h-.02Zm-2.1-2.27h-2.83v-3.61h2.24c1.2,0,2.87.11,2.87,1.66,0,1.66-.84,1.95-2.27,1.95Z" fill-rule="evenodd"/>
  </g>
</svg>