<?xml version="1.0" encoding="UTF-8"?>
<svg id="Layer_1" data-name="Layer 1" xmlns="http://www.w3.org/2000/svg" width="500" height="500" viewBox="0 0 500 500">
  <rect width="500" height="500" fill="none"/>
  <g>
    <path d="m238.05,77.7l-82.2-35.74,82.45,308.44L321.29,41.96l-83.24,35.74h0Zm-70.34-21.51l70.6,30.57,71.12-30.31-71.12,263L167.7,56.19h0Z" fill-rule="evenodd"/>
    <path d="m238.31,92.85l-61.53-26.67,61.53,233.88,62.43-233.76-62.43,26.55h0Zm0,60.82l-5.1-20.86-31.87-4.98,31.87-5.1,5.1-20.29,4.98,20.29,32.63,5.1-32.63,4.98-4.98,20.86h0Zm77.88,302.48c.83,0,1.5-.68,1.5-1.51h0v-53.05c0-.83-.67-1.51-1.5-1.51h-8.26c-.83,0-1.51.67-1.51,1.5h0v53.05c0,.83.67,1.51,1.5,1.51h8.27Zm-92.25-54.57c0-.83.67-1.51,1.5-1.51h8.3c.83,0,1.51.68,1.51,1.51v43.28c0,4.39-1.67,11.31-11.31,11.31-3.24-.11-7.01-.73-9.84-4.82l-26.16-37.05c-1.05-1.47-3.35-1.88-3.35.84v39.51c0,.83-.67,1.51-1.5,1.51h-8.3c-.83,0-1.51-.68-1.51-1.51h0v-39.31c-.2-4.82,1.67-15.28,11.31-15.28,3.35,0,7.12.22,10.46,5.02l25.74,36.53c1.05,1.47,3.14,1.78,3.14-.84v-39.2h0Zm-181.85,29.05c-.83,0-1.51.68-1.51,1.51h0v8.29c0,.83.68,1.51,1.51,1.51h25.92c8.37,0,20.3-3.56,20.3-20.93s-13.61-20.93-21.77-20.93H24.51c-.83-.01-1.51.67-1.51,1.5h0v53.08c0,.83.67,1.51,1.5,1.51h8.3c.83,0,1.51-.67,1.51-1.5h0v-40.78c0-1.47.63-2.5,2.1-2.5h30.98c3.55,0,9.63,1.05,9.63,9.42,0,7.54-3.55,9.84-9.63,9.84h-25.29Zm320.06-15.17c-1.25-2.2-3.03-2.35-4.34-.11l-22.5,39.15c-.63,1.25-1.05,1.67-2.1,1.67h-9.21c-1.51,0-1.25-.84-.83-1.47l28.06-48.78c5.02-8.59,12.97-7.95,17.58.2l28,48.78c.78,1.2.15,1.25-.88,1.25h-8.48c-1.47,0-2.3-.63-2.72-1.47l-4.8-8.37c-.37-.68-.73-1.47-2.98-1.47h-28.63c-.57,0-1.05-.26-.46-1.25.57-.99,5.5-9.01,5.5-9.01.26-.42.68-1.05,1.67-1.05h15.96c.83,0,1.25-.63.73-1.52-.53-.88-9.52-16.59-9.52-16.59h0l-.04.03Zm92.67,29.4c.83,0,1.51.67,1.51,1.5h0v8.29c0,.83-.68,1.51-1.51,1.51h-33.08c-12.34,0-26.79-8.37-27.01-28.26-.23-21.55,15.95-27.84,24.74-27.84h35.29c.83,0,1.51.67,1.51,1.5h0v7.88c0,.83-.67,1.51-1.5,1.51h-32.19c-8.16.2-16.53,3.55-16.53,16.95s11.31,16.95,16.53,16.95h32.23Zm-314.81-44.79h-16.95c-14.44,0-27.63,9.84-27.63,27.84s11.09,28.26,24.7,28.26h19.05c13.61,0,24.91-9.84,24.91-29.09s-15.91-27.01-24.07-27.01h0Zm-4.82,45.64h-10.89c-14.03,0-17.58-9.21-17.58-16.95,0-15.08,11.09-17.8,15.91-17.8h14.45c8.37,0,15.7,6.07,15.7,16.95,0,14.45-10.26,17.8-17.58,17.8h-.01Zm130.21,8.94c0,.83.67,1.51,1.5,1.51h8.26c.83,0,1.51-.68,1.51-1.51v-42.27c.01-.84.44-1.42,1.22-1.42h21.14c.83,0,1.51-.67,1.51-1.5h0v-7.88c0-.83-.67-1.51-1.5-1.51h-56.02c-.83,0-1.51.68-1.51,1.51h0v7.86c0,.83.68,1.51,1.51,1.51h21.05c.84,0,1.31.48,1.31,1.25v42.44h.01Zm24.82-189.22c-5.25,0-9.95,3.63-9.95,9.89s4.68,9.89,9.95,9.89,9.92-3.63,9.92-9.89-4.68-9.89-9.92-9.89Zm0,17.5v-.03c-3.92.03-7.09-3.03-7.09-7.59s3.16-7.59,7.09-7.59,7.06,3.03,7.06,7.59-3.24,7.61-7.06,7.61h0Z" fill-rule="evenodd"/>
    <path d="m292.08,275.96c1.42-.11,2.57-.82,2.57-2.78,0-2.44-1.62-3.21-4.37-3.21h-3.97v10.64h2.27v-4.48h1.07l2.46,4.48h2.69l-2.72-4.65h-.01Zm-1.5-1.62h-2.01v-2.57h1.59c.86,0,2.04.08,2.04,1.18,0,1.18-.6,1.39-1.62,1.39Zm179.48,169.85c-3.69,0-6.95,2.54-6.95,6.93s3.28,6.93,6.95,6.93,6.94-2.54,6.94-6.93-3.28-6.93-6.94-6.93Zm0,12.25h0c-2.75,0-4.97-2.14-4.97-5.33s2.22-5.31,4.97-5.31,4.94,2.12,4.94,5.31-2.27,5.33-4.94,5.33Z" fill-rule="evenodd"/>
    <path d="m471.37,451.56c.98-.07,1.8-.57,1.8-1.95,0-1.7-1.13-2.26-3.06-2.26h-2.78v7.46h1.59v-3.13h.75l1.73,3.13h1.89l-1.9-3.25h-.01Zm-1.05-1.13h-1.42v-1.8h1.12c.6,0,1.43.05,1.43.82,0,.82-.42.97-1.13.97h0Z" fill-rule="evenodd"/>
  </g>
</svg>