<?xml version="1.0" encoding="UTF-8"?>
<svg id="Layer_1" data-name="Layer 1" xmlns="http://www.w3.org/2000/svg" width="500" height="500" viewBox="0 0 500 500">
  <rect width="500" height="500" fill="none"/>
  <path d="m352.94,407.47c-27.42,24.17-51.12,37.18-100.39,62.28-46.01-20.45-76.22-40.43-102.25-59.95-36.25-27.42-61.81-71.57-64.14-98.53L68.05,52.86c121.77-30.67,251.9-30.21,363.9,1.86l-18.13,255.61c-2.32,23.24-23.7,68.32-60.88,97.13h0Zm39.97-105.03l16.73-228.19c-96.67-30.21-212.39-30.67-319.28-3.25l16.73,230.98c1.86,24.17,19.52,60.88,53.91,88.77,20.45,17.2,60.88,45.55,90.63,56.24,34.86-16.73,65.99-37.64,90.63-58.09,30.67-27.42,48.8-60.88,50.66-86.44h0Zm-54.84,80.4c-23.7,19.98-55.77,42.29-86.44,56.24-27.42-8.37-67.85-38.57-87.37-54.84-33.93-28.35-47.4-58.09-49.73-86.44l-16.73-220.76c101.32-26.03,212.39-26.03,304.41,2.79l-16.27,217.5c-2.32,29.28-16.27,56.7-47.87,85.51h0ZM105.69,81.68l3.25,38.11c97.13-23.7,198.45-20.91,282.57,3.72l3.72-38.57c-87.37-26.49-193.34-27.89-289.54-3.25Zm240.74,13.94l-21.84-3.72-.93,9.76-6.97-.93,1.86-26.49,7.44.93-.93,10.22,22.31,3.25.93-10.22,7.44,1.39-2.32,26.49-7.44-1.39.46-9.3h0Zm-105.5-8.83c-2.79,0-4.65-.46-6.04-2.79-1.39-1.86-1.39-7.9,0-10.22s3.72-2.79,5.58-2.79h31.14v6.51h-29.28c-1.39,0-1.39,3.25,0,3.25h23.24c2.79,0,5.11,1.39,6.04,3.72s.93,7.44,0,9.3c-.46,1.86-3.25,3.25-6.04,3.25h-30.67v-6.51h26.96c.93,0,1.39-.93,1.39-1.86s-.93-1.39-1.39-1.39l-20.91-.46h0Zm-17.66,2.32c0-1.39-1.39-2.32-2.79-2.32h0l-20.45,1.39.46,9.76-6.51.46-1.39-26.03,30.67-2.32c3.72-.46,6.04,2.79,6.51,5.11,0,2.79.46,6.51-1.86,7.9,1.86,1.39,2.32,3.25,2.32,6.04v6.51l-6.51.46-.46-6.97h0Zm-4.65-8.37c2.79,0,2.32-4.18,0-3.72l-19.52,1.39v3.72l19.52-1.39h0Zm-64.14-3.25c6.51-1.39,19.05-3.25,26.03-3.72,3.25-.46,5.58,1.39,6.04,3.72.93,5.11,1.39,10.69.93,18.13,0,2.32-2.32,3.72-4.65,4.18-8.83,1.86-18.59,2.79-25.56,3.72-1.86,0-4.65-1.39-5.11-3.25-1.39-5.58-1.86-13.01-1.39-18.13,0-2.32,1.86-4.18,3.72-4.65h0Zm24.63,15.8c.93,0,1.39-.93,1.39-1.86.46-1.86,0-7.44-.46-9.3,0-.46-.93-.93-2.32-.93-3.72.46-13.48,1.39-18.59,2.79-1.39.46-1.86.93-1.86,1.86,0,1.86.46,6.51.93,9.3,0,.46.93.93,1.39.93,6.97-.93,14.87-1.86,19.52-2.79h0Zm107.82-14.87c-1.39,0-2.32.93-2.32,1.39-.46,2.32-.46,5.11-.46,8.83,0,.46.93,1.86,1.39,1.86,6.51.93,19.52,1.86,26.03,2.32l-.46,6.97c-9.3-.46-18.59-1.86-28.35-2.32-3.25-.46-5.58-1.86-5.58-5.11,0-5.11,0-12.55.93-16.73.46-2.79,3.25-4.18,6.04-4.18,9.3.46,16.27.93,28.35,2.79l-.46,6.97c-5.58-.93-16.27-2.32-25.1-2.79h0Zm-148.72,1.86c9.3-1.86,10.69,13.94,2.79,15.8l-21.38,5.11.93,10.22-6.51,1.86-2.79-26.96,26.96-6.04h0Zm0,10.69c2.32-.46,1.86-4.18-.46-3.72l-19.52,4.65.46,4.18c0-.46,19.52-5.11,19.52-5.11Zm227.73,8.37l-.46,4.65,21.38,5.11-.46,6.04-28.81-6.51,2.32-26.96,28.81,6.51-.46,6.51-21.38-5.11-.46,4.65,21.38,5.11-.46,5.11-21.38-5.11h0Zm-205.89,76.68c-2.79,3.72-5.58,9.76-6.97,14.87-.46,1.86-.46,2.32,0,3.25,2.79-1.39,6.51-2.32,8.83-3.25.93-1.86,1.39-3.72,1.86-5.58.93-2.32,1.86-3.72,3.25-5.58,3.25-5.11,10.69-10.22,15.8-9.76-1.86,1.39-5.58,5.11-6.97,7.44-.93,1.86-2.32,3.72-3.25,6.04-.93,1.86-.93,3.25-.93,4.65,2.79-.93,5.58-1.39,6.97-1.39.93-.46,1.39-1.86,2.32-2.79,1.86-3.72,6.04-7.9,8.37-9.3,1.86-.93,5.11-2.32,6.97-1.39-2.32,1.86-4.65,4.18-5.58,6.04-.93,1.86-2.79,5.11-2.79,6.51,1.86,0,4.65,0,5.58-.46v-5.11h54.84v-72.5c-42.76,0-89.23,3.72-138.96,17.2l9.76,136.17h73.9v-26.49c-2.79-2.32-16.73-3.72-25.1-.46-1.86.93-8.83,3.72-11.62,6.04l-8.37,6.51c-.93.46-.93,2.32-.93,3.25,0,2.32-2.79,4.18-4.65,3.72-1.39-.46-3.25-.93-4.65-.46-1.86.46-3.25-1.86-3.72-3.25s.93-3.72.93-4.18-.46-3.25,1.86-4.65c.93-.46,2.79-.46,3.72,0h.93c.46,0,1.39-.93,1.86-1.39v-5.11c.46-2.32.46-3.72,1.39-6.51.46-2.32,2.32-5.11,3.25-6.97,1.86-3.25,6.04-6.04,8.83-6.04-.93,1.39-1.39,2.32-2.32,3.72-1.39,2.79-2.79,7.44-3.72,10.22-.46,1.86-.46,3.72-.46,5.58,2.32-1.39,4.65-2.79,6.04-3.72.93-3.72,2.32-7.44,3.72-10.69,1.86-3.72,6.97-7.44,10.22-6.97-3.25,3.25-5.58,7.9-6.04,10.69-.46.93-.93,2.32-.46,3.25,1.39-.46,3.72-1.39,5.11-1.39.93-1.86,1.86-4.65,2.79-6.04,2.79-4.65,7.44-6.97,10.22-6.97-2.32,2.79-3.72,5.11-5.11,8.83-.46.93-.46,2.32-.46,2.79,1.86-.46,4.18-.46,5.11-.46,1.86-1.86,3.25-3.72,5.58-5.58,1.86-1.39,5.58-3.25,6.51-3.72v-22.31c0-.46-6.04-.93-9.3-.46-7.9.93-27.89,6.97-36.25,12.55,0,.46,0,3.25-.93,4.65-.46.93-1.86,2.32-2.79,2.79-2.32.93-4.65-1.86-5.58-1.39-.93.46-3.72,1.39-6.04-.46-.93-.93-1.86-3.25-1.39-4.65.46-1.39,1.39-2.32,2.32-2.79.93-.93.46-3.72,2.79-5.11,1.86-.93,4.65,0,6.51.93.46,0,.93-.46.93-.46.46-.93.46-3.25.93-5.11.46-1.86.46-3.25,1.39-5.11,1.39-4.65,5.11-10.69,8.83-14.41,2.79-2.79,7.44-4.65,11.15-4.65-.46,1.86-5.11,5.58-6.04,7.44h0Zm8.37-43.69c2.79-3.72,10.69-9.76,16.27-9.3-3.25,2.79-6.04,5.58-7.9,8.83-2.79,4.18-4.65,9.3-5.11,13.01,1.86-.46,6.51-1.86,9.3-2.32,2.32-4.65,5.58-10.22,9.3-13.48,2.79-2.32,6.51-3.72,10.22-3.72-.93.93-2.32,1.86-3.25,2.79-1.86,1.39-3.25,3.72-4.18,6.04-.93,1.86-1.86,6.51-2.32,6.51,2.79,0,7.44.46,8.37.46,3.25-3.72,9.76-9.76,17.66-8.37-3.72,1.86-9.76,6.97-9.3,10.22,5.11,3.25,13.01,10.22,13.48,16.73-3.72-3.72-9.3-6.97-12.55-8.37-6.97-2.32-15.8-2.79-22.77-1.39-14.87,2.79-27.89,8.83-40.43,16.27-.46,1.86-1.39,4.65-2.32,6.04-.46,1.39-1.86,2.32-3.72,2.32-1.86.46-3.72-.46-5.58-1.39-.93-.46-3.72,0-5.58-.93-.93-.46-2.79-2.32-2.32-4.65s2.79-3.72,3.25-6.04c.46-3.25,2.79-4.65,4.18-4.65,1.39-.46,2.79,0,4.18.93.46.46.93.46,1.39.93.46,0,1.39-.93,1.86-.93,0-.46,1.39-6.97,1.86-10.22.46-2.79,1.86-5.58,2.79-8.37,2.79-8.37,12.08-16.27,19.52-15.8-.46.46-2.79,2.32-6.04,6.04-5.11,6.04-6.51,12.55-8.83,23.24,4.18-1.86,7.44-3.25,11.15-4.65.93-3.25,1.86-6.51,3.72-9.76,1.39-2.32,2.32-4.18,3.72-6.04h0Zm222.15,9.3h-136.17v38.57h132.92l3.25-38.57h0Zm-120.37,200.77c-1.39.93-3.72.46-4.18,0-1.39-.46-2.32-1.86-2.32-3.72,0-1.39.93-2.79,1.39-4.18,0-.46-.46-3.25,1.86-4.65.46-.46,1.86-.93,2.79-.46.93,0,1.86.93,2.79.93,1.39-.46,2.32-.93,3.72-1.86.93-2.79,1.39-6.04,1.86-8.83-6.97,3.25-15.8,5.58-23.24,5.58v105.96c31.6-15.8,66.92-41.36,81.33-55.31,24.17-22.77,39.97-45.55,42.76-78.54l2.32-30.21h-72.04c0,17.2-6.04,34.86-22.77,47.87-.93,3.72-1.39,10.22-1.39,10.22,2.32-.93,4.65-1.86,6.51-2.32,0,0,2.79-6.04,4.18-7.44,2.79-4.18,6.51-7.9,11.62-10.22,2.79-1.39,6.51-2.79,9.76-1.39-4.18,1.86-7.44,5.58-9.3,7.44-1.86,1.86-3.72,4.65-4.65,7.44,0,.46,0,.93-.46,1.39,1.86-.46,8.37-1.39,10.69-1.86.46,0,.93-1.86,1.86-2.32.93-.93,1.39-1.39,2.32-2.79,3.25-3.25,8.37-6.97,13.48-6.04-2.79,1.86-6.04,4.65-8.37,8.83-.46.46-.93,1.39-.46,1.86.93,0,4.65,0,6.97.46,2.79-1.39,5.58-2.79,8.37-3.72,3.25-.93,7.9,0,9.76,1.39-1.86,0-4.18.46-6.04.93-.93.46-3.25,1.39-4.18,2.79,1.86.46,5.58,2.79,7.44,4.18,1.39.93,3.25,2.79,4.18,4.65,2.79,3.72,3.25,10.22,1.86,12.08-.46-.93-.93-2.32-1.39-3.25-1.39-2.32-3.25-4.65-5.11-5.58-8.83-6.51-20.91-6.51-31.14-4.65-8.83,1.86-24.63,5.11-34.86,12.08.46,1.39-.46,3.25-1.86,4.18-2.79,0-5.11-1.39-6.04-.93h0Zm16.73,11.62c.93-1.86,2.32-4.18,3.25-5.11,2.32-3.72,6.04-6.51,8.37-7.44,3.25-1.39,8.37-2.32,10.69-1.39-2.32.46-4.65,1.86-6.04,2.79-1.86,1.39-5.58,4.18-6.51,5.58-.93,1.39-1.86,2.79-1.86,3.72,2.79-.46,6.51-.93,8.37-.93,1.39-1.39,4.65-5.58,7.44-6.97,1.86-1.39,6.51-2.79,9.3-1.86-2.79.93-7.44,4.18-8.83,6.97-.46.46-.93,1.39-.93,1.39,1.39,0,4.18.46,5.58.46,0,0,4.18-2.32,6.04-2.79,2.32-.46,6.04-1.39,8.37.93-1.86,0-3.25,0-4.65.93-1.86.93-2.79,1.39-3.72,2.79,3.72,1.86,7.44,3.72,9.76,7.44.93,1.39,1.86,4.18,1.39,6.04-.93-1.39-2.79-2.79-3.72-3.25-1.86-.93-3.25-1.86-5.11-2.79-6.97-2.32-15.8-3.25-22.77-2.32-9.3.93-20.45,5.58-26.49,9.3.46,1.86-.46,3.72-1.39,4.18-2.32.93-4.18-.93-4.65-.46-.46,0-2.32.93-3.72.46s-1.86-2.79-1.39-4.18c.46-.93,1.86-2.32,1.86-2.32,0-2.32,1.39-3.72,3.25-3.72.93,0,1.86.93,2.79.93.93-.46,1.39-.93,1.86-.93.46-1.86,1.39-3.72,1.86-5.11.93-2.79,2.32-5.11,3.72-7.44,2.32-3.72,6.51-6.97,11.62-6.97-1.39.93-2.32,1.86-3.25,2.79-1.39,1.86-2.79,3.72-4.18,6.04-.93,1.86-1.86,4.65-2.32,6.97,1.86-1.86,4.18-2.79,6.04-3.72h0Zm-.46,19.98c1.39-.46,2.79-.93,4.18-.93-3.25,1.86-6.04,5.11-6.97,8.37,0,.46,0,.93.46,1.39.93-.46,3.25-.93,3.72-.93.46-.93,1.39-1.86,1.86-2.79,2.32-2.79,5.58-6.04,10.22-4.65-2.79,1.39-4.65,3.25-6.04,5.58,0,.46-.46.93,0,.93h4.18c1.39-.93,5.11-3.25,7.9-2.32-1.39.46-2.32,1.39-3.72,2.32q-.46.46-.93.93c2.32.93,4.65,2.32,6.51,4.18.93.93,2.32,2.32,3.25,5.11-2.32-1.86-9.76-5.58-13.94-5.58-2.79,0-6.04.46-7.9.93-6.51,1.39-13.01,4.18-18.59,7.44,0,.93,0,2.32-1.39,3.25-.93.46-2.79.93-3.25,0-.46-.46-2.79,0-3.25-.46l-.93-1.86c0-1.39.93-1.86,1.39-2.79,0-.46,0-2.32,1.86-2.79.93-.46,1.86-.46,2.79.46.46,0,.46-.46.93-.46,0-2.32.46-4.65,1.39-6.97,1.39-3.25,5.58-7.44,8.83-7.44-2.32,2.32-4.18,6.04-5.11,8.83,0,.93-.46,2.79-.46,3.72.93-.46,1.86-.93,2.79-1.39.46-.93,1.39-3.25,1.86-4.18,2.32-3.25,5.58-6.97,8.37-7.9h0Zm-163.59-72.97c.46,13.01,6.04,28.35,13.48,39.04h110.61v-14.87c-14.41,0-35.79-9.3-44.62-24.17h-79.47Zm76.22-33.46c0,68.32,103.17,68.32,103.17.93v-82.26h-103.17v81.33h0Zm33-32.53c1.39-1.39,2.32-2.79,2.32-4.65,0-.93-3.25-.93-4.65-.46-.93.46-1.39,1.39-1.86,1.86s-1.86.93-2.32.46c-.93-.46.46-1.86.46-2.32,0-.93-2.32.46-3.25,0s-.93-1.39-.46-1.86.93,0,1.39-.46.46-.93.46-1.39.93-.93.93-1.39c1.39-1.39,4.18-3.72,4.65-3.72,1.39,0,3.25.93,4.18,0,0,0,.46-.46.46-.93l-2.79-1.86c0-.46,0-.93.93-1.39,1.39-.93,3.72-.46,5.11-.46s2.32-.46,3.25-1.39c0,.93-.46,1.86-.46,2.79.93.93,2.32,1.86,3.25,2.79,3.25,3.25,4.65,7.9,5.11,11.62v6.97c.46-1.39.93-3.25.93-5.11.46-5.11-.46-9.3-3.25-13.01-1.39-1.39-2.32-3.25-4.18-4.65,0-1.39,1.39-4.18,2.79-3.25.93.46-.46,1.39.46,1.86,1.86,1.39,3.25,1.39,3.72,1.39,1.39-.46,2.79-.46,3.72-.93.46,0,1.39-.46,1.86.46,0,.46-.46.46-.93.93-.46,0-1.39,0-1.86.46-.46.46-.93.93-.46.93,0,.46.93.93,1.39.46,2.32-.46,4.65-.93,6.97-.93,1.39,0,.93.93.46,1.39-.46,0-.93.46-1.39.46-2.32,0-3.72.46-3.72,1.86,0,.93,1.39,0,1.86.46s-.46.93-.46,1.39c0,1.39,3.25.93,4.18.93s2.32-.93,2.79-.46c.46.46,0,1.39-.46,1.39-1.39.46-3.72.93-4.18,1.86-.46.93,0,2.32.93,2.32,1.39,0,3.25,0,4.65.46.46,0,.93.46.93.93s-.46.93-.93.93c-.93.46-2.32.46-3.25.46-.46,0-.93.46-.93.46,0,.46,1.39.46,2.32.46.46,0,1.39.46,1.39.93s-.46.93-1.39.93c-1.39,0-2.79,0-3.72.46,0,0-1.39,0-1.39.93,0,.46,1.39,0,1.39.93s-.46.93-.46,1.86q0,.46.46.46c.93.46,2.32.46,3.25,0,.93,0,1.39.93.93,1.39-1.39.93-4.18,0-5.11.46-.93.46,1.39,1.86,1.39,2.32s-.46.46-.46.93c-1.39.46-2.79-.46-3.72,0s-.46,1.86-.93,2.32c-.46.93-1.86.46-2.79.93-.93.46-.93,1.86,0,2.79.93.46,1.39.93,2.32,1.39,3.72,1.86,7.9,3.72,12.08,3.72h6.97c2.32.46,4.65,2.32,6.04,3.25.93.46,2.79.93,3.72.46.93-.46,1.39-1.39,1.39-2.32-.46-2.79-5.58-3.72-5.58-6.97s-.46-5.11-1.39-7.44c-.46-.93-.46-2.79.46-2.79s.93.93,1.86.46c2.79-.93,3.25-5.58,6.04-6.51,1.86-.46,7.9-.46,7.44-1.39-1.39-1.86-.93-3.72,0-4.65.46-.46,1.86-.93,2.32-.46.93.93-.93,1.86-.93,2.79s1.86,3.25.46,4.18c-.93.46-6.04.93-7.9,3.25-.46.93-.46,1.86.46,1.86s1.86-1.39,2.79-1.86c1.39-.93,2.79-1.39,3.72-.93.46.46,0,.93-.93,1.39-.93,0-2.32,1.86-1.86,2.32.93.93,4.65-2.32,5.58-1.86.46.46-1.86,2.79-1.39,3.25.46.93,2.32-.46,2.79,0,.93.93-1.39,2.79-2.32,3.25-.93.46-.46,2.79-1.86,3.25-1.39.46-1.86,1.86-1.86,1.86,0,.46.46.46.93,0,1.39-.93,3.72-2.32,4.18-1.86.46,0,0,2.32-.93,3.25s2.32.46,1.86,1.39c-.46.46-.46,1.39-.46,2.32s-3.25,1.39-3.25,2.32c-.46.93.46.93.93.93,1.86.46,1.86,2.32.93,2.79-.93.93-2.79,1.39-4.65.93-1.39,0-4.65-.93-6.04-2.32-.46-.46-1.39,0-1.39.46s.46,1.86.93,2.79c.46,1.39,0,3.25-.46,4.65-.93,2.79-3.72,5.58-4.65,8.83,0,.93,0,1.86.46,2.79.93,1.86,1.86,3.72,3.25,5.58,0,.46.46.93,0,1.39-.46.93-2.79,2.32-3.25,2.79-2.32,1.86-4.18,4.65-4.65,7.44,0,.93-2.32,1.86-3.72,2.32-.93.46-2.32.46-3.25,1.39,0,.93.46,1.39.46,2.32,0,1.39-1.39,2.32-3.25,2.32-.46,0-1.39.46-2.32.46-.46,0-.46-.46-.46-.46.46-1.86.93-3.25,1.39-5.11l1.39-1.39,5.58-4.65,4.18-6.04c.46-.46.46-.93.46-1.39,0-.93-.46-2.32-1.39-2.79-.93-.93-2.79-.93-3.72-1.86-1.39-.93-3.72-2.79-4.18-2.79-.93-.46-1.39.93-1.39,1.86v3.72c0,.46,0,.93-.46,1.39-3.72,1.86-7.9,2.79-10.69,6.04l-1.39,1.39c-1.39.93-3.72,0-5.11,1.39-.46.93,0,1.39,0,2.32,0,.46-.93.93-1.86,1.39s-1.86.46-2.79.93c-.93-.46-.46-1.86,0-3.25.46-.93.93-2.32,1.86-2.79,1.39-.93,2.79-2.32,3.72-2.79s2.32-.46,3.25-.93c.93-.46,2.32-.93,3.25-1.39,1.39-.93,3.25-2.32,3.72-3.72.93-1.86.93-4.18-.46-6.04-.93-1.39-2.32-2.79-3.25-4.65-.46-.93,0-2.32.46-2.79,0,0-.46-.46-.93-.46-5.58,0-11.15-.46-16.27-2.32-1.39-.46-2.79-2.32-3.72-2.32s-1.39.93-2.32.93c-1.39.46-3.25,0-4.65,0-1.86,0-6.04-.93-8.83-1.86-.46,0-.93,0-1.39.46s-.93,1.39-.93,1.86v2.79c0,.46-.46.93,0,1.39,0,.46.93.93.93,1.39.93.46.93,1.86.93,2.79s-.46,2.79.46,3.25c.46.46,1.39,0,2.32,0s.93.93.93,1.86-.93,2.79-1.39,3.25c-.46.46-.93,0-1.39,0-.93-.46-2.32-1.39-2.79-2.32-.46-.46-.46-.93-.46-1.39-.46-.93-.93-1.39-1.86-1.86-.93-.46-.93-1.86-1.39-2.79v-2.79c0-1.86,0-3.72-.46-6.04-.46-1.39-.93-2.79-.93-4.65,0-.93.46-1.39,1.39-1.86,3.72,0,7.44-.93,10.69-1.86l-2.32-2.32c-.46,0-.93.46-1.39.46s-1.39-.93-1.86-.93c-.93-1.86-1.86-3.72-2.32-5.58-.46-.93-.93-1.39-1.86-1.86-.46-.46-1.39-.46-1.86-.46-1.86.93-3.72,2.32-3.72,4.65,0,.46.46.93,0,1.39,0,.93-.93,1.39-1.39,2.32s-1.39,1.39-1.39,2.32,0,1.39.46,2.32c0,.46.46.93.46,1.39-.46,1.39-3.72,2.32-4.18,2.32s-.46-.46-.46-.93c-.46-.93-.46-2.32,0-3.25.93-.93,1.39-1.86,1.86-2.79.46-1.39,0-3.25.93-4.65,1.86-3.25,6.97-9.3,7.9-10.22.46-.46,1.39-.46,1.86-.46,1.86,1.39,3.25,2.79,5.11,3.72.93.46,2.32,1.39,3.25.46s.93-5.58,1.86-6.97c2.79.46,6.04-2.32,7.44-4.65h0Zm38.11-30.67l-.93,3.25h-3.25l3.72-14.41h3.72l3.72,14.41h-3.25l-.93-2.79-2.79-.46h0Zm3.25-2.79l-1.39-5.58-1.39,5.58h2.79Zm-11.15-4.65c0-.93-.46-2.32-.93-2.32-.93-.46-1.86,0-2.32.46-.46.93-.46,2.32-.46,4.65,0,1.39,0,3.25.46,3.72.46,1.86,2.32,1.86,3.25.93.46-.46.46-1.86.46-2.79h-1.86v-2.32h4.65v7.9h-2.32v-.93s-.93.93-1.39.93c-.93.46-2.32.46-3.25,0s-1.86-1.86-2.32-3.25c-.46-1.86,0-4.18,0-6.04s.93-4.18,2.79-5.11c.93-.46,3.25-.46,4.18,0,1.39.46,2.79,2.79,2.32,4.65-.46-.46-3.25-.46-3.25-.46Zm-51.12-3.72c1.39.93,1.86,2.32,1.86,3.72h-2.32c0-1.39-.46-2.32-1.86-2.32-.93,0-1.86.93-1.86,1.39,0,1.86,1.86,2.32,2.79,2.79s1.86.93,2.32,1.39c.93,1.39.93,2.79.46,4.65-.46.93-1.86,1.86-3.25,2.32-1.39.46-3.25,0-4.65-.93-.93-.93-1.39-2.32-1.39-3.72h2.79c0,.93,0,1.39.46,1.86,0,.46.46.93,1.39.93s1.86-.93,2.32-1.86v-.46c0-2.32-4.18-2.32-5.58-3.72-1.39-1.86-.93-4.65,0-5.58,2.32-1.86,4.65-1.86,6.51-.46h0Zm76.68,9.76v3.72c0,.46.46.93.46.93h-2.79c-.46,0-.46-.46-.46-1.39,0-1.39,0-5.11-1.39-5.11h-1.86v6.04h-2.79v-13.94h5.11c2.79,0,3.72,1.39,3.72,3.25,0,1.39,0,2.79-1.39,3.25.93.93,1.39,1.86,1.39,3.25h0Zm-3.72-7.9h-2.32v3.72h1.39c2.79,0,2.79-3.72.93-3.72Zm-64.14,12.55h-2.79v-12.08h-3.25v-2.32h9.3v2.32h-3.25v12.08h0Zm18.13,0v-12.08h-3.25v-2.32h9.3v2.32h-3.25v12.08h-2.79Zm7.44-14.87h9.3v2.32h-3.25v12.08h-2.79v-12.08h-3.25v-2.32h0Zm49.73,2.79v12.08h-2.79v-12.08h-3.25v-2.32h9.3v2.32h-3.25Zm-64.6,7.9v-10.22h2.79v10.22c0,6.04-9.3,6.04-9.3,0v-10.22h2.79v10.22c0,2.32,3.72,2.32,3.72,0h0Zm6.51,10.69c.93-.93,1.86-1.86,3.25-2.32,1.39-.93,0,.93,0,1.86,0,1.86-1.86,2.32-3.72,1.86-.46-.46,0-.93.46-1.39h0Zm71.57,46.48h72.97l3.25-39.04h-76.22v39.04h0Zm-61.35,121.3h-74.83c15.34,13.48,51.12,38.57,74.83,48.8v-48.8h0Zm-54.38-161.27c-1.39,1.39-4.18,4.18-5.11,5.58,1.39.46,3.72,1.39,5.11,2.32v-7.9h0Z" fill-rule="evenodd"/>
</svg>