<?xml version="1.0" encoding="UTF-8"?>
<svg id="Layer_1" data-name="Layer 1" xmlns="http://www.w3.org/2000/svg" width="500" height="500" viewBox="0 0 500 500">
  <rect width="500" height="500" fill="none"/>
  <g>
    <path d="m253.92,82.55c-73.83,0-133.9,60.07-133.9,133.9s60.07,133.9,133.9,133.9,133.9-60.07,133.9-133.9-60.07-133.9-133.9-133.9Zm-110.27,110.99l63.92,1.29s-12.75,19.4-8.87,49.89l8.87-7.39s-2.22,30.12,25.68,43.23c0,0-25.12,0-35.1-24.75,0,0-4.06,3.69-6.09,7.02,0,0-5.91-4.37-3.6-39.04,0,0-5.63,3.38-6.37,6.34,0,0-.18-8.5,8.13-25.68l-47.67,1.29s-.29-2.06-.27-4.63c.33-2.41.73-4.81,1.21-7.17.06-.13.11-.27.18-.39h0Zm66.51-53.58c19.95,3.14,31.23,9.61,31.23,9.61-32.08,7.59-62.44,23.28-62.44,23.28,22.72-20.14,43.6-23.28,43.6-23.28-1.66-3.32-12.38-9.61-12.38-9.61h0Zm106.79,41.38c-33.68-7.33-77.41-12.75-77.41-12.75,19.58-11.46,40.09-5.72,40.09-5.72-3.69.18-10.72,2.95-10.72,2.95,17.18,3.69,48.04,15.52,48.04,15.52h0Zm12.38,24.94s-35.47-.92-40.09-.92-20.14,3.32-47.85,23.28c0,0,16.63-27.71,43.78-27.71s44.15,5.35,44.15,5.35h0Zm-75.4,122.86c-26.31,0-50.51-9.02-69.69-24.12,11.37-13.73,32.49-13.38,32.49-13.38,34.37,0,52.29,27.22,53.76,27.22s15.89-3.76,27.34-17.99c11.46-14.23,15.71-35.47,12.57-35.47s-4.62,5.54-11.64,5.54-31.6-21.8-31.6-26.79,31.97-20.88,38.61-24.94c6.65-4.06,23.46-3.51,23.46-3.51,0,1.51.44,7.69.81,12.57.17,2.27,2.98,3.23,4.49,1.54,5.15-5.74,14.15-15.42,20.56-22.6,9.24-10.35-2.03-13.86-4.8-15.71-1.3-.87-.69-1.94.33-2.83,1.28-1.12,1.19-3.12-.18-4.12-15.96-11.63-46.16-21.86-46.16-21.86.06-.82.58-1.44,1.22-1.91,1.12-.81,1.06-2.49-.12-3.22-29.85-18.36-69.93-28.87-88.4-28.87-13.06,0-21.59,1.03-25.69,1.69-.98.16-1.32,1.38-.59,2.05,3.03,2.8,6.33,8.17,6.33,8.17h-26.48c20.61-22.64,50.33-36.86,83.36-36.86,62.24,0,112.7,50.46,112.7,112.7s-50.46,112.7-112.7,112.7h0Z"/>
    <g>
      <path d="m76.97,374.06H23v43.38h10.93v-15.37h43.04c5.47,0,9.9-4.43,9.9-9.9v-8.2c0-5.47-4.43-9.9-9.9-9.9h0Zm-.34,16.65c0,2.03-1.64,3.68-3.67,3.68h-39.03v-12.64h39.03c2.03,0,3.67,1.64,3.67,3.67v5.29h0Z"/>
      <polygon points="287.45 374.06 276.52 374.06 276.52 374.06 247.65 374.06 247.65 381.75 276.52 381.75 276.52 417.44 287.45 417.44 287.45 381.75 314.6 381.75 314.6 374.06 287.45 374.06 287.45 374.06"/>
      <polygon points="466.07 374.06 466.07 409.13 415.57 374.06 415.28 374.06 404.36 374.06 404.36 378.33 404.36 417.44 415.28 417.44 415.28 385.92 460.67 417.44 466.07 417.44 477 417.44 477 374.06 466.07 374.06"/>
      <path d="m148.36,402.07c5.47,0,9.9-4.43,9.9-9.9v-8.2c0-5.47-4.43-9.9-9.9-9.9h-51.07v43.38h10.93v-15.37h23.86l16.61,15.37h14.52l-16.61-15.37h1.75Zm-40.14-20.33h36.13c2.03,0,3.67,1.64,3.67,3.67v5.29c0,2.03-1.64,3.67-3.67,3.67h-36.13v-12.64h0Z"/>
      <path d="m224.3,374.06h-36.21c-10.44,0-18.9,8.46-18.9,18.9v5.58c0,10.44,8.46,18.9,18.9,18.9h36.21c10.44,0,18.9-8.46,18.9-18.9v-5.58c0-10.44-8.46-18.9-18.9-18.9h0Zm8.23,24.48c0,6.19-5.03,11.22-11.21,11.22h-30.23c-6.19,0-11.21-5.03-11.21-11.22v-5.58c0-6.19,5.03-11.22,11.21-11.22h30.23c6.19,0,11.21,5.03,11.21,11.22v5.58Z"/>
      <path d="m373.91,374.06h-36.21c-10.44,0-18.9,8.46-18.9,18.9v5.58c0,10.44,8.46,18.9,18.9,18.9h36.21c10.44,0,18.9-8.46,18.9-18.9v-5.58c0-10.44-8.46-18.9-18.9-18.9h0Zm8.23,24.48c0,6.19-5.03,11.22-11.21,11.22h-30.23c-6.19,0-11.21-5.03-11.21-11.22v-5.58c0-6.19,5.03-11.22,11.21-11.22h30.23c6.19,0,11.21,5.03,11.21,11.22v5.58Z"/>
    </g>
  </g>
</svg>