<?xml version="1.0" encoding="UTF-8"?>
<svg id="Layer_1" data-name="Layer 1" xmlns="http://www.w3.org/2000/svg" width="500" height="500" viewBox="0 0 500 500">
  <rect width="500" height="500" fill="none"/>
  <path d="m250,29.2c-121.75,0-220.8,99.05-220.8,220.8s99.05,220.8,220.8,220.8,220.8-99.05,220.8-220.8S371.74,29.2,250,29.2ZM68.16,212.22l105.41,2.13s-21.02,31.99-14.62,82.26l14.62-12.19s-3.66,49.66,42.35,71.29c0,0-41.43,0-57.88-40.82,0,0-6.7,6.09-10.05,11.58,0,0-9.75-7.2-5.94-64.38,0,0-9.29,5.58-10.51,10.46,0,0-.3-14.01,13.4-42.35l-78.6,2.13s-.47-3.39-.45-7.64c.54-3.98,1.2-7.93,1.99-11.82.1-.21.18-.44.29-.64h0Zm109.68-88.36c32.9,5.18,51.49,15.84,51.49,15.84-52.9,12.52-102.97,38.39-102.97,38.39,37.47-33.21,71.9-38.39,71.9-38.39-2.74-5.48-20.41-15.84-20.41-15.84h0Zm176.09,68.24c-55.54-12.08-127.65-21.02-127.65-21.02,32.29-18.89,66.11-9.44,66.11-9.44-6.09.3-17.67,4.87-17.67,4.87,28.33,6.09,79.21,25.59,79.21,25.59h0Zm20.41,41.13s-58.49-1.52-66.11-1.52-33.21,5.48-78.91,38.39c0,0,27.42-45.7,72.2-45.7s72.81,8.83,72.81,8.83h.01Zm-124.34,202.6c-43.38,0-83.29-14.87-114.91-39.78,18.75-22.64,53.57-22.06,53.57-22.06,56.67,0,86.22,44.89,88.65,44.89s26.2-6.2,45.09-29.66,25.9-58.49,20.72-58.49-7.62,9.14-19.19,9.14-52.1-35.95-52.1-44.17,52.71-34.43,63.67-41.13c10.97-6.7,38.69-5.79,38.69-5.79,0,2.49.73,12.68,1.33,20.72.28,3.74,4.91,5.33,7.41,2.54,8.49-9.46,23.33-25.43,33.91-37.27,15.23-17.06-3.35-22.85-7.92-25.9-2.15-1.43-1.13-3.2.55-4.67,2.11-1.85,1.97-5.15-.29-6.8-26.31-19.18-76.11-36.05-76.11-36.05.1-1.35.95-2.38,2.02-3.15,1.85-1.34,1.75-4.11-.2-5.31-49.22-30.27-115.32-47.6-145.77-47.6-21.53,0-35.6,1.7-42.37,2.79-1.62.26-2.17,2.27-.97,3.38,4.99,4.61,10.43,13.48,10.43,13.48h-43.67c33.99-37.34,82.99-60.78,137.46-60.78,102.64,0,185.84,83.2,185.84,185.84s-83.2,185.84-185.84,185.84h0Z"/>
</svg>