<?xml version="1.0" encoding="UTF-8"?>
<svg id="Layer_1" data-name="Layer 1" xmlns="http://www.w3.org/2000/svg" width="500" height="500" viewBox="0 0 500 500">
  <rect width="500" height="500" fill="none"/>
  <g>
    <path d="m114.43,286.25l-48.72-23.78c-12.41,16.97-19.34,28.17-20.81,33.6-1.03,3.88-3.34,7.13-6.91,9.76-3.58,2.63-6.14,3.94-7.69,3.94-4.39,0-6.59-1.68-6.59-5.04,0-1.9,2.6-7.34,7.82-16.35,5.21-9,12.38-19.62,21.52-31.86-5.08-2.07-8.23-3.44-9.43-4.14-1.21-.69-1.68-2-1.42-3.94s1.76-4.98,4.52-9.11c2.41-3.62,4.22-6.05,5.43-7.3,1.21-1.25,2.63-2.24,4.26-2.97,1.64-.73,3.36-1.23,5.17-1.49,1.81-.26,6.89-.9,15.25-1.94,6.81-9.22,14.19-19.17,22.16-29.85,7.97-10.68,14.19-19,18.67-24.94-13.53,1.81-22.96,3.32-28.3,4.52-5.69,1.12-10.45,2.05-14.28,2.78-3.83.73-6.53,1.38-8.08,1.94-1.55.56-2.33,1.36-2.33,2.39,0,.95.95,1.6,2.84,1.94,1.89.35,4.29.52,7.17.52s5.13.11,6.72.32c1.59.22,2.39.71,2.39,1.49,0,.86-1.06,1.36-3.17,1.49-2.11.13-8.03.41-17.77.84-5.52.17-10.14.35-13.89.52-3.75.17-6.35.26-7.82.26-1.98,0-3.53-.6-4.65-1.81-1.12-1.21-1.68-2.8-1.68-4.78,0-1.46.82-4.18,2.46-8.14,1.64-3.96,3.96-7.97,6.98-12.02,3.01-4.05,6.46-7.19,10.34-9.43,4.39-2.67,11.22-5.36,20.48-8.08,9.26-2.71,19.56-4.91,30.89-6.59,11.33-1.68,22.55-2.52,33.67-2.52,6.72,0,13.29.39,19.71,1.16,6.42.77,12.23,1.72,17.45,2.84,5.21,1.12,9.33,2.24,12.34,3.36,7.84,2.58,13.85,6.51,18.03,11.76,4.18,5.26,6.27,11.03,6.27,17.32s-1.06,12.08-3.17,17.9c-2.11,5.82-5.34,11.2-9.69,16.15-4.35,4.96-9.59,8.98-15.7,12.08-5,2.58-12.58,5.21-22.75,7.88-10.17,2.67-22.44,5.04-36.83,7.11-14.39,2.07-30.46,3.58-48.2,4.52,13.27,4.65,25.65,9.33,37.15,14.02,11.5,4.7,21.19,8.88,29.08,12.54,7.88,3.66,14.06,6.65,18.55,8.98,6.29,3.28,10.38,5.64,12.28,7.11,1.89,1.47,3.14,3.36,3.75,5.69.6,2.33.9,6.16.9,11.5,0,6.03-.37,10.49-1.1,13.38-.73,2.89-2.31,4.33-4.72,4.33-.77,0-2.82-.84-6.14-2.52-3.32-1.68-7.91-4.14-13.76-7.37-5.86-3.23-11.18-6.12-15.96-8.66-4.78-2.54-12.34-6.31-22.68-11.31Zm11.37-116.7c.08.6.15,1.16.19,1.68.04.52.06,1.25.06,2.2,0,2.41-.76,5.19-2.26,8.34-1.51,3.15-3.45,6.38-5.82,9.69-2.37,3.32-5.9,8.06-10.6,14.22-4.7,6.16-9.03,11.82-12.99,16.99,18.09-3.44,33.54-6.76,46.33-9.95,12.79-3.19,23.33-6.4,31.6-9.63,8.27-3.23,14.49-6.63,18.67-10.21,4.18-3.57,6.27-7.3,6.27-11.18,0-4.31-4.37-7.69-13.12-10.14-8.75-2.46-19.45-3.68-32.11-3.68-2.58,0-5.32.06-8.21.19-2.89.13-6.33.39-10.34.78-4.01.39-6.57.63-7.69.71Z"/>
    <path d="m204.9,234.3c13.1-11.89,25.8-20.72,38.12-26.49,12.32-5.77,21.84-8.66,28.56-8.66,1.81,0,3.49.76,5.04,2.26,1.55,1.51,2.78,3.25,3.68,5.23.9,1.98,1.36,3.45,1.36,4.39,0,1.55-.6,2.69-1.81,3.42-1.21.73-3.32,1.61-6.33,2.65.6,1.38,1.38,3.15,2.33,5.3.95,2.15,1.68,3.9,2.2,5.23.52,1.34.78,2.52.78,3.55,0,2.07-2.09,5.92-6.27,11.57-4.18,5.64-7.11,9.8-8.79,12.47-1.68,2.67-2.52,5.95-2.52,9.82,0,6.38,2.93,9.56,8.79,9.56s15.46-5.64,28.3-16.93v7.88c-21.8,24.21-37.39,36.32-46.78,36.32-3.36,0-5.75-1.1-7.17-3.3s-2.13-5.45-2.13-9.76c0-6.81,2.46-16.67,7.37-29.6-12.58,13.96-21.93,23.89-28.04,29.79-6.12,5.9-11.16,8.85-15.12,8.85-1.9,0-4.26-1.64-7.11-4.91-2.84-3.27-5.36-7.52-7.56-12.73-2.2-5.21-3.3-10.62-3.3-16.22,0-4.05.39-7.43,1.16-10.14.78-2.71,2.28-5.49,4.52-8.34,2.24-2.84,5.82-6.59,10.73-11.24Zm61.9-14.22c-22.4,10.25-38.36,18.95-47.88,26.1-9.52,7.15-14.28,14.52-14.28,22.1,0,2.76.47,5.02,1.42,6.78.95,1.77,2.24,2.65,3.88,2.65.95,0,2.63-.6,5.04-1.81,9.05-5.34,17.32-12.3,24.81-20.87,7.5-8.57,16.5-20.23,27.01-34.96Z"/>
    <path d="m399.91,266.09l-42.91,35.28c-12.06,20.85-23.05,36.42-32.95,46.72-9.91,10.29-17.27,15.44-22.1,15.44-2.59,0-3.88-1.6-3.88-4.78,0-6.2,3.14-14.13,9.43-23.78,2.5-3.79,5.36-7.5,8.59-11.11,3.23-3.62,6.29-6.74,9.18-9.37,2.89-2.63,6.7-5.9,11.44-9.82,4.74-3.92,7.97-6.61,9.69-8.08,8.61-17.58,14.82-31.02,18.61-40.32-8.1,8.62-15.17,15.68-21.19,21.19-6.03,5.52-11.57,9.76-16.61,12.73s-9.59,4.46-13.64,4.46c-4.39,0-8.44-3.51-12.15-10.53-3.7-7.02-5.56-14.24-5.56-21.65,0-3.45.8-7.06,2.39-10.86,1.59-3.79,4.09-7.84,7.5-12.15,3.4-4.31,7.73-8.72,12.99-13.25,5.25-4.52,11.41-8.94,18.48-13.25,13.35-8.36,23.74-12.54,31.15-12.54,5.51,0,8.27,2.03,8.27,6.07,0,5.6-5.99,11.07-17.96,16.41-7.32,3.19-14.58,7.41-21.78,12.66-7.2,5.26-13.01,10.84-17.45,16.74-4.44,5.9-6.66,11.22-6.66,15.96,0,2.33.56,4.18,1.68,5.56,1.12,1.38,2.59,2.07,4.39,2.07,3.01,0,6.46-1.38,10.34-4.14,3.88-2.76,9.61-7.62,17.19-14.6,3.44-3.19,8.03-8.33,13.76-15.44,5.73-7.11,10.47-12.54,14.22-16.28,3.75-3.75,7.13-5.62,10.14-5.62,1.72,0,3.12.54,4.2,1.61,1.08,1.08,1.62,2.65,1.62,4.72,0,3.96-1.57,9.72-4.72,17.25-3.14,7.54-8.81,19.88-16.99,37.03l31.28-22.75v8.4Z"/>
    <path d="m419.68,262.08v3.23c0,5.08,1.25,9.05,3.75,11.89,2.5,2.84,5.77,4.26,9.82,4.26s8.6-.99,13.12-2.97c4.52-1.98,9.02-4.61,13.5-7.88,4.48-3.27,9.95-7.67,16.41-13.18v7.88c-9.74,11.72-18.87,20.7-27.4,26.95-8.53,6.25-17.19,9.37-25.98,9.37-7.67,0-13.74-2.97-18.22-8.92-4.48-5.94-6.72-14.09-6.72-24.42,0-9.05,2.11-17.25,6.33-24.62,4.22-7.37,11.11-15.14,20.68-23.33,6.55-5.6,13.05-9.82,19.51-12.66,6.46-2.84,12.23-4.26,17.32-4.26,4.05,0,7.26.93,9.63,2.78,2.37,1.85,3.55,4.63,3.55,8.34,0,5.43-2.02,10.84-6.07,16.22-4.05,5.38-10.23,10.73-18.54,16.02-8.32,5.3-18.55,10.4-30.69,15.31Zm1.29-8.4c7.75-3.01,14.39-6.76,19.9-11.24,5.51-4.48,9.58-8.76,12.21-12.86,2.63-4.09,3.94-7.09,3.94-8.98s-.9-2.97-2.71-2.97c-1.55,0-4.07.99-7.56,2.97-3.49,1.98-7.02,4.57-10.6,7.76-3.58,3.19-6.78,6.94-9.63,11.24-2.84,4.31-4.7,9-5.56,14.09Z"/>
  </g>
</svg>