<?xml version="1.0" encoding="UTF-8"?>
<svg id="Layer_1" data-name="Layer 1" xmlns="http://www.w3.org/2000/svg" width="500" height="500" viewBox="0 0 500 500">
  <rect width="500" height="500" fill="none"/>
  <g id="g34083">
    <g id="g4694">
      <path id="path4692" d="m249.47,149.87l30.86,43.91-30.86,44.86-32.45-44.86,32.45-43.91Zm38.5,41.36l-34.68-52.5,18.45-43.91-63,96.09,40.41,56.31,38.82-56Z"/>
    </g>
    <g id="g4698">
      <path id="path4696" d="m227.46,92.09h43.91l61.41,99.9h-38.82l-55.36,79.86,7.32-17.82-43.27-62.04h-35.32v-.32l60.13-99.59Zm-2.55,207.12l.95,1.91h49.32l.95-1.91,63.95-105.31,1.27-1.91-1.27-1.91-63.63-103.72-.95-1.59h-51.86l-1.27,1.91-62.36,103.4-1.27,1.91,1.27,1.91,64.91,105.31Z"/>
    </g>
    <g id="g4702">
      <path id="path4700" d="m69.45,368.1h-13.68v-15.91h13.68c1.27,2.55,2.23,5.41,2.55,8.27-.32,2.86-1.27,5.41-2.55,7.64m25.77-10.5c0-16.86-14-19.41-14-19.41H23c.32,5.09,9.23,9.86,9.23,9.86v51.54l-6.68,3.18v7.64h37.54v-7.64l-7.32-3.18v-22.59l3.18-.32,12.41,33.41h25.77v-7.32l-17.5-25.77c9.54-1.59,15.91-10.18,15.59-19.41"/>
    </g>
    <g id="g4706">
      <path id="path4704" d="m162.78,386h-15.59v12.41h-14v-20.36h9.23l3.5,4.45h7.95v-20.04h-7l-4.45,4.45h-9.23v-16.54h13.68v7.95h16.86v-20.36h-61.72v6.68l7,3.18v51.86l-7,4.14v7h60.77v-24.82Z"/>
    </g>
    <g id="g4710">
      <path id="path4708" d="m208.11,410.95h19.73v-61.72l7.95-3.5v-7.95h-27.36v7.95l7,2.23.32,24.82-20.36-35-28,.32v6.36l4.45,2.23v54.09l-7,4.45v5.73h27.04v-5.73l-6.68-4.14v-27.36l22.91,37.23Z"/>
    </g>
    <g id="g4714">
      <path id="path4712" d="m256.84,376.15l3.18-10.82,3.82,10.82h-7Zm7.95,34.68h37.86v-7.64l-7-2.86-21.64-62.36-31.82-.32v7.95l8.91,8.59-13.68,45.82c-2.23,1.59-4.77,2.86-7.32,4.14v6.68h25.77v-6.68l-6.68-2.55,3.82-13.04h15.59l4.45,11.45-7.95,4.14-.32,6.68Z"/>
    </g>
    <g id="g4718">
      <path id="path4716" d="m330.8,415.23c24.5,0,27.04-19.09,27.04-19.09v-47.09l5.73-2.23v-7.64h-24.82v7.64l7.64,2.55v49.32c-3.18,1.91-6.36,3.18-10.18,3.5-3.18-.32-6.36-1.27-8.91-3.5v-49.63l8.91-3.5v-6.68l-44.54.32v6.68l11.45,3.5v47.72c0-.32,3.5,18.14,27.68,18.14"/>
    </g>
    <g id="g4722">
      <path id="path4720" d="m409.68,401.87h-12.41v-49.32l10.18-5.73v-7.95h-40.72v7.64l5.73,2.55v53.77l-6.68,2.55v7.64h57.27v-23.54h-13.68v12.41h.32Z"/>
    </g>
    <g id="g4726">
      <path id="path4724" d="m415.28,363.9h14.64l.32-11.45h5.09v47.09l-10.18,4.45v8.91h42.63v-8.91l-9.54-4.45v-47.41h4.45v11.45h14.32v-24.5h-61.72v24.82Z"/>
    </g>
  </g>
</svg>