<?xml version="1.0" encoding="UTF-8"?>
<svg id="Layer_1" data-name="Layer 1" xmlns="http://www.w3.org/2000/svg" width="500" height="500" viewBox="0 0 500 500">
  <rect width="500" height="500" fill="none"/>
  <g>
    <g id="g4694">
      <path id="path4692" d="m248.69,161.17l63.88,90.76-63.88,92.66-66.56-92.66,66.56-90.76Zm79.42,85.71l-71.15-108.34,37.64-90.57-129.52,197.92,83.02,116.14,80.01-115.22v.07Z"/>
    </g>
    <g id="g4698">
      <path id="path4696" d="m203.9,42.14h90.37l126.31,205.92-.2.26h-79.42l-114.18,164.61,15.28-36.99-89.39-127.62h-72.86l-.26-.46L203.9,42.14Zm-5.77,427.06l2.23,3.61h101.45l2.1-3.67,131.75-217.2,2.36-3.93-2.36-3.8L304.89,30.73l-2.23-3.54h-107.16l-2.23,3.67L64.41,244.26l-2.43,3.8,2.43,3.87,133.72,217.27Z"/>
    </g>
  </g>
</svg>