<?xml version="1.0" encoding="UTF-8"?>
<svg id="Layer_1" data-name="Layer 1" xmlns="http://www.w3.org/2000/svg" width="500" height="500" viewBox="0 0 500 500">
  <rect width="500" height="500" fill="none"/>
  <path id="path958" d="m259.34,239.8l1.02-2.64-52.23-.28.87-5.6c.7-14.34,8.17-22.58,17.58-22.58l38.63-.28c8.53,1.72,11.68,3.53,16.03,17.3l13.92,45.76c3.66,10.85,9.22,34.63,17.26,37.29,2.77,1.15,7.13.85,9.9-.89,10.96-7.09,29.77-43.71,36.03-54.25l36.26-61.63h-16.71l-41.63,68.32c-.53.89-1.02,1.75-1.75,2.36-3.3,3.81-5.92,3.49-8.17-2.36-4-10-8.56-33.46-15.66-50.18-4.68-10.24-10.3-18.13-17.75-18.13h-89.87c-13.19,0-24.71,10.24-27.13,28.73-2.28,16.41-8.17,46.65-8.17,61.59,0,13.51,4.19,25.54,11.88,25.54h80.62c1.68,0,12.51-17.28,14.24-19.94l-73.1-.32-.36-1.17,4.7-32.56h42.82c4.19,0,9.07-9.34,10.81-14.09m144.51,29.67l-9.43,16.73,40.56.26.89,2.96,5.02,17.9h34.99l-27.16-87.7c-2.79-8.77-5.04-19.07-9.77-24.99-3.49-4.06-7.47-4.06-11.47-4.06-11.49,0-32.73,42.84-40.24,55.16-8.17,13.77-31.16,49.27-36.39,62.19h16.9c7.3-8.21,42.31-75.13,46.14-75.13h1.75c3.11,0,12.71,31.41,13.39,36.71h-25.22l.04-.02Zm-318.3-60.74h31.84c7.7,0,6.28,24.03-.85,26.99l-34.82,1.17c-4.53.28-8.36,7.36-5.04,14.07,5.94,12.07,30.14,56.93,31.5,56.93l40.76-.89-26.48-51.67h7.49c13.07,0,22.47-7.87,26.16-24.6,4.49-21.09-2.64-38.69-17.62-38.69h-69.83c-21.6,0-28.88,9.13-32.92,39.05-3.11,23.43-8.34,52.72-11.66,76.81h32.05c3.64,0,7.28-34.07,8.34-41.07,1.04-6.73,3.66-21.09,5.24-32.24,2.09-13.79,5.38-26.39,15.83-25.84"/>
</svg>