<?xml version="1.0" encoding="UTF-8"?>
<svg id="Layer_1" data-name="Layer 1" xmlns="http://www.w3.org/2000/svg" width="500" height="500" viewBox="0 0 500 500">
  <rect width="500" height="500" fill="none"/>
  <g>
    <path d="m28.37,217.58v-10.01c0-1.88,1.54-3.42,3.42-3.42h45.07c1.93,0,3.47,1.54,3.47,3.42v10.01H28.37m0,2.43h51.95v59.98H28.37v-59.98Z"/>
    <g>
      <path d="m76.86,201.72H31.79c-3.22,0-5.85,2.63-5.85,5.85h0v84.86c0,3.23,2.63,5.85,5.85,5.85h45.06c3.27,0,5.9-2.62,5.9-5.85v-84.86c0-3.22-2.63-5.85-5.9-5.85Z" fill="none"/>
      <path d="m76.86,198.69H31.8c-4.91,0-8.88,3.97-8.88,8.88v84.86c0,4.91,3.97,8.87,8.88,8.87h45.06c4.91,0,8.87-3.96,8.87-8.87v-84.86c0-4.91-3.97-8.88-8.87-8.88Zm5.9,93.74c0,3.23-2.63,5.85-5.9,5.85H31.8c-3.22,0-5.85-2.62-5.85-5.85v-84.86h0c0-3.22,2.63-5.85,5.85-5.85h45.06c3.27,0,5.9,2.63,5.9,5.85v84.86h0Z"/>
    </g>
    <path d="m28.37,282.42v10.01c0,1.88,1.54,3.42,3.42,3.42h45.07c1.93,0,3.47-1.54,3.47-3.42v-10.01H28.37"/>
    <path d="m50.63,270.43v-13.34c1.29-.05,2.52-.1,3.76-.2-.44-1.04-.9-2.08-1.44-3.07-.75.1-1.54.1-2.33.15v-2.77c-1.74.39-3.62.69-5.55.89v18.34c0,4.06-1.88,5.16-3.03,5.9h11.6c-1.09-.74-3.02-1.84-3.02-5.9m26.97,5.85c-.94-.9-2.14-2.28-2.73-5.01-1.1-5.01-3.38-12.19-8.18-17.55,4.71-2.58,7.59-6.64,7.59-11.65.05-3.57-1.79-7.34-5.06-9.57-1.39-.89-3.02-1.54-4.95-1.94.69,1.49,1.14,3.07,1.24,4.66,2.03,1.58,3.12,4.01,3.12,6.94,0,3.72-1.88,8.08-8.48,10.31.55,1.04,1.09,2.13,1.54,3.17.34-.1.69-.2,1.04-.3,3.07,3.57,5.55,9.17,6.29,14.38.55,3.77-.79,5.65-1.68,6.54h10.26" fill="#fff"/>
    <path d="m66.05,270.28c-.99-.89-2.18-2.28-2.73-5.01-1.09-5.01-3.27-12.05-7.64-17.05.2-.1.34-.15.55-.25,4.95-2.52,7.98-6.74,7.98-11.9.05-3.62-1.79-7.34-5.06-9.57-2.58-1.73-6.05-2.43-10.46-2.43h-16.7c1.14.74,3.03,1.84,3.03,5.9v34.41c0,4.12-1.88,5.16-3.03,5.9h11.6c-1.09-.74-3.03-1.78-3.03-5.9v-13.33c4.06,0,7.88-.5,11.1-1.34,2.93,3.52,5.11,8.97,5.8,13.98.5,3.76-.79,5.7-1.69,6.59h10.26Zm-25.48-22.31v-20.82h7.88c2.87.05,5,.64,6.69,1.84,2.22,1.58,3.42,4.11,3.42,7.14,0,5.1-3.52,11.6-17.99,11.85" fill="#fff"/>
    <path d="m50.63,244.99v-11.75h6.25c-.45-1.29-1.24-2.33-2.33-3.12h-12.49c1.14.74,3.03,1.79,3.03,5.9v10.36c2.08-.3,3.97-.74,5.55-1.39m11.35,44.17c0,1.68.99,2.97,2.73,2.97,1.24,0,2.38-.35,2.88-.94l-.3,1.94c-.44.19-1.24.44-2.52.44-2.77,0-4.71-1.64-4.71-4.41,0-1.49.6-2.63,1.49-3.37.79-.69,1.88-1.09,3.22-1.09s2.08.25,2.52.49v1.84c-.55-.6-1.34-.9-2.58-.9-1.73,0-2.73,1.29-2.73,3.03m-22.45,2.08c-.4-.8-.74-1.44-1.34-1.69,1.29-.25,1.93-1.04,1.98-2.14,0-1.14-.5-1.98-1.39-2.33-.55-.2-1.29-.2-2.38-.2h-4.31c.4.25.64,1.09.64,1.88v4.76c0,.69-.25,1.59-.64,1.88h3.07c-.39-.29-.64-1.19-.64-1.88v-1.54h1.29c.69,0,1.09.3,1.39.79.45.75.8,1.79,1.34,2.58l2.53.05c-.79-.59-1.14-1.34-1.54-2.17h0Zm-1.24-3.77c0,.85-.69,1.2-1.79,1.2h-1.98v-2.38h1.98c1.09,0,1.79.3,1.79,1.19m6.05,3.92c-.49-.44-.74-1.19-.74-2.23s.25-1.78.74-2.28c.44-.44,1.04-.69,1.84-.69.74,0,1.34.25,1.79.69.5.5.74,1.24.74,2.28s-.25,1.79-.74,2.23c-.45.45-1.04.74-1.79.74-.79,0-1.39-.3-1.84-.74Zm1.79,2.23c1.19,0,2.18-.34,2.93-.99.89-.74,1.54-1.88,1.54-3.46s-.65-2.73-1.54-3.52c-.74-.59-1.74-.94-2.93-.94s-2.13.35-2.88.94c-.89.8-1.54,1.94-1.54,3.52s.64,2.73,1.54,3.46c.74.64,1.73.99,2.88.99m11.1-8.72c.2.15.3.3.25.5,0,.2-.1.49-.3.79l-1.68,2.43-1.69-2.48c-.2-.3-.39-.6-.34-.84.05-.15.1-.3.3-.4h-3.42c.6.25.89.69,1.34,1.34l2.77,3.92v1.39c0,.69-.25,1.59-.64,1.83h3.07c-.4-.24-.64-1.14-.64-1.83v-1.39l2.53-3.57c.39-.5.94-1.39,1.54-1.69h-3.07m16.46,7.14h-2.18v-2.33h3.27l.2-1.29h-3.47v-2.13h1.93c1.09,0,1.98.05,2.43.5v-1.88h-6.79c.4.3.65,1.2.65,1.88v4.76c0,.74-.25,1.59-.65,1.88h6.84l.3-2.08c-.5.65-1.44.69-2.52.69m-4.33-79.36c.2.3.64.64.94.79.85.45,1.59.6,2.38.6,1.24,0,1.98-.54,1.98-1.34,0-.94-.94-1.09-2.38-1.29-1.84-.25-2.83-1.09-2.83-2.57.05-1.49,1.44-2.63,3.47-2.63,1.39,0,2.33.3,2.92.6v1.93c-.2-.35-.64-.6-1.09-.79-.6-.2-1.19-.3-1.83-.3-.99,0-1.59.4-1.59.89,0,.85.79.94,2.52,1.29,1.74.35,2.78,1.09,2.73,2.63-.05,1.78-1.44,2.98-3.92,2.98-1.09,0-2.48-.2-3.32-.64v-2.13m-29.5.39c-.44-.84-.79-1.49-1.43-1.78,1.39-.3,2.08-1.09,2.08-2.28s-.5-2.03-1.44-2.38c-.6-.25-1.34-.25-2.48-.25h-4.57c.45.3.69,1.19.69,1.98v5c0,.75-.25,1.69-.69,1.94h3.28c-.44-.25-.69-1.19-.69-1.94v-1.58h1.39c.69,0,1.09.25,1.39.8.5.79.84,1.88,1.44,2.73h2.63c-.8-.55-1.19-1.39-1.59-2.23h0Zm-1.29-3.97c0,.9-.74,1.24-1.88,1.24h-2.09v-2.53h2.09c1.14,0,1.88.34,1.88,1.29m6.35,4.11c-.55-.5-.79-1.29-.79-2.38s.25-1.84.79-2.38c.44-.44,1.09-.74,1.88-.74s1.44.3,1.88.74c.54.55.84,1.34.84,2.38s-.3,1.88-.84,2.38c-.45.44-1.09.74-1.88.74s-1.44-.3-1.88-.74Zm1.88,2.33c1.24,0,2.28-.35,3.07-1.04.94-.8,1.59-1.98,1.59-3.67s-.64-2.88-1.59-3.67c-.79-.64-1.83-.99-3.07-.99s-2.28.35-3.07.99c-.94.79-1.59,2.03-1.59,3.67s.65,2.87,1.59,3.67c.79.69,1.88,1.04,3.07,1.04m12.89-2.52c-.5.64-1.54.84-2.68.84h-1.73v-5.5c0-.74.25-1.69.64-1.98h-3.22c.44.3.69,1.24.69,1.98v5c0,.8-.25,1.64-.69,1.94h6.69l.3-2.28m8.08,0c-.5.64-1.54.89-2.68.84h-1.79v-5.5c0-.74.25-1.69.69-1.98h-3.22c.44.3.69,1.24.69,1.98v5c0,.8-.25,1.69-.69,1.98h6.65l.34-2.33" fill="#fff"/>
    <g>
      <path d="m199.7,276.43h8.62v-54.38h-9.07v54.38h.45m18.05,0h8.62v-54.38h-9.07v54.38h.45m144.35,16.56c5.6.94,10.61-1.34,13.93-4.46,4.66-4.41,7.63-10.16,12.6-23.6l9.52-25.38.2-.55h-9.12l-.1.25-8.58,25.18-9.12-25.18-.1-.25h-9.96l.2.55,14.23,35.64c-1.14,3.18-2.98,5.85-4.76,7.64-2.28,2.18-5.45,3.17-8.92,2.58v7.58"/>
      <path d="m342.76,238.05c-11.2,0-18.89,8.08-18.89,19.63s7.59,19.68,18.89,19.68,18.84-7.93,18.84-19.68-7.69-19.63-18.84-19.63Zm-.05,32.02c-5.65,0-9.86-4.92-9.86-12.44s4.21-12.44,9.86-12.44,9.91,4.91,9.91,12.44-4.21,12.44-9.91,12.44m-168.25-32.12c-11.5,0-18.89,7.94-18.89,19.63s7.38,19.68,18.89,19.68,18.84-7.94,18.84-19.68-7.34-19.63-18.84-19.63Zm-.05,32.02c-5.65,0-9.86-4.96-9.86-12.44s4.21-12.44,9.86-12.44,9.91,4.91,9.91,12.44-4.22,12.44-9.91,12.44m87-22.01h17.8v6.84h-17.8v-6.84h0Zm-111.98,12.84c1.88,5.95,2.88,11.9,3.57,15.46l-9.67.05c-.55-3.07-1.09-7.34-2.77-12.49-1.93-6.15-4.36-8.97-10.11-8.97h-4.41v21.42h-9.12v-52.1c1.93,0,4.21-.15,6.64-.15h7.34c7.38,0,12.25,1.54,15.62,4.46,2.82,2.43,4.36,6.1,4.36,10.31,0,6.89-4.01,10.85-8.48,12.6,3.27,1.54,5.35,4.21,7.04,9.42h0Zm-17.6-29.3h-3.02c-1.29,0-2.14.1-2.78.1v16.35h5.3c6.25,0,10.51-3.22,10.51-8.33s-3.47-8.08-10.01-8.13m186.34,29.3c1.88,5.95,2.87,11.9,3.57,15.46l-9.67.05c-.55-3.07-1.09-7.34-2.77-12.49-1.93-6.15-4.36-8.97-10.11-8.97h-4.41v21.42h-9.12v-52.09c1.93,0,4.21-.15,6.64-.15h7.34c7.38,0,12.24,1.54,15.62,4.46,2.83,2.43,4.36,6.1,4.36,10.31,0,6.89-4.01,10.85-8.48,12.6,3.28,1.54,5.35,4.21,7.04,9.42h0Zm-17.6-29.3h-3.02c-1.29,0-2.13.1-2.77.1v16.35h5.3c6.24,0,10.5-3.22,10.5-8.33s-3.47-8.08-10.02-8.13m-66.08,36.39c2.08,1.29,5.9,2.53,9.22,2.53,4.46,0,6.24-1.44,6.24-4.17s-1.44-3.97-6.19-5.7c-6.99-2.48-10.06-6.6-10.06-10.96,0-6.29,5.21-11.5,13.58-11.5,3.97,0,7.43,1.19,9.57,2.43l-1.79,6.05c-2.03-.94-4.41-1.79-7.78-1.74-3.47.05-4.86,1.64-4.86,3.87,0,2.58,2.63,4.07,6,5.21,6.69,2.23,10.26,6,10.26,11.65-.05,6.69-5.65,11.6-15.07,11.6-4.26,0-8.33-.89-10.9-2.82l1.78-6.44m192.99,7.14c-1.88.9-5.8,2.03-10.56,2.03-10.85-.1-18.93-7.53-18.93-19.04s7.28-19.88,20.38-19.88c3.71,0,7.18.99,9.22,1.93l-1.59,6.59c-1.58-.79-3.92-1.29-7.43-1.29-7.69,0-11.3,5.06-11.25,12.25,0,8.03,4.41,12.49,11.2,12.49,3.47,0,5.9-.79,7.73-1.58l1.24,6.49m10.76-15.27c.25,7.68,4.86,10.41,11.2,10.41,4.51,0,7.59-.75,10.26-1.79l1.34,6.25c-2.87,1.23-7.18,2.63-12.79,2.63-11.8,0-18.84-7.78-18.84-19.08,0-10.61,6.39-19.98,17.95-19.98s15.76,10.21,15.76,17.8c0,1.64,0,2.88-.2,3.72l-24.69.05h0Zm16.41-6.4c.05-3.72-1.04-8.72-7.83-8.72-6.24,0-8.08,4.61-8.53,8.72h16.36"/>
      <path d="m466.46,237.86c0-2.76,2.08-4.83,4.74-4.83s4.71,2.08,4.71,4.83-2.08,4.86-4.71,4.86-4.74-2.06-4.74-4.86Zm4.74,5.83c3.17,0,5.87-2.46,5.87-5.83s-2.71-5.8-5.87-5.8-5.9,2.46-5.9,5.8,2.71,5.83,5.9,5.83Zm-1.23-5.37h1.17l1.77,2.91h1.14l-1.91-2.95c.98-.12,1.74-.64,1.74-1.84,0-1.32-.78-1.91-2.37-1.91h-2.55v6.71h1.01v-2.91h0Zm0-.86v-2.08h1.39c.71,0,1.46.15,1.46.98,0,1.03-.77,1.09-1.63,1.09h-1.22Z"/>
    </g>
  </g>
</svg>