<?xml version="1.0" encoding="UTF-8"?>
<svg id="Layer_1" data-name="Layer 1" xmlns="http://www.w3.org/2000/svg" width="500" height="500" viewBox="0 0 500 500">
  <rect width="500" height="500" fill="none"/>
  <g>
    <path d="m139.3,111.7v-42.69c0-8.04,6.57-14.59,14.59-14.59h192.23c8.25,0,14.8,6.55,14.8,14.59v42.71h-221.61m0,10.37h221.59v255.87h-221.59V122.09Z"/>
    <g>
      <path d="m346.09,44.03h-192.21c-13.75,0-24.96,11.23-24.96,24.98h0v362.01c0,13.77,11.21,24.96,24.96,24.96h192.21c13.96,0,25.16-11.19,25.16-24.96V69.01c0-13.75-11.21-24.98-25.16-24.98Z" fill="none"/>
      <path d="m346.12,31.15h-192.21c-20.95,0-37.86,16.92-37.86,37.86v362.01c0,20.95,16.92,37.84,37.86,37.84h192.21c20.93,0,37.84-16.9,37.84-37.84V69.01c0-20.95-16.92-37.86-37.84-37.86Zm25.16,399.87c0,13.77-11.21,24.96-25.16,24.96h-192.21c-13.75,0-24.96-11.19-24.96-24.96V69.01h0c0-13.75,11.21-24.98,24.96-24.98h192.19c13.96,0,25.16,11.23,25.16,24.98v362.01h.02Z"/>
    </g>
    <path d="m139.3,388.3v42.71c0,8.04,6.57,14.61,14.59,14.61h192.23c8.25,0,14.8-6.57,14.8-14.61v-42.71h-221.61"/>
    <path d="m234.25,337.13v-56.9c5.5-.21,10.77-.42,16.06-.84-1.89-4.45-3.82-8.88-6.13-13.12-3.19.42-6.55.42-9.93.63v-11.84c-7.41,1.68-15.45,2.96-23.67,3.8v78.24c0,17.34-8.04,22-12.91,25.16h49.49c-4.64-3.17-12.89-7.83-12.89-25.16m115.04,24.96c-4.03-3.82-9.11-9.72-11.63-21.37-4.68-21.37-14.4-52.01-34.9-74.87,20.09-11,32.36-28.33,32.36-49.68.21-15.24-7.62-31.31-21.58-40.82-5.92-3.8-12.89-6.55-21.14-8.27,2.96,6.36,4.87,13.12,5.29,19.9,8.67,6.76,13.31,17.13,13.31,29.59,0,15.87-8.04,34.46-36.16,43.99,2.33,4.43,4.64,9.09,6.55,13.54,1.47-.42,2.96-.86,4.45-1.26,13.1,15.22,23.67,39.12,26.84,61.33,2.33,16.08-3.38,24.12-7.18,27.91h43.78" fill="#fff"/>
    <path d="m300,336.48c-4.24-3.8-9.3-9.72-11.63-21.37-4.66-21.37-13.96-51.4-32.57-72.75.84-.42,1.47-.63,2.33-1.07,21.14-10.77,34.04-28.75,34.04-50.75.21-15.45-7.62-31.29-21.58-40.82-11-7.39-25.79-10.37-44.62-10.37h-71.23c4.87,3.17,12.91,7.83,12.91,25.16v146.75c0,17.57-8.04,22-12.91,25.16h49.49c-4.66-3.17-12.91-7.6-12.91-25.16v-56.88c17.34,0,33.62-2.12,47.37-5.73,12.49,15.03,21.79,38.28,24.75,59.65,2.12,16.06-3.38,24.33-7.2,28.12h43.78l-.02.04Zm-108.7-95.14v-88.8h33.62c12.26.21,21.35,2.75,28.54,7.83,9.49,6.76,14.59,17.55,14.59,30.45,0,21.76-15.01,49.49-76.75,50.54" fill="#fff"/>
    <path d="m234.25,228.62v-50.12h26.66c-1.91-5.5-5.29-9.95-9.95-13.33h-53.29c4.87,3.17,12.91,7.62,12.91,25.16v44.2c8.88-1.28,16.92-3.17,23.67-5.94m48.42,188.41c0,7.18,4.24,12.68,11.63,12.68,5.29,0,10.14-1.49,12.28-4.01l-1.28,8.27c-1.89.82-5.29,1.89-10.77,1.89-11.84,0-20.09-6.99-20.09-18.83,0-6.34,2.54-11.21,6.34-14.38,3.38-2.94,8.04-4.66,13.75-4.66s8.88,1.07,10.77,2.1v7.85c-2.33-2.54-5.71-3.82-11-3.82-7.39,0-11.63,5.5-11.63,12.91m-95.79,8.88c-1.7-3.4-3.17-6.15-5.71-7.2,5.5-1.07,8.25-4.45,8.46-9.11,0-4.87-2.12-8.46-5.92-9.93-2.33-.86-5.5-.86-10.14-.86h-18.41c1.7,1.07,2.75,4.66,2.75,8.04v20.3c0,2.96-1.05,6.78-2.75,8.02h13.12c-1.68-1.24-2.75-5.06-2.75-8.02v-6.55h5.5c2.96,0,4.66,1.26,5.92,3.36,1.91,3.19,3.4,7.64,5.71,11l10.79.21c-3.38-2.52-4.85-5.71-6.55-9.28h-.02v.02Zm-5.29-16.08c0,3.61-2.96,5.1-7.62,5.1h-8.46v-10.16h8.46c4.64,0,7.62,1.28,7.62,5.06m25.79,16.73c-2.1-1.89-3.17-5.06-3.17-9.51s1.07-7.6,3.17-9.74c1.89-1.89,4.45-2.96,7.83-2.96,3.17,0,5.71,1.07,7.62,2.96,2.12,2.14,3.17,5.29,3.17,9.74s-1.05,7.62-3.17,9.51c-1.91,1.91-4.45,3.17-7.62,3.17-3.38,0-5.94-1.26-7.83-3.17Zm7.62,9.51c5.08,0,9.3-1.47,12.49-4.24,3.8-3.15,6.55-8.02,6.55-14.78s-2.77-11.63-6.55-15.03c-3.17-2.52-7.41-4.01-12.49-4.01s-9.09,1.49-12.28,4.01c-3.8,3.4-6.55,8.27-6.55,15.03s2.75,11.63,6.55,14.78c3.17,2.75,7.39,4.24,12.28,4.24m47.37-37.21c.86.63,1.28,1.26,1.07,2.14,0,.84-.44,2.1-1.28,3.38l-7.18,10.37-7.2-10.58c-.84-1.28-1.68-2.54-1.47-3.59.21-.63.42-1.26,1.28-1.7h-14.59c2.54,1.07,3.8,2.96,5.71,5.71l11.84,16.73v5.92c0,2.96-1.05,6.78-2.75,7.81h13.12c-1.7-1.03-2.75-4.85-2.75-7.81v-5.92l10.79-15.24c1.68-2.12,4.03-5.94,6.55-7.2h-13.1m70.23,30.45h-9.32v-9.93h13.96l.84-5.5h-14.8v-9.09h8.25c4.66,0,8.46.21,10.37,2.12v-8.04h-28.96c1.7,1.26,2.77,5.1,2.77,8.04v20.3c0,3.17-1.07,6.78-2.77,8.02h29.19l1.26-8.88c-2.12,2.77-6.13,2.96-10.77,2.96m-18.49-338.52c.84,1.26,2.75,2.75,4.01,3.38,3.61,1.91,6.78,2.54,10.16,2.54,5.29,0,8.46-2.31,8.46-5.71,0-4.01-4.03-4.64-10.16-5.5-7.83-1.05-12.07-4.64-12.07-10.98.21-6.36,6.13-11.21,14.82-11.21,5.92,0,9.93,1.26,12.47,2.54v8.25c-.84-1.49-2.75-2.54-4.64-3.38-2.54-.84-5.08-1.26-7.81-1.26-4.24,0-6.78,1.7-6.78,3.8,0,3.61,3.38,4.03,10.77,5.5,7.41,1.49,11.86,4.66,11.65,11.23-.21,7.6-6.15,12.7-16.71,12.7-4.66,0-10.58-.86-14.17-2.75v-9.09m-125.85,1.68c-1.89-3.59-3.38-6.34-6.11-7.6,5.92-1.28,8.88-4.64,8.88-9.72s-2.12-8.67-6.13-10.16c-2.54-1.05-5.71-1.05-10.58-1.05h-19.48c1.93,1.26,2.96,5.08,2.96,8.46v21.35c0,3.19-1.05,7.2-2.96,8.27h13.98c-1.89-1.05-2.96-5.08-2.96-8.27v-6.76h5.94c2.96,0,4.64,1.05,5.92,3.4,2.12,3.36,3.59,8.04,6.13,11.63h11.23c-3.4-2.33-5.08-5.92-6.78-9.53h-.04v-.02Zm-5.5-16.94c0,3.82-3.17,5.29-8.02,5.29h-8.9v-10.79h8.9c4.85,0,8.02,1.47,8.02,5.5m27.07,17.55c-2.33-2.12-3.38-5.5-3.38-10.14s1.05-7.83,3.38-10.16c1.89-1.89,4.64-3.17,8.04-3.17s6.13,1.28,8.04,3.17c2.31,2.33,3.59,5.71,3.59,10.16s-1.28,8.02-3.59,10.14c-1.91,1.89-4.66,3.17-8.04,3.17s-6.13-1.28-8.04-3.17Zm8.04,9.95c5.29,0,9.74-1.49,13.12-4.43,4.03-3.4,6.78-8.46,6.78-15.64s-2.75-12.28-6.78-15.64c-3.38-2.75-7.81-4.24-13.12-4.24s-9.74,1.49-13.12,4.24c-4.01,3.38-6.78,8.67-6.78,15.64s2.77,12.26,6.78,15.64c3.38,2.96,8.04,4.43,13.12,4.43m54.99-10.77c-2.12,2.73-6.57,3.59-11.44,3.59h-7.39v-23.46c0-3.17,1.05-7.2,2.75-8.46h-13.75c1.89,1.26,2.96,5.29,2.96,8.46v21.35c0,3.4-1.07,6.99-2.96,8.27h28.54l1.28-9.72m34.46,0c-2.14,2.73-6.57,3.8-11.44,3.59h-7.62v-23.46c0-3.17,1.05-7.2,2.96-8.46h-13.75c1.89,1.26,2.96,5.29,2.96,8.46v21.35c0,3.4-1.05,7.2-2.96,8.46h28.36l1.47-9.93" fill="#fff"/>
  </g>
</svg>