<?xml version="1.0" encoding="UTF-8"?>
<svg id="Layer_1" data-name="Layer 1" xmlns="http://www.w3.org/2000/svg" width="500" height="500" viewBox="0 0 500 500">
  <rect width="500" height="500" fill="none"/>
  <g>
    <path d="m249.99,25.9h-28.75l-32.22.45-45.67,1.34-20.46,1.4-7.06.89-7.06,2.13-6.56,2.8-6.22,3.59-5.77,4.43-5.1,5.27-4.54,5.72-3.47,6.33-2.8,6.72-1.9,7.12-.79,7.23v6.89l2.02,29.98,2.18,22.42,3.03,26.56,3.75,27.74,4.2,26.4,4.37,24.88,4.71,23.93,5.55,23.59,6.11,23.48,7.06,23.93,7.4,23.37,7.45,21.46,7.23,18.95,15.02,34.8,6.95,10.82,8.69,9.41,10.65,6.84,11.6,4.48,11.77,2.02,5.88.51,33.46.33h46.85l6.61-.33,7.23-.9,7.34-1.63,7.24-2.4,6.95-3.31,8.12-6.05,6.89-6.89,5.61-7.84,4.37-8.29,5.44-12.5,6.95-16.93,7.4-19.33,7.4-20.23,6.95-20.4,6.22-20.62,5.61-20.85,9.75-43.03,4.53-21.97,4.2-22.36,3.7-22.42,3.2-22.42,4.87-39.79,3.7-37.49.56-7.9-.56-8.29-1.74-8.12-3.02-7.96-3.93-7.12-4.87-6.78-5.88-5.88-6.78-5.1-7.28-4.03-7.96-2.64-7.96-1.68-9.19-.84-35.2-1.9-75.16-1.95h-8.85Zm0,441.64h-9.25l-33.17-.34-5.33-.5-10.87-1.85-10.42-4.03-9.36-6-7.68-8.35-6.39-9.92-8.18-18.71-6.5-15.41-7.23-18.72-7.34-21.3-7.4-23.26-7-23.76-6.05-23.25-5.49-23.43-4.71-23.7-4.31-24.77-4.2-26.28-3.7-27.63-3.03-26.45-2.13-22.25-1.34-18.04-.67-11.54v-6.39l.67-6.33,1.68-6.22,2.46-6,3.03-5.55,4.03-5.05,4.48-4.65,5.05-3.87,5.55-3.2,5.83-2.46,6.22-1.85,6.33-.84,20.06-1.34,19.45-.67,26.12-.67,32.11-.51h37.43l39.67,1.01,35.3,1.01,23.76,1.18,11.21.67,8.74.84,7.17,1.52,7,2.3,6.39,3.53,5.99,4.54,5.22,5.15,4.37,6.05,3.47,6.33,2.69,7.06,1.52,7.17.5,7.4-.5,7.34-1.68,16.59-2.02,20.74-2.97,24.94-1.85,14.74-3.2,22.25-3.7,22.25-4.15,22.25-4.53,21.91-5.05,22.08-4.65,20.74-5.55,20.56-6.16,20.46-6.89,20.23-7.34,20.12-7.4,19.22-6.84,16.76-5.38,12.22-3.98,7.68-5.05,7.01-6.16,6.22-7.24,5.38-5.99,2.81-6.56,2.18-6.67,1.51-6.72.84-6.16.34h-37.38,0Z" fill-rule="evenodd"/>
    <path d="m259.02,309.79c.55,2.19.39,4.09-1.96,2.69h0c-.11-.05-.22-.17-.39-.22,0,.62.17,1.01.39,1.46.12.24.24.48.34.73,2.97.73,3.53-3.7,1.62-4.65Z"/>
    <path d="m261.76,331.58c0,3.75,1.23,4.54,2.41,3.92h0c1.91-.95,3.81-5.37.95-6.83,0,1.62.45,3.42-.95,4.03-.4.12-.81.18-1.23.16l-1.18-1.29Z"/>
    <path d="m241.98,312.08c-.5.39-1.01.45-1.68.56-.79-1.18-.62-1.8-.28-3.2h-.28c-2.3,3.47,1.07,5.94,2.24,4.03.23-.39.34-.96.34-1.68-.1.11-.21.2-.34.28h0Z"/>
    <polygon points="134.66 83.06 135.33 81.66 135.61 80.2 135.73 78.69 135.73 77.35 135.33 75.72 134.83 74.26 133.99 72.92 132.92 71.69 131.58 70.62 130.23 69.84 128.89 69.39 128.78 69.39 127.27 69.11 125.25 69.11 123.34 69.39 121.83 69.67 121.83 88.99 123.06 88.99 125.36 88.83 127.26 88.43 128.77 87.93 129.28 87.77 131.19 86.7 132.64 85.47 133.88 84.24 134.66 83.06"/>
    <path d="m238.06,322.12h0c-.95-.56-1.29-2.13-.39-3.47-2.69,1.34-1.23,4.65.39,5.61,1.12.68,2.41.23,2.41-2.86-.95.95-1.8,1.07-2.41.73Z"/>
    <path d="m218.28,347.29c-2.8-.79-4.93-6.5-.56-10.88-7.34,0-5.49,14.41.56,15.3,1.07.16,2.24-.11,3.53-.9,2.3-2.75,2.3-5.38,1.01-8.57-.95,4.26-2.86,5.49-4.54,5.05Z"/>
    <path d="m280.71,351.93c2.69-.45,5.38-3.25,5.38-9.13,0-3.03-1.52-5.94-4.82-5.94,4.37,4.37,2.24,9.98-.56,10.82h0c-1.68.45-3.59-.79-4.53-5.04-2.47,6.27,1,9.86,4.53,9.3Z"/>
    <path d="m234.87,332.37h0c-.95-.45-1.18-2.3-.84-4.14-2.97,2.02-1.07,6.16.84,6.95,1.18.45,2.36-.4,2.36-3.87-1.01,1.01-1.8,1.29-2.36,1.07Z"/>
    <path d="m261.32,319.09c1.01,1.45.73,2.97-.33,3.36h0c-.62.22-1.46.11-2.41-.62,0,2.97,1.23,3.42,2.41,2.74,1.62-.95,3.08-4.14.33-5.49Z"/>
    <polygon points="172.88 94.49 173.55 96.96 174.51 99.37 176.13 102.45 177.59 104.52 178.43 105.42 178.82 105.98 179.21 106.54 179.88 107.21 181.23 108.28 182.74 109.23 184.48 110.01 186.1 110.46 186.89 110.57 186.89 110.58 188.01 110.69 189.64 110.69 190.98 110.58 192.61 110.02 194.46 109.07 195.97 108 197.15 106.77 198.27 105.31 199.33 103.41 200.12 101.67 200.79 99.65 201.23 97.64 201.51 95.34 201.63 93.16 201.63 91.14 201.35 89.01 200.79 86.71 200.28 84.41 199.22 81.84 197.99 79.54 196.64 77.36 195.02 75.51 193.11 73.71 191.2 72.37 189.35 71.42 186.89 70.75 184.87 70.52 182.74 70.75 180.95 71.19 179.33 72.09 177.75 73.32 176.52 74.55 175.46 75.9 174.51 77.8 173.55 79.82 172.88 81.84 172.49 84.13 172.21 86.71 172.21 89.23 172.49 91.81 172.88 94.49"/>
    <polygon points="368.4 81.67 368.8 80.21 368.96 78.98 368.96 77.8 368.68 76.29 368.29 75.05 367.73 73.99 366.94 72.64 365.71 71.41 364.36 70.51 362.85 69.84 362.06 69.68 361.39 69.56 359.48 69.4 357.58 69.4 355.95 69.68 355.17 69.84 355.17 89.23 356.62 89.23 358.14 89.12 359.59 88.84 360.99 88.45 362.06 87.99 362.07 88 362.35 87.88 364.09 86.93 365.72 85.75 366.95 84.41 367.85 83.06 368.4 81.67"/>
    <path d="m407.86,79.98l-2.52-7.34-3.65-6.72-5.04-5.83-6-4.87-6.72-3.47-7.34-2.36-7.74-.67-11.38-.67-18.55-.84-26.28-1.01-33.17-.67-38.05-.17-39.34.17-35.14.67-25.1,1.01-14.07.84-5.72.67-5.49,1.34-5.21,2.13-4.87,2.86-4.31,3.7-3.87,4.2-3.2,4.82-2.3,5.21-1.52,5.49-.67,5.55v5.66l.84,13.9,1.85,20.79,2.46,25.27,3.36,26.56,4.2,26.96,4.31,26.62,5.21,26.23,6,26.78,6.56,26.28,6.67,24.27,6.56,20.74,6.16,17.93,6.22,16.53,6.5,15.75,10.37,24.27,5.55,9.86,6.55,6.89,10.03,5.49,10.37,3.2,12.72.84,7.85.17,17.93.16h0s40.57,0,40.57,0l9.08-.33,6.84-.34,6.72-1.18,6.5-2.35,6.05-3.31,5.16-4.37,4.53-5.21,4.37-7.51,4.14-8.18,6.22-14.57,8.18-20.46,8.52-24.27,4.87-13.73,4.37-13.67,4.15-13.9,3.87-14.07,4.03-15.08,3.64-15.07,3.53-15.19,3.2-15.19,2.86-15.07,2.81-15.07,2.52-15.08,2.36-14.51,1.85-13.23,1.85-12.38,1.29-11.54,1.52-13.23,1.68-16.76,1.52-16.08.67-9.02.34-7.68-.84-7.57Zm-123.57-14.35h37.94l.28,9.98h-.79l-.45-.79-.79-.95-.95-.95-1.07-.67-1.23-.56-1.23-.28-1.34-.11h-15.91v15.13h16.76l.67-.28.67-.39.39-.39.39-.73.17-.11h.79v9.59h-.79l-.28-.56-.39-.39-.56-.39-.56-.39-.67-.17h-16.59v17.32h20.96l1.07-.17.95-.39.96-.79.9-.95.95-1.23.84-1.07.67.28-3.14,10.37h-36.42v-.79h0s.68-.56.68-.56l.56-.67.39-1.07.39-1.23.17-.95v-.79l.11-37.43-.11-.79-.17-.95-.28-.95-.67-.95-.68-.79-.67-.56-.79-.39-.67-.28h-.45v-.79Zm53.18,86.14l-29.14-3.2-6.96-.79-3.87-.45-5.83-.61-5.27-.62-5.71-.62-16.53-1.85-3.2-.34-3.93-.45-2.24-.23v-.9l2.24.28,3.93.51,3.2.34,16.53,2.02,5.71.73,5.27.62,5.83.73,3.87.45,6.96.84h0s29.14,3.53,29.14,3.53Zm-56.76-20.25l5.21-.28-3.2,4.37,3.69,2.3h0l.11.05h-.11c-1.96.67-3.87,1.12-5.71,1.34-5.66.79-10.7-.17-16.53-1.62-1.01-.23-2.07-.51-3.14-.79l-.05.05-3.93.28-4.03.28v-7.74c1.3-.47,2.66-.77,4.03-.89,1.31-.12,2.62-.1,3.93.05,1.07.11,2.12.33,3.2.61,2.8.62,5.61,1.62,8.52,2.41l8.02-.45Zm-61.94-65.88h17.42v.79l-.67.45-.45.67-.39.67-.11.67v.67l.11.95.39,1.07,11.77,27.12,11.82-27.51.29-.84.11-.95-.11-.79-.29-.67-.39-.67-.56-.56-.39-.28v-.79h14.18v.79l-.84.45-1.45.9-.84.56-.67.67-.67.84-.5.79-.45.79-19.11,44.83h-3.65l-19-44.83-.28-.51-.28-.56-.84-1.07-1.07-1.07-1.18-.84-1.4-.67-.51-.28v-.79Zm27.92,59.96v-1.18h5.49v1.18l-1.62,1.18v24.6h-2.41v-24.6l-1.46-1.18Zm-84.89-35.7l.28-2.69.56-2.8.95-2.86.95-2.41,1.34-2.3,1.46-2.18,1.74-2.02,1.8-1.74,2.02-1.62,2.3-1.52,2.97-1.46,2.58-.84,2.41-.51,2.41-.28h1.34s1.79,0,1.79,0l2.8.39,2.46.56,2.41.79,2.18,1.12,2.13,1.18,2.18,1.51,2.02,1.85,1.74,1.9,1.51,2.02,1.18,2.18,1.23,2.58.95,3.08.51,2.58.28,2.41v2.58l-.39,3.25-.56,2.8-.95,2.58-1.34,2.97-1.46,2.41-1.62,2.07-1.9,2.02-2.3,1.85-2.13,1.52-2.18,1.23-2.69,1.07-3.25.95-2.52.39h-2.58l-2.58-.11-2.58-.45-2.3-.51-2.69-1.12-2.69-1.34-2.02-1.46-1.62-1.34-.67-.84-.84-.67-1.34-1.62-1.18-1.74-1.23-2.18-1.07-2.24-.84-2.58-.51-2.97-.45-2.69v-2.75Zm28.98,57.89l6.89-.84,3.87-.45,5.83-.73,5.27-.62,5.66-.67,16.58-2.02,3.2-.39,3.92-.51,2.24-.28v.9l-2.24.23-3.92.45-3.2.34-16.58,1.85-5.66.62-5.27.62-5.83.61-3.87.45-6.89.79-29.2,3.25,29.2-3.59Zm-63.22-53.13l-.45-.56-.67-.95-.95-.95-1.18-.67-1.34-.51-.56-.17h-.56l-.11,24.6h-11.88v-.67l.67-.95.56-1.12.39-1.07.28-1.07.11-1.23v-38.05l-.11-.95-.28-.95-.39-.95-.56-.67-.67-.51-.95-.39-1.07-.45h-.39v-.79h21.36s4.81,0,4.81,0l1.9.28,1.85.51,1.79.84,1.74.95,1.51,1.18,1.07,1.23.95,1.46.79,1.62.39,1.79.28,1.85v1.9l-.28,1.62-.67,1.74-.79,1.62-1.07,1.51-1.4,1.18-1.46,1.23-1.74.95-2.02.67-1.9.67-.95.11,1.9,1.23.79.67.84.84.79.79,4.87,5.94,4.31,5.15,4.87,5.77,1.85,1.74,1.62.95,1.74.84.73.28v.67h-11.77l-1.23-.17-1.07-.39-1.07-.79-.95-.95-13.06-16.87-1.23-1.62Zm46.97,281.04c5.5-4,10.92-8.11,16.25-12.33,2.3-1.79,4.59-3.65,6.89-5.55,1.29-1.07,2.58-2.07,3.87-3.2,1.96-1.57,3.87-3.25,5.83-4.87h0c.23-.22.51-.44.79-.67l1.74,3.92c-.84.73-1.68,1.46-2.52,2.13-3.2,2.75-6.43,5.46-9.69,8.12-2.3,1.86-4.59,3.75-6.89,5.61-4.72,3.8-9.47,7.58-14.23,11.32l-2.02-4.48Zm16.25-18.15h-.01c-1.52,1.11-2.3,2.96-2.3,5.31l-2.46,1.46c-.45-4.21,1.18-9.53,4.77-11.1,1.4-.61,3.14-.67,5.16.23v3.2l-4.09,3.2c.28-2.02.67-2.69,2.64-3.36-1.57,0-2.8.39-3.7,1.07Zm10.76-13.52c1.4-1.01,3.3-1.34,5.83-.67h0s.05,0,.05,0l.73,3.81-.79.51-3.42,2.24c.84-1.74,1.23-2.3,3.03-3.2-2.64,0-4.59,1.23-5.43,3.25-.35.87-.52,1.81-.51,2.74l-2.8,1.57c-.28-3.92.62-8.29,3.31-10.25Zm-2.87-1.23l2.86-12.05h0s2.69-11.37,2.69-11.37h.84l-3.53,15.41-1.85,7.84-1.01.17Zm14.57-28.53h1.18l-1.79,9.47-1.57,8.74h-1.18l2.74-15.02h0s.62-3.19.62-3.19Zm1.57,44.27l-.84,4.03c-.39.95-.84,1.74-1.34,2.41-1.46,2.07-3.3,3.08-5.27,3.08-2.02-.05-4.15-1.18-5.83-3.59-.18-.24-.35-.48-.51-.73l.51-.39,1.96-1.62c1.51.9,2.8,1.34,3.87,1.34,2.58.11,3.7-2.46,3.7-6.33-1.23,1.23-1.57,1.79-3.36,1.79l-.34-.39-.11-.05.11-.05,3.7-3.31,1.57,1.62h0s2.18,2.19,2.18,2.19Zm-37.21,23.83c4.43-3.47,8.8-6.89,13.17-10.42,2.3-1.91,4.6-3.81,6.89-5.78h0c.17-.16.39-.33.56-.5l1.18,1.29c-.56.5-1.18,1.01-1.74,1.52-2.3,2.02-4.59,3.92-6.89,5.83-4.15,3.36-8.35,6.67-12.44,10.14l-.73-2.07Zm2.3,5.82l-.45-.73c3.79-3.24,7.56-6.49,11.32-9.75l6.89-6.05c1.18-1.07,2.36-2.07,3.47-3.08l.39.22h0l.5.34c-.05.91-.22,1.82-.5,2.69-.67,2.07-2.02,3.59-3.87,4.48-1.18.56-2.58.84-4.2.84-.9.79-1.8,1.52-2.69,2.24-3.59,3.03-7.23,5.89-10.87,8.8Zm10.86,27.3h0s-3.75-9.09-3.75-9.09c1.29.39,2.52.73,3.75,1.07,2.36.62,4.65,1.07,6.89,1.34,1.29.11,2.58.17,3.87.17,1.85,0,3.75-.17,5.83-.5.73-.17,1.46-.29,2.24-.51,1.07-.11,2.07-.23,3.03-.33,1.88-.17,3.78-.21,5.66-.11,6.72.34,11.76,2.69,16.58,8.13,1.07,1.18,2.13,2.46,3.2,3.98.05.11.11.23.23.29-.11,0-.17-.06-.23-.06-1.12-.5-2.13-1.01-3.2-1.4-5.71-2.41-10.87-3.7-16.58-3.31-1.79.11-3.64.39-5.66.9-.79.17-1.62.45-2.46.67-.95.45-1.9.84-2.8,1.12-1.88.63-3.85,1.01-5.83,1.12-1.3.02-2.59-.08-3.87-.28-2.21-.35-4.36-1.02-6.39-1.96l-.51-1.23Zm55.2-38.52v5.55c-1.34,1.46-2.64,2.81-3.98,4.09-1.29,1.29-2.64,2.52-3.92,3.7-1.07.96-2.13,1.86-3.2,2.75-4.3,3.54-8.82,6.84-13.5,9.86l-3.08-.79-2.13-.56c.73-.45,1.46-.84,2.13-1.29,5.77-3.53,11.43-7.34,16.58-11.71,1.07-.9,2.13-1.86,3.2-2.81,1.35-1.28,2.66-2.61,3.92-3.98h0c1.41-1.52,2.74-3.13,3.98-4.81Zm-11.1,18.83c1.07-.84,2.13-1.68,3.2-2.58,1.29-1.18,2.63-2.35,3.92-3.64h0c1.4-1.37,2.72-2.8,3.98-4.31v11.09c-1.29,1.15-2.61,2.26-3.98,3.31-1.29,1.01-2.64,1.96-3.92,2.92-1.07.67-2.13,1.4-3.2,2.07-1.29.84-2.64,1.63-4.03,2.46-2.64-1.68-3.87-2.46-7-3.2,3.98-2.86,7.62-5.38,11.04-8.12Zm0,11.88c1.12-.56,2.18-1.18,3.2-1.79,1.36-.88,2.66-1.84,3.92-2.86h0c1.34-1.01,2.64-2.19,3.98-3.48v5.21c-1.34,1.12-2.64,2.07-3.98,2.97-1.29.79-2.58,1.52-3.92,2.18-.84.39-1.68.79-2.58,1.12l-.62-.56-2.02-1.79c.73-.29,1.4-.62,2.02-1.01Zm3.2,5.05c1.46-.62,2.74-1.18,3.92-1.91,1.43-.9,2.76-1.96,3.98-3.14l.17,15.3c-1.29-1.94-2.67-3.81-4.15-5.61-1.29-1.45-2.58-2.92-3.92-4.37-.1-.04-.18-.12-.23-.23.05,0,.11-.05.23-.05Zm3.92-34.24c-.45.51-.95,1.07-1.51,1.68-.84.84-1.62,1.57-2.41,2.35-1.07.96-2.13,1.91-3.2,2.81-5.32,4.48-10.76,8.12-16.58,12-1.74,1.18-3.53,2.3-5.33,3.53-.11,0-.23,0-.34-.05-2.07-.39-3.64-.84-5.27-1.62-.9-.37-1.76-.82-2.58-1.34.9-.5,1.74-1.01,2.58-1.46,1.79-1.04,3.54-2.12,5.27-3.25,1.93-1.17,3.81-2.41,5.66-3.7,6-4.2,11.48-8.68,16.58-13.84,1.07-1.12,2.13-2.18,3.2-3.36,1.29-1.46,2.63-2.97,3.92-4.49h0c1.37-1.69,2.7-3.41,3.98-5.16,0,9.3.67,10.48-3.98,15.91Zm3.98-25.77c0,6.11-1.12,7.9-3.98,11.38-.73.84-1.51,1.74-2.41,2.86-.5.62-1.01,1.18-1.51,1.74-1.07,1.23-2.13,2.4-3.2,3.53-5.32,5.61-10.65,10.31-16.58,14.63-1.85,1.35-3.73,2.64-5.66,3.87-1.68,1.12-3.48,2.24-5.27,3.36-1.34.79-2.75,1.62-4.15,2.41l-1.68-1.57-.51-.45c.17-.11.34-.17.51-.28,1.96-1.12,3.91-2.29,5.83-3.48,1.79-1.09,3.54-2.23,5.27-3.42,1.94-1.3,3.83-2.69,5.66-4.15,6.06-4.62,11.62-9.86,16.58-15.64.84-.95,1.68-2.02,2.52-3.02l.67-.9,3.92-5.38h0s3.98-5.49,3.98-5.49Zm0-4.09c-1.27,1.96-2.59,3.89-3.98,5.77-1.29,1.79-2.64,3.53-3.92,5.21-1.07,1.29-2.13,2.58-3.2,3.81-5.1,5.94-10.53,11.21-16.58,16.08-1.84,1.48-3.73,2.9-5.66,4.26-1.72,1.26-3.48,2.47-5.27,3.64-1.9,1.23-3.87,2.41-5.83,3.59-.73.45-1.51.84-2.24,1.29l-1.62-2.07-1.74-2.3c.56-.34,1.18-.67,1.74-1.01,1.3-.8,2.59-1.62,3.87-2.46,1.98-1.31,3.93-2.67,5.83-4.09,1.8-1.35,3.55-2.75,5.27-4.2,1.94-1.62,3.83-3.3,5.66-5.05,6.13-5.68,11.68-11.95,16.58-18.71,1.12-1.52,2.18-3.08,3.2-4.65,1.38-2.16,2.69-4.37,3.92-6.62h0c1.5-2.76,2.82-5.61,3.98-8.53v16.03Zm55.42,83.04l-1.18,2.52c-.9-.04-1.8-.12-2.69-.23-1.96-.16-3.91-.48-5.83-.96-1.78-.39-3.53-.86-5.27-1.4-1.79-.56-3.7-1.12-5.71-1.79-6.67-1.57-11.6-.62-16.53.79-1.07.28-2.12.61-3.2.95-1.3.39-2.61.74-3.93,1.07-2.24.61-4.59,1.06-7.17,1.29-2.75-.33-5.38-1.06-7.9-1.85-1.34-.39-2.64-.84-3.92-1.23l-3.2-1.01c-2.02-.56-4.15-1.07-6.33-1.29-3.59,0-6.95.56-10.25,1.34-1.85.39-3.75.9-5.66,1.4-1.74.45-3.47.9-5.27,1.23-1.9.39-3.87.67-5.83.84-.51.05-1.01.11-1.51.11l-2.36-5.21-3.47-7.74c1.23.23,2.36.39,3.47.51,1.34.17,2.58.23,3.87.17,1.57,0,3.2-.11,4.99-.39.28-.11.56-.17.84-.29,1.74-.54,3.5-1.02,5.27-1.45,1.96-.45,3.87-.73,5.66-.9,5.71-.56,10.93.39,16.58,3.47,1.07.56,2.07,1.18,3.2,1.9.34.23.73.5,1.07.73,1.01.56,1.96,1.07,2.86,1.57,5.38,2.86,8.91,4.09,15.07,1.01.5-.23,1.01-.51,1.52-.84.84-.5,1.62-1.01,2.41-1.52,1.07-.73,2.12-1.34,3.2-1.96,5.43-3.02,10.65-4.87,16.53-4.48,1.85.11,3.75.45,5.71,1.01,1.07.33,2.18.73,3.31,1.18.67.17,1.29.34,1.96.51,1.96.5,3.93.9,5.83,1.06,1.29.12,2.51.12,3.86.06v.02c1.52-.06,3.14-.29,4.77-.62l-4.77,10.42Zm1.74-43.48l-1.74,2.35-1.62,2.18c-.79-.45-1.52-.9-2.24-1.29-1.97-1.17-3.92-2.38-5.83-3.64-1.79-1.12-3.53-2.36-5.27-3.59-1.95-1.39-3.86-2.85-5.71-4.37-6-4.82-11.43-10.14-16.53-16.08-1.07-1.23-2.12-2.58-3.2-3.87-1.35-1.68-2.66-3.4-3.93-5.15-1.34-1.85-2.69-3.7-4.03-5.66v-16.03c1.19,2.89,2.54,5.71,4.03,8.46,1.18,2.24,2.52,4.43,3.93,6.62,1.01,1.57,2.07,3.14,3.2,4.71,4.83,6.66,10.48,13,16.53,18.71,1.88,1.72,3.78,3.39,5.71,5.05,1.74,1.45,3.47,2.86,5.27,4.15,1.91,1.45,3.87,2.8,5.83,4.09,1.29.84,2.58,1.62,3.87,2.35h0c.56.35,1.12.68,1.74,1.02Zm-46.06-29.53c1.29,1.79,2.58,3.53,3.93,5.32,1.05,1.34,2.11,2.67,3.2,3.98.1.18.23.33.39.45,4.86,5.57,10.26,10.64,16.14,15.13,1.85,1.4,3.75,2.81,5.71,4.09,1.74,1.18,3.47,2.3,5.27,3.42,1.91,1.17,3.81,2.29,5.83,3.41h0c.17.11.34.17.5.29l-.5.5-1.68,1.68-3.93-2.3c-.05-.06-.17-.11-.23-.17-1.78-1-3.54-2.04-5.27-3.14-1.94-1.26-3.84-2.57-5.71-3.93-6-4.43-11.32-9.3-16.53-14.85l-3.2-3.53c-.51-.62-1.01-1.18-1.52-1.79-.95-1.07-1.74-1.96-2.41-2.74-2.97-3.47-4.03-5.33-4.03-11.49,1.34,1.91,2.69,3.81,4.03,5.66Zm-4.03,4.35c1.34,1.74,2.69,3.36,4.03,4.99,1.29,1.51,2.58,3.02,3.93,4.42,1.07,1.18,2.12,2.3,3.2,3.36,5.09,5.13,10.62,9.8,16.53,13.96,1.86,1.35,3.77,2.64,5.71,3.87,1.74,1.07,3.47,2.14,5.27,3.2h0c.84.45,1.68.96,2.52,1.4-.84.61-1.68,1.07-2.52,1.45-1.62.73-3.25,1.12-5.27,1.57-.05,0-.11.05-.16.05-1.91-1.23-3.75-2.4-5.55-3.59-5.88-3.81-11.21-7.5-16.53-12.05-1.07-.89-2.12-1.85-3.2-2.8-.79-.73-1.63-1.45-2.41-2.24-.51-.56-1.02-1.12-1.52-1.68-4.71-5.43-4.03-6.61-4.03-15.91Zm11.15,42.1h0s-3.2-2.19-3.2-2.19c-1.34-.9-2.64-1.91-3.93-2.92-1.34-1.07-2.69-2.18-4.03-3.36v-10.93c1.29,1.49,2.64,2.93,4.03,4.31,1.29,1.23,2.59,2.42,3.93,3.59,1.07.9,2.13,1.74,3.2,2.58,3.42,2.69,7.06,5.15,10.98,8.01-3.2.79-4.37,1.46-6.95,3.36-1.4-.83-2.74-1.62-4.03-2.46Zm1.96,4.03l-1.96,1.73h0l-.67.62-2.52-1.52-3.93-2.35-4.03-2.41v-5.21c1.3,1.2,2.65,2.36,4.03,3.47,1.26,1.01,2.57,1.94,3.93,2.81,1.04.68,2.1,1.32,3.2,1.9.62.34,1.29.62,1.96.96Zm-1.96-15.8c-1.07-.84-2.13-1.74-3.2-2.69-1.34-1.18-2.64-2.36-3.93-3.59-1.34-1.29-2.69-2.69-4.03-4.09v-5.55c1.29,1.62,2.63,3.19,4.03,4.71,1.27,1.35,2.58,2.66,3.93,3.92,1.04.98,2.1,1.94,3.2,2.86,5.15,4.37,10.76,8.24,16.53,11.77l2.18,1.34-2.18.56h0s-3.08.73-3.08.73c-4.76-3.3-9.19-6.5-13.45-9.97Zm-11.16,14.62c1.22,1.22,2.57,2.3,4.03,3.2,1.17.67,2.41,1.28,3.93,1.96.05.06.16.06.23.11-.06.05-.17.17-.23.23-1.37,1.44-2.68,2.93-3.93,4.48-1.45,1.78-2.83,3.6-4.14,5.49l.11-15.47Zm55.31,7.8l-.56,1.4c-2.3.9-4.43,1.52-6.39,1.86-1.28.2-2.57.3-3.87.28-1.98-.06-3.95-.42-5.83-1.07-.97-.3-1.93-.66-2.86-1.07-.79-.27-1.59-.5-2.41-.67-1.88-.47-3.79-.79-5.71-.95-5.66-.39-10.81.95-16.53,3.31-1.07.45-2.12.9-3.2,1.4-.06.05-.17.11-.23.11.05-.11.16-.17.23-.29,1.07-1.51,2.12-2.8,3.2-4.03,4.93-5.38,10.14-7.78,16.53-8.12,1.9-.11,3.82-.05,5.71.17,1.68.23,3.42.5,5.27.9l1.52.33c1.45.11,2.86.11,4.31.11,1.29-.04,2.58-.13,3.87-.28,2.35-.24,4.67-.67,6.96-1.29h0c1.29-.33,2.52-.73,3.81-1.17l-3.81,9.07Zm10.76-27.12c-3.59-2.92-7.17-5.77-10.76-8.74-.93-.75-1.85-1.51-2.75-2.3-1.45.02-2.89-.29-4.2-.9-1.9-.84-3.2-2.4-3.87-4.53-.29-.89-.46-1.81-.5-2.74l.5-.34.34-.23,3.53,3.2c2.3,2.07,4.59,4.14,6.95,6.22,3.74,3.24,7.53,6.41,11.37,9.53l-.61.84Zm-27.4-25.45c1.07-.11,2.36-.5,3.98-1.07l1.85,1.62h0s.5.45.5.45c-.16.29-.33.51-.5.73-1.85,2.64-3.92,3.7-5.83,3.64-2.02-.11-3.87-1.45-5.27-3.53-1.17-1.84-1.88-3.94-2.07-6.11l2.07-2.07,1.68-1.68,3.59,3.14.23.23c-.09.02-.16.05-.23.11-1.34.79-2.69-.29-3.59-1.46,0,4.87.9,6.28,3.59,6Zm29.02,21.69c-4.09-3.47-8.24-6.78-12.38-10.09h0c-2.36-1.95-4.65-3.85-6.96-5.87-.61-.51-1.17-1.02-1.79-1.52l1.18-1.29c.23.17.39.34.61.5,2.31,1.96,4.62,3.9,6.96,5.83,4.35,3.52,8.77,6.94,13.28,10.25l-.9,2.18Zm1.74-4.25c-4.73-3.72-9.44-7.48-14.12-11.26h0c-2.3-1.9-4.65-3.81-6.96-5.71-1.29-1.07-2.58-2.13-3.87-3.2-1.98-1.58-3.92-3.2-5.83-4.87-.84-.73-1.68-1.4-2.58-2.13l1.8-3.92c.23.23.51.45.79.67,1.9,1.62,3.86,3.24,5.83,4.87,1.29,1.06,2.58,2.12,3.87,3.14,2.3,1.9,4.62,3.77,6.96,5.61,5.35,4.17,10.75,8.28,16.19,12.33l-2.07,4.48Zm-33.35-47.87h-1.01l-1.68-8.63-1.79-9.41h1.18l.61,3.53h0l2.69,14.51Zm11.22,10.48l-.84-.29-1.96-8.24-3.59-14.91h.9l2.69,11.38h0s2.81,12.05,2.81,12.05Zm-2.81,1.24h0c2.69,1.96,3.59,6.33,3.25,10.25l-2.75-1.74c0-1.06-.16-1.96-.5-2.74-.9-2.02-2.8-3.08-5.49-3.08,1.57.51,2.58,1.68,3.08,3.2l-3.42-2.24-.79-.51.73-3.81h.05c2.46-.73,4.43-.33,5.83.67Zm15.47,20.29l-2.46-1.57c0-2.46-.73-4.09-2.18-5.15-.96-.67-2.18-1.07-3.75-1.29,1.9.67,2.35,1.62,2.58,3.53l-3.92-3.2v-3.25c2.02-.95,3.7-.95,5.1-.29h0c3.53,1.62,5.09,7.28,4.65,11.21Zm54.87-203.09h-3.2c-2.63,64.78-15.13,126.03-37.37,186.95v-.02c-5.49-8.46-11.88-15.8-18.94-21.91-2.24-1.96-4.6-3.81-6.96-5.49-1.29-.9-2.58-1.8-3.87-2.64-1.9-1.23-3.86-2.4-5.83-3.47-1.73-.95-3.47-1.85-5.27-2.69-1.85-.89-3.75-1.68-5.71-2.46-3.93-1.52-7.9-2.74-11.94-3.7,2.66,8.48,5.92,16.75,9.75,24.77l-1.74,1.01c-4.07-8.49-7.49-17.28-10.25-26.28-.79-.17-1.57-.28-2.36-.45-.33-.05-.73-.11-1.12-.17.39,1.29.73,2.58,1.12,3.93,2.8,9.51,6.29,18.79,10.42,27.79,2.24-2.3,4.31-3.42,6.11-3.75,2.41-.39,4.37.67,5.71,2.64,2.92,4.03,3.31,11.77,0,16.7-1.29,1.96-3.2,3.47-5.71,4.09-.12.05-.17.05-.28.11-7.24,0-8.29-7.23-8.29-12.94-4.49,7.06.45,15.86,8.57,15.57.5-.05.95-.11,1.45-.16.23,4.37,1.63,7.67,4.26,9.52,1.4,1.01,3.2,1.57,5.27,1.74.99.06,1.98.04,2.97-.05.79,2.86,1.74,4.82,2.86,6.28,1.07,1.46,2.36,2.41,3.87,3.25,1.68,1.01,3.7,1.85,5.94,3.08l-2.74,3.98c-1.12-.62-2.19-1.29-3.2-1.96-1.35-.83-2.64-1.68-3.87-2.52-2.02-1.34-3.92-2.74-5.83-4.15-1.78-1.39-3.53-2.81-5.27-4.26-1.96-1.68-3.86-3.42-5.71-5.21-6.24-6.04-11.78-12.74-16.53-20.01-1.07-1.68-2.19-3.36-3.2-5.09-1.38-2.32-2.68-4.67-3.93-7.06-1-1.9-1.9-3.81-2.86-5.77l-.33-26.78c-.73-.06-1.51-.06-2.3-.11v122.22h-3.7v-122.28c-.9,0-1.85.05-2.75.05l-.34,26.62c-.9,1.96-1.85,3.86-2.8,5.77-1.26,2.38-2.57,4.73-3.92,7.06-1.07,1.68-2.08,3.42-3.2,5.04-4.76,7.29-10.32,14.02-16.58,20.06-1.82,1.79-3.71,3.51-5.66,5.15-1.72,1.48-3.47,2.92-5.27,4.31-1.92,1.41-3.86,2.8-5.83,4.15-1.29.83-2.58,1.68-3.87,2.52-1.07.67-2.13,1.29-3.2,1.96l-2.75-3.98c2.24-1.23,4.21-2.07,5.94-3.08,1.46-.84,2.75-1.8,3.87-3.25,1.12-1.46,2.07-3.42,2.8-6.28,1.01.1,2.02.11,3.03.05,2.13-.17,3.87-.79,5.27-1.79,2.64-1.85,4.03-5.1,4.26-9.47.51.05.96.11,1.4.11,8.12.33,13.06-8.46,8.63-15.58,0,5.72-1.07,13-8.29,13-.11-.05-.23-.05-.34-.11-2.46-.62-4.31-2.13-5.66-4.03-3.3-4.93-2.97-12.83,0-16.87,1.4-1.9,3.3-2.91,5.66-2.52,1.85.28,3.87,1.46,6.16,3.7,4.15-9.02,7.63-18.33,10.42-27.85.38-1.26.74-2.53,1.07-3.81l-1.07.17-1.85.33c-2.78,9.08-6.22,17.94-10.31,26.51l-1.74-1.01c3.87-8.11,7.14-16.48,9.81-25.05-4.25.9-8.43,2.11-12.5,3.65-1.9.74-3.79,1.53-5.66,2.35-1.74.84-3.53,1.68-5.27,2.64-1.98,1.08-3.93,2.24-5.83,3.47-1.3.86-2.59,1.74-3.87,2.64-2.38,1.72-4.69,3.55-6.89,5.49-7.06,6.16-13.51,13.62-19.17,22.42-22.19-60.63-33.9-122.84-37.1-187.4l-3.2-.39-.45-6.28h237.61l-.62,7.28Zm24.04-46.12h-11.04l-1.34-.11-1.4-.28-1.18-.56-1.06-.79-1.12-1.23-12.67-16.31-1.91-2.46-.67-.67-.67-.67-.79-.5-.84-.56-.95-.28-.95-.11-.11,24.55h-12.16v-.79l.56-.56.39-.56.39-.67.28-.79.28-.84.28-.79v-39.55l-.16-.67-.11-.67-.39-.56-.45-.5-.39-.56-.5-.39-1.12-.67-.95-.39-.5-.17v-.79h21.47l-.03-.02h2.12l1.79.11,2.13.28,2.02.39,2.02.84,1.91.95,1.34,1.07,1.23,1.34,1.07,1.62.95,2.02.56,1.91.28,1.85-.17,1.62-.28,1.79-.67,1.62-.79,1.57-1.23,1.4-1.46,1.34-1.62,1.18-1.79.84-2.02.79-1.74.39-.79.28,1.34.67,1.18.84,1.12,1.07.9,1.07,12.33,14.85,1.07,1.23,1.23,1.07,1.35.95,1.34.95.96.56,1.07.39,1.06.28v.79Z"/>
    <path d="m174.06,333.5l10.65-11.94c-4.16-14.85-7.8-29.84-10.93-44.94h0c-7.9-37.94-12.38-75.82-13.84-115.66h-18.33c2.41,59.29,13.11,115.27,32.17,171.65.11.34.23.62.28.9Z"/>
    <path d="m325.23,333.5l-10.65-11.94c4.16-14.85,7.8-29.84,10.93-44.94h0c7.9-37.94,12.38-75.82,13.84-115.66h18.33c-2.41,59.29-13.11,115.27-32.17,171.65-.11.34-.23.62-.28.9Z"/>
    <path d="m205.39,306.89l14.51-5.83,3.36-1.34c-1.23-6.2-2.35-12.42-3.36-18.66-6.46-39.69-8.17-80-5.1-120.09h-23.71c-.28,34.41,1.23,67.19,5.88,100.31,2.15,15.32,4.95,30.54,8.41,45.62Z"/>
    <path d="m187.34,319.39l9.64-6.95,5.88-4.26c-2.14-9.51-4.09-19.06-5.88-28.64h0c-7.12-38.95-10.65-79.02-8.52-118.46h-25.61c1.9,35.81,4.87,68.48,10.93,101.49,3.5,19.17,8.03,38.13,13.56,56.82Z"/>
    <path d="m225.73,299.14c2.41-.39,4.82-.73,7.23-1.01.77-2.99,1.46-6,2.07-9.02,3.75-17.88,4.82-36.04,4.82-55.81l1.74.62.62.23c-.11,5.94-.34,11.72-.62,17.26-.84,16.36-2.63,31.38-6.5,46.51.89-.12,1.79-.17,2.69-.28,1.64-7.07,2.9-14.21,3.81-21.41,1.73-13.39,2.24-27.07,2.07-41.64l2.3.45-.73,62.15c.84,0,1.74-.06,2.64-.06v-62.82h3.7v62.82c.79,0,1.51,0,2.24.06l-.79-61.87,2.36-.45c-.23,15.36.39,29.76,2.35,43.82.82,6.35,1.96,12.65,3.42,18.88l3.03.34h.17c-.06-.17-.11-.4-.17-.56-3.98-15.8-5.72-31.55-6.44-48.81-.22-4.59-.39-9.36-.45-14.23l.45-.17,1.85-.73c0,19.39,1.07,37.27,4.6,54.75.69,3.36,1.45,6.71,2.3,10.03,2.24.29,4.46.66,6.67,1.12,2.59-13.48,4.7-27.05,6.33-40.68,3.81-32.33,4.82-64.95,2.41-97.56h-2.42s-62.31,0-62.31,0c-1.12,34.13-1.18,68.14,2.74,101.82,1.39,12.17,3.34,24.27,5.83,36.26Zm9.75-74.3c-.17-.11-.28-.23-.45-.34-.89-1.17-.67-4.03,0-7.28,1.01-4.65,2.86-10.03,3.25-11.71h.39c.67,3.75,1.4,6.33,2.92,9.53.23.39.39.79.62,1.23-.17.23-.39.45-.62.79h0c-1.62,2.4-4.59,7.28-6.11,7.79Zm15.07-17.49c.23,2.52.73,4.71,1.34,7.17-.79.95-1.12,1.4-1.62,2.58h-1.68c-.37-.93-.86-1.79-1.46-2.58.9-2.69,1.29-4.31,1.29-7.17h-6.22c1.23,2.02,2.13,2.69,4.37,3.36-.67,1.52-1.29,2.58-2.52,3.81-1.1-1.85-1.94-3.85-2.46-5.94-.28-1.22-.47-2.45-.56-3.7h17.1c0,1.62-.11,2.97-.39,4.2-.5,1.96-1.34,3.7-2.8,5.71-1.52-1.29-1.91-2.18-2.18-4.09,2.3-.73,3.08-1.46,4.53-3.36h-6.72Zm3.03,24.15h-6.83c-4.21-.84-.17-5.77,1.29-7.4h4.14c1.63,1.62,4.99,6.56,1.4,7.4Zm5.71-1.01c-.67-.62-1.12-1.46-1.57-2.41h0c-1.52-3.02-2.75-6.94-8.02-6.84h-.11c-3.75.17-7.12,5.49-7.73,9.41-.11-.05-.17-.11-.28-.17-2.75-1.51-2.18-6.16,0-9.3,1.85-2.58,4.82-4.09,8.02-1.85.05,0,.11.06.17.11,3.14-2.63,5.94-1.74,7.96.51,2.75,3.14,3.81,8.85,1.57,10.53Zm4.88-5.27h.01c-.34-.17-.73-.45-1.23-.95-1.29-2.64-2.97-5.61-5.22-7.51-.17-.17-.33-.28-.45-.39.13-.24.28-.46.45-.67,1.96-3.25,2.86-5.77,2.86-9.81h.73c1,4.1,1.95,8.21,2.86,12.33,1.07,5.1,1.29,7.51,0,7Zm0-28.35h0s-1.52,1.34-1.52,1.34l-2.18-2.8c1.24-1.34,2.52-2.69,3.7-4.09.67-.79,1.34-1.62,1.96-2.41l1.74,3.59c-1.08,1.58-2.32,3.05-3.7,4.37Zm-30.88-23.25c.32,2.45.9,4.85,1.74,7.18,1.18,3.14,2.92,6.05,5.44,8.52h4.31l1.79-1.12v1.12h1.85v-3.75h2.74v3.75h1.74v-.84l1.79.84h3.87c2.41-2.35,4.21-5.32,5.61-8.52,1.07-2.36,1.91-4.82,2.64-7.18.83,4.76,0,9.47-2.64,13.95-1.12,1.96-2.64,3.81-4.43,5.66h-3.25c.24,1.43.65,2.82,1.23,4.15.05.23.17.45.28.67h-5.09v-4.82h-1.74v7l6.56.67,3.31.34v.9h-22.75v-.9l3.3-.39,6.84-.79v-6.84h-1.85v4.82h-5.44c.17-.23.33-.51.45-.73.73-1.34,1.23-2.63,1.46-4.09h-3.75c-1.73-1.46-3.18-3.23-4.26-5.21-2.3-4.42-2.41-9.3-1.74-14.4Zm0,14.57c.56.82,1.14,1.62,1.74,2.41,1.08,1.41,2.26,2.74,3.53,3.98-.78,1.18-1.51,1.8-2.46,2.75-.39-.33-.73-.73-1.07-1.07-1.23-1.4-2.36-2.86-3.47-4.32l1.74-3.75Z"/>
    <path d="m279.48,279.31c-1.06,6.89-2.3,13.78-3.7,20.74l3.7,1.45,14.35,5.77c3.37-14.77,6.13-29.67,8.29-44.66h0c4.87-33.4,6.72-67.03,5.77-101.2h-23.53c2.3,40.01,1.23,78.79-4.87,117.91Z"/>
    <path d="m302.12,279.31c-1.75,9.82-3.75,19.59-6,29.31l6,4.31,9.59,6.89c5.59-17.85,10.11-36.02,13.56-54.41h0c6.34-33.85,8.97-67.36,10.88-103.89h-25.61c2.13,39.28-1.34,79.07-8.4,117.79Z"/>
  </g>
</svg>