<?xml version="1.0" encoding="UTF-8"?>
<svg id="Layer_1" data-name="Layer 1" xmlns="http://www.w3.org/2000/svg" width="500" height="500" viewBox="0 0 500 500">
  <rect width="500" height="500" fill="none"/>
  <g>
    <path d="m467.7,250.01c0,120.22-97.46,217.68-217.7,217.68S32.3,370.23,32.3,250.01,129.77,32.31,250,32.31s217.7,97.46,217.7,217.7h0Z" fill-rule="evenodd"/>
    <path d="m448.07,250.01c0,109.36-88.69,198.05-198.06,198.05S51.95,359.37,51.95,250.01,140.62,51.96,250.01,51.96s198.06,88.66,198.06,198.04h0Z" fill="none" stroke="#fff" stroke-miterlimit="33.89" stroke-width="10.58"/>
    <path d="m145.88,166.78c3.97,9.53,11.51,20.25,24.22,20.25,8.34,0,18.26-5.56,23.42-5.56,7.94,0,12.7,2.38,14.69,4.37-3.97-9.13-12.7-11.91-17.86-11.91-6.75,0-14.29,3.57-24.22,3.57s-16.27-6.75-20.25-10.72h0Z" fill="#fff" fill-rule="evenodd"/>
    <path d="m215.75,130.26c-3.17,2.38-5.95,7.15-6.75,11.51-6.35-3.57-12.31-5.56-17.47-5.56-10.72,0-23.42,8.34-24.61,35.33,10.72-5.16,17.47-6.75,22.23-6.75,3.97,0,6.75.79,8.73,3.17,4.76,6.35,9.92,7.54,13.5,8.34,2.38,1.19,6.35,2.38,10.32,4.76-8.73,11.51-17.47,14.29-24.22,14.29-7.14,0-11.91-2.78-17.07-6.75-.79,14.69,4.36,24.22,20.64,25.01-6.75,9.92-8.73,24.22-7.15,36.92,4.37-8.73,8.73-13.5,15.48-15.88-4.76,7.54-7.15,15.09-7.15,22.23,0,17.86,13.5,28.58,17.86,32.15,1.59-13.5,5.95-24.22,9.53-29.77,1.59,25.41-1.19,46.05-4.37,53.99,18.66-4.37,30.96-11.52,39.7-23.03,4.37-9.13,4.77-22.23,4.37-34.14,4.37,5.56,9.53,14.29,11.51,20.25,11.52-7.14,16.28-18.26,16.28-30.96,0-4.76-1.19-11.51-1.98-14.69,3.97,3.17,7.15,6.75,10.32,11.91l2.38-5.16c2.77-6.35,3.97-13.5,3.97-20.25,0-9.53-1.98-17.47-7.94-26.99,3.97.79,10.32,3.57,13.5,5.95,2.38-19.45-1.98-34.54-13.5-46.05,2.38-4.36,4.77-8.33,7.94-15.88-.8-.79-3.17-1.19-3.17-1.19-.8-.4-2.78-.79-6.35-.79-3.18,0-7.94.4-12.71,2.38-1.19-1.98-2.78-3.57-3.97-5.16l22.23-53.19c-9.53,0-19.05,3.97-19.05,11.91,0,2.38.79,5.16,3.17,7.94,0,.4-.4.4-.8.4h-.39c-1.59-1.98-3.97-3.18-6.35-3.18-5.16,0-9.13,4.37-9.13,9.13,0,5.16,3.97,9.13,9.13,9.13.39,0,1.19,0,1.59-.4-4.77,4.76-9.53,6.35-14.29,6.35-8.34,0-15.08-6.35-16.28-10.32,1.59,1.19,3.57,1.98,5.95,1.98,4.77,0,8.74-3.97,8.74-9.13,0-4.76-3.97-9.13-8.74-9.13-1.59,0-3.17.4-4.36,1.19,1.58-1.59,2.38-3.97,2.38-6.35,0-4.76-3.97-8.73-8.73-8.73-5.16,0-9.13,3.97-9.13,8.73,0,2.78,1.19,5.16,2.78,6.75-1.19-.79-3.18-1.59-4.76-1.59-5.16,0-9.13,4.37-9.13,9.13,0,5.16,3.97,9.13,9.13,9.13,1.98,0,3.97-.79,5.16-1.59-3.57,7.14-9.93,9.13-15.88,9.13-7.15,0-13.5-3.18-13.89-5.56.4.4,1.19.4,1.59.4,5.16,0,9.13-3.97,9.13-9.13,0-4.76-3.97-9.13-9.13-9.13-2.38,0-4.76,1.19-6.35,3.18h-.4c-.26,0-.4-.13-.4-.4,1.98-2.78,2.78-5.56,2.78-7.94,0-7.94-9.53-11.91-19.05-11.91l22.63,53.99h0Z" fill="#fff" fill-rule="evenodd"/>
    <path d="m228.85,150.11c1.19,0,2.78,0,3.97.4-1.59,7.15-6.75,8.34-10.32,8.34-4.37,0-9.13-1.98-9.13-8.73.79.4,1.98.4,2.78.4.79,1.99,2.38,4.37,6.35,4.37s5.96-2.78,6.36-4.77h0Z" fill-rule="evenodd"/>
    <path d="m208.21,148.52c-.79,5.56,1.59,15.48,14.69,15.48,4.76,0,12.31-2.38,14.69-12.7.79,0,1.59.4,2.38.79,1.19-1.19,1.98-2.38,2.78-4.37-4.36-2.78-11.51-3.17-15.88-3.17-2.78,0-5.16.4-7.54.4-1.98,0-4.37-.4-5.95-.79,1.19-4.76,3.17-9.13,5.56-9.13h64.31c.4.4,1.19,1.19,1.19,1.98-5.96,3.57-11.52,8.74-16.28,15.09.79,1.19,2.78,2.78,4.37,3.57,11.11-14.69,23.42-17.47,30.96-17.07-11.51,23.42-34.14,31.76-52.79,33.74,15.88,5.95,26.6,15.09,16.27,32.55-3.57-8.73-8.73-13.89-18.66-19.06,6.75,20.25,1.59,31.36-4.76,37.71-.4-4.37-1.98-13.89-4.76-20.64-2.78,3.97-5.96,7.54-9.13,9.93-.4,2.38,0,5.95.4,7.54,2.38-1.59,4.76-3.57,5.95-5.16,1.19,5.95,2.38,12.31,1.59,19.45,18.66-8.73,20.64-25.41,19.85-34.14,4.37,5.16,6.35,11.12,7.54,17.86,13.1-15.88,17.07-32.15,3.18-43.27,15.88-5.56,23.82-11.12,32.15-20.64,9.53,9.53,11.91,21.83,11.51,32.15-5.56-1.98-11.12-3.57-21.04-3.57,6.35,5.95,15.08,17.47,15.08,33.74,0,4.76-.8,9.13-1.98,13.5-5.56-5.96-11.91-9.13-19.06-11.91,3.18,7.54,6.35,16.28,6.35,26.99,0,9.13-2.77,16.28-7.94,21.44-3.97-8.34-11.51-18.66-20.64-24.22,1.59,16.67,1.19,36.92-2.78,44.46-7.15,9.13-15.88,13.89-25.8,17.47,1.98-10.32,3.57-36.52,0-60.34-5.56,5.16-14.29,15.88-17.86,32.95-3.17-3.57-7.94-9.53-7.94-20.25s5.56-20.64,15.09-30.96c-7.94.4-15.48,1.59-23.03,7.14,1.59-13.1,8.73-21.44,17.07-27.79-7.94,1.59-11.91,2.38-15.88,2.38-5.16,0-11.51-1.59-13.5-7.94,2.38.79,5.95,1.59,9.53,1.59,8.34,0,18.66-3.57,28.98-17.47,1.19-1.19,1.59-2.38,1.59-3.18,0-5.16-10.72-9.13-17.07-10.72-.79-.4-5.16-1.19-8.34-5.96-3.57-3.57-7.94-5.16-13.5-5.16-4.37,0-9.13,1.19-15.08,3.18,1.59-7.54,5.95-19.45,17.47-19.45,4.77,0,10.32,1.99,16.68,5.96h0Z" fill-rule="evenodd"/>
    <path d="m187.04,340.65h-23.42c0-6.35-3.97-7.14-9.53-7.14-5.16,0-8.33,1.59-8.33,5.16,0,3.97,2.78,5.16,11.11,5.16,21.04,0,30.17,3.97,31.76,13.5l13.5-33.35h29.77l14.69,35.73,14.69-35.73h29.77l16.28,39.7v-39.7h47.63c11.91,0,15.09,8.74,15.09,13.5s-1.98,11.11-11.11,12.3c10.32,1.19,12.7,9.13,12.7,13.9,0,5.56-3.97,14.68-14.68,14.68h-64.31l-3.58-8.73h-26.2l-3.58,8.73h-25.41l-3.57-8.73h-26.6l-3.18,8.73h-20.64l1.99-4.76c-3.17,2.77-8.73,5.95-26.99,5.95s-33.34-3.58-33.74-18.26h23.42c0,3.57,2.38,7.14,9.92,7.14,9.13,0,9.92-3.17,9.92-5.16,0-3.57-2.38-5.95-13.5-5.95-16.28,0-27.79-2.78-27.79-15.88,0-15.09,17.07-18.26,30.96-18.26,17.07,0,32.95,2.78,32.95,17.47h0Zm97.26,16.28l-8.34-19.85-7.94,19.85h16.28Zm-59.15,0l-7.94-19.85-8.34,19.85h16.28Zm122.26-15.88c0-2.38-1.59-3.97-3.57-3.97h-17.07v7.94h17.07c1.98,0,3.57-1.99,3.57-3.97h0Zm-2.38,23.02c1.98,0,3.57-1.59,3.57-3.97,0-1.97-1.58-3.56-3.55-3.57h-18.28v7.54h18.26,0Z" fill="#fff" fill-rule="evenodd"/>
    <path d="m280.87,129.48h-60.73l-2.63-6.35h65.99l-2.63,6.35h0Z" fill-rule="evenodd"/>
  </g>
</svg>