<?xml version="1.0" encoding="UTF-8"?>
<svg id="Layer_1" data-name="Layer 1" xmlns="http://www.w3.org/2000/svg" width="500" height="500" viewBox="0 0 500 500">
  <rect width="500" height="500" fill="none"/>
  <g id="g6938">
    <path id="path6936" d="m188.74,430.7c-18.14-.52-131.18-9.8-135.53-10.49-4.35-.68-4.67-2.62-4.67-9.02s-2.62-104.81-2.62-104.81c0,0-.68-4.61,4.56-3.93,11.48,1.57,192.89,18.61,209.83,18.77,16.83.26,12.22-5.24,11.85-6.13-3.83-4.14-8.97-6.87-14.58-7.71-9.23-2.25-60.51-15.68-95.27-23.49-34.66-7.81-115.45-26.16-115.45-26.16,0,0-2.1.16-2.25-2.78,0-8.55-.21-19.45-.21-19.45,0,0-.73-4.46,2.57-4.09,9.59,1.99,170.61,34.13,186.92,37.38,16.36,3.15,220.26,49.28,220.26,49.28,0,0,1.99.1,1.89,3.41,0,8.34-.89,40.06-1.89,44.51-.94,4.4,2.1,57.15-95.95,62.76-56.36,4.19-112.94,4.82-169.4,1.94M46.65,133.68c5.71-26.32,32.3-59.09,95.95-62.76,56.42-3.78,112.99-4.4,169.51-1.94,18.04.52,131.13,9.75,135.48,10.49s4.4,2.73,4.56,9.02c.31,6.34,2.57,72.51,2.78,76.02.37,2.15-1.05,4.14-3.2,4.51-.37.05-.79.05-1.21,0-13.21,0-174.38-13.47-208.52-12.9-8.49.16-8.97,4.72-7.13,7.39,1.21,1.31,2.83,2.1,4.56,2.36,0,0,212.03,34.66,215.39,36.02.52.31,1.78.47,1.78,4.35v31.46s1.26,4.93-7.18,2.46c-138.63-31.72-403.19-66.53-403.19-66.53-1.68-.21-2.1-.37-2.1-1.31-.05-12.9.73-25.85,2.52-38.64m409.69,133.44l-.1,28.31s.52,3.46-4.77,1.94c-13.58-3.88-269.39-61.29-405.39-81.06-1.47-.26-1.1-2.83-1.1-2.94v-20.81s-.26-2.57,1.47-2.31c52.54,8.02,184.56,29.47,217.01,35.18,32.51,5.14,178.53,32.66,190.8,35.29,2.46.47,2.1,6.45,2.1,6.45m14.47,108.37c1-4.82,1.84-39.11,1.94-48.08.21-9.07-.21-142.82-1.15-169.88-.16-3.72-2.57-75.29-2.88-82.21-.21-6.92-.21-9.02-4.93-9.75-4.72-.73-127.09-10.96-146.7-11.43-61.13-2.73-122.32-2.04-183.35,2.15-68.79,3.78-97.63,39.43-103.71,67.9-1.99,13.74-2.94,27.63-2.83,41.53.58,36.39,1.26,120.07,1.89,145.23,0,0,2.94,106.54,2.94,113.36s.21,9.02,4.98,9.91c4.72.73,127.09,10.8,146.6,11.33,61.08,3.04,122.32,2.31,183.3-2.2,106.07-5.92,102.82-63.13,103.92-67.9"/>
  </g>
</svg>