<?xml version="1.0" encoding="UTF-8"?>
<svg id="Layer_1" data-name="Layer 1" xmlns="http://www.w3.org/2000/svg" width="500" height="500" viewBox="0 0 500 500">
  <rect width="500" height="500" fill="none"/>
  <g>
    <path d="m394.59,282.47v.02c.67-3.21,1.21-26.17,1.29-32.18.13-6.07-.15-95.57-.79-113.67-.11-2.5-1.71-50.4-1.94-55-.13-4.64-.13-6.03-3.31-6.54s-85.04-7.28-98.17-7.6c-40.89-1.83-81.85-1.36-122.68,1.43-46.02,2.54-65.32,26.39-69.4,45.44-1.31,9.21-1.94,18.5-1.88,27.8.38,24.36.85,80.34,1.28,97.18,0,0,1.98,71.3,1.98,75.83s.15,6.03,3.33,6.62c3.16.49,85.03,7.24,98.09,7.57,40.88,2.04,81.84,1.55,122.66-1.47,70.97-3.98,68.81-42.23,69.54-45.43Zm-9.7-72.53l-.06,18.95s.35,2.31-3.2,1.3c-9.08-2.59-180.26-41.02-271.28-54.23-.98-.17-.73-1.88-.73-1.95v-13.93s-.19-1.71,1-1.56c35.17,5.37,123.5,19.72,145.2,23.53,21.75,3.44,119.45,21.86,127.66,23.59,1.66.3,1.4,4.32,1.4,4.32v-.02ZM110.74,120.67c3.83-17.62,21.63-39.53,64.2-42,37.75-2.53,75.61-2.96,113.41-1.3,12.07.35,87.75,6.54,90.66,7.02,2.91.47,2.95,1.82,3.06,6.03.22,4.25,1.73,48.52,1.84,50.87.25,1.43-.71,2.79-2.14,3.03-.26.04-.53.05-.79.01-8.86,0-116.7-9.02-139.54-8.63-5.7.11-6,3.16-4.76,4.96.81.86,1.89,1.41,3.06,1.56,0,0,141.87,23.2,144.13,24.1.35.22,1.2.3,1.2,2.92v21.05s.85,3.29-4.79,1.66c-92.81-21.25-269.82-44.56-269.82-44.56-1.13-.15-1.4-.26-1.4-.88-.05-8.64.51-17.28,1.67-25.85Zm95.08,198.74c-12.14-.35-87.77-6.54-90.7-7.02-2.93-.47-3.14-1.75-3.14-6.02s-1.77-70.12-1.77-70.12c0,0-.47-3.1,3.06-2.63,7.69,1.03,129.09,12.46,140.41,12.56,11.26.19,8.16-3.51,7.91-4.1-2.57-2.78-6-4.59-9.74-5.15-6.16-1.52-40.49-10.47-63.75-15.71-23.19-5.24-77.26-17.52-77.26-17.52,0,0-1.4.11-1.51-1.86,0-5.72-.13-13.01-.13-13.01,0,0-.51-2.99,1.73-2.74,6.43,1.33,114.16,22.84,125.07,25,10.96,2.11,147.38,32.98,147.38,32.98,0,0,1.32.07,1.28,2.29,0,5.58-.6,26.79-1.28,29.78-.64,2.93,1.4,38.24-64.2,41.98-37.72,2.81-75.59,3.24-113.36,1.29Z"/>
    <path d="m102.51,401.62h0c-1.92-.17-32.14-1.01-44.31-1.33-2.19,0-4.38-.15-6.56-.41-2.14-.35-5.19-.58-5.19-5.19.04-4.36,2.41-5.11,4.64-5.43,2.49-.23,5-.33,7.5-.3h59.33v-9.96H50.81c-8.31,0-25.89-1.26-25.66,17.07.1,14.76,12.94,13.78,20.27,14.21,4.66.35,30.1,1.01,41.6,1.3,2.13-.05,4.25.08,6.35.4,1.82.28,5.61.58,5.61,5.55-.02,4.89-2.93,5.53-6.02,5.85-2.02.24-4.06.34-6.09.3H25.34v9.87s74.35-.04,74.54.07c8.03-.73,19.78-.54,20.17-14.7.53-17.89-15.13-16.94-17.54-17.28Z"/>
    <polygon points="142.46 433.53 234.57 433.6 234.57 423.49 164.29 423.49 164.29 410.78 231.6 410.78 231.6 400.71 164.29 400.71 164.29 388.95 235.01 388.95 235.01 378.98 142.46 378.98 142.46 433.53"/>
    <path d="m258.47,399.82h.03l-.04,33.78h20.86v-21.67h54.96v21.67l20.94-.07.03-54.54h-72.08c-8.1.09-24.79.58-24.7,20.83Zm75.81-10.9v13.25h-55.02c-.11-13.18,6.75-13.25,11.84-13.25h43.17Z"/>
    <polygon points="377.04 378.97 377.04 389.5 414.9 389.5 414.9 433.53 436.76 433.53 436.76 389.41 474.85 389.41 474.85 378.97 377.04 378.97"/>
  </g>
</svg>