<?xml version="1.0" encoding="UTF-8"?>
<svg id="Layer_1" data-name="Layer 1" xmlns="http://www.w3.org/2000/svg" width="500" height="500" viewBox="0 0 500 500">
  <rect width="500" height="500" fill="none"/>
  <path d="m235.56,122.44c69.58-6.63,131.12,44.97,137.74,114.08,6.15,69.58-44.97,131.12-114.55,137.74-69.11,6.63-131.12-44.97-137.27-114.55-6.15-69.58,44.97-131.12,114.08-137.27h0Zm-5.21-79.05c112.66-10.41,213.01,72.9,223.89,185.55,10.41,112.66-72.9,213.48-185.55,223.89-113.13,10.89-213.95-72.9-224.37-185.55C33.92,154.62,117.23,54.27,230.36,43.39h0Zm-.47-9.94c119.28-10.89,225.31,77.16,236.67,196.44,11.36,119.28-77.16,225.31-196.44,236.67-119.28,10.89-225.79-77.63-236.67-196.44C22.08,150.84,110.6,44.33,229.88,33.45h0Zm67.69,289.22l-97.04-8.99c-8.52-1.89-16.09,0-23.67,6.63-3.79,2.37-17.04,1.89-18.93-3.79-3.79-14.2-5.68-20.83-15.62-28.87-2.84-3.31-2.37-6.15,1.42-7.1l28.87,2.84c5.21.47,8.99,1.89,11.83,3.79l15.62,8.99c1.42.95,7.1,1.42,7.1-4.26.47-16.09-6.15-34.08-18.93-48.28-3.79-4.26-9.47-8.05-15.62-11.36-4.73-2.37-9.47-3.79-14.67-4.73-9.94-.47-15.62-1.89-17.04-4.26-6.15-4.26.95-16.57,3.79-22.72,2.84-7.1,7.1-13.73,13.73-16.57,9.94,1.42,23.19,8.05,37.87,17.99,4.73.47,6.15-.95,3.31-5.21-10.41-9.47-35.03-17.51-34.55-23.19,4.26-9.94,17.99-17.99,27.93-24.14,7.1-4.73,15.62-8.05,21.3-7.1,6.15,2.37,17.04,15.62,33.13,36.92,2.84,4.26,8.05.47,5.68-4.26-3.31-4.73-7.1-10.41-8.52-12.31-8.99-11.83-16.57-19.41-16.57-22.72,1.42-6.63,17.99-7.57,39.76-3.79,39.76,29.35,53.96,94.2,27.93,157.62-.95,2.37-1.42,5.21-1.42,7.57s1.42,3.79,4.26,3.79c2.37,0,3.79-.47,4.73-2.84,0-2.84-.47-4.26.95-6.63,10.89-1.42,32.19,10.89,38.34,21.77-6.63,8.99-24.14,17.04-38.34,17.04-1.42,0-2.84-1.42-3.31-2.84v-3.31c0-3.31-.95-5.21-3.31-5.68h0Zm-30.29-65.8c9.47-.95,17.51,6.15,18.46,15.62.95,9.47-6.15,17.51-15.62,18.46s-17.51-6.15-18.46-15.62c-.47-9.47,6.63-17.51,15.62-18.46h0Zm148.63-78.1l-19.88,2.37,4.73,11.36,15.15-13.73h0Zm9.47-14.2l8.99,19.88-46.86,41.65-6.15-17.51,9.94-8.52-7.1-17.04-13.25.47-7.57-16.09,62.01-2.84h0Zm-74.32-65.32l-16.09,23.67c8.05,7.1,15.15,11.36,23.67-1.42,8.52-12.78,1.89-16.09-7.57-22.25h0Zm-7.1-19.41l16.57,10.41c18.93,11.83,23.67,25.56,11.83,42.6-11.83,17.04-25.09,14.2-43.07,1.42l-15.62-10.89,30.29-43.55h0Zm-112.66,4.73c-.47-18.93,13.25-29.82,30.77-28.87,17.51.95,32.19,4.73,33.13,26.51.47,21.3-12.31,28.87-31.24,28.87-19.88.47-32.19-7.57-32.66-26.51h0Zm19.41-2.84c-1.42,15.15,5.21,18.46,11.36,18.46s11.36-3.31,12.78-16.57c1.42-12.31-5.21-17.99-11.83-17.51-9.47.47-11.83,8.99-12.31,15.62h0Zm-111.71,8.52l14.67-8.99,12.31,20.35,2.84-27.93,17.99-7.1-4.26,28.4,28.4,17.99-17.51,7.1-25.09-15.15,12.78,21.3-15.15,9.47-26.98-45.44h0Zm-17.99,97.04c17.99-12.31,27.93-33.13,13.25-44.02-16.57-12.31-27.93,11.83-35.03,10.89-4.73-.47.47-11.83,10.41-20.35l-7.1-6.15c-21.3,16.57-25.56,37.87-9.47,44.97,12.78,5.68,26.51-16.57,29.35-15.62,10.89,4.26-8.05,21.3-10.41,23.19l8.99,7.1h0Zm182.71,227.21c-9.94-11.83-6.15-27.93,6.15-34.55,7.57-3.79,18.93-3.31,24.61,2.37,6.63,6.63,9.47,20.83.95,30.29-6.15,6.63-25.09,9.94-31.71,1.89h0Zm20.83-6.15c5.21-2.37,4.26-9.94,2.37-14.2-2.84-6.63-8.05-9.47-12.78-7.57-5.21,1.89-5.21,9.47-2.84,14.67,1.89,4.73,7.57,9.94,13.25,7.1h0Zm-67.22,24.14l-1.89-28.87h-9.94l-.47-9.47,32.19-1.42.47,9.47-9.47.47,1.89,28.87-12.78.95h0Zm-67.69-49.7l13.25,3.79-5.68,20.35c-.95,3.31-2.37,8.52,2.84,9.94,4.73.95,6.15-3.31,7.1-7.1l5.68-20.35,11.83,3.31-5.68,20.83c-2.84,10.89-11.83,14.2-21.3,11.83-10.89-2.84-16.09-10.41-12.78-21.3l4.73-21.3h0Zm-33.13-12.31l-12.78,8.52,7.1,5.68,5.68-14.2h0Zm-36.92,9.94l34.08-19.88,14.67,9.94-14.67,38.81-9.94-8.99,2.84-8.05-10.41-8.52-6.63,4.73-9.94-8.05h0Zm-43.07-233.83h7.57c1.42-3.31,3.31-7.1,5.68-9.47l-1.89-7.57c-2.37,2.37-4.26,4.73-5.21,7.1l1.89,3.31-4.26.47c-1.89,1.42-2.84,2.84-3.79,6.15h0Z" fill-rule="evenodd"/>
</svg>