<?xml version="1.0" encoding="UTF-8"?>
<svg id="Layer_1" data-name="Layer 1" xmlns="http://www.w3.org/2000/svg" width="500" height="500" viewBox="0 0 500 500">
  <rect width="500" height="500" fill="none"/>
  <g id="g3021">
    <path id="_91331920" data-name=" 91331920" d="m90.72,219.37c9.57,6.2,23.36,25.55,27.06,36.23-3.71,10.71-17.49,30.01-27.06,36.23v-72.46Z" fill-rule="evenodd"/>
    <path id="_93038808" data-name=" 93038808" d="m70.24,233.1c5,0,11.39,1.98,16.4,5.57v-21.81c-4.99-3.1-11.07-4.93-18.18-4.93-24.13,0-43.64,19.55-43.64,43.66s19.51,43.6,43.64,43.6c7.12,0,13.2-1.75,18.18-4.87v-21.87c-5.01,3.58-11.4,5.63-16.4,5.63-13.58,0-23.55-9.92-23.55-22.49s9.98-22.49,23.55-22.49h0Zm324.57,16.65v44.57h15.26v-43.7c0-6.12,5-11.03,11.02-11.03h7.05v-14.56l-7.81-.02c-13.79.14-24.96,10.98-25.52,24.74h0Zm67.55,29.96c-6.05,0-10.99-5-11-11.03v-29.16h16.87v-14.58h-16.87v-13.71h-15.34v58.28c.56,13.78,11.84,24.6,25.56,24.77l7.83-.02v-14.55h-7.05Zm-183.38-56.06c-7.59,0-14.79,3.47-19.53,9.27-4.71-5.8-11.99-9.27-19.59-9.27-13.31,0-24.34,10.4-25.06,23.7v46.97h15.36v-45.05c0-6.3,4.73-11.17,10.77-11.17,4.99,0,10.86,3.38,10.86,12.96v43.27h15.3v-43.31c0-8.89,5.59-12.91,10.79-12.91,6.44,0,10.83,4.56,10.83,11.17v45.06h15.3v-46.93c-.78-13.34-11.74-23.74-25.05-23.74h0Zm70.03.17c-19.81,0-35.35,15.67-35.35,35.77s14.99,36.18,35.63,36.18c8.02,0,15.2-2.97,19.74-7.97v6.51h15.29v-34.44c0-20.93-14.9-36.05-35.31-36.05h0Zm.21,57.25c-11.48,0-20.76-9.6-20.76-21.26s9.28-21.24,20.76-21.24,20.67,9.57,20.67,21.24c0,12.48-8.49,21.26-20.67,21.26Zm-170.08-28.21c-14.83-1.72-17.78-4.37-17.78-8.42,0-6.39,9.69-7.22,13.97-7.22,7.32,0,14.57,2.88,19.74,7.31l9.75-9.73c-3.9-3.22-13.23-11-31.77-11s-28.14,11.09-28.14,21.57c0,12.39,9.62,19.46,29.44,21.62,8.34.92,14.63,2.07,14.63,7.87,0,10.69-26.79,9.61-37.56-2.28l-10.62,10.69c1,1.14,13.48,12.63,32.19,12.63,22.33,0,32.46-10.94,32.46-21.17,0-12.84-8.34-19.79-26.31-21.87h0Zm291.46-41.3c-.38-.76-1.01-2.12-1.63-2.54.75-.2,1.57-1.04,1.57-2.2,0-.29-.17-2.3-2.52-2.3h-4.58v1.24h1.16v5.81h-1.16v1.25h3.78v-1.25h-1.27v-2.28h1.21c1.06.4,1.72,1.66,2.53,3.52h1.94v-1.25h-1.04Zm-4.65-5.81h2.01c1.08,0,1.2.73,1.2,1.1,0,.76-.67,1.21-1.68,1.21h-1.53v-2.3h0Zm1.39-4.94c-4.34,0-7.86,3.52-7.86,7.86s3.52,7.86,7.86,7.86,7.86-3.52,7.86-7.86-3.52-7.86-7.86-7.86Zm0,14.24c-3.52,0-6.38-2.85-6.38-6.37s2.86-6.38,6.38-6.38,6.38,2.86,6.38,6.38-2.85,6.37-6.38,6.37Z" fill-rule="evenodd"/>
  </g>
</svg>