<?xml version="1.0" encoding="UTF-8"?>
<svg id="Layer_1" data-name="Layer 1" xmlns="http://www.w3.org/2000/svg" width="500" height="500" viewBox="0 0 500 500">
  <rect width="500" height="500" fill="none"/>
  <g>
    <path id="_91331920" data-name=" 91331920" d="m342.88,76.89c45.78,29.65,111.72,122.19,129.41,173.26-17.73,51.21-83.64,143.53-129.41,173.26V76.89Z" fill-rule="evenodd"/>
    <path d="m244.95,142.58c23.93,0,54.46,9.48,78.42,26.63v-104.28c-23.85-14.85-52.93-23.56-86.96-23.56-115.41.04-208.71,93.49-208.71,208.78s93.3,208.49,208.71,208.49c34.03,0,63.1-8.39,86.96-23.31v-104.57c-23.96,17.14-54.49,26.92-78.42,26.92-64.93,0-112.64-47.42-112.64-107.57s47.75-107.57,112.64-107.57h0v.04Z" fill-rule="evenodd"/>
  </g>
</svg>