<?xml version="1.0" encoding="UTF-8"?>
<svg id="Layer_1" data-name="Layer 1" xmlns="http://www.w3.org/2000/svg" width="500" height="500" viewBox="0 0 500 500">
  <rect width="500" height="500" fill="none"/>
  <path d="m277.75,372.57c9.92-6.97,17.16-6.44,26.01-15.02,8.04-8.04-2.95-17.43-11.26-23.6-8.85-6.7-3.49-7.78,7.78-9.92,31.91-6.17,74.28-16.62,91.97-21.45,44.24-12.33,83.12-43.44,82.86-79.37-.27-24.4-17.43-45.32-35.66-60.06-18.23-14.75-37.54-23.33-43.71-25.21-12.87-3.75-6.17,4.83-6.17,4.83,0,0,11.53,4.02,35.66,21.99,17.7,13.14,34.59,33.52,34.86,55.51.54,56.85-76.96,74.01-76.96,74.01,0,0,70.52-20.92,69.99-74.01-.27-22.52-24.13-52.02-56.31-73.47-23.86-15.82-51.48-24.67-57.38-25.47-16.62-2.68-8.58,5.36-8.58,5.36,0,0,21.99,5.63,50.14,24.94,23.06,15.82,45.05,41.29,45.32,70.79.27,38.08-37.81,57.92-54.43,66.23-25.74,12.87-53.36,19.31-53.36,19.31,0,0,31.64-8.31,56.85-24.4,23.06-14.48,42.9-39.15,42.9-61.14-.27-40.76-43.17-72.93-78.83-91.7-19.04-9.92-36.2-15.55-43.44-17.16-8.31-1.88-20.38-2.41-6.17,6.44,10.46,6.44,25.21,16.09,37.81,27.62,22.52,20.92,42.63,49.87,42.9,76.42.27,33.79-22.52,60.33-48.27,70.79-23.33,9.65-46.39,12.07-53.63,13.68-10.73,2.15-10.19,10.99-8.31,13.14,5.36,6.7,19.57,11.53,19.57,23.06,0,19.57-26.55,21.99-29.5,21.99-3.22,0-29.5-2.15-29.5-21.99,0-11.53,13.94-16.36,19.57-23.06,1.61-2.15,2.41-10.99-8.58-13.14-7.24-1.34-30.3-4.02-53.36-13.68-25.74-10.46-48.8-37-48.27-70.79.27-26.55,20.38-55.51,42.9-76.42,12.33-11.53,27.08-20.92,37.81-27.62,14.21-8.85,2.15-8.31-6.17-6.44-7.51,1.61-24.67,7.51-43.44,17.16-35.66,18.5-78.57,50.95-78.83,91.7-.27,21.99,19.84,46.39,42.9,61.14,25.21,16.09,56.85,24.4,56.85,24.4,0,0-27.62-6.44-53.36-19.31-16.62-8.31-54.97-28.15-54.7-66.23.27-29.76,22.26-54.97,45.32-70.79,28.15-19.31,50.14-24.94,50.14-24.94,0,0,8.04-8.04-8.58-5.36-5.9,1.07-33.52,9.65-57.38,25.47-32.45,21.45-56.31,50.95-56.58,73.47-.54,53.09,69.72,74.01,69.72,74.01,0,0-77.76-17.16-76.96-74.01.27-21.99,17.16-42.1,34.86-55.51,24.13-17.97,35.66-21.99,35.66-21.99,0,0,6.7-8.58-6.17-4.83-6.17,1.88-25.47,10.19-43.71,25.21-18.23,14.75-35.39,35.66-35.66,60.06-.27,35.93,38.61,67.3,82.86,79.37,17.7,4.83,60.33,15.28,91.97,21.45,11.26,2.15,16.62,3.22,7.78,9.92-8.31,6.17-19.31,15.55-11.26,23.6,8.85,8.85,16.09,8.04,26.01,15.02s13.41,15.02,28.42,15.02c13.68,0,17.16-8.04,27.08-15.02"/>
</svg>