<?xml version="1.0" encoding="UTF-8"?>
<svg id="Layer_1" data-name="Layer 1" xmlns="http://www.w3.org/2000/svg" width="500" height="500" viewBox="0 0 500 500">
  <rect width="500" height="500" fill="none"/>
  <g id="Layer_2" data-name="Layer 2">
    <g>
      <path d="m91.49,283.36c2.7-1.9,4.67-1.75,7.08-4.09,2.19-2.19-.8-4.74-3.07-6.42-2.41-1.82-.95-2.12,2.12-2.7,8.68-1.68,20.22-4.52,25.03-5.84,12.04-3.36,22.62-11.82,22.55-21.6-.07-6.64-4.74-12.33-9.71-16.35s-10.22-6.35-11.9-6.86c-3.5-1.02-1.68,1.31-1.68,1.31,0,0,3.14,1.09,9.71,5.98,4.82,3.58,9.41,9.12,9.49,15.11.15,15.47-20.95,20.14-20.95,20.14,0,0,19.19-5.69,19.05-20.14-.07-6.13-6.57-14.16-15.33-20-6.5-4.31-14.01-6.71-15.62-6.93-4.52-.73-2.34,1.46-2.34,1.46,0,0,5.98,1.53,13.65,6.79,6.28,4.31,12.26,11.24,12.33,19.27.07,10.36-10.29,15.76-14.81,18.03-7.01,3.5-14.52,5.25-14.52,5.25,0,0,8.61-2.26,15.47-6.64,6.28-3.94,11.68-10.66,11.68-16.64-.07-11.09-11.75-19.85-21.46-24.96-5.18-2.7-9.85-4.23-11.82-4.67-2.26-.51-5.55-.66-1.68,1.75,2.85,1.75,6.86,4.38,10.29,7.52,6.13,5.69,11.6,13.57,11.68,20.8.07,9.2-6.13,16.42-13.14,19.27-6.35,2.63-12.63,3.28-14.6,3.72-2.92.58-2.77,2.99-2.26,3.58,1.46,1.82,5.33,3.14,5.33,6.28,0,5.33-7.22,5.98-8.03,5.98-.88,0-8.03-.58-8.03-5.98,0-3.14,3.79-4.45,5.33-6.28.44-.58.66-2.99-2.34-3.58-1.97-.36-8.25-1.09-14.52-3.72-7.01-2.85-13.28-10.07-13.14-19.27.07-7.22,5.55-15.11,11.68-20.8,3.36-3.14,7.37-5.69,10.29-7.52,3.87-2.41.58-2.26-1.68-1.75-2.04.44-6.71,2.04-11.82,4.67-9.71,5.04-21.38,13.87-21.46,24.96-.07,5.98,5.4,12.63,11.68,16.64,6.86,4.38,15.47,6.64,15.47,6.64,0,0-7.52-1.75-14.52-5.25-4.52-2.26-14.96-7.66-14.89-18.03.07-8.1,6.06-14.96,12.33-19.27,7.66-5.25,13.65-6.79,13.65-6.79,0,0,2.19-2.19-2.34-1.46-1.61.29-9.12,2.63-15.62,6.93-8.83,5.84-15.33,13.87-15.4,20-.15,14.45,18.97,20.14,18.97,20.14,0,0-21.16-4.67-20.95-20.14.07-5.98,4.67-11.46,9.49-15.11,6.57-4.89,9.71-5.98,9.71-5.98,0,0,1.82-2.34-1.68-1.31-1.68.51-6.93,2.77-11.9,6.86-4.96,4.01-9.63,9.71-9.71,16.35-.07,9.78,10.51,18.32,22.55,21.6,4.82,1.31,16.42,4.16,25.03,5.84,3.07.58,4.52.88,2.12,2.7-2.26,1.68-5.25,4.23-3.07,6.42,2.41,2.41,4.38,2.19,7.08,4.09s3.65,4.09,7.74,4.09c3.72,0,4.67-2.19,7.37-4.09"/>
      <path d="m201.1,256.43c0-6.79-3.72-10-11.75-13.36-5.84-2.41-10.22-4.16-10.22-8.32,0-1.39.36-5.69,8.47-5.69,6.71,0,11.53,2.85,11.53,2.85v-7.3s-5.77-2.12-12.19-2.12c-17.15,0-17.52,10.8-17.52,12.77,0,7.95,6.35,10.8,14.01,13.65,1.97.73,8.39,2.41,8.39,7.44,0,1.97-1.17,6.28-10.73,6.28-6.06,0-11.09-2.48-11.09-2.48v7.3s4.16,2.04,12.11,2.04c14.96.07,18.97-7.66,18.97-13.06"/>
      <path d="m227.52,257.96c0-4.01-1.97-6.86-8.47-9.71-4.67-2.04-9.05-3.87-9.05-7.01,0-1.17.58-4.38,6.42-4.38s9.34,2.63,9.34,2.63v-6.64s-3.5-1.97-10.58-1.97c-13.43,0-13.87,8.76-13.87,10.36,0,5.77,3.94,8.39,9.56,10.87,2.55,1.09,8.03,2.55,8.03,6.71,0,1.61-1.39,4.74-7.81,4.74-4.74,0-9.12-2.19-9.12-2.19v6.57s2.92,1.61,9.78,1.61c11.6-.22,15.76-6.13,15.76-11.6"/>
    </g>
    <polygon points="298.24 231.54 290.94 231.54 290.94 258.11 275.54 231.54 265.33 231.54 265.33 268.25 272.55 268.25 272.55 240.81 288.46 268.25 298.24 268.25 298.24 231.54"/>
    <path d="m245.11,238.7l5.98,15.54h-11.97l5.98-15.54h0Zm11.38,29.56h7.88l-3.21-8.25-2.19-5.69-8.76-22.77h-10.29l-8.76,22.77-2.19,5.69-3.21,8.25h7.88l3.14-8.1h16.42l3.28,8.1h0Z"/>
    <path d="m319.4,247.82v5.4h9.05v9.34s-1.46.95-5.4.95c-13.14,0-14.09-10.73-14.09-12.92,0-4.31,1.53-7.95,3.94-10.44,2.55-2.63,6.35-3.65,11.53-3.65,6.42,0,10.58,2.26,10.58,2.26v-6.06s-5.33-1.82-11.38-1.82c-7.15,0-13.14,1.97-17.22,5.62-3.65,3.28-5.77,9.12-5.77,13.94,0,4.52,2.12,18.97,22.11,18.97,7.52,0,13.57-2.7,13.57-2.7v-18.9h-16.93,0Z"/>
    <polygon points="439.16 231.54 431.94 231.54 431.94 258.11 416.54 231.54 406.32 231.54 406.32 268.25 413.55 268.25 413.55 240.81 429.46 268.25 439.16 268.25 439.16 231.54"/>
    <path d="m460.4,247.82v5.4h9.05v9.34s-1.46.95-5.4.95c-13.14,0-14.09-10.73-14.09-12.92,0-4.31,1.53-7.95,3.94-10.44,2.55-2.63,6.35-3.65,11.53-3.65,6.42,0,10.58,2.26,10.58,2.26v-6.06s-5.33-1.82-11.38-1.82c-7.15,0-13.14,1.97-17.22,5.62-3.65,3.28-5.77,9.12-5.77,13.94,0,4.52,2.12,18.97,22.11,18.97,7.52,0,13.57-2.7,13.57-2.7v-18.9s-16.93,0-16.93,0Z"/>
    <polygon points="358.45 251.98 373.77 223.44 365.6 223.44 354.14 244.68 341.81 223.44 333.42 223.44 350.13 252.12 340.71 269.64 348.96 269.64 354.43 259.42 358.45 251.98"/>
    <path d="m384.72,263.51c-.44,0-11.24.73-11.24-13.57s11.02-13.5,11.24-13.5,11.24-.44,11.24,13.5-10.8,13.57-11.24,13.57m11.82-29.12c-4.31-3.28-9.27-3.72-11.82-3.72s-7.59.44-11.9,3.72c-3.87,2.99-7.81,7.59-7.81,15.62,0,7.37,2.85,11.6,6.5,14.96,4.23,4.01,11.24,4.6,13.21,4.6s8.9-.58,13.21-4.6c3.58-3.36,6.5-7.59,6.5-14.96,0-8.03-3.94-12.63-7.88-15.62"/>
  </g>
</svg>