<?xml version="1.0" encoding="UTF-8"?>
<svg id="Layer_1" data-name="Layer 1" xmlns="http://www.w3.org/2000/svg" width="500" height="500" viewBox="0 0 500 500">
  <rect width="500" height="500" fill="none"/>
  <path d="m250.01,118.38c56.34,0,116.74,11.48,164.82,41.99,31.22,19.98,60.28,50.24,60.28,89.69,0,46.06-39.34,79.56-77.03,99.16-44.84,23.22-97.84,32.41-148.08,32.41-56.33,0-116.61-11.35-164.7-41.98-31.22-19.97-60.4-50.24-60.4-89.6,0-46.28,39.24-79.65,77.03-99.27,44.98-23.2,97.85-32.41,148.08-32.41h0Zm-.48,14c-52.38,0-108.84,9.8-154.3,37.19-28.59,17.1-56.82,44.03-56.82,79.78,0,42,38.27,71.39,72.48,88.27,42.35,20.68,91.86,28.72,138.64,28.72,52.49,0,108.96-9.83,154.42-37.21,28.47-17.22,56.82-44.01,56.82-79.77,0-42.09-38.16-71.53-72.48-88.26-42.36-20.72-91.87-28.72-138.76-28.72h0ZM51.81,220.28l86.24-14.71,25.95-56.34,25.85,56.34,86.23,14.71-86.23,14.84-25.85,56.46-25.95-56.46-86.24-14.84h0Zm189.58,42.93l38.03-6.68,11.36-25.48,11.36,25.48,38.05,6.68-38.05,6.58-11.36,25.49-11.36-25.49-38.03-6.58h0Zm78.71-67.93l38.03-6.58,11.36-25.58,11.36,25.58,38.03,6.58-38.03,6.69-11.36,25.49-11.38-25.49-38.02-6.69Zm-40.68,120.58l37.91-6.58,11.36-25.6,11.48,25.6,38.03,6.58-38.03,6.69-11.48,25.49-11.36-25.49-37.91-6.69Zm-116.85,9.21l38.03-6.58,11.48-25.62,11.35,25.62,38.05,6.58-38.05,6.69-11.35,25.49-11.48-25.49-38.03-6.69Zm191.26-62.9l37.91-6.71,11.36-25.48,11.48,25.48,38.03,6.71-38.03,6.58-11.5,25.45-11.36-25.47-37.9-6.56h0Z"/>
</svg>