<?xml version="1.0" encoding="UTF-8"?>
<svg id="Layer_1" data-name="Layer 1" xmlns="http://www.w3.org/2000/svg" width="500" height="500" viewBox="0 0 500 500">
  <rect width="500" height="500" fill="none"/>
  <g>
    <polygon points="290.36 262.45 319.36 234.71 319.36 233.45 319.36 224.62 259.46 224.62 259.46 237.23 288.78 237.23 259.46 264.98 259.46 267.5 259.46 275.06 319.36 275.06 319.36 262.45 290.36 262.45"/>
    <rect x="458.08" y="224.62" width="18.92" height="50.44"/>
    <polygon points="453.67 224.62 428.13 224.62 407.64 242.59 407.64 224.62 388.72 224.62 388.72 275.06 407.64 275.06 407.64 255.2 427.5 275.06 453.04 275.06 424.66 248.58 453.67 224.62"/>
    <path d="m363.5,224.62v30.58c0,4.41-1.26,9.77-11.35,9.77s-10.72-5.36-10.72-9.77v-30.58h-18.92v32.16c0,15.13,4.1,21.44,29.01,21.44s30.9-6.31,30.9-21.44v-32.16h-18.92Z"/>
    <path d="m237.39,224.62v30.58c0,4.41-1.26,9.77-11.35,9.77s-10.72-5.36-10.72-9.77v-30.58h-18.92v32.16c0,15.13,5.99,21.44,30.9,21.44s29.01-6.31,29.01-21.44v-32.16h-18.92Z"/>
    <path d="m153.84,259.3c.95,3.47,3.15,5.67,9.46,5.67,4.73,0,6.94-.95,6.94-2.52,0-4.1-2.84-4.1-22.07-6.62-18.92-2.52-18.29-14.5-18.29-16.39,0-16.08,22.7-16.08,30.58-16.08,14.19,0,29.64,4.41,29.64,16.71h-22.07c-.63-2.52-3.78-5.04-9.46-5.04-4.73,0-7.25.95-7.25,2.84,0,3.47,1.58,3.15,20.18,5.99,18.92,2.84,20.81,11.98,20.81,17.02,0,16.71-23.33,15.76-31.21,15.76-18.92,0-30.9-4.1-31.53-17.66h24.28s0,.32,0,.32Z"/>
    <path d="m109.7,236.29c-5.36,4.41-21.44,10.72-31.21,4.41l-22.7-15.76-3.78,2.21,57.7,40.04c-14.5,5.67-31.21,17.02-43.19,27.11l-42.88-30.58c6.31-4.73,21.12-10.4,30.9-4.1l23.02,16.08,3.15-2.21-57.7-40.36c12.3-4.41,34.68-18.29,43.19-27.43l43.51,30.58Z"/>
  </g>
</svg>