<?xml version="1.0" encoding="UTF-8"?>
<svg id="Layer_1" data-name="Layer 1" xmlns="http://www.w3.org/2000/svg" width="500" height="500" viewBox="0 0 500 500">
  <rect width="500" height="500" fill="none"/>
  <g id="g80">
    <path id="path86" d="m393.29,223.63l-1.7,14.01,29.12-.21-4.4,39.68,25.59-.13,3.85-39.76h30.07l1.17-13.58s-83.71,0-83.71,0Zm-47.66.12c-14.63.35-29.66.62-36.43,6.03-15.01,10.34-18.28,38.99-19.05,47.11h24.2l2.64-16.46,55.15.15,2.25-12.55-54.48.3c1.62-4.54,3.99-10.26,11.12-10.95.27-.17,48.23-.17,48.23-.17l2.29-13.58s-35.81.14-35.92.12m-98.13,53.36l25.81.21,9.2-53.69h-25.88l-9.13,53.48h0Zm-25.41-53.48l-15.6,26.52-7.32-23.77h-26.36l-10.99,23.4-10.61-26.15h-25.72l23.98,53.26h24.08l10.56-23.34,9.28,23.34h24.4l29.92-53.26h-25.63Zm-126.09,17.61c-.16-.32-20.05.3-30.13-.22-3.51-.18-5.82-1.11-5.82-2.61s1.37-3.32,6.04-3.11c4.67.21,53.89,0,53.89,0l-4.67-12.52s-47.1-.21-57.93,0c-38.4.85-31.19,33.95-7,34.17,24.19.21,35.01-1.28,38.4-.22,1.65.51,2.74,1.62,2.87,2.72,0,1.45-1.91,2.81-3.49,2.81.21-.21-63.45.64-63.45.64l-1.7,14.21s64.51,0,70.88-.21c25.68,0,47.11-37.77,2.12-35.65" fill-rule="evenodd"/>
  </g>
</svg>