<?xml version="1.0" encoding="UTF-8"?>
<svg id="Layer_1" data-name="Layer 1" xmlns="http://www.w3.org/2000/svg" width="500" height="500" viewBox="0 0 500 500">
  <rect width="500" height="500" fill="none"/>
  <g>
    <g>
      <polygon points="231.79 219.63 290.44 219.63 290.44 237.48 273.62 237.48 273.62 280.37 249.17 280.37 249.17 237.48 231.79 237.48 231.79 219.63"/>
      <polygon points="320.15 244.17 307.8 280.37 284.32 280.37 307.34 219.63 332.83 219.63 356.41 280.37 332.65 280.37 320.15 244.17"/>
      <polygon points="350.8 219.63 409.45 219.63 409.45 237.48 392.63 237.48 392.63 280.37 368.19 280.37 368.19 237.48 350.8 237.48 350.8 219.63"/>
      <polygon points="439.17 244.17 426.82 280.37 403.35 280.37 426.37 219.63 451.86 219.63 475.42 280.37 451.67 280.37 439.17 244.17"/>
    </g>
    <g>
      <path d="m202.22,229.96c-2.19-4.31-5.07-8.43-8.66-12.31-8.06-8.7-19.44-15.94-32.9-20.94-13.57-5.03-29.06-7.69-44.79-7.69s-31.22,2.66-44.78,7.69c-13.47,4.99-24.85,12.24-32.91,20.94-3.58,3.87-6.48,8.01-8.67,12.31,17.52-4.24,47.51-9.84,75.34-10.42,2.68-.06,4.53.8,5.75,2.34,1.48,1.88,1.37,8.58,1.33,11.57l-.79,77.45c1.57.05,3.15.09,4.72.09s3.17-.02,4.74-.08l-.79-77.45c-.04-3-.16-9.69,1.33-11.57,1.22-1.54,3.07-2.4,5.75-2.34,27.83.59,57.8,6.18,75.33,10.42" fill-rule="evenodd"/>
      <path d="m205.96,240.03c-25.65-5.8-42.78-6.87-59.68-7.81-14.74-.82-14.93,4.44-13.45,14.49.1.61.21,1.39.36,2.27,4.94,29.27,11.09,54.46,12.16,58.74,35.92-8.21,61.83-30.97,61.83-57.72,0-3.37-.41-6.7-1.19-9.97" fill-rule="evenodd"/>
      <path d="m98.93,246.71c1.47-10.06,1.28-15.31-13.45-14.49-16.91.94-34.04,2.01-59.71,7.82-.79,3.27-1.19,6.6-1.19,9.97,0,11.56,4.7,22.74,13.6,32.35,8.06,8.7,19.44,15.94,32.91,20.94,4.88,1.81,10.02,3.28,15.32,4.47.99-4.01,7.29-29.72,12.29-59.52.09-.57.18-1.1.24-1.54" fill-rule="evenodd"/>
    </g>
  </g>
</svg>