<?xml version="1.0" encoding="UTF-8"?>
<svg id="Layer_1" data-name="Layer 1" xmlns="http://www.w3.org/2000/svg" width="500" height="500" viewBox="0 0 500 500">
  <rect width="500" height="500" fill="none"/>
  <g>
    <path d="m460.7,201.08c-5.34-10.51-12.38-20.58-21.14-30.03-19.68-21.24-47.44-38.9-80.28-51.1-33.11-12.27-70.89-18.76-109.27-18.76s-76.17,6.49-109.26,18.78c-32.87,12.18-60.64,29.86-80.3,51.1-8.75,9.45-15.8,19.54-21.16,30.04,42.76-10.34,115.92-24,183.84-25.44,6.55-.14,11.06,1.96,14.03,5.72,3.62,4.58,3.35,20.93,3.25,28.24l-1.93,188.96c3.83.13,7.68.21,11.52.21s7.75-.06,11.56-.18l-1.93-188.98c-.1-7.31-.38-23.65,3.25-28.24,2.97-3.76,7.48-5.86,14.03-5.72,67.9,1.44,141.03,15.08,183.79,25.42" fill-rule="evenodd"/>
    <path d="m469.82,225.66c-62.59-14.16-104.38-16.76-145.62-19.06-35.96-2-36.42,10.85-32.83,35.37.24,1.49.52,3.38.87,5.54,12.06,71.42,27.07,132.88,29.66,143.31,87.65-20.04,150.85-75.58,150.85-140.82,0-8.21-1-16.35-2.9-24.34" fill-rule="evenodd"/>
    <path d="m208.66,241.97c3.59-24.54,3.13-37.37-32.82-35.37-41.25,2.28-83.07,4.9-145.68,19.07-1.92,7.99-2.92,16.11-2.92,24.32,0,28.2,11.48,55.49,33.18,78.95,19.68,21.24,47.44,38.9,80.3,51.1,11.9,4.41,24.45,8.01,37.38,10.9,2.42-9.77,17.79-72.52,29.99-145.22.23-1.39.44-2.68.58-3.75" fill-rule="evenodd"/>
  </g>
</svg>