<?xml version="1.0" encoding="UTF-8"?>
<svg id="Layer_1" data-name="Layer 1" xmlns="http://www.w3.org/2000/svg" width="500" height="500" viewBox="0 0 500 500">
  <rect width="500" height="500" fill="none"/>
  <g>
    <path id="path35" d="m250.09,471.79l62.36-350.47c59.38,0,78.17,6.5,80.81,33.03,0,0,39.88-14.93,59.9-44.97-78.53-36.36-157.23-37.95-157.23-37.95l-46.03,56.04h.18l-46.03-56.04s-78.88,1.58-157.23,37.95c20.03,30.22,59.9,44.97,59.9,44.97,2.81-26.53,21.43-33.03,80.46-33.2l62.89,350.64"/>
    <path id="path37" d="m250,55.27c63.42-.53,135.97,9.84,210.28,42.16,10.01-17.92,12.47-25.82,12.47-25.82-81.16-32.15-157.23-43.04-222.75-43.39-65.53.35-141.59,11.24-222.75,43.39,0,0,3.69,9.66,12.47,25.82,74.31-32.5,146.86-42.69,210.28-42.16h0"/>
  </g>
</svg>