<?xml version="1.0" encoding="UTF-8"?>
<svg id="Layer_1" data-name="Layer 1" xmlns="http://www.w3.org/2000/svg" width="500" height="500" viewBox="0 0 500 500">
  <rect width="500" height="500" fill="none"/>
  <g>
    <path d="m82.58,270.4l-23.49,10.21s-14.98-45.45-9.87-99.24l-24.85,1.19-1.36-20.43s41.59-15.07,73.88,1.7l-8.51,17.7-13.96.68s-4.26,42.22,8.17,88.18Z"/>
    <path d="m102.5,183.24l10.38-22.98,37.28.85s-6.47,47.32-.85,108.1l-17.19,10.55s-13.96-52.43-10.89-96.86l-18.73.34Z"/>
    <path d="m397.84,276.53v-96.01l-12.26-3.06,4.94-19.24h70.99s27.07,18.55,7.15,40.68c-9.59,10.65-16.51,17.02-16.51,17.02l24.85,50.9-13.62,8.51-34.9-60.43,27.24-24.34s5.79-8.34-2.21-11.24l-34.22,1.19-.34,85.63-21.11,10.38Z"/>
    <path d="m366.18,179.61l4.99-21.39s-50.44-2.02-59.92,0c-13.45,2.86-19.58,17.64-22.47,50.9-2.87,33.13-14.32,60.23,25.65,69.68,33.59,7.94,39.49-22.24,39.49-22.24,0,0-12.71,15.21-30.19,9.31-17.48-5.9-11.35-44.94-11.35-44.94l41.76-1.13,3.86-17.93-44.03-.91s-.35-19.89,8.85-22.02c6.33-1.46,43.35.68,43.35.68Z"/>
    <path d="m270.17,201.4l-53.79-.23s1.87-19.59,18.84-21.34c8.85-.91,38.59,0,38.59,0l4.77-21.62s-62.28-4.83-73.54,14.81c-8.85,15.43-9.53,27.24-9.53,27.24l-37.68,1.82-3.63,17.93,35.18,1.13s-8.89,45.6,24.97,55.38c19.44,5.62,29.51-8.85,29.51-8.85,0,0,13.78,17.23,7.26,47.21-4.54,20.88-38.36.68-38.36.68l1.59,24.29s32.28,13.69,53.34-8.17c11.95-12.41,7.19-44.43,4.77-74.22-2.37-29.07-2.27-56.06-2.27-56.06Zm-40.63,55.61c-16.11-3.86-15.89-35.41-15.89-35.41h44.03s-12.03,39.27-28.14,35.41Z"/>
  </g>
</svg>