<?xml version="1.0" encoding="UTF-8"?>
<svg id="Layer_1" data-name="Layer 1" xmlns="http://www.w3.org/2000/svg" width="500" height="500" viewBox="0 0 500 500">
  <rect width="500" height="500" fill="none"/>
  <path d="m250,103.42c-125.22,0-226.38,65.8-226.38,146.34s101.16,146.83,226.38,146.83,226.38-65.8,226.38-146.83-101.16-146.34-226.38-146.34Zm0,230.31c-18.66,0-33.88-36.83-34.87-82.99,11.29.98,23.08,1.47,34.87,1.47s23.57-.49,34.87-1.47c-.98,46.16-16.2,82.99-34.87,82.99Zm-32.41-119.33c4.91-32.41,17.68-55.98,32.41-55.98s27.5,23.08,32.41,55.98c-10.31.98-21.12,1.47-32.41,1.47s-22.1-.49-32.41-1.47Zm32.41-89.86c-24.55,0-45.18,36.34-52.54,87.41-46.16-7.37-78.08-23.57-78.08-42.72,0-25.54,58.44-46.65,130.62-46.65s131.11,20.62,131.11,46.65c0,19.15-32.41,35.36-78.08,42.72-7.86-51.07-28.48-87.41-53.03-87.41ZM56.03,244.35c0-25.04,9.82-48.12,26.03-68.26,0,1.47-.49,2.95-.49,4.42,0,31.43,47.14,57.94,112.45,67.77v6.87c0,58.44,16.2,107.54,38.79,124.73-98.7-6.38-176.78-64.33-176.78-135.53h0Zm211.16,135.04c22.59-16.7,38.79-66.29,38.79-124.73v-6.87c65.31-9.82,112.45-36.34,112.45-67.77,0-1.47,0-2.95-.49-4.42,16.7,20.13,26.03,43.21,26.03,68.26,0,71.69-77.59,129.64-176.78,135.53h0Z"/>
</svg>