<?xml version="1.0" encoding="UTF-8"?>
<svg id="Layer_1" data-name="Layer 1" xmlns="http://www.w3.org/2000/svg" width="500" height="500" viewBox="0 0 500 500">
  <rect width="500" height="500" fill="none"/>
  <g>
    <path d="m320.9,99.73c1.87,0,11.21-.41,11.21-8.45,0-2.45-1.05-6.56-8.03-6.56h-3.79v14.99h.28s.12.02.33.02Z"/>
    <path d="m161.69,84.73h-3.65v14.99h.27s.12.01.32.01c1.86,0,11.09-.41,11.09-8.44,0-2.45-1.04-6.56-8.03-6.56Z"/>
    <path d="m471.75,66.81c-2.45-6.32-7.43-10.79-14.86-13.32-3.93-1.31-8.37-1.89-14.37-1.89H57.49c-6.01,0-10.46.59-14.38,1.89-7.42,2.53-12.42,7-14.86,13.32-3.06,7.89-1.61,18.54,3.88,28.55l192.09,334.98c7.22,12.65,14.93,18.06,25.77,18.06s18.55-5.41,25.79-18.06L467.88,95.36c5.46-10.01,6.93-20.66,3.87-28.55Zm-162.55,14.81c0-1.41.41-3.81,3.05-3.81h14.31c13.76,0,15.24,8.59,15.24,12.28,0,6.72-3.18,11.53-9.4,14.27-4.86,2.14-10.04,2.3-11.49,2.3h-.63v12.87h-11.09v-37.91Zm-56.34,0c0-1.42.39-3.82,3.03-3.82h7.95l12.64,19.99,11.44-16.13c1.77-2.48,2.74-3.85,5.48-3.85h7.39v41.72h-9.69v-27.37l-12.94,18.38h-3.88l-12.32-18.48v27.47h-9.11v-37.9Zm-45.54,0c0-1.41.4-3.81,3.04-3.81h8.06v26.29c0,7.52,4.06,9.1,7.47,9.1s7.46-1.58,7.46-9.1v-22.48c0-1.41.4-3.81,3.04-3.81h8.05v27.14c0,7.33-3.22,16.09-18.55,16.09s-18.57-8.76-18.57-16.09v-23.33Zm-19.48,0c0-1.42.4-3.81,3.03-3.81h8.05v41.72h-11.08v-37.91Zm-83.71,0c0-1.73.51-3.81,2.98-3.81h34.68v6.09c0,1.42-.39,3.82-3.03,3.82h-10.26v31.81h-11.16v-31.81h-13.21v-6.1Zm92.21,268.33l-22.89-39.91v-109.92l-47.89,26.38-8.61-15,56.49-29.55h-73.44l-13.11-22.86h109.45v190.85Zm54.57-204.82c-49.31,0-77.07-20.88-91.67-38.37l-.1-.1h-.13c-.42.01-.65,0-.66,0h-.29s0,12.86,0,12.86h-11.22v-37.89c0-1.41.41-3.82,3.04-3.82h14.31c13.76,0,15.25,8.6,15.25,12.28,0,6.83-3.28,11.68-9.7,14.4l-.32.14.18.29c7.61,11.63,19.33,20.53,34.85,26.53,13.32,5.14,29,7.86,45.34,7.85h1.12c35.47-.25,64.1-10.42,92.81-32.97l.35-.28c1.41-1.1,3.01-2.37,4.72-3.66l.12-.07v-20.67c0-1.42.37-3.82,3.03-3.82h8.05v17.1l.41-.24c5.54-3.07,10.71-5.04,15.82-6.03l.22-.04v-6.97c0-1.42.41-3.82,3.05-3.82h8.06v41.71h-11.11v-23.09l-.32.04c-5,.76-10.07,2.9-15.99,6.73l-.14.08v16.24h-11.08v-8.17l-.46.34c-30.55,23.12-60.64,33.43-97.54,33.43Zm149.1,36.83h-73.43l56.49,29.55-8.62,15-47.88-26.38v109.92l-22.9,39.91v-190.85h109.45l-13.11,22.86Z"/>
  </g>
</svg>