<?xml version="1.0" encoding="UTF-8"?>
<svg id="Layer_1" data-name="Layer 1" xmlns="http://www.w3.org/2000/svg" width="500" height="500" viewBox="0 0 500 500">
  <rect width="500" height="500" fill="none"/>
  <path d="m34.51,184.52h195.82l.84,6.69H32.2l2.31-6.69h0Zm250.84,0h172.81c2.31,2.09,4.4,4.4,6.27,6.69h-182.85l3.77-6.69h0Zm-56.91-13.81l.84,6.69H37.02l2.3-6.69h189.12Zm3.56,27.62l.84,6.91H27.6l2.31-6.91h202.1,0Zm1.68,13.81l.84,6.9H82.83v-.21H23l2.09-6.69h208.58,0Zm1.88,13.81l.84,6.91h-63.81l-.84-6.91h63.81Zm1.68,13.8l.83,6.91h-63.6l-1.05-6.91h63.82Zm1.68,13.6l1.05,6.91h-63.81l-.84-6.91h63.6Zm5.23,6.91l3.77-6.91h67.15l-3.56,6.91h-67.37,0Zm7.32-13.6l3.77-6.91h66.73l-3.34,6.91h-67.15Zm7.53-13.8l3.77-6.91h66.11l-3.34,6.91h-66.53Zm7.53-13.81l3.77-6.9h204.61c.84,2.31,1.25,4.6,1.47,6.9h-209.84,0Zm7.53-13.8l3.77-6.91h191.21c1.47,2.31,2.51,4.6,3.56,6.91h-198.55,0Zm15.27-27.83l3.56-6.69h131.39c9.2,0,17.58,2.51,24.69,6.69h-159.63Zm187.66,48.54c0,2.31-.41,4.4-.84,6.91h-72.39c3.34-1.05,3.34-5.65.41-6.91h72.81Zm-2.72,13.8c-.84,2.31-1.68,4.6-2.93,6.91h-131.59l3.34-6.91h131.18Zm-6.69,13.6c-1.47,2.51-3.14,4.82-5.03,6.91h-129.71l3.34-6.91h131.39Zm-11.93,14.02c-4.4,3.77-9.42,6.28-14.23,6.69h-100.21l-4.4-6.69h118.83Zm-32.43,13.81c-.63,2.1-.63,4.4.21,6.69h-73.43l-4.18-6.69h77.41Zm4.4,13.8l4.18,6.69h-73.01l-4.19-6.69h73.02Zm8.79,13.81l4.18,6.69h-72.8l-4.4-6.69h73.02Zm8.79,13.8l4.18,6.69h-73.02l-4.18-6.69h73.02Zm-137.03-55.23l-3.56,6.69h-126.8l-.84-6.69h131.19Zm-6.91,13.81l-3.56,6.69h-118l-.84-6.69h122.4Zm-6.9,13.8l-3.56,6.69h-109.44l-.84-6.69h113.83Zm-7.11,13.81l-3.34,6.69h-100.84l-.84-6.69h105.02Zm-6.9,13.8l-3.14,6.69h-92.26l-.84-6.69h96.24Zm-132.24-96.65l-2.31,6.91h-67.77l2.31-6.91h67.78,0Zm-4.6,13.8l-2.3,6.91h-67.78l2.31-6.91h67.78,0Zm-4.81,13.6l-2.31,6.91h-67.77l2.31-6.91h67.78,0Zm-4.6,14.02l-2.31,6.69h-67.77l2.31-6.69h67.78,0Zm-4.81,13.81l-2.31,6.69H59.4l2.31-6.69h67.58,0Zm-4.6,13.8l-2.3,6.69H54.59l2.31-6.69h67.78,0Zm-4.6,13.81l-2.31,6.69H49.99l2.31-6.69h67.77,0Zm-4.81,13.8l-2.31,6.69H45.38l2.09-6.69h67.78,0Z"/>
</svg>