<?xml version="1.0" encoding="UTF-8"?>
<svg id="Layer_1" data-name="Layer 1" xmlns="http://www.w3.org/2000/svg" width="500" height="500" viewBox="0 0 500 500">
  <rect width="500" height="500" fill="none"/>
  <g>
    <path d="m250,27.19c-121.4,0-220.43,99.98-220.43,222.81s99.03,222.81,220.43,222.81,220.43-99.5,220.43-222.81S371.88,27.19,250,27.19Zm184.25,258.99c-11.9,7.14-20.47-4.28-17.62-14.28,1.9-5.24.95-9.05-1.43-11.43-3.81-3.81-8.57-.95-8.57-.95,0,0-.95,1.9-1.43,2.86,5.71-.95,10.47,9.52-.48,18.57.48-9.05-14.76-12.38-16.66,2.86-1.43,15.71,16.66,49.51-2.86,80.93-14.28,22.38-39.52,38.09-59.99,50.47-29.04-6.67-124.26-5.71-148.06-.48-20.95-9.05-39.52-22.85-54.75-39.52-4.76-5.24-9.05-10-12.85-15.71-2.38.48-5.24.95-10,1.43.48-3.81.95-7.62,1.9-9.05-6.19-3.33-11.9-12.38-10.95-19.04-3.81-1.43-5.24-2.38-8.57-4.76.48-1.9,2.38-6.19,4.76-10-5.24-12.85-10.47-33.8-12.38-50.47-2.86-.48-6.67-.95-10.47-2.86,0,0,3.81-5.24,4.76-9.52-1.43-5.71-1.9-10.47-.95-14.28.48-2.38,1.43-4.28,2.38-6.19l-4.28-9.52c5.24-2.86,8.57-5.24,10.95-6.19,1.43-7.14,2.86-13.81,5.24-20.47,8.57-29.52,22.38-58.08,39.04-75.7,17.14-4.76,53.32-6.19,74.27-4.76-7.14,11.43-24.76,40.47-30.47,50.94-20.95,0-36.66.48-59.03,2.86-3.81,9.05-7.62,18.57-10.47,28.09-1.9,7.14-3.81,14.28-4.76,22.38,2.86,2.86,4.76,8.57,14.28,8.57,17.14.95,36.18-.48,47.61-.48,9.05,0,12.38-6.19,15.71-16.19-3.81.48-10.95.48-19.04,4.76,7.14-15.23,21.42-27.14,30.95-30.95.48-1.43.95-2.38,1.43-3.81-7.14.48-16.66,2.86-21.42,6.19,9.52-14.28,15.71-20.95,30.47-23.8.48-.95.95-2.38,1.9-3.33-3.81,0-7.62-.48-14.76,1.9,5.71-9.05,12.38-15.71,22.85-16.66,4.76-9.52,13.33-18.09,23.33-28.57.95,9.05,1.9,13.81,2.86,15.71.48.48.48.95,1.43.95,6.67.48,15.71,1.43,19.52,1.9,6.19.95,7.14,3.33,7.14,9.52,20.47,4.28,22.38,15.71,12.38,32.85-1.9-7.14-8.57-10.47-20.47-14.76l-1.9,2.86c10,3.81,10.95,5.71,10,11.9-7.14-4.76-20.95-2.86-23.33,9.52-3.81,23.33,17.62,51.89,17.62,51.89h0c40.47-21.9,54.27-53.32,41.9-84.27-23.8-61.42-93.79-68.56-126.64-62.37,31.42-33.33,86.17-30.47,117.59.48,29.04,25.71,33.33,47.61,35.71,68.08l4.76.48c4.76-40.47-26.18-85.7-77.13-99.5,69.03-10.47,111.88,37.13,99.5,105.69l3.81,2.86c13.81-26.18,10-71.41-20.95-93.31,36.18,7.62,57.61,38.56,52.85,74.75-1.43,13.33-8.57,28.09-20,37.13l.95,3.81c26.18-12.85,29.52-46.18,25.71-65.7,6.19,4.76,14.28,16.66,16.66,22.85,10.95,34.75-13.33,62.84-46.66,69.51l-1.9,4.28c22.85-.95,42.85-15.23,51.42-34.75-.48,22.38-9.52,37.61-23.8,46.66-12.38,8.09-28.57,11.9-48.08,12.85l-3.81,3.33c12.38,1.43,35.23-.95,46.18-7.14-12.38,29.52-41.9,30.47-93.31,29.52,22.38,13.81,37.13,14.76,56.65,23.33,16.66,7.62,31.9,18.57,36.66,38.09,3.81-7.62,2.86-20,1.43-30.95-2.86-20.95,0-45.23,10.47-57.13,4.76-6.19,10.47-9.52,15.71-11.9,6.67-2.38,13.81-1.9,19.04,0,10,4.28,15.71,14.28,11.9,25.71-2.38,8.09-8.57,16.66-1.43,21.42h0Z"/>
    <path d="m152.88,160.97c5.24-10,14.76-25.23,21.42-34.75h-16.19l-13.33,22.38-9.52-20.95-12.85,1.9,11.9,31.9c6.67-.48,10.47-.48,18.57-.48h0Z"/>
    <path d="m245.72,151.93l2.86-1.43c1.43-.95.95-1.9-.95-1.9-1.43,0-3.33-.48-4.76-.95-3.81-1.43-8.57-2.86-10.47.95,5.71.95,8.57,6.67,13.33,3.33h0Z"/>
    <path d="m165.73,287.13c-2.38-7.14-4.76-15.71-6.19-21.42h-5.71c0,4.76.95,12.85,2.86,18.57-10-.48-20.47-11.9-21.9-19.04l-6.19-.48c.48,3.33,2.86,11.9,4.28,14.28-8.57-.48-18.09-9.05-20-15.23h-4.76c.95,3.81.95,8.57,2.38,12.85-4.76-.48-17.14-8.57-18.57-14.28l-3.81,1.43h0c.95,10.95,2.86,21.42,5.71,31.42,1.43,4.76,3.33,10,5.24,15.23,7.62,3.81,17.62,3.81,28.57-1.9,15.23-7.14,27.61-15.71,38.09-21.42h0Z"/>
    <path d="m269.52,339.03c-51.42.95-64.75-.95-83.32-17.62l-3.81,1.9c.48,2.86,6.67,10.47,10,12.85-10,3.81-20,1.9-28.09-6.19l-4.76,1.9c2.38,4.28,7.14,8.57,11.43,11.43-10,2.86-24.76-.48-28.09-5.24l-4.28,1.9c.95,2.86,6.19,9.52,9.52,11.43-7.62,2.38-19.04.48-25.71-5.24l-1.9,2.86c4.28,6.19,9.05,11.9,14.28,16.66,4.28,4.28,8.57,8.57,13.33,12.38,54.75-11.43,130.45-9.05,166.63-3.81,3.33-19.52-9.52-35.71-45.23-35.23h0Z"/>
  </g>
</svg>