<?xml version="1.0" encoding="UTF-8"?>
<svg id="Layer_1" data-name="Layer 1" xmlns="http://www.w3.org/2000/svg" width="500" height="500" viewBox="0 0 500 500">
  <rect width="500" height="500" fill="none"/>
  <path d="m474.18,231.28c-.33-1.07-2.27-5.56-4.91-8.25-.05-.36-.05-1.01-.05-1.53,0-2.47-.03-6.58-3.45-9.98-10.52-10.47-12.11-10.8-13.16-10.99l-.6-.11c-1.75-.33-5.81-1.12-8.83-2.11-1.23-.41-6.74-3.97-11.62-7.1-7.81-5.02-17.54-11.29-24.5-14.64-56.35-27.33-112.76-22.89-155.6-15.98-37.44,6.06-83.84,35.99-90.78,40.56h-.33c-13.05,0-72.66,7.59-94.42,16.42-18.94,7.67-30.2,18.72-34.43,33.77-.9,1.59-1.81,3.04-2.6,4.36-2.55,4.17-3.84,6.22-2.96,8.66.38,1.07,4.3,11.21,5.34,13.9-.08,1.23-.52,4.44-.9,7.1-1.26,8.94-2.19,16.31-1.73,20.64-2.91,4.71-2.63,8.25-2.52,8.96l.41,2.96h6.17c11.43,4.17,43.83,10.44,79.13,11.1,15.87.3,33.19.47,47.58.49,11.92,0,17.51-.03,20.31-.19,7.62,9.78,22.69,15.32,34.73,15.32,1.62,0,3.18-.11,4.66-.3,16.06-2.22,27.74-10.55,33.85-24.2,18.14-1.84,68.3-8.74,105.28-13.84,18.2-2.52,34.29-4.74,39.55-5.37,4.99,8.85,11.13,13.24,19.19,13.73,7.02.44,20.91.44,22.83.27,3.01-.25,15.24-4.91,17.76-21.52,4.3-2.55,11.65-7.92,13.76-15.87.41-1.56,1.07-9.48,1.95-23.57,1.34-21.3,1.12-22.01.9-22.69m-14.55-16.5c.6.6,1.23,1.21,1.92,1.89,1.29,1.26,1.34,2.6,1.34,4.85v.85c-4.08-1.81-6.72-6.14-7.92-8.55,1.56.27,3.1.58,4.63.93m-207.24-47.25c42.02-6.8,97.27-11.16,152.17,15.4,6.61,3.21,16.17,9.35,23.85,14.28,7.29,4.69,11.21,7.18,13.02,7.78,3.34,1.1,7.51,1.89,9.51,2.3l.33.05c.49.3,1.75,1.26,3.95,3.29-2.49-.36-4.96-.6-7.46-.82-5.45-.44-10.88-.63-16.31-.71-3.4-.05-6.77-.05-10.17,0-1.89-1.37-3.67-2.99-5.02-5.02-.9-1.4-1.64-2.91-2.22-4.52.16-.27.27-.49.27-.66,0-1.32-.38-8.47-1.78-10-1.37-1.53-36.97-15.68-46.27-17.19-9.29-1.51-32.62-8.28-51.2,3.7-14.25,9.18-32.84,32.64-37.19,38.26l-.93.22c.05.25.11.52.14.79-.11.14-.16.22-.16.22h.19c1.04,5.89,1.97,16.42,2.27,25.49l-1.95.3c-5.98.96-11.95,1.89-17.93,2.96,6.03-.52,12.03-1.15,18.03-1.75l1.86-.19c.14,5.26.05,9.95-.33,12.77-2.22,16.06.93,32.53,2,34.89.49,1.12-.16,4.8-.93,7.65-1.56.16-3.12.36-4.69.52-5.04.55-10.09,1.04-15.13,1.56l-5.18.47c1.75-19.51-1.12-46.29-13.21-54.08-13.18-8.5-22.58-6.52-32.18-.08-1.53-1.07-3.18-2-4.85-2.77,5.67-4.41,12.36-7.15,19.27-7.56,1.84,0,3.67-.11,5.51.16,1.84.14,3.65.52,5.43,1.01,3.56,1.04,6.93,2.74,10,5.02s5.81,5.07,8.22,8.2c2.44,3.12,4.52,6.58,6.17,10.31-2.8-7.67-7.48-14.66-13.7-19.62-3.1-2.49-6.63-4.33-10.33-5.48-1.86-.55-3.76-.96-5.67-1.1-1.89-.3-3.84-.22-5.76-.22-3.84.25-7.65,1.18-11.21,2.74-3.34,1.51-6.52,3.48-9.35,5.95-5.67-2.38-11.37-3.23-14.31-3.54-6.93-1.04-15.32-.88-24.09-.03,13.9-8.17,41.33-17.76,89.68-19.82,4.17-.19,9.48-3.23,10.39-7.29.33-1.4.19-3.32-1.45-5.37,18.83-4.66,41.88-31.74,41.11-33.47-.66-1.45-40.56-4.33-62.6-2.82,3.34-.88,6.72-1.59,10.09-2.14m30.18,121.09c-.99-2.19-3.97-18.45-1.86-33.88.41-2.91.47-7.76.33-13.18l5.59-.55,9.02-.93,36.04-3.84,18.01-1.95,13.38-1.37c-.36,9.54-1.04,20.15-1.32,23.08-.36,3.84,2.69,25.82,3.34,30.64-19.76,2.71-39.55,5.13-59.34,7.48-7.95.93-15.9,1.84-23.87,2.71.63-2.49,1.45-6.47.66-8.22m131.48-89.02c.55,1.59,1.26,3.12,2.17,4.55,1.26,1.97,2.96,3.59,4.77,4.96-7.35.05-14.72.27-22.06.58-10.83.47-21.65,1.12-32.48,1.97-1.97.16-3.95.33-5.92.49-.25-.25-.49-.49-.74-.77-.69-.69-1.37-1.4-2.06-2.19,20.42-1.45,42.26-3.07,45.33-3.51,5.13-.74,9.81-4.28,10.96-6.06m-81.02-7.7h-3.1l29.82-17.1,1.56.41-28.31,16.69h.03Zm-13.05,3.65h-3.1l29.82-17.1,1.56.41-28.31,16.69h.03Zm4.5,7.51l-4.77,9.43c-10,1.29-25.65,3.21-27.35,3.12-.19-.11-.66-.52-1.62-1.89h.08s2.38-10.66,2.38-11.32c0-.6,26.5-.08,31.3.66m-36.51,10.88c1.78,2.82,2.93,4.03,3.95,4.22h.41c3.18,0,20.58-2.22,28.26-3.21l.6-.08,1.67-3.32c4.96-.33,18.36-1.26,32.86-2.3.88,1.15,1.78,2.11,2.66,2.99-2.71.25-5.43.49-8.14.74-5.4.52-10.8,1.07-16.17,1.86,5.37-.66,10.8-1.04,16.2-1.43,2.91-.19,5.81-.38,8.72-.55,2.47,2.52,4.36,4.63,4.36,9.48,0,2.03-.05,4.44-.14,7.04-10.63,1.1-21.24,2.27-31.82,3.65-12.01,1.48-23.98,3.12-35.96,4.88l-8.99,1.32-5.45.85c-.3-9.04-1.21-19.43-2.25-25.41l9.21-.79.03.05Zm78.72,72.5c-1.34-9.59-3.65-27.13-3.34-30.26.27-2.99.96-13.79,1.34-23.43l3.04-.3c6-.63,12.01-1.18,18.01-1.67l4.5-.33,2.25-.16,2.25-.11,4.5-.22,4.06.05c1.1.88,2.27,1.62,3.45,2.14.33.16.69.33,1.01.47l1.04.38c.69.27,1.37.44,2.08.63,2.77.74,5.59,1.1,8.41,1.21.96.03,1.92,0,2.88,0-.55,1.75-1.1,3.51-1.7,5.26-1.75,5.24-3.65,10.42-5.67,15.51-1.01,2.58-2.08,5.07-3.29,7.51-1.23,2.41-2.58,4.74-4.14,6.93-3.07,4.36-7.04,7.89-11.57,10.17-2.27,1.15-4.63,2.03-7.07,2.69-1.23.27-2.47.52-3.67.77l-3.75.63c-4.85.79-9.73,1.48-14.61,2.17m52.68-54.24c-2.66-.16-5.32-.63-7.87-1.37-2.52-.77-5.04-1.84-6.88-3.48l-.38-.33h-.38l-4.66-.16-4.55.14-2.27.08-2.27.14-4.52.3c-6.03.44-12.06.96-18.09,1.56-.88.08-1.75.19-2.66.27.08-2.52.11-4.88.11-6.88,0-4.77-1.7-7.35-3.76-9.62,1.78-.11,3.56-.19,5.34-.3,10.83-.55,21.65-.93,32.45-1.1,8.36-.14,16.75-.14,25.11.08.27.25.52.49.77.79.85.99,1.37,2.3,1.37,3.67,0,2.77-.55,5.51-1.15,8.2-.63,2.71-1.34,5.43-2.14,8.09-1.18.05-2.38.03-3.56-.05m-171.55,73.7c-1.37,4.55-3.4,8.85-6.11,12.64-2.71,3.75-6.03,7.04-9.92,9.35-3.86,2.33-8.28,3.67-12.75,3.75-4.47.11-8.96-1.01-13.02-3.18s-7.65-5.34-10.55-9.13c-2.88-3.81-5.13-8.22-6.61-12.91-1.45-4.69-2.19-9.65-2.25-14.61.03-4.96.77-9.92,2.25-14.61,1.48-4.69,3.73-9.1,6.61-12.91,2.88-3.81,6.5-6.96,10.55-9.13,4.06-2.17,8.55-3.29,13.02-3.18s8.88,1.45,12.75,3.75c3.89,2.3,7.24,5.59,9.92,9.35,2.71,3.78,4.74,8.09,6.11,12.64s2.06,9.32,2.06,14.09c0,2.77-.25,5.51-.69,8.22-.19,1.18-.44,2.33-.71,3.48-.19.79-.41,1.59-.66,2.38m-92.23-52.6c2.66-.3,5.34-.55,8.03-.71,1.32-1.15,2.69-2.25,4.03-3.37,1.4-1.1,2.8-2.19,4.22-3.23-.08-1.1-.14-2.19-.16-3.29.33,1.12.6,2.27.85,3.43v.19l-.14.16c-1.29,1.34-2.6,2.63-3.95,3.92-1.34,1.26-2.69,2.52-4.08,3.73l-.19.16h-.25c-2.74.25-5.51.38-8.28.47-2.77.05-5.54.05-8.3-.14,2.74-.58,5.48-.96,8.22-1.29m14.86-11.24l-4.99.49-4.99.63c-.88.11-1.75.22-2.63.36-.79.11-1.56.25-2.36.36-.19.03-.38.05-.58.08-1.48.22-2.93.44-4.41.71-6.63,1.07-13.21,2.38-19.79,3.73-1.64.33-3.29.69-4.93,1.04-1.64.33-3.29.71-4.93,1.07-2.47.52-4.91,1.1-7.37,1.64-.82.19-1.67.38-2.49.58.82-.27,1.67-.55,2.49-.82,5.62-1.84,11.29-3.45,16.99-4.85,6.55-1.62,13.16-3.01,19.82-4.14,2.25-.36,4.52-.71,6.8-1.01,1.1-.14,2.19-.3,3.29-.44,3.32-.38,6.63-.71,9.98-.85,6.72-.33,13.49-.27,20.15.82-1.67-.05-3.37-.11-5.02-.19-1.67-.05-3.34.05-5.02.08-1.67,0-3.34.14-5.02.25s-3.34.19-5.02.38m-24.2,9.65l-.14.16c-.93,1.01-1.86,2.03-2.82,3.01-.93.99-1.92,1.97-2.88,2.93l-.16.16h-.27c-1.32.19-2.66.27-3.97.41-1.32.14-2.66.19-3.97.3-2.66.16-5.32.3-8,.33h-.25l-.14-.16c-1.23-1.56-2.44-3.15-3.62-4.82,1.4,1.26,2.77,2.58,4.11,3.89,2.58-.38,5.18-.69,7.76-.93,1.32-.11,2.66-.25,3.97-.36,1.26-.08,2.49-.19,3.75-.25.93-.85,1.89-1.7,2.85-2.55.99-.88,1.97-1.7,2.99-2.55.11-1.48.19-2.96.38-4.44.16,1.56.27,3.1.38,4.66v.16l.03.03Zm85.54-75.81h5.45l-41.83,22.06-4.74-.33s41.11-21.74,41.11-21.74Zm5.81,3.92l1.56.41-28.31,16.69h-3.1l29.82-17.1h.03Zm-169.3,44.27c.99-.41,2.08-.79,3.23-1.21-3.32,1.78-6.55,3.81-9.62,6.08-.55.38-1.07.77-1.56,1.21l-1.53,1.26c-.52.41-.99.88-1.48,1.32-.49.47-.99.88-1.45,1.37l-1.4,1.43-1.34,1.51c-.85,1.04-1.7,2.11-2.36,3.29.71-1.15,1.62-2.17,2.49-3.15l1.4-1.43,1.45-1.34c.47-.47,1.01-.85,1.51-1.26.52-.41.99-.85,1.53-1.21l1.59-1.15c.52-.38,1.04-.77,1.62-1.1,4.33-2.85,8.91-5.24,13.65-7.15,2.33-1.07,4.77-1.84,7.13-2.74,1.04-.36,2.08-.69,3.15-1.01,27.9-6.5,69.21-11.1,75.24-10.69l8.3-2.85c8.85.49,22.31,1.21,36.43,1.7-2.6.38-5.24.77-7.84,1.15l-10.69,1.86c-3.56.6-7.13,1.21-10.69,1.97l-10.66,2.14c-3.54.77-7.07,1.62-10.61,2.41-3.54.77-7.04,1.73-10.55,2.66l-5.26,1.37-5.24,1.56-5.24,1.56-5.18,1.73c-3.45,1.1-6.88,2.44-10.28,3.7-3.4,1.37-6.77,2.74-10.09,4.33-3.32,1.56-6.61,3.21-9.65,5.32,3.12-1.95,6.5-3.43,9.84-4.82,3.34-1.43,6.77-2.6,10.2-3.81,3.45-1.1,6.88-2.25,10.39-3.15l5.21-1.45,5.26-1.29,5.26-1.29,5.29-1.1c3.54-.74,7.04-1.51,10.58-2.11,3.54-.63,7.07-1.29,10.63-1.86l10.66-1.59c3.54-.58,7.13-.99,10.69-1.43l10.69-1.32c7.15-.69,14.28-1.43,21.43-2.03,7.15-.49,14.31-1.07,21.49-1.51l21.49-1.07-.05-1.04c.52.9.74,1.89.52,2.93-.71,3.18-5.37,5.84-8.91,5.98-52.57,2.25-80.55,13.16-93.57,21.98-25.93,3.01-53.34,11.18-53.34,11.18-.03.05-.05.14-.05.22h-6.06c-1.01-1.15-2.06-2.3-3.1-3.43l-.88-.93c-.16-.16-.27-.3-.49-.49-.19-.14-.41-.27-.52-.27-.11-.03-.25-.08-.36-.11-.88-.19-1.7-.25-2.49-.3-6.5-.36-12.96-.19-19.41.05-3.23.14-6.47.27-9.7.55-.79.08-1.62.14-2.47.33-.82.22-1.64.58-2.38,1.1-1.37,1.01-2.25,2.6-2.58,4.36h-.36c0-.96-.22-1.89-.55-2.74-.41-.99-.99-1.92-1.78-2.6-.38-.36-.85-.6-1.34-.77-.49-.14-.96-.19-1.45-.25-.93-.11-1.89-.16-2.82-.25-2.49-.16-5.02-.3-7.51-.33,5.15-8.33,13.9-14.94,26.53-20.06m-27.93,37.28c.14,1.53.36,3.07.69,4.55.38,1.45.82,2.99,1.92,4-.6-.41-1.07-1.04-1.43-1.73-.38-.69-.63-1.43-.85-2.17-.44-1.51-.69-3.04-.85-4.6s-.25-3.12-.27-4.69c0-1.56,0-3.12.14-4.69v-.08l.05-.05c1.1-1.23,2.19-2.44,3.32-3.65-.96,1.32-1.95,2.6-2.96,3.86-.05,3.07,0,6.14.25,9.18m-2.06-9.32c-.05,3.07,0,6.14.25,9.18.14,1.53.36,3.07.69,4.55.38,1.45.82,2.99,1.92,4-.6-.41-1.07-1.04-1.43-1.73-.38-.69-.63-1.43-.85-2.17-.44-1.51-.69-3.04-.85-4.6s-.25-3.12-.27-4.69c0-1.56,0-3.12.14-4.69v-.08l.05-.05c1.07-1.23,2.19-2.44,3.32-3.65-.96,1.32-1.95,2.6-2.96,3.86m-2.55,5.15c.66,4.8,2.14,12.06,5.04,13.9,4.44,2.82,14.33,2.71,14.53,1.43,0-.14.05-.52.05-1.1-.6-.41-1.04-1.04-1.43-1.7-.38-.69-.63-1.43-.85-2.17-.44-1.51-.69-3.04-.85-4.6s-.25-3.12-.27-4.69c0-1.56,0-3.12.14-4.69v-.08l.05-.05c1.04-1.18,2.08-2.33,3.15-3.45h0c-.3-.44-.19-2.38-4.14-3.15-2.66-.52-7.56-.74-10.47-.82.3-.58.6-1.12.96-1.67.66.05,1.32.08,1.97.14,1.89.14,3.75.3,5.62.49.93.11,1.86.19,2.8.33.47.08.93.14,1.34.27s.79.38,1.12.69c1.34,1.26,2.06,3.34,1.92,5.24v.47h1.81l.05-.41c.22-1.59,1.07-3.15,2.33-4.03.63-.44,1.34-.71,2.08-.9.74-.16,1.53-.22,2.33-.27,3.21-.19,6.44-.27,9.65-.33,3.23-.05,6.44-.05,9.68-.05s6.44.03,9.62.25c.79.05,1.59.14,2.3.3.14,0,.36.14.25.05.11.08.27.27.41.41l.85.93c.69.77,1.37,1.53,2.06,2.3h-3.51c-1.32-.96-2.82-1.7-4.44-1.84-4.74-.44-27.87,0-27.87,0,0,0-5.65,2.06-6.14,5.13,0,0,.11,18.64,3.37,19.93,3.26,1.29,25,.85,26.48.85.79,0,4.52-1.86,8.25-4.14-.25-.25-.44-.52-.63-.79-.38-.55-.66-1.18-.88-1.81-.49-1.26-.79-2.6-1.04-3.95-.47-2.69-.69-5.43-.66-8.17v-.08l.05-.05c.6-.82,1.23-1.62,1.89-2.41.27-.33.55-.69.82-1.01-.22.33-.41.66-.63,1.01-.55.88-1.12,1.75-1.7,2.6.16,2.66.38,5.34.79,7.98.22,1.32.47,2.63.85,3.92.3.96.69,1.95,1.29,2.71.36-.22.74-.47,1.1-.69,0,0-.03-.03-.03-.05-.38-.58-.66-1.18-.88-1.84-.49-1.26-.79-2.6-1.04-3.95-.47-2.69-.69-5.43-.66-8.17v-.08l.05-.05c.6-.79,1.23-1.59,1.86-2.38.27-.33.55-.69.82-1.01-.22.33-.41.69-.63,1.01-.55.88-1.12,1.75-1.67,2.6.16,2.69.38,5.34.79,7.98.22,1.32.47,2.63.85,3.92.22.66.44,1.32.77,1.92,2.82-1.84,5.4-3.84,6.36-5.32,2.38-3.67.49-5.54-1.59-7.7-.79-.82-1.78-2.08-2.96-3.37h2.93c1.89,2.19,3.73,4.44,5.37,6.8.44.69.93,1.43,1.15,2.06.25-.05-.33.77-.85,1.32-1.12,1.15-2.41,2.19-3.7,3.23-1.89,1.48-3.81,2.91-5.78,4.3.05.05.11.11.16.16-.08-.03-.14-.08-.22-.14-.74.52-1.45,1.04-2.19,1.56l-4.11,2.8-2.06,1.4-.52.36-.27.19h-.05c-.33.05-.71.11-1.1.14-3.15.16-6.41.05-9.62,0-6.44-.22-12.88-.55-19.3-1.04-3.21-.25-6.41-.55-9.62-.96-1.59-.19-3.18-.44-4.77-.74-.79-.16-1.56-.33-2.33-.52-.77-.22-1.51-.47-2.14-.93-1.32-.88-2.3-2.3-3.04-3.84s-1.29-3.21-1.7-4.91c-.38-1.62-.66-3.26-.88-4.93.36-.58.74-1.21,1.12-1.84m10.22,4.88c.14,1.53.36,3.07.69,4.55.38,1.45.82,2.99,1.92,4-.6-.41-1.07-1.04-1.43-1.73-.38-.69-.63-1.43-.85-2.17-.44-1.51-.69-3.04-.85-4.6s-.25-3.12-.27-4.69c0-1.56,0-3.12.14-4.69v-.08l.05-.05c1.07-1.23,2.19-2.44,3.32-3.65-.96,1.32-1.95,2.6-2.96,3.86-.05,3.07,0,6.14.25,9.18m-2.06-9.32c-.05,3.07,0,6.14.25,9.18.14,1.53.36,3.07.69,4.55.38,1.45.82,2.99,1.92,4-.6-.41-1.07-1.04-1.43-1.73-.38-.69-.63-1.43-.85-2.17-.44-1.51-.69-3.04-.85-4.6s-.25-3.12-.27-4.69c0-1.56,0-3.12.14-4.69v-.08l.05-.05c1.1-1.23,2.19-2.44,3.32-3.65-.96,1.32-1.95,2.6-2.96,3.86m7.07,10c.14,1.53.36,3.07.69,4.55.38,1.45.82,2.99,1.92,4-.6-.41-1.07-1.04-1.43-1.73-.38-.69-.63-1.43-.85-2.17-.44-1.51-.69-3.04-.85-4.6s-.25-3.12-.27-4.69c0-1.56,0-3.12.14-4.69v-.08l.05-.05c1.1-1.23,2.19-2.44,3.32-3.65-.96,1.32-1.95,2.6-2.96,3.86-.05,3.07,0,6.14.25,9.18m35.96.96c.25,1.51.55,3.01,1.01,4.47.47,1.43,1.04,2.91,2.19,3.84-.63-.36-1.15-.96-1.56-1.59-.41-.63-.74-1.37-1.01-2.08-.55-1.45-.9-2.99-1.18-4.52s-.47-3.07-.58-4.63c-.11-1.56-.22-3.1-.19-4.69v-.08l.05-.05c.99-1.32,2-2.63,3.04-3.92-.88,1.4-1.75,2.77-2.69,4.11.14,3.07.44,6.11.9,9.13m2.44,4.6c-.55-1.45-.9-2.99-1.18-4.52s-.47-3.07-.58-4.63c-.11-1.56-.22-3.1-.19-4.69v-.08l.05-.05c.99-1.32,2-2.63,3.04-3.92-.88,1.4-1.75,2.77-2.69,4.11.14,3.07.44,6.11.9,9.13.25,1.51.55,3.01,1.01,4.47.47,1.43,1.04,2.91,2.19,3.84-.63-.36-1.15-.96-1.56-1.59-.41-.66-.74-1.37-1.01-2.08m-9.07-4.6c.25,1.51.55,3.01,1.01,4.47.47,1.43,1.04,2.91,2.19,3.84-.63-.36-1.15-.96-1.56-1.59-.41-.63-.74-1.37-1.01-2.08-.55-1.45-.9-2.99-1.18-4.52s-.47-3.07-.58-4.63c-.11-1.56-.22-3.1-.19-4.69v-.08l.05-.05c.99-1.32,2-2.63,3.04-3.92-.88,1.4-1.75,2.77-2.69,4.11.14,3.07.44,6.11.9,9.13m2.44,4.6c-.55-1.45-.9-2.99-1.18-4.52s-.47-3.07-.58-4.63c-.11-1.56-.22-3.1-.19-4.69v-.08l.05-.05c.99-1.32,2-2.63,3.04-3.92-.88,1.4-1.75,2.77-2.69,4.11.14,3.07.44,6.11.9,9.13.25,1.51.55,3.01,1.01,4.47.47,1.43,1.04,2.91,2.19,3.84-.63-.36-1.15-.96-1.56-1.59-.41-.66-.74-1.37-1.01-2.08m-8.94-4.6c.25,1.51.55,3.01,1.01,4.47.47,1.43,1.04,2.91,2.19,3.84-.63-.36-1.15-.96-1.56-1.59-.41-.63-.74-1.37-1.01-2.08-.55-1.45-.9-2.99-1.18-4.52s-.47-3.07-.58-4.63c-.11-1.56-.22-3.1-.19-4.69v-.08l.05-.05c.99-1.32,2-2.63,3.04-3.92-.88,1.4-1.75,2.77-2.69,4.11.14,3.07.44,6.11.9,9.13m2.44,4.6c-.55-1.45-.9-2.99-1.18-4.52s-.47-3.07-.58-4.63c-.11-1.56-.22-3.1-.19-4.69v-.08l.05-.05c.99-1.32,2-2.63,3.04-3.92-.88,1.4-1.75,2.77-2.69,4.11.14,3.07.44,6.11.9,9.13.25,1.51.55,3.01,1.01,4.47.47,1.43,1.04,2.91,2.19,3.84-.63-.36-1.15-.96-1.56-1.59-.41-.66-.74-1.37-1.01-2.08m-14.97-5.1c.25,1.51.55,3.01,1.01,4.47.47,1.43,1.04,2.91,2.19,3.84-.63-.36-1.15-.96-1.56-1.59-.41-.66-.74-1.37-1.01-2.08-.55-1.45-.9-2.99-1.18-4.52s-.47-3.07-.58-4.63-.22-3.1-.19-4.69v-.08l.05-.05c.99-1.32,2-2.63,3.04-3.92-.88,1.4-1.75,2.77-2.69,4.11.14,3.07.44,6.11.9,9.13m2.44,4.6c-.55-1.45-.9-2.99-1.18-4.52s-.47-3.07-.58-4.63-.22-3.1-.19-4.69v-.08l.05-.05c.99-1.32,2-2.63,3.04-3.92-.88,1.4-1.75,2.77-2.69,4.11.14,3.07.44,6.11.9,9.13.25,1.51.55,3.01,1.01,4.47.47,1.43,1.04,2.91,2.19,3.84-.63-.36-1.15-.96-1.56-1.59-.41-.63-.74-1.37-1.01-2.08m2.11-8.91c-.11-1.56-.22-3.1-.19-4.69v-.08l.05-.05c.99-1.32,2-2.63,3.04-3.92-.88,1.4-1.75,2.77-2.69,4.11.14,3.07.44,6.11.9,9.13.25,1.51.55,3.01,1.01,4.47.47,1.43,1.04,2.91,2.19,3.84-.63-.36-1.15-.96-1.56-1.59-.41-.63-.74-1.37-1.01-2.08-.55-1.45-.9-2.99-1.18-4.52s-.47-3.07-.58-4.63m3.56,9.15c-.55-1.45-.9-2.99-1.18-4.52s-.47-3.07-.58-4.63-.22-3.1-.19-4.66v-.08l.05-.05c.99-1.32,2-2.63,3.04-3.92-.88,1.4-1.75,2.77-2.69,4.11.14,3.07.44,6.11.9,9.13.25,1.51.55,3.01,1.01,4.47.47,1.43,1.04,2.91,2.19,3.84-.63-.36-1.15-.96-1.56-1.59-.41-.63-.74-1.37-1.01-2.08m-29.82,14.33v-.14h0s.11.08.14.14c.38.33.82.66,1.32.96h0c-.14.08-.3.16-.49.16-.14,0-.27-.03-.38-.08-.08-.03-.14-.08-.19-.14-.05-.03-.08-.05-.14-.11s-.08-.11-.11-.16c-.03-.05-.08-.11-.11-.19-.05-.14-.08-.27-.08-.44m3.78,2.82c0-.27.11-.55.27-.71.44.14.93.3,1.43.41.03.08.05.19.05.3,0,.41-.25.77-.58.9-.11.05-.22.08-.33.08-.27,0-.52-.14-.69-.36-.14-.16-.22-.38-.22-.6m7.18.6c.58.08,1.18.14,1.84.22-.22.27-.52.44-.85.44-.44,0-.79-.27-.99-.66m7.73.79c.3,0,.58.05.88.08-.11.03-.22.05-.33.05-.19,0-.38-.05-.55-.14m2.71,1.45c0-.47.16-.88.44-1.15.74.05,1.51.14,2.25.19.19.27.27.6.27.96,0,.14,0,.25-.03.36-.14.74-.74,1.29-1.45,1.29-.79,0-1.43-.69-1.48-1.53v-.11m7.04,0c0-.22.03-.41.11-.6,1.12.08,2.25.16,3.34.27,0,.11.03.22.03.33,0,.36-.08.69-.25.96-.3.58-.85.96-1.48.96-.74,0-1.34-.49-1.62-1.18-.08-.22-.14-.47-.14-.71m7.04,0v-.05c.66.05,1.32.11,1.97.14.66.05,1.32.11,1.95.14-.05.49-.25.93-.55,1.26-.36.41-.85.69-1.4.69-.66,0-1.23-.36-1.59-.9-.25-.36-.38-.79-.38-1.29m7.59.49c1.18.08,2.27.16,3.26.22-.27.69-.88,1.18-1.62,1.18-.79,0-1.45-.6-1.67-1.4m41.09,20.09l-28.07,12.66c-1.32-.08-2.63-.19-3.95-.3,2.06-1.51,3.56-3.51,4.6-5.51.58-.58,1.12-1.21,1.62-1.89.41-.55.79-1.12,1.12-1.78.22-.44.41-.88.58-1.37,5.59-.49,14.99-1.21,24.06-1.81m-87.95,4.88c0-.69.49-1.23,1.12-1.23s1.12.55,1.12,1.23c0,.38-.16.71-.38.93-.19.19-.47.3-.74.3-.49,0-.9-.36-1.07-.82-.05-.14-.08-.27-.08-.41m12.06-20.91c.55,0,1.01.49,1.01,1.12s-.44,1.12-1.01,1.12-1.01-.49-1.01-1.12.44-1.12,1.01-1.12m-1.01-4.55c0-.63.44-1.12,1.01-1.12s1.01.49,1.01,1.12-.44,1.12-1.01,1.12-1.01-.49-1.01-1.12m1.01,10.2c.55,0,1.01.49,1.01,1.12s-.44,1.12-1.01,1.12-1.01-.49-1.01-1.12.44-1.12,1.01-1.12m0,5.65c.55,0,1.01.49,1.01,1.12s-.44,1.12-1.01,1.12-1.01-.49-1.01-1.12.44-1.12,1.01-1.12m0,5.65c.55,0,1.01.49,1.01,1.12s-.44,1.12-1.01,1.12-1.01-.49-1.01-1.12.44-1.12,1.01-1.12m7.29-11.57c.69,0,1.26.6,1.26,1.37s-.55,1.37-1.26,1.37-1.26-.63-1.26-1.37.55-1.37,1.26-1.37m-1.26-4.28c0-.77.55-1.37,1.26-1.37s1.26.6,1.26,1.37-.55,1.37-1.26,1.37-1.26-.63-1.26-1.37m1.26,9.95c.69,0,1.26.6,1.26,1.37s-.55,1.37-1.26,1.37-1.26-.63-1.26-1.37.55-1.37,1.26-1.37m0,5.65c.69,0,1.26.6,1.26,1.37s-.55,1.37-1.26,1.37-1.26-.63-1.26-1.37.55-1.37,1.26-1.37m2.27,4.19c0-.82.6-1.51,1.37-1.51s1.37.69,1.37,1.51c0,.27-.08.55-.19.77-.44-.05-.88-.08-1.29-.14-.38-.05-.77-.11-1.15-.14-.05-.16-.08-.33-.08-.49m5.02-15.79c.82,0,1.48.74,1.48,1.64s-.66,1.64-1.48,1.64-1.51-.74-1.51-1.64.66-1.64,1.51-1.64m-1.51-4c0-.9.66-1.64,1.51-1.64s1.48.74,1.48,1.64-.66,1.64-1.48,1.64-1.51-.74-1.51-1.64m1.51,9.68c.82,0,1.48.74,1.48,1.64s-.66,1.64-1.48,1.64-1.51-.74-1.51-1.64.66-1.64,1.51-1.64m0,5.65c.82,0,1.48.74,1.48,1.64s-.66,1.64-1.48,1.64-1.51-.74-1.51-1.64.66-1.64,1.51-1.64m2.03,4.47c0-.99.74-1.78,1.62-1.78s1.62.79,1.62,1.78c0,.63-.3,1.18-.77,1.51-.66-.05-1.29-.11-1.95-.19-.33-.33-.55-.79-.55-1.32m25.65,2.82c0-.9.66-1.64,1.51-1.64.71,0,1.29.55,1.45,1.26-.55.33-1.12.55-1.67.55h-1.26v-.16m3.75-19.82v-.19c.11.41.25.82.38,1.26-.25-.27-.38-.63-.38-1.04m1.32,4.14c.27.96.55,1.89.79,2.8-.22.14-.44.22-.71.22-.16,0-.33-.03-.49-.11-.52-.22-.88-.77-.88-1.4,0-.33.08-.6.25-.85.25-.38.63-.63,1.07-.66m-.63,14.12c-.16-.11-.3-.22-.41-.38-.16-.25-.27-.58-.27-.9,0-.82.6-1.51,1.37-1.51h0c.44,0,.82.25,1.07.6-.05.16-.16.36-.22.55-.47.6-.99,1.15-1.53,1.67m2.03-6.63c-1.34.16-2.11.3-2.55.41-.11-.22-.16-.47-.16-.71,0-.82.6-1.51,1.37-1.51.08,0,.16,0,.25.03.63.14,1.12.74,1.12,1.48,0,.11,0,.22-.03.3m-4.3-12.99c-.19.11-.44.19-.69.19-.82,0-1.51-.74-1.51-1.64,0-.79.52-1.48,1.23-1.62.08,0,.16-.03.27-.03.49,0,.9.27,1.18.66.08.3.19.63.3.99h0c0,.63-.33,1.18-.79,1.45m-.69,2.55c.82,0,1.48.74,1.48,1.64s-.66,1.64-1.48,1.64-1.51-.74-1.51-1.64.66-1.64,1.51-1.64m0,5.65c.82,0,1.48.74,1.48,1.64s-.66,1.64-1.48,1.64-1.51-.74-1.51-1.64.66-1.64,1.51-1.64m0,5.65c.82,0,1.48.74,1.48,1.64s-.66,1.64-1.48,1.64-1.51-.74-1.51-1.64.66-1.64,1.51-1.64m-3.65-8.61c.9,0,1.62.79,1.62,1.78s-.71,1.78-1.62,1.78-1.62-.79-1.62-1.78.74-1.78,1.62-1.78m-1.62-3.89c0-.99.74-1.78,1.62-1.78s1.62.79,1.62,1.78-.71,1.78-1.62,1.78-1.62-.79-1.62-1.78m1.62,9.54c.9,0,1.62.79,1.62,1.78s-.71,1.78-1.62,1.78-1.62-.79-1.62-1.78.74-1.78,1.62-1.78m0,5.65c.9,0,1.62.79,1.62,1.78s-.71,1.78-1.62,1.78-1.62-.79-1.62-1.78.74-1.78,1.62-1.78m-3.65-14.28c.96,0,1.73.85,1.73,1.92s-.79,1.92-1.73,1.92-1.73-.85-1.73-1.92.77-1.92,1.73-1.92m-1.73-3.75c0-1.04.77-1.92,1.73-1.92s1.73.85,1.73,1.92-.79,1.92-1.73,1.92-1.73-.85-1.73-1.92m1.73,9.4c.96,0,1.73.85,1.73,1.92s-.79,1.92-1.73,1.92-1.73-.85-1.73-1.92.77-1.92,1.73-1.92m0,5.65c.96,0,1.73.85,1.73,1.92s-.79,1.92-1.73,1.92-1.73-.85-1.73-1.92.77-1.92,1.73-1.92m0,5.67c.96,0,1.73.85,1.73,1.92h0c-1.15-.05-2.3-.11-3.45-.19.08-.99.82-1.75,1.73-1.75m-1.78,4.74c0,.6-.22,1.12-.6,1.51-.33.33-.77.55-1.26.55-.55,0-1.01-.25-1.37-.66-.3-.36-.49-.85-.49-1.4,0-.71.33-1.34.85-1.73.74.05,1.48.11,2.22.19.38.38.63.93.63,1.53m-3.54,2.66c-.63-.03-1.29-.08-1.97-.14-.63-.05-1.26-.11-1.92-.16.11-.49.36-.93.69-1.23s.77-.49,1.23-.49c.55,0,1.07.27,1.43.69.3.36.49.82.55,1.32m-7.67-.63c-.96-.11-1.95-.19-2.96-.33.33-.47.82-.79,1.4-.79.69,0,1.29.47,1.56,1.1m-14.91-4.85c0,.77-.55,1.37-1.26,1.37s-1.26-.63-1.26-1.37.55-1.37,1.26-1.37,1.26.6,1.26,1.37m-14.83,0s-.03.19-.05.3c-.69-.14-1.32-.3-1.95-.44.05-.55.47-.96.99-.96.55,0,1.01.49,1.01,1.12m-3.54-25.46c0,.49-.27.93-.66,1.12.05-.71.14-1.4.22-2.11.27.22.44.58.44.99m0,5.65c0,.63-.41,1.12-.96,1.23,0-.82.03-1.62.08-2.44.49.14.88.63.88,1.21m-2.27,0c0-.69.49-1.23,1.12-1.23h.03c-.05.82-.11,1.64-.11,2.47-.58-.05-1.04-.58-1.04-1.23m1.07,4.41c.03.82.11,1.64.19,2.47h-.14c-.63,0-1.12-.55-1.12-1.23s.47-1.21,1.07-1.23m.05,5.65c.41,0,.74.25.96.58.05.14.11.27.16.41v.25c0,.69-.49,1.23-1.12,1.23s-1.12-.55-1.12-1.23.49-1.23,1.12-1.23m2.71,3.62c.3.3.6.58.99.79.25.14.47.25.71.36-.19.25-.47.41-.77.41-.55,0-1.01-.49-1.01-1.12,0-.16.03-.33.08-.47m4.58,4.25c-.49,0-.88-.44-.88-.99s.38-.99.88-.99.9.44.9.99-.41.99-.9.99m16.97.96c.88.11,1.78.22,2.66.33.05.16.08.36.08.55,0,.9-.66,1.64-1.48,1.64s-1.51-.74-1.51-1.64c0-.33.08-.63.25-.88m6.82.82c1.15.14,2.3.25,3.43.38-.14.9-.85,1.59-1.7,1.59-.96,0-1.73-.85-1.73-1.92v-.05m-3.54,2.82c.03-.96.74-1.73,1.62-1.73s1.62.79,1.62,1.78c0,.11,0,.22-.03.33-.08.52-.38.96-.77,1.21-.63-.08-1.26-.14-1.89-.22-.33-.33-.52-.79-.52-1.32v-.05m7.04.05c0-1.12.82-2.06,1.86-2.06s1.86.9,1.86,2.06c0,.38-.11.77-.27,1.07-.33.58-.9.99-1.56.99-.79,0-1.45-.52-1.73-1.29-.08-.25-.14-.49-.14-.77m3.65-2.14c.63.05,1.23.11,1.86.16.58.05,1.15.11,1.73.16-.33.69-.99,1.15-1.73,1.15-.88,0-1.59-.63-1.86-1.48m10.17.85c-.27.22-.63.36-1.01.36-.47,0-.88-.19-1.18-.52.74.05,1.45.11,2.19.16m-8.3-2.06c-.63-.05-1.26-.08-1.86-.14.25-.88.99-1.53,1.86-1.53.96,0,1.78.77,1.95,1.78-.66-.05-1.29-.08-1.95-.14m3.65-5.92c-1.04,0-1.86-.9-1.86-2.06s.82-2.06,1.86-2.06,1.86.9,1.86,2.06-.82,2.06-1.86,2.06m1.86,3.62c0,1.12-.82,2.06-1.86,2.06s-1.86-.93-1.86-2.06.82-2.06,1.86-2.06,1.86.9,1.86,2.06m-1.86-9.26c-1.04,0-1.86-.93-1.86-2.06s.82-2.06,1.86-2.06,1.86.9,1.86,2.06-.82,2.06-1.86,2.06m-3.65-2.69c-1.1,0-1.97-.99-1.97-2.17s.88-2.17,1.97-2.17,1.97.99,1.97,2.17-.88,2.17-1.97,2.17m0,1.32c1.1,0,1.97.99,1.97,2.17s-.88,2.17-1.97,2.17-1.97-.99-1.97-2.17.88-2.17,1.97-2.17m0,5.65c1.1,0,1.97.99,1.97,2.17s-.88,2.17-1.97,2.17-1.97-.99-1.97-2.17.88-2.17,1.97-2.17m3.65-9.92c-1.04,0-1.86-.9-1.86-2.06s.82-2.06,1.86-2.06,1.86.9,1.86,2.06-.82,2.06-1.86,2.06m-3.65-2.69c-1.1,0-1.97-.99-1.97-2.17s.88-2.17,1.97-2.17,1.97.99,1.97,2.17-.88,2.17-1.97,2.17m-1.78.66c0,1.12-.85,2.06-1.86,2.06s-1.86-.9-1.86-2.06.82-2.06,1.86-2.06,1.86.9,1.86,2.06m-1.86,3.62c1.01,0,1.86.9,1.86,2.06s-.85,2.06-1.86,2.06-1.86-.93-1.86-2.06.82-2.06,1.86-2.06m0,5.65c1.01,0,1.86.9,1.86,2.06s-.85,2.06-1.86,2.06-1.86-.9-1.86-2.06.82-2.06,1.86-2.06m0,5.65c1.01,0,1.86.9,1.86,2.06s-.85,2.06-1.86,2.06-1.86-.93-1.86-2.06.82-2.06,1.86-2.06m-3.65-14.01c.96,0,1.73.85,1.73,1.92s-.77,1.92-1.73,1.92-1.73-.85-1.73-1.92.79-1.92,1.73-1.92m-1.73-3.75c0-1.04.79-1.92,1.73-1.92s1.73.85,1.73,1.92-.77,1.92-1.73,1.92-1.73-.85-1.73-1.92m1.73,9.4c.96,0,1.73.85,1.73,1.92s-.77,1.92-1.73,1.92-1.73-.85-1.73-1.92.79-1.92,1.73-1.92m0,5.65c.96,0,1.73.85,1.73,1.92s-.77,1.92-1.73,1.92-1.73-.85-1.73-1.92.79-1.92,1.73-1.92m0,5.67c.63,0,1.18.38,1.48.96-.93-.08-1.89-.16-2.82-.25.33-.44.79-.71,1.34-.71m-3.65-19.68c.88,0,1.62.79,1.62,1.78s-.74,1.78-1.62,1.78-1.62-.79-1.62-1.78.74-1.78,1.62-1.78m-1.62-3.89c0-.99.74-1.78,1.62-1.78s1.62.79,1.62,1.78-.74,1.78-1.62,1.78-1.62-.79-1.62-1.78m1.62,9.54c.88,0,1.62.79,1.62,1.78s-.74,1.78-1.62,1.78-1.62-.79-1.62-1.78.74-1.78,1.62-1.78m0,5.65c.88,0,1.62.79,1.62,1.78s-.74,1.78-1.62,1.78-1.62-.79-1.62-1.78.74-1.78,1.62-1.78m-7.29-11.05c.77,0,1.37.69,1.37,1.51s-.6,1.51-1.37,1.51-1.37-.66-1.37-1.51.6-1.51,1.37-1.51m-1.37-4.14c0-.82.6-1.51,1.37-1.51s1.37.69,1.37,1.51-.6,1.51-1.37,1.51-1.37-.66-1.37-1.51m1.37,9.81c.77,0,1.37.69,1.37,1.51s-.6,1.51-1.37,1.51-1.37-.66-1.37-1.51.6-1.51,1.37-1.51m0,5.65c.77,0,1.37.69,1.37,1.51s-.6,1.51-1.37,1.51-1.37-.66-1.37-1.51.6-1.51,1.37-1.51m-7.29-11.05c.63,0,1.12.55,1.12,1.23s-.49,1.23-1.12,1.23-1.12-.55-1.12-1.23.49-1.23,1.12-1.23m-1.12-4.41c0-.69.49-1.23,1.12-1.23s1.12.55,1.12,1.23-.49,1.23-1.12,1.23-1.12-.55-1.12-1.23m1.12,10.06c.63,0,1.12.55,1.12,1.23s-.49,1.23-1.12,1.23-1.12-.55-1.12-1.23.49-1.23,1.12-1.23m0,5.65c.63,0,1.12.55,1.12,1.23s-.49,1.23-1.12,1.23-1.12-.55-1.12-1.23.49-1.23,1.12-1.23m0,5.65c.58,0,1.04.47,1.12,1.07-.71-.11-1.43-.22-2.14-.33.16-.44.58-.74,1.04-.74m.96,1.89c-.19.36-.55.58-.96.58-.55,0-.99-.41-1.1-.96.69.14,1.37.25,2.06.36m-8.25-18.61c.49,0,.9.44.9.99s-.41.99-.9.99-.88-.44-.88-.99.38-.99.88-.99m-.88-4.69c0-.55.38-.99.88-.99s.9.44.9.99-.41.99-.9.99-.88-.44-.88-.99m.88,10.33c.49,0,.9.44.9.99s-.41.99-.9.99-.88-.44-.88-.99.38-.99.88-.99m0,5.65c.49,0,.9.44.9.99s-.41.99-.9.99-.88-.44-.88-.99.38-.99.88-.99m-3.65-14.28c.55,0,1.01.49,1.01,1.12s-.44,1.12-1.01,1.12-1.01-.49-1.01-1.12.47-1.12,1.01-1.12m-1.01-4.55c0-.63.47-1.12,1.01-1.12s1.01.49,1.01,1.12-.44,1.12-1.01,1.12-1.01-.49-1.01-1.12m1.01,10.2c.55,0,1.01.49,1.01,1.12s-.44,1.12-1.01,1.12-1.01-.49-1.01-1.12.47-1.12,1.01-1.12m0,5.65c.55,0,1.01.49,1.01,1.12s-.44,1.12-1.01,1.12-1.01-.49-1.01-1.12.47-1.12,1.01-1.12m0,5.65c.55,0,1.01.49,1.01,1.12,0,.05,0,.11-.03.16-.25-.11-.47-.22-.69-.33-.33-.19-.63-.44-.9-.69.16-.14.38-.25.6-.25m-3.4-8.58c.49.14.88.63.88,1.21,0,.49-.27.93-.66,1.12-.11-.77-.16-1.56-.22-2.33m.05-8.91s-.19.05-.3.05c-.63,0-1.12-.55-1.12-1.23s.49-1.23,1.12-1.23c.22,0,.41.08.58.19-.11.74-.19,1.51-.27,2.25m-.3-5.59c-.63,0-1.12-.55-1.12-1.23s.49-1.23,1.12-1.23,1.12.55,1.12,1.23-.49,1.23-1.12,1.23m-4.91,18.56c0-.19.03-.36.08-.52.19-.49.63-.85,1.15-.85.69,0,1.26.6,1.26,1.37s-.55,1.37-1.26,1.37c-.3,0-.6-.14-.82-.33-.27-.25-.44-.63-.44-1.04m.27,4.8c.22-.33.58-.52.99-.52.69,0,1.26.6,1.26,1.37s-.55,1.37-1.26,1.37c-.19,0-.38-.05-.52-.14-.44-.22-.71-.69-.71-1.23,0-.33.11-.63.27-.85m18.34,8.55c.22-.27.52-.44.88-.44.47,0,.88.33,1.04.77-.63-.11-1.29-.22-1.92-.33m-2.77-.93c-.55,0-.96-.47-.99-1.04v-.08c0-.63.44-1.12,1.01-1.12s1.01.49,1.01,1.12c0,.14-.03.3-.08.41-.16.41-.52.69-.93.69m9.89.74c.25-.33.63-.55,1.04-.55.55,0,1.01.36,1.23.88.08.19.14.41.14.66s-.05.47-.14.66c-.85-.11-1.73-.25-2.58-.36v-.27c0-.38.14-.71.33-.99m25.33,2.49c.3-.36.77-.6,1.26-.6.47,0,.88.19,1.21.52.3.33.49.77.52,1.26-.9.08-2.08.11-3.45.08,0-.49.19-.96.49-1.29m3.29-1.51c0-.47.16-.85.41-1.18.33,0,.63.05.96.08.52.03,1.04.05,1.56.08.19.27.3.63.3,1.01v.22c-.11.88-.77,1.56-1.59,1.56-.44,0-.82-.19-1.12-.49-.3-.33-.49-.77-.49-1.29m5.51-29.49h-.22c-.47,0-.88-.25-1.15-.6.79.05,1.23.08,1.23.08,0,0,.05.19.16.49m-2.27,1.21c0,.99-.71,1.78-1.62,1.78s-1.62-.79-1.62-1.78c0-.27.05-.52.16-.74.25-.6.82-1.01,1.45-1.01.71,0,1.32.52,1.53,1.23.05.16.08.36.08.55m-7.04,0c0,1.12-.82,2.06-1.86,2.06s-1.86-.9-1.86-2.06c0-.49.16-.93.41-1.26.33-.47.85-.77,1.45-.77.69,0,1.26.41,1.59.99.16.3.27.66.27,1.04m-7.29,0c0,1.12-.85,2.06-1.86,2.06s-1.86-.9-1.86-2.06c0-.77.38-1.43.96-1.78.27-.16.58-.27.9-.27.41,0,.79.16,1.12.44.44.38.74.96.74,1.62m-18.83-2.82c0,.77-.55,1.37-1.26,1.37s-1.26-.63-1.26-1.37c0-.19.03-.38.11-.55.19-.49.63-.85,1.15-.85.6,0,1.1.47,1.21,1.07,0,.11.03.19.03.3m-19.46-7.24h-.16c-.55-.08-.96-.6-.96-1.23,0-.08,0-.14.03-.22.08-.47.38-.85.82-.99.41.63.79,1.26,1.23,1.89-.19.33-.55.58-.96.58m-2.38,7.24c0,.58-.3,1.04-.77,1.26l.27-2.36c.3.25.49.63.49,1.1m0,5.65c0,.77-.55,1.37-1.26,1.37h-.16l.3-2.71c.6.08,1.1.66,1.1,1.37m-1.26,4.28c.69,0,1.26.6,1.26,1.37s-.55,1.37-1.26,1.37c-.27,0-.55-.11-.77-.27l.14-1.34.11-1.01c.16-.08.33-.11.49-.11m67.92,23.63l26.67-12.03c2.27.36,11.26.41,16.23-.71-.11.14-.19.27-.3.38-2.03,2.6-4.5,4.91-7.02,7.1-2.41,2.06-4.91,4-7.46,5.92-5.54-.08-11.35-.16-17.27-.27-3.65-.05-7.26-.19-10.85-.38m36.29-4.19c2.69-2.03,5.32-4.17,7.65-6.82.82-.96,1.62-2,2.27-3.21,2.14-2.06,2-4.03,1.15-6.58-.74-2.27-5.65-20.01-8.28-26.18,1.73-.08,3.45-.14,5.13-.05.58,0,1.1.08,1.64.14.55.03,1.01.19,1.51.27.9.3,1.62.69,2.19,1.32,1.15,1.37,2.03,3.86,2.88,6.28.85,2.47,1.7,4.96,2.52,7.43,1.67,4.96,3.29,9.95,4.91,14.94.79,2.49,1.53,5.02,2.19,7.48.14.6.33,1.26.41,1.81l.08.44v.33l.05.14v-.05s0,.05-.05.14c-.16.33-.6.77-1.01,1.15-.44.38-.9.77-1.37,1.12-1.92,1.48-4.03,2.77-6.11,4.11l-1.34.85c-6.93,0-14.86-.08-23.41-.19,2.36-1.56,4.69-3.15,6.96-4.88m18.75,5.07c2.08-.96,4.14-1.95,6.17-3.15.55-.33,1.1-.69,1.62-1.1.55-.41,1.07-.82,1.62-1.59.14-.19.27-.44.38-.74.05-.16.11-.33.11-.55v-1.01l-.05-.55c-.05-.74-.19-1.4-.3-2.08-.47-2.69-1.12-5.26-1.75-7.84-1.29-5.15-2.77-10.25-4.3-15.29-.77-2.52-1.59-5.04-2.41-7.56-.41-1.26-.85-2.55-1.4-3.84l-.44-.99c-.14-.33-.36-.66-.52-1.01-.33-.66-.85-1.34-1.34-1.97-1.15-1.29-2.66-2.06-4.06-2.47-1.4-.33-2.74-.47-4-.49-2.55-.05-4.99.14-7.4.33-2.41.22-4.82.41-7.24.66-1.21.11-2.38.22-3.62.36l-3.65.47-3.65.6c-1.21.25-2.41.52-3.62.79-2.38.69-4.77,1.37-7.07,2.49-2.27,1.1-4.47,2.47-6.36,4.25-.93.9-1.81,1.86-2.58,2.88-.79,1.01-1.53,2.06-2.41,2.99,2-1.56,3.65-3.54,5.65-4.93,1.97-1.43,4.14-2.47,6.39-3.21.47-.16.96-.3,1.45-.44-.79,2.11-.03,6.22.66,8.14,1.1,2.99,8.28,14.42,12.44,20.28-12.94.88-20.45,1.45-24.8,1.89-.03-.19-.05-.36-.08-.55-.11-.69-.27-1.37-.44-2.03-.33-1.32-.69-2.63-1.04-3.92-.74-2.58-1.56-5.13-2.38-7.65-1.67-5.07-4.69-9.48-6.5-14.5l-.93.41c1.04,2.74,2.08,5.48,3.1,8.22-3.34-.22-34.78-2.36-43.66-3.7-6.66-1.01-8.09-3.23-9.7-5.78-.11-.19-.25-.36-.36-.55,0-.79-.11-1.29-.3-1.78-.58-1.48-3.92-10.11-5.1-13.24.44-.82,1.23-2.14,1.92-3.23.05-.08.11-.16.14-.25.16,1.59.38,3.15.71,4.71.38,1.73.85,3.45,1.59,5.1.71,1.62,1.73,3.15,3.12,4.19.71.55,1.53.85,2.3,1.1.79.25,1.59.44,2.38.6,1.59.33,3.21.6,4.8.85,3.21.47,6.41.85,9.65,1.18,6.44.63,12.88,1.12,19.35,1.37,3.23.11,6.44.25,9.73.08.41-.03.82-.05,1.32-.14.16-.05.41-.14.52-.22l.25-.16.52-.33,2.08-1.37,4.14-2.8c2.74-1.89,5.48-3.81,8.11-5.89,1.32-1.04,2.63-2.11,3.86-3.4.3-.33.6-.69.9-1.12.08-.11.14-.22.22-.36.08-.16.14-.3.19-.47.05-.22.08-.55.03-.71-.03-.16-.08-.36-.11-.47-.19-.55-.41-.93-.66-1.34s-.49-.77-.74-1.12c-1.43-2.06-2.99-3.95-4.55-5.78h4.96c2.06,2.85,6.19,6.69,7.59,7.4,1.97,1.01,40.18-2.47,46.65-3.78,6.28-1.26,27.22-11.16,31.66-16.25,2.41.52,5.18,1.26,7.95,2.38-5.84,5.26-10.39,12.06-13.68,19.38,3.86-7.1,8.72-13.54,14.61-18.5.14-.11.25-.19.38-.3,1.67.74,3.29,1.64,4.85,2.69-2.85,1.97-5.76,4.33-8.77,6.93-13.43,11.48-16.2,41.39-16.01,54.02.14,9.54-2.25,14.06-4.3,15.51-2.52.14-11.32.22-23.82.19m295.41-31.71c-1.21,2.85-2.74,5.56-4.82,7.78-2.08,2.17-4.88,3.75-7.89,3.86-3.01.03-5.89-1.43-8.11-3.56-2.22-2.17-3.92-4.85-5.24-7.73-2.6-5.78-3.62-12.25-3.7-18.61.08-6.36,1.07-12.83,3.7-18.61,1.29-2.88,3.01-5.56,5.24-7.73,2.22-2.14,5.13-3.59,8.14-3.56,3.01.11,5.78,1.67,7.89,3.86,2.08,2.22,3.65,4.93,4.82,7.78,1.21,2.85,2.03,5.87,2.55,8.94.55,3.07.79,6.19.79,9.32s-.27,6.25-.79,9.32c-.52,3.07-1.34,6.08-2.55,8.94m13.68-15.21c-1.26,4.77-5.81,8.52-9.1,10.69,2.25-10.8,4.66-30.53-3.95-43.88-12.25-18.99-23.71-5.51-32.01,12.91-8.3,18.42-6.85,39.33-8.03,41.8-.77,1.62-4.22,2.17-7.89,1.95-.69-1.04-1.34-2.19-2-3.51l-.9-1.78h-1.86c-1.26,0-11.92,1.45-42.04,5.62-36.59,5.04-86.15,11.9-104.56,13.76.79-2.85,1.48-6.36,1.95-10.22l5.81-.6c5.04-.58,10.11-1.15,15.16-1.78,10.09-1.21,20.17-2.52,30.23-3.84,20.15-2.69,40.29-5.43,60.38-8.5,5.02-.77,10.06-1.56,15.07-2.44l3.75-.69c1.26-.27,2.52-.55,3.78-.85,2.49-.71,4.93-1.64,7.26-2.88,4.69-2.44,8.74-6.19,11.84-10.69,1.56-2.25,2.91-4.66,4.14-7.13,1.18-2.49,2.25-5.04,3.23-7.62,1.97-5.15,3.81-10.36,5.51-15.65.58-1.84,1.15-3.67,1.7-5.51,1.67-.11,3.37-.33,5.04-.74.36-.11.71-.22,1.07-.33s.71-.22,1.04-.41c.36-.16.69-.33,1.04-.52l1.01-.71c.93-.82,2.11-1.34,3.37-1.73,5.02-1.43,10.77-.47,15.07,3.01,2.17,1.73,3.92,4.06,5.21,6.69,1.29,2.63,2.19,5.51,2.74,8.47-.36-2.99-1.04-5.98-2.22-8.77-1.18-2.77-2.88-5.32-5.07-7.29-4.41-3.97-10.5-5.45-16.14-4.08-.71.16-1.43.41-2.11.71s-1.4.74-2,1.21l-.74.49c-.27.14-.58.25-.85.38-.27.14-.6.22-.9.3s-.6.19-.93.25c-1.26.27-2.52.44-3.84.49.74-2.63,1.43-5.29,2-7.98.55-2.71,1.12-5.48,1.04-8.33,0-1.43-.6-2.85-1.51-3.84-.19-.22-.38-.38-.58-.58,2.33.05,4.66.14,6.96.22,5.4.22,10.8.58,16.14,1.15,1.86.19,3.7.44,5.54.71.93,2.17,4.17,8.72,10,10.8.22,1.32.69,2.63,1.81,3.7,1.26,1.23,2.66,3.92,3.15,5.07-.05,5.02-2.17,39.47-2.8,42.46m-249.97,8.2c-2.69,0-4.88,3.12-4.88,6.93s2.19,6.93,4.88,6.93,4.88-3.12,4.88-6.93-2.19-6.93-4.88-6.93m0,10.74c-1.32,0-2.38-1.7-2.38-3.81s1.07-3.81,2.38-3.81,2.38,1.7,2.38,3.81-1.07,3.81-2.38,3.81m26.09-29.16c-2.77-3.65-6.22-6.63-10.03-8.69-3.84-2.06-8.09-3.1-12.31-2.99s-8.36,1.37-12.03,3.56c-3.67,2.19-6.85,5.32-9.43,8.91-.11.14-.19.27-.27.41l10.28,20.61.19.38-.33.19-17.24,10.2c.33,2.49.85,4.96,1.56,7.35.52,1.75,1.18,3.48,1.92,5.18l-.27-1.48,17.02-2.93-16.66,4.6c1.07,2.38,2.33,4.63,3.84,6.72,2.58,3.59,5.76,6.72,9.43,8.91,3.67,2.19,7.81,3.48,12.03,3.56,4.22.11,8.47-.93,12.31-2.99s7.29-5.04,10.03-8.69c2.77-3.65,4.91-7.87,6.33-12.36.25-.77.47-1.56.66-2.36.3-1.15.55-2.3.74-3.48.47-2.71.74-5.48.77-8.22-.05-4.77-.77-9.54-2.17-14.06-1.43-4.5-3.56-8.72-6.33-12.36m-5.84,12.22l.27-.11,4.11-11.7-3.37,11.43,8.77-3.32-9.15,5.29-.11-.3-1.12,3.78-.05.19-.19.08-6.11,2.74-3.07,1.32c-1.04.44-2.06.85-3.18,1.23l-.38-1.7c.99-.25,2.06-.63,3.1-.99l3.12-1.12,6.03-2.3,1.48-4.22-.14-.33v.03Zm11.37,7.32l-8.63,3.34-.38-1.7s9.02-1.64,9.02-1.64Zm-24.59,8.61l-.38-1.7,13.43-1.37-13.05,3.04v.03Zm13.57,2.77c.27-.88.58-1.75.79-2.63-.11.93-.27,1.84-.41,2.77l-.47,2.74-.99,5.48-1.51-.49,1.75-5.24.85-2.63h-.03Zm-12.99-40.24l-.79,11.87-.79-11.87s1.59,0,1.59,0Zm-3.1,20.17c.6-1.04,1.15-2.11,1.78-3.1l1.86-3.04,7.51-12.11,1.29,1.01-8.14,11.59-2.03,2.91c-.69.96-1.29,2-1.92,2.99l-3.81,6,3.48-6.25h-.03Zm-5.34-20.94l-.79,8.85-.79-8.85h1.59Zm-9.4,4.52l1.15-1.18,11.84,15.24-12.99-14.06Zm-12.14,45.03l9.89-9.24,4.41,1.75-14.31,7.51v-.03Zm6.3,13.05l-1.29-.99,6.11-8.14-4.82,9.13Zm7.1,7.32l-1.4-.82,6.82-11.92-5.43,12.77v-.03Zm5.76-23.27l1.59-.11.79,26.75-2.36-26.64h-.03Zm2.36,3.43l-.79-6.19h1.59l-.79,6.19Zm-3.67-9.89l-2.85,9.26-1.45-.69,4.25-8.63c-.71-1.32-1.15-2.93-1.15-4.69,0-3.54,1.7-6.52,4.03-7.48l-.74-10.83h1.59l-.74,10.8c.49-.19,1.01-.3,1.53-.3,3.12,0,5.67,3.51,5.67,7.81s-2.55,7.81-5.67,7.81c-1.81,0-3.43-1.21-4.47-3.04m9.43,9.26l-4.47-4.11,1.1-1.26,3.92,4.74,1.97,2.36c.66.77,1.32,1.59,2,2.3-.79-.63-1.53-1.32-2.27-2l-2.25-2.06v.03Zm7.43.66l-.74,10.77-.38,5.4-.22,2.69-.11,1.34c-.05.47-.05.85-.16,1.48l-1.51-.47c.05-.27.14-.79.19-1.21l.16-1.32.33-2.66.66-5.34,1.23-10.55-8.06-7.4,8.55,7.04.11.11v.16l-.05-.05Zm3.21,18.28l-2.3-8.44,3.76,7.78s-1.45.66-1.45.66Zm9.02-7.81l-6.96-8.47,8.06,7.21-1.1,1.26Zm-9.54-10.17h-.11l-.11-.11-9.95-8.11.99-1.37,9.46,8.63,15.98,3.23-16.25-2.27Zm17.32-9.89l-13.51-9.04-12.06,2.8,12.03-3.56h.14l.14.03,14.06,8.28-.79,1.51Zm-51.42-27.71c-4.3,6.91-6.5,15.29-6.5,23.68,0,2.06.14,4.14.41,6.17l16.53-10.72-10.44-19.16v.03Zm-3.86,8.58l9.54,3.89-9.98-2.22s.44-1.67.44-1.67Zm-2.03,12.44l.22-1.73,8.72,2.17s-8.94-.44-8.94-.44Zm246.49-12.09c1.34,0,2.49-2.41,2.49-5.29s-1.15-5.29-2.49-5.29-2.49,2.41-2.49,5.29,1.15,5.29,2.49,5.29m0-8.14c.69,0,1.23,1.29,1.23,2.88s-.55,2.88-1.23,2.88-1.23-1.29-1.23-2.88.55-2.88,1.23-2.88m-9.89-14.03c-.93,2.22-1.62,4.55-2.11,6.93l.19-.49,4.88,2.8-5.18-1.75c-.08.36-.16.74-.22,1.1-.52,2.99-.77,6.06-.79,9.1,0,1.51.08,3.01.19,4.52l8.47-7.87-5.45-14.33h.03Zm-3.1,15.57l.19-1.07,4.5,1.51-4.69-.44Zm22.42-23.41c-2.11-2-4.74-3.29-7.46-3.26-2.71.11-5.24,1.53-7.21,3.56-1.7,1.81-3.04,4-4.11,6.36l.08-.05,5.29,15.54.05.16-.11.11-8.85,7.65c.14,1.53.33,3.07.58,4.58.22,1.34.52,2.69.88,4l8.91-2.3-8.61,3.34c.38,1.26.79,2.47,1.29,3.67,1.15,2.74,2.63,5.34,4.6,7.43,1.97,2.06,4.5,3.45,7.21,3.56,2.71,0,5.37-1.26,7.46-3.26,2.08-2.03,3.73-4.63,4.99-7.4,2.55-5.59,3.51-11.92,3.59-18.14-.08-6.22-1.07-12.55-3.59-18.14-1.26-2.77-2.91-5.37-4.99-7.4m-5.34-1.34l-.49,8.94-.49-8.94h.99,0Zm-1.75,15.27c.58-1.56,1.21-3.07,1.86-4.58l3.86-9.1.88.49-4.3,8.85c-.74,1.48-1.45,2.96-2.08,4.47l-2,4.52,1.78-4.63v-.03Zm-2.66-15.84l-.49,6.66-.49-6.66h.99,0Zm-5.1,3.23l.82-.6,6.06,11.32-6.88-10.74v.03Zm1.73,33.88l-.96-.33,2.27-6.55c-.38-.99-.63-2.22-.63-3.59,0-2.69.9-4.91,2.14-5.59l-.47-8.2h.99l-.47,8.17c.25-.14.52-.22.79-.22,1.67,0,2.99,2.55,2.99,5.84s-1.32,5.84-2.99,5.84c-.96,0-1.81-.85-2.33-2.17l-1.37,6.8h.03Zm-4.52,9.89l-.9-.47,3.29-6.28-2.41,6.74h.03Zm3.7,5.54l-.93-.38,3.65-9.1-2.71,9.48Zm2.82-17.43l.99-.05.33,20.12-1.32-20.06Zm1.32,2.6l-.49-4.66h.99l-.49,4.66h0Zm2.93-.55l-2.38-3.18.79-.63,1.97,3.48.99,1.73c.33.58.66,1.15,1.01,1.7-.44-.49-.82-1.04-1.23-1.56l-1.21-1.59.05.05Zm3.95.58l-.36,8.11-.19,4.06-.11,2.03c-.03.69-.05,1.32-.14,2.08l-.96-.22c.08-.58.14-1.29.19-1.95l.19-2.03.36-4.03.69-8-4.19-5.54,4.47,5.37.05.05v.08-.03Zm1.56,13.68l-1.1-6.28,2.06,5.98-.96.3Zm4.69-5.95l-3.51-6.22,4.3,5.59-.79.63h0Zm-4.88-7.59h-.08l-.05-.08-5.26-6.17.74-.71,4.85,6.44,8.28,2.33-8.5-1.78.03-.03Zm-3.75-9.46l-.33-1.01,6.72-.9-6.39,1.92Zm7.07.47l-.88,8.2-.96-.22,1.86-7.98h-.03Zm5.62,1.48l-6.93-6.72-6.28,2.14,6.25-2.63.11-.05.11.08,7.4,6.3-.63.85-.03.03Zm-4.74-5.67l-.36-1.01,4.77-1.37-4.41,2.38Zm-1.07-6.85l-.08-.16-.58,2.88v.14l-.14.08-3.15,2-1.59.99c-.55.33-1.07.63-1.67.93l-.33-1.01c.49-.19,1.07-.49,1.62-.77l1.62-.88,3.12-1.75.79-3.18-.11-.16.16-.08,2.22-8.96-1.73,8.66,4.52-2.55-4.66,3.84h-.03Zm-392.55,9.24c-1.07-1.01-1.53-2.52-1.89-3.97-.33-1.48-.55-3.01-.69-4.55-.25-3.04-.33-6.11-.25-9.18.96-1.21,1.89-2.41,2.8-3.67.25.93.19,16.91.05,21.38"/>
</svg>