<?xml version="1.0" encoding="UTF-8"?>
<svg id="Layer_1" data-name="Layer 1" xmlns="http://www.w3.org/2000/svg" width="500" height="500" viewBox="0 0 500 500">
  <rect width="500" height="500" fill="none"/>
  <g>
    <path d="m250,31.79c-120.3,0-218.21,97.92-218.21,218.21s97.92,218.21,218.21,218.21,218.21-97.92,218.21-218.21S370.76,31.79,250,31.79h0Zm0,416.84c-109.57,0-198.63-89.06-198.63-198.63S140.43,51.37,250,51.37s198.63,89.06,198.63,198.63-88.59,199.1-198.63,198.63h0Z" fill-rule="evenodd"/>
    <path d="m206.64,101.73c13.99-4.2,28.91-6.06,43.36-6.06s29.84,2.33,43.36,6.06l-43.36,96.52-43.36-96.52h0Z" fill-rule="evenodd"/>
    <path d="m333,119.45c16.32,10.26,30.31,23.78,41.96,39.17l-71.34,158.06-27.51-61.08h-52.22l-27.51,61.08-71.34-158.06c11.19-15.39,25.64-28.91,41.96-39.17l56.88,126.36h52.22c.47,0,56.88-126.36,56.88-126.36Zm-232.2,90.46c-3.73,13.06-5.13,26.58-5.13,40.1,0,60.61,34.97,113.3,85.79,138.48l-80.66-178.58Z" fill-rule="evenodd"/>
    <path d="m207.57,398.74c13.99,4.2,28.44,6.06,42.9,6.06s29.37-1.87,42.9-6.06l-42.9-95.12-42.9,95.12h0Zm111.44-10.26c50.82-25.18,85.79-77.87,85.79-138.48,0-13.52-1.87-27.04-5.13-39.63l-80.66,178.11h0Z" fill-rule="evenodd"/>
  </g>
</svg>