<?xml version="1.0" encoding="UTF-8"?>
<svg id="Layer_1" data-name="Layer 1" xmlns="http://www.w3.org/2000/svg" width="500" height="500" viewBox="0 0 500 500">
  <rect width="500" height="500" fill="none"/>
  <path d="m423.22,120.68l10.38-10.38c7.08,9.44,13.69,19.82,19.35,30.21h8.02V39.02h-101.95v8.02c10.38,5.66,20.77,12.27,30.21,19.35l-10.38,10.38c-35.87-26.9-80.71-42.95-128.85-42.95-119.41,0-216.17,96.76-216.17,216.17s96.76,216.17,216.17,216.17,216.17-96.76,216.17-216.17c-.47-48.61-16.05-92.98-42.95-129.32h0Zm-15.58,168.5c-17.46,70.8-81.65,123.66-158.12,123.66s-140.18-52.86-157.64-123.66h315.76ZM91.88,210.83c17.46-70.8,81.65-123.66,158.12-123.66s140.65,52.39,158.12,123.66H91.88Zm273.75,38.7c0-8.02,3.78-14.63,10.38-14.63s9.91,7.08,9.91,14.63c0,7.08-3.3,15.1-10.38,15.1s-9.91-7.55-9.91-15.1h0Zm-179.36,0c0-8.02,3.78-14.63,10.38-14.63s9.91,7.08,9.44,14.63c0,7.08-3.3,15.1-10.38,15.1-6.61,0-9.44-7.55-9.44-15.1h0Zm9.91-20.77c18.88,0,28.79,9.44,28.79,21.24s-9.44,21.24-28.79,21.24-28.79-9.44-28.79-21.24,9.91-21.24,28.79-21.24h0Zm-58.53,32.1l13.69-25.02h-8.02v-6.14h27.85v6.14h-9.44l-18.41,33.98h-21.71l-18.88-33.98h-9.44v-6.14h40.59v6.14h-9.91l13.69,25.02h0Zm237.88-32.1c18.88,0,28.79,9.44,28.79,21.24s-9.44,21.24-28.79,21.24-28.79-9.44-28.79-21.24,9.91-21.24,28.79-21.24h0Zm-93.45,7.08h-9.44v-6.14h40.59v6.14h-9.91l13.69,25.02,13.22-25.02h-8.02v-6.14h27.85v6.14h-9.44l-18.41,33.98h-21.71l-18.41-33.98h0Zm-45.31,0h-9.44v-6.14h37.29v6.14h-9.44v27.85h8.5c8.02,0,13.22-5.19,13.22-12.27h6.14v18.88h-55.69v-6.14h9.44v-28.32h0Z"/>
</svg>