<?xml version="1.0" encoding="UTF-8"?>
<svg id="Layer_1" data-name="Layer 1" xmlns="http://www.w3.org/2000/svg" width="500" height="500" viewBox="0 0 500 500">
  <rect width="500" height="500" fill="none"/>
  <g>
    <polygon points="275.08 213.51 323.19 40.88 325.08 41.57 326.94 42.24 328.8 42.96 330.63 43.63 332.46 44.38 334.26 45.1 336.04 45.82 337.84 46.57 339.56 47.32 341.34 48.07 343.03 48.84 344.78 49.62 346.44 50.43 348.14 51.2 349.8 52.04 351.47 52.84 353.05 53.67 354.66 54.53 356.27 55.36 357.85 56.25 359.4 57.11 360.95 58 362.48 58.89 363.98 59.8 365.48 60.75 366.95 61.64 368.42 62.61 369.86 63.55 371.3 64.49 372.69 65.46 374.11 66.44 375.49 67.41 285.29 217.73 284.13 217.2 282.93 216.65 281.71 216.15 280.41 215.6 279.11 215.1 277.8 214.6 276.44 214.07 275.08 213.51 275.08 213.51 275.08 213.51" fill-rule="evenodd"/>
    <polygon points="245.14 471.08 245.14 372.64 223.97 372.64 214.04 468.27 218.04 468.86 221.98 469.38 223.95 469.63 225.89 469.88 227.83 470.08 229.8 470.27 231.74 470.47 233.69 470.61 235.6 470.74 237.51 470.86 239.43 470.97 241.34 471.02 243.26 471.05 245.14 471.08 245.14 471.08 245.14 471.08" fill-rule="evenodd"/>
    <polygon points="205.25 466.61 212.24 372.64 186.35 372.64 170.37 456.51 172.31 457.26 174.34 457.98 176.36 458.7 178.44 459.42 180.52 460.15 182.63 460.81 184.77 461.48 186.96 462.12 189.15 462.73 191.37 463.36 193.62 463.95 195.92 464.53 198.23 465.08 200.53 465.61 202.89 466.11 205.25 466.61 205.25 466.61 205.25 466.61" fill-rule="evenodd"/>
    <polygon points="162.07 453.04 174.62 372.64 141.68 372.64 123.45 431.65 125.48 433.04 127.56 434.4 129.67 435.78 131.83 437.17 134.02 438.53 136.27 439.92 138.6 441.25 140.96 442.61 143.37 443.94 145.84 445.27 148.4 446.58 150.98 447.88 153.67 449.19 156.39 450.49 159.19 451.77 162.07 453.04 162.07 453.04 162.07 453.04" fill-rule="evenodd"/>
    <polygon points="113.96 424.55 130.08 372.64 94.79 372.64 85.5 398.16 87.08 399.83 88.66 401.52 90.3 403.18 91.93 404.88 93.6 406.54 95.29 408.23 97.04 409.9 98.76 411.53 100.56 413.2 102.39 414.84 104.22 416.5 106.11 418.11 108 419.75 109.94 421.36 111.94 422.99 113.96 424.55 113.96 424.55 113.96 424.55" fill-rule="evenodd"/>
    <polygon points="76.12 386.98 80.7 372.64 68.93 372.64 67.24 375.27 67.68 376.1 68.16 376.91 68.65 377.71 69.15 378.46 69.68 379.24 70.24 379.99 70.79 380.71 71.35 381.4 72.51 382.79 73.7 384.18 74.9 385.59 76.12 386.98 76.12 386.98 76.12 386.98" fill-rule="evenodd"/>
    <polygon points="169.93 288.15 171.09 276.86 27.7 238.76 27.7 241.73 27.7 244.73 27.7 247.78 27.7 250.86 27.79 253.94 27.84 257.08 27.95 260.21 28.06 263.32 28.23 266.45 28.45 269.59 28.67 272.72 28.95 275.83 29.28 278.94 29.67 281.99 29.87 283.52 30.09 285.07 30.31 286.54 30.56 288.04 169.93 288.15 169.93 288.15 169.93 288.15" fill-rule="evenodd"/>
    <polygon points="173.28 267.01 173.62 265.7 174.06 264.43 174.5 263.15 175 261.88 175.5 260.57 176.06 259.29 176.59 258.02 177.14 256.71 38.74 180.77 37.77 183.74 36.86 186.74 35.97 189.74 35.14 192.73 34.36 195.76 33.64 198.78 32.95 201.81 32.31 204.83 31.7 207.88 31.14 210.91 30.62 213.96 30.12 217.04 29.64 220.12 29.23 223.2 28.84 226.25 28.45 229.33 173.28 267.01 173.28 267.01 173.28 267.01" fill-rule="evenodd"/>
    <polygon points="183.05 245.59 188.4 238.46 67.66 123.29 66.91 124.2 66.13 125.31 65.33 126.48 64.47 127.73 63.55 129.08 62.66 130.53 61.72 132.05 60.75 133.63 59.75 135.27 58.8 136.99 57.75 138.74 56.75 140.52 54.73 144.18 52.73 147.9 50.79 151.61 48.93 155.28 48.04 157.11 47.18 158.86 46.37 160.58 45.6 162.21 44.88 163.85 44.21 165.38 43.54 166.85 42.99 168.23 42.46 169.54 42.02 170.73 41.69 171.84 41.35 172.81 183.05 245.59 183.05 245.59 183.05 245.59" fill-rule="evenodd"/>
    <polygon points="193.68 232.69 195.17 231.24 196.7 229.88 198.25 228.55 199.84 227.25 201.45 226 203.11 224.78 204.8 223.59 206.52 222.42 116.71 72.68 113.74 74.93 110.86 77.2 108.03 79.53 105.22 81.89 103.84 83.05 102.45 84.28 101.06 85.47 99.73 86.69 98.37 87.91 97.04 89.16 95.73 90.41 94.46 91.66 93.13 92.9 91.85 94.18 90.57 95.46 89.33 96.73 88.1 98.04 86.86 99.37 85.63 100.67 84.47 102 83.28 103.36 82.11 104.72 80.95 106.08 79.81 107.44 78.7 108.83 77.56 110.22 76.48 111.63 75.4 113.02 193.68 232.69 193.68 232.69 193.68 232.69" fill-rule="evenodd"/>
    <polygon points="246.45 209.71 244.42 28.92 242.12 28.92 239.79 29.01 237.4 29.12 235.02 29.28 232.58 29.45 230.13 29.67 227.66 29.95 225.25 30.25 222.78 30.56 220.34 30.89 217.93 31.25 215.57 31.64 213.21 32.03 210.93 32.42 208.66 32.81 206.49 33.22 202.33 34.06 198.53 34.86 195.15 35.61 192.18 36.33 189.76 36.94 187.93 37.44 187.24 37.64 186.74 37.8 186.41 37.91 186.3 38 232.88 211.35 234.63 210.99 236.35 210.68 238.07 210.41 239.79 210.16 241.48 209.99 243.15 209.85 244.81 209.74 246.45 209.71 246.45 209.71 246.45 209.71" fill-rule="evenodd"/>
    <polygon points="224.92 213.51 176.81 40.88 174.89 41.57 173.06 42.24 171.2 42.96 169.34 43.63 167.51 44.38 165.71 45.1 163.93 45.82 162.16 46.57 160.41 47.32 158.63 48.07 156.94 48.84 155.22 49.62 153.53 50.43 151.86 51.2 150.17 52.04 148.53 52.84 146.93 53.67 145.32 54.53 143.73 55.36 142.15 56.25 140.6 57.11 139.02 58 137.52 58.89 135.99 59.8 134.5 60.75 133.02 61.64 131.55 62.61 130.11 63.55 128.67 64.49 127.28 65.46 125.87 66.44 124.51 67.41 214.71 217.73 215.87 217.2 217.07 216.65 218.29 216.15 219.56 215.6 220.87 215.1 222.17 214.6 223.53 214.07 224.92 213.51 224.92 213.51 224.92 213.51" fill-rule="evenodd"/>
    <polygon points="255.58 471.08 255.58 372.64 276.75 372.64 286.68 468.27 282.71 468.86 278.74 469.38 276.77 469.63 274.83 469.88 272.86 470.08 270.92 470.27 269.01 470.47 267.06 470.61 265.12 470.74 263.21 470.86 261.26 470.97 259.41 471.02 257.46 471.05 255.58 471.08 255.58 471.08 255.58 471.08" fill-rule="evenodd"/>
    <polygon points="295.45 466.61 288.51 372.64 314.37 372.64 330.35 456.51 328.41 457.26 326.41 457.98 324.36 458.7 322.31 459.42 320.22 460.15 318.09 460.81 315.95 461.48 313.76 462.12 311.57 462.73 309.35 463.36 307.1 463.95 304.8 464.53 302.52 465.08 300.16 465.61 297.86 466.11 295.45 466.61 295.45 466.61 295.45 466.61" fill-rule="evenodd"/>
    <polygon points="338.67 453.04 326.13 372.64 359.07 372.64 377.3 431.65 375.27 433.04 373.16 434.4 371.05 435.78 368.89 437.17 366.7 438.53 364.42 439.92 362.15 441.25 359.79 442.61 357.35 443.94 354.88 445.27 352.35 446.58 349.75 447.88 347.08 449.19 344.36 450.49 341.56 451.77 338.67 453.04 338.67 453.04 338.67 453.04" fill-rule="evenodd"/>
    <polygon points="386.79 424.55 370.64 372.64 405.93 372.64 415.2 398.16 413.67 399.83 412.06 401.52 410.43 403.18 408.82 404.88 407.12 406.54 405.43 408.23 403.71 409.9 401.93 411.53 400.16 413.2 398.36 414.84 396.52 416.5 394.64 418.11 392.72 419.75 390.75 421.36 388.78 422.99 386.79 424.55 386.79 424.55 386.79 424.55" fill-rule="evenodd"/>
    <polygon points="424.6 386.98 420.03 372.64 431.79 372.64 433.51 375.27 432.43 376.74 431.35 378.21 430.29 379.71 429.18 381.18 428.1 382.68 426.99 384.12 425.8 385.54 424.6 386.98 424.6 386.98 424.6 386.98" fill-rule="evenodd"/>
    <path d="m59.69,363.56l-.31-.19-.42-.42-.47-.64-.55-.86-.61-1.05-.69-1.22-.72-1.42-.8-1.58-.83-1.72-.89-1.89-.94-2-.94-2.11-1-2.25-1-2.33-1.03-2.41-1.05-2.5-1.05-2.55-1.05-2.61-1.05-2.66-1.05-2.69-1.03-2.69-1.03-2.72-1-2.72-.97-2.72-.94-2.72-.92-2.66-.86-2.61-.83-2.55-.75-2.5-.72-2.44-.67-2.36-.58-2.22h434.25l-.11.67-.14.8-.19.92-.25,1.08-.31,1.19-.31,1.33-.39,1.42-.42,1.53-.47,1.66-.5,1.72-.55,1.83-.61,1.94-.64,2-.69,2.11-.75,2.16-.78,2.22-.83,2.28-.86,2.36-.92,2.39-.97,2.47-1.03,2.5-1.05,2.52-1.11,2.58-1.14,2.61-1.22,2.64-1.25,2.66-1.28,2.66-1.36,2.69-1.39,2.72-1.44,2.69-1.5,2.69-1.55,2.69-381.5.31h0l.03-.03Zm17.62-5.08l-12.04-46.78h-7.08v-9.43h21.17v9.43h-6.55l8.74,35.68,8.71-35.68h-6.19v-9.43h28.22l.06,9.49-6.22-.06,7.05,34.93,9.85-34.99-6.02.06v-9.43h54.52l-.08,16.54-7.38-.06v-7.05h-18.84v11.74h18.51v9.38l-17.98-.06v14.43h18.23l.08-9.63h7.05v18.81h-42.31v-7.05h7.1l-.06-37.62h-4.69l-14.12,47h-9.41l-7.08-39.95h-4.69l-9.38,39.95-9.1-.22h-.08Zm105.85-4.36v2.25h-7.38v-18.81h7.05v.97l.11.5.08.47.08.47.14.44.17.44.17.44.19.42.19.42.25.39.25.39.25.36.31.33.31.33.31.33.33.31.36.28.36.28.39.25.36.25.42.19.42.22.42.17.44.17.47.14.44.11.47.11.5.08.47.06h.5l.53.03h.69l.69-.08.64-.11.61-.14.58-.19.55-.25.25-.14.25-.14.22-.17.22-.17.22-.19.19-.17.19-.22.17-.19.17-.22.14-.25.14-.25.14-.25.11-.25.08-.28.08-.31.08-.25v-.33l.08-.31v-.33l.03-.33v-.94l-.08-.47-.06-.44-.08-.42-.11-.42-.11-.42-.14-.36-.14-.39-.17-.36-.19-.36-.22-.33-.22-.33-.22-.33-.28-.28-.28-.31-.31-.28-.31-.25-.33-.22-.36-.25-.36-.19-.39-.19-.42-.17-.42-.17-.44-.14-.44-.14-.5-.08-.47-.11-.53-.06-.53-.06h-.55l-.58-.06-1.33.06-1.33-.06-1.25-.14-1.22-.22-1.17-.31-1.14-.36-1.05-.44-1.03-.53-.94-.58-.89-.67-.86-.69-.75-.75-.72-.8-.67-.86-.61-.89-.53-.94-.47-1-.39-1-.33-1.05-.25-1.05-.19-1.11-.11-1.08-.06-1.11.06-1.14.11-1.14.19-1.14.28-1.17.33-1.14.44-1.14.53-1.11.61-1.11.69-1.11.69-.69.69-.78.39-.39.44-.39.25-.19.28-.19.28-.19.31-.17.33-.17.36-.19.39-.14.42-.17.44-.14.47-.14.53-.14.53-.11.61-.11.64-.11.69-.08.72-.06.78-.06.83-.06h.89l.94-.03h155.9v19.03h-6.77v-9.63h-18.81v11.74h18.81v9.43l-18.81-.03v14.12h18.84v-9.38h7.05v9.38l7.05.06v-35.15l-4.69.06v-9.66h21.23v9.68h-4.94v35.04h11.79v-9.16h9.41v9.16h4.69l-.28-35.1h-9.1v-9.6h37.62l.67.08.69.11.69.17.72.22.69.25.72.33.69.36.72.42.69.47.69.53.69.55.67.61.67.67.67.72.61.75.61.8.61.86.55.92.55.97.5,1,.5,1.05.44,1.08.42,1.17.39,1.19.36,1.25.31,1.3.25,1.33.19,1.39.19,1.44.11,1.5.08,1.55v3.36l-.11,1.72-.14,1.64-.22,1.61-.28,1.5-.33,1.47-.39,1.39-.42,1.33-.47,1.25-.53,1.22-.53,1.14-.61,1.08-.61,1.03-.64.97-.69.92-.69.83-.72.8-.75.75-.75.69-.75.61-.78.58-.8.53-.78.47-.78.44-.8.36-.78.33-.75.28-.75.22-.75.19-.72.14-.72.08-.69.06h-133.87v-9.41h4.69l.03-35.38h-4.02v10.07h-6.83l-.06-10.1-17.34.14v11.74h16.45v8.82h-16.45v14.71h7.05l-.06,9.43h-23.47v-9.43h7.05v-35.26h-6.1v9.63h-7.99v-9.63h-7.05v35.26h5.08v9.43h-21.17l.17-9.32h4.13v-35.4h-6.8v9.63h-8.16l.06-1.36.08-1.58v-2.5l-.11-.83-.06-.39-.08-.39-.11-.36-.11-.33-.14-.33-.17-.33-.19-.28-.19-.28-.25-.25-.28-.19-.28-.19-.33-.17-.39-.11-.39-.08h-7.91l-.8.06-.78.11-.69.19-.64.25-.58.28-.53.36-.44.39-.42.44-.33.47-.31.47-.22.53-.17.55-.11.55-.06.58v.58l.06.58.14.61.17.55.22.58.31.55.33.5.39.5.47.47.5.44.55.36.64.36.67.28.75.22.78.17.83.11h.89l.97-.03,1,.06.97.08.94.14.94.17.89.19.89.22.83.28.83.28.8.33.75.36.75.36.69.42.67.42.67.44.61.47.58.5.53.47.53.53.47.55.44.55.42.58.39.58.36.61.31.61.28.58.25.64.19.64.19.64.11.67.11.64.06.67v.64l.08,1.19v2.3l-.08,1.08-.11,1.03-.17,1.03-.22,1-.25.97-.28.94-.33.89-.36.86-.42.83-.42.8-.47.75-.53.72-.53.69-.58.64-.58.61-.64.58-.67.53-.67.5-.72.47-.72.42-.75.36-.78.33-.8.31-.8.25-.83.22-.86.19-.86.14-.89.08-.89.06h-.97l-.92-.03-.89-.08-.8-.14-.75-.19-.72-.22-.67-.25-.64-.31-.58-.33-.58-.36-.53-.39-.53-.42-.53-.44-.47-.44-.5-.47-.47-.5h0l.06.08Zm114.76-7.16v-35.26h9.41v35.29h-9.41v-.03Zm98.58,0v-35.26h16.76l.33.06.33.08.31.14.36.14.39.19.36.22.39.25.39.28.39.31.39.36.39.39.39.39.39.44.39.47.36.5.36.5.36.55.33.58.33.61.31.64.28.67.28.69.25.69.22.75.19.78.19.78.14.8.11.83.08.86.06.89v.92l.03,1.11v1.08l-.06,1.05-.06,1.03-.08,1-.08.97-.08.94-.14.92-.11.86-.17.86-.17.8-.19.78-.19.75-.22.72-.25.69-.28.64-.28.61-.31.58-.33.53-.36.53-.36.44-.42.44-.42.39-.44.36-.44.31-.5.28-.5.22-.55.19-.55.17-.58.11-.61.06h-.67l-16.45.03h0l.03.06Z" fill-rule="evenodd"/>
    <path d="m180.5,288.15c2.05-41.45,28.72-64.87,69.31-67.31,42.23.86,67.31,24.92,69.28,67.31h-138.59Z" fill-rule="evenodd"/>
    <polygon points="330.05 288.15 328.91 276.86 472.27 238.76 472.27 241.73 472.3 244.73 472.3 247.78 472.27 250.86 472.21 253.94 472.16 257.08 472.05 260.21 471.91 263.32 471.77 266.45 471.55 269.59 471.33 272.72 471.05 275.83 470.72 278.94 470.33 281.99 470.13 283.52 469.91 285.07 469.69 286.54 469.41 288.04 330.05 288.15 330.05 288.15 330.05 288.15" fill-rule="evenodd"/>
    <polygon points="326.72 267.01 326.36 265.7 325.94 264.43 325.47 263.15 325 261.88 324.5 260.57 323.91 259.29 323.41 258.02 322.86 256.71 461.23 180.77 462.2 183.74 463.11 186.74 464 189.74 464.83 192.73 465.61 195.76 466.33 198.78 467.05 201.81 467.69 204.83 468.3 207.88 468.86 210.91 469.36 213.96 469.86 217.04 470.36 220.12 470.77 223.2 471.16 226.25 471.52 229.33 326.72 267.01 326.72 267.01 326.72 267.01" fill-rule="evenodd"/>
    <polygon points="316.92 245.59 311.57 238.46 432.34 123.29 433.09 124.2 433.87 125.31 434.65 126.48 435.53 127.73 436.42 129.08 437.34 130.53 438.28 132.05 439.23 133.63 440.22 135.27 441.2 136.99 442.22 138.74 443.22 140.52 445.25 144.18 447.27 147.9 449.19 151.61 451.07 155.28 451.96 157.11 452.82 158.86 453.6 160.58 454.4 162.21 455.12 163.85 455.79 165.38 456.43 166.85 457.01 168.23 457.51 169.54 457.95 170.73 458.31 171.84 458.62 172.81 316.92 245.59 316.92 245.59 316.92 245.59" fill-rule="evenodd"/>
    <polygon points="306.3 232.69 304.8 231.24 303.3 229.88 301.72 228.55 300.16 227.25 298.53 226 296.86 224.78 295.17 223.59 293.45 222.42 383.29 72.68 386.23 74.93 389.14 77.2 391.95 79.53 394.78 81.89 396.14 83.05 397.55 84.28 398.91 85.47 400.27 86.69 401.6 87.91 402.93 89.16 404.24 90.41 405.54 91.66 406.85 92.9 408.15 94.18 409.43 95.46 410.65 96.73 411.9 98.04 413.12 99.37 414.31 100.67 415.53 102 416.72 103.36 417.89 104.72 419.03 106.08 420.16 107.44 421.3 108.83 422.41 110.22 423.49 111.63 424.58 113.02 306.3 232.69 306.3 232.69 306.3 232.69" fill-rule="evenodd"/>
    <polygon points="253.52 209.71 255.58 28.92 257.85 28.92 260.18 29.01 262.6 29.12 264.95 29.28 267.42 29.45 269.87 29.67 272.31 29.95 274.75 30.25 277.19 30.56 279.63 30.89 282.05 31.25 284.4 31.64 286.79 32.03 289.07 32.42 291.31 32.81 293.48 33.22 297.64 34.06 301.44 34.86 304.85 35.61 307.79 36.33 310.21 36.94 312.04 37.44 312.73 37.64 313.23 37.8 313.57 37.91 313.7 38 267.12 211.35 265.34 210.99 263.65 210.68 261.93 210.41 260.18 210.16 258.49 209.99 256.83 209.85 255.16 209.74 253.52 209.71 253.52 209.71 253.52 209.71" fill-rule="evenodd"/>
  </g>
</svg>