<?xml version="1.0" encoding="UTF-8"?>
<svg id="Layer_1" data-name="Layer 1" xmlns="http://www.w3.org/2000/svg" width="500" height="500" viewBox="0 0 500 500">
  <rect width="500" height="500" fill="none"/>
  <g id="g8">
    <path id="path4" d="m250,28.72C127.79,28.72,28.72,127.79,28.72,250s99.07,221.28,221.28,221.28,221.28-99.07,221.28-221.28S372.21,28.72,250,28.72Zm0,417.58c-108.4,0-196.3-87.9-196.3-196.3S141.55,53.7,250,53.7s196.3,87.9,196.3,196.3-87.9,196.3-196.3,196.3Z"/>
    <path id="path6" d="m410.81,339.12l-32.12-37.51c-.39-.44-.88-.83-1.4-1.14-1.62-.92-3.59-.96-5.17-.18h0c-4.91,2.32-10.82,2.28-15.91-.66-4.51-2.59-7.36-6.92-8.28-11.66h0c-2.28-12.05-9.55-23.05-20.99-29.62l-14.37-8.28,81.81-47.23-10.12-17.53-91.93,53.06-11.04-6.35v-12.75l91.93-53.06-10.12-17.53-81.81,47.23v-16.61c0-13.19-5.92-25.02-15.16-32.99h0c-3.64-3.11-5.96-7.8-5.96-12.97,0-5.83,2.94-11,7.41-14.11,1.45-1.01,2.41-2.67,2.41-4.56,0-.61-.09-1.23-.31-1.8l-16.43-46.58c-.44-1.36-1.75-2.32-3.24-2.32s-2.76.96-3.24,2.32l-16.43,46.58c-.18.57-.31,1.18-.31,1.8,0,1.88.96,3.59,2.41,4.56h0c4.47,3.07,7.41,8.24,7.41,14.11,0,5.21-2.32,9.86-5.96,12.97-9.29,7.97-15.16,19.81-15.16,32.99v16.61l-81.81-47.23-10.12,17.53,91.93,53.06v12.75l-11.04,6.35-91.93-53.06-10.12,17.53,81.81,47.23-14.42,8.28c-11.44,6.57-18.71,17.61-20.99,29.62h0c-.88,4.73-3.77,9.07-8.24,11.66-5.08,2.94-11,2.98-15.91.66h0c-1.62-.74-3.51-.74-5.17.18-.53.31-1.01.7-1.4,1.14l-32.12,37.51c-.96,1.05-1.14,2.67-.39,3.99.74,1.27,2.23,1.93,3.64,1.67l48.55-9.11c.57-.13,1.18-.31,1.71-.61,1.67-.96,2.63-2.63,2.76-4.38.44-5.39,3.46-10.52,8.5-13.45,4.47-2.59,9.68-2.89,14.24-1.31,11.57,4.07,24.71,3.24,36.15-3.37l14.37-8.28v94.43h20.24v-106.13l11.04-6.4,11.04,6.4v106.13h20.24v-94.43l14.37,8.28c11.44,6.62,24.63,7.45,36.15,3.37,4.51-1.62,9.73-1.27,14.24,1.31,5.04,2.94,8.06,8.06,8.5,13.45.13,1.75,1.1,3.42,2.76,4.38.53.31,1.14.53,1.71.61l48.55,9.11c1.4.26,2.89-.35,3.64-1.67.74-1.31.53-2.89-.44-3.94h.04v-.04Zm-192.09-58.32l-26.99,15.56c-5.3,3.07-12.05,1.23-15.07-4.03-3.07-5.3-1.23-12.05,4.03-15.12l26.99-15.6,11.04,6.4v12.75h0v.04Zm20.24-104.46c0-6.09,4.95-11.04,11.04-11.04s11.04,4.95,11.04,11.04v31.15l-11.04,6.35-11.04-6.35v-31.15Zm23.75,81.02l-12.71,7.32-12.71-7.32v-14.68l12.71-7.36,12.71,7.36v14.68Zm60.69,35.01c-3.07,5.26-9.82,7.1-15.12,4.03l-26.99-15.6v-12.75l11.04-6.4,26.99,15.6c5.3,3.07,7.1,9.82,4.07,15.12Z"/>
  </g>
</svg>