<?xml version="1.0" encoding="UTF-8"?>
<svg id="Layer_1" data-name="Layer 1" xmlns="http://www.w3.org/2000/svg" width="500" height="500" viewBox="0 0 500 500">
  <rect width="500" height="500" fill="none"/>
  <g id="g27">
    <g id="_レイヤー_1" data-name=" レイヤー 1">
      <g id="g24">
        <g id="g8">
          <path id="path4" d="m74.5,201.16c-26.98,0-48.84,21.87-48.84,48.84s21.87,48.84,48.84,48.84,48.84-21.87,48.84-48.84-21.87-48.84-48.84-48.84Zm0,92.18c-23.93,0-43.33-19.4-43.33-43.33s19.39-43.33,43.33-43.33,43.33,19.4,43.33,43.33-19.4,43.33-43.33,43.33Z"/>
          <path id="path6" d="m110,269.67l-7.09-8.28c-.09-.1-.19-.18-.31-.25-.36-.2-.79-.21-1.14-.04h0c-1.08.51-2.39.5-3.51-.15-1-.57-1.62-1.53-1.83-2.57h0c-.5-2.66-2.11-5.09-4.63-6.54l-3.17-1.83,18.06-10.43-2.23-3.87-20.29,11.71-2.44-1.4v-2.81l20.29-11.71-2.23-3.87-18.06,10.43v-3.67c0-2.91-1.31-5.52-3.35-7.28h0c-.8-.69-1.32-1.72-1.32-2.86,0-1.29.65-2.43,1.63-3.11.32-.22.53-.59.53-1.01,0-.14-.02-.27-.07-.4l-3.63-10.28c-.1-.3-.39-.51-.72-.51s-.61.21-.72.51l-3.63,10.28c-.04.13-.07.26-.07.4,0,.42.21.79.53,1.01h0c.99.68,1.63,1.82,1.63,3.11,0,1.15-.51,2.18-1.32,2.86-2.05,1.76-3.35,4.37-3.35,7.28v3.67l-18.06-10.43-2.23,3.87,20.29,11.71v2.81l-2.44,1.4-20.29-11.71-2.23,3.87,18.06,10.43-3.18,1.83c-2.52,1.45-4.13,3.89-4.63,6.54h0c-.19,1.04-.83,2-1.82,2.57-1.12.65-2.43.66-3.51.15h0c-.36-.16-.77-.16-1.14.04-.12.07-.22.15-.31.25l-7.09,8.28c-.21.23-.25.59-.09.88.16.28.49.43.8.37l10.72-2.01c.13-.03.26-.07.38-.14.37-.21.58-.58.61-.97.1-1.19.76-2.32,1.88-2.97.99-.57,2.14-.64,3.14-.29,2.55.9,5.46.72,7.98-.74l3.17-1.83v20.84h4.47v-23.43l2.44-1.41,2.44,1.41v23.43h4.47v-20.84l3.17,1.83c2.52,1.46,5.44,1.64,7.98.74,1-.36,2.15-.28,3.14.29,1.11.65,1.78,1.78,1.88,2.97.03.39.24.75.61.97.12.07.25.12.38.14l10.72,2.01c.31.06.64-.08.8-.37.16-.29.12-.64-.1-.87h0Zm-42.4-12.86l-5.96,3.43c-1.17.68-2.66.27-3.33-.89-.68-1.17-.27-2.66.89-3.34l5.96-3.44,2.44,1.41v2.81h0Zm4.47-23.07c0-1.34,1.09-2.44,2.44-2.44s2.44,1.09,2.44,2.44v6.88l-2.44,1.4-2.44-1.4v-6.88Zm5.24,17.88l-2.8,1.62-2.8-1.62v-3.24l2.8-1.62,2.8,1.62v3.24Zm13.4,7.73c-.68,1.16-2.17,1.57-3.34.89l-5.96-3.44v-2.81l2.44-1.41,5.96,3.44c1.17.68,1.57,2.17.9,3.34Z"/>
        </g>
        <g id="g22">
          <polygon id="polygon10" points="399.7 240.08 383.4 240.08 383.4 207.49 368.52 207.49 368.52 292.51 383.4 292.51 383.4 255.17 399.7 255.17 399.7 292.51 414.92 292.51 414.92 207.49 399.7 207.49 399.7 240.08"/>
          <polygon id="polygon12" points="134.22 207.49 150.74 259.62 150.74 292.51 167.29 292.51 167.29 257.93 184.42 207.49 170.5 207.49 159.25 240.61 149.07 207.49 134.22 207.49"/>
          <polygon id="polygon14" points="277.83 207.49 270.7 247.93 262.42 207.49 239.18 207.49 239.18 292.51 252.51 292.51 252.51 228.42 263.88 284.13 276.34 284.13 286.43 227.51 286.43 292.51 302.06 292.51 302.06 207.49 277.83 207.49"/>
          <path id="path16" d="m460.3,207.49h-23.03l-15.53,85.03h13.78l3.3-19.79h17.14l3.2,19.79h15.19l-14.02-85.03h-.02Zm-19.13,51.07l6.34-38.03,6.15,38.03h-12.49,0Z"/>
          <path id="path18" d="m324.4,207.49l-15.54,85.03h13.78l3.3-19.79h17.14l3.2,19.79h15.18l-14.03-85.03s-23.02,0-23.02,0Zm3.9,51.07l6.34-38.03,6.15,38.03h-12.49,0Z"/>
          <path id="path20" d="m195.07,207.49l-15.54,85.03h13.78l3.3-19.79h17.14l3.2,19.79h15.18l-14.02-85.03h-23.03Zm3.9,51.07l6.34-38.03,6.15,38.03h-12.49Z"/>
        </g>
      </g>
    </g>
  </g>
</svg>