<?xml version="1.0" encoding="UTF-8"?>
<svg id="Layer_1" data-name="Layer 1" xmlns="http://www.w3.org/2000/svg" width="500" height="500" viewBox="0 0 500 500">
  <rect width="500" height="500" fill="none"/>
  <g>
    <path d="m250,114.03c-124.75,0-225.87,60.88-225.87,135.97s101.13,135.97,225.87,135.97,225.87-60.88,225.87-135.97-101.13-135.97-225.87-135.97Zm181.8,170.41c-4.7,6.68-10.78,13.21-18.01,19.38,5.32,2.98,7.38,5.6,3.49,7.46-.46.23-.94.44-1.43.66-.15.07-.32.14-.48.21-.33.15-.68.3-1.02.44-.19.08-.39.16-.59.24-.33.14-.66.27-1,.4-.21.08-.42.16-.62.24-.35.14-.7.26-1.06.39-.21.08-.41.15-.62.23-.4.14-.8.28-1.21.42-.17.06-.35.12-.53.18-.59.2-1.19.4-1.81.59-.03,0-.06.02-.09.03-.59.19-1.18.37-1.78.55l-.6.17c-.44.13-.89.26-1.34.39-.24.06-.48.14-.71.2-.43.12-.87.24-1.31.36-.25.06-.5.14-.75.2-.45.12-.91.24-1.37.35-.24.06-.48.12-.72.18-.53.13-1.06.26-1.6.39-.18.05-.36.09-.55.13-.73.17-1.48.35-2.23.51-.03,0-.05.01-.08.02-.51.12-1.04.23-1.57.35-17.85,10.61-38.78,19.02-62.23,24.99-25.25,6.43-52.17,9.69-79.98,9.69s-54.73-3.26-79.98-9.69c-23.18-5.9-43.89-14.19-61.6-24.62-.09-.02-.19-.04-.28-.06-.51-.11-1.02-.22-1.52-.33-.16-.04-.32-.07-.48-.11-.5-.11-.98-.22-1.45-.33-.15-.04-.3-.07-.46-.11-.48-.12-.95-.23-1.42-.34-.11-.03-.21-.05-.32-.08-.42-.1-.83-.21-1.24-.32-.12-.03-.24-.06-.35-.09-.44-.12-.88-.24-1.3-.35-.13-.04-.26-.07-.39-.11-.42-.12-.83-.24-1.23-.36-.12-.03-.23-.07-.33-.1-.41-.12-.82-.25-1.2-.38-.06-.02-.13-.05-.19-.06-.36-.12-.71-.24-1.05-.35-.08-.03-.17-.06-.26-.09-.36-.13-.71-.26-1.05-.39-.1-.03-.19-.07-.28-.1-.33-.13-.66-.26-.98-.39-.08-.03-.15-.06-.23-.1-.32-.14-.64-.27-.94-.41-.04-.02-.08-.04-.12-.05-.28-.13-.55-.26-.81-.39-.06-.03-.12-.06-.17-.08-.27-.14-.52-.28-.77-.41-.06-.03-.12-.06-.18-.1-.24-.14-.47-.28-.69-.42-.05-.03-.09-.06-.14-.09-.23-.15-.44-.3-.64-.44-.02-.01-.03-.03-.05-.04-.19-.14-.37-.28-.53-.43-.03-.03-.06-.05-.1-.08-.16-.15-.32-.3-.46-.44-.03-.03-.06-.06-.09-.1-.14-.15-.26-.3-.37-.44-.02-.03-.04-.06-.06-.08-.11-.15-.21-.32-.3-.47,0,0,0-.01-.01-.03-.08-.15-.14-.31-.2-.47,0-.03-.02-.05-.03-.08-.05-.15-.08-.31-.1-.46,0-.03,0-.06-.01-.1-.02-.15-.02-.32-.01-.47,0-.03,0-.05,0-.08.01-.17.04-.33.08-.5h0c.05-.18.11-.35.19-.51.01-.03.02-.05.03-.08.08-.16.17-.32.28-.49.02-.03.04-.06.06-.09.11-.16.23-.33.37-.49.02-.03.05-.05.07-.08.15-.17.32-.35.5-.52h0c.25-.24.51-.48.77-.72-8.02-6.61-14.71-13.65-19.78-20.86-7.9-11.24-11.9-22.83-11.9-34.43s4-23.19,11.9-34.43c4.7-6.68,10.78-13.21,18.01-19.38-.17-.1-.34-.19-.5-.28-.74-.43-1.42-.85-2.01-1.26-.79-.55-1.44-1.08-1.93-1.6-.49-.51-.82-1.01-.97-1.49-.08-.24-.11-.47-.09-.69.06-.79.69-1.51,2.01-2.14.46-.23.94-.44,1.43-.66.15-.07.32-.14.48-.21.33-.15.68-.3,1.02-.44.19-.08.39-.16.59-.24.33-.14.66-.27,1-.4.21-.08.42-.16.62-.24.35-.14.7-.26,1.06-.39.21-.08.41-.15.62-.23.4-.14.8-.28,1.22-.42.17-.06.35-.12.52-.18.59-.2,1.2-.4,1.81-.59.02,0,.04-.01.05-.02.6-.19,1.2-.37,1.82-.56.19-.06.39-.12.59-.17.45-.14.9-.26,1.36-.4.23-.06.46-.13.69-.19.44-.12.88-.24,1.33-.37.24-.06.48-.13.73-.19.46-.12.93-.24,1.4-.36.23-.06.46-.12.7-.18.54-.14,1.09-.27,1.63-.4.17-.04.33-.08.5-.12,1.27-.3,2.57-.59,3.89-.88,17.85-10.61,38.78-19.02,62.23-24.99,25.25-6.43,52.17-9.69,79.98-9.69s54.73,3.26,79.98,9.69c23.18,5.9,43.89,14.19,61.6,24.62.1.02.2.05.3.06.5.1.98.21,1.47.32.19.04.37.08.55.12.48.1.94.21,1.4.32.17.04.34.08.51.12.44.1.88.21,1.31.32.15.04.29.07.44.11.39.1.78.2,1.16.3.14.03.26.07.4.1.43.12.86.23,1.27.35.14.04.28.08.42.12.41.12.81.23,1.2.35.12.04.24.07.37.11.39.12.78.24,1.15.36.08.03.17.06.26.08.35.12.68.23,1.02.34.09.03.19.06.28.1.35.13.7.25,1.04.38.1.04.19.07.29.11.33.13.66.26.97.39.08.03.16.06.24.1.32.14.63.27.93.41.05.02.08.04.13.06.28.13.55.26.8.39.06.03.12.06.17.08.27.14.52.28.77.41.06.03.12.07.18.1.24.14.47.28.69.42.05.03.09.06.14.09.23.15.44.29.64.44.02.01.03.03.05.04.19.14.37.28.53.43.03.03.06.05.1.08.17.15.32.3.46.44.03.03.06.06.09.1.14.15.26.3.37.44.02.03.04.06.06.08.11.15.21.32.3.47,0,0,0,.01.01.02.08.15.15.31.2.47,0,.03.02.05.03.08.05.15.08.31.1.46,0,.03,0,.06.01.1.02.15.02.32.01.47,0,.03,0,.05,0,.08-.01.17-.04.33-.08.5h0c-.05.17-.11.34-.19.51-.01.03-.02.05-.03.08-.08.16-.17.32-.28.49-.02.03-.04.06-.06.09-.11.16-.23.33-.37.5-.02.03-.05.05-.07.08-.15.17-.32.35-.5.52-.25.24-.51.48-.77.72,8.02,6.61,14.71,13.65,19.78,20.86,7.9,11.24,11.9,22.83,11.9,34.43s-4,23.19-11.9,34.43l-.03.03Z"/>
    <path d="m411.12,306.03c-1.99-1.04-4.74-2.32-8.58-3.89-7.84-3.2-17.46-6.52-26.77-9.72-3.25-1.12-6.4-2.2-9.34-3.24,1.51,3.17,2.52,6.98.68,10.6-2.16,4.27-7.6,6.7-16.62,7.43-5.16.42-11.05.64-17.53.64-22.52,0-50.8-2.59-75.64-6.92-16.04-2.8-44.66-8.84-56.1-17.89-1.27-1-1.96-2.46-1.95-4.11.06-6.31,11.08-15.66,37.39-35.57,4.34-3.29,9.55-7.23,13.63-10.5-11.72,3.27-33.01,9.57-56.85,18.45-46.57,17.33-82.1,36.69-102.93,56.02-.36.33-.73.67-1.08,1.01-.33.32-.49.54-.56.66.3.46,2.05,2.52,10.94,5.08.96.28,2,.56,3.13.85,9.12,2.31,21.77,4.37,37.61,6.14,30.86,3.43,71.89,5.39,112.55,5.39,64.98,0,117.92-4.66,147.56-12.71,5.8-1.58,10.73-3.29,14.66-5.11-.69-.57-1.96-1.43-4.21-2.61h0Z"/>
    <path d="m400.18,185.91c-.96-.28-2-.56-3.13-.85-9.12-2.31-21.77-4.38-37.61-6.14-30.86-3.43-71.89-5.39-112.55-5.39-64.98,0-117.92,4.66-147.56,12.71-5.8,1.58-10.73,3.29-14.66,5.11.69.57,1.96,1.43,4.21,2.61,1.99,1.04,4.74,2.32,8.58,3.89,7.84,3.2,17.46,6.52,26.77,9.72,3.25,1.12,6.4,2.2,9.34,3.24-1.51-3.17-2.52-6.98-.68-10.6,2.16-4.27,7.6-6.69,16.62-7.43,5.16-.42,11.05-.64,17.53-.64,22.52,0,50.8,2.59,75.64,6.92,16.04,2.8,44.66,8.84,56.1,17.89,1.27,1,1.96,2.46,1.95,4.11-.06,6.31-11.08,15.66-37.39,35.57-4.34,3.29-9.55,7.23-13.63,10.5,11.72-3.27,33.01-9.57,56.85-18.45,46.57-17.33,82.1-36.69,102.93-56.02.36-.33.73-.67,1.08-1.01.33-.32.49-.54.56-.66-.3-.46-2.05-2.52-10.94-5.08h0Z"/>
  </g>
</svg>