<?xml version="1.0" encoding="UTF-8"?>
<svg id="Layer_1" data-name="Layer 1" xmlns="http://www.w3.org/2000/svg" width="500" height="500" viewBox="0 0 500 500">
  <rect width="500" height="500" fill="none"/>
  <g>
    <path d="m110.67,389.82c3.09-.45,6.24.26,8.88,1.93,1.61,1.74.51,4.25.06,6.24-.58,2.64-1.42,5.66-3.99,7.08-2,1.22-4.38,1.48-6.63,1.61-7.72.06-15.45-.06-23.11,0l-.06.32c-.06,1.8-1.35,3.99-.51,5.6,10.04.71,20.28.06,30.38.32-.39,1.54-.77,3.15-1.22,4.76-.58.06-1.74.26-2.32.32-10.88.06-21.76,0-32.64,0-2.51,0-5.99-.97-6.31-3.93,1.74-6.12,2.96-12.36,4.76-18.47.64-3.54,4.51-5.54,7.85-5.54,8.3-.13,16.61.32,24.85-.26m-20.92,5.41v.39c-1.87.64-1.48,3.22-2.06,4.76-.58-.32-.51,1.48.06,1.16h20.08l-.06-.39c.64-1.74.84-3.67,1.22-5.47h-.39v-.39c-6.31-.13-12.55-.13-18.86-.06m138.01-2.38c2.45-2.19,5.79-2.96,8.95-3.09,11.01.71,22.08,0,33.09.32,0,.26.06.84.06,1.16,0,1.35-.45,2.64-.9,3.93-10.11.19-20.28-.39-30.32.26-.71.26-1.48.84-1.48,1.67-.13,1.16-.97,2.25-.71,3.48.32.45.9.51,1.42.58,7.21.58,14.48.13,21.76.26,2.25,0,4.76.64,6.24,2.45.51,3.22-.97,6.24-1.54,9.33-1.35,3.35-5.28,4.63-8.63,4.7-11.52-.06-23.04.06-34.5-.06-.06-.19-.13-.51-.13-.71.58-1.22.13-3.73,1.29-4.38,9.98-.19,20.02.39,30-.26,2.12-.77,2.25-3.6,2.19-5.6-.13-.06-.51-.13-.64-.19-7.08-.64-14.23-.13-21.37-.26-2.7.19-5.66-.71-7.4-2.9.06-3.48.9-7.4,2.64-10.69m145.54-3.03h.26c1.16.13,2.45.26,3.6.26,2.51-.13,5.66,1.16,5.92,3.93-1.67,6.57-3.41,13.13-5.15,19.63-1.48,3.09-5.02,4.31-8.24,4.38h-27.55c-2.83.13-7.34-1.35-6.24-5.09,1.35-3.09.84-6.95,3.54-9.4,2.25-1.22,4.76-2.25,7.4-2.06h20.08c.77-.58,2.45.45,3.22-.32.64-1.61,1.61-4.18.77-5.73-.39-.19-.77-.32-1.16-.39-7.85-.64-15.77-.13-23.69-.26-1.74-.19-3.6.39-5.21-.26.06-1.54.97-2.9.97-4.44h.32c10.43-.13,20.79.32,31.15-.26m-24.85,16.8l.06.39c-.45,1.29-.71,2.64-1.22,3.93-.32.77.19,1.74,1.09,1.54v.39c5.73.06,11.52,0,17.32,0v-.39c2.51.26,2.32-3.15,2.83-4.76.58.32.51-1.48-.06-1.16-6.63.06-13.32,0-20.02.06m126.29-16.8c.58,0,1.67-.06,2.25-.13-.32,1.67-.32,3.6-1.29,5.09h-23.95c-1.74.13-3.54-.32-5.21.26-.39.13-.77.26-1.16.39-1.93.51-1.8,2.9-2.25,4.44-.26.71.45,1.09,1.03,1.29,7.21.64,14.48.13,21.76.26,2.38,0,5.02.58,6.63,2.45.26,3.35-.64,6.69-1.93,9.72-1.22,3.22-5.15,4.18-8.24,4.31-11.52-.06-23.04.06-34.5-.06-.06-.19-.13-.51-.13-.71.58-1.22.13-3.73,1.29-4.38,9.98-.19,20.02.39,30-.26,1.03-.32,1.87-1.35,1.87-2.45.19-.97.97-2.64-.32-3.22-7.15-.71-14.48-.13-21.76-.32-2.12-.13-4.44-.32-6.12-1.74-.71-1.09-1.35-2.38-.77-3.67,1.09-3.22.9-7.27,3.86-9.46,1.93-1.03,3.99-1.74,6.18-1.67,10.94-.06,21.89.51,32.76-.13m-183.65,4.57c1.42-3.09,5.09-4.31,8.24-4.31h35.02c-.39,1.67-.58,3.48-1.29,5.09-10.11.19-20.28-.39-30.32.26-.84.32-1.74.9-1.42,2.12-1.16,4.44-2.57,8.88-3.54,13.39,0,.64-.39,1.74.64,1.67,9.98.64,20.02.06,30,.26-.39,1.67-.58,3.48-1.29,5.09-11.52.06-23.04,0-34.5,0-2.25.13-4.7-.71-6.24-2.45-.51-3.41,1.16-6.57,1.74-9.85.84-3.8,2-7.47,2.96-11.26"/>
    <path d="m160.62,389.82h.26c1.03.06,2.12.26,3.22.26,2.57-.19,6.63,1.35,5.86,4.7-2.12,7.72-3.86,15.51-5.86,23.24h-10.94c1.87-7.08,3.54-14.23,5.34-21.37.32-.51-.13-.84-.51-1.16-6.31-.64-12.87-.26-19.25-.26l-.13.32c-2.12,7.4-3.67,15.06-5.92,22.4h-10.94c2.45-9.14,4.76-18.28,7.21-27.42.06-.13.26-.32.39-.45,10.3-.19,20.79.32,31.28-.26m229.61,4.7c2.12-4.44,7.66-4.76,11.97-4.7,6.05.64,12.1.13,18.22.26,2.57-.19,6.95,1.48,5.66,4.83-.64,1.35-.19,3.86-1.35,4.57h-10.62c-.19-1.29,1.03-3.09.13-4.06-4.06-.45-8.37-.51-12.42,0-.39.13-.71.32-.97.58-1.67,6.95-3.73,13.78-5.15,20.73,0,.45-.19.84-.45,1.16h-10.94c1.93-7.72,3.93-15.58,5.92-23.37"/>
    <path d="m30.08,390.07c13.84,0,27.68-.06,41.52,0,0,.32.06.84.13,1.16-.13,1.29-.39,2.57-.9,3.86-10.49,5.41-20.66,11.52-31.03,17.12-.84.45-2.38,1.48,1.22.64,8.37.06,16.8,0,25.23,0-.51,1.67-.84,3.35-1.22,5.09-13.97,0-27.94.06-41.9,0-.06-.19-.13-.51-.13-.71.45-1.29.32-2.96,1.16-4.06,9.98-5.99,20.47-11.26,30.45-17.32.39-.13.77-.26,1.16-.39.77-.84.26-1.03-1.61-.71h-25.17c0-1.54.06-3.41,1.09-4.7"/>
    <path d="m178.32,392.91c1.87-2.06,4.7-2.9,7.4-2.83h27.94c2.77-.06,6.89,1.54,5.86,5.09-1.74,5.86-3.15,11.78-4.7,17.7-1.03,3.67-5.15,5.09-8.63,5.15h-27.55c-2.77.06-7.02-1.42-6.12-4.96,1.03-3.48,1.74-7.02,2.77-10.49.9-3.28,1.03-6.82,3.03-9.66m10.88,2.32v.39c-1.35-.13-1.93,1.74-2,2.77-.84,4.76-2.96,9.27-3.15,14.16h.77v.39h17.7v-.39c1.22.13,1.87-1.42,1.93-2.38,1.09-4.51,2.32-8.95,3.41-13.52.32-.51-.13-1.09-.64-1.03v-.39c-5.92-.06-11.97-.06-18.02,0"/>
    <g>
      <path d="m250.39,81.96c-124.81,0-225.98,60.91-225.98,136.04s101.18,136.04,225.98,136.04,225.98-60.91,225.98-136.04-101.18-136.04-225.98-136.04Zm181.89,170.49c-4.7,6.68-10.79,13.22-18.02,19.39,5.32,2.98,7.38,5.61,3.5,7.47-.46.23-.94.44-1.43.66-.15.07-.32.14-.48.21-.33.15-.68.3-1.02.44-.19.08-.39.16-.59.24-.33.14-.66.27-1,.4-.21.08-.42.16-.62.24-.35.14-.7.26-1.06.39-.21.08-.41.15-.62.23-.4.14-.8.28-1.21.42-.17.06-.35.12-.53.18-.59.2-1.19.4-1.81.59-.03,0-.06.02-.09.03-.59.19-1.18.37-1.78.55l-.6.17c-.44.13-.89.26-1.35.39-.24.06-.48.14-.71.2-.43.12-.87.24-1.31.36-.25.06-.5.14-.75.2-.45.12-.91.24-1.37.35-.24.06-.48.12-.72.18-.53.13-1.06.26-1.6.39-.18.05-.36.09-.55.13-.73.17-1.48.35-2.23.51-.03,0-.05.01-.08.02-.51.12-1.04.23-1.57.35-17.86,10.61-38.8,19.03-62.26,25-25.27,6.43-52.19,9.69-80.02,9.69s-54.75-3.26-80.02-9.69c-23.19-5.9-43.91-14.19-61.63-24.63-.09-.02-.19-.04-.28-.06-.51-.11-1.02-.22-1.53-.33-.16-.04-.32-.07-.48-.11-.5-.11-.98-.22-1.45-.33-.15-.04-.3-.07-.46-.11-.48-.12-.95-.23-1.42-.34-.11-.03-.21-.05-.32-.08-.42-.1-.83-.21-1.24-.32-.12-.03-.24-.06-.35-.09-.44-.12-.88-.24-1.3-.35-.13-.04-.26-.07-.39-.11-.42-.12-.83-.24-1.23-.36-.12-.03-.23-.07-.33-.1-.41-.12-.82-.25-1.2-.38-.06-.02-.13-.05-.19-.06-.36-.12-.71-.24-1.05-.35-.08-.03-.17-.06-.26-.09-.36-.13-.71-.26-1.05-.39-.1-.03-.19-.07-.28-.1-.33-.13-.66-.26-.98-.39-.08-.03-.15-.06-.23-.1-.32-.14-.64-.27-.94-.41-.04-.02-.08-.04-.12-.05-.28-.13-.55-.26-.81-.39-.06-.03-.12-.06-.17-.08-.27-.14-.52-.28-.77-.41-.06-.03-.12-.06-.18-.1-.24-.14-.47-.28-.69-.42-.05-.03-.09-.06-.14-.09-.23-.15-.44-.3-.64-.44-.02-.01-.03-.03-.05-.04-.19-.14-.37-.28-.53-.43-.03-.03-.06-.05-.1-.08-.16-.15-.32-.3-.46-.44-.03-.03-.06-.06-.09-.1-.14-.15-.26-.3-.37-.44-.02-.03-.04-.06-.06-.08-.11-.15-.21-.32-.3-.47,0,0,0-.01-.01-.03-.08-.15-.14-.31-.2-.47,0-.03-.02-.05-.03-.08-.05-.15-.08-.31-.1-.46,0-.03,0-.06-.01-.1-.02-.15-.02-.32-.01-.47,0-.03,0-.05,0-.08.01-.17.04-.33.08-.5h0c.05-.18.11-.35.19-.51.01-.03.02-.05.03-.08.08-.16.17-.32.28-.49.02-.03.04-.06.06-.09.11-.16.23-.33.37-.49.02-.03.05-.05.07-.08.15-.17.32-.35.5-.52h0c.25-.24.51-.48.77-.72-8.02-6.61-14.72-13.65-19.79-20.88-7.9-11.25-11.91-22.84-11.91-34.45s4-23.21,11.91-34.45c4.7-6.68,10.79-13.22,18.02-19.39-.17-.1-.34-.19-.5-.28-.74-.43-1.42-.85-2.01-1.26-.79-.55-1.44-1.08-1.93-1.6-.49-.51-.82-1.01-.97-1.49-.08-.24-.11-.47-.09-.7.06-.79.69-1.51,2.01-2.14.46-.23.94-.44,1.43-.66.15-.07.32-.14.48-.21.33-.15.68-.3,1.02-.44.19-.08.39-.16.59-.24.33-.14.66-.27,1-.4.21-.08.42-.16.62-.24.35-.14.7-.26,1.06-.39.21-.08.41-.15.62-.23.4-.14.8-.28,1.22-.42.17-.06.35-.12.52-.18.59-.2,1.2-.4,1.81-.59.02,0,.04-.01.05-.02.6-.19,1.2-.37,1.82-.56.19-.06.39-.12.59-.17.45-.14.9-.26,1.36-.4.23-.06.46-.13.7-.19.44-.12.88-.24,1.33-.37.24-.06.48-.13.73-.19.46-.12.93-.24,1.4-.36.23-.06.46-.12.7-.18.54-.14,1.09-.27,1.63-.4.17-.04.33-.08.5-.12,1.27-.3,2.57-.59,3.89-.88,17.86-10.61,38.8-19.03,62.26-25,25.27-6.43,52.19-9.69,80.02-9.69s54.75,3.26,80.02,9.69c23.19,5.9,43.91,14.19,61.63,24.63.1.02.2.05.3.06.5.1.98.21,1.47.32.19.04.37.08.55.12.48.1.94.21,1.4.32.17.04.34.08.51.12.44.1.88.21,1.31.32.15.04.29.07.44.11.39.1.78.2,1.17.3.14.03.26.07.4.1.43.12.86.23,1.27.35.14.04.28.08.42.12.41.12.81.23,1.2.35.12.04.24.07.37.11.39.12.78.24,1.15.36.08.03.17.06.26.08.35.12.68.23,1.02.34.09.03.19.06.28.1.35.13.7.25,1.04.38.1.04.19.07.29.11.33.13.66.26.97.39.08.03.16.06.24.1.32.14.63.27.93.41.05.02.08.04.13.06.28.13.55.26.8.39.06.03.12.06.17.08.27.14.52.28.77.41.06.03.12.07.18.1.24.14.47.28.69.42.05.03.09.06.14.09.23.15.44.29.64.44.02.01.03.03.05.04.19.14.37.28.53.43.03.03.06.05.1.08.17.15.32.3.46.44.03.03.06.06.09.1.14.15.26.3.37.44.02.03.04.06.06.08.11.15.21.32.3.47,0,0,0,.01.01.02.08.15.15.31.2.47,0,.03.02.05.03.08.05.15.08.31.1.46,0,.03,0,.06.01.1.02.15.02.32.01.47,0,.03,0,.05,0,.08-.01.17-.04.33-.08.5h0c-.05.17-.11.34-.19.51-.01.03-.02.05-.03.08-.08.16-.17.32-.28.49-.02.03-.04.06-.06.09-.11.16-.23.33-.37.5-.02.03-.05.05-.07.08-.15.17-.32.35-.5.52-.25.24-.51.48-.77.72,8.02,6.61,14.72,13.65,19.79,20.88,7.9,11.25,11.91,22.84,11.91,34.45s-4,23.21-11.91,34.45l-.03.03Z"/>
      <path d="m411.59,274.06c-1.99-1.04-4.74-2.32-8.58-3.89-7.84-3.21-17.47-6.52-26.78-9.72-3.25-1.12-6.4-2.2-9.34-3.24,1.51,3.17,2.52,6.98.68,10.6-2.16,4.27-7.6,6.7-16.63,7.43-5.16.42-11.06.64-17.53.64-22.53,0-50.82-2.59-75.68-6.92-16.05-2.8-44.69-8.84-56.13-17.89-1.27-1-1.96-2.47-1.95-4.11.06-6.31,11.08-15.67,37.41-35.59,4.34-3.29,9.56-7.24,13.63-10.51-11.73,3.27-33.02,9.58-56.88,18.46-46.59,17.34-82.14,36.7-102.99,56.05-.36.33-.73.67-1.08,1.01-.33.32-.49.54-.56.66.3.46,2.05,2.52,10.95,5.09.96.28,2,.56,3.13.85,9.12,2.31,21.78,4.38,37.63,6.14,30.88,3.43,71.92,5.39,112.6,5.39,65.01,0,117.98-4.66,147.63-12.72,5.81-1.58,10.73-3.29,14.66-5.12-.7-.57-1.96-1.44-4.22-2.61h0Z"/>
      <path d="m400.64,153.88c-.96-.28-2-.56-3.13-.85-9.12-2.31-21.78-4.38-37.63-6.14-30.88-3.43-71.92-5.39-112.6-5.39-65.01,0-117.98,4.66-147.63,12.72-5.81,1.58-10.73,3.29-14.66,5.12.7.57,1.96,1.44,4.22,2.61,1.99,1.04,4.74,2.32,8.58,3.89,7.84,3.21,17.47,6.52,26.78,9.72,3.25,1.12,6.4,2.2,9.34,3.24-1.51-3.17-2.52-6.98-.68-10.6,2.16-4.27,7.6-6.69,16.63-7.43,5.16-.42,11.06-.64,17.53-.64,22.53,0,50.82,2.59,75.68,6.92,16.05,2.8,44.69,8.84,56.13,17.89,1.27,1,1.96,2.47,1.95,4.11-.06,6.31-11.08,15.67-37.41,35.59-4.34,3.29-9.56,7.24-13.63,10.51,11.73-3.27,33.02-9.58,56.88-18.46,46.59-17.34,82.14-36.7,102.99-56.05.36-.33.73-.67,1.08-1.01.33-.32.49-.54.56-.66-.3-.46-2.05-2.52-10.95-5.09h0Z"/>
    </g>
  </g>
</svg>